M48
METRIC,LZ,000.000
;FILE_FORMAT=3:3
;TYPE=PLATED
;Layer: PTH_Through_Via
;EasyEDA v6.5.42, 2024-05-05 03:13:37
;7250d8c6975e4c4d8f914fcb0e692275,b9277fd2045942759ab1a28cc0c323af,10
;Gerber Generator version 0.2
;Holesize 1 = 0.200 mm
T01C0.200
;Holesize 2 = 0.305 mm
T02C0.305
%
G05
G90
T01
X072390Y056007
X073406Y056007
X055372Y060833
X056388Y060885
X055499Y070612
X036195Y073533
X034671Y071628
X033713Y066802
X067310Y068707
X042500Y064516
X046228Y063373
X046482Y064516
X049022Y065659
X033174Y059372
X036068Y068834
X035014Y065062
X041402Y074422
X044069Y071755
X052070Y068961
X072155Y059538
X077851Y054229
X041625Y062490
X039370Y062484
X010795Y063500
X042874Y060503
X040259Y063119
X039243Y065405
X069469Y055118
X058674Y066802
X051562Y067818
X054113Y069253
X024130Y052705
X066369Y067187
X049657Y061341
X030099Y056515
X036830Y056388
X062865Y058039
X028321Y056515
X058547Y056769
X053213Y054991
X045212Y058039
X045974Y058420
X061341Y066040
X046736Y060071
X050567Y059981
X052705Y061214
X044883Y071058
X049276Y059563
X062103Y057658
X050165Y063881
X061087Y056642
X045231Y054991
X058039Y059309
X050038Y067183
X062357Y061214
X071864Y065938
X071247Y064389
X066294Y061595
X069799Y063754
X034671Y074295
X030607Y072644
X028956Y067691
X028321Y066675
X028321Y063881
X030607Y071120
X017780Y072136
X017780Y052832
T02
X054229Y065731
X054936Y065024
X053522Y065024
X054229Y064317
M30
