M48
METRIC,LZ,000.000
;FILE_FORMAT=3:3
;TYPE=PLATED
;Layer: PTH_Through_Via
;EasyEDA v6.5.42, 2024-04-26 22:21:31
;38b3a7d161d04e699a59bb6d33d5c949,b9277fd2045942759ab1a28cc0c323af,10
;Gerber Generator version 0.2
;Holesize 1 = 0.200 mm
T01C0.200
;Holesize 2 = 0.305 mm
T02C0.305
%
G05
G90
T01
X069469Y059944
X069977Y060452
X072390Y056007
X072390Y053721
X073406Y056007
X073406Y053721
X066548Y064897
X066727Y060258
X055372Y060833
X056388Y060885
X055499Y070612
X036195Y073533
X034671Y071628
X033713Y066802
X031369Y066929
X067691Y058420
X071613Y062850
X067695Y068279
X042500Y064516
X046228Y063373
X046482Y064516
X049022Y065659
X033174Y059372
X036068Y068834
X031369Y069850
X030353Y072644
X031369Y067818
X031496Y063246
X035014Y065062
X041402Y074422
X044069Y071755
X048641Y074295
X052070Y068961
X074422Y068453
X072155Y059538
X077851Y054229
X041625Y062490
X039370Y062484
X013335Y063500
X042874Y060503
X040259Y062738
X041656Y063373
X017653Y072644
X017653Y053213
X066294Y056388
X058674Y066802
X064643Y061722
X051562Y067818
X054113Y069253
X024130Y052705
X066369Y067187
X049657Y061341
X047371Y068326
X059563Y063754
X030099Y056515
X036830Y056388
X062865Y058039
X028321Y056515
X058547Y056769
X053213Y054991
X045212Y058039
X045974Y058420
X060297Y063754
X046736Y060071
X050567Y059981
X052705Y061214
X044883Y071058
X049276Y059563
X062103Y057658
X050038Y063881
X061087Y056642
T02
X054229Y065731
X054936Y065024
X053522Y065024
X054229Y064317
M30
