G04 Layer: BottomLayer*
G04 EasyEDA v6.5.48, 2025-03-08 17:20:47*
G04 63e6e59633d6499fb326ce5c2c9b2855,b9277fd2045942759ab1a28cc0c323af,10*
G04 Gerber Generator version 0.2*
G04 Scale: 100 percent, Rotated: No, Reflected: No *
G04 Dimensions in millimeters *
G04 leading zeros omitted , absolute positions ,4 integer and 5 decimal *
%FSLAX45Y45*%
%MOMM*%

%AMMACRO1*21,1,$1,$2,0,0,$3*%
%ADD10C,0.2540*%
%ADD11C,0.2500*%
%ADD12C,0.1250*%
%ADD13MACRO1,2.8001X1X0.0000*%
%ADD14MACRO1,2.7998X1X0.0000*%
%ADD15R,1.0000X1.3995*%
%ADD16MACRO1,1X1.3995X0.0000*%
%ADD17O,2.2999954X0.9999979999999999*%
%ADD18O,1.9500088X0.9999979999999999*%
%ADD19O,0.9999979999999999X1.6999966*%
%ADD20R,1.6000X1.6000*%
%ADD21C,1.6000*%
%ADD22C,1.8000*%
%ADD23C,2.5000*%
%ADD24C,0.6096*%
%ADD25C,0.4500*%
%ADD26C,0.0160*%

%LPD*%
G36*
X6144260Y6273800D02*
G01*
X6140348Y6274562D01*
X6137097Y6276797D01*
X6134862Y6280048D01*
X6134100Y6283960D01*
X6134100Y6390640D01*
X6134862Y6394551D01*
X6137097Y6397802D01*
X6140348Y6400038D01*
X6144260Y6400800D01*
X6327140Y6400800D01*
X6331051Y6400038D01*
X6334302Y6397802D01*
X6336538Y6394551D01*
X6337300Y6390640D01*
X6337300Y6283960D01*
X6336538Y6280048D01*
X6334302Y6276797D01*
X6331051Y6274562D01*
X6327140Y6273800D01*
G37*

%LPD*%
G36*
X5422900Y6201816D02*
G01*
X5418988Y6202578D01*
X5415737Y6204762D01*
X5125262Y6495237D01*
X5123078Y6498488D01*
X5122316Y6502400D01*
X5123078Y6506311D01*
X5125262Y6509562D01*
X5415737Y6800037D01*
X5418988Y6802221D01*
X5422900Y6802983D01*
X5426811Y6802221D01*
X5430062Y6800037D01*
X5720537Y6509562D01*
X5722721Y6506311D01*
X5723483Y6502400D01*
X5722721Y6498488D01*
X5720537Y6495237D01*
X5430062Y6204762D01*
X5426811Y6202578D01*
G37*

%LPD*%
D10*
X5016500Y6388100D02*
G01*
X5207000Y6197600D01*
X5295900Y6197600D01*
X5346700Y6146800D01*
X5448300Y6146800D01*
X5486400Y6184900D01*
X5651500Y6184900D01*
X6070600Y5765800D01*
X6070600Y5664200D01*
X5270500Y6121400D02*
G01*
X5219700Y6121400D01*
X5054600Y6286500D01*
X4965700Y6286500D01*
X4488179Y6764020D01*
X4488179Y7105904D01*
X4521200Y5803900D02*
G01*
X4521200Y5918200D01*
X4838700Y6235700D01*
X5029200Y6235700D01*
X5232400Y6032500D01*
X5397500Y6032500D01*
X5499100Y6134100D01*
X5593334Y6134100D01*
X5638800Y6088634D01*
X4597400Y5842000D02*
G01*
X4940300Y6184900D01*
X5003800Y6184900D01*
X5219700Y5969000D01*
X5422900Y5969000D01*
X5537200Y6083300D01*
X6979920Y6375400D02*
G01*
X6764020Y6159500D01*
X6629400Y6159500D01*
D11*
X1778000Y5283200D02*
G01*
X1840992Y5346700D01*
X2082800Y5346700D01*
X2209800Y5473700D01*
X2806700Y5473700D01*
X2921000Y5588000D01*
X2921000Y5956300D01*
X3276600Y6311900D01*
X4025900Y6311900D01*
X1778000Y7213600D02*
G01*
X2882900Y7213600D01*
X3327400Y6769100D01*
X3695700Y6769100D01*
X3924300Y6540500D01*
D12*
X3060700Y7112000D02*
G01*
X3060700Y7264400D01*
X3606800Y6883400D02*
G01*
X3289300Y6883400D01*
X3060700Y7112000D01*
X2832100Y6667500D02*
G01*
X2832100Y6388100D01*
X2569209Y6096507D02*
G01*
X2730500Y6257797D01*
X2730500Y6680200D01*
X2819400Y6769100D01*
X2895600Y6769100D01*
D10*
X1079500Y6350000D02*
G01*
X1054100Y6324600D01*
X1054100Y5759996D01*
X1190104Y5623991D01*
X1079500Y6350000D02*
G01*
X1054100Y6375400D01*
X1054100Y6813003D01*
X1190104Y6949008D01*
X3223691Y5248275D02*
G01*
X2643708Y5248275D01*
X6868591Y5235575D02*
G01*
X6288608Y5235575D01*
X4965700Y6134100D02*
G01*
X4254500Y5422900D01*
X3492754Y5422900D01*
X3318002Y5248147D01*
X3223768Y5248147D01*
X6286500Y5803900D02*
G01*
X6288608Y5801791D01*
X6288608Y5635574D01*
X3009900Y5651500D02*
G01*
X3013125Y5648274D01*
X3223691Y5648274D01*
X2832100Y5651500D02*
G01*
X2828874Y5648274D01*
X2643708Y5648274D01*
X6946900Y5511800D02*
G01*
X6868591Y5590108D01*
X6868591Y5635574D01*
D11*
X7175500Y6223000D02*
G01*
X7175500Y6616700D01*
X7162800Y6629400D01*
X7371588Y5865621D02*
G01*
X7395413Y5841796D01*
X7777149Y5841796D01*
X7777149Y6705803D02*
G01*
X7749768Y6678421D01*
X7371588Y6678421D01*
D10*
X7239000Y5600700D02*
G01*
X7061200Y5778500D01*
X7061200Y6400800D01*
X7099300Y6438900D01*
D11*
X5194300Y6794500D02*
G01*
X5232400Y6794500D01*
X5308600Y6870700D01*
X5486400Y6870700D01*
X5549900Y6807200D01*
X5994400Y6807200D01*
X6096000Y6705600D01*
X6515100Y6705600D01*
D10*
X5143500Y6845300D02*
G01*
X5219700Y6845300D01*
X5359400Y6985000D01*
X5435600Y6985000D01*
X5575300Y6845300D01*
X6020815Y6845300D01*
X6109715Y6756400D01*
X6642100Y6756400D01*
X7340600Y5600700D02*
G01*
X7594600Y5600700D01*
X7658912Y5536387D01*
X7658912Y5414594D01*
D11*
X6979920Y6375400D02*
G01*
X6985000Y6370320D01*
X6985000Y5778500D01*
X7353300Y5410200D01*
X7467600Y5410200D01*
D10*
X5816600Y6680200D02*
G01*
X5816600Y6413500D01*
X6527800Y5702300D01*
X6527800Y5524500D01*
X6816849Y5235450D01*
X6868665Y5235450D01*
D13*
G01*
X6868591Y5635586D03*
D14*
G01*
X6288595Y5635586D03*
D13*
G01*
X6868591Y5235587D03*
D14*
G01*
X6288595Y5235587D03*
D13*
G01*
X3223691Y5648286D03*
D14*
G01*
X2643695Y5648286D03*
D13*
G01*
X3223691Y5248287D03*
D14*
G01*
X2643695Y5248287D03*
D15*
G01*
X7661529Y5410200D03*
D16*
G01*
X7451470Y5410200D03*
D17*
G01*
X7777149Y6705803D03*
G01*
X7777149Y5841796D03*
D18*
G01*
X7315200Y6705600D03*
D19*
G01*
X7371588Y6678421D03*
D18*
G01*
X7315200Y5842000D03*
D19*
G01*
X7371588Y5865621D03*
D20*
G01*
X2315108Y6731380D03*
D21*
G01*
X2569083Y6604380D03*
G01*
X2315083Y6477380D03*
G01*
X2569083Y6350380D03*
G01*
X2315083Y6223380D03*
G01*
X2569083Y6096380D03*
G01*
X2315083Y5969380D03*
G01*
X2569083Y5842380D03*
D22*
G01*
X1190117Y6948881D03*
G01*
X1190117Y6694881D03*
G01*
X1190117Y5877864D03*
G01*
X1190117Y5623864D03*
D23*
G01*
X1985111Y7060869D03*
G01*
X1985111Y5511876D03*
D24*
G01*
X5422900Y6573088D03*
G01*
X5493613Y6502374D03*
G01*
X5352186Y6502374D03*
G01*
X5422900Y6431661D03*
D25*
G01*
X7239000Y5600700D03*
G01*
X7340600Y5600700D03*
G01*
X5537200Y6083300D03*
G01*
X5638800Y6088506D03*
G01*
X5549900Y7061200D03*
G01*
X3619500Y7353300D03*
G01*
X3467100Y7162800D03*
G01*
X3371291Y6680200D03*
G01*
X4250029Y6451600D03*
G01*
X4622800Y6337300D03*
G01*
X4648200Y6451600D03*
G01*
X4902200Y6565900D03*
G01*
X3317392Y5937199D03*
G01*
X3606800Y6883400D03*
G01*
X3501390Y6506210D03*
G01*
X4140200Y7442200D03*
G01*
X4406900Y7175500D03*
G01*
X5207000Y6908800D03*
G01*
X7213600Y5943600D03*
G01*
X7785100Y5422900D03*
G01*
X4162475Y6248984D03*
G01*
X3937000Y6248400D03*
G01*
X1079500Y6350000D03*
G01*
X4287443Y6050330D03*
G01*
X4025900Y6311900D03*
G01*
X3924300Y6540500D03*
G01*
X6946900Y5511800D03*
G01*
X5816600Y6680200D03*
G01*
X5143500Y6845300D03*
G01*
X5411266Y6925259D03*
G01*
X2413000Y5270500D03*
G01*
X6642100Y6756400D03*
G01*
X4965700Y6134100D03*
G01*
X3009900Y5651500D03*
G01*
X3683000Y5638800D03*
G01*
X6286500Y5803900D03*
G01*
X2832100Y5651500D03*
G01*
X5854700Y5676900D03*
G01*
X4521200Y5803900D03*
G01*
X4597400Y5842000D03*
G01*
X6134100Y6604000D03*
G01*
X4673600Y6007100D03*
G01*
X5056733Y5998108D03*
G01*
X5270500Y6121400D03*
G01*
X4488281Y7105827D03*
G01*
X4927600Y5956300D03*
G01*
X6197600Y5765800D03*
G01*
X5016500Y6388100D03*
G01*
X6070600Y5664200D03*
G01*
X4523130Y5499100D03*
G01*
X5803900Y5930900D03*
G01*
X5003800Y6718300D03*
G01*
X7162800Y6629400D03*
G01*
X7099300Y6438900D03*
G01*
X6629400Y6159500D03*
G01*
X6979920Y6375400D03*
G01*
X3467100Y7429500D03*
G01*
X3060700Y7264400D03*
G01*
X2895600Y6769100D03*
G01*
X2832100Y6667500D03*
G01*
X2832100Y6388100D03*
G01*
X3060700Y7112000D03*
G01*
X1778000Y7213600D03*
G01*
X1778000Y5283200D03*
G01*
X6286500Y6337300D03*
G01*
X6184900Y6337300D03*
G01*
X7493000Y6172200D03*
G01*
X7175500Y6223000D03*
G01*
X6896100Y6375400D03*
G01*
X7112000Y6553200D03*
G01*
X7137400Y6096000D03*
G01*
X7150100Y6032500D03*
G01*
X7518400Y6464300D03*
G01*
X5951499Y6608800D03*
G01*
X5892800Y6400800D03*
G01*
X5816600Y6337300D03*
G01*
X6540500Y6375400D03*
G01*
X6845300Y7340600D03*
G01*
X5194300Y6794500D03*
G01*
X6515100Y6705600D03*
M02*
