G04 Layer: TopSolderMaskLayer*
G04 EasyEDA v6.5.48, 2025-03-08 17:20:47*
G04 63e6e59633d6499fb326ce5c2c9b2855,b9277fd2045942759ab1a28cc0c323af,10*
G04 Gerber Generator version 0.2*
G04 Scale: 100 percent, Rotated: No, Reflected: No *
G04 Dimensions in millimeters *
G04 leading zeros omitted , absolute positions ,4 integer and 5 decimal *
%FSLAX45Y45*%
%MOMM*%

%AMMACRO1*4,1,8,-0.8386,-1.1308,-0.8683,-1.101,-0.8683,1.1011,-0.8386,1.1308,0.8385,1.1308,0.8683,1.1011,0.8683,-1.101,0.8385,-1.1308,-0.8386,-1.1308,0*%
%AMMACRO2*4,1,8,-0.5711,-1.4508,-0.6008,-1.421,-0.6008,1.4211,-0.5711,1.4508,0.571,1.4508,0.6008,1.4211,0.6008,-1.421,0.571,-1.4508,-0.5711,-1.4508,0*%
%AMMACRO3*4,1,8,-1.4211,-0.6008,-1.4508,-0.571,-1.4508,0.5711,-1.4211,0.6008,1.421,0.6008,1.4508,0.5711,1.4508,-0.571,1.421,-0.6008,-1.4211,-0.6008,0*%
%AMMACRO4*4,1,8,-0.4211,-0.4828,-0.4508,-0.453,-0.4508,0.4531,-0.4211,0.4828,0.421,0.4828,0.4508,0.4531,0.4508,-0.453,0.421,-0.4828,-0.4211,-0.4828,0*%
%AMMACRO5*4,1,8,-0.2911,-0.3336,-0.3208,-0.3038,-0.3208,0.3039,-0.2911,0.3336,0.291,0.3336,0.3208,0.3039,0.3208,-0.3038,0.291,-0.3336,-0.2911,-0.3336,0*%
%AMMACRO6*4,1,8,-0.3039,-0.3208,-0.3336,-0.291,-0.3336,0.2911,-0.3039,0.3208,0.3038,0.3208,0.3336,0.2911,0.3336,-0.291,0.3038,-0.3208,-0.3039,-0.3208,0*%
%AMMACRO7*4,1,8,-0.4957,-0.2,-0.525,-0.1707,-0.525,0.1707,-0.4957,0.2,0.4957,0.2,0.525,0.1707,0.525,-0.1707,0.4957,-0.2,-0.4957,-0.2,0*%
%AMMACRO8*4,1,8,-0.4161,-0.3208,-0.4458,-0.291,-0.4458,0.2911,-0.4161,0.3208,0.4161,0.3208,0.4458,0.2911,0.4458,-0.291,0.4161,-0.3208,-0.4161,-0.3208,0*%
%AMMACRO9*4,1,8,-1.0211,-0.6508,-1.0508,-0.621,-1.0508,0.6211,-1.0211,0.6508,1.021,0.6508,1.0508,0.6211,1.0508,-0.621,1.021,-0.6508,-1.0211,-0.6508,0*%
%AMMACRO10*4,1,8,-0.2911,-0.4458,-0.3208,-0.4161,-0.3208,0.4161,-0.2911,0.4458,0.291,0.4458,0.3208,0.4161,0.3208,-0.4161,0.291,-0.4458,-0.2911,-0.4458,0*%
%AMMACRO11*4,1,8,-0.8211,-0.8508,-0.8508,-0.821,-0.8508,0.8211,-0.8211,0.8508,0.821,0.8508,0.8508,0.8211,0.8508,-0.821,0.821,-0.8508,-0.8211,-0.8508,0*%
%AMMACRO12*4,1,8,-0.4961,-0.6258,-0.5258,-0.596,-0.5258,0.5961,-0.4961,0.6258,0.496,0.6258,0.5258,0.5961,0.5258,-0.596,0.496,-0.6258,-0.4961,-0.6258,0*%
%AMMACRO13*4,1,8,-0.646,-0.4008,-0.6758,-0.371,-0.6758,0.3711,-0.646,0.4008,0.646,0.4008,0.6758,0.3711,0.6758,-0.371,0.646,-0.4008,-0.646,-0.4008,0*%
%AMMACRO14*4,1,8,-0.2661,-0.6293,-0.2958,-0.5995,-0.2958,0.5996,-0.2661,0.6293,0.266,0.6293,0.2958,0.5996,0.2958,-0.5995,0.266,-0.6293,-0.2661,-0.6293,0*%
%AMMACRO15*4,1,8,-0.2661,-0.6383,-0.2958,-0.6085,-0.2958,0.6086,-0.2661,0.6383,0.266,0.6383,0.2958,0.6086,0.2958,-0.6085,0.266,-0.6383,-0.2661,-0.6383,0*%
%AMMACRO16*4,1,8,-0.1963,-0.8509,-0.2261,-0.8211,-0.2261,0.8212,-0.1963,0.8509,0.1963,0.8509,0.2261,0.8212,0.2261,-0.8211,0.1963,-0.8509,-0.1963,-0.8509,0*%
%AMMACRO17*4,1,8,-0.3711,-0.6758,-0.4008,-0.646,-0.4008,0.646,-0.3711,0.6758,0.371,0.6758,0.4008,0.646,0.4008,-0.646,0.371,-0.6758,-0.3711,-0.6758,0*%
%AMMACRO18*4,1,8,-0.4211,-0.5008,-0.4508,-0.471,-0.4508,0.4711,-0.4211,0.5008,0.421,0.5008,0.4508,0.4711,0.4508,-0.471,0.421,-0.5008,-0.4211,-0.5008,0*%
%AMMACRO19*4,1,8,-0.421,-0.5008,-0.4508,-0.471,-0.4508,0.471,-0.421,0.5008,0.421,0.5008,0.4508,0.471,0.4508,-0.471,0.421,-0.5008,-0.421,-0.5008,0*%
%AMMACRO20*4,1,8,-0.4211,-0.5008,-0.4508,-0.471,-0.4508,0.471,-0.4211,0.5008,0.421,0.5008,0.4508,0.471,0.4508,-0.471,0.421,-0.5008,-0.4211,-0.5008,0*%
%AMMACRO21*4,1,8,-0.7635,-0.9148,-0.7933,-0.885,-0.7933,0.8851,-0.7635,0.9148,0.7635,0.9148,0.7933,0.8851,0.7933,-0.885,0.7635,-0.9148,-0.7635,-0.9148,0*%
%AMMACRO22*4,1,8,-0.8851,-0.7933,-0.9148,-0.7635,-0.9148,0.7635,-0.8851,0.7933,0.885,0.7933,0.9148,0.7635,0.9148,-0.7635,0.885,-0.7933,-0.8851,-0.7933,0*%
%AMMACRO23*4,1,8,-0.5211,-3.0508,-0.5508,-3.021,-0.5508,3.0211,-0.5211,3.0508,0.521,3.0508,0.5508,3.0211,0.5508,-3.021,0.521,-3.0508,-0.5211,-3.0508,0*%
%AMMACRO24*4,1,8,-0.9211,-1.7508,-0.9508,-1.721,-0.9508,1.7211,-0.9211,1.7508,0.921,1.7508,0.9508,1.7211,0.9508,-1.721,0.921,-1.7508,-0.9211,-1.7508,0*%
%AMMACRO25*1,1,$1,$2,$3*1,1,$1,$4,$5*20,1,$1,$2,$3,$4,$5,0*%
%AMMACRO26*4,1,8,-0.1854,-0.3566,-0.3566,-0.1854,-0.3566,-0.1434,0.1434,0.3566,0.1854,0.3566,0.3566,0.1854,0.3566,0.1434,-0.1434,-0.3566,-0.1854,-0.3566,0*%
%AMMACRO27*4,1,8,-0.1854,-0.3566,-0.3566,-0.1855,-0.3566,-0.1434,0.1434,0.3566,0.1854,0.3566,0.3566,0.1854,0.3566,0.1433,-0.1434,-0.3566,-0.1854,-0.3566,0*%
%AMMACRO28*4,1,8,-0.1854,-0.3566,-0.3566,-0.1854,-0.3566,-0.1433,0.1434,0.3566,0.1855,0.3566,0.3566,0.1855,0.3566,0.1434,-0.1433,-0.3566,-0.1854,-0.3566,0*%
%AMMACRO29*4,1,8,-0.1855,-0.3566,-0.3566,-0.1854,-0.3566,-0.1434,0.1433,0.3566,0.1854,0.3566,0.3566,0.1854,0.3566,0.1434,-0.1434,-0.3566,-0.1855,-0.3566,0*%
%AMMACRO30*4,1,8,0.1434,-0.3566,-0.3566,0.1434,-0.3566,0.1854,-0.1854,0.3566,-0.1434,0.3566,0.3566,-0.1434,0.3566,-0.1854,0.1854,-0.3566,0.1434,-0.3566,0*%
%AMMACRO31*4,1,8,0.1434,-0.3566,-0.3566,0.1434,-0.3566,0.1854,-0.1854,0.3566,-0.1433,0.3566,0.3566,-0.1434,0.3566,-0.1854,0.1855,-0.3566,0.1434,-0.3566,0*%
%AMMACRO32*4,1,8,0.1433,-0.3566,-0.3566,0.1434,-0.3566,0.1855,-0.1855,0.3566,-0.1434,0.3566,0.3566,-0.1433,0.3566,-0.1854,0.1854,-0.3566,0.1433,-0.3566,0*%
%AMMACRO33*4,1,8,0.1434,-0.3566,-0.3566,0.1433,-0.3566,0.1854,-0.1854,0.3566,-0.1434,0.3566,0.3566,-0.1434,0.3566,-0.1855,0.1854,-0.3566,0.1434,-0.3566,0*%
%AMMACRO34*4,1,8,-0.1854,-0.3566,-0.3566,-0.1854,-0.3566,-0.1434,0.1434,0.3566,0.1855,0.3566,0.3566,0.1854,0.3566,0.1434,-0.1433,-0.3566,-0.1854,-0.3566,0*%
%AMMACRO35*4,1,8,-0.1854,-0.3566,-0.3566,-0.1854,-0.3566,-0.1433,0.1434,0.3566,0.1854,0.3566,0.3566,0.1855,0.3566,0.1434,-0.1434,-0.3566,-0.1854,-0.3566,0*%
%AMMACRO36*4,1,8,0.1434,-0.3566,-0.3566,0.1434,-0.3566,0.1855,-0.1854,0.3566,-0.1434,0.3566,0.3566,-0.1433,0.3566,-0.1854,0.1854,-0.3566,0.1434,-0.3566,0*%
%AMMACRO37*4,1,8,0.1433,-0.3566,-0.3566,0.1434,-0.3566,0.1854,-0.1855,0.3566,-0.1434,0.3566,0.3566,-0.1434,0.3566,-0.1854,0.1854,-0.3566,0.1433,-0.3566,0*%
%AMMACRO38*4,1,8,-0.021,-2.7378,-2.7378,-0.021,-2.7378,0.021,-0.021,2.7378,0.021,2.7378,2.7378,0.021,2.7378,-0.021,0.021,-2.7378,-0.021,-2.7378,0*%
%ADD10MACRO1*%
%ADD11MACRO2*%
%ADD12MACRO3*%
%ADD13MACRO4*%
%ADD14MACRO5*%
%ADD15MACRO6*%
%ADD16MACRO7*%
%ADD17O,2.4000206X1.1000232*%
%ADD18O,2.0516088X1.1015979999999999*%
%ADD19O,1.1015979999999999X1.8015966*%
%ADD20MACRO8*%
%ADD21MACRO9*%
%ADD22O,0.38160960000000005X0.9015984*%
%ADD23MACRO10*%
%ADD24MACRO11*%
%ADD25C,1.7016*%
%ADD26C,1.9016*%
%ADD27C,2.6016*%
%ADD28MACRO12*%
%ADD29MACRO13*%
%ADD30MACRO14*%
%ADD31MACRO15*%
%ADD32MACRO16*%
%ADD33MACRO17*%
%ADD34MACRO18*%
%ADD35MACRO19*%
%ADD36MACRO20*%
%ADD37MACRO21*%
%ADD38MACRO22*%
%ADD39MACRO23*%
%ADD40MACRO24*%
%ADD41MACRO25,0.37X-0.4349X0.4349X0.4349X-0.4349*%
%ADD42MACRO25,0.37X-0.4349X-0.4349X0.4349X0.4349*%
%ADD43MACRO26*%
%ADD44MACRO27*%
%ADD45MACRO28*%
%ADD46MACRO29*%
%ADD47MACRO30*%
%ADD48MACRO31*%
%ADD49MACRO32*%
%ADD50MACRO33*%
%ADD51MACRO34*%
%ADD52MACRO35*%
%ADD53MACRO36*%
%ADD54MACRO37*%
%ADD55MACRO38*%
%ADD56C,0.0150*%

%LPD*%
D10*
G01*
X6055461Y6019800D03*
G01*
X6288963Y6019800D03*
D11*
G01*
X6273798Y7060247D03*
G01*
X6273798Y7392352D03*
D12*
G01*
X3544252Y6121398D03*
G01*
X3212147Y6121398D03*
D13*
G01*
X3994363Y6083287D03*
G01*
X3854363Y6083287D03*
G01*
X4819563Y6908812D03*
G01*
X4959563Y6908812D03*
D14*
G01*
X4864100Y5913017D03*
G01*
X4864100Y5999582D03*
G01*
X4737100Y5913017D03*
G01*
X4737100Y5999582D03*
G01*
X4064000Y5836817D03*
G01*
X4064000Y5923382D03*
D15*
G01*
X6304382Y5270500D03*
G01*
X6217817Y5270500D03*
G01*
X1656182Y5283200D03*
G01*
X1569617Y5283200D03*
G01*
X1656182Y7213600D03*
G01*
X1569617Y7213600D03*
G01*
X4373982Y7404100D03*
G01*
X4287417Y7404100D03*
G01*
X4490617Y6883400D03*
G01*
X4577182Y6883400D03*
D14*
G01*
X4699000Y6266282D03*
G01*
X4699000Y6179717D03*
G01*
X3302000Y6799682D03*
G01*
X3302000Y6713117D03*
D15*
G01*
X3230982Y7112000D03*
G01*
X3144417Y7112000D03*
G01*
X3230982Y7264400D03*
G01*
X3144417Y7264400D03*
G01*
X3004717Y6959600D03*
G01*
X3091282Y6959600D03*
G01*
X3004717Y6718300D03*
G01*
X3091282Y6718300D03*
D14*
G01*
X5511800Y5938417D03*
G01*
X5511800Y6024982D03*
D15*
G01*
X4488282Y7264400D03*
G01*
X4401717Y7264400D03*
D14*
G01*
X6896100Y5989217D03*
G01*
X6896100Y6075782D03*
D15*
G01*
X6723482Y6680200D03*
G01*
X6636917Y6680200D03*
G01*
X6636917Y6832600D03*
G01*
X6723482Y6832600D03*
G01*
X7561682Y5689600D03*
G01*
X7475117Y5689600D03*
G01*
X7421982Y6858000D03*
G01*
X7335417Y6858000D03*
G01*
X6509917Y6286500D03*
G01*
X6596482Y6286500D03*
D14*
G01*
X5638800Y5938417D03*
G01*
X5638800Y6024982D03*
D15*
G01*
X7246517Y5511800D03*
G01*
X7333082Y5511800D03*
D14*
G01*
X2984500Y7358482D03*
G01*
X2984500Y7271917D03*
D16*
G01*
X7259642Y6011290D03*
G01*
X7259642Y6061290D03*
G01*
X7259642Y6111290D03*
G01*
X7259642Y6161290D03*
G01*
X7259642Y6211290D03*
G01*
X7259642Y6261290D03*
G01*
X7259642Y6311290D03*
G01*
X7259642Y6361290D03*
G01*
X7259642Y6411290D03*
G01*
X7259642Y6461290D03*
G01*
X7259642Y6511289D03*
G01*
X7259645Y6561289D03*
G01*
X7389639Y6536288D03*
G01*
X7389642Y6486288D03*
G01*
X7389642Y6436288D03*
G01*
X7389642Y6386288D03*
G01*
X7389642Y6336289D03*
G01*
X7389642Y6286289D03*
G01*
X7389642Y6236289D03*
G01*
X7389642Y6186289D03*
G01*
X7389642Y6136289D03*
G01*
X7389642Y6086289D03*
G01*
X7389642Y6036289D03*
G01*
X7389642Y5986289D03*
D17*
G01*
X7777149Y6705803D03*
G01*
X7777149Y5841796D03*
D18*
G01*
X7315200Y6705600D03*
D19*
G01*
X7371588Y6678421D03*
D18*
G01*
X7315200Y5842000D03*
D19*
G01*
X7371588Y5865621D03*
D20*
G01*
X6244694Y6604000D03*
G01*
X6353705Y6604000D03*
D21*
G01*
X6235700Y6337300D03*
D22*
G01*
X6135624Y6457187D03*
G01*
X6185661Y6457187D03*
G01*
X6235700Y6457187D03*
G01*
X6285738Y6457187D03*
G01*
X6335775Y6457187D03*
G01*
X6335775Y6217412D03*
G01*
X6285738Y6217412D03*
G01*
X6235700Y6217412D03*
G01*
X6185661Y6217412D03*
G01*
X6135624Y6217412D03*
D23*
G01*
X6629400Y6544205D03*
G01*
X6629400Y6435194D03*
D24*
G01*
X2315095Y6731386D03*
D25*
G01*
X2569083Y6604380D03*
G01*
X2315083Y6477380D03*
G01*
X2569083Y6350380D03*
G01*
X2315083Y6223380D03*
G01*
X2569083Y6096380D03*
G01*
X2315083Y5969380D03*
G01*
X2569083Y5842380D03*
D26*
G01*
X1190117Y6948881D03*
G01*
X1190117Y6694881D03*
G01*
X1190117Y5877864D03*
G01*
X1190117Y5623864D03*
D27*
G01*
X1985111Y7060869D03*
G01*
X1985111Y5511876D03*
D20*
G01*
X6010805Y6934200D03*
G01*
X5901794Y6934200D03*
D23*
G01*
X6896100Y5711294D03*
G01*
X6896100Y5820305D03*
D28*
G01*
X6760540Y5740400D03*
G01*
X6422059Y5740400D03*
D29*
G01*
X6754368Y6057900D03*
G01*
X6504431Y5962904D03*
G01*
X6504431Y6152896D03*
D30*
G01*
X7016495Y6503466D03*
G01*
X6921500Y6503466D03*
G01*
X6826504Y6503466D03*
D31*
G01*
X6826504Y6272733D03*
G01*
X7016495Y6272733D03*
D32*
G01*
X5778500Y5638800D03*
G01*
X5707380Y5638800D03*
G01*
X5636260Y5638800D03*
G01*
X5567680Y5638800D03*
G01*
X5496560Y5638800D03*
G01*
X5427980Y5638800D03*
G01*
X5356860Y5638800D03*
G01*
X5288280Y5638800D03*
G01*
X5217160Y5638800D03*
G01*
X5148580Y5638800D03*
G01*
X5077460Y5638800D03*
G01*
X5006339Y5638800D03*
G01*
X4937760Y5638800D03*
G01*
X4866639Y5638800D03*
G01*
X4798060Y5638800D03*
G01*
X4726939Y5638800D03*
G01*
X4658360Y5638800D03*
G01*
X4587239Y5638800D03*
G01*
X4518660Y5638800D03*
G01*
X4447539Y5638800D03*
G01*
X4376419Y5638800D03*
G01*
X4307839Y5638800D03*
G01*
X4236719Y5638800D03*
G01*
X4168139Y5638800D03*
G01*
X4097019Y5638800D03*
G01*
X4028439Y5638800D03*
G01*
X3957319Y5638800D03*
G01*
X3888739Y5638800D03*
G01*
X3817619Y5638800D03*
G01*
X3746500Y5638800D03*
D33*
G01*
X6115303Y5437200D03*
G01*
X6305294Y5437200D03*
G01*
X6210298Y5637199D03*
D23*
G01*
X5041900Y7222594D03*
G01*
X5041900Y7331605D03*
D20*
G01*
X5203294Y7099300D03*
G01*
X5312305Y7099300D03*
G01*
X5718705Y5816600D03*
G01*
X5609694Y5816600D03*
G01*
X5254094Y5854700D03*
G01*
X5363105Y5854700D03*
D23*
G01*
X5118100Y5889094D03*
G01*
X5118100Y5998105D03*
G01*
X4991100Y5889094D03*
G01*
X4991100Y5998105D03*
G01*
X3949700Y5825594D03*
G01*
X3949700Y5934605D03*
G01*
X3835400Y5825594D03*
G01*
X3835400Y5934605D03*
G01*
X4267200Y6353705D03*
G01*
X4267200Y6244694D03*
D20*
G01*
X3425294Y6426200D03*
G01*
X3534305Y6426200D03*
G01*
X3826405Y6248400D03*
G01*
X3717394Y6248400D03*
G01*
X4537605Y6019800D03*
G01*
X4428594Y6019800D03*
G01*
X4428594Y6477000D03*
G01*
X4537605Y6477000D03*
G01*
X3399894Y5803900D03*
G01*
X3508905Y5803900D03*
G01*
X3399894Y5689600D03*
G01*
X3508905Y5689600D03*
G01*
X3399894Y5575300D03*
G01*
X3508905Y5575300D03*
G01*
X3399894Y5461000D03*
G01*
X3508905Y5461000D03*
G01*
X2980794Y6604000D03*
G01*
X3089805Y6604000D03*
G01*
X2980794Y6845300D03*
G01*
X3089805Y6845300D03*
G01*
X2980794Y6477000D03*
G01*
X3089805Y6477000D03*
G01*
X5363105Y5981700D03*
G01*
X5254094Y5981700D03*
G01*
X5203294Y6985000D03*
G01*
X5312305Y6985000D03*
G01*
X4944005Y6654800D03*
G01*
X4834994Y6654800D03*
G01*
X4944005Y6769100D03*
G01*
X4834994Y6769100D03*
G01*
X4931305Y7048500D03*
G01*
X4822294Y7048500D03*
G01*
X5883805Y7061200D03*
G01*
X5774794Y7061200D03*
D23*
G01*
X5651500Y7052205D03*
G01*
X5651500Y6943194D03*
G01*
X7023100Y6087005D03*
G01*
X7023100Y5977994D03*
D20*
G01*
X6353705Y6731000D03*
G01*
X6244694Y6731000D03*
G01*
X6244694Y6858000D03*
G01*
X6353705Y6858000D03*
G01*
X3247494Y7404100D03*
G01*
X3356505Y7404100D03*
D34*
G01*
X5202798Y7232498D03*
G01*
X5312798Y7232498D03*
D35*
G01*
X5312799Y7372499D03*
D36*
G01*
X5202798Y7372499D03*
D37*
G01*
X2572250Y5283200D03*
G01*
X2253749Y5283200D03*
D38*
G01*
X7759700Y5276349D03*
G01*
X7759700Y5594850D03*
D39*
G01*
X7046696Y6958253D03*
G01*
X6846696Y6958253D03*
D40*
G01*
X7281900Y7189553D03*
G01*
X6611899Y7189553D03*
D41*
G01*
X3818229Y7378369D03*
G01*
X3782872Y7343013D03*
G01*
X3747541Y7307656D03*
G01*
X3712159Y7272299D03*
G01*
X3676827Y7236942D03*
G01*
X3641445Y7201585D03*
G01*
X3606114Y7166228D03*
G01*
X3570757Y7130872D03*
G01*
X3535400Y7095540D03*
G01*
X3500043Y7060158D03*
G01*
X3464687Y7024827D03*
G01*
X3429330Y6989444D03*
D42*
G01*
X3429330Y6777329D03*
G01*
X3464687Y6741972D03*
G01*
X3500043Y6706641D03*
G01*
X3535400Y6671259D03*
G01*
X3570757Y6635927D03*
G01*
X3606114Y6600545D03*
G01*
X3641445Y6565214D03*
G01*
X3676827Y6529857D03*
G01*
X3712159Y6494500D03*
G01*
X3747541Y6459143D03*
G01*
X3782872Y6423787D03*
G01*
X3818229Y6388430D03*
D41*
G01*
X4030370Y6388430D03*
G01*
X4065727Y6423787D03*
G01*
X4101058Y6459143D03*
G01*
X4136440Y6494500D03*
G01*
X4171772Y6529857D03*
G01*
X4207154Y6565214D03*
G01*
X4242485Y6600545D03*
G01*
X4277842Y6635927D03*
G01*
X4313199Y6671259D03*
G01*
X4348556Y6706641D03*
G01*
X4383912Y6741972D03*
G01*
X4419269Y6777329D03*
D42*
G01*
X4419269Y6989444D03*
G01*
X4383912Y7024827D03*
G01*
X4348556Y7060158D03*
G01*
X4313199Y7095540D03*
G01*
X4277842Y7130872D03*
G01*
X4242485Y7166228D03*
G01*
X4207154Y7201585D03*
G01*
X4171772Y7236942D03*
G01*
X4136440Y7272299D03*
G01*
X4101058Y7307656D03*
G01*
X4065727Y7343013D03*
G01*
X4030370Y7378369D03*
D43*
G01*
X5061747Y6452362D03*
D44*
G01*
X5090017Y6424093D03*
G01*
X5118305Y6395805D03*
G01*
X5146593Y6367517D03*
G01*
X5174881Y6339229D03*
D45*
G01*
X5203168Y6310941D03*
G01*
X5231438Y6282670D03*
D46*
G01*
X5259726Y6254384D03*
G01*
X5288014Y6226096D03*
G01*
X5316302Y6197808D03*
G01*
X5344590Y6169520D03*
D43*
G01*
X5372859Y6141250D03*
D47*
G01*
X5472937Y6141250D03*
D48*
G01*
X5501206Y6169520D03*
G01*
X5529494Y6197808D03*
G01*
X5557782Y6226096D03*
G01*
X5586070Y6254384D03*
D49*
G01*
X5614358Y6282670D03*
G01*
X5642629Y6310941D03*
D50*
G01*
X5670915Y6339229D03*
G01*
X5699203Y6367517D03*
G01*
X5727491Y6395805D03*
G01*
X5755779Y6424093D03*
D47*
G01*
X5784049Y6452362D03*
D43*
G01*
X5784047Y6552437D03*
D46*
G01*
X5755778Y6580708D03*
G01*
X5727490Y6608996D03*
G01*
X5699202Y6637284D03*
D51*
G01*
X5670914Y6665572D03*
D45*
G01*
X5642626Y6693858D03*
G01*
X5614356Y6722129D03*
D52*
G01*
X5586069Y6750417D03*
D44*
G01*
X5557781Y6778705D03*
G01*
X5529493Y6806992D03*
G01*
X5501205Y6835280D03*
D43*
G01*
X5472935Y6863549D03*
D47*
G01*
X5372862Y6863549D03*
D50*
G01*
X5344591Y6835280D03*
G01*
X5316303Y6806992D03*
G01*
X5288015Y6778705D03*
D53*
G01*
X5259727Y6750417D03*
D49*
G01*
X5231441Y6722129D03*
G01*
X5203170Y6693858D03*
D54*
G01*
X5174882Y6665572D03*
D48*
G01*
X5146594Y6637284D03*
G01*
X5118307Y6608996D03*
G01*
X5090019Y6580708D03*
D47*
G01*
X5061750Y6552437D03*
D55*
G01*
X5422898Y6502401D03*
D34*
G01*
X4538101Y6318401D03*
G01*
X4428101Y6318401D03*
D35*
G01*
X4428100Y6178400D03*
D36*
G01*
X4538101Y6178400D03*
G36*
X5854700Y6794500D02*
G01*
X5943600Y6794500D01*
X5943600Y6705600D01*
X5854700Y6705600D01*
G37*
G36*
X5867400Y6540500D02*
G01*
X5943600Y6540500D01*
X5943600Y6464300D01*
X5867400Y6464300D01*
G37*
G36*
X5854700Y6286500D02*
G01*
X5943600Y6286500D01*
X5943600Y6197600D01*
X5854700Y6197600D01*
G37*
G36*
X5854700Y5778500D02*
G01*
X5943600Y5778500D01*
X5943600Y5689600D01*
X5854700Y5689600D01*
G37*
G36*
X5854700Y6032500D02*
G01*
X5943600Y6032500D01*
X5943600Y5943600D01*
X5854700Y5943600D01*
G37*
M02*
