G04 Layer: TopSilkscreenLayer*
G04 EasyEDA v6.5.42, 2024-05-05 17:52:58*
G04 9b82af6324414f3ea1fbde0525bdcf27,b9277fd2045942759ab1a28cc0c323af,10*
G04 Gerber Generator version 0.2*
G04 Scale: 100 percent, Rotated: No, Reflected: No *
G04 Dimensions in millimeters *
G04 leading zeros omitted , absolute positions ,4 integer and 5 decimal *
%FSLAX45Y45*%
%MOMM*%

%ADD10C,0.2032*%
%ADD11C,0.1524*%
%ADD12C,0.1520*%
%ADD13C,0.1520*%
%ADD14C,0.2540*%
%ADD15C,0.1250*%
%ADD16C,0.2000*%
%ADD17C,0.2489*%
%ADD18C,0.4000*%
%ADD19C,0.3000*%
%ADD20C,0.1500*%
%ADD21C,0.0152*%

%LPD*%
D10*
X7499858Y7289292D02*
G01*
X7499858Y7123176D01*
X7416800Y7206234D02*
G01*
X7583170Y7206234D01*
X1342136Y7454392D02*
G01*
X1342136Y7399781D01*
X1338834Y7389621D01*
X1335278Y7386320D01*
X1328673Y7382763D01*
X1321815Y7382763D01*
X1314957Y7386320D01*
X1311402Y7389621D01*
X1308100Y7399781D01*
X1308100Y7406639D01*
X1364742Y7454392D02*
G01*
X1364742Y7382763D01*
X1364742Y7382763D02*
G01*
X1405636Y7382763D01*
X1479295Y7437373D02*
G01*
X1475739Y7444231D01*
X1468881Y7451089D01*
X1462278Y7454392D01*
X1448562Y7454392D01*
X1441704Y7451089D01*
X1434845Y7444231D01*
X1431544Y7437373D01*
X1427987Y7427213D01*
X1427987Y7409942D01*
X1431544Y7399781D01*
X1434845Y7392923D01*
X1441704Y7386320D01*
X1448562Y7382763D01*
X1462278Y7382763D01*
X1468881Y7386320D01*
X1475739Y7392923D01*
X1479295Y7399781D01*
X1535937Y7454392D02*
G01*
X1535937Y7399781D01*
X1532381Y7389621D01*
X1529079Y7386320D01*
X1522221Y7382763D01*
X1515363Y7382763D01*
X1508505Y7386320D01*
X1505204Y7389621D01*
X1501647Y7399781D01*
X1501647Y7406639D01*
X1558289Y7454392D02*
G01*
X1558289Y7382763D01*
X1558289Y7382763D02*
G01*
X1599184Y7382763D01*
X1672844Y7437373D02*
G01*
X1669542Y7444231D01*
X1662684Y7451089D01*
X1655826Y7454392D01*
X1642110Y7454392D01*
X1635252Y7451089D01*
X1628647Y7444231D01*
X1625092Y7437373D01*
X1621789Y7427213D01*
X1621789Y7409942D01*
X1625092Y7399781D01*
X1628647Y7392923D01*
X1635252Y7386320D01*
X1642110Y7382763D01*
X1655826Y7382763D01*
X1662684Y7386320D01*
X1669542Y7392923D01*
X1672844Y7399781D01*
X1729486Y7454392D02*
G01*
X1729486Y7399781D01*
X1725929Y7389621D01*
X1722628Y7386320D01*
X1715770Y7382763D01*
X1708912Y7382763D01*
X1702307Y7386320D01*
X1698752Y7389621D01*
X1695450Y7399781D01*
X1695450Y7406639D01*
X1751837Y7454392D02*
G01*
X1751837Y7382763D01*
X1751837Y7382763D02*
G01*
X1792986Y7382763D01*
X1866392Y7437373D02*
G01*
X1863089Y7444231D01*
X1856231Y7451089D01*
X1849373Y7454392D01*
X1835912Y7454392D01*
X1829054Y7451089D01*
X1822195Y7444231D01*
X1818894Y7437373D01*
X1815337Y7427213D01*
X1815337Y7409942D01*
X1818894Y7399781D01*
X1822195Y7392923D01*
X1829054Y7386320D01*
X1835912Y7382763D01*
X1849373Y7382763D01*
X1856231Y7386320D01*
X1863089Y7392923D01*
X1866392Y7399781D01*
X1923034Y7454392D02*
G01*
X1923034Y7399781D01*
X1919731Y7389621D01*
X1916176Y7386320D01*
X1909571Y7382763D01*
X1902713Y7382763D01*
X1895855Y7386320D01*
X1892300Y7389621D01*
X1888997Y7399781D01*
X1888997Y7406639D01*
X1945640Y7454392D02*
G01*
X1945640Y7382763D01*
X1945640Y7382763D02*
G01*
X1986534Y7382763D01*
X2060193Y7437373D02*
G01*
X2056638Y7444231D01*
X2050034Y7451089D01*
X2043175Y7454392D01*
X2029459Y7454392D01*
X2022602Y7451089D01*
X2015743Y7444231D01*
X2012441Y7437373D01*
X2008886Y7427213D01*
X2008886Y7409942D01*
X2012441Y7399781D01*
X2015743Y7392923D01*
X2022602Y7386320D01*
X2029459Y7382763D01*
X2043175Y7382763D01*
X2050034Y7386320D01*
X2056638Y7392923D01*
X2060193Y7399781D01*
X6464300Y5447537D02*
G01*
X6464300Y5352034D01*
X6464300Y5352034D02*
G01*
X6518909Y5352034D01*
X6548881Y5447537D02*
G01*
X6548881Y5352034D01*
X6548881Y5352034D02*
G01*
X6603491Y5352034D01*
X6633463Y5447537D02*
G01*
X6633463Y5352034D01*
X6633463Y5447537D02*
G01*
X6665213Y5447537D01*
X6678929Y5442965D01*
X6687820Y5434076D01*
X6692391Y5424931D01*
X6696963Y5411215D01*
X6696963Y5388610D01*
X6692391Y5374894D01*
X6687820Y5365750D01*
X6678929Y5356605D01*
X6665213Y5352034D01*
X6633463Y5352034D01*
X6726936Y5447537D02*
G01*
X6726936Y5352034D01*
X6726936Y5447537D02*
G01*
X6767829Y5447537D01*
X6781545Y5442965D01*
X6786118Y5438394D01*
X6790690Y5429504D01*
X6790690Y5415787D01*
X6786118Y5406644D01*
X6781545Y5402071D01*
X6767829Y5397500D01*
X6726936Y5397500D01*
X6884415Y5434076D02*
G01*
X6875272Y5442965D01*
X6861556Y5447537D01*
X6843268Y5447537D01*
X6829806Y5442965D01*
X6820661Y5434076D01*
X6820661Y5424931D01*
X6825234Y5415787D01*
X6829806Y5411215D01*
X6838950Y5406644D01*
X6866127Y5397500D01*
X6875272Y5393181D01*
X6879843Y5388610D01*
X6884415Y5379465D01*
X6884415Y5365750D01*
X6875272Y5356605D01*
X6861556Y5352034D01*
X6843268Y5352034D01*
X6829806Y5356605D01*
X6820661Y5365750D01*
X6927850Y5447537D02*
G01*
X6927850Y5370321D01*
X6932422Y5356605D01*
X6941565Y5352034D01*
X6950709Y5352034D01*
X6914388Y5415787D02*
G01*
X6946138Y5415787D01*
X6980681Y5447537D02*
G01*
X6985254Y5442965D01*
X6989825Y5447537D01*
X6985254Y5452110D01*
X6980681Y5447537D01*
X6985254Y5415787D02*
G01*
X6985254Y5352034D01*
X7074408Y5402071D02*
G01*
X7065263Y5411215D01*
X7056120Y5415787D01*
X7042404Y5415787D01*
X7033513Y5411215D01*
X7024370Y5402071D01*
X7019797Y5388610D01*
X7019797Y5379465D01*
X7024370Y5365750D01*
X7033513Y5356605D01*
X7042404Y5352034D01*
X7056120Y5352034D01*
X7065263Y5356605D01*
X7074408Y5365750D01*
X7104379Y5447537D02*
G01*
X7104379Y5352034D01*
X7149845Y5415787D02*
G01*
X7104379Y5370321D01*
X7122413Y5388610D02*
G01*
X7154418Y5352034D01*
X6464300Y5250687D02*
G01*
X6491477Y5186934D01*
X6518909Y5250687D02*
G01*
X6491477Y5186934D01*
X6558025Y5282437D02*
G01*
X6607809Y5282437D01*
X6580631Y5246115D01*
X6594347Y5246115D01*
X6603491Y5241544D01*
X6607809Y5236971D01*
X6612381Y5223510D01*
X6612381Y5214365D01*
X6607809Y5200650D01*
X6598920Y5191505D01*
X6585204Y5186934D01*
X6571488Y5186934D01*
X6558025Y5191505D01*
X6553454Y5196078D01*
X6548881Y5205221D01*
X6712458Y5282437D02*
G01*
X6712458Y5186934D01*
X6712458Y5282437D02*
G01*
X6753352Y5282437D01*
X6767068Y5277865D01*
X6771640Y5273294D01*
X6776211Y5264404D01*
X6776211Y5255260D01*
X6771640Y5246115D01*
X6767068Y5241544D01*
X6753352Y5236971D01*
X6712458Y5236971D01*
X6744208Y5236971D02*
G01*
X6776211Y5186934D01*
X6806184Y5223510D02*
G01*
X6860540Y5223510D01*
X6860540Y5232400D01*
X6856222Y5241544D01*
X6851650Y5246115D01*
X6842506Y5250687D01*
X6828790Y5250687D01*
X6819645Y5246115D01*
X6810756Y5236971D01*
X6806184Y5223510D01*
X6806184Y5214365D01*
X6810756Y5200650D01*
X6819645Y5191505D01*
X6828790Y5186934D01*
X6842506Y5186934D01*
X6851650Y5191505D01*
X6860540Y5200650D01*
X6890765Y5250687D02*
G01*
X6917943Y5186934D01*
X6945122Y5250687D02*
G01*
X6917943Y5186934D01*
X7099808Y5268976D02*
G01*
X7095236Y5277865D01*
X7081520Y5282437D01*
X7072375Y5282437D01*
X7058913Y5277865D01*
X7049770Y5264404D01*
X7045197Y5241544D01*
X7045197Y5218937D01*
X7049770Y5200650D01*
X7058913Y5191505D01*
X7072375Y5186934D01*
X7076947Y5186934D01*
X7090663Y5191505D01*
X7099808Y5200650D01*
X7104379Y5214365D01*
X7104379Y5218937D01*
X7099808Y5232400D01*
X7090663Y5241544D01*
X7076947Y5246115D01*
X7072375Y5246115D01*
X7058913Y5241544D01*
X7049770Y5232400D01*
X7045197Y5218937D01*
D11*
X5909818Y6867397D02*
G01*
X5933186Y6867397D01*
X5920486Y6850126D01*
X5926836Y6850126D01*
X5931154Y6848094D01*
X5933186Y6846062D01*
X5935472Y6839458D01*
X5935472Y6835394D01*
X5933186Y6828789D01*
X5929122Y6824471D01*
X5922518Y6822439D01*
X5916168Y6822439D01*
X5909818Y6824471D01*
X5907531Y6826758D01*
X5905500Y6831076D01*
X5949441Y6852412D02*
G01*
X5962395Y6822439D01*
X5975095Y6852412D02*
G01*
X5962395Y6822439D01*
X5993384Y6867397D02*
G01*
X6017006Y6867397D01*
X6004306Y6850126D01*
X6010656Y6850126D01*
X6014974Y6848094D01*
X6017006Y6846062D01*
X6019038Y6839458D01*
X6019038Y6835394D01*
X6017006Y6828789D01*
X6012688Y6824471D01*
X6006338Y6822439D01*
X5999988Y6822439D01*
X5993384Y6824471D01*
X5991352Y6826758D01*
X5989320Y6831076D01*
X5937504Y6348729D02*
G01*
X5935472Y6352794D01*
X5931154Y6357112D01*
X5926836Y6359397D01*
X5918200Y6359397D01*
X5914136Y6357112D01*
X5909818Y6352794D01*
X5907531Y6348729D01*
X5905500Y6342126D01*
X5905500Y6331457D01*
X5907531Y6325107D01*
X5909818Y6320789D01*
X5914136Y6316471D01*
X5918200Y6314439D01*
X5926836Y6314439D01*
X5931154Y6316471D01*
X5935472Y6320789D01*
X5937504Y6325107D01*
X5951727Y6359397D02*
G01*
X5951727Y6314439D01*
X5951727Y6314439D02*
G01*
X5977381Y6314439D01*
X5991352Y6359397D02*
G01*
X5991352Y6314439D01*
X6021324Y6359397D02*
G01*
X5991352Y6329426D01*
X6002020Y6340094D02*
G01*
X6021324Y6314439D01*
X5918200Y6105397D02*
G01*
X5918200Y6060439D01*
X5918200Y6105397D02*
G01*
X5937504Y6105397D01*
X5943854Y6103112D01*
X5945886Y6101079D01*
X5948172Y6096762D01*
X5948172Y6092444D01*
X5945886Y6088126D01*
X5943854Y6086094D01*
X5937504Y6084062D01*
X5918200Y6084062D01*
X5933186Y6084062D02*
G01*
X5948172Y6060439D01*
X5992113Y6098794D02*
G01*
X5987795Y6103112D01*
X5981445Y6105397D01*
X5972809Y6105397D01*
X5966459Y6103112D01*
X5962141Y6098794D01*
X5962141Y6094729D01*
X5964427Y6090412D01*
X5966459Y6088126D01*
X5970777Y6086094D01*
X5983477Y6081776D01*
X5987795Y6079744D01*
X5990081Y6077457D01*
X5992113Y6073394D01*
X5992113Y6066789D01*
X5987795Y6062471D01*
X5981445Y6060439D01*
X5972809Y6060439D01*
X5966459Y6062471D01*
X5962141Y6066789D01*
X6021070Y6105397D02*
G01*
X6021070Y6060439D01*
X6006084Y6105397D02*
G01*
X6036056Y6105397D01*
X5937504Y5840729D02*
G01*
X5935472Y5844794D01*
X5931154Y5849112D01*
X5926836Y5851397D01*
X5918200Y5851397D01*
X5914136Y5849112D01*
X5909818Y5844794D01*
X5907531Y5840729D01*
X5905500Y5834126D01*
X5905500Y5823457D01*
X5907531Y5817107D01*
X5909818Y5812789D01*
X5914136Y5808471D01*
X5918200Y5806439D01*
X5926836Y5806439D01*
X5931154Y5808471D01*
X5935472Y5812789D01*
X5937504Y5817107D01*
X5937504Y5823457D01*
X5926836Y5823457D02*
G01*
X5937504Y5823457D01*
X5951727Y5851397D02*
G01*
X5951727Y5806439D01*
X5951727Y5851397D02*
G01*
X5981445Y5806439D01*
X5981445Y5851397D02*
G01*
X5981445Y5806439D01*
X5995670Y5851397D02*
G01*
X5995670Y5806439D01*
X5995670Y5851397D02*
G01*
X6010656Y5851397D01*
X6017006Y5849112D01*
X6021324Y5844794D01*
X6023356Y5840729D01*
X6025641Y5834126D01*
X6025641Y5823457D01*
X6023356Y5817107D01*
X6021324Y5812789D01*
X6017006Y5808471D01*
X6010656Y5806439D01*
X5995670Y5806439D01*
X5943600Y6613397D02*
G01*
X5943600Y6568439D01*
X5970524Y6613397D02*
G01*
X5966206Y6611112D01*
X5961888Y6606794D01*
X5959856Y6602729D01*
X5957824Y6596126D01*
X5957824Y6585458D01*
X5959856Y6579108D01*
X5961888Y6574789D01*
X5966206Y6570471D01*
X5970524Y6568439D01*
X5979159Y6568439D01*
X5983224Y6570471D01*
X5987541Y6574789D01*
X5989827Y6579108D01*
X5991859Y6585458D01*
X5991859Y6596126D01*
X5989827Y6602729D01*
X5987541Y6606794D01*
X5983224Y6611112D01*
X5979159Y6613397D01*
X5970524Y6613397D01*
X6464300Y6692645D02*
G01*
X6464300Y6644894D01*
X6464300Y6692645D02*
G01*
X6484874Y6692645D01*
X6491477Y6690360D01*
X6493763Y6688073D01*
X6496050Y6683502D01*
X6496050Y6678929D01*
X6493763Y6674358D01*
X6491477Y6672071D01*
X6484874Y6669786D01*
X6464300Y6669786D01*
X6480302Y6669786D02*
G01*
X6496050Y6644894D01*
X6511036Y6683502D02*
G01*
X6515608Y6685787D01*
X6522465Y6692645D01*
X6522465Y6644894D01*
X6566915Y6676644D02*
G01*
X6564629Y6669786D01*
X6560311Y6665213D01*
X6553454Y6662928D01*
X6551168Y6662928D01*
X6544309Y6665213D01*
X6539738Y6669786D01*
X6537452Y6676644D01*
X6537452Y6678929D01*
X6539738Y6685787D01*
X6544309Y6690360D01*
X6551168Y6692645D01*
X6553454Y6692645D01*
X6560311Y6690360D01*
X6564629Y6685787D01*
X6566915Y6676644D01*
X6566915Y6665213D01*
X6564629Y6654037D01*
X6560311Y6647179D01*
X6553454Y6644894D01*
X6548881Y6644894D01*
X6542024Y6647179D01*
X6539738Y6651752D01*
X6438900Y6857745D02*
G01*
X6438900Y6809994D01*
X6438900Y6857745D02*
G01*
X6459474Y6857745D01*
X6466077Y6855460D01*
X6468363Y6853173D01*
X6470650Y6848602D01*
X6470650Y6844029D01*
X6468363Y6839458D01*
X6466077Y6837171D01*
X6459474Y6834886D01*
X6438900Y6834886D01*
X6454902Y6834886D02*
G01*
X6470650Y6809994D01*
X6487922Y6846315D02*
G01*
X6487922Y6848602D01*
X6490208Y6853173D01*
X6492493Y6855460D01*
X6497065Y6857745D01*
X6506209Y6857745D01*
X6510781Y6855460D01*
X6513068Y6853173D01*
X6515354Y6848602D01*
X6515354Y6844029D01*
X6513068Y6839458D01*
X6508495Y6832600D01*
X6485636Y6809994D01*
X6517640Y6809994D01*
X6546088Y6857745D02*
G01*
X6539229Y6855460D01*
X6534911Y6848602D01*
X6532625Y6837171D01*
X6532625Y6830313D01*
X6534911Y6819137D01*
X6539229Y6812279D01*
X6546088Y6809994D01*
X6550659Y6809994D01*
X6557518Y6812279D01*
X6562090Y6819137D01*
X6564375Y6830313D01*
X6564375Y6837171D01*
X6562090Y6848602D01*
X6557518Y6855460D01*
X6550659Y6857745D01*
X6546088Y6857745D01*
X6475984Y6460236D02*
G01*
X6471411Y6457950D01*
X6466840Y6453378D01*
X6464554Y6448805D01*
X6464554Y6439915D01*
X6466840Y6435344D01*
X6471411Y6430771D01*
X6475984Y6428486D01*
X6482841Y6426200D01*
X6494272Y6426200D01*
X6501129Y6428486D01*
X6505447Y6430771D01*
X6510020Y6435344D01*
X6512306Y6439915D01*
X6512306Y6448805D01*
X6510020Y6453378D01*
X6505447Y6457950D01*
X6501129Y6460236D01*
X6464554Y6479794D02*
G01*
X6464554Y6504939D01*
X6482841Y6491223D01*
X6482841Y6498081D01*
X6485127Y6502654D01*
X6487413Y6504939D01*
X6494272Y6507226D01*
X6498843Y6507226D01*
X6505447Y6504939D01*
X6510020Y6500368D01*
X6512306Y6493510D01*
X6512306Y6486652D01*
X6510020Y6479794D01*
X6507734Y6477507D01*
X6503161Y6475221D01*
X6464554Y6549389D02*
G01*
X6464554Y6526529D01*
X6485127Y6524497D01*
X6482841Y6526529D01*
X6480556Y6533387D01*
X6480556Y6540245D01*
X6482841Y6547104D01*
X6487413Y6551676D01*
X6494272Y6553962D01*
X6498843Y6553962D01*
X6505447Y6551676D01*
X6510020Y6547104D01*
X6512306Y6540245D01*
X6512306Y6533387D01*
X6510020Y6526529D01*
X6507734Y6524497D01*
X6503161Y6522212D01*
D12*
X4102100Y6108445D02*
G01*
X4102100Y6060694D01*
X4102100Y6108445D02*
G01*
X4131563Y6108445D01*
X4102100Y6085586D02*
G01*
X4120388Y6085586D01*
X4146550Y6108445D02*
G01*
X4146550Y6060694D01*
X4146550Y6108445D02*
G01*
X4167124Y6108445D01*
X4173981Y6106160D01*
X4176268Y6103873D01*
X4178554Y6099302D01*
X4178554Y6094729D01*
X4176268Y6090157D01*
X4173981Y6087871D01*
X4167124Y6085586D01*
X4146550Y6085586D02*
G01*
X4167124Y6085586D01*
X4173981Y6083300D01*
X4176268Y6081013D01*
X4178554Y6076442D01*
X4178554Y6069837D01*
X4176268Y6065265D01*
X4173981Y6062979D01*
X4167124Y6060694D01*
X4146550Y6060694D01*
X4193540Y6099302D02*
G01*
X4198111Y6101587D01*
X4204715Y6108445D01*
X4204715Y6060694D01*
D11*
X2489200Y7240015D02*
G01*
X2489200Y7131050D01*
X2489200Y7240015D02*
G01*
X2535936Y7240015D01*
X2551429Y7234936D01*
X2556763Y7229602D01*
X2561843Y7219187D01*
X2561843Y7208773D01*
X2556763Y7198360D01*
X2551429Y7193279D01*
X2535936Y7188200D01*
X2489200Y7188200D01*
X2525522Y7188200D02*
G01*
X2561843Y7131050D01*
X2648204Y7240015D02*
G01*
X2648204Y7156958D01*
X2642870Y7141210D01*
X2637790Y7136129D01*
X2627375Y7131050D01*
X2616961Y7131050D01*
X2606547Y7136129D01*
X2601468Y7141210D01*
X2596134Y7156958D01*
X2596134Y7167371D01*
X2682493Y7219187D02*
G01*
X2692908Y7224521D01*
X2708402Y7240015D01*
X2708402Y7131050D01*
X6997954Y5778500D02*
G01*
X7045706Y5778500D01*
X6997954Y5778500D02*
G01*
X6997954Y5799073D01*
X7000240Y5805678D01*
X7002525Y5807963D01*
X7007097Y5810250D01*
X7011670Y5810250D01*
X7016241Y5807963D01*
X7018527Y5805678D01*
X7020813Y5799073D01*
X7020813Y5778500D01*
X7020813Y5794502D02*
G01*
X7045706Y5810250D01*
X7007097Y5825236D02*
G01*
X7004811Y5829807D01*
X6997954Y5836665D01*
X7045706Y5836665D01*
X6997954Y5863081D02*
G01*
X7000240Y5856223D01*
X7004811Y5853937D01*
X7009384Y5853937D01*
X7013956Y5856223D01*
X7016241Y5860795D01*
X7018527Y5869939D01*
X7020813Y5876797D01*
X7025386Y5881115D01*
X7029958Y5883402D01*
X7036561Y5883402D01*
X7041134Y5881115D01*
X7043420Y5878829D01*
X7045706Y5872226D01*
X7045706Y5863081D01*
X7043420Y5856223D01*
X7041134Y5853937D01*
X7036561Y5851652D01*
X7029958Y5851652D01*
X7025386Y5853937D01*
X7020813Y5858510D01*
X7018527Y5865368D01*
X7016241Y5874512D01*
X7013956Y5878829D01*
X7009384Y5881115D01*
X7004811Y5881115D01*
X7000240Y5878829D01*
X6997954Y5872226D01*
X6997954Y5863081D01*
X5740400Y6959345D02*
G01*
X5740400Y6911594D01*
X5740400Y6911594D02*
G01*
X5767577Y6911594D01*
X5784850Y6947915D02*
G01*
X5784850Y6950202D01*
X5787136Y6954773D01*
X5789422Y6957060D01*
X5793993Y6959345D01*
X5803138Y6959345D01*
X5807709Y6957060D01*
X5809995Y6954773D01*
X5812281Y6950202D01*
X5812281Y6945629D01*
X5809995Y6941058D01*
X5805424Y6934200D01*
X5782563Y6911594D01*
X5814568Y6911594D01*
X4673663Y6933945D02*
G01*
X4673663Y6886194D01*
X4673663Y6886194D02*
G01*
X4700841Y6886194D01*
X4715827Y6924802D02*
G01*
X4720399Y6927087D01*
X4727257Y6933945D01*
X4727257Y6886194D01*
X6146800Y5981445D02*
G01*
X6146800Y5933694D01*
X6146800Y5981445D02*
G01*
X6167374Y5981445D01*
X6173977Y5979160D01*
X6176263Y5976873D01*
X6178550Y5972302D01*
X6178550Y5967729D01*
X6176263Y5963157D01*
X6173977Y5960871D01*
X6167374Y5958586D01*
X6146800Y5958586D01*
X6162802Y5958586D02*
G01*
X6178550Y5933694D01*
X6220968Y5981445D02*
G01*
X6198108Y5981445D01*
X6195822Y5960871D01*
X6198108Y5963157D01*
X6204965Y5965444D01*
X6211824Y5965444D01*
X6218681Y5963157D01*
X6223254Y5958586D01*
X6225540Y5951728D01*
X6225540Y5947155D01*
X6223254Y5940552D01*
X6218681Y5935979D01*
X6211824Y5933694D01*
X6204965Y5933694D01*
X6198108Y5935979D01*
X6195822Y5938265D01*
X6193536Y5942837D01*
X6197627Y6489445D02*
G01*
X6197627Y6455155D01*
X6199913Y6448552D01*
X6204485Y6443979D01*
X6211343Y6441694D01*
X6215661Y6441694D01*
X6222519Y6443979D01*
X6227091Y6448552D01*
X6229377Y6455155D01*
X6229377Y6489445D01*
X6267223Y6489445D02*
G01*
X6244363Y6457442D01*
X6278399Y6457442D01*
X6267223Y6489445D02*
G01*
X6267223Y6441694D01*
X6882384Y5787136D02*
G01*
X6877811Y5784850D01*
X6873240Y5780278D01*
X6870954Y5775705D01*
X6870954Y5766815D01*
X6873240Y5762244D01*
X6877811Y5757671D01*
X6882384Y5755386D01*
X6889241Y5753100D01*
X6900672Y5753100D01*
X6907529Y5755386D01*
X6911847Y5757671D01*
X6916420Y5762244D01*
X6918706Y5766815D01*
X6918706Y5775705D01*
X6916420Y5780278D01*
X6911847Y5784850D01*
X6907529Y5787136D01*
X6870954Y5806694D02*
G01*
X6870954Y5831839D01*
X6889241Y5818123D01*
X6889241Y5824981D01*
X6891527Y5829554D01*
X6893813Y5831839D01*
X6900672Y5834126D01*
X6905243Y5834126D01*
X6911847Y5831839D01*
X6916420Y5827268D01*
X6918706Y5820410D01*
X6918706Y5813552D01*
X6916420Y5806694D01*
X6914134Y5804407D01*
X6909561Y5802121D01*
X6870954Y5853429D02*
G01*
X6870954Y5878576D01*
X6889241Y5864860D01*
X6889241Y5871718D01*
X6891527Y5876289D01*
X6893813Y5878576D01*
X6900672Y5880862D01*
X6905243Y5880862D01*
X6911847Y5878576D01*
X6916420Y5874004D01*
X6918706Y5867145D01*
X6918706Y5860287D01*
X6916420Y5853429D01*
X6914134Y5851397D01*
X6909561Y5849112D01*
X6642100Y5625845D02*
G01*
X6642100Y5578094D01*
X6642100Y5625845D02*
G01*
X6658102Y5625845D01*
X6664706Y5623560D01*
X6669277Y5618987D01*
X6671563Y5614415D01*
X6673850Y5607557D01*
X6673850Y5596128D01*
X6671563Y5589270D01*
X6669277Y5584952D01*
X6664706Y5580379D01*
X6658102Y5578094D01*
X6642100Y5578094D01*
X6688836Y5616702D02*
G01*
X6693408Y5618987D01*
X6700265Y5625845D01*
X6700265Y5578094D01*
X6427215Y6083045D02*
G01*
X6422643Y6080760D01*
X6418072Y6076187D01*
X6415786Y6071615D01*
X6413500Y6064757D01*
X6413500Y6053328D01*
X6415786Y6046470D01*
X6418072Y6042152D01*
X6422643Y6037579D01*
X6427215Y6035294D01*
X6436106Y6035294D01*
X6440677Y6037579D01*
X6445250Y6042152D01*
X6447536Y6046470D01*
X6449822Y6053328D01*
X6449822Y6064757D01*
X6447536Y6071615D01*
X6445250Y6076187D01*
X6440677Y6080760D01*
X6436106Y6083045D01*
X6427215Y6083045D01*
X6434074Y6044437D02*
G01*
X6447536Y6030721D01*
X6467093Y6071615D02*
G01*
X6467093Y6073902D01*
X6469379Y6078473D01*
X6471665Y6080760D01*
X6476238Y6083045D01*
X6485381Y6083045D01*
X6489954Y6080760D01*
X6492240Y6078473D01*
X6494525Y6073902D01*
X6494525Y6069329D01*
X6492240Y6064757D01*
X6487668Y6057900D01*
X6464808Y6035294D01*
X6496558Y6035294D01*
X6667500Y6311645D02*
G01*
X6667500Y6263894D01*
X6667500Y6311645D02*
G01*
X6688074Y6311645D01*
X6694677Y6309360D01*
X6696963Y6307073D01*
X6699250Y6302502D01*
X6699250Y6297929D01*
X6696963Y6293357D01*
X6694677Y6291071D01*
X6688074Y6288786D01*
X6667500Y6288786D01*
X6683502Y6288786D02*
G01*
X6699250Y6263894D01*
X6716522Y6300215D02*
G01*
X6716522Y6302502D01*
X6718808Y6307073D01*
X6721093Y6309360D01*
X6725665Y6311645D01*
X6734809Y6311645D01*
X6739381Y6309360D01*
X6741668Y6307073D01*
X6743954Y6302502D01*
X6743954Y6297929D01*
X6741668Y6293357D01*
X6737095Y6286500D01*
X6714236Y6263894D01*
X6746240Y6263894D01*
X6765797Y6311645D02*
G01*
X6790690Y6311645D01*
X6776974Y6293357D01*
X6783831Y6293357D01*
X6788404Y6291071D01*
X6790690Y6288786D01*
X6792975Y6281928D01*
X6792975Y6277355D01*
X6790690Y6270752D01*
X6786118Y6266179D01*
X6779259Y6263894D01*
X6772402Y6263894D01*
X6765797Y6266179D01*
X6763511Y6268465D01*
X6761225Y6273037D01*
X6731000Y6552945D02*
G01*
X6731000Y6518655D01*
X6733286Y6512052D01*
X6737858Y6507479D01*
X6744715Y6505194D01*
X6749288Y6505194D01*
X6755891Y6507479D01*
X6760463Y6512052D01*
X6762750Y6518655D01*
X6762750Y6552945D01*
X6782308Y6552945D02*
G01*
X6807454Y6552945D01*
X6793738Y6534657D01*
X6800595Y6534657D01*
X6805168Y6532371D01*
X6807454Y6530086D01*
X6809740Y6523228D01*
X6809740Y6518655D01*
X6807454Y6512052D01*
X6802881Y6507479D01*
X6796024Y6505194D01*
X6789165Y6505194D01*
X6782308Y6507479D01*
X6780022Y6509765D01*
X6777736Y6514337D01*
X5851906Y5600445D02*
G01*
X5851906Y5563870D01*
X5849874Y5557265D01*
X5847588Y5554979D01*
X5843015Y5552694D01*
X5838443Y5552694D01*
X5833872Y5554979D01*
X5831586Y5557265D01*
X5829300Y5563870D01*
X5829300Y5568442D01*
X5867145Y5591302D02*
G01*
X5871463Y5593587D01*
X5878322Y5600445D01*
X5878322Y5552694D01*
X5826759Y5714237D02*
G01*
X5822188Y5711952D01*
X5815329Y5705094D01*
X5815329Y5753607D01*
X5176520Y5724397D02*
G01*
X5171947Y5722112D01*
X5165090Y5715254D01*
X5165090Y5763768D01*
X5135879Y5715254D02*
G01*
X5142738Y5717539D01*
X5147309Y5724397D01*
X5149850Y5736081D01*
X5149850Y5742939D01*
X5147309Y5754370D01*
X5142738Y5761481D01*
X5135879Y5763768D01*
X5131308Y5763768D01*
X5124450Y5761481D01*
X5119624Y5754370D01*
X5117338Y5742939D01*
X5117338Y5736081D01*
X5119624Y5724397D01*
X5124450Y5717539D01*
X5131308Y5715254D01*
X5135879Y5715254D01*
X4480813Y5726684D02*
G01*
X4480813Y5724397D01*
X4478527Y5719826D01*
X4476241Y5717539D01*
X4471670Y5715254D01*
X4462272Y5715254D01*
X4457700Y5717539D01*
X4455413Y5719826D01*
X4453127Y5724397D01*
X4453127Y5728970D01*
X4455413Y5733795D01*
X4459986Y5740654D01*
X4483100Y5763768D01*
X4450841Y5763768D01*
X4421631Y5715254D02*
G01*
X4428490Y5717539D01*
X4433315Y5724397D01*
X4435602Y5736081D01*
X4435602Y5742939D01*
X4433315Y5754370D01*
X4428490Y5761481D01*
X4421631Y5763768D01*
X4417059Y5763768D01*
X4410202Y5761481D01*
X4405629Y5754370D01*
X4403090Y5742939D01*
X4403090Y5736081D01*
X4405629Y5724397D01*
X4410202Y5717539D01*
X4417059Y5715254D01*
X4421631Y5715254D01*
X3782568Y5715254D02*
G01*
X3757168Y5715254D01*
X3770884Y5733795D01*
X3764025Y5733795D01*
X3759454Y5736081D01*
X3757168Y5738368D01*
X3754881Y5745226D01*
X3754881Y5749797D01*
X3757168Y5756910D01*
X3761740Y5761481D01*
X3768597Y5763768D01*
X3775709Y5763768D01*
X3782568Y5761481D01*
X3784854Y5759195D01*
X3787140Y5754370D01*
X3725672Y5715254D02*
G01*
X3732529Y5717539D01*
X3737356Y5724397D01*
X3739641Y5736081D01*
X3739641Y5742939D01*
X3737356Y5754370D01*
X3732529Y5761481D01*
X3725672Y5763768D01*
X3721100Y5763768D01*
X3714241Y5761481D01*
X3709670Y5754370D01*
X3707129Y5742939D01*
X3707129Y5736081D01*
X3709670Y5724397D01*
X3714241Y5717539D01*
X3721100Y5715254D01*
X3725672Y5715254D01*
X5982715Y5562345D02*
G01*
X5978143Y5560060D01*
X5973572Y5555487D01*
X5971286Y5550915D01*
X5969000Y5544057D01*
X5969000Y5532628D01*
X5971286Y5525770D01*
X5973572Y5521452D01*
X5978143Y5516879D01*
X5982715Y5514594D01*
X5991606Y5514594D01*
X5996177Y5516879D01*
X6000750Y5521452D01*
X6003036Y5525770D01*
X6005322Y5532628D01*
X6005322Y5544057D01*
X6003036Y5550915D01*
X6000750Y5555487D01*
X5996177Y5560060D01*
X5991606Y5562345D01*
X5982715Y5562345D01*
X5989574Y5523737D02*
G01*
X6003036Y5510021D01*
X6020308Y5553202D02*
G01*
X6024879Y5555487D01*
X6031738Y5562345D01*
X6031738Y5514594D01*
X6273800Y5194045D02*
G01*
X6273800Y5146294D01*
X6273800Y5194045D02*
G01*
X6294374Y5194045D01*
X6300977Y5191760D01*
X6303263Y5189473D01*
X6305550Y5184902D01*
X6305550Y5180329D01*
X6303263Y5175757D01*
X6300977Y5173471D01*
X6294374Y5171186D01*
X6273800Y5171186D01*
X6289802Y5171186D02*
G01*
X6305550Y5146294D01*
X6343395Y5194045D02*
G01*
X6320536Y5162042D01*
X6354825Y5162042D01*
X6343395Y5194045D02*
G01*
X6343395Y5146294D01*
X5028184Y7031736D02*
G01*
X5023611Y7029450D01*
X5019040Y7024878D01*
X5016754Y7020305D01*
X5016754Y7011415D01*
X5019040Y7006844D01*
X5023611Y7002271D01*
X5028184Y6999986D01*
X5035041Y6997700D01*
X5046472Y6997700D01*
X5053329Y6999986D01*
X5057647Y7002271D01*
X5062220Y7006844D01*
X5064506Y7011415D01*
X5064506Y7020305D01*
X5062220Y7024878D01*
X5057647Y7029450D01*
X5053329Y7031736D01*
X5016754Y7051294D02*
G01*
X5016754Y7076439D01*
X5035041Y7062723D01*
X5035041Y7069581D01*
X5037327Y7074154D01*
X5039613Y7076439D01*
X5046472Y7078726D01*
X5051043Y7078726D01*
X5057647Y7076439D01*
X5062220Y7071868D01*
X5064506Y7065010D01*
X5064506Y7058152D01*
X5062220Y7051294D01*
X5059934Y7049008D01*
X5055361Y7046721D01*
X5016754Y7107173D02*
G01*
X5019040Y7100315D01*
X5025897Y7095997D01*
X5037327Y7093712D01*
X5044186Y7093712D01*
X5055361Y7095997D01*
X5062220Y7100315D01*
X5064506Y7107173D01*
X5064506Y7111745D01*
X5062220Y7118604D01*
X5055361Y7123176D01*
X5044186Y7125462D01*
X5037327Y7125462D01*
X5025897Y7123176D01*
X5019040Y7118604D01*
X5016754Y7111745D01*
X5016754Y7107173D01*
X5431536Y7113015D02*
G01*
X5429250Y7117587D01*
X5424677Y7122160D01*
X5420106Y7124445D01*
X5411215Y7124445D01*
X5406643Y7122160D01*
X5402072Y7117587D01*
X5399786Y7113015D01*
X5397500Y7106158D01*
X5397500Y7094728D01*
X5399786Y7087870D01*
X5402072Y7083552D01*
X5406643Y7078979D01*
X5411215Y7076694D01*
X5420106Y7076694D01*
X5424677Y7078979D01*
X5429250Y7083552D01*
X5431536Y7087870D01*
X5451093Y7124445D02*
G01*
X5476240Y7124445D01*
X5462524Y7106158D01*
X5469381Y7106158D01*
X5473954Y7103871D01*
X5476240Y7101586D01*
X5478525Y7094728D01*
X5478525Y7090155D01*
X5476240Y7083552D01*
X5471668Y7078979D01*
X5464809Y7076694D01*
X5457952Y7076694D01*
X5451093Y7078979D01*
X5448808Y7081265D01*
X5446522Y7085837D01*
X5493511Y7115302D02*
G01*
X5497829Y7117587D01*
X5504688Y7124445D01*
X5504688Y7076694D01*
X5837936Y5881115D02*
G01*
X5835650Y5885687D01*
X5831077Y5890260D01*
X5826506Y5892545D01*
X5817615Y5892545D01*
X5813043Y5890260D01*
X5808472Y5885687D01*
X5806186Y5881115D01*
X5803900Y5874257D01*
X5803900Y5862828D01*
X5806186Y5855970D01*
X5808472Y5851652D01*
X5813043Y5847079D01*
X5817615Y5844794D01*
X5826506Y5844794D01*
X5831077Y5847079D01*
X5835650Y5851652D01*
X5837936Y5855970D01*
X5852922Y5883402D02*
G01*
X5857493Y5885687D01*
X5864352Y5892545D01*
X5864352Y5844794D01*
X5279136Y5423915D02*
G01*
X5276850Y5428487D01*
X5272277Y5433060D01*
X5267706Y5435345D01*
X5258815Y5435345D01*
X5254243Y5433060D01*
X5249672Y5428487D01*
X5247386Y5423915D01*
X5245100Y5417057D01*
X5245100Y5405628D01*
X5247386Y5398770D01*
X5249672Y5394452D01*
X5254243Y5389879D01*
X5258815Y5387594D01*
X5267706Y5387594D01*
X5272277Y5389879D01*
X5276850Y5394452D01*
X5279136Y5398770D01*
X5296408Y5423915D02*
G01*
X5296408Y5426202D01*
X5298693Y5430773D01*
X5300979Y5433060D01*
X5305552Y5435345D01*
X5314695Y5435345D01*
X5319268Y5433060D01*
X5321554Y5430773D01*
X5323840Y5426202D01*
X5323840Y5421629D01*
X5321554Y5417057D01*
X5316981Y5410200D01*
X5294122Y5387594D01*
X5326125Y5387594D01*
X5104384Y5456936D02*
G01*
X5099811Y5454650D01*
X5095240Y5450078D01*
X5092954Y5445505D01*
X5092954Y5436615D01*
X5095240Y5432044D01*
X5099811Y5427471D01*
X5104384Y5425186D01*
X5111241Y5422900D01*
X5122672Y5422900D01*
X5129529Y5425186D01*
X5133847Y5427471D01*
X5138420Y5432044D01*
X5140706Y5436615D01*
X5140706Y5445505D01*
X5138420Y5450078D01*
X5133847Y5454650D01*
X5129529Y5456936D01*
X5092954Y5476494D02*
G01*
X5092954Y5501639D01*
X5111241Y5487923D01*
X5111241Y5494781D01*
X5113527Y5499354D01*
X5115813Y5501639D01*
X5122672Y5503926D01*
X5127243Y5503926D01*
X5133847Y5501639D01*
X5138420Y5497068D01*
X5140706Y5490210D01*
X5140706Y5483352D01*
X5138420Y5476494D01*
X5136134Y5474207D01*
X5131561Y5471921D01*
X4977384Y5456936D02*
G01*
X4972811Y5454650D01*
X4968240Y5450078D01*
X4965954Y5445505D01*
X4965954Y5436615D01*
X4968240Y5432044D01*
X4972811Y5427471D01*
X4977384Y5425186D01*
X4984241Y5422900D01*
X4995672Y5422900D01*
X5002529Y5425186D01*
X5006847Y5427471D01*
X5011420Y5432044D01*
X5013706Y5436615D01*
X5013706Y5445505D01*
X5011420Y5450078D01*
X5006847Y5454650D01*
X5002529Y5456936D01*
X4965954Y5494781D02*
G01*
X4997958Y5471921D01*
X4997958Y5505957D01*
X4965954Y5494781D02*
G01*
X5013706Y5494781D01*
X3923284Y5456936D02*
G01*
X3918711Y5454650D01*
X3914140Y5450078D01*
X3911854Y5445505D01*
X3911854Y5436615D01*
X3914140Y5432044D01*
X3918711Y5427471D01*
X3923284Y5425186D01*
X3930141Y5422900D01*
X3941572Y5422900D01*
X3948429Y5425186D01*
X3952747Y5427471D01*
X3957320Y5432044D01*
X3959606Y5436615D01*
X3959606Y5445505D01*
X3957320Y5450078D01*
X3952747Y5454650D01*
X3948429Y5456936D01*
X3911854Y5499354D02*
G01*
X3911854Y5476494D01*
X3932427Y5474207D01*
X3930141Y5476494D01*
X3927856Y5483352D01*
X3927856Y5490210D01*
X3930141Y5497068D01*
X3934713Y5501639D01*
X3941572Y5503926D01*
X3946143Y5503926D01*
X3952747Y5501639D01*
X3957320Y5497068D01*
X3959606Y5490210D01*
X3959606Y5483352D01*
X3957320Y5476494D01*
X3955034Y5474207D01*
X3950461Y5471921D01*
X3808984Y5456936D02*
G01*
X3804411Y5454650D01*
X3799840Y5450078D01*
X3797554Y5445505D01*
X3797554Y5436615D01*
X3799840Y5432044D01*
X3804411Y5427471D01*
X3808984Y5425186D01*
X3815841Y5422900D01*
X3827272Y5422900D01*
X3834129Y5425186D01*
X3838447Y5427471D01*
X3843020Y5432044D01*
X3845306Y5436615D01*
X3845306Y5445505D01*
X3843020Y5450078D01*
X3838447Y5454650D01*
X3834129Y5456936D01*
X3804411Y5499354D02*
G01*
X3799840Y5497068D01*
X3797554Y5490210D01*
X3797554Y5485637D01*
X3799840Y5478779D01*
X3806697Y5474207D01*
X3818127Y5471921D01*
X3829558Y5471921D01*
X3838447Y5474207D01*
X3843020Y5478779D01*
X3845306Y5485637D01*
X3845306Y5487923D01*
X3843020Y5494781D01*
X3838447Y5499354D01*
X3831843Y5501639D01*
X3829558Y5501639D01*
X3822700Y5499354D01*
X3818127Y5494781D01*
X3815841Y5487923D01*
X3815841Y5485637D01*
X3818127Y5478779D01*
X3822700Y5474207D01*
X3829558Y5471921D01*
X4263136Y6147815D02*
G01*
X4260850Y6152387D01*
X4256277Y6156960D01*
X4251706Y6159245D01*
X4242815Y6159245D01*
X4238243Y6156960D01*
X4233672Y6152387D01*
X4231386Y6147815D01*
X4229100Y6140957D01*
X4229100Y6129528D01*
X4231386Y6122670D01*
X4233672Y6118352D01*
X4238243Y6113779D01*
X4242815Y6111494D01*
X4251706Y6111494D01*
X4256277Y6113779D01*
X4260850Y6118352D01*
X4263136Y6122670D01*
X4289552Y6159245D02*
G01*
X4282693Y6156960D01*
X4280408Y6152387D01*
X4280408Y6147815D01*
X4282693Y6143244D01*
X4287265Y6140957D01*
X4296409Y6138671D01*
X4303268Y6136386D01*
X4307840Y6131813D01*
X4310125Y6127242D01*
X4310125Y6120637D01*
X4307840Y6116065D01*
X4305554Y6113779D01*
X4298695Y6111494D01*
X4289552Y6111494D01*
X4282693Y6113779D01*
X4280408Y6116065D01*
X4278122Y6120637D01*
X4278122Y6127242D01*
X4280408Y6131813D01*
X4284979Y6136386D01*
X4291838Y6138671D01*
X4300981Y6140957D01*
X4305554Y6143244D01*
X4307840Y6147815D01*
X4307840Y6152387D01*
X4305554Y6156960D01*
X4298695Y6159245D01*
X4289552Y6159245D01*
X3450336Y6338315D02*
G01*
X3448050Y6342887D01*
X3443477Y6347460D01*
X3438906Y6349745D01*
X3430015Y6349745D01*
X3425443Y6347460D01*
X3420872Y6342887D01*
X3418586Y6338315D01*
X3416300Y6331457D01*
X3416300Y6320028D01*
X3418586Y6313170D01*
X3420872Y6308852D01*
X3425443Y6304279D01*
X3430015Y6301994D01*
X3438906Y6301994D01*
X3443477Y6304279D01*
X3448050Y6308852D01*
X3450336Y6313170D01*
X3465322Y6340602D02*
G01*
X3469893Y6342887D01*
X3476752Y6349745D01*
X3476752Y6301994D01*
X3505454Y6349745D02*
G01*
X3498595Y6347460D01*
X3494024Y6340602D01*
X3491738Y6329171D01*
X3491738Y6322313D01*
X3494024Y6311137D01*
X3498595Y6304279D01*
X3505454Y6301994D01*
X3510025Y6301994D01*
X3516629Y6304279D01*
X3521202Y6311137D01*
X3523488Y6322313D01*
X3523488Y6329171D01*
X3521202Y6340602D01*
X3516629Y6347460D01*
X3510025Y6349745D01*
X3505454Y6349745D01*
X3894836Y6351015D02*
G01*
X3892550Y6355587D01*
X3887977Y6360160D01*
X3883406Y6362445D01*
X3874515Y6362445D01*
X3869943Y6360160D01*
X3865372Y6355587D01*
X3863086Y6351015D01*
X3860800Y6344157D01*
X3860800Y6332728D01*
X3863086Y6325870D01*
X3865372Y6321552D01*
X3869943Y6316979D01*
X3874515Y6314694D01*
X3883406Y6314694D01*
X3887977Y6316979D01*
X3892550Y6321552D01*
X3894836Y6325870D01*
X3909822Y6353302D02*
G01*
X3914393Y6355587D01*
X3921252Y6362445D01*
X3921252Y6314694D01*
X3936238Y6353302D02*
G01*
X3940809Y6355587D01*
X3947668Y6362445D01*
X3947668Y6314694D01*
X4542536Y5931915D02*
G01*
X4540250Y5936487D01*
X4535677Y5941060D01*
X4531106Y5943345D01*
X4522215Y5943345D01*
X4517643Y5941060D01*
X4513072Y5936487D01*
X4510786Y5931915D01*
X4508500Y5925057D01*
X4508500Y5913628D01*
X4510786Y5906770D01*
X4513072Y5902452D01*
X4517643Y5897879D01*
X4522215Y5895594D01*
X4531106Y5895594D01*
X4535677Y5897879D01*
X4540250Y5902452D01*
X4542536Y5906770D01*
X4557522Y5934202D02*
G01*
X4562093Y5936487D01*
X4568952Y5943345D01*
X4568952Y5895594D01*
X4586224Y5931915D02*
G01*
X4586224Y5934202D01*
X4588509Y5938773D01*
X4590795Y5941060D01*
X4595368Y5943345D01*
X4604511Y5943345D01*
X4608829Y5941060D01*
X4611115Y5938773D01*
X4613402Y5934202D01*
X4613402Y5929629D01*
X4611115Y5925057D01*
X4606797Y5918200D01*
X4583938Y5895594D01*
X4615688Y5895594D01*
X4466336Y6592315D02*
G01*
X4464050Y6596887D01*
X4459477Y6601460D01*
X4454906Y6603745D01*
X4446015Y6603745D01*
X4441443Y6601460D01*
X4436872Y6596887D01*
X4434586Y6592315D01*
X4432300Y6585458D01*
X4432300Y6574028D01*
X4434586Y6567170D01*
X4436872Y6562852D01*
X4441443Y6558279D01*
X4446015Y6555994D01*
X4454906Y6555994D01*
X4459477Y6558279D01*
X4464050Y6562852D01*
X4466336Y6567170D01*
X4481322Y6594602D02*
G01*
X4485893Y6596887D01*
X4492752Y6603745D01*
X4492752Y6555994D01*
X4512309Y6603745D02*
G01*
X4537202Y6603745D01*
X4523740Y6585458D01*
X4530597Y6585458D01*
X4534915Y6583171D01*
X4537202Y6580886D01*
X4539488Y6574028D01*
X4539488Y6569455D01*
X4537202Y6562852D01*
X4532629Y6558279D01*
X4526025Y6555994D01*
X4519168Y6555994D01*
X4512309Y6558279D01*
X4510024Y6560565D01*
X4507738Y6565137D01*
X3247136Y5868415D02*
G01*
X3244850Y5872987D01*
X3240277Y5877560D01*
X3235706Y5879845D01*
X3226815Y5879845D01*
X3222243Y5877560D01*
X3217672Y5872987D01*
X3215386Y5868415D01*
X3213100Y5861557D01*
X3213100Y5850128D01*
X3215386Y5843270D01*
X3217672Y5838952D01*
X3222243Y5834379D01*
X3226815Y5832094D01*
X3235706Y5832094D01*
X3240277Y5834379D01*
X3244850Y5838952D01*
X3247136Y5843270D01*
X3262122Y5870702D02*
G01*
X3266693Y5872987D01*
X3273552Y5879845D01*
X3273552Y5832094D01*
X3315715Y5879845D02*
G01*
X3293109Y5879845D01*
X3290824Y5859271D01*
X3293109Y5861557D01*
X3299968Y5863844D01*
X3306825Y5863844D01*
X3313429Y5861557D01*
X3318002Y5856986D01*
X3320288Y5850128D01*
X3320288Y5845555D01*
X3318002Y5838952D01*
X3313429Y5834379D01*
X3306825Y5832094D01*
X3299968Y5832094D01*
X3293109Y5834379D01*
X3290824Y5836665D01*
X3288538Y5841237D01*
X3247136Y5741415D02*
G01*
X3244850Y5745987D01*
X3240277Y5750560D01*
X3235706Y5752845D01*
X3226815Y5752845D01*
X3222243Y5750560D01*
X3217672Y5745987D01*
X3215386Y5741415D01*
X3213100Y5734557D01*
X3213100Y5723128D01*
X3215386Y5716270D01*
X3217672Y5711952D01*
X3222243Y5707379D01*
X3226815Y5705094D01*
X3235706Y5705094D01*
X3240277Y5707379D01*
X3244850Y5711952D01*
X3247136Y5716270D01*
X3262122Y5743702D02*
G01*
X3266693Y5745987D01*
X3273552Y5752845D01*
X3273552Y5705094D01*
X3315715Y5745987D02*
G01*
X3313429Y5750560D01*
X3306825Y5752845D01*
X3302254Y5752845D01*
X3295395Y5750560D01*
X3290824Y5743702D01*
X3288538Y5732271D01*
X3288538Y5720842D01*
X3290824Y5711952D01*
X3295395Y5707379D01*
X3302254Y5705094D01*
X3304540Y5705094D01*
X3311397Y5707379D01*
X3315715Y5711952D01*
X3318002Y5718555D01*
X3318002Y5720842D01*
X3315715Y5727700D01*
X3311397Y5732271D01*
X3304540Y5734557D01*
X3302254Y5734557D01*
X3295395Y5732271D01*
X3290824Y5727700D01*
X3288538Y5720842D01*
X3247136Y5627115D02*
G01*
X3244850Y5631687D01*
X3240277Y5636260D01*
X3235706Y5638545D01*
X3226815Y5638545D01*
X3222243Y5636260D01*
X3217672Y5631687D01*
X3215386Y5627115D01*
X3213100Y5620257D01*
X3213100Y5608828D01*
X3215386Y5601970D01*
X3217672Y5597652D01*
X3222243Y5593079D01*
X3226815Y5590794D01*
X3235706Y5590794D01*
X3240277Y5593079D01*
X3244850Y5597652D01*
X3247136Y5601970D01*
X3262122Y5629402D02*
G01*
X3266693Y5631687D01*
X3273552Y5638545D01*
X3273552Y5590794D01*
X3320288Y5638545D02*
G01*
X3297681Y5590794D01*
X3288538Y5638545D02*
G01*
X3320288Y5638545D01*
X3247136Y5525515D02*
G01*
X3244850Y5530087D01*
X3240277Y5534660D01*
X3235706Y5536945D01*
X3226815Y5536945D01*
X3222243Y5534660D01*
X3217672Y5530087D01*
X3215386Y5525515D01*
X3213100Y5518657D01*
X3213100Y5507228D01*
X3215386Y5500370D01*
X3217672Y5496052D01*
X3222243Y5491479D01*
X3226815Y5489194D01*
X3235706Y5489194D01*
X3240277Y5491479D01*
X3244850Y5496052D01*
X3247136Y5500370D01*
X3262122Y5527802D02*
G01*
X3266693Y5530087D01*
X3273552Y5536945D01*
X3273552Y5489194D01*
X3299968Y5536945D02*
G01*
X3293109Y5534660D01*
X3290824Y5530087D01*
X3290824Y5525515D01*
X3293109Y5520944D01*
X3297681Y5518657D01*
X3306825Y5516371D01*
X3313429Y5514086D01*
X3318002Y5509513D01*
X3320288Y5504942D01*
X3320288Y5498337D01*
X3318002Y5493765D01*
X3315715Y5491479D01*
X3309111Y5489194D01*
X3299968Y5489194D01*
X3293109Y5491479D01*
X3290824Y5493765D01*
X3288538Y5498337D01*
X3288538Y5504942D01*
X3290824Y5509513D01*
X3295395Y5514086D01*
X3302254Y5516371D01*
X3311397Y5518657D01*
X3315715Y5520944D01*
X3318002Y5525515D01*
X3318002Y5530087D01*
X3315715Y5534660D01*
X3309111Y5536945D01*
X3299968Y5536945D01*
X2802636Y6617715D02*
G01*
X2800350Y6622287D01*
X2795777Y6626860D01*
X2791206Y6629145D01*
X2782315Y6629145D01*
X2777743Y6626860D01*
X2773172Y6622287D01*
X2770886Y6617715D01*
X2768600Y6610858D01*
X2768600Y6599428D01*
X2770886Y6592570D01*
X2773172Y6588252D01*
X2777743Y6583679D01*
X2782315Y6581394D01*
X2791206Y6581394D01*
X2795777Y6583679D01*
X2800350Y6588252D01*
X2802636Y6592570D01*
X2819908Y6617715D02*
G01*
X2819908Y6620002D01*
X2822193Y6624573D01*
X2824479Y6626860D01*
X2829052Y6629145D01*
X2838195Y6629145D01*
X2842768Y6626860D01*
X2845054Y6624573D01*
X2847340Y6620002D01*
X2847340Y6615429D01*
X2845054Y6610858D01*
X2840481Y6604000D01*
X2817622Y6581394D01*
X2849625Y6581394D01*
X2878074Y6629145D02*
G01*
X2871215Y6626860D01*
X2866897Y6620002D01*
X2864611Y6608571D01*
X2864611Y6601713D01*
X2866897Y6590537D01*
X2871215Y6583679D01*
X2878074Y6581394D01*
X2882645Y6581394D01*
X2889504Y6583679D01*
X2894075Y6590537D01*
X2896361Y6601713D01*
X2896361Y6608571D01*
X2894075Y6620002D01*
X2889504Y6626860D01*
X2882645Y6629145D01*
X2878074Y6629145D01*
X2815336Y6859015D02*
G01*
X2813050Y6863587D01*
X2808477Y6868160D01*
X2803906Y6870445D01*
X2795015Y6870445D01*
X2790443Y6868160D01*
X2785872Y6863587D01*
X2783586Y6859015D01*
X2781300Y6852158D01*
X2781300Y6840728D01*
X2783586Y6833870D01*
X2785872Y6829552D01*
X2790443Y6824979D01*
X2795015Y6822694D01*
X2803906Y6822694D01*
X2808477Y6824979D01*
X2813050Y6829552D01*
X2815336Y6833870D01*
X2832608Y6859015D02*
G01*
X2832608Y6861302D01*
X2834893Y6865873D01*
X2837179Y6868160D01*
X2841752Y6870445D01*
X2850895Y6870445D01*
X2855468Y6868160D01*
X2857754Y6865873D01*
X2860040Y6861302D01*
X2860040Y6856729D01*
X2857754Y6852158D01*
X2853181Y6845300D01*
X2830322Y6822694D01*
X2862325Y6822694D01*
X2877311Y6861302D02*
G01*
X2881629Y6863587D01*
X2888488Y6870445D01*
X2888488Y6822694D01*
X2802636Y6490715D02*
G01*
X2800350Y6495287D01*
X2795777Y6499860D01*
X2791206Y6502145D01*
X2782315Y6502145D01*
X2777743Y6499860D01*
X2773172Y6495287D01*
X2770886Y6490715D01*
X2768600Y6483857D01*
X2768600Y6472428D01*
X2770886Y6465570D01*
X2773172Y6461252D01*
X2777743Y6456679D01*
X2782315Y6454394D01*
X2791206Y6454394D01*
X2795777Y6456679D01*
X2800350Y6461252D01*
X2802636Y6465570D01*
X2819908Y6490715D02*
G01*
X2819908Y6493002D01*
X2822193Y6497573D01*
X2824479Y6499860D01*
X2829052Y6502145D01*
X2838195Y6502145D01*
X2842768Y6499860D01*
X2845054Y6497573D01*
X2847340Y6493002D01*
X2847340Y6488429D01*
X2845054Y6483857D01*
X2840481Y6477000D01*
X2817622Y6454394D01*
X2849625Y6454394D01*
X2866897Y6490715D02*
G01*
X2866897Y6493002D01*
X2868929Y6497573D01*
X2871215Y6499860D01*
X2875788Y6502145D01*
X2884931Y6502145D01*
X2889504Y6499860D01*
X2891790Y6497573D01*
X2894075Y6493002D01*
X2894075Y6488429D01*
X2891790Y6483857D01*
X2887218Y6477000D01*
X2864611Y6454394D01*
X2896361Y6454394D01*
X5228336Y6097015D02*
G01*
X5226050Y6101587D01*
X5221477Y6106160D01*
X5216906Y6108445D01*
X5208015Y6108445D01*
X5203443Y6106160D01*
X5198872Y6101587D01*
X5196586Y6097015D01*
X5194300Y6090157D01*
X5194300Y6078728D01*
X5196586Y6071870D01*
X5198872Y6067552D01*
X5203443Y6062979D01*
X5208015Y6060694D01*
X5216906Y6060694D01*
X5221477Y6062979D01*
X5226050Y6067552D01*
X5228336Y6071870D01*
X5245608Y6097015D02*
G01*
X5245608Y6099302D01*
X5247893Y6103873D01*
X5250179Y6106160D01*
X5254752Y6108445D01*
X5263895Y6108445D01*
X5268468Y6106160D01*
X5270754Y6103873D01*
X5273040Y6099302D01*
X5273040Y6094729D01*
X5270754Y6090157D01*
X5266181Y6083300D01*
X5243322Y6060694D01*
X5275325Y6060694D01*
X5294629Y6108445D02*
G01*
X5319775Y6108445D01*
X5306059Y6090157D01*
X5312918Y6090157D01*
X5317490Y6087871D01*
X5319775Y6085586D01*
X5322061Y6078728D01*
X5322061Y6074155D01*
X5319775Y6067552D01*
X5315204Y6062979D01*
X5308345Y6060694D01*
X5301488Y6060694D01*
X5294629Y6062979D01*
X5292597Y6065265D01*
X5290311Y6069837D01*
X5431536Y6998715D02*
G01*
X5429250Y7003287D01*
X5424677Y7007860D01*
X5420106Y7010145D01*
X5411215Y7010145D01*
X5406643Y7007860D01*
X5402072Y7003287D01*
X5399786Y6998715D01*
X5397500Y6991858D01*
X5397500Y6980428D01*
X5399786Y6973570D01*
X5402072Y6969252D01*
X5406643Y6964679D01*
X5411215Y6962394D01*
X5420106Y6962394D01*
X5424677Y6964679D01*
X5429250Y6969252D01*
X5431536Y6973570D01*
X5448808Y6998715D02*
G01*
X5448808Y7001002D01*
X5451093Y7005573D01*
X5453379Y7007860D01*
X5457952Y7010145D01*
X5467095Y7010145D01*
X5471668Y7007860D01*
X5473954Y7005573D01*
X5476240Y7001002D01*
X5476240Y6996429D01*
X5473954Y6991858D01*
X5469381Y6985000D01*
X5446522Y6962394D01*
X5478525Y6962394D01*
X5516118Y7010145D02*
G01*
X5493511Y6978142D01*
X5527547Y6978142D01*
X5516118Y7010145D02*
G01*
X5516118Y6962394D01*
X4656836Y6668515D02*
G01*
X4654550Y6673087D01*
X4649977Y6677660D01*
X4645406Y6679945D01*
X4636515Y6679945D01*
X4631943Y6677660D01*
X4627372Y6673087D01*
X4625086Y6668515D01*
X4622800Y6661658D01*
X4622800Y6650228D01*
X4625086Y6643370D01*
X4627372Y6639052D01*
X4631943Y6634479D01*
X4636515Y6632194D01*
X4645406Y6632194D01*
X4649977Y6634479D01*
X4654550Y6639052D01*
X4656836Y6643370D01*
X4674108Y6668515D02*
G01*
X4674108Y6670802D01*
X4676393Y6675373D01*
X4678679Y6677660D01*
X4683252Y6679945D01*
X4692395Y6679945D01*
X4696968Y6677660D01*
X4699254Y6675373D01*
X4701540Y6670802D01*
X4701540Y6666229D01*
X4699254Y6661658D01*
X4694681Y6654800D01*
X4671822Y6632194D01*
X4703825Y6632194D01*
X4745990Y6679945D02*
G01*
X4723129Y6679945D01*
X4721097Y6659371D01*
X4723129Y6661658D01*
X4729988Y6663944D01*
X4736845Y6663944D01*
X4743704Y6661658D01*
X4748275Y6657086D01*
X4750561Y6650228D01*
X4750561Y6645655D01*
X4748275Y6639052D01*
X4743704Y6634479D01*
X4736845Y6632194D01*
X4729988Y6632194D01*
X4723129Y6634479D01*
X4721097Y6636765D01*
X4718811Y6641337D01*
X4656836Y6782815D02*
G01*
X4654550Y6787387D01*
X4649977Y6791960D01*
X4645406Y6794245D01*
X4636515Y6794245D01*
X4631943Y6791960D01*
X4627372Y6787387D01*
X4625086Y6782815D01*
X4622800Y6775958D01*
X4622800Y6764528D01*
X4625086Y6757670D01*
X4627372Y6753352D01*
X4631943Y6748779D01*
X4636515Y6746494D01*
X4645406Y6746494D01*
X4649977Y6748779D01*
X4654550Y6753352D01*
X4656836Y6757670D01*
X4674108Y6782815D02*
G01*
X4674108Y6785102D01*
X4676393Y6789673D01*
X4678679Y6791960D01*
X4683252Y6794245D01*
X4692395Y6794245D01*
X4696968Y6791960D01*
X4699254Y6789673D01*
X4701540Y6785102D01*
X4701540Y6780529D01*
X4699254Y6775958D01*
X4694681Y6769100D01*
X4671822Y6746494D01*
X4703825Y6746494D01*
X4745990Y6787387D02*
G01*
X4743704Y6791960D01*
X4736845Y6794245D01*
X4732274Y6794245D01*
X4725415Y6791960D01*
X4721097Y6785102D01*
X4718811Y6773671D01*
X4718811Y6762242D01*
X4721097Y6753352D01*
X4725415Y6748779D01*
X4732274Y6746494D01*
X4734559Y6746494D01*
X4741418Y6748779D01*
X4745990Y6753352D01*
X4748275Y6759955D01*
X4748275Y6762242D01*
X4745990Y6769100D01*
X4741418Y6773671D01*
X4734559Y6775958D01*
X4732274Y6775958D01*
X4725415Y6773671D01*
X4721097Y6769100D01*
X4718811Y6762242D01*
X4644136Y7049515D02*
G01*
X4641850Y7054087D01*
X4637277Y7058660D01*
X4632706Y7060945D01*
X4623815Y7060945D01*
X4619243Y7058660D01*
X4614672Y7054087D01*
X4612386Y7049515D01*
X4610100Y7042658D01*
X4610100Y7031228D01*
X4612386Y7024370D01*
X4614672Y7020052D01*
X4619243Y7015479D01*
X4623815Y7013194D01*
X4632706Y7013194D01*
X4637277Y7015479D01*
X4641850Y7020052D01*
X4644136Y7024370D01*
X4661408Y7049515D02*
G01*
X4661408Y7051802D01*
X4663693Y7056373D01*
X4665979Y7058660D01*
X4670552Y7060945D01*
X4679695Y7060945D01*
X4684268Y7058660D01*
X4686554Y7056373D01*
X4688840Y7051802D01*
X4688840Y7047229D01*
X4686554Y7042658D01*
X4681981Y7035800D01*
X4659122Y7013194D01*
X4691125Y7013194D01*
X4737861Y7060945D02*
G01*
X4715002Y7013194D01*
X4706111Y7060945D02*
G01*
X4737861Y7060945D01*
X6003036Y7049515D02*
G01*
X6000750Y7054087D01*
X5996177Y7058660D01*
X5991606Y7060945D01*
X5982715Y7060945D01*
X5978143Y7058660D01*
X5973572Y7054087D01*
X5971286Y7049515D01*
X5969000Y7042658D01*
X5969000Y7031228D01*
X5971286Y7024370D01*
X5973572Y7020052D01*
X5978143Y7015479D01*
X5982715Y7013194D01*
X5991606Y7013194D01*
X5996177Y7015479D01*
X6000750Y7020052D01*
X6003036Y7024370D01*
X6020308Y7049515D02*
G01*
X6020308Y7051802D01*
X6022593Y7056373D01*
X6024879Y7058660D01*
X6029452Y7060945D01*
X6038595Y7060945D01*
X6043168Y7058660D01*
X6045454Y7056373D01*
X6047740Y7051802D01*
X6047740Y7047229D01*
X6045454Y7042658D01*
X6040881Y7035800D01*
X6018022Y7013194D01*
X6050025Y7013194D01*
X6076188Y7060945D02*
G01*
X6069329Y7058660D01*
X6067297Y7054087D01*
X6067297Y7049515D01*
X6069329Y7044944D01*
X6073902Y7042658D01*
X6083045Y7040371D01*
X6089904Y7038086D01*
X6094475Y7033513D01*
X6096761Y7028942D01*
X6096761Y7022337D01*
X6094475Y7017765D01*
X6092190Y7015479D01*
X6085331Y7013194D01*
X6076188Y7013194D01*
X6069329Y7015479D01*
X6067297Y7017765D01*
X6065011Y7022337D01*
X6065011Y7028942D01*
X6067297Y7033513D01*
X6071615Y7038086D01*
X6078474Y7040371D01*
X6087618Y7042658D01*
X6092190Y7044944D01*
X6094475Y7049515D01*
X6094475Y7054087D01*
X6092190Y7058660D01*
X6085331Y7060945D01*
X6076188Y7060945D01*
X5647436Y6846315D02*
G01*
X5645150Y6850887D01*
X5640577Y6855460D01*
X5636006Y6857745D01*
X5627115Y6857745D01*
X5622543Y6855460D01*
X5617972Y6850887D01*
X5615686Y6846315D01*
X5613400Y6839458D01*
X5613400Y6828028D01*
X5615686Y6821170D01*
X5617972Y6816852D01*
X5622543Y6812279D01*
X5627115Y6809994D01*
X5636006Y6809994D01*
X5640577Y6812279D01*
X5645150Y6816852D01*
X5647436Y6821170D01*
X5664708Y6846315D02*
G01*
X5664708Y6848602D01*
X5666993Y6853173D01*
X5669279Y6855460D01*
X5673852Y6857745D01*
X5682995Y6857745D01*
X5687568Y6855460D01*
X5689854Y6853173D01*
X5692140Y6848602D01*
X5692140Y6844029D01*
X5689854Y6839458D01*
X5685281Y6832600D01*
X5662422Y6809994D01*
X5694425Y6809994D01*
X5738875Y6841744D02*
G01*
X5736590Y6834886D01*
X5732018Y6830313D01*
X5725159Y6828028D01*
X5722874Y6828028D01*
X5716015Y6830313D01*
X5711697Y6834886D01*
X5709411Y6841744D01*
X5709411Y6844029D01*
X5711697Y6850887D01*
X5716015Y6855460D01*
X5722874Y6857745D01*
X5725159Y6857745D01*
X5732018Y6855460D01*
X5736590Y6850887D01*
X5738875Y6841744D01*
X5738875Y6830313D01*
X5736590Y6819137D01*
X5732018Y6812279D01*
X5725159Y6809994D01*
X5720588Y6809994D01*
X5713729Y6812279D01*
X5711697Y6816852D01*
X7136384Y5787136D02*
G01*
X7131811Y5784850D01*
X7127240Y5780278D01*
X7124954Y5775705D01*
X7124954Y5766815D01*
X7127240Y5762244D01*
X7131811Y5757671D01*
X7136384Y5755386D01*
X7143241Y5753100D01*
X7154672Y5753100D01*
X7161529Y5755386D01*
X7165847Y5757671D01*
X7170420Y5762244D01*
X7172706Y5766815D01*
X7172706Y5775705D01*
X7170420Y5780278D01*
X7165847Y5784850D01*
X7161529Y5787136D01*
X7124954Y5806694D02*
G01*
X7124954Y5831839D01*
X7143241Y5818123D01*
X7143241Y5824981D01*
X7145527Y5829554D01*
X7147813Y5831839D01*
X7154672Y5834126D01*
X7159243Y5834126D01*
X7165847Y5831839D01*
X7170420Y5827268D01*
X7172706Y5820410D01*
X7172706Y5813552D01*
X7170420Y5806694D01*
X7168134Y5804407D01*
X7163561Y5802121D01*
X7136384Y5851397D02*
G01*
X7134097Y5851397D01*
X7129525Y5853429D01*
X7127240Y5855715D01*
X7124954Y5860287D01*
X7124954Y5869431D01*
X7127240Y5874004D01*
X7129525Y5876289D01*
X7134097Y5878576D01*
X7138670Y5878576D01*
X7143241Y5876289D01*
X7150100Y5871718D01*
X7172706Y5849112D01*
X7172706Y5880862D01*
X6066536Y6681215D02*
G01*
X6064250Y6685787D01*
X6059677Y6690360D01*
X6055106Y6692645D01*
X6046215Y6692645D01*
X6041643Y6690360D01*
X6037072Y6685787D01*
X6034786Y6681215D01*
X6032500Y6674358D01*
X6032500Y6662928D01*
X6034786Y6656070D01*
X6037072Y6651752D01*
X6041643Y6647179D01*
X6046215Y6644894D01*
X6055106Y6644894D01*
X6059677Y6647179D01*
X6064250Y6651752D01*
X6066536Y6656070D01*
X6086093Y6692645D02*
G01*
X6111240Y6692645D01*
X6097524Y6674358D01*
X6104381Y6674358D01*
X6108954Y6672071D01*
X6111240Y6669786D01*
X6113525Y6662928D01*
X6113525Y6658355D01*
X6111240Y6651752D01*
X6106668Y6647179D01*
X6099809Y6644894D01*
X6092952Y6644894D01*
X6086093Y6647179D01*
X6083808Y6649465D01*
X6081522Y6654037D01*
X6151118Y6692645D02*
G01*
X6128511Y6660642D01*
X6162547Y6660642D01*
X6151118Y6692645D02*
G01*
X6151118Y6644894D01*
X6066536Y6808215D02*
G01*
X6064250Y6812787D01*
X6059677Y6817360D01*
X6055106Y6819645D01*
X6046215Y6819645D01*
X6041643Y6817360D01*
X6037072Y6812787D01*
X6034786Y6808215D01*
X6032500Y6801358D01*
X6032500Y6789928D01*
X6034786Y6783070D01*
X6037072Y6778752D01*
X6041643Y6774179D01*
X6046215Y6771894D01*
X6055106Y6771894D01*
X6059677Y6774179D01*
X6064250Y6778752D01*
X6066536Y6783070D01*
X6086093Y6819645D02*
G01*
X6111240Y6819645D01*
X6097524Y6801358D01*
X6104381Y6801358D01*
X6108954Y6799071D01*
X6111240Y6796786D01*
X6113525Y6789928D01*
X6113525Y6785355D01*
X6111240Y6778752D01*
X6106668Y6774179D01*
X6099809Y6771894D01*
X6092952Y6771894D01*
X6086093Y6774179D01*
X6083808Y6776465D01*
X6081522Y6781037D01*
X6155690Y6812787D02*
G01*
X6153404Y6817360D01*
X6146545Y6819645D01*
X6141974Y6819645D01*
X6135115Y6817360D01*
X6130797Y6810502D01*
X6128511Y6799071D01*
X6128511Y6787642D01*
X6130797Y6778752D01*
X6135115Y6774179D01*
X6141974Y6771894D01*
X6144259Y6771894D01*
X6151118Y6774179D01*
X6155690Y6778752D01*
X6157975Y6785355D01*
X6157975Y6787642D01*
X6155690Y6794500D01*
X6151118Y6799071D01*
X6144259Y6801358D01*
X6141974Y6801358D01*
X6135115Y6799071D01*
X6130797Y6794500D01*
X6128511Y6787642D01*
X3094736Y7417815D02*
G01*
X3092450Y7422387D01*
X3087877Y7426960D01*
X3083306Y7429245D01*
X3074415Y7429245D01*
X3069843Y7426960D01*
X3065272Y7422387D01*
X3062986Y7417815D01*
X3060700Y7410958D01*
X3060700Y7399528D01*
X3062986Y7392670D01*
X3065272Y7388352D01*
X3069843Y7383779D01*
X3074415Y7381494D01*
X3083306Y7381494D01*
X3087877Y7383779D01*
X3092450Y7388352D01*
X3094736Y7392670D01*
X3109722Y7420102D02*
G01*
X3114293Y7422387D01*
X3121152Y7429245D01*
X3121152Y7381494D01*
X3165602Y7413244D02*
G01*
X3163315Y7406386D01*
X3158997Y7401813D01*
X3152140Y7399528D01*
X3149854Y7399528D01*
X3142995Y7401813D01*
X3138424Y7406386D01*
X3136138Y7413244D01*
X3136138Y7415529D01*
X3138424Y7422387D01*
X3142995Y7426960D01*
X3149854Y7429245D01*
X3152140Y7429245D01*
X3158997Y7426960D01*
X3163315Y7422387D01*
X3165602Y7413244D01*
X3165602Y7401813D01*
X3163315Y7390637D01*
X3158997Y7383779D01*
X3152140Y7381494D01*
X3147568Y7381494D01*
X3140709Y7383779D01*
X3138424Y7388352D01*
X4838954Y5778500D02*
G01*
X4886706Y5778500D01*
X4838954Y5778500D02*
G01*
X4838954Y5799073D01*
X4841240Y5805678D01*
X4843525Y5807963D01*
X4848097Y5810250D01*
X4852670Y5810250D01*
X4857241Y5807963D01*
X4859527Y5805678D01*
X4861813Y5799073D01*
X4861813Y5778500D01*
X4861813Y5794502D02*
G01*
X4886706Y5810250D01*
X4848097Y5825236D02*
G01*
X4845811Y5829807D01*
X4838954Y5836665D01*
X4886706Y5836665D01*
X4711954Y5765800D02*
G01*
X4759706Y5765800D01*
X4711954Y5765800D02*
G01*
X4711954Y5786373D01*
X4714240Y5792978D01*
X4716525Y5795263D01*
X4721097Y5797550D01*
X4725670Y5797550D01*
X4730241Y5795263D01*
X4732527Y5792978D01*
X4734813Y5786373D01*
X4734813Y5765800D01*
X4734813Y5781802D02*
G01*
X4759706Y5797550D01*
X4723384Y5814821D02*
G01*
X4721097Y5814821D01*
X4716525Y5817107D01*
X4714240Y5819394D01*
X4711954Y5823965D01*
X4711954Y5833110D01*
X4714240Y5837681D01*
X4716525Y5839968D01*
X4721097Y5842254D01*
X4725670Y5842254D01*
X4730241Y5839968D01*
X4737100Y5835395D01*
X4759706Y5812536D01*
X4759706Y5844539D01*
X4038854Y5422900D02*
G01*
X4086606Y5422900D01*
X4038854Y5422900D02*
G01*
X4038854Y5443473D01*
X4041140Y5450078D01*
X4043425Y5452363D01*
X4047997Y5454650D01*
X4052570Y5454650D01*
X4057141Y5452363D01*
X4059427Y5450078D01*
X4061713Y5443473D01*
X4061713Y5422900D01*
X4061713Y5438902D02*
G01*
X4086606Y5454650D01*
X4038854Y5474207D02*
G01*
X4038854Y5499354D01*
X4057141Y5485637D01*
X4057141Y5492495D01*
X4059427Y5497068D01*
X4061713Y5499354D01*
X4068572Y5501639D01*
X4073143Y5501639D01*
X4079747Y5499354D01*
X4084320Y5494781D01*
X4086606Y5487923D01*
X4086606Y5481065D01*
X4084320Y5474207D01*
X4082034Y5471921D01*
X4077461Y5469636D01*
X1587500Y5409945D02*
G01*
X1587500Y5362194D01*
X1587500Y5409945D02*
G01*
X1608073Y5409945D01*
X1614678Y5407660D01*
X1616963Y5405373D01*
X1619250Y5400802D01*
X1619250Y5396229D01*
X1616963Y5391657D01*
X1614678Y5389371D01*
X1608073Y5387086D01*
X1587500Y5387086D01*
X1603502Y5387086D02*
G01*
X1619250Y5362194D01*
X1661668Y5403087D02*
G01*
X1659381Y5407660D01*
X1652523Y5409945D01*
X1647952Y5409945D01*
X1641094Y5407660D01*
X1636521Y5400802D01*
X1634236Y5389371D01*
X1634236Y5377942D01*
X1636521Y5369052D01*
X1641094Y5364479D01*
X1647952Y5362194D01*
X1650237Y5362194D01*
X1657095Y5364479D01*
X1661668Y5369052D01*
X1663954Y5375655D01*
X1663954Y5377942D01*
X1661668Y5384800D01*
X1657095Y5389371D01*
X1650237Y5391657D01*
X1647952Y5391657D01*
X1641094Y5389371D01*
X1636521Y5384800D01*
X1634236Y5377942D01*
X1587500Y7340345D02*
G01*
X1587500Y7292594D01*
X1587500Y7340345D02*
G01*
X1608073Y7340345D01*
X1614678Y7338060D01*
X1616963Y7335773D01*
X1619250Y7331202D01*
X1619250Y7326629D01*
X1616963Y7322058D01*
X1614678Y7319771D01*
X1608073Y7317486D01*
X1587500Y7317486D01*
X1603502Y7317486D02*
G01*
X1619250Y7292594D01*
X1666239Y7340345D02*
G01*
X1643379Y7292594D01*
X1634236Y7340345D02*
G01*
X1666239Y7340345D01*
X4457700Y7429245D02*
G01*
X4457700Y7381494D01*
X4457700Y7429245D02*
G01*
X4478274Y7429245D01*
X4484877Y7426960D01*
X4487163Y7424673D01*
X4489450Y7420102D01*
X4489450Y7415529D01*
X4487163Y7410958D01*
X4484877Y7408671D01*
X4478274Y7406386D01*
X4457700Y7406386D01*
X4473702Y7406386D02*
G01*
X4489450Y7381494D01*
X4515865Y7429245D02*
G01*
X4509008Y7426960D01*
X4506722Y7422387D01*
X4506722Y7417815D01*
X4509008Y7413244D01*
X4513579Y7410958D01*
X4522724Y7408671D01*
X4529581Y7406386D01*
X4534154Y7401813D01*
X4536440Y7397242D01*
X4536440Y7390637D01*
X4534154Y7386065D01*
X4531868Y7383779D01*
X4525009Y7381494D01*
X4515865Y7381494D01*
X4509008Y7383779D01*
X4506722Y7386065D01*
X4504436Y7390637D01*
X4504436Y7397242D01*
X4506722Y7401813D01*
X4511293Y7406386D01*
X4518152Y7408671D01*
X4527295Y7410958D01*
X4531868Y7413244D01*
X4534154Y7417815D01*
X4534154Y7422387D01*
X4531868Y7426960D01*
X4525009Y7429245D01*
X4515865Y7429245D01*
X4521200Y7010145D02*
G01*
X4521200Y6962394D01*
X4521200Y7010145D02*
G01*
X4541774Y7010145D01*
X4548377Y7007860D01*
X4550663Y7005573D01*
X4552950Y7001002D01*
X4552950Y6996429D01*
X4550663Y6991858D01*
X4548377Y6989571D01*
X4541774Y6987286D01*
X4521200Y6987286D01*
X4537202Y6987286D02*
G01*
X4552950Y6962394D01*
X4597654Y6994144D02*
G01*
X4595368Y6987286D01*
X4590795Y6982713D01*
X4583938Y6980428D01*
X4581652Y6980428D01*
X4574793Y6982713D01*
X4570222Y6987286D01*
X4567936Y6994144D01*
X4567936Y6996429D01*
X4570222Y7003287D01*
X4574793Y7007860D01*
X4581652Y7010145D01*
X4583938Y7010145D01*
X4590795Y7007860D01*
X4595368Y7003287D01*
X4597654Y6994144D01*
X4597654Y6982713D01*
X4595368Y6971537D01*
X4590795Y6964679D01*
X4583938Y6962394D01*
X4579365Y6962394D01*
X4572508Y6964679D01*
X4570222Y6969252D01*
X4775454Y6172200D02*
G01*
X4823206Y6172200D01*
X4775454Y6172200D02*
G01*
X4775454Y6192773D01*
X4777740Y6199378D01*
X4780025Y6201663D01*
X4784597Y6203950D01*
X4789170Y6203950D01*
X4793741Y6201663D01*
X4796027Y6199378D01*
X4798313Y6192773D01*
X4798313Y6172200D01*
X4798313Y6188202D02*
G01*
X4823206Y6203950D01*
X4784597Y6218936D02*
G01*
X4782311Y6223507D01*
X4775454Y6230365D01*
X4823206Y6230365D01*
X4775454Y6259068D02*
G01*
X4777740Y6252210D01*
X4784597Y6247637D01*
X4796027Y6245352D01*
X4802886Y6245352D01*
X4814061Y6247637D01*
X4820920Y6252210D01*
X4823206Y6259068D01*
X4823206Y6263639D01*
X4820920Y6270497D01*
X4814061Y6274815D01*
X4802886Y6277102D01*
X4796027Y6277102D01*
X4784597Y6274815D01*
X4777740Y6270497D01*
X4775454Y6263639D01*
X4775454Y6259068D01*
X3276854Y6540500D02*
G01*
X3324606Y6540500D01*
X3276854Y6540500D02*
G01*
X3276854Y6561073D01*
X3279140Y6567678D01*
X3281425Y6569963D01*
X3285997Y6572250D01*
X3290570Y6572250D01*
X3295141Y6569963D01*
X3297427Y6567678D01*
X3299713Y6561073D01*
X3299713Y6540500D01*
X3299713Y6556502D02*
G01*
X3324606Y6572250D01*
X3285997Y6587236D02*
G01*
X3283711Y6591808D01*
X3276854Y6598665D01*
X3324606Y6598665D01*
X3285997Y6613652D02*
G01*
X3283711Y6618223D01*
X3276854Y6625081D01*
X3324606Y6625081D01*
X3302000Y7137145D02*
G01*
X3302000Y7089394D01*
X3302000Y7137145D02*
G01*
X3322574Y7137145D01*
X3329177Y7134860D01*
X3331463Y7132573D01*
X3333750Y7128002D01*
X3333750Y7123429D01*
X3331463Y7118858D01*
X3329177Y7116571D01*
X3322574Y7114286D01*
X3302000Y7114286D01*
X3318002Y7114286D02*
G01*
X3333750Y7089394D01*
X3348736Y7128002D02*
G01*
X3353308Y7130287D01*
X3360165Y7137145D01*
X3360165Y7089394D01*
X3377438Y7125715D02*
G01*
X3377438Y7128002D01*
X3379724Y7132573D01*
X3382009Y7134860D01*
X3386581Y7137145D01*
X3395725Y7137145D01*
X3400297Y7134860D01*
X3402329Y7132573D01*
X3404615Y7128002D01*
X3404615Y7123429D01*
X3402329Y7118858D01*
X3398011Y7112000D01*
X3375152Y7089394D01*
X3406902Y7089394D01*
X3302000Y7289545D02*
G01*
X3302000Y7241794D01*
X3302000Y7289545D02*
G01*
X3322574Y7289545D01*
X3329177Y7287260D01*
X3331463Y7284973D01*
X3333750Y7280402D01*
X3333750Y7275829D01*
X3331463Y7271258D01*
X3329177Y7268971D01*
X3322574Y7266686D01*
X3302000Y7266686D01*
X3318002Y7266686D02*
G01*
X3333750Y7241794D01*
X3348736Y7280402D02*
G01*
X3353308Y7282687D01*
X3360165Y7289545D01*
X3360165Y7241794D01*
X3379724Y7289545D02*
G01*
X3404615Y7289545D01*
X3391154Y7271258D01*
X3398011Y7271258D01*
X3402329Y7268971D01*
X3404615Y7266686D01*
X3406902Y7259828D01*
X3406902Y7255255D01*
X3404615Y7248652D01*
X3400297Y7244079D01*
X3393440Y7241794D01*
X3386581Y7241794D01*
X3379724Y7244079D01*
X3377438Y7246365D01*
X3375152Y7250937D01*
X2819400Y6984745D02*
G01*
X2819400Y6936994D01*
X2819400Y6984745D02*
G01*
X2839974Y6984745D01*
X2846577Y6982460D01*
X2848863Y6980173D01*
X2851150Y6975602D01*
X2851150Y6971029D01*
X2848863Y6966458D01*
X2846577Y6964171D01*
X2839974Y6961886D01*
X2819400Y6961886D01*
X2835402Y6961886D02*
G01*
X2851150Y6936994D01*
X2866136Y6975602D02*
G01*
X2870708Y6977887D01*
X2877565Y6984745D01*
X2877565Y6936994D01*
X2915411Y6984745D02*
G01*
X2892552Y6952742D01*
X2926588Y6952742D01*
X2915411Y6984745D02*
G01*
X2915411Y6936994D01*
X2819400Y6743445D02*
G01*
X2819400Y6695694D01*
X2819400Y6743445D02*
G01*
X2839974Y6743445D01*
X2846577Y6741160D01*
X2848863Y6738873D01*
X2851150Y6734302D01*
X2851150Y6729729D01*
X2848863Y6725158D01*
X2846577Y6722871D01*
X2839974Y6720586D01*
X2819400Y6720586D01*
X2835402Y6720586D02*
G01*
X2851150Y6695694D01*
X2866136Y6734302D02*
G01*
X2870708Y6736587D01*
X2877565Y6743445D01*
X2877565Y6695694D01*
X2919729Y6743445D02*
G01*
X2897124Y6743445D01*
X2894838Y6722871D01*
X2897124Y6725158D01*
X2903981Y6727444D01*
X2910840Y6727444D01*
X2917697Y6725158D01*
X2922015Y6720586D01*
X2924302Y6713728D01*
X2924302Y6709155D01*
X2922015Y6702552D01*
X2917697Y6697979D01*
X2910840Y6695694D01*
X2903981Y6695694D01*
X2897124Y6697979D01*
X2894838Y6700265D01*
X2892552Y6704837D01*
X5473954Y5765800D02*
G01*
X5521706Y5765800D01*
X5473954Y5765800D02*
G01*
X5473954Y5786373D01*
X5476240Y5792978D01*
X5478525Y5795263D01*
X5483097Y5797550D01*
X5487670Y5797550D01*
X5492241Y5795263D01*
X5494527Y5792978D01*
X5496813Y5786373D01*
X5496813Y5765800D01*
X5496813Y5781802D02*
G01*
X5521706Y5797550D01*
X5483097Y5812536D02*
G01*
X5480811Y5817107D01*
X5473954Y5823965D01*
X5521706Y5823965D01*
X5480811Y5866129D02*
G01*
X5476240Y5864097D01*
X5473954Y5857239D01*
X5473954Y5852668D01*
X5476240Y5845810D01*
X5483097Y5841237D01*
X5494527Y5838952D01*
X5505958Y5838952D01*
X5514847Y5841237D01*
X5519420Y5845810D01*
X5521706Y5852668D01*
X5521706Y5854954D01*
X5519420Y5861812D01*
X5514847Y5866129D01*
X5508243Y5868415D01*
X5505958Y5868415D01*
X5499100Y5866129D01*
X5494527Y5861812D01*
X5492241Y5854954D01*
X5492241Y5852668D01*
X5494527Y5845810D01*
X5499100Y5841237D01*
X5505958Y5838952D01*
X5715254Y5918200D02*
G01*
X5763006Y5918200D01*
X5715254Y5918200D02*
G01*
X5715254Y5938773D01*
X5717540Y5945378D01*
X5719825Y5947663D01*
X5724397Y5949950D01*
X5728970Y5949950D01*
X5733541Y5947663D01*
X5735827Y5945378D01*
X5738113Y5938773D01*
X5738113Y5918200D01*
X5738113Y5934202D02*
G01*
X5763006Y5949950D01*
X5726684Y5967221D02*
G01*
X5724397Y5967221D01*
X5719825Y5969507D01*
X5717540Y5971794D01*
X5715254Y5976365D01*
X5715254Y5985510D01*
X5717540Y5990081D01*
X5719825Y5992368D01*
X5724397Y5994654D01*
X5728970Y5994654D01*
X5733541Y5992368D01*
X5740400Y5987795D01*
X5763006Y5964936D01*
X5763006Y5996939D01*
X5715254Y6023102D02*
G01*
X5717540Y6016497D01*
X5722111Y6014212D01*
X5726684Y6014212D01*
X5731256Y6016497D01*
X5733541Y6020815D01*
X5735827Y6029960D01*
X5738113Y6036818D01*
X5742686Y6041389D01*
X5747258Y6043676D01*
X5753861Y6043676D01*
X5758434Y6041389D01*
X5760720Y6039104D01*
X5763006Y6032245D01*
X5763006Y6023102D01*
X5760720Y6016497D01*
X5758434Y6014212D01*
X5753861Y6011926D01*
X5747258Y6011926D01*
X5742686Y6014212D01*
X5738113Y6018529D01*
X5735827Y6025387D01*
X5733541Y6034531D01*
X5731256Y6039104D01*
X5726684Y6041389D01*
X5722111Y6041389D01*
X5717540Y6039104D01*
X5715254Y6032245D01*
X5715254Y6023102D01*
X7418324Y5534405D02*
G01*
X7418324Y5486654D01*
X7418324Y5534405D02*
G01*
X7438897Y5534405D01*
X7445502Y5532120D01*
X7447788Y5529834D01*
X7450074Y5525262D01*
X7450074Y5520689D01*
X7447788Y5516118D01*
X7445502Y5513831D01*
X7438897Y5511545D01*
X7418324Y5511545D01*
X7434325Y5511545D02*
G01*
X7450074Y5486654D01*
X7469631Y5534405D02*
G01*
X7494777Y5534405D01*
X7481061Y5516118D01*
X7487920Y5516118D01*
X7492491Y5513831D01*
X7494777Y5511545D01*
X7497063Y5504687D01*
X7497063Y5500115D01*
X7494777Y5493512D01*
X7490206Y5488939D01*
X7483347Y5486654D01*
X7476490Y5486654D01*
X7469631Y5488939D01*
X7467345Y5491226D01*
X7465059Y5495797D01*
X7525511Y5534405D02*
G01*
X7518654Y5532120D01*
X7514336Y5525262D01*
X7512050Y5513831D01*
X7512050Y5506973D01*
X7514336Y5495797D01*
X7518654Y5488939D01*
X7525511Y5486654D01*
X7530084Y5486654D01*
X7536941Y5488939D01*
X7541513Y5495797D01*
X7543800Y5506973D01*
X7543800Y5513831D01*
X7541513Y5525262D01*
X7536941Y5532120D01*
X7530084Y5534405D01*
X7525511Y5534405D01*
X2959354Y7086600D02*
G01*
X3007106Y7086600D01*
X2959354Y7086600D02*
G01*
X2959354Y7107173D01*
X2961640Y7113778D01*
X2963925Y7116063D01*
X2968497Y7118350D01*
X2973070Y7118350D01*
X2977641Y7116063D01*
X2979927Y7113778D01*
X2982213Y7107173D01*
X2982213Y7086600D01*
X2982213Y7102602D02*
G01*
X3007106Y7118350D01*
X2959354Y7137908D02*
G01*
X2959354Y7163054D01*
X2977641Y7149337D01*
X2977641Y7156195D01*
X2979927Y7160768D01*
X2982213Y7163054D01*
X2989072Y7165339D01*
X2993643Y7165339D01*
X3000247Y7163054D01*
X3004820Y7158481D01*
X3007106Y7151623D01*
X3007106Y7144765D01*
X3004820Y7137908D01*
X3002534Y7135621D01*
X2997961Y7133336D01*
X2968497Y7180326D02*
G01*
X2966211Y7184897D01*
X2959354Y7191502D01*
X3007106Y7191502D01*
X4445000Y7187945D02*
G01*
X4445000Y7140194D01*
X4445000Y7187945D02*
G01*
X4465574Y7187945D01*
X4472177Y7185660D01*
X4474463Y7183373D01*
X4476750Y7178802D01*
X4476750Y7174229D01*
X4474463Y7169658D01*
X4472177Y7167371D01*
X4465574Y7165086D01*
X4445000Y7165086D01*
X4461002Y7165086D02*
G01*
X4476750Y7140194D01*
X4491736Y7178802D02*
G01*
X4496308Y7181087D01*
X4503165Y7187945D01*
X4503165Y7140194D01*
X4549902Y7187945D02*
G01*
X4527295Y7140194D01*
X4518152Y7187945D02*
G01*
X4549902Y7187945D01*
X6447536Y7049515D02*
G01*
X6445250Y7054087D01*
X6440677Y7058660D01*
X6436106Y7060945D01*
X6427215Y7060945D01*
X6422643Y7058660D01*
X6418072Y7054087D01*
X6415786Y7049515D01*
X6413500Y7042658D01*
X6413500Y7031228D01*
X6415786Y7024370D01*
X6418072Y7020052D01*
X6422643Y7015479D01*
X6427215Y7013194D01*
X6436106Y7013194D01*
X6440677Y7015479D01*
X6445250Y7020052D01*
X6447536Y7024370D01*
X6492240Y7044944D02*
G01*
X6489954Y7038086D01*
X6485381Y7033513D01*
X6478524Y7031228D01*
X6476238Y7031228D01*
X6469379Y7033513D01*
X6464808Y7038086D01*
X6462522Y7044944D01*
X6462522Y7047229D01*
X6464808Y7054087D01*
X6469379Y7058660D01*
X6476238Y7060945D01*
X6478524Y7060945D01*
X6485381Y7058660D01*
X6489954Y7054087D01*
X6492240Y7044944D01*
X6492240Y7033513D01*
X6489954Y7022337D01*
X6485381Y7015479D01*
X6478524Y7013194D01*
X6473952Y7013194D01*
X6467093Y7015479D01*
X6464808Y7020052D01*
X3183636Y5995415D02*
G01*
X3181350Y5999987D01*
X3176777Y6004560D01*
X3172206Y6006845D01*
X3163315Y6006845D01*
X3158743Y6004560D01*
X3154172Y5999987D01*
X3151886Y5995415D01*
X3149600Y5988557D01*
X3149600Y5977128D01*
X3151886Y5970270D01*
X3154172Y5965952D01*
X3158743Y5961379D01*
X3163315Y5959094D01*
X3172206Y5959094D01*
X3176777Y5961379D01*
X3181350Y5965952D01*
X3183636Y5970270D01*
X3198622Y5997702D02*
G01*
X3203193Y5999987D01*
X3210052Y6006845D01*
X3210052Y5959094D01*
X3247897Y6006845D02*
G01*
X3225038Y5974842D01*
X3259074Y5974842D01*
X3247897Y6006845D02*
G01*
X3247897Y5959094D01*
X5003800Y7467345D02*
G01*
X5035550Y7419594D01*
X5035550Y7467345D02*
G01*
X5003800Y7419594D01*
X5052822Y7455915D02*
G01*
X5052822Y7458202D01*
X5055108Y7462773D01*
X5057393Y7465060D01*
X5061965Y7467345D01*
X5071109Y7467345D01*
X5075681Y7465060D01*
X5077968Y7462773D01*
X5080254Y7458202D01*
X5080254Y7453629D01*
X5077968Y7449058D01*
X5073395Y7442200D01*
X5050536Y7419594D01*
X5082540Y7419594D01*
X2421636Y5436615D02*
G01*
X2419350Y5441187D01*
X2414777Y5445760D01*
X2410206Y5448045D01*
X2401315Y5448045D01*
X2396743Y5445760D01*
X2392172Y5441187D01*
X2389886Y5436615D01*
X2387600Y5429757D01*
X2387600Y5418328D01*
X2389886Y5411470D01*
X2392172Y5407152D01*
X2396743Y5402579D01*
X2401315Y5400294D01*
X2410206Y5400294D01*
X2414777Y5402579D01*
X2419350Y5407152D01*
X2421636Y5411470D01*
X2468625Y5448045D02*
G01*
X2445765Y5400294D01*
X2436622Y5448045D02*
G01*
X2468625Y5448045D01*
X7872984Y5406136D02*
G01*
X7868411Y5403850D01*
X7863840Y5399278D01*
X7861554Y5394705D01*
X7861554Y5385815D01*
X7863840Y5381244D01*
X7868411Y5376671D01*
X7872984Y5374386D01*
X7879841Y5372100D01*
X7891272Y5372100D01*
X7898129Y5374386D01*
X7902447Y5376671D01*
X7907020Y5381244D01*
X7909306Y5385815D01*
X7909306Y5394705D01*
X7907020Y5399278D01*
X7902447Y5403850D01*
X7898129Y5406136D01*
X7861554Y5425694D02*
G01*
X7861554Y5450839D01*
X7879841Y5437123D01*
X7879841Y5443981D01*
X7882127Y5448554D01*
X7884413Y5450839D01*
X7891272Y5453126D01*
X7895843Y5453126D01*
X7902447Y5450839D01*
X7907020Y5446268D01*
X7909306Y5439410D01*
X7909306Y5432552D01*
X7907020Y5425694D01*
X7904734Y5423407D01*
X7900161Y5421121D01*
X7861554Y5479287D02*
G01*
X7863840Y5472429D01*
X7868411Y5470397D01*
X7872984Y5470397D01*
X7877556Y5472429D01*
X7879841Y5477002D01*
X7882127Y5486145D01*
X7884413Y5493004D01*
X7888986Y5497576D01*
X7893558Y5499862D01*
X7900161Y5499862D01*
X7904734Y5497576D01*
X7907020Y5495289D01*
X7909306Y5488431D01*
X7909306Y5479287D01*
X7907020Y5472429D01*
X7904734Y5470397D01*
X7900161Y5468112D01*
X7893558Y5468112D01*
X7888986Y5470397D01*
X7884413Y5474715D01*
X7882127Y5481573D01*
X7879841Y5490718D01*
X7877556Y5495289D01*
X7872984Y5497576D01*
X7868411Y5497576D01*
X7863840Y5495289D01*
X7861554Y5488431D01*
X7861554Y5479287D01*
X7476236Y7049515D02*
G01*
X7473950Y7054087D01*
X7469377Y7058660D01*
X7464806Y7060945D01*
X7455915Y7060945D01*
X7451343Y7058660D01*
X7446772Y7054087D01*
X7444486Y7049515D01*
X7442200Y7042658D01*
X7442200Y7031228D01*
X7444486Y7024370D01*
X7446772Y7020052D01*
X7451343Y7015479D01*
X7455915Y7013194D01*
X7464806Y7013194D01*
X7469377Y7015479D01*
X7473950Y7020052D01*
X7476236Y7024370D01*
X7491222Y7060945D02*
G01*
X7491222Y7013194D01*
X7491222Y7060945D02*
G01*
X7523225Y7013194D01*
X7523225Y7060945D02*
G01*
X7523225Y7013194D01*
X7538211Y7051802D02*
G01*
X7542529Y7054087D01*
X7549388Y7060945D01*
X7549388Y7013194D01*
X3924274Y7454569D02*
G01*
X3924274Y7420533D01*
X3926560Y7413675D01*
X3931132Y7409103D01*
X3937990Y7406817D01*
X3942562Y7406817D01*
X3949420Y7409103D01*
X3953738Y7413675D01*
X3956024Y7420533D01*
X3956024Y7454569D01*
X3971010Y7445425D02*
G01*
X3975582Y7447711D01*
X3982440Y7454569D01*
X3982440Y7406817D01*
X4876800Y6502145D02*
G01*
X4876800Y6467855D01*
X4879086Y6461252D01*
X4883658Y6456679D01*
X4890515Y6454394D01*
X4895088Y6454394D01*
X4901691Y6456679D01*
X4906263Y6461252D01*
X4908550Y6467855D01*
X4908550Y6502145D01*
X4925822Y6490715D02*
G01*
X4925822Y6493002D01*
X4928108Y6497573D01*
X4930393Y6499860D01*
X4934965Y6502145D01*
X4944109Y6502145D01*
X4948681Y6499860D01*
X4950968Y6497573D01*
X4953254Y6493002D01*
X4953254Y6488429D01*
X4950968Y6483857D01*
X4946395Y6477000D01*
X4923536Y6454394D01*
X4955540Y6454394D01*
X7531100Y6845045D02*
G01*
X7531100Y6810755D01*
X7533386Y6804152D01*
X7537958Y6799579D01*
X7544815Y6797294D01*
X7549388Y6797294D01*
X7555991Y6799579D01*
X7560563Y6804152D01*
X7562850Y6810755D01*
X7562850Y6845045D01*
X7609840Y6838187D02*
G01*
X7605268Y6842760D01*
X7598409Y6845045D01*
X7589265Y6845045D01*
X7582408Y6842760D01*
X7577836Y6838187D01*
X7577836Y6833615D01*
X7580122Y6829044D01*
X7582408Y6826758D01*
X7586979Y6824471D01*
X7600695Y6819900D01*
X7605268Y6817613D01*
X7607554Y6815328D01*
X7609840Y6810755D01*
X7609840Y6804152D01*
X7605268Y6799579D01*
X7598409Y6797294D01*
X7589265Y6797294D01*
X7582408Y6799579D01*
X7577836Y6804152D01*
X7624825Y6845045D02*
G01*
X7624825Y6797294D01*
X7624825Y6845045D02*
G01*
X7645145Y6845045D01*
X7652004Y6842760D01*
X7654290Y6840473D01*
X7656575Y6835902D01*
X7656575Y6831329D01*
X7654290Y6826758D01*
X7652004Y6824471D01*
X7645145Y6822186D01*
X7624825Y6822186D02*
G01*
X7645145Y6822186D01*
X7652004Y6819900D01*
X7654290Y6817613D01*
X7656575Y6813042D01*
X7656575Y6806437D01*
X7654290Y6801865D01*
X7652004Y6799579D01*
X7645145Y6797294D01*
X7624825Y6797294D01*
X7671561Y6835902D02*
G01*
X7676134Y6838187D01*
X7682991Y6845045D01*
X7682991Y6797294D01*
X4635500Y6400545D02*
G01*
X4667250Y6352794D01*
X4667250Y6400545D02*
G01*
X4635500Y6352794D01*
X4682236Y6391402D02*
G01*
X4686808Y6393687D01*
X4693665Y6400545D01*
X4693665Y6352794D01*
G36*
X6322618Y7331608D02*
G01*
X6322618Y7232599D01*
X6197600Y7233615D01*
X6197600Y7322616D01*
X6175603Y7317587D01*
X6161582Y7306614D01*
X6146596Y7289596D01*
X6139586Y7271613D01*
X6133592Y7251598D01*
X6127597Y7230618D01*
X6125616Y7214616D01*
X6395618Y7213600D01*
X6389624Y7238593D01*
X6379616Y7265619D01*
X6366611Y7283602D01*
X6359601Y7298588D01*
X6332626Y7323581D01*
G37*
G36*
X3454400Y6230518D02*
G01*
X3429406Y6224524D01*
X3402380Y6214516D01*
X3384397Y6201511D01*
X3369411Y6194501D01*
X3344418Y6167526D01*
X3336391Y6157518D01*
X3435400Y6157518D01*
X3434384Y6032500D01*
X3345383Y6032500D01*
X3350412Y6010503D01*
X3361385Y5996482D01*
X3378403Y5981496D01*
X3396386Y5974486D01*
X3416401Y5968492D01*
X3437382Y5962497D01*
X3453384Y5960516D01*
G37*
X6657578Y6630339D02*
G01*
X6585775Y6630339D01*
X6585775Y6730060D01*
X6657578Y6730060D01*
X6702821Y6630339D02*
G01*
X6774624Y6630339D01*
X6774624Y6730060D01*
X6702821Y6730060D01*
X6702821Y6882460D02*
G01*
X6774624Y6882460D01*
X6774624Y6782739D01*
X6702821Y6782739D01*
X6657578Y6882460D02*
G01*
X6585775Y6882460D01*
X6585775Y6782739D01*
X6657578Y6782739D01*
X6541439Y6578630D02*
G01*
X6541439Y6499621D01*
X6641160Y6499621D02*
G01*
X6641160Y6578630D01*
X6625920Y6593870D02*
G01*
X6556679Y6593870D01*
X6541439Y6375369D02*
G01*
X6541439Y6454378D01*
X6641160Y6454378D02*
G01*
X6641160Y6375369D01*
X6625920Y6360129D02*
G01*
X6556679Y6360129D01*
D13*
X4051531Y6148435D02*
G01*
X3975331Y6148435D01*
X3798529Y6148435D02*
G01*
X3874729Y6148435D01*
X3798529Y6016315D02*
G01*
X3874729Y6016315D01*
D11*
X3798529Y6016315D02*
G01*
X3783299Y6031557D01*
X3783299Y6133200D01*
X3798529Y6148435D01*
D13*
X4051531Y6016315D02*
G01*
X3975331Y6016315D01*
D11*
X4051531Y6148435D02*
G01*
X4066773Y6133200D01*
X4066773Y6031557D01*
X4051531Y6016315D01*
D14*
X1818101Y7091385D02*
G01*
X588098Y7091385D01*
X1818101Y5481386D02*
G01*
X588098Y5481386D01*
X2748097Y7091385D02*
G01*
X2148098Y7091385D01*
X2748066Y5481350D02*
G01*
X2148065Y5481350D01*
X2748097Y7091385D02*
G01*
X2748097Y5481386D01*
X588098Y7091385D02*
G01*
X588098Y5481386D01*
D11*
X6973239Y6055121D02*
G01*
X6973239Y6126924D01*
X7072960Y6126924D01*
X7072960Y6055121D01*
X6973239Y6009878D02*
G01*
X6973239Y5938075D01*
X7072960Y5938075D01*
X7072960Y6009878D01*
X5978921Y6884339D02*
G01*
X6057930Y6884339D01*
X6073170Y6899579D01*
X6073170Y6968820D01*
X6057930Y6984060D01*
X5978921Y6984060D01*
X5933678Y6884339D02*
G01*
X5854669Y6884339D01*
X5839429Y6899579D01*
X5839429Y6968820D01*
X5854669Y6984060D01*
X5933678Y6984060D01*
D13*
X4762332Y6843664D02*
G01*
X4838532Y6843664D01*
X5015334Y6843664D02*
G01*
X4939134Y6843664D01*
X5015334Y6975784D02*
G01*
X4939134Y6975784D01*
D11*
X5015334Y6975784D02*
G01*
X5030563Y6960542D01*
X5030563Y6858899D01*
X5015334Y6843664D01*
D13*
X4762332Y6975784D02*
G01*
X4838532Y6975784D01*
D11*
X4762332Y6843664D02*
G01*
X4747089Y6858899D01*
X4747089Y6960542D01*
X4762332Y6975784D01*
X6258321Y6107760D02*
G01*
X6330124Y6107760D01*
X6330124Y6008039D01*
X6258321Y6008039D01*
X6213078Y6107760D02*
G01*
X6141275Y6107760D01*
X6141275Y6008039D01*
X6213078Y6008039D01*
D14*
X6376890Y6287262D02*
G01*
X6096982Y6287262D01*
X6096982Y6287262D02*
G01*
X6096982Y6387337D01*
X6376890Y6387337D01*
X6376890Y6287262D01*
D11*
X6945960Y5930869D02*
G01*
X6945960Y6009878D01*
X6846239Y6009878D02*
G01*
X6846239Y5930869D01*
X6861479Y5915629D02*
G01*
X6930720Y5915629D01*
X6945960Y6134130D02*
G01*
X6945960Y6055121D01*
X6846239Y6055121D02*
G01*
X6846239Y6134130D01*
X6861479Y6149370D02*
G01*
X6930720Y6149370D01*
D12*
X6433299Y5664885D02*
G01*
X6450683Y5664885D01*
X6433299Y5815914D02*
G01*
X6450683Y5815914D01*
X6433299Y5815914D02*
G01*
X6433299Y5827019D01*
X6450683Y5827019D01*
X6450683Y5653780D02*
G01*
X6433299Y5653780D01*
X6433299Y5664885D01*
X6450683Y5664885D02*
G01*
X6450683Y5653780D01*
X6450683Y5827019D02*
G01*
X6450683Y5815914D01*
X6508587Y5827019D02*
G01*
X6508587Y5653780D01*
D11*
X6494299Y5827019D02*
G01*
X6494299Y5653780D01*
X6450683Y5827019D02*
G01*
X6731916Y5827019D01*
X6731916Y5827019D02*
G01*
X6731916Y5810219D01*
X6450683Y5653780D02*
G01*
X6731916Y5653780D01*
X6731916Y5653780D02*
G01*
X6731916Y5670580D01*
D15*
X6540500Y6204562D02*
G01*
X6540500Y6210300D01*
X6705600Y6210300D01*
X6540500Y6014567D02*
G01*
X6540500Y6101232D01*
X6705600Y6006233D02*
G01*
X6705600Y5905500D01*
X6540500Y5905500D01*
X6540500Y5911240D01*
X6705600Y6210300D02*
G01*
X6705600Y6109566D01*
D11*
X6575821Y6336360D02*
G01*
X6647624Y6336360D01*
X6647624Y6236639D01*
X6575821Y6236639D01*
X6530578Y6336360D02*
G01*
X6458775Y6336360D01*
X6458775Y6236639D01*
X6530578Y6236639D01*
X7124920Y6473220D02*
G01*
X7124920Y6302979D01*
X6819679Y6473220D02*
G01*
X6819679Y6302979D01*
X6924659Y6302979D02*
G01*
X7019940Y6302979D01*
X6362920Y5464578D02*
G01*
X6362920Y5609821D01*
X6259758Y5609821D01*
X6057679Y5464578D02*
G01*
X6057679Y5609821D01*
X6160841Y5609821D01*
X6255839Y5464578D02*
G01*
X6164760Y5464578D01*
X6238478Y5220639D02*
G01*
X6166675Y5220639D01*
X6166675Y5320360D01*
X6238478Y5320360D01*
X6283721Y5220639D02*
G01*
X6355524Y5220639D01*
X6355524Y5320360D01*
X6283721Y5320360D01*
X5091760Y7175469D02*
G01*
X5091760Y7254478D01*
X4992039Y7254478D02*
G01*
X4992039Y7175469D01*
X5007279Y7160229D02*
G01*
X5076520Y7160229D01*
X5091760Y7378730D02*
G01*
X5091760Y7299721D01*
X4992039Y7299721D02*
G01*
X4992039Y7378730D01*
X5007279Y7393970D02*
G01*
X5076520Y7393970D01*
X5156169Y7049439D02*
G01*
X5235178Y7049439D01*
X5235178Y7149160D02*
G01*
X5156169Y7149160D01*
X5140929Y7133920D02*
G01*
X5140929Y7064679D01*
X5359430Y7049439D02*
G01*
X5280421Y7049439D01*
X5280421Y7149160D02*
G01*
X5359430Y7149160D01*
X5374670Y7133920D02*
G01*
X5374670Y7064679D01*
X5765830Y5866460D02*
G01*
X5686821Y5866460D01*
X5686821Y5766739D02*
G01*
X5765830Y5766739D01*
X5781070Y5781979D02*
G01*
X5781070Y5851220D01*
X5562569Y5866460D02*
G01*
X5641578Y5866460D01*
X5641578Y5766739D02*
G01*
X5562569Y5766739D01*
X5547329Y5781979D02*
G01*
X5547329Y5851220D01*
X5206969Y5804839D02*
G01*
X5285978Y5804839D01*
X5285978Y5904560D02*
G01*
X5206969Y5904560D01*
X5191729Y5889320D02*
G01*
X5191729Y5820079D01*
X5410230Y5804839D02*
G01*
X5331221Y5804839D01*
X5331221Y5904560D02*
G01*
X5410230Y5904560D01*
X5425470Y5889320D02*
G01*
X5425470Y5820079D01*
X5167960Y5841969D02*
G01*
X5167960Y5920978D01*
X5068239Y5920978D02*
G01*
X5068239Y5841969D01*
X5083479Y5826729D02*
G01*
X5152720Y5826729D01*
X5167960Y6045230D02*
G01*
X5167960Y5966221D01*
X5068239Y5966221D02*
G01*
X5068239Y6045230D01*
X5083479Y6060470D02*
G01*
X5152720Y6060470D01*
X5040960Y5841969D02*
G01*
X5040960Y5920978D01*
X4941239Y5920978D02*
G01*
X4941239Y5841969D01*
X4956479Y5826729D02*
G01*
X5025720Y5826729D01*
X5040960Y6045230D02*
G01*
X5040960Y5966221D01*
X4941239Y5966221D02*
G01*
X4941239Y6045230D01*
X4956479Y6060470D02*
G01*
X5025720Y6060470D01*
X3999560Y5778469D02*
G01*
X3999560Y5857478D01*
X3899839Y5857478D02*
G01*
X3899839Y5778469D01*
X3915079Y5763229D02*
G01*
X3984320Y5763229D01*
X3999560Y5981730D02*
G01*
X3999560Y5902721D01*
X3899839Y5902721D02*
G01*
X3899839Y5981730D01*
X3915079Y5996970D02*
G01*
X3984320Y5996970D01*
X3885260Y5778469D02*
G01*
X3885260Y5857478D01*
X3785539Y5857478D02*
G01*
X3785539Y5778469D01*
X3800779Y5763229D02*
G01*
X3870020Y5763229D01*
X3885260Y5981730D02*
G01*
X3885260Y5902721D01*
X3785539Y5902721D02*
G01*
X3785539Y5981730D01*
X3800779Y5996970D02*
G01*
X3870020Y5996970D01*
X4217339Y6400830D02*
G01*
X4217339Y6321821D01*
X4317060Y6321821D02*
G01*
X4317060Y6400830D01*
X4301820Y6416070D02*
G01*
X4232579Y6416070D01*
X4217339Y6197569D02*
G01*
X4217339Y6276578D01*
X4317060Y6276578D02*
G01*
X4317060Y6197569D01*
X4301820Y6182329D02*
G01*
X4232579Y6182329D01*
X3378169Y6376339D02*
G01*
X3457178Y6376339D01*
X3457178Y6476060D02*
G01*
X3378169Y6476060D01*
X3362929Y6460820D02*
G01*
X3362929Y6391579D01*
X3581430Y6376339D02*
G01*
X3502421Y6376339D01*
X3502421Y6476060D02*
G01*
X3581430Y6476060D01*
X3596670Y6460820D02*
G01*
X3596670Y6391579D01*
X3873530Y6298260D02*
G01*
X3794521Y6298260D01*
X3794521Y6198539D02*
G01*
X3873530Y6198539D01*
X3888770Y6213779D02*
G01*
X3888770Y6283020D01*
X3670269Y6298260D02*
G01*
X3749278Y6298260D01*
X3749278Y6198539D02*
G01*
X3670269Y6198539D01*
X3655029Y6213779D02*
G01*
X3655029Y6283020D01*
X4584730Y6069660D02*
G01*
X4505721Y6069660D01*
X4505721Y5969939D02*
G01*
X4584730Y5969939D01*
X4599970Y5985179D02*
G01*
X4599970Y6054420D01*
X4381469Y6069660D02*
G01*
X4460478Y6069660D01*
X4460478Y5969939D02*
G01*
X4381469Y5969939D01*
X4366229Y5985179D02*
G01*
X4366229Y6054420D01*
X4381469Y6427139D02*
G01*
X4460478Y6427139D01*
X4460478Y6526860D02*
G01*
X4381469Y6526860D01*
X4366229Y6511620D02*
G01*
X4366229Y6442379D01*
X4584730Y6427139D02*
G01*
X4505721Y6427139D01*
X4505721Y6526860D02*
G01*
X4584730Y6526860D01*
X4599970Y6511620D02*
G01*
X4599970Y6442379D01*
X3352769Y5804839D02*
G01*
X3431778Y5804839D01*
X3431778Y5904560D02*
G01*
X3352769Y5904560D01*
X3337529Y5889320D02*
G01*
X3337529Y5820079D01*
X3556030Y5804839D02*
G01*
X3477021Y5804839D01*
X3477021Y5904560D02*
G01*
X3556030Y5904560D01*
X3571270Y5889320D02*
G01*
X3571270Y5820079D01*
X3352769Y5690539D02*
G01*
X3431778Y5690539D01*
X3431778Y5790260D02*
G01*
X3352769Y5790260D01*
X3337529Y5775020D02*
G01*
X3337529Y5705779D01*
X3556030Y5690539D02*
G01*
X3477021Y5690539D01*
X3477021Y5790260D02*
G01*
X3556030Y5790260D01*
X3571270Y5775020D02*
G01*
X3571270Y5705779D01*
X3352769Y5576239D02*
G01*
X3431778Y5576239D01*
X3431778Y5675960D02*
G01*
X3352769Y5675960D01*
X3337529Y5660720D02*
G01*
X3337529Y5591479D01*
X3556030Y5576239D02*
G01*
X3477021Y5576239D01*
X3477021Y5675960D02*
G01*
X3556030Y5675960D01*
X3571270Y5660720D02*
G01*
X3571270Y5591479D01*
X3352769Y5461939D02*
G01*
X3431778Y5461939D01*
X3431778Y5561660D02*
G01*
X3352769Y5561660D01*
X3337529Y5546420D02*
G01*
X3337529Y5477179D01*
X3556030Y5461939D02*
G01*
X3477021Y5461939D01*
X3477021Y5561660D02*
G01*
X3556030Y5561660D01*
X3571270Y5546420D02*
G01*
X3571270Y5477179D01*
X2933669Y6554139D02*
G01*
X3012678Y6554139D01*
X3012678Y6653860D02*
G01*
X2933669Y6653860D01*
X2918429Y6638620D02*
G01*
X2918429Y6569379D01*
X3136930Y6554139D02*
G01*
X3057921Y6554139D01*
X3057921Y6653860D02*
G01*
X3136930Y6653860D01*
X3152170Y6638620D02*
G01*
X3152170Y6569379D01*
X2933669Y6795439D02*
G01*
X3012678Y6795439D01*
X3012678Y6895160D02*
G01*
X2933669Y6895160D01*
X2918429Y6879920D02*
G01*
X2918429Y6810679D01*
X3136930Y6795439D02*
G01*
X3057921Y6795439D01*
X3057921Y6895160D02*
G01*
X3136930Y6895160D01*
X3152170Y6879920D02*
G01*
X3152170Y6810679D01*
X2933669Y6427139D02*
G01*
X3012678Y6427139D01*
X3012678Y6526860D02*
G01*
X2933669Y6526860D01*
X2918429Y6511620D02*
G01*
X2918429Y6442379D01*
X3136930Y6427139D02*
G01*
X3057921Y6427139D01*
X3057921Y6526860D02*
G01*
X3136930Y6526860D01*
X3152170Y6511620D02*
G01*
X3152170Y6442379D01*
X5410230Y6031560D02*
G01*
X5331221Y6031560D01*
X5331221Y5931839D02*
G01*
X5410230Y5931839D01*
X5425470Y5947079D02*
G01*
X5425470Y6016320D01*
X5206969Y6031560D02*
G01*
X5285978Y6031560D01*
X5285978Y5931839D02*
G01*
X5206969Y5931839D01*
X5191729Y5947079D02*
G01*
X5191729Y6016320D01*
X5156169Y6935139D02*
G01*
X5235178Y6935139D01*
X5235178Y7034860D02*
G01*
X5156169Y7034860D01*
X5140929Y7019620D02*
G01*
X5140929Y6950379D01*
X5359430Y6935139D02*
G01*
X5280421Y6935139D01*
X5280421Y7034860D02*
G01*
X5359430Y7034860D01*
X5374670Y7019620D02*
G01*
X5374670Y6950379D01*
X4991130Y6704660D02*
G01*
X4912121Y6704660D01*
X4912121Y6604939D02*
G01*
X4991130Y6604939D01*
X5006370Y6620179D02*
G01*
X5006370Y6689420D01*
X4787869Y6704660D02*
G01*
X4866878Y6704660D01*
X4866878Y6604939D02*
G01*
X4787869Y6604939D01*
X4772629Y6620179D02*
G01*
X4772629Y6689420D01*
X4991130Y6818960D02*
G01*
X4912121Y6818960D01*
X4912121Y6719239D02*
G01*
X4991130Y6719239D01*
X5006370Y6734479D02*
G01*
X5006370Y6803720D01*
X4787869Y6818960D02*
G01*
X4866878Y6818960D01*
X4866878Y6719239D02*
G01*
X4787869Y6719239D01*
X4772629Y6734479D02*
G01*
X4772629Y6803720D01*
X4978430Y7098360D02*
G01*
X4899421Y7098360D01*
X4899421Y6998639D02*
G01*
X4978430Y6998639D01*
X4993670Y7013879D02*
G01*
X4993670Y7083120D01*
X4775169Y7098360D02*
G01*
X4854178Y7098360D01*
X4854178Y6998639D02*
G01*
X4775169Y6998639D01*
X4759929Y7013879D02*
G01*
X4759929Y7083120D01*
X5930930Y7111060D02*
G01*
X5851921Y7111060D01*
X5851921Y7011339D02*
G01*
X5930930Y7011339D01*
X5946170Y7026579D02*
G01*
X5946170Y7095820D01*
X5727669Y7111060D02*
G01*
X5806678Y7111060D01*
X5806678Y7011339D02*
G01*
X5727669Y7011339D01*
X5712429Y7026579D02*
G01*
X5712429Y7095820D01*
X5601639Y7099330D02*
G01*
X5601639Y7020321D01*
X5701360Y7020321D02*
G01*
X5701360Y7099330D01*
X5686120Y7114570D02*
G01*
X5616879Y7114570D01*
X5601639Y6896069D02*
G01*
X5601639Y6975078D01*
X5701360Y6975078D02*
G01*
X5701360Y6896069D01*
X5686120Y6880829D02*
G01*
X5616879Y6880829D01*
X7100239Y6134130D02*
G01*
X7100239Y6055121D01*
X7199960Y6055121D02*
G01*
X7199960Y6134130D01*
X7184720Y6149370D02*
G01*
X7115479Y6149370D01*
X7100239Y5930869D02*
G01*
X7100239Y6009878D01*
X7199960Y6009878D02*
G01*
X7199960Y5930869D01*
X7184720Y5915629D02*
G01*
X7115479Y5915629D01*
X6197569Y6617639D02*
G01*
X6276578Y6617639D01*
X6276578Y6717360D02*
G01*
X6197569Y6717360D01*
X6182329Y6702120D02*
G01*
X6182329Y6632879D01*
X6400830Y6617639D02*
G01*
X6321821Y6617639D01*
X6321821Y6717360D02*
G01*
X6400830Y6717360D01*
X6416070Y6702120D02*
G01*
X6416070Y6632879D01*
X6197569Y6744639D02*
G01*
X6276578Y6744639D01*
X6276578Y6844360D02*
G01*
X6197569Y6844360D01*
X6182329Y6829120D02*
G01*
X6182329Y6759879D01*
X6400830Y6744639D02*
G01*
X6321821Y6744639D01*
X6321821Y6844360D02*
G01*
X6400830Y6844360D01*
X6416070Y6829120D02*
G01*
X6416070Y6759879D01*
X3200369Y7354239D02*
G01*
X3279378Y7354239D01*
X3279378Y7453960D02*
G01*
X3200369Y7453960D01*
X3185129Y7438720D02*
G01*
X3185129Y7369479D01*
X3403630Y7354239D02*
G01*
X3324621Y7354239D01*
X3324621Y7453960D02*
G01*
X3403630Y7453960D01*
X3418870Y7438720D02*
G01*
X3418870Y7369479D01*
X4814239Y5978921D02*
G01*
X4814239Y6050724D01*
X4913960Y6050724D01*
X4913960Y5978921D01*
X4814239Y5933678D02*
G01*
X4814239Y5861875D01*
X4913960Y5861875D01*
X4913960Y5933678D01*
X4687239Y5978921D02*
G01*
X4687239Y6050724D01*
X4786960Y6050724D01*
X4786960Y5978921D01*
X4687239Y5933678D02*
G01*
X4687239Y5861875D01*
X4786960Y5861875D01*
X4786960Y5933678D01*
X4014139Y5902721D02*
G01*
X4014139Y5974524D01*
X4113860Y5974524D01*
X4113860Y5902721D01*
X4014139Y5857478D02*
G01*
X4014139Y5785675D01*
X4113860Y5785675D01*
X4113860Y5857478D01*
X1590278Y5233339D02*
G01*
X1518475Y5233339D01*
X1518475Y5333060D01*
X1590278Y5333060D01*
X1635521Y5233339D02*
G01*
X1707324Y5233339D01*
X1707324Y5333060D01*
X1635521Y5333060D01*
X1590278Y7163739D02*
G01*
X1518475Y7163739D01*
X1518475Y7263460D01*
X1590278Y7263460D01*
X1635521Y7163739D02*
G01*
X1707324Y7163739D01*
X1707324Y7263460D01*
X1635521Y7263460D01*
X4308078Y7354239D02*
G01*
X4236275Y7354239D01*
X4236275Y7453960D01*
X4308078Y7453960D01*
X4353321Y7354239D02*
G01*
X4425124Y7354239D01*
X4425124Y7453960D01*
X4353321Y7453960D01*
X4556521Y6933260D02*
G01*
X4628324Y6933260D01*
X4628324Y6833539D01*
X4556521Y6833539D01*
X4511278Y6933260D02*
G01*
X4439475Y6933260D01*
X4439475Y6833539D01*
X4511278Y6833539D01*
X4748860Y6200378D02*
G01*
X4748860Y6128575D01*
X4649139Y6128575D01*
X4649139Y6200378D01*
X4748860Y6245621D02*
G01*
X4748860Y6317424D01*
X4649139Y6317424D01*
X4649139Y6245621D01*
X3351860Y6733778D02*
G01*
X3351860Y6661975D01*
X3252139Y6661975D01*
X3252139Y6733778D01*
X3351860Y6779021D02*
G01*
X3351860Y6850824D01*
X3252139Y6850824D01*
X3252139Y6779021D01*
X3165078Y7062139D02*
G01*
X3093275Y7062139D01*
X3093275Y7161860D01*
X3165078Y7161860D01*
X3210321Y7062139D02*
G01*
X3282124Y7062139D01*
X3282124Y7161860D01*
X3210321Y7161860D01*
X3165078Y7214539D02*
G01*
X3093275Y7214539D01*
X3093275Y7314260D01*
X3165078Y7314260D01*
X3210321Y7214539D02*
G01*
X3282124Y7214539D01*
X3282124Y7314260D01*
X3210321Y7314260D01*
X3070621Y7009460D02*
G01*
X3142424Y7009460D01*
X3142424Y6909739D01*
X3070621Y6909739D01*
X3025378Y7009460D02*
G01*
X2953575Y7009460D01*
X2953575Y6909739D01*
X3025378Y6909739D01*
X3070621Y6768160D02*
G01*
X3142424Y6768160D01*
X3142424Y6668439D01*
X3070621Y6668439D01*
X3025378Y6768160D02*
G01*
X2953575Y6768160D01*
X2953575Y6668439D01*
X3025378Y6668439D01*
X5461939Y6004321D02*
G01*
X5461939Y6076124D01*
X5561660Y6076124D01*
X5561660Y6004321D01*
X5461939Y5959078D02*
G01*
X5461939Y5887275D01*
X5561660Y5887275D01*
X5561660Y5959078D01*
X5588939Y6004321D02*
G01*
X5588939Y6076124D01*
X5688660Y6076124D01*
X5688660Y6004321D01*
X5588939Y5959078D02*
G01*
X5588939Y5887275D01*
X5688660Y5887275D01*
X5688660Y5959078D01*
X7312421Y5561660D02*
G01*
X7384224Y5561660D01*
X7384224Y5461939D01*
X7312421Y5461939D01*
X7267178Y5561660D02*
G01*
X7195375Y5561660D01*
X7195375Y5461939D01*
X7267178Y5461939D01*
X3034360Y7292578D02*
G01*
X3034360Y7220775D01*
X2934639Y7220775D01*
X2934639Y7292578D01*
X3034360Y7337821D02*
G01*
X3034360Y7409624D01*
X2934639Y7409624D01*
X2934639Y7337821D01*
X4422378Y7214539D02*
G01*
X4350575Y7214539D01*
X4350575Y7314260D01*
X4422378Y7314260D01*
X4467621Y7214539D02*
G01*
X4539424Y7214539D01*
X4539424Y7314260D01*
X4467621Y7314260D01*
D14*
X6096604Y7093597D02*
G01*
X6096604Y7378598D01*
X6426606Y7093597D02*
G01*
X6426606Y7378598D01*
X6096604Y7378598D02*
G01*
X6197981Y7378598D01*
X6324211Y7378598D02*
G01*
X6426606Y7378598D01*
X6161605Y7048596D02*
G01*
X6197981Y7048596D01*
X6324211Y7048596D02*
G01*
X6361605Y7048596D01*
X6161605Y7048596D02*
G01*
X6141605Y7048596D01*
X6096604Y7093597D01*
X6361605Y7048596D02*
G01*
X6381605Y7048596D01*
X6426606Y7093597D01*
X3574402Y5931504D02*
G01*
X3289401Y5931504D01*
X3574402Y6261506D02*
G01*
X3289401Y6261506D01*
X3289401Y5931504D02*
G01*
X3289401Y6032880D01*
X3289401Y6159111D02*
G01*
X3289401Y6261506D01*
X3619403Y5996505D02*
G01*
X3619403Y6032880D01*
X3619403Y6159111D02*
G01*
X3619403Y6196505D01*
X3619403Y5996505D02*
G01*
X3619403Y5976505D01*
X3574402Y5931504D01*
X3619403Y6196505D02*
G01*
X3619403Y6216505D01*
X3574402Y6261506D01*
D12*
X5242798Y7467498D02*
G01*
X5112799Y7467498D01*
X5112799Y7327498D01*
X5372785Y7437501D02*
G01*
X5372785Y7167498D01*
X5142788Y7167498D01*
X5142788Y7437501D01*
X5372785Y7437501D01*
D11*
X2654119Y5392460D02*
G01*
X2505621Y5392460D01*
X2505621Y5173939D02*
G01*
X2654119Y5173939D01*
X2669359Y5189179D02*
G01*
X2669359Y5377220D01*
X2171880Y5392460D02*
G01*
X2320378Y5392460D01*
X2320378Y5173939D02*
G01*
X2171880Y5173939D01*
X2156640Y5189179D02*
G01*
X2156640Y5377220D01*
X7868960Y5194480D02*
G01*
X7868960Y5342978D01*
X7650439Y5342978D02*
G01*
X7650439Y5194480D01*
X7665679Y5179240D02*
G01*
X7853720Y5179240D01*
X7868960Y5676719D02*
G01*
X7868960Y5528221D01*
X7650439Y5528221D02*
G01*
X7650439Y5676719D01*
X7665679Y5691959D02*
G01*
X7853720Y5691959D01*
D14*
X6546900Y7440759D02*
G01*
X7346899Y7440759D01*
X6746900Y6940753D02*
G01*
X6546900Y6940753D01*
X7346899Y6940753D02*
G01*
X7146899Y6940753D01*
X7346899Y6940753D02*
G01*
X7346899Y6996440D01*
X7346899Y7382667D02*
G01*
X7346899Y7440759D01*
X6546900Y7440759D02*
G01*
X6546900Y7382667D01*
X6546900Y6996440D02*
G01*
X6546900Y6940753D01*
D16*
X4365231Y6851970D02*
G01*
X3926994Y6413733D01*
X3456429Y6884299D01*
X3925199Y7353066D01*
X4395764Y6882500D01*
X4341881Y6828619D01*
D11*
X5382333Y6896874D02*
G01*
X5422900Y6937438D01*
X5463466Y6896874D01*
X5817374Y6461833D02*
G01*
X5857938Y6502400D01*
X5817374Y6542966D01*
X5028425Y6542966D02*
G01*
X4987861Y6502400D01*
X5028425Y6461833D01*
X5463466Y6107925D02*
G01*
X5422900Y6067361D01*
X5382333Y6107925D01*
D14*
X7683494Y6731007D02*
G01*
X7484099Y6731007D01*
X8026397Y6731007D02*
G01*
X7879100Y6731007D01*
X7683182Y5823808D02*
G01*
X7484409Y5823808D01*
X8041297Y5823808D02*
G01*
X7879412Y5823808D01*
X8041297Y6723806D02*
G01*
X8041297Y5823808D01*
D12*
X4498101Y6083401D02*
G01*
X4628100Y6083401D01*
X4628100Y6223401D01*
X4368114Y6113398D02*
G01*
X4368114Y6383401D01*
X4598111Y6383401D01*
X4598111Y6113398D01*
X4368114Y6113398D01*
D11*
G75*
G01*
X6641160Y6578630D02*
G03*
X6625920Y6593870I-15240J0D01*
G75*
G01*
X6556680Y6593870D02*
G03*
X6541440Y6578630I0J-15240D01*
G75*
G01*
X6641160Y6375370D02*
G02*
X6625920Y6360130I-15240J0D01*
G75*
G01*
X6556680Y6360130D02*
G02*
X6541440Y6375370I0J15240D01*
D17*
G75*
G01*
X6057743Y6185154D02*
G02*
X6057997Y6185154I127J12445D01*
D11*
G75*
G01*
X6846240Y5930870D02*
G03*
X6861480Y5915630I15240J0D01*
G75*
G01*
X6930720Y5915630D02*
G03*
X6945960Y5930870I0J15240D01*
G75*
G01*
X6846240Y6134130D02*
G02*
X6861480Y6149370I15240J0D01*
G75*
G01*
X6930720Y6149370D02*
G02*
X6945960Y6134130I0J-15240D01*
G75*
G01*
X4992040Y7175470D02*
G03*
X5007280Y7160230I15240J0D01*
G75*
G01*
X5076520Y7160230D02*
G03*
X5091760Y7175470I0J15240D01*
G75*
G01*
X4992040Y7378730D02*
G02*
X5007280Y7393970I15240J0D01*
G75*
G01*
X5076520Y7393970D02*
G02*
X5091760Y7378730I0J-15240D01*
G75*
G01*
X5156170Y7149160D02*
G03*
X5140930Y7133920I0J-15240D01*
G75*
G01*
X5140930Y7064680D02*
G03*
X5156170Y7049440I15240J0D01*
G75*
G01*
X5359430Y7149160D02*
G02*
X5374670Y7133920I0J-15240D01*
G75*
G01*
X5374670Y7064680D02*
G02*
X5359430Y7049440I-15240J0D01*
G75*
G01*
X5765830Y5766740D02*
G03*
X5781070Y5781980I0J15240D01*
G75*
G01*
X5781070Y5851220D02*
G03*
X5765830Y5866460I-15240J0D01*
G75*
G01*
X5562570Y5766740D02*
G02*
X5547330Y5781980I0J15240D01*
G75*
G01*
X5547330Y5851220D02*
G02*
X5562570Y5866460I15240J0D01*
G75*
G01*
X5206970Y5904560D02*
G03*
X5191730Y5889320I0J-15240D01*
G75*
G01*
X5191730Y5820080D02*
G03*
X5206970Y5804840I15240J0D01*
G75*
G01*
X5410230Y5904560D02*
G02*
X5425470Y5889320I0J-15240D01*
G75*
G01*
X5425470Y5820080D02*
G02*
X5410230Y5804840I-15240J0D01*
G75*
G01*
X5068240Y5841970D02*
G03*
X5083480Y5826730I15240J0D01*
G75*
G01*
X5152720Y5826730D02*
G03*
X5167960Y5841970I0J15240D01*
G75*
G01*
X5068240Y6045230D02*
G02*
X5083480Y6060470I15240J0D01*
G75*
G01*
X5152720Y6060470D02*
G02*
X5167960Y6045230I0J-15240D01*
G75*
G01*
X4941240Y5841970D02*
G03*
X4956480Y5826730I15240J0D01*
G75*
G01*
X5025720Y5826730D02*
G03*
X5040960Y5841970I0J15240D01*
G75*
G01*
X4941240Y6045230D02*
G02*
X4956480Y6060470I15240J0D01*
G75*
G01*
X5025720Y6060470D02*
G02*
X5040960Y6045230I0J-15240D01*
G75*
G01*
X3899840Y5778470D02*
G03*
X3915080Y5763230I15240J0D01*
G75*
G01*
X3984320Y5763230D02*
G03*
X3999560Y5778470I0J15240D01*
G75*
G01*
X3899840Y5981730D02*
G02*
X3915080Y5996970I15240J0D01*
G75*
G01*
X3984320Y5996970D02*
G02*
X3999560Y5981730I0J-15240D01*
G75*
G01*
X3785540Y5778470D02*
G03*
X3800780Y5763230I15240J0D01*
G75*
G01*
X3870020Y5763230D02*
G03*
X3885260Y5778470I0J15240D01*
G75*
G01*
X3785540Y5981730D02*
G02*
X3800780Y5996970I15240J0D01*
G75*
G01*
X3870020Y5996970D02*
G02*
X3885260Y5981730I0J-15240D01*
G75*
G01*
X4317060Y6400830D02*
G03*
X4301820Y6416070I-15240J0D01*
G75*
G01*
X4232580Y6416070D02*
G03*
X4217340Y6400830I0J-15240D01*
G75*
G01*
X4317060Y6197570D02*
G02*
X4301820Y6182330I-15240J0D01*
G75*
G01*
X4232580Y6182330D02*
G02*
X4217340Y6197570I0J15240D01*
G75*
G01*
X3378170Y6476060D02*
G03*
X3362930Y6460820I0J-15240D01*
G75*
G01*
X3362930Y6391580D02*
G03*
X3378170Y6376340I15240J0D01*
G75*
G01*
X3581430Y6476060D02*
G02*
X3596670Y6460820I0J-15240D01*
G75*
G01*
X3596670Y6391580D02*
G02*
X3581430Y6376340I-15240J0D01*
G75*
G01*
X3873530Y6198540D02*
G03*
X3888770Y6213780I0J15240D01*
G75*
G01*
X3888770Y6283020D02*
G03*
X3873530Y6298260I-15240J0D01*
G75*
G01*
X3670270Y6198540D02*
G02*
X3655030Y6213780I0J15240D01*
G75*
G01*
X3655030Y6283020D02*
G02*
X3670270Y6298260I15240J0D01*
G75*
G01*
X4584730Y5969940D02*
G03*
X4599970Y5985180I0J15240D01*
G75*
G01*
X4599970Y6054420D02*
G03*
X4584730Y6069660I-15240J0D01*
G75*
G01*
X4381470Y5969940D02*
G02*
X4366230Y5985180I0J15240D01*
G75*
G01*
X4366230Y6054420D02*
G02*
X4381470Y6069660I15240J0D01*
G75*
G01*
X4381470Y6526860D02*
G03*
X4366230Y6511620I0J-15240D01*
G75*
G01*
X4366230Y6442380D02*
G03*
X4381470Y6427140I15240J0D01*
G75*
G01*
X4584730Y6526860D02*
G02*
X4599970Y6511620I0J-15240D01*
G75*
G01*
X4599970Y6442380D02*
G02*
X4584730Y6427140I-15240J0D01*
G75*
G01*
X3352770Y5904560D02*
G03*
X3337530Y5889320I0J-15240D01*
G75*
G01*
X3337530Y5820080D02*
G03*
X3352770Y5804840I15240J0D01*
G75*
G01*
X3556030Y5904560D02*
G02*
X3571270Y5889320I0J-15240D01*
G75*
G01*
X3571270Y5820080D02*
G02*
X3556030Y5804840I-15240J0D01*
G75*
G01*
X3352770Y5790260D02*
G03*
X3337530Y5775020I0J-15240D01*
G75*
G01*
X3337530Y5705780D02*
G03*
X3352770Y5690540I15240J0D01*
G75*
G01*
X3556030Y5790260D02*
G02*
X3571270Y5775020I0J-15240D01*
G75*
G01*
X3571270Y5705780D02*
G02*
X3556030Y5690540I-15240J0D01*
G75*
G01*
X3352770Y5675960D02*
G03*
X3337530Y5660720I0J-15240D01*
G75*
G01*
X3337530Y5591480D02*
G03*
X3352770Y5576240I15240J0D01*
G75*
G01*
X3556030Y5675960D02*
G02*
X3571270Y5660720I0J-15240D01*
G75*
G01*
X3571270Y5591480D02*
G02*
X3556030Y5576240I-15240J0D01*
G75*
G01*
X3352770Y5561660D02*
G03*
X3337530Y5546420I0J-15240D01*
G75*
G01*
X3337530Y5477180D02*
G03*
X3352770Y5461940I15240J0D01*
G75*
G01*
X3556030Y5561660D02*
G02*
X3571270Y5546420I0J-15240D01*
G75*
G01*
X3571270Y5477180D02*
G02*
X3556030Y5461940I-15240J0D01*
G75*
G01*
X2933670Y6653860D02*
G03*
X2918430Y6638620I0J-15240D01*
G75*
G01*
X2918430Y6569380D02*
G03*
X2933670Y6554140I15240J0D01*
G75*
G01*
X3136930Y6653860D02*
G02*
X3152170Y6638620I0J-15240D01*
G75*
G01*
X3152170Y6569380D02*
G02*
X3136930Y6554140I-15240J0D01*
G75*
G01*
X2933670Y6895160D02*
G03*
X2918430Y6879920I0J-15240D01*
G75*
G01*
X2918430Y6810680D02*
G03*
X2933670Y6795440I15240J0D01*
G75*
G01*
X3136930Y6895160D02*
G02*
X3152170Y6879920I0J-15240D01*
G75*
G01*
X3152170Y6810680D02*
G02*
X3136930Y6795440I-15240J0D01*
G75*
G01*
X2933670Y6526860D02*
G03*
X2918430Y6511620I0J-15240D01*
G75*
G01*
X2918430Y6442380D02*
G03*
X2933670Y6427140I15240J0D01*
G75*
G01*
X3136930Y6526860D02*
G02*
X3152170Y6511620I0J-15240D01*
G75*
G01*
X3152170Y6442380D02*
G02*
X3136930Y6427140I-15240J0D01*
G75*
G01*
X5410230Y5931840D02*
G03*
X5425470Y5947080I0J15240D01*
G75*
G01*
X5425470Y6016320D02*
G03*
X5410230Y6031560I-15240J0D01*
G75*
G01*
X5206970Y5931840D02*
G02*
X5191730Y5947080I0J15240D01*
G75*
G01*
X5191730Y6016320D02*
G02*
X5206970Y6031560I15240J0D01*
G75*
G01*
X5156170Y7034860D02*
G03*
X5140930Y7019620I0J-15240D01*
G75*
G01*
X5140930Y6950380D02*
G03*
X5156170Y6935140I15240J0D01*
G75*
G01*
X5359430Y7034860D02*
G02*
X5374670Y7019620I0J-15240D01*
G75*
G01*
X5374670Y6950380D02*
G02*
X5359430Y6935140I-15240J0D01*
G75*
G01*
X4991130Y6604940D02*
G03*
X5006370Y6620180I0J15240D01*
G75*
G01*
X5006370Y6689420D02*
G03*
X4991130Y6704660I-15240J0D01*
G75*
G01*
X4787870Y6604940D02*
G02*
X4772630Y6620180I0J15240D01*
G75*
G01*
X4772630Y6689420D02*
G02*
X4787870Y6704660I15240J0D01*
G75*
G01*
X4991130Y6719240D02*
G03*
X5006370Y6734480I0J15240D01*
G75*
G01*
X5006370Y6803720D02*
G03*
X4991130Y6818960I-15240J0D01*
G75*
G01*
X4787870Y6719240D02*
G02*
X4772630Y6734480I0J15240D01*
G75*
G01*
X4772630Y6803720D02*
G02*
X4787870Y6818960I15240J0D01*
G75*
G01*
X4978430Y6998640D02*
G03*
X4993670Y7013880I0J15240D01*
G75*
G01*
X4993670Y7083120D02*
G03*
X4978430Y7098360I-15240J0D01*
G75*
G01*
X4775170Y6998640D02*
G02*
X4759930Y7013880I0J15240D01*
G75*
G01*
X4759930Y7083120D02*
G02*
X4775170Y7098360I15240J0D01*
G75*
G01*
X5930930Y7011340D02*
G03*
X5946170Y7026580I0J15240D01*
G75*
G01*
X5946170Y7095820D02*
G03*
X5930930Y7111060I-15240J0D01*
G75*
G01*
X5727670Y7011340D02*
G02*
X5712430Y7026580I0J15240D01*
G75*
G01*
X5712430Y7095820D02*
G02*
X5727670Y7111060I15240J0D01*
G75*
G01*
X5701360Y7099330D02*
G03*
X5686120Y7114570I-15240J0D01*
G75*
G01*
X5616880Y7114570D02*
G03*
X5601640Y7099330I0J-15240D01*
G75*
G01*
X5701360Y6896070D02*
G02*
X5686120Y6880830I-15240J0D01*
G75*
G01*
X5616880Y6880830D02*
G02*
X5601640Y6896070I0J15240D01*
G75*
G01*
X7199960Y6134130D02*
G03*
X7184720Y6149370I-15240J0D01*
G75*
G01*
X7115480Y6149370D02*
G03*
X7100240Y6134130I0J-15240D01*
G75*
G01*
X7199960Y5930870D02*
G02*
X7184720Y5915630I-15240J0D01*
G75*
G01*
X7115480Y5915630D02*
G02*
X7100240Y5930870I0J15240D01*
G75*
G01*
X6197570Y6717360D02*
G03*
X6182330Y6702120I0J-15240D01*
G75*
G01*
X6182330Y6632880D02*
G03*
X6197570Y6617640I15240J0D01*
G75*
G01*
X6400830Y6717360D02*
G02*
X6416070Y6702120I0J-15240D01*
G75*
G01*
X6416070Y6632880D02*
G02*
X6400830Y6617640I-15240J0D01*
G75*
G01*
X6197570Y6844360D02*
G03*
X6182330Y6829120I0J-15240D01*
G75*
G01*
X6182330Y6759880D02*
G03*
X6197570Y6744640I15240J0D01*
G75*
G01*
X6400830Y6844360D02*
G02*
X6416070Y6829120I0J-15240D01*
G75*
G01*
X6416070Y6759880D02*
G02*
X6400830Y6744640I-15240J0D01*
G75*
G01*
X3200370Y7453960D02*
G03*
X3185130Y7438720I0J-15240D01*
G75*
G01*
X3185130Y7369480D02*
G03*
X3200370Y7354240I15240J0D01*
G75*
G01*
X3403630Y7453960D02*
G02*
X3418870Y7438720I0J-15240D01*
G75*
G01*
X3418870Y7369480D02*
G02*
X3403630Y7354240I-15240J0D01*
D14*
G75*
G01*
X6197605Y7331598D02*
G03*
X6199561Y7098520I65000J-116002D01*
G75*
G01*
X6324605Y7097598D02*
G03*
X6329441Y7330925I-61997J117999D01*
G75*
G01*
X3336402Y6032505D02*
G03*
X3569480Y6034461I116002J65000D01*
G75*
G01*
X3570402Y6159505D02*
G03*
X3337075Y6164341I-117999J-61997D01*
D11*
G75*
G01*
X2654120Y5173939D02*
G03*
X2669360Y5189179I0J15240D01*
G75*
G01*
X2669360Y5377221D02*
G03*
X2654120Y5392461I-15240J0D01*
G75*
G01*
X2171880Y5173939D02*
G02*
X2156640Y5189179I0J15240D01*
G75*
G01*
X2156640Y5377221D02*
G02*
X2171880Y5392461I15240J0D01*
G75*
G01*
X7650439Y5194480D02*
G03*
X7665679Y5179240I15240J0D01*
G75*
G01*
X7853721Y5179240D02*
G03*
X7868961Y5194480I0J15240D01*
G75*
G01*
X7650439Y5676720D02*
G02*
X7665679Y5691960I15240J0D01*
G75*
G01*
X7853721Y5691960D02*
G02*
X7868961Y5676720I0J-15240D01*
D18*
G75*
G01*
X3876924Y7410193D02*
G03*
X3876744Y7410013I-14232J14052D01*
D15*
G75*
G01
X6411392Y6077890D02*
G03X6411392Y6077890I-5004J0D01*
D19*
G75*
G01
X7152411Y6502400D02*
G03X7152411Y6502400I-15011J0D01*
D14*
G75*
G01
X3926484Y7268769D02*
G03X3926484Y7268769I-17043J0D01*
D20*
G75*
G01
X5024526Y6407633D02*
G03X5024526Y6407633I-7493J0D01*
M02*
