G04 Layer: TopSilkscreenLayer*
G04 EasyEDA v6.5.42, 2024-03-24 15:50:54*
G04 41c9f5360a194006a8d19c54ee002b27,b9277fd2045942759ab1a28cc0c323af,10*
G04 Gerber Generator version 0.2*
G04 Scale: 100 percent, Rotated: No, Reflected: No *
G04 Dimensions in millimeters *
G04 leading zeros omitted , absolute positions ,4 integer and 5 decimal *
%FSLAX45Y45*%
%MOMM*%

%ADD10C,0.2032*%
%ADD11C,0.1524*%
%ADD12C,0.1520*%
%ADD13C,0.1520*%
%ADD14C,0.2540*%
%ADD15C,0.2000*%
%ADD16C,0.4000*%
%ADD17C,0.3000*%
%ADD18C,0.2500*%
%ADD19C,0.1500*%
%ADD20C,0.0175*%

%LPD*%
D10*
X7499858Y7289292D02*
G01*
X7499858Y7123176D01*
X7416800Y7206234D02*
G01*
X7583170Y7206234D01*
X1329436Y7441692D02*
G01*
X1329436Y7387081D01*
X1326134Y7376921D01*
X1322578Y7373620D01*
X1315973Y7370063D01*
X1309115Y7370063D01*
X1302257Y7373620D01*
X1298702Y7376921D01*
X1295400Y7387081D01*
X1295400Y7393939D01*
X1352042Y7441692D02*
G01*
X1352042Y7370063D01*
X1352042Y7370063D02*
G01*
X1392936Y7370063D01*
X1466595Y7424673D02*
G01*
X1463039Y7431531D01*
X1456181Y7438389D01*
X1449578Y7441692D01*
X1435862Y7441692D01*
X1429004Y7438389D01*
X1422145Y7431531D01*
X1418844Y7424673D01*
X1415287Y7414513D01*
X1415287Y7397242D01*
X1418844Y7387081D01*
X1422145Y7380223D01*
X1429004Y7373620D01*
X1435862Y7370063D01*
X1449578Y7370063D01*
X1456181Y7373620D01*
X1463039Y7380223D01*
X1466595Y7387081D01*
X1523237Y7441692D02*
G01*
X1523237Y7387081D01*
X1519681Y7376921D01*
X1516379Y7373620D01*
X1509521Y7370063D01*
X1502663Y7370063D01*
X1495805Y7373620D01*
X1492504Y7376921D01*
X1488947Y7387081D01*
X1488947Y7393939D01*
X1545589Y7441692D02*
G01*
X1545589Y7370063D01*
X1545589Y7370063D02*
G01*
X1586484Y7370063D01*
X1660144Y7424673D02*
G01*
X1656842Y7431531D01*
X1649984Y7438389D01*
X1643126Y7441692D01*
X1629410Y7441692D01*
X1622552Y7438389D01*
X1615947Y7431531D01*
X1612392Y7424673D01*
X1609089Y7414513D01*
X1609089Y7397242D01*
X1612392Y7387081D01*
X1615947Y7380223D01*
X1622552Y7373620D01*
X1629410Y7370063D01*
X1643126Y7370063D01*
X1649984Y7373620D01*
X1656842Y7380223D01*
X1660144Y7387081D01*
X1716786Y7441692D02*
G01*
X1716786Y7387081D01*
X1713229Y7376921D01*
X1709928Y7373620D01*
X1703070Y7370063D01*
X1696212Y7370063D01*
X1689607Y7373620D01*
X1686052Y7376921D01*
X1682750Y7387081D01*
X1682750Y7393939D01*
X1739137Y7441692D02*
G01*
X1739137Y7370063D01*
X1739137Y7370063D02*
G01*
X1780286Y7370063D01*
X1853692Y7424673D02*
G01*
X1850389Y7431531D01*
X1843531Y7438389D01*
X1836673Y7441692D01*
X1823212Y7441692D01*
X1816354Y7438389D01*
X1809495Y7431531D01*
X1806194Y7424673D01*
X1802637Y7414513D01*
X1802637Y7397242D01*
X1806194Y7387081D01*
X1809495Y7380223D01*
X1816354Y7373620D01*
X1823212Y7370063D01*
X1836673Y7370063D01*
X1843531Y7373620D01*
X1850389Y7380223D01*
X1853692Y7387081D01*
X1910334Y7441692D02*
G01*
X1910334Y7387081D01*
X1907031Y7376921D01*
X1903476Y7373620D01*
X1896871Y7370063D01*
X1890013Y7370063D01*
X1883155Y7373620D01*
X1879600Y7376921D01*
X1876297Y7387081D01*
X1876297Y7393939D01*
X1932940Y7441692D02*
G01*
X1932940Y7370063D01*
X1932940Y7370063D02*
G01*
X1973834Y7370063D01*
X2047493Y7424673D02*
G01*
X2043938Y7431531D01*
X2037334Y7438389D01*
X2030475Y7441692D01*
X2016759Y7441692D01*
X2009902Y7438389D01*
X2003043Y7431531D01*
X1999741Y7424673D01*
X1996186Y7414513D01*
X1996186Y7397242D01*
X1999741Y7387081D01*
X2003043Y7380223D01*
X2009902Y7373620D01*
X2016759Y7370063D01*
X2030475Y7370063D01*
X2037334Y7373620D01*
X2043938Y7380223D01*
X2047493Y7387081D01*
X6108700Y5688837D02*
G01*
X6108700Y5593334D01*
X6108700Y5593334D02*
G01*
X6163309Y5593334D01*
X6193281Y5688837D02*
G01*
X6193281Y5593334D01*
X6193281Y5593334D02*
G01*
X6247891Y5593334D01*
X6277863Y5688837D02*
G01*
X6277863Y5593334D01*
X6277863Y5688837D02*
G01*
X6309613Y5688837D01*
X6323329Y5684265D01*
X6332220Y5675376D01*
X6336791Y5666231D01*
X6341363Y5652515D01*
X6341363Y5629910D01*
X6336791Y5616194D01*
X6332220Y5607050D01*
X6323329Y5597905D01*
X6309613Y5593334D01*
X6277863Y5593334D01*
X6371336Y5688837D02*
G01*
X6371336Y5593334D01*
X6371336Y5688837D02*
G01*
X6412229Y5688837D01*
X6425945Y5684265D01*
X6430518Y5679694D01*
X6435090Y5670804D01*
X6435090Y5657087D01*
X6430518Y5647944D01*
X6425945Y5643371D01*
X6412229Y5638800D01*
X6371336Y5638800D01*
X6528815Y5675376D02*
G01*
X6519672Y5684265D01*
X6505956Y5688837D01*
X6487668Y5688837D01*
X6474206Y5684265D01*
X6465061Y5675376D01*
X6465061Y5666231D01*
X6469634Y5657087D01*
X6474206Y5652515D01*
X6483350Y5647944D01*
X6510527Y5638800D01*
X6519672Y5634481D01*
X6524243Y5629910D01*
X6528815Y5620765D01*
X6528815Y5607050D01*
X6519672Y5597905D01*
X6505956Y5593334D01*
X6487668Y5593334D01*
X6474206Y5597905D01*
X6465061Y5607050D01*
X6572250Y5688837D02*
G01*
X6572250Y5611621D01*
X6576822Y5597905D01*
X6585965Y5593334D01*
X6595109Y5593334D01*
X6558788Y5657087D02*
G01*
X6590538Y5657087D01*
X6625081Y5688837D02*
G01*
X6629654Y5684265D01*
X6634225Y5688837D01*
X6629654Y5693410D01*
X6625081Y5688837D01*
X6629654Y5657087D02*
G01*
X6629654Y5593334D01*
X6718808Y5643371D02*
G01*
X6709663Y5652515D01*
X6700520Y5657087D01*
X6686804Y5657087D01*
X6677913Y5652515D01*
X6668770Y5643371D01*
X6664197Y5629910D01*
X6664197Y5620765D01*
X6668770Y5607050D01*
X6677913Y5597905D01*
X6686804Y5593334D01*
X6700520Y5593334D01*
X6709663Y5597905D01*
X6718808Y5607050D01*
X6748779Y5688837D02*
G01*
X6748779Y5593334D01*
X6794245Y5657087D02*
G01*
X6748779Y5611621D01*
X6766813Y5629910D02*
G01*
X6798818Y5593334D01*
X6898640Y5657087D02*
G01*
X6926072Y5593334D01*
X6953250Y5657087D02*
G01*
X6926072Y5593334D01*
X6992365Y5688837D02*
G01*
X7042404Y5688837D01*
X7014972Y5652515D01*
X7028688Y5652515D01*
X7037831Y5647944D01*
X7042404Y5643371D01*
X7046975Y5629910D01*
X7046975Y5620765D01*
X7042404Y5607050D01*
X7033259Y5597905D01*
X7019543Y5593334D01*
X7006081Y5593334D01*
X6992365Y5597905D01*
X6987793Y5602478D01*
X6983222Y5611621D01*
X6108700Y5523737D02*
G01*
X6108700Y5428234D01*
X6108700Y5523737D02*
G01*
X6149593Y5523737D01*
X6163309Y5519165D01*
X6167881Y5514594D01*
X6172454Y5505704D01*
X6172454Y5496560D01*
X6167881Y5487415D01*
X6163309Y5482844D01*
X6149593Y5478271D01*
X6108700Y5478271D01*
X6140450Y5478271D02*
G01*
X6172454Y5428234D01*
X6202425Y5464810D02*
G01*
X6256781Y5464810D01*
X6256781Y5473700D01*
X6252209Y5482844D01*
X6247891Y5487415D01*
X6238747Y5491987D01*
X6225031Y5491987D01*
X6215888Y5487415D01*
X6206997Y5478271D01*
X6202425Y5464810D01*
X6202425Y5455665D01*
X6206997Y5441950D01*
X6215888Y5432805D01*
X6225031Y5428234D01*
X6238747Y5428234D01*
X6247891Y5432805D01*
X6256781Y5441950D01*
X6287008Y5491987D02*
G01*
X6314186Y5428234D01*
X6341363Y5491987D02*
G01*
X6314186Y5428234D01*
X6446011Y5501131D02*
G01*
X6446011Y5505704D01*
X6450584Y5514594D01*
X6455156Y5519165D01*
X6464045Y5523737D01*
X6482334Y5523737D01*
X6491477Y5519165D01*
X6496050Y5514594D01*
X6500622Y5505704D01*
X6500622Y5496560D01*
X6496050Y5487415D01*
X6486906Y5473700D01*
X6441440Y5428234D01*
X6504940Y5428234D01*
X6544056Y5446521D02*
G01*
X6539484Y5441950D01*
X6535165Y5446521D01*
X6539484Y5451094D01*
X6544056Y5446521D01*
X6544056Y5437378D01*
X6535165Y5428234D01*
X6671309Y5523737D02*
G01*
X6657847Y5519165D01*
X6648704Y5505704D01*
X6644131Y5482844D01*
X6644131Y5469381D01*
X6648704Y5446521D01*
X6657847Y5432805D01*
X6671309Y5428234D01*
X6680454Y5428234D01*
X6694170Y5432805D01*
X6703313Y5446521D01*
X6707886Y5469381D01*
X6707886Y5482844D01*
X6703313Y5505704D01*
X6694170Y5519165D01*
X6680454Y5523737D01*
X6671309Y5523737D01*
X6747002Y5523737D02*
G01*
X6796786Y5523737D01*
X6769608Y5487415D01*
X6783324Y5487415D01*
X6792213Y5482844D01*
X6796786Y5478271D01*
X6801358Y5464810D01*
X6801358Y5455665D01*
X6796786Y5441950D01*
X6787895Y5432805D01*
X6774179Y5428234D01*
X6760463Y5428234D01*
X6747002Y5432805D01*
X6742429Y5437378D01*
X6737858Y5446521D01*
X6913118Y5542026D02*
G01*
X6831329Y5396484D01*
X6947915Y5501131D02*
G01*
X6947915Y5505704D01*
X6952234Y5514594D01*
X6956806Y5519165D01*
X6965950Y5523737D01*
X6984238Y5523737D01*
X6993127Y5519165D01*
X6997700Y5514594D01*
X7002272Y5505704D01*
X7002272Y5496560D01*
X6997700Y5487415D01*
X6988809Y5473700D01*
X6943343Y5428234D01*
X7006843Y5428234D01*
X7082281Y5523737D02*
G01*
X7036815Y5460237D01*
X7105141Y5460237D01*
X7082281Y5523737D02*
G01*
X7082281Y5428234D01*
D11*
X5782818Y6816597D02*
G01*
X5806186Y6816597D01*
X5793486Y6799326D01*
X5799836Y6799326D01*
X5804154Y6797294D01*
X5806186Y6795262D01*
X5808472Y6788658D01*
X5808472Y6784594D01*
X5806186Y6777989D01*
X5802122Y6773671D01*
X5795518Y6771639D01*
X5789168Y6771639D01*
X5782818Y6773671D01*
X5780531Y6775958D01*
X5778500Y6780276D01*
X5822441Y6801612D02*
G01*
X5835395Y6771639D01*
X5848095Y6801612D02*
G01*
X5835395Y6771639D01*
X5866384Y6816597D02*
G01*
X5890006Y6816597D01*
X5877306Y6799326D01*
X5883656Y6799326D01*
X5887974Y6797294D01*
X5890006Y6795262D01*
X5892038Y6788658D01*
X5892038Y6784594D01*
X5890006Y6777989D01*
X5885688Y6773671D01*
X5879338Y6771639D01*
X5872988Y6771639D01*
X5866384Y6773671D01*
X5864352Y6775958D01*
X5862320Y6780276D01*
X5810504Y6272529D02*
G01*
X5808472Y6276594D01*
X5804154Y6280912D01*
X5799836Y6283197D01*
X5791200Y6283197D01*
X5787136Y6280912D01*
X5782818Y6276594D01*
X5780531Y6272529D01*
X5778500Y6265926D01*
X5778500Y6255257D01*
X5780531Y6248907D01*
X5782818Y6244589D01*
X5787136Y6240271D01*
X5791200Y6238239D01*
X5799836Y6238239D01*
X5804154Y6240271D01*
X5808472Y6244589D01*
X5810504Y6248907D01*
X5824727Y6283197D02*
G01*
X5824727Y6238239D01*
X5824727Y6238239D02*
G01*
X5850381Y6238239D01*
X5864352Y6283197D02*
G01*
X5864352Y6238239D01*
X5894324Y6283197D02*
G01*
X5864352Y6253226D01*
X5875020Y6263894D02*
G01*
X5894324Y6238239D01*
X5791200Y6016497D02*
G01*
X5791200Y5971539D01*
X5791200Y6016497D02*
G01*
X5810504Y6016497D01*
X5816854Y6014212D01*
X5818886Y6012179D01*
X5821172Y6007862D01*
X5821172Y6003544D01*
X5818886Y5999226D01*
X5816854Y5997194D01*
X5810504Y5995162D01*
X5791200Y5995162D01*
X5806186Y5995162D02*
G01*
X5821172Y5971539D01*
X5865113Y6009894D02*
G01*
X5860795Y6014212D01*
X5854445Y6016497D01*
X5845809Y6016497D01*
X5839459Y6014212D01*
X5835141Y6009894D01*
X5835141Y6005829D01*
X5837427Y6001512D01*
X5839459Y5999226D01*
X5843777Y5997194D01*
X5856477Y5992876D01*
X5860795Y5990844D01*
X5863081Y5988557D01*
X5865113Y5984494D01*
X5865113Y5977889D01*
X5860795Y5973571D01*
X5854445Y5971539D01*
X5845809Y5971539D01*
X5839459Y5973571D01*
X5835141Y5977889D01*
X5894070Y6016497D02*
G01*
X5894070Y5971539D01*
X5879084Y6016497D02*
G01*
X5909056Y6016497D01*
X6064504Y5751829D02*
G01*
X6062472Y5755894D01*
X6058154Y5760212D01*
X6053836Y5762497D01*
X6045200Y5762497D01*
X6041136Y5760212D01*
X6036818Y5755894D01*
X6034531Y5751829D01*
X6032500Y5745226D01*
X6032500Y5734557D01*
X6034531Y5728207D01*
X6036818Y5723889D01*
X6041136Y5719571D01*
X6045200Y5717539D01*
X6053836Y5717539D01*
X6058154Y5719571D01*
X6062472Y5723889D01*
X6064504Y5728207D01*
X6064504Y5734557D01*
X6053836Y5734557D02*
G01*
X6064504Y5734557D01*
X6078727Y5762497D02*
G01*
X6078727Y5717539D01*
X6078727Y5762497D02*
G01*
X6108445Y5717539D01*
X6108445Y5762497D02*
G01*
X6108445Y5717539D01*
X6122670Y5762497D02*
G01*
X6122670Y5717539D01*
X6122670Y5762497D02*
G01*
X6137656Y5762497D01*
X6144006Y5760212D01*
X6148324Y5755894D01*
X6150356Y5751829D01*
X6152641Y5745226D01*
X6152641Y5734557D01*
X6150356Y5728207D01*
X6148324Y5723889D01*
X6144006Y5719571D01*
X6137656Y5717539D01*
X6122670Y5717539D01*
X5867400Y6600697D02*
G01*
X5867400Y6555739D01*
X5894324Y6600697D02*
G01*
X5890006Y6598412D01*
X5885688Y6594094D01*
X5883656Y6590029D01*
X5881624Y6583426D01*
X5881624Y6572758D01*
X5883656Y6566408D01*
X5885688Y6562089D01*
X5890006Y6557771D01*
X5894324Y6555739D01*
X5902959Y6555739D01*
X5907024Y6557771D01*
X5911341Y6562089D01*
X5913627Y6566408D01*
X5915659Y6572758D01*
X5915659Y6583426D01*
X5913627Y6590029D01*
X5911341Y6594094D01*
X5907024Y6598412D01*
X5902959Y6600697D01*
X5894324Y6600697D01*
X4682236Y7341615D02*
G01*
X4679950Y7346187D01*
X4675377Y7350760D01*
X4670806Y7353045D01*
X4661915Y7353045D01*
X4657343Y7350760D01*
X4652772Y7346187D01*
X4650486Y7341615D01*
X4648200Y7334758D01*
X4648200Y7323328D01*
X4650486Y7316470D01*
X4652772Y7312152D01*
X4657343Y7307579D01*
X4661915Y7305294D01*
X4670806Y7305294D01*
X4675377Y7307579D01*
X4679950Y7312152D01*
X4682236Y7316470D01*
X4701793Y7353045D02*
G01*
X4726940Y7353045D01*
X4713224Y7334758D01*
X4720081Y7334758D01*
X4724654Y7332471D01*
X4726940Y7330186D01*
X4729225Y7323328D01*
X4729225Y7318755D01*
X4726940Y7312152D01*
X4722368Y7307579D01*
X4715509Y7305294D01*
X4708652Y7305294D01*
X4701793Y7307579D01*
X4699508Y7309865D01*
X4697222Y7314437D01*
X4757674Y7353045D02*
G01*
X4750815Y7350760D01*
X4746497Y7343902D01*
X4744211Y7332471D01*
X4744211Y7325613D01*
X4746497Y7314437D01*
X4750815Y7307579D01*
X4757674Y7305294D01*
X4762245Y7305294D01*
X4769104Y7307579D01*
X4773675Y7314437D01*
X4775961Y7325613D01*
X4775961Y7332471D01*
X4773675Y7343902D01*
X4769104Y7350760D01*
X4762245Y7353045D01*
X4757674Y7353045D01*
X5431536Y7113015D02*
G01*
X5429250Y7117587D01*
X5424677Y7122160D01*
X5420106Y7124445D01*
X5411215Y7124445D01*
X5406643Y7122160D01*
X5402072Y7117587D01*
X5399786Y7113015D01*
X5397500Y7106158D01*
X5397500Y7094728D01*
X5399786Y7087870D01*
X5402072Y7083552D01*
X5406643Y7078979D01*
X5411215Y7076694D01*
X5420106Y7076694D01*
X5424677Y7078979D01*
X5429250Y7083552D01*
X5431536Y7087870D01*
X5451093Y7124445D02*
G01*
X5476240Y7124445D01*
X5462524Y7106158D01*
X5469381Y7106158D01*
X5473954Y7103871D01*
X5476240Y7101586D01*
X5478525Y7094728D01*
X5478525Y7090155D01*
X5476240Y7083552D01*
X5471668Y7078979D01*
X5464809Y7076694D01*
X5457952Y7076694D01*
X5451093Y7078979D01*
X5448808Y7081265D01*
X5446522Y7085837D01*
X5493511Y7115302D02*
G01*
X5497829Y7117587D01*
X5504688Y7124445D01*
X5504688Y7076694D01*
D12*
X4102036Y6095745D02*
G01*
X4102036Y6061455D01*
X4104322Y6054852D01*
X4108894Y6050279D01*
X4115752Y6047994D01*
X4120324Y6047994D01*
X4127182Y6050279D01*
X4131754Y6054852D01*
X4134040Y6061455D01*
X4134040Y6095745D01*
X4176204Y6095745D02*
G01*
X4153344Y6095745D01*
X4151312Y6075171D01*
X4153344Y6077457D01*
X4160202Y6079744D01*
X4167060Y6079744D01*
X4173918Y6077457D01*
X4178490Y6072886D01*
X4180776Y6066028D01*
X4180776Y6061455D01*
X4178490Y6054852D01*
X4173918Y6050279D01*
X4167060Y6047994D01*
X4160202Y6047994D01*
X4153344Y6050279D01*
X4151312Y6052565D01*
X4149026Y6057137D01*
D11*
X5851906Y5600445D02*
G01*
X5851906Y5563870D01*
X5849874Y5557265D01*
X5847588Y5554979D01*
X5843015Y5552694D01*
X5838443Y5552694D01*
X5833872Y5554979D01*
X5831586Y5557265D01*
X5829300Y5563870D01*
X5829300Y5568442D01*
X5867145Y5591302D02*
G01*
X5871463Y5593587D01*
X5878322Y5600445D01*
X5878322Y5552694D01*
X5791200Y5759957D02*
G01*
X5786627Y5757671D01*
X5779770Y5750813D01*
X5779770Y5799328D01*
X5194300Y5759957D02*
G01*
X5189727Y5757671D01*
X5182870Y5750813D01*
X5182870Y5799328D01*
X5153659Y5750813D02*
G01*
X5160518Y5753100D01*
X5165090Y5759957D01*
X5167629Y5771642D01*
X5167629Y5778500D01*
X5165090Y5789929D01*
X5160518Y5797042D01*
X5153659Y5799328D01*
X5149088Y5799328D01*
X5142229Y5797042D01*
X5137404Y5789929D01*
X5135118Y5778500D01*
X5135118Y5771642D01*
X5137404Y5759957D01*
X5142229Y5753100D01*
X5149088Y5750813D01*
X5153659Y5750813D01*
X4493513Y5774944D02*
G01*
X4493513Y5772657D01*
X4491227Y5768086D01*
X4488941Y5765800D01*
X4484370Y5763513D01*
X4474972Y5763513D01*
X4470400Y5765800D01*
X4468113Y5768086D01*
X4465827Y5772657D01*
X4465827Y5777229D01*
X4468113Y5782055D01*
X4472686Y5788913D01*
X4495800Y5812028D01*
X4463541Y5812028D01*
X4434331Y5763513D02*
G01*
X4441190Y5765800D01*
X4446015Y5772657D01*
X4448302Y5784342D01*
X4448302Y5791200D01*
X4446015Y5802629D01*
X4441190Y5809742D01*
X4434331Y5812028D01*
X4429759Y5812028D01*
X4422902Y5809742D01*
X4418329Y5802629D01*
X4415790Y5791200D01*
X4415790Y5784342D01*
X4418329Y5772657D01*
X4422902Y5765800D01*
X4429759Y5763513D01*
X4434331Y5763513D01*
X3754627Y5763513D02*
G01*
X3729227Y5763513D01*
X3742943Y5782055D01*
X3736086Y5782055D01*
X3731513Y5784342D01*
X3729227Y5786628D01*
X3726941Y5793486D01*
X3726941Y5798057D01*
X3729227Y5805170D01*
X3733800Y5809742D01*
X3740658Y5812028D01*
X3747770Y5812028D01*
X3754627Y5809742D01*
X3756913Y5807455D01*
X3759200Y5802629D01*
X3697731Y5763513D02*
G01*
X3704590Y5765800D01*
X3709415Y5772657D01*
X3711702Y5784342D01*
X3711702Y5791200D01*
X3709415Y5802629D01*
X3704590Y5809742D01*
X3697731Y5812028D01*
X3693159Y5812028D01*
X3686302Y5809742D01*
X3681729Y5802629D01*
X3679190Y5791200D01*
X3679190Y5784342D01*
X3681729Y5772657D01*
X3686302Y5765800D01*
X3693159Y5763513D01*
X3697731Y5763513D01*
X6565900Y5854445D02*
G01*
X6565900Y5806694D01*
X6565900Y5854445D02*
G01*
X6586474Y5854445D01*
X6593077Y5852160D01*
X6595363Y5849873D01*
X6597650Y5845302D01*
X6597650Y5840729D01*
X6595363Y5836157D01*
X6593077Y5833871D01*
X6586474Y5831586D01*
X6565900Y5831586D01*
X6581902Y5831586D02*
G01*
X6597650Y5806694D01*
X6612636Y5845302D02*
G01*
X6617208Y5847587D01*
X6624065Y5854445D01*
X6624065Y5806694D01*
X6650481Y5854445D02*
G01*
X6643624Y5852160D01*
X6641338Y5847587D01*
X6641338Y5843015D01*
X6643624Y5838444D01*
X6648195Y5836157D01*
X6657340Y5833871D01*
X6664197Y5831586D01*
X6668515Y5827013D01*
X6670802Y5822442D01*
X6670802Y5815837D01*
X6668515Y5811265D01*
X6666229Y5808979D01*
X6659625Y5806694D01*
X6650481Y5806694D01*
X6643624Y5808979D01*
X6641338Y5811265D01*
X6639052Y5815837D01*
X6639052Y5822442D01*
X6641338Y5827013D01*
X6645909Y5831586D01*
X6652768Y5833871D01*
X6661911Y5836157D01*
X6666229Y5838444D01*
X6668515Y5843015D01*
X6668515Y5847587D01*
X6666229Y5852160D01*
X6659625Y5854445D01*
X6650481Y5854445D01*
X5837936Y5881115D02*
G01*
X5835650Y5885687D01*
X5831077Y5890260D01*
X5826506Y5892545D01*
X5817615Y5892545D01*
X5813043Y5890260D01*
X5808472Y5885687D01*
X5806186Y5881115D01*
X5803900Y5874257D01*
X5803900Y5862828D01*
X5806186Y5855970D01*
X5808472Y5851652D01*
X5813043Y5847079D01*
X5817615Y5844794D01*
X5826506Y5844794D01*
X5831077Y5847079D01*
X5835650Y5851652D01*
X5837936Y5855970D01*
X5852922Y5883402D02*
G01*
X5857493Y5885687D01*
X5864352Y5892545D01*
X5864352Y5844794D01*
X5279136Y5423915D02*
G01*
X5276850Y5428487D01*
X5272277Y5433060D01*
X5267706Y5435345D01*
X5258815Y5435345D01*
X5254243Y5433060D01*
X5249672Y5428487D01*
X5247386Y5423915D01*
X5245100Y5417057D01*
X5245100Y5405628D01*
X5247386Y5398770D01*
X5249672Y5394452D01*
X5254243Y5389879D01*
X5258815Y5387594D01*
X5267706Y5387594D01*
X5272277Y5389879D01*
X5276850Y5394452D01*
X5279136Y5398770D01*
X5296408Y5423915D02*
G01*
X5296408Y5426202D01*
X5298693Y5430773D01*
X5300979Y5433060D01*
X5305552Y5435345D01*
X5314695Y5435345D01*
X5319268Y5433060D01*
X5321554Y5430773D01*
X5323840Y5426202D01*
X5323840Y5421629D01*
X5321554Y5417057D01*
X5316981Y5410200D01*
X5294122Y5387594D01*
X5326125Y5387594D01*
X5104384Y5456936D02*
G01*
X5099811Y5454650D01*
X5095240Y5450078D01*
X5092954Y5445505D01*
X5092954Y5436615D01*
X5095240Y5432044D01*
X5099811Y5427471D01*
X5104384Y5425186D01*
X5111241Y5422900D01*
X5122672Y5422900D01*
X5129529Y5425186D01*
X5133847Y5427471D01*
X5138420Y5432044D01*
X5140706Y5436615D01*
X5140706Y5445505D01*
X5138420Y5450078D01*
X5133847Y5454650D01*
X5129529Y5456936D01*
X5092954Y5476494D02*
G01*
X5092954Y5501639D01*
X5111241Y5487923D01*
X5111241Y5494781D01*
X5113527Y5499354D01*
X5115813Y5501639D01*
X5122672Y5503926D01*
X5127243Y5503926D01*
X5133847Y5501639D01*
X5138420Y5497068D01*
X5140706Y5490210D01*
X5140706Y5483352D01*
X5138420Y5476494D01*
X5136134Y5474207D01*
X5131561Y5471921D01*
X4977384Y5456936D02*
G01*
X4972811Y5454650D01*
X4968240Y5450078D01*
X4965954Y5445505D01*
X4965954Y5436615D01*
X4968240Y5432044D01*
X4972811Y5427471D01*
X4977384Y5425186D01*
X4984241Y5422900D01*
X4995672Y5422900D01*
X5002529Y5425186D01*
X5006847Y5427471D01*
X5011420Y5432044D01*
X5013706Y5436615D01*
X5013706Y5445505D01*
X5011420Y5450078D01*
X5006847Y5454650D01*
X5002529Y5456936D01*
X4965954Y5494781D02*
G01*
X4997958Y5471921D01*
X4997958Y5505957D01*
X4965954Y5494781D02*
G01*
X5013706Y5494781D01*
X3923284Y5456936D02*
G01*
X3918711Y5454650D01*
X3914140Y5450078D01*
X3911854Y5445505D01*
X3911854Y5436615D01*
X3914140Y5432044D01*
X3918711Y5427471D01*
X3923284Y5425186D01*
X3930141Y5422900D01*
X3941572Y5422900D01*
X3948429Y5425186D01*
X3952747Y5427471D01*
X3957320Y5432044D01*
X3959606Y5436615D01*
X3959606Y5445505D01*
X3957320Y5450078D01*
X3952747Y5454650D01*
X3948429Y5456936D01*
X3911854Y5499354D02*
G01*
X3911854Y5476494D01*
X3932427Y5474207D01*
X3930141Y5476494D01*
X3927856Y5483352D01*
X3927856Y5490210D01*
X3930141Y5497068D01*
X3934713Y5501639D01*
X3941572Y5503926D01*
X3946143Y5503926D01*
X3952747Y5501639D01*
X3957320Y5497068D01*
X3959606Y5490210D01*
X3959606Y5483352D01*
X3957320Y5476494D01*
X3955034Y5474207D01*
X3950461Y5471921D01*
X3808984Y5456936D02*
G01*
X3804411Y5454650D01*
X3799840Y5450078D01*
X3797554Y5445505D01*
X3797554Y5436615D01*
X3799840Y5432044D01*
X3804411Y5427471D01*
X3808984Y5425186D01*
X3815841Y5422900D01*
X3827272Y5422900D01*
X3834129Y5425186D01*
X3838447Y5427471D01*
X3843020Y5432044D01*
X3845306Y5436615D01*
X3845306Y5445505D01*
X3843020Y5450078D01*
X3838447Y5454650D01*
X3834129Y5456936D01*
X3804411Y5499354D02*
G01*
X3799840Y5497068D01*
X3797554Y5490210D01*
X3797554Y5485637D01*
X3799840Y5478779D01*
X3806697Y5474207D01*
X3818127Y5471921D01*
X3829558Y5471921D01*
X3838447Y5474207D01*
X3843020Y5478779D01*
X3845306Y5485637D01*
X3845306Y5487923D01*
X3843020Y5494781D01*
X3838447Y5499354D01*
X3831843Y5501639D01*
X3829558Y5501639D01*
X3822700Y5499354D01*
X3818127Y5494781D01*
X3815841Y5487923D01*
X3815841Y5485637D01*
X3818127Y5478779D01*
X3822700Y5474207D01*
X3829558Y5471921D01*
X4263136Y6147815D02*
G01*
X4260850Y6152387D01*
X4256277Y6156960D01*
X4251706Y6159245D01*
X4242815Y6159245D01*
X4238243Y6156960D01*
X4233672Y6152387D01*
X4231386Y6147815D01*
X4229100Y6140957D01*
X4229100Y6129528D01*
X4231386Y6122670D01*
X4233672Y6118352D01*
X4238243Y6113779D01*
X4242815Y6111494D01*
X4251706Y6111494D01*
X4256277Y6113779D01*
X4260850Y6118352D01*
X4263136Y6122670D01*
X4289552Y6159245D02*
G01*
X4282693Y6156960D01*
X4280408Y6152387D01*
X4280408Y6147815D01*
X4282693Y6143244D01*
X4287265Y6140957D01*
X4296409Y6138671D01*
X4303268Y6136386D01*
X4307840Y6131813D01*
X4310125Y6127242D01*
X4310125Y6120637D01*
X4307840Y6116065D01*
X4305554Y6113779D01*
X4298695Y6111494D01*
X4289552Y6111494D01*
X4282693Y6113779D01*
X4280408Y6116065D01*
X4278122Y6120637D01*
X4278122Y6127242D01*
X4280408Y6131813D01*
X4284979Y6136386D01*
X4291838Y6138671D01*
X4300981Y6140957D01*
X4305554Y6143244D01*
X4307840Y6147815D01*
X4307840Y6152387D01*
X4305554Y6156960D01*
X4298695Y6159245D01*
X4289552Y6159245D01*
X3259836Y6439915D02*
G01*
X3257550Y6444487D01*
X3252977Y6449060D01*
X3248406Y6451345D01*
X3239515Y6451345D01*
X3234943Y6449060D01*
X3230372Y6444487D01*
X3228086Y6439915D01*
X3225800Y6433057D01*
X3225800Y6421628D01*
X3228086Y6414770D01*
X3230372Y6410452D01*
X3234943Y6405879D01*
X3239515Y6403594D01*
X3248406Y6403594D01*
X3252977Y6405879D01*
X3257550Y6410452D01*
X3259836Y6414770D01*
X3274822Y6442202D02*
G01*
X3279393Y6444487D01*
X3286252Y6451345D01*
X3286252Y6403594D01*
X3314954Y6451345D02*
G01*
X3308095Y6449060D01*
X3303524Y6442202D01*
X3301238Y6430771D01*
X3301238Y6423913D01*
X3303524Y6412737D01*
X3308095Y6405879D01*
X3314954Y6403594D01*
X3319525Y6403594D01*
X3326129Y6405879D01*
X3330702Y6412737D01*
X3332988Y6423913D01*
X3332988Y6430771D01*
X3330702Y6442202D01*
X3326129Y6449060D01*
X3319525Y6451345D01*
X3314954Y6451345D01*
X3894836Y6351015D02*
G01*
X3892550Y6355587D01*
X3887977Y6360160D01*
X3883406Y6362445D01*
X3874515Y6362445D01*
X3869943Y6360160D01*
X3865372Y6355587D01*
X3863086Y6351015D01*
X3860800Y6344157D01*
X3860800Y6332728D01*
X3863086Y6325870D01*
X3865372Y6321552D01*
X3869943Y6316979D01*
X3874515Y6314694D01*
X3883406Y6314694D01*
X3887977Y6316979D01*
X3892550Y6321552D01*
X3894836Y6325870D01*
X3909822Y6353302D02*
G01*
X3914393Y6355587D01*
X3921252Y6362445D01*
X3921252Y6314694D01*
X3936238Y6353302D02*
G01*
X3940809Y6355587D01*
X3947668Y6362445D01*
X3947668Y6314694D01*
X4542536Y5931915D02*
G01*
X4540250Y5936487D01*
X4535677Y5941060D01*
X4531106Y5943345D01*
X4522215Y5943345D01*
X4517643Y5941060D01*
X4513072Y5936487D01*
X4510786Y5931915D01*
X4508500Y5925057D01*
X4508500Y5913628D01*
X4510786Y5906770D01*
X4513072Y5902452D01*
X4517643Y5897879D01*
X4522215Y5895594D01*
X4531106Y5895594D01*
X4535677Y5897879D01*
X4540250Y5902452D01*
X4542536Y5906770D01*
X4557522Y5934202D02*
G01*
X4562093Y5936487D01*
X4568952Y5943345D01*
X4568952Y5895594D01*
X4586224Y5931915D02*
G01*
X4586224Y5934202D01*
X4588509Y5938773D01*
X4590795Y5941060D01*
X4595368Y5943345D01*
X4604511Y5943345D01*
X4608829Y5941060D01*
X4611115Y5938773D01*
X4613402Y5934202D01*
X4613402Y5929629D01*
X4611115Y5925057D01*
X4606797Y5918200D01*
X4583938Y5895594D01*
X4615688Y5895594D01*
X4466336Y6592315D02*
G01*
X4464050Y6596887D01*
X4459477Y6601460D01*
X4454906Y6603745D01*
X4446015Y6603745D01*
X4441443Y6601460D01*
X4436872Y6596887D01*
X4434586Y6592315D01*
X4432300Y6585458D01*
X4432300Y6574028D01*
X4434586Y6567170D01*
X4436872Y6562852D01*
X4441443Y6558279D01*
X4446015Y6555994D01*
X4454906Y6555994D01*
X4459477Y6558279D01*
X4464050Y6562852D01*
X4466336Y6567170D01*
X4481322Y6594602D02*
G01*
X4485893Y6596887D01*
X4492752Y6603745D01*
X4492752Y6555994D01*
X4512309Y6603745D02*
G01*
X4537202Y6603745D01*
X4523740Y6585458D01*
X4530597Y6585458D01*
X4534915Y6583171D01*
X4537202Y6580886D01*
X4539488Y6574028D01*
X4539488Y6569455D01*
X4537202Y6562852D01*
X4532629Y6558279D01*
X4526025Y6555994D01*
X4519168Y6555994D01*
X4512309Y6558279D01*
X4510024Y6560565D01*
X4507738Y6565137D01*
X3247136Y5868415D02*
G01*
X3244850Y5872987D01*
X3240277Y5877560D01*
X3235706Y5879845D01*
X3226815Y5879845D01*
X3222243Y5877560D01*
X3217672Y5872987D01*
X3215386Y5868415D01*
X3213100Y5861557D01*
X3213100Y5850128D01*
X3215386Y5843270D01*
X3217672Y5838952D01*
X3222243Y5834379D01*
X3226815Y5832094D01*
X3235706Y5832094D01*
X3240277Y5834379D01*
X3244850Y5838952D01*
X3247136Y5843270D01*
X3262122Y5870702D02*
G01*
X3266693Y5872987D01*
X3273552Y5879845D01*
X3273552Y5832094D01*
X3315715Y5879845D02*
G01*
X3293109Y5879845D01*
X3290824Y5859271D01*
X3293109Y5861557D01*
X3299968Y5863844D01*
X3306825Y5863844D01*
X3313429Y5861557D01*
X3318002Y5856986D01*
X3320288Y5850128D01*
X3320288Y5845555D01*
X3318002Y5838952D01*
X3313429Y5834379D01*
X3306825Y5832094D01*
X3299968Y5832094D01*
X3293109Y5834379D01*
X3290824Y5836665D01*
X3288538Y5841237D01*
X3247136Y5741415D02*
G01*
X3244850Y5745987D01*
X3240277Y5750560D01*
X3235706Y5752845D01*
X3226815Y5752845D01*
X3222243Y5750560D01*
X3217672Y5745987D01*
X3215386Y5741415D01*
X3213100Y5734557D01*
X3213100Y5723128D01*
X3215386Y5716270D01*
X3217672Y5711952D01*
X3222243Y5707379D01*
X3226815Y5705094D01*
X3235706Y5705094D01*
X3240277Y5707379D01*
X3244850Y5711952D01*
X3247136Y5716270D01*
X3262122Y5743702D02*
G01*
X3266693Y5745987D01*
X3273552Y5752845D01*
X3273552Y5705094D01*
X3315715Y5745987D02*
G01*
X3313429Y5750560D01*
X3306825Y5752845D01*
X3302254Y5752845D01*
X3295395Y5750560D01*
X3290824Y5743702D01*
X3288538Y5732271D01*
X3288538Y5720842D01*
X3290824Y5711952D01*
X3295395Y5707379D01*
X3302254Y5705094D01*
X3304540Y5705094D01*
X3311397Y5707379D01*
X3315715Y5711952D01*
X3318002Y5718555D01*
X3318002Y5720842D01*
X3315715Y5727700D01*
X3311397Y5732271D01*
X3304540Y5734557D01*
X3302254Y5734557D01*
X3295395Y5732271D01*
X3290824Y5727700D01*
X3288538Y5720842D01*
X3247136Y5627115D02*
G01*
X3244850Y5631687D01*
X3240277Y5636260D01*
X3235706Y5638545D01*
X3226815Y5638545D01*
X3222243Y5636260D01*
X3217672Y5631687D01*
X3215386Y5627115D01*
X3213100Y5620257D01*
X3213100Y5608828D01*
X3215386Y5601970D01*
X3217672Y5597652D01*
X3222243Y5593079D01*
X3226815Y5590794D01*
X3235706Y5590794D01*
X3240277Y5593079D01*
X3244850Y5597652D01*
X3247136Y5601970D01*
X3262122Y5629402D02*
G01*
X3266693Y5631687D01*
X3273552Y5638545D01*
X3273552Y5590794D01*
X3320288Y5638545D02*
G01*
X3297681Y5590794D01*
X3288538Y5638545D02*
G01*
X3320288Y5638545D01*
X3247136Y5525515D02*
G01*
X3244850Y5530087D01*
X3240277Y5534660D01*
X3235706Y5536945D01*
X3226815Y5536945D01*
X3222243Y5534660D01*
X3217672Y5530087D01*
X3215386Y5525515D01*
X3213100Y5518657D01*
X3213100Y5507228D01*
X3215386Y5500370D01*
X3217672Y5496052D01*
X3222243Y5491479D01*
X3226815Y5489194D01*
X3235706Y5489194D01*
X3240277Y5491479D01*
X3244850Y5496052D01*
X3247136Y5500370D01*
X3262122Y5527802D02*
G01*
X3266693Y5530087D01*
X3273552Y5536945D01*
X3273552Y5489194D01*
X3299968Y5536945D02*
G01*
X3293109Y5534660D01*
X3290824Y5530087D01*
X3290824Y5525515D01*
X3293109Y5520944D01*
X3297681Y5518657D01*
X3306825Y5516371D01*
X3313429Y5514086D01*
X3318002Y5509513D01*
X3320288Y5504942D01*
X3320288Y5498337D01*
X3318002Y5493765D01*
X3315715Y5491479D01*
X3309111Y5489194D01*
X3299968Y5489194D01*
X3293109Y5491479D01*
X3290824Y5493765D01*
X3288538Y5498337D01*
X3288538Y5504942D01*
X3290824Y5509513D01*
X3295395Y5514086D01*
X3302254Y5516371D01*
X3311397Y5518657D01*
X3315715Y5520944D01*
X3318002Y5525515D01*
X3318002Y5530087D01*
X3315715Y5534660D01*
X3309111Y5536945D01*
X3299968Y5536945D01*
X2802636Y6401815D02*
G01*
X2800350Y6406387D01*
X2795777Y6410960D01*
X2791206Y6413245D01*
X2782315Y6413245D01*
X2777743Y6410960D01*
X2773172Y6406387D01*
X2770886Y6401815D01*
X2768600Y6394957D01*
X2768600Y6383528D01*
X2770886Y6376670D01*
X2773172Y6372352D01*
X2777743Y6367779D01*
X2782315Y6365494D01*
X2791206Y6365494D01*
X2795777Y6367779D01*
X2800350Y6372352D01*
X2802636Y6376670D01*
X2819908Y6401815D02*
G01*
X2819908Y6404102D01*
X2822193Y6408673D01*
X2824479Y6410960D01*
X2829052Y6413245D01*
X2838195Y6413245D01*
X2842768Y6410960D01*
X2845054Y6408673D01*
X2847340Y6404102D01*
X2847340Y6399529D01*
X2845054Y6394957D01*
X2840481Y6388100D01*
X2817622Y6365494D01*
X2849625Y6365494D01*
X2878074Y6413245D02*
G01*
X2871215Y6410960D01*
X2866897Y6404102D01*
X2864611Y6392671D01*
X2864611Y6385813D01*
X2866897Y6374637D01*
X2871215Y6367779D01*
X2878074Y6365494D01*
X2882645Y6365494D01*
X2889504Y6367779D01*
X2894075Y6374637D01*
X2896361Y6385813D01*
X2896361Y6392671D01*
X2894075Y6404102D01*
X2889504Y6410960D01*
X2882645Y6413245D01*
X2878074Y6413245D01*
X2828036Y6528815D02*
G01*
X2825750Y6533387D01*
X2821177Y6537960D01*
X2816606Y6540245D01*
X2807715Y6540245D01*
X2803143Y6537960D01*
X2798572Y6533387D01*
X2796286Y6528815D01*
X2794000Y6521957D01*
X2794000Y6510528D01*
X2796286Y6503670D01*
X2798572Y6499352D01*
X2803143Y6494779D01*
X2807715Y6492494D01*
X2816606Y6492494D01*
X2821177Y6494779D01*
X2825750Y6499352D01*
X2828036Y6503670D01*
X2845308Y6528815D02*
G01*
X2845308Y6531102D01*
X2847593Y6535673D01*
X2849879Y6537960D01*
X2854452Y6540245D01*
X2863595Y6540245D01*
X2868168Y6537960D01*
X2870454Y6535673D01*
X2872740Y6531102D01*
X2872740Y6526529D01*
X2870454Y6521957D01*
X2865881Y6515100D01*
X2843022Y6492494D01*
X2875025Y6492494D01*
X2890011Y6531102D02*
G01*
X2894329Y6533387D01*
X2901188Y6540245D01*
X2901188Y6492494D01*
X2802636Y6300215D02*
G01*
X2800350Y6304787D01*
X2795777Y6309360D01*
X2791206Y6311645D01*
X2782315Y6311645D01*
X2777743Y6309360D01*
X2773172Y6304787D01*
X2770886Y6300215D01*
X2768600Y6293357D01*
X2768600Y6281928D01*
X2770886Y6275070D01*
X2773172Y6270752D01*
X2777743Y6266179D01*
X2782315Y6263894D01*
X2791206Y6263894D01*
X2795777Y6266179D01*
X2800350Y6270752D01*
X2802636Y6275070D01*
X2819908Y6300215D02*
G01*
X2819908Y6302502D01*
X2822193Y6307073D01*
X2824479Y6309360D01*
X2829052Y6311645D01*
X2838195Y6311645D01*
X2842768Y6309360D01*
X2845054Y6307073D01*
X2847340Y6302502D01*
X2847340Y6297929D01*
X2845054Y6293357D01*
X2840481Y6286500D01*
X2817622Y6263894D01*
X2849625Y6263894D01*
X2866897Y6300215D02*
G01*
X2866897Y6302502D01*
X2868929Y6307073D01*
X2871215Y6309360D01*
X2875788Y6311645D01*
X2884931Y6311645D01*
X2889504Y6309360D01*
X2891790Y6307073D01*
X2894075Y6302502D01*
X2894075Y6297929D01*
X2891790Y6293357D01*
X2887218Y6286500D01*
X2864611Y6263894D01*
X2896361Y6263894D01*
X5228336Y6097015D02*
G01*
X5226050Y6101587D01*
X5221477Y6106160D01*
X5216906Y6108445D01*
X5208015Y6108445D01*
X5203443Y6106160D01*
X5198872Y6101587D01*
X5196586Y6097015D01*
X5194300Y6090157D01*
X5194300Y6078728D01*
X5196586Y6071870D01*
X5198872Y6067552D01*
X5203443Y6062979D01*
X5208015Y6060694D01*
X5216906Y6060694D01*
X5221477Y6062979D01*
X5226050Y6067552D01*
X5228336Y6071870D01*
X5245608Y6097015D02*
G01*
X5245608Y6099302D01*
X5247893Y6103873D01*
X5250179Y6106160D01*
X5254752Y6108445D01*
X5263895Y6108445D01*
X5268468Y6106160D01*
X5270754Y6103873D01*
X5273040Y6099302D01*
X5273040Y6094729D01*
X5270754Y6090157D01*
X5266181Y6083300D01*
X5243322Y6060694D01*
X5275325Y6060694D01*
X5294629Y6108445D02*
G01*
X5319775Y6108445D01*
X5306059Y6090157D01*
X5312918Y6090157D01*
X5317490Y6087871D01*
X5319775Y6085586D01*
X5322061Y6078728D01*
X5322061Y6074155D01*
X5319775Y6067552D01*
X5315204Y6062979D01*
X5308345Y6060694D01*
X5301488Y6060694D01*
X5294629Y6062979D01*
X5292597Y6065265D01*
X5290311Y6069837D01*
X5431536Y6998715D02*
G01*
X5429250Y7003287D01*
X5424677Y7007860D01*
X5420106Y7010145D01*
X5411215Y7010145D01*
X5406643Y7007860D01*
X5402072Y7003287D01*
X5399786Y6998715D01*
X5397500Y6991858D01*
X5397500Y6980428D01*
X5399786Y6973570D01*
X5402072Y6969252D01*
X5406643Y6964679D01*
X5411215Y6962394D01*
X5420106Y6962394D01*
X5424677Y6964679D01*
X5429250Y6969252D01*
X5431536Y6973570D01*
X5448808Y6998715D02*
G01*
X5448808Y7001002D01*
X5451093Y7005573D01*
X5453379Y7007860D01*
X5457952Y7010145D01*
X5467095Y7010145D01*
X5471668Y7007860D01*
X5473954Y7005573D01*
X5476240Y7001002D01*
X5476240Y6996429D01*
X5473954Y6991858D01*
X5469381Y6985000D01*
X5446522Y6962394D01*
X5478525Y6962394D01*
X5516118Y7010145D02*
G01*
X5493511Y6978142D01*
X5527547Y6978142D01*
X5516118Y7010145D02*
G01*
X5516118Y6962394D01*
X4656836Y6668515D02*
G01*
X4654550Y6673087D01*
X4649977Y6677660D01*
X4645406Y6679945D01*
X4636515Y6679945D01*
X4631943Y6677660D01*
X4627372Y6673087D01*
X4625086Y6668515D01*
X4622800Y6661658D01*
X4622800Y6650228D01*
X4625086Y6643370D01*
X4627372Y6639052D01*
X4631943Y6634479D01*
X4636515Y6632194D01*
X4645406Y6632194D01*
X4649977Y6634479D01*
X4654550Y6639052D01*
X4656836Y6643370D01*
X4674108Y6668515D02*
G01*
X4674108Y6670802D01*
X4676393Y6675373D01*
X4678679Y6677660D01*
X4683252Y6679945D01*
X4692395Y6679945D01*
X4696968Y6677660D01*
X4699254Y6675373D01*
X4701540Y6670802D01*
X4701540Y6666229D01*
X4699254Y6661658D01*
X4694681Y6654800D01*
X4671822Y6632194D01*
X4703825Y6632194D01*
X4745990Y6679945D02*
G01*
X4723129Y6679945D01*
X4721097Y6659371D01*
X4723129Y6661658D01*
X4729988Y6663944D01*
X4736845Y6663944D01*
X4743704Y6661658D01*
X4748275Y6657086D01*
X4750561Y6650228D01*
X4750561Y6645655D01*
X4748275Y6639052D01*
X4743704Y6634479D01*
X4736845Y6632194D01*
X4729988Y6632194D01*
X4723129Y6634479D01*
X4721097Y6636765D01*
X4718811Y6641337D01*
X4656836Y6782815D02*
G01*
X4654550Y6787387D01*
X4649977Y6791960D01*
X4645406Y6794245D01*
X4636515Y6794245D01*
X4631943Y6791960D01*
X4627372Y6787387D01*
X4625086Y6782815D01*
X4622800Y6775958D01*
X4622800Y6764528D01*
X4625086Y6757670D01*
X4627372Y6753352D01*
X4631943Y6748779D01*
X4636515Y6746494D01*
X4645406Y6746494D01*
X4649977Y6748779D01*
X4654550Y6753352D01*
X4656836Y6757670D01*
X4674108Y6782815D02*
G01*
X4674108Y6785102D01*
X4676393Y6789673D01*
X4678679Y6791960D01*
X4683252Y6794245D01*
X4692395Y6794245D01*
X4696968Y6791960D01*
X4699254Y6789673D01*
X4701540Y6785102D01*
X4701540Y6780529D01*
X4699254Y6775958D01*
X4694681Y6769100D01*
X4671822Y6746494D01*
X4703825Y6746494D01*
X4745990Y6787387D02*
G01*
X4743704Y6791960D01*
X4736845Y6794245D01*
X4732274Y6794245D01*
X4725415Y6791960D01*
X4721097Y6785102D01*
X4718811Y6773671D01*
X4718811Y6762242D01*
X4721097Y6753352D01*
X4725415Y6748779D01*
X4732274Y6746494D01*
X4734559Y6746494D01*
X4741418Y6748779D01*
X4745990Y6753352D01*
X4748275Y6759955D01*
X4748275Y6762242D01*
X4745990Y6769100D01*
X4741418Y6773671D01*
X4734559Y6775958D01*
X4732274Y6775958D01*
X4725415Y6773671D01*
X4721097Y6769100D01*
X4718811Y6762242D01*
X4682236Y7214615D02*
G01*
X4679950Y7219187D01*
X4675377Y7223760D01*
X4670806Y7226045D01*
X4661915Y7226045D01*
X4657343Y7223760D01*
X4652772Y7219187D01*
X4650486Y7214615D01*
X4648200Y7207758D01*
X4648200Y7196328D01*
X4650486Y7189470D01*
X4652772Y7185152D01*
X4657343Y7180579D01*
X4661915Y7178294D01*
X4670806Y7178294D01*
X4675377Y7180579D01*
X4679950Y7185152D01*
X4682236Y7189470D01*
X4699508Y7214615D02*
G01*
X4699508Y7216902D01*
X4701793Y7221473D01*
X4704079Y7223760D01*
X4708652Y7226045D01*
X4717795Y7226045D01*
X4722368Y7223760D01*
X4724654Y7221473D01*
X4726940Y7216902D01*
X4726940Y7212329D01*
X4724654Y7207758D01*
X4720081Y7200900D01*
X4697222Y7178294D01*
X4729225Y7178294D01*
X4775961Y7226045D02*
G01*
X4753102Y7178294D01*
X4744211Y7226045D02*
G01*
X4775961Y7226045D01*
X6003036Y7049515D02*
G01*
X6000750Y7054087D01*
X5996177Y7058660D01*
X5991606Y7060945D01*
X5982715Y7060945D01*
X5978143Y7058660D01*
X5973572Y7054087D01*
X5971286Y7049515D01*
X5969000Y7042658D01*
X5969000Y7031228D01*
X5971286Y7024370D01*
X5973572Y7020052D01*
X5978143Y7015479D01*
X5982715Y7013194D01*
X5991606Y7013194D01*
X5996177Y7015479D01*
X6000750Y7020052D01*
X6003036Y7024370D01*
X6020308Y7049515D02*
G01*
X6020308Y7051802D01*
X6022593Y7056373D01*
X6024879Y7058660D01*
X6029452Y7060945D01*
X6038595Y7060945D01*
X6043168Y7058660D01*
X6045454Y7056373D01*
X6047740Y7051802D01*
X6047740Y7047229D01*
X6045454Y7042658D01*
X6040881Y7035800D01*
X6018022Y7013194D01*
X6050025Y7013194D01*
X6076188Y7060945D02*
G01*
X6069329Y7058660D01*
X6067297Y7054087D01*
X6067297Y7049515D01*
X6069329Y7044944D01*
X6073902Y7042658D01*
X6083045Y7040371D01*
X6089904Y7038086D01*
X6094475Y7033513D01*
X6096761Y7028942D01*
X6096761Y7022337D01*
X6094475Y7017765D01*
X6092190Y7015479D01*
X6085331Y7013194D01*
X6076188Y7013194D01*
X6069329Y7015479D01*
X6067297Y7017765D01*
X6065011Y7022337D01*
X6065011Y7028942D01*
X6067297Y7033513D01*
X6071615Y7038086D01*
X6078474Y7040371D01*
X6087618Y7042658D01*
X6092190Y7044944D01*
X6094475Y7049515D01*
X6094475Y7054087D01*
X6092190Y7058660D01*
X6085331Y7060945D01*
X6076188Y7060945D01*
X5647436Y6846315D02*
G01*
X5645150Y6850887D01*
X5640577Y6855460D01*
X5636006Y6857745D01*
X5627115Y6857745D01*
X5622543Y6855460D01*
X5617972Y6850887D01*
X5615686Y6846315D01*
X5613400Y6839458D01*
X5613400Y6828028D01*
X5615686Y6821170D01*
X5617972Y6816852D01*
X5622543Y6812279D01*
X5627115Y6809994D01*
X5636006Y6809994D01*
X5640577Y6812279D01*
X5645150Y6816852D01*
X5647436Y6821170D01*
X5664708Y6846315D02*
G01*
X5664708Y6848602D01*
X5666993Y6853173D01*
X5669279Y6855460D01*
X5673852Y6857745D01*
X5682995Y6857745D01*
X5687568Y6855460D01*
X5689854Y6853173D01*
X5692140Y6848602D01*
X5692140Y6844029D01*
X5689854Y6839458D01*
X5685281Y6832600D01*
X5662422Y6809994D01*
X5694425Y6809994D01*
X5738875Y6841744D02*
G01*
X5736590Y6834886D01*
X5732018Y6830313D01*
X5725159Y6828028D01*
X5722874Y6828028D01*
X5716015Y6830313D01*
X5711697Y6834886D01*
X5709411Y6841744D01*
X5709411Y6844029D01*
X5711697Y6850887D01*
X5716015Y6855460D01*
X5722874Y6857745D01*
X5725159Y6857745D01*
X5732018Y6855460D01*
X5736590Y6850887D01*
X5738875Y6841744D01*
X5738875Y6830313D01*
X5736590Y6819137D01*
X5732018Y6812279D01*
X5725159Y6809994D01*
X5720588Y6809994D01*
X5713729Y6812279D01*
X5711697Y6816852D01*
X7034784Y5964936D02*
G01*
X7030211Y5962650D01*
X7025640Y5958078D01*
X7023354Y5953505D01*
X7023354Y5944615D01*
X7025640Y5940044D01*
X7030211Y5935471D01*
X7034784Y5933186D01*
X7041641Y5930900D01*
X7053072Y5930900D01*
X7059929Y5933186D01*
X7064247Y5935471D01*
X7068820Y5940044D01*
X7071106Y5944615D01*
X7071106Y5953505D01*
X7068820Y5958078D01*
X7064247Y5962650D01*
X7059929Y5964936D01*
X7023354Y5984494D02*
G01*
X7023354Y6009639D01*
X7041641Y5995923D01*
X7041641Y6002781D01*
X7043927Y6007354D01*
X7046213Y6009639D01*
X7053072Y6011926D01*
X7057643Y6011926D01*
X7064247Y6009639D01*
X7068820Y6005068D01*
X7071106Y5998210D01*
X7071106Y5991352D01*
X7068820Y5984494D01*
X7066534Y5982207D01*
X7061961Y5979921D01*
X7034784Y6029197D02*
G01*
X7032497Y6029197D01*
X7027925Y6031229D01*
X7025640Y6033515D01*
X7023354Y6038087D01*
X7023354Y6047231D01*
X7025640Y6051804D01*
X7027925Y6054089D01*
X7032497Y6056376D01*
X7037070Y6056376D01*
X7041641Y6054089D01*
X7048500Y6049518D01*
X7071106Y6026912D01*
X7071106Y6058662D01*
X7146036Y6757415D02*
G01*
X7143750Y6761987D01*
X7139177Y6766560D01*
X7134606Y6768845D01*
X7125715Y6768845D01*
X7121143Y6766560D01*
X7116572Y6761987D01*
X7114286Y6757415D01*
X7112000Y6750558D01*
X7112000Y6739128D01*
X7114286Y6732270D01*
X7116572Y6727952D01*
X7121143Y6723379D01*
X7125715Y6721094D01*
X7134606Y6721094D01*
X7139177Y6723379D01*
X7143750Y6727952D01*
X7146036Y6732270D01*
X7165593Y6768845D02*
G01*
X7190740Y6768845D01*
X7177024Y6750558D01*
X7183881Y6750558D01*
X7188454Y6748271D01*
X7190740Y6745986D01*
X7193025Y6739128D01*
X7193025Y6734555D01*
X7190740Y6727952D01*
X7186168Y6723379D01*
X7179309Y6721094D01*
X7172452Y6721094D01*
X7165593Y6723379D01*
X7163308Y6725665D01*
X7161022Y6730237D01*
X7212329Y6768845D02*
G01*
X7237475Y6768845D01*
X7223759Y6750558D01*
X7230618Y6750558D01*
X7235190Y6748271D01*
X7237475Y6745986D01*
X7239761Y6739128D01*
X7239761Y6734555D01*
X7237475Y6727952D01*
X7232904Y6723379D01*
X7226045Y6721094D01*
X7219188Y6721094D01*
X7212329Y6723379D01*
X7210297Y6725665D01*
X7208011Y6730237D01*
X6577584Y6460236D02*
G01*
X6573011Y6457950D01*
X6568440Y6453378D01*
X6566154Y6448805D01*
X6566154Y6439915D01*
X6568440Y6435344D01*
X6573011Y6430771D01*
X6577584Y6428486D01*
X6584441Y6426200D01*
X6595872Y6426200D01*
X6602729Y6428486D01*
X6607047Y6430771D01*
X6611620Y6435344D01*
X6613906Y6439915D01*
X6613906Y6448805D01*
X6611620Y6453378D01*
X6607047Y6457950D01*
X6602729Y6460236D01*
X6566154Y6479794D02*
G01*
X6566154Y6504939D01*
X6584441Y6491223D01*
X6584441Y6498081D01*
X6586727Y6502654D01*
X6589013Y6504939D01*
X6595872Y6507226D01*
X6600443Y6507226D01*
X6607047Y6504939D01*
X6611620Y6500368D01*
X6613906Y6493510D01*
X6613906Y6486652D01*
X6611620Y6479794D01*
X6609334Y6477507D01*
X6604761Y6475221D01*
X6566154Y6544818D02*
G01*
X6598158Y6522212D01*
X6598158Y6556247D01*
X6566154Y6544818D02*
G01*
X6613906Y6544818D01*
X6066536Y6668515D02*
G01*
X6064250Y6673087D01*
X6059677Y6677660D01*
X6055106Y6679945D01*
X6046215Y6679945D01*
X6041643Y6677660D01*
X6037072Y6673087D01*
X6034786Y6668515D01*
X6032500Y6661658D01*
X6032500Y6650228D01*
X6034786Y6643370D01*
X6037072Y6639052D01*
X6041643Y6634479D01*
X6046215Y6632194D01*
X6055106Y6632194D01*
X6059677Y6634479D01*
X6064250Y6639052D01*
X6066536Y6643370D01*
X6086093Y6679945D02*
G01*
X6111240Y6679945D01*
X6097524Y6661658D01*
X6104381Y6661658D01*
X6108954Y6659371D01*
X6111240Y6657086D01*
X6113525Y6650228D01*
X6113525Y6645655D01*
X6111240Y6639052D01*
X6106668Y6634479D01*
X6099809Y6632194D01*
X6092952Y6632194D01*
X6086093Y6634479D01*
X6083808Y6636765D01*
X6081522Y6641337D01*
X6155690Y6679945D02*
G01*
X6132829Y6679945D01*
X6130797Y6659371D01*
X6132829Y6661658D01*
X6139688Y6663944D01*
X6146545Y6663944D01*
X6153404Y6661658D01*
X6157975Y6657086D01*
X6160261Y6650228D01*
X6160261Y6645655D01*
X6157975Y6639052D01*
X6153404Y6634479D01*
X6146545Y6632194D01*
X6139688Y6632194D01*
X6132829Y6634479D01*
X6130797Y6636765D01*
X6128511Y6641337D01*
X6066536Y6808215D02*
G01*
X6064250Y6812787D01*
X6059677Y6817360D01*
X6055106Y6819645D01*
X6046215Y6819645D01*
X6041643Y6817360D01*
X6037072Y6812787D01*
X6034786Y6808215D01*
X6032500Y6801358D01*
X6032500Y6789928D01*
X6034786Y6783070D01*
X6037072Y6778752D01*
X6041643Y6774179D01*
X6046215Y6771894D01*
X6055106Y6771894D01*
X6059677Y6774179D01*
X6064250Y6778752D01*
X6066536Y6783070D01*
X6086093Y6819645D02*
G01*
X6111240Y6819645D01*
X6097524Y6801358D01*
X6104381Y6801358D01*
X6108954Y6799071D01*
X6111240Y6796786D01*
X6113525Y6789928D01*
X6113525Y6785355D01*
X6111240Y6778752D01*
X6106668Y6774179D01*
X6099809Y6771894D01*
X6092952Y6771894D01*
X6086093Y6774179D01*
X6083808Y6776465D01*
X6081522Y6781037D01*
X6155690Y6812787D02*
G01*
X6153404Y6817360D01*
X6146545Y6819645D01*
X6141974Y6819645D01*
X6135115Y6817360D01*
X6130797Y6810502D01*
X6128511Y6799071D01*
X6128511Y6787642D01*
X6130797Y6778752D01*
X6135115Y6774179D01*
X6141974Y6771894D01*
X6144259Y6771894D01*
X6151118Y6774179D01*
X6155690Y6778752D01*
X6157975Y6785355D01*
X6157975Y6787642D01*
X6155690Y6794500D01*
X6151118Y6799071D01*
X6144259Y6801358D01*
X6141974Y6801358D01*
X6135115Y6799071D01*
X6130797Y6794500D01*
X6128511Y6787642D01*
X6120384Y6892036D02*
G01*
X6115811Y6889750D01*
X6111240Y6885178D01*
X6108954Y6880605D01*
X6108954Y6871715D01*
X6111240Y6867144D01*
X6115811Y6862571D01*
X6120384Y6860286D01*
X6127241Y6858000D01*
X6138672Y6858000D01*
X6145529Y6860286D01*
X6149847Y6862571D01*
X6154420Y6867144D01*
X6156706Y6871715D01*
X6156706Y6880605D01*
X6154420Y6885178D01*
X6149847Y6889750D01*
X6145529Y6892036D01*
X6108954Y6911594D02*
G01*
X6108954Y6936739D01*
X6127241Y6923023D01*
X6127241Y6929881D01*
X6129527Y6934454D01*
X6131813Y6936739D01*
X6138672Y6939026D01*
X6143243Y6939026D01*
X6149847Y6936739D01*
X6154420Y6932168D01*
X6156706Y6925310D01*
X6156706Y6918452D01*
X6154420Y6911594D01*
X6152134Y6909308D01*
X6147561Y6907021D01*
X6108954Y6985762D02*
G01*
X6156706Y6962902D01*
X6108954Y6954012D02*
G01*
X6108954Y6985762D01*
X2828036Y6643115D02*
G01*
X2825750Y6647687D01*
X2821177Y6652260D01*
X2816606Y6654545D01*
X2807715Y6654545D01*
X2803143Y6652260D01*
X2798572Y6647687D01*
X2796286Y6643115D01*
X2794000Y6636258D01*
X2794000Y6624828D01*
X2796286Y6617970D01*
X2798572Y6613652D01*
X2803143Y6609079D01*
X2807715Y6606794D01*
X2816606Y6606794D01*
X2821177Y6609079D01*
X2825750Y6613652D01*
X2828036Y6617970D01*
X2843022Y6645402D02*
G01*
X2847593Y6647687D01*
X2854452Y6654545D01*
X2854452Y6606794D01*
X2898902Y6638544D02*
G01*
X2896615Y6631686D01*
X2892297Y6627113D01*
X2885440Y6624828D01*
X2883154Y6624828D01*
X2876295Y6627113D01*
X2871724Y6631686D01*
X2869438Y6638544D01*
X2869438Y6640829D01*
X2871724Y6647687D01*
X2876295Y6652260D01*
X2883154Y6654545D01*
X2885440Y6654545D01*
X2892297Y6652260D01*
X2896615Y6647687D01*
X2898902Y6638544D01*
X2898902Y6627113D01*
X2896615Y6615937D01*
X2892297Y6609079D01*
X2885440Y6606794D01*
X2880868Y6606794D01*
X2874009Y6609079D01*
X2871724Y6613652D01*
X4838954Y5778500D02*
G01*
X4886706Y5778500D01*
X4838954Y5778500D02*
G01*
X4838954Y5799073D01*
X4841240Y5805678D01*
X4843525Y5807963D01*
X4848097Y5810250D01*
X4852670Y5810250D01*
X4857241Y5807963D01*
X4859527Y5805678D01*
X4861813Y5799073D01*
X4861813Y5778500D01*
X4861813Y5794502D02*
G01*
X4886706Y5810250D01*
X4848097Y5825236D02*
G01*
X4845811Y5829807D01*
X4838954Y5836665D01*
X4886706Y5836665D01*
X4711954Y5765800D02*
G01*
X4759706Y5765800D01*
X4711954Y5765800D02*
G01*
X4711954Y5786373D01*
X4714240Y5792978D01*
X4716525Y5795263D01*
X4721097Y5797550D01*
X4725670Y5797550D01*
X4730241Y5795263D01*
X4732527Y5792978D01*
X4734813Y5786373D01*
X4734813Y5765800D01*
X4734813Y5781802D02*
G01*
X4759706Y5797550D01*
X4723384Y5814821D02*
G01*
X4721097Y5814821D01*
X4716525Y5817107D01*
X4714240Y5819394D01*
X4711954Y5823965D01*
X4711954Y5833110D01*
X4714240Y5837681D01*
X4716525Y5839968D01*
X4721097Y5842254D01*
X4725670Y5842254D01*
X4730241Y5839968D01*
X4737100Y5835395D01*
X4759706Y5812536D01*
X4759706Y5844539D01*
X4038854Y5422900D02*
G01*
X4086606Y5422900D01*
X4038854Y5422900D02*
G01*
X4038854Y5443473D01*
X4041140Y5450078D01*
X4043425Y5452363D01*
X4047997Y5454650D01*
X4052570Y5454650D01*
X4057141Y5452363D01*
X4059427Y5450078D01*
X4061713Y5443473D01*
X4061713Y5422900D01*
X4061713Y5438902D02*
G01*
X4086606Y5454650D01*
X4038854Y5474207D02*
G01*
X4038854Y5499354D01*
X4057141Y5485637D01*
X4057141Y5492495D01*
X4059427Y5497068D01*
X4061713Y5499354D01*
X4068572Y5501639D01*
X4073143Y5501639D01*
X4079747Y5499354D01*
X4084320Y5494781D01*
X4086606Y5487923D01*
X4086606Y5481065D01*
X4084320Y5474207D01*
X4082034Y5471921D01*
X4077461Y5469636D01*
X1536700Y7175245D02*
G01*
X1536700Y7127494D01*
X1536700Y7175245D02*
G01*
X1557273Y7175245D01*
X1563878Y7172960D01*
X1566163Y7170673D01*
X1568450Y7166102D01*
X1568450Y7161529D01*
X1566163Y7156958D01*
X1563878Y7154671D01*
X1557273Y7152386D01*
X1536700Y7152386D01*
X1552702Y7152386D02*
G01*
X1568450Y7127494D01*
X1610868Y7168387D02*
G01*
X1608581Y7172960D01*
X1601723Y7175245D01*
X1597152Y7175245D01*
X1590294Y7172960D01*
X1585721Y7166102D01*
X1583436Y7154671D01*
X1583436Y7143242D01*
X1585721Y7134352D01*
X1590294Y7129779D01*
X1597152Y7127494D01*
X1599437Y7127494D01*
X1606295Y7129779D01*
X1610868Y7134352D01*
X1613154Y7140955D01*
X1613154Y7143242D01*
X1610868Y7150100D01*
X1606295Y7154671D01*
X1599437Y7156958D01*
X1597152Y7156958D01*
X1590294Y7154671D01*
X1585721Y7150100D01*
X1583436Y7143242D01*
X1549400Y5448045D02*
G01*
X1549400Y5400294D01*
X1549400Y5448045D02*
G01*
X1569973Y5448045D01*
X1576578Y5445760D01*
X1578863Y5443473D01*
X1581150Y5438902D01*
X1581150Y5434329D01*
X1578863Y5429757D01*
X1576578Y5427471D01*
X1569973Y5425186D01*
X1549400Y5425186D01*
X1565402Y5425186D02*
G01*
X1581150Y5400294D01*
X1628139Y5448045D02*
G01*
X1605279Y5400294D01*
X1596136Y5448045D02*
G01*
X1628139Y5448045D01*
X4457700Y7429245D02*
G01*
X4457700Y7381494D01*
X4457700Y7429245D02*
G01*
X4478274Y7429245D01*
X4484877Y7426960D01*
X4487163Y7424673D01*
X4489450Y7420102D01*
X4489450Y7415529D01*
X4487163Y7410958D01*
X4484877Y7408671D01*
X4478274Y7406386D01*
X4457700Y7406386D01*
X4473702Y7406386D02*
G01*
X4489450Y7381494D01*
X4515865Y7429245D02*
G01*
X4509008Y7426960D01*
X4506722Y7422387D01*
X4506722Y7417815D01*
X4509008Y7413244D01*
X4513579Y7410958D01*
X4522724Y7408671D01*
X4529581Y7406386D01*
X4534154Y7401813D01*
X4536440Y7397242D01*
X4536440Y7390637D01*
X4534154Y7386065D01*
X4531868Y7383779D01*
X4525009Y7381494D01*
X4515865Y7381494D01*
X4509008Y7383779D01*
X4506722Y7386065D01*
X4504436Y7390637D01*
X4504436Y7397242D01*
X4506722Y7401813D01*
X4511293Y7406386D01*
X4518152Y7408671D01*
X4527295Y7410958D01*
X4531868Y7413244D01*
X4534154Y7417815D01*
X4534154Y7422387D01*
X4531868Y7426960D01*
X4525009Y7429245D01*
X4515865Y7429245D01*
X4521200Y7010145D02*
G01*
X4521200Y6962394D01*
X4521200Y7010145D02*
G01*
X4541774Y7010145D01*
X4548377Y7007860D01*
X4550663Y7005573D01*
X4552950Y7001002D01*
X4552950Y6996429D01*
X4550663Y6991858D01*
X4548377Y6989571D01*
X4541774Y6987286D01*
X4521200Y6987286D01*
X4537202Y6987286D02*
G01*
X4552950Y6962394D01*
X4597654Y6994144D02*
G01*
X4595368Y6987286D01*
X4590795Y6982713D01*
X4583938Y6980428D01*
X4581652Y6980428D01*
X4574793Y6982713D01*
X4570222Y6987286D01*
X4567936Y6994144D01*
X4567936Y6996429D01*
X4570222Y7003287D01*
X4574793Y7007860D01*
X4581652Y7010145D01*
X4583938Y7010145D01*
X4590795Y7007860D01*
X4595368Y7003287D01*
X4597654Y6994144D01*
X4597654Y6982713D01*
X4595368Y6971537D01*
X4590795Y6964679D01*
X4583938Y6962394D01*
X4579365Y6962394D01*
X4572508Y6964679D01*
X4570222Y6969252D01*
X4775454Y6172200D02*
G01*
X4823206Y6172200D01*
X4775454Y6172200D02*
G01*
X4775454Y6192773D01*
X4777740Y6199378D01*
X4780025Y6201663D01*
X4784597Y6203950D01*
X4789170Y6203950D01*
X4793741Y6201663D01*
X4796027Y6199378D01*
X4798313Y6192773D01*
X4798313Y6172200D01*
X4798313Y6188202D02*
G01*
X4823206Y6203950D01*
X4784597Y6218936D02*
G01*
X4782311Y6223507D01*
X4775454Y6230365D01*
X4823206Y6230365D01*
X4775454Y6259068D02*
G01*
X4777740Y6252210D01*
X4784597Y6247637D01*
X4796027Y6245352D01*
X4802886Y6245352D01*
X4814061Y6247637D01*
X4820920Y6252210D01*
X4823206Y6259068D01*
X4823206Y6263639D01*
X4820920Y6270497D01*
X4814061Y6274815D01*
X4802886Y6277102D01*
X4796027Y6277102D01*
X4784597Y6274815D01*
X4777740Y6270497D01*
X4775454Y6263639D01*
X4775454Y6259068D01*
X3175254Y6705600D02*
G01*
X3223006Y6705600D01*
X3175254Y6705600D02*
G01*
X3175254Y6726173D01*
X3177540Y6732778D01*
X3179825Y6735063D01*
X3184397Y6737350D01*
X3188970Y6737350D01*
X3193541Y6735063D01*
X3195827Y6732778D01*
X3198113Y6726173D01*
X3198113Y6705600D01*
X3198113Y6721602D02*
G01*
X3223006Y6737350D01*
X3184397Y6752336D02*
G01*
X3182111Y6756908D01*
X3175254Y6763765D01*
X3223006Y6763765D01*
X3184397Y6778752D02*
G01*
X3182111Y6783323D01*
X3175254Y6790181D01*
X3223006Y6790181D01*
X2959100Y7099045D02*
G01*
X2959100Y7051294D01*
X2959100Y7099045D02*
G01*
X2979674Y7099045D01*
X2986277Y7096760D01*
X2988563Y7094473D01*
X2990850Y7089902D01*
X2990850Y7085329D01*
X2988563Y7080758D01*
X2986277Y7078471D01*
X2979674Y7076186D01*
X2959100Y7076186D01*
X2975102Y7076186D02*
G01*
X2990850Y7051294D01*
X3005836Y7089902D02*
G01*
X3010408Y7092187D01*
X3017265Y7099045D01*
X3017265Y7051294D01*
X3034538Y7087615D02*
G01*
X3034538Y7089902D01*
X3036824Y7094473D01*
X3039109Y7096760D01*
X3043681Y7099045D01*
X3052825Y7099045D01*
X3057397Y7096760D01*
X3059429Y7094473D01*
X3061715Y7089902D01*
X3061715Y7085329D01*
X3059429Y7080758D01*
X3055111Y7073900D01*
X3032252Y7051294D01*
X3064002Y7051294D01*
X3136900Y7391145D02*
G01*
X3136900Y7343394D01*
X3136900Y7391145D02*
G01*
X3157474Y7391145D01*
X3164077Y7388860D01*
X3166363Y7386573D01*
X3168650Y7382002D01*
X3168650Y7377429D01*
X3166363Y7372858D01*
X3164077Y7370571D01*
X3157474Y7368286D01*
X3136900Y7368286D01*
X3152902Y7368286D02*
G01*
X3168650Y7343394D01*
X3183636Y7382002D02*
G01*
X3188208Y7384287D01*
X3195065Y7391145D01*
X3195065Y7343394D01*
X3214624Y7391145D02*
G01*
X3239515Y7391145D01*
X3226054Y7372858D01*
X3232911Y7372858D01*
X3237229Y7370571D01*
X3239515Y7368286D01*
X3241802Y7361428D01*
X3241802Y7356855D01*
X3239515Y7350252D01*
X3235197Y7345679D01*
X3228340Y7343394D01*
X3221481Y7343394D01*
X3214624Y7345679D01*
X3212338Y7347965D01*
X3210052Y7352537D01*
X2806700Y6883145D02*
G01*
X2806700Y6835394D01*
X2806700Y6883145D02*
G01*
X2827274Y6883145D01*
X2833877Y6880860D01*
X2836163Y6878573D01*
X2838450Y6874002D01*
X2838450Y6869429D01*
X2836163Y6864858D01*
X2833877Y6862571D01*
X2827274Y6860286D01*
X2806700Y6860286D01*
X2822702Y6860286D02*
G01*
X2838450Y6835394D01*
X2853436Y6874002D02*
G01*
X2858008Y6876287D01*
X2864865Y6883145D01*
X2864865Y6835394D01*
X2902711Y6883145D02*
G01*
X2879852Y6851142D01*
X2913888Y6851142D01*
X2902711Y6883145D02*
G01*
X2902711Y6835394D01*
X3175254Y6527800D02*
G01*
X3223006Y6527800D01*
X3175254Y6527800D02*
G01*
X3175254Y6548373D01*
X3177540Y6554978D01*
X3179825Y6557263D01*
X3184397Y6559550D01*
X3188970Y6559550D01*
X3193541Y6557263D01*
X3195827Y6554978D01*
X3198113Y6548373D01*
X3198113Y6527800D01*
X3198113Y6543802D02*
G01*
X3223006Y6559550D01*
X3184397Y6574536D02*
G01*
X3182111Y6579108D01*
X3175254Y6585965D01*
X3223006Y6585965D01*
X3175254Y6628129D02*
G01*
X3175254Y6605523D01*
X3195827Y6603237D01*
X3193541Y6605523D01*
X3191256Y6612381D01*
X3191256Y6619239D01*
X3193541Y6626097D01*
X3198113Y6630415D01*
X3204972Y6632702D01*
X3209543Y6632702D01*
X3216147Y6630415D01*
X3220720Y6626097D01*
X3223006Y6619239D01*
X3223006Y6612381D01*
X3220720Y6605523D01*
X3218434Y6603237D01*
X3213861Y6600952D01*
X5473954Y5765800D02*
G01*
X5521706Y5765800D01*
X5473954Y5765800D02*
G01*
X5473954Y5786373D01*
X5476240Y5792978D01*
X5478525Y5795263D01*
X5483097Y5797550D01*
X5487670Y5797550D01*
X5492241Y5795263D01*
X5494527Y5792978D01*
X5496813Y5786373D01*
X5496813Y5765800D01*
X5496813Y5781802D02*
G01*
X5521706Y5797550D01*
X5483097Y5812536D02*
G01*
X5480811Y5817107D01*
X5473954Y5823965D01*
X5521706Y5823965D01*
X5480811Y5866129D02*
G01*
X5476240Y5864097D01*
X5473954Y5857239D01*
X5473954Y5852668D01*
X5476240Y5845810D01*
X5483097Y5841237D01*
X5494527Y5838952D01*
X5505958Y5838952D01*
X5514847Y5841237D01*
X5519420Y5845810D01*
X5521706Y5852668D01*
X5521706Y5854954D01*
X5519420Y5861812D01*
X5514847Y5866129D01*
X5508243Y5868415D01*
X5505958Y5868415D01*
X5499100Y5866129D01*
X5494527Y5861812D01*
X5492241Y5854954D01*
X5492241Y5852668D01*
X5494527Y5845810D01*
X5499100Y5841237D01*
X5505958Y5838952D01*
X7124700Y6362445D02*
G01*
X7124700Y6314694D01*
X7124700Y6362445D02*
G01*
X7145274Y6362445D01*
X7151877Y6360160D01*
X7154163Y6357873D01*
X7156450Y6353302D01*
X7156450Y6348729D01*
X7154163Y6344157D01*
X7151877Y6341871D01*
X7145274Y6339586D01*
X7124700Y6339586D01*
X7140702Y6339586D02*
G01*
X7156450Y6314694D01*
X7171436Y6353302D02*
G01*
X7176008Y6355587D01*
X7182865Y6362445D01*
X7182865Y6314694D01*
X7227315Y6346444D02*
G01*
X7225029Y6339586D01*
X7220711Y6335013D01*
X7213854Y6332728D01*
X7211568Y6332728D01*
X7204709Y6335013D01*
X7200138Y6339586D01*
X7197852Y6346444D01*
X7197852Y6348729D01*
X7200138Y6355587D01*
X7204709Y6360160D01*
X7211568Y6362445D01*
X7213854Y6362445D01*
X7220711Y6360160D01*
X7225029Y6355587D01*
X7227315Y6346444D01*
X7227315Y6335013D01*
X7225029Y6323837D01*
X7220711Y6316979D01*
X7213854Y6314694D01*
X7209281Y6314694D01*
X7202424Y6316979D01*
X7200138Y6321552D01*
X6794500Y5803645D02*
G01*
X6794500Y5755894D01*
X6794500Y5803645D02*
G01*
X6815074Y5803645D01*
X6821677Y5801360D01*
X6823963Y5799073D01*
X6826250Y5794502D01*
X6826250Y5789929D01*
X6823963Y5785357D01*
X6821677Y5783071D01*
X6815074Y5780786D01*
X6794500Y5780786D01*
X6810502Y5780786D02*
G01*
X6826250Y5755894D01*
X6843522Y5792215D02*
G01*
X6843522Y5794502D01*
X6845808Y5799073D01*
X6848093Y5801360D01*
X6852665Y5803645D01*
X6861809Y5803645D01*
X6866381Y5801360D01*
X6868668Y5799073D01*
X6870954Y5794502D01*
X6870954Y5789929D01*
X6868668Y5785357D01*
X6864095Y5778500D01*
X6841236Y5755894D01*
X6873240Y5755894D01*
X6901688Y5803645D02*
G01*
X6894829Y5801360D01*
X6890511Y5794502D01*
X6888225Y5783071D01*
X6888225Y5776213D01*
X6890511Y5765037D01*
X6894829Y5758179D01*
X6901688Y5755894D01*
X6906259Y5755894D01*
X6913118Y5758179D01*
X6917690Y5765037D01*
X6919975Y5776213D01*
X6919975Y5783071D01*
X6917690Y5794502D01*
X6913118Y5801360D01*
X6906259Y5803645D01*
X6901688Y5803645D01*
X6451600Y6679945D02*
G01*
X6451600Y6632194D01*
X6451600Y6679945D02*
G01*
X6472174Y6679945D01*
X6478777Y6677660D01*
X6481063Y6675373D01*
X6483350Y6670802D01*
X6483350Y6666229D01*
X6481063Y6661658D01*
X6478777Y6659371D01*
X6472174Y6657086D01*
X6451600Y6657086D01*
X6467602Y6657086D02*
G01*
X6483350Y6632194D01*
X6500622Y6668515D02*
G01*
X6500622Y6670802D01*
X6502908Y6675373D01*
X6505193Y6677660D01*
X6509765Y6679945D01*
X6518909Y6679945D01*
X6523481Y6677660D01*
X6525768Y6675373D01*
X6528054Y6670802D01*
X6528054Y6666229D01*
X6525768Y6661658D01*
X6521195Y6654800D01*
X6498336Y6632194D01*
X6530340Y6632194D01*
X6545325Y6670802D02*
G01*
X6549897Y6673087D01*
X6556502Y6679945D01*
X6556502Y6632194D01*
X7112000Y6679945D02*
G01*
X7112000Y6632194D01*
X7112000Y6679945D02*
G01*
X7132574Y6679945D01*
X7139177Y6677660D01*
X7141463Y6675373D01*
X7143750Y6670802D01*
X7143750Y6666229D01*
X7141463Y6661658D01*
X7139177Y6659371D01*
X7132574Y6657086D01*
X7112000Y6657086D01*
X7128002Y6657086D02*
G01*
X7143750Y6632194D01*
X7161022Y6668515D02*
G01*
X7161022Y6670802D01*
X7163308Y6675373D01*
X7165593Y6677660D01*
X7170165Y6679945D01*
X7179309Y6679945D01*
X7183881Y6677660D01*
X7186168Y6675373D01*
X7188454Y6670802D01*
X7188454Y6666229D01*
X7186168Y6661658D01*
X7181595Y6654800D01*
X7158736Y6632194D01*
X7190740Y6632194D01*
X7208011Y6668515D02*
G01*
X7208011Y6670802D01*
X7210297Y6675373D01*
X7212329Y6677660D01*
X7216902Y6679945D01*
X7226045Y6679945D01*
X7230618Y6677660D01*
X7232904Y6675373D01*
X7235190Y6670802D01*
X7235190Y6666229D01*
X7232904Y6661658D01*
X7228331Y6654800D01*
X7205725Y6632194D01*
X7237475Y6632194D01*
X7418324Y5293105D02*
G01*
X7418324Y5245354D01*
X7418324Y5293105D02*
G01*
X7438897Y5293105D01*
X7445502Y5290820D01*
X7447788Y5288534D01*
X7450074Y5283962D01*
X7450074Y5279389D01*
X7447788Y5274818D01*
X7445502Y5272531D01*
X7438897Y5270245D01*
X7418324Y5270245D01*
X7434325Y5270245D02*
G01*
X7450074Y5245354D01*
X7467345Y5281676D02*
G01*
X7467345Y5283962D01*
X7469631Y5288534D01*
X7471918Y5290820D01*
X7476490Y5293105D01*
X7485634Y5293105D01*
X7490206Y5290820D01*
X7492491Y5288534D01*
X7494777Y5283962D01*
X7494777Y5279389D01*
X7492491Y5274818D01*
X7487920Y5267960D01*
X7465059Y5245354D01*
X7497063Y5245354D01*
X7539227Y5293105D02*
G01*
X7516622Y5293105D01*
X7514336Y5272531D01*
X7516622Y5274818D01*
X7523225Y5277104D01*
X7530084Y5277104D01*
X7536941Y5274818D01*
X7541513Y5270245D01*
X7543800Y5263387D01*
X7543800Y5258815D01*
X7541513Y5252212D01*
X7536941Y5247639D01*
X7530084Y5245354D01*
X7523225Y5245354D01*
X7516622Y5247639D01*
X7514336Y5249926D01*
X7512050Y5254497D01*
X6438900Y6806945D02*
G01*
X6438900Y6759194D01*
X6438900Y6806945D02*
G01*
X6459474Y6806945D01*
X6466077Y6804660D01*
X6468363Y6802373D01*
X6470650Y6797802D01*
X6470650Y6793229D01*
X6468363Y6788658D01*
X6466077Y6786371D01*
X6459474Y6784086D01*
X6438900Y6784086D01*
X6454902Y6784086D02*
G01*
X6470650Y6759194D01*
X6487922Y6795515D02*
G01*
X6487922Y6797802D01*
X6490208Y6802373D01*
X6492493Y6804660D01*
X6497065Y6806945D01*
X6506209Y6806945D01*
X6510781Y6804660D01*
X6513068Y6802373D01*
X6515354Y6797802D01*
X6515354Y6793229D01*
X6513068Y6788658D01*
X6508495Y6781800D01*
X6485636Y6759194D01*
X6517640Y6759194D01*
X6559804Y6800087D02*
G01*
X6557518Y6804660D01*
X6550659Y6806945D01*
X6546088Y6806945D01*
X6539229Y6804660D01*
X6534911Y6797802D01*
X6532625Y6786371D01*
X6532625Y6774942D01*
X6534911Y6766052D01*
X6539229Y6761479D01*
X6546088Y6759194D01*
X6548374Y6759194D01*
X6555231Y6761479D01*
X6559804Y6766052D01*
X6562090Y6772655D01*
X6562090Y6774942D01*
X6559804Y6781800D01*
X6555231Y6786371D01*
X6548374Y6788658D01*
X6546088Y6788658D01*
X6539229Y6786371D01*
X6534911Y6781800D01*
X6532625Y6774942D01*
X6362700Y5981445D02*
G01*
X6362700Y5933694D01*
X6362700Y5981445D02*
G01*
X6383274Y5981445D01*
X6389877Y5979160D01*
X6392163Y5976873D01*
X6394450Y5972302D01*
X6394450Y5967729D01*
X6392163Y5963157D01*
X6389877Y5960871D01*
X6383274Y5958586D01*
X6362700Y5958586D01*
X6378702Y5958586D02*
G01*
X6394450Y5933694D01*
X6411722Y5970015D02*
G01*
X6411722Y5972302D01*
X6414008Y5976873D01*
X6416293Y5979160D01*
X6420865Y5981445D01*
X6430009Y5981445D01*
X6434581Y5979160D01*
X6436868Y5976873D01*
X6439154Y5972302D01*
X6439154Y5967729D01*
X6436868Y5963157D01*
X6432295Y5956300D01*
X6409436Y5933694D01*
X6441440Y5933694D01*
X6488175Y5981445D02*
G01*
X6465315Y5933694D01*
X6456425Y5981445D02*
G01*
X6488175Y5981445D01*
X5715254Y5918200D02*
G01*
X5763006Y5918200D01*
X5715254Y5918200D02*
G01*
X5715254Y5938773D01*
X5717540Y5945378D01*
X5719825Y5947663D01*
X5724397Y5949950D01*
X5728970Y5949950D01*
X5733541Y5947663D01*
X5735827Y5945378D01*
X5738113Y5938773D01*
X5738113Y5918200D01*
X5738113Y5934202D02*
G01*
X5763006Y5949950D01*
X5726684Y5967221D02*
G01*
X5724397Y5967221D01*
X5719825Y5969507D01*
X5717540Y5971794D01*
X5715254Y5976365D01*
X5715254Y5985510D01*
X5717540Y5990081D01*
X5719825Y5992368D01*
X5724397Y5994654D01*
X5728970Y5994654D01*
X5733541Y5992368D01*
X5740400Y5987795D01*
X5763006Y5964936D01*
X5763006Y5996939D01*
X5715254Y6023102D02*
G01*
X5717540Y6016497D01*
X5722111Y6014212D01*
X5726684Y6014212D01*
X5731256Y6016497D01*
X5733541Y6020815D01*
X5735827Y6029960D01*
X5738113Y6036818D01*
X5742686Y6041389D01*
X5747258Y6043676D01*
X5753861Y6043676D01*
X5758434Y6041389D01*
X5760720Y6039104D01*
X5763006Y6032245D01*
X5763006Y6023102D01*
X5760720Y6016497D01*
X5758434Y6014212D01*
X5753861Y6011926D01*
X5747258Y6011926D01*
X5742686Y6014212D01*
X5738113Y6018529D01*
X5735827Y6025387D01*
X5733541Y6034531D01*
X5731256Y6039104D01*
X5726684Y6041389D01*
X5722111Y6041389D01*
X5717540Y6039104D01*
X5715254Y6032245D01*
X5715254Y6023102D01*
X7418324Y5521705D02*
G01*
X7418324Y5473954D01*
X7418324Y5521705D02*
G01*
X7438897Y5521705D01*
X7445502Y5519420D01*
X7447788Y5517134D01*
X7450074Y5512562D01*
X7450074Y5507989D01*
X7447788Y5503418D01*
X7445502Y5501131D01*
X7438897Y5498845D01*
X7418324Y5498845D01*
X7434325Y5498845D02*
G01*
X7450074Y5473954D01*
X7469631Y5521705D02*
G01*
X7494777Y5521705D01*
X7481061Y5503418D01*
X7487920Y5503418D01*
X7492491Y5501131D01*
X7494777Y5498845D01*
X7497063Y5491987D01*
X7497063Y5487415D01*
X7494777Y5480812D01*
X7490206Y5476239D01*
X7483347Y5473954D01*
X7476490Y5473954D01*
X7469631Y5476239D01*
X7467345Y5478526D01*
X7465059Y5483097D01*
X7525511Y5521705D02*
G01*
X7518654Y5519420D01*
X7514336Y5512562D01*
X7512050Y5501131D01*
X7512050Y5494273D01*
X7514336Y5483097D01*
X7518654Y5476239D01*
X7525511Y5473954D01*
X7530084Y5473954D01*
X7536941Y5476239D01*
X7541513Y5483097D01*
X7543800Y5494273D01*
X7543800Y5501131D01*
X7541513Y5512562D01*
X7536941Y5519420D01*
X7530084Y5521705D01*
X7525511Y5521705D01*
X2806700Y6768845D02*
G01*
X2806700Y6721094D01*
X2806700Y6768845D02*
G01*
X2827274Y6768845D01*
X2833877Y6766560D01*
X2836163Y6764273D01*
X2838450Y6759702D01*
X2838450Y6755129D01*
X2836163Y6750558D01*
X2833877Y6748271D01*
X2827274Y6745986D01*
X2806700Y6745986D01*
X2822702Y6745986D02*
G01*
X2838450Y6721094D01*
X2858008Y6768845D02*
G01*
X2883154Y6768845D01*
X2869438Y6750558D01*
X2876295Y6750558D01*
X2880868Y6748271D01*
X2883154Y6745986D01*
X2885440Y6739128D01*
X2885440Y6734555D01*
X2883154Y6727952D01*
X2878581Y6723379D01*
X2871724Y6721094D01*
X2864865Y6721094D01*
X2858008Y6723379D01*
X2855722Y6725665D01*
X2853436Y6730237D01*
X2900425Y6759702D02*
G01*
X2904997Y6761987D01*
X2911602Y6768845D01*
X2911602Y6721094D01*
X5740400Y6959345D02*
G01*
X5740400Y6911594D01*
X5740400Y6911594D02*
G01*
X5767577Y6911594D01*
X5805424Y6959345D02*
G01*
X5782563Y6927342D01*
X5816854Y6927342D01*
X5805424Y6959345D02*
G01*
X5805424Y6911594D01*
X4445000Y7187945D02*
G01*
X4445000Y7140194D01*
X4445000Y7187945D02*
G01*
X4465574Y7187945D01*
X4472177Y7185660D01*
X4474463Y7183373D01*
X4476750Y7178802D01*
X4476750Y7174229D01*
X4474463Y7169658D01*
X4472177Y7167371D01*
X4465574Y7165086D01*
X4445000Y7165086D01*
X4461002Y7165086D02*
G01*
X4476750Y7140194D01*
X4491736Y7178802D02*
G01*
X4496308Y7181087D01*
X4503165Y7187945D01*
X4503165Y7140194D01*
X4549902Y7187945D02*
G01*
X4527295Y7140194D01*
X4518152Y7187945D02*
G01*
X4549902Y7187945D01*
X6447536Y7049515D02*
G01*
X6445250Y7054087D01*
X6440677Y7058660D01*
X6436106Y7060945D01*
X6427215Y7060945D01*
X6422643Y7058660D01*
X6418072Y7054087D01*
X6415786Y7049515D01*
X6413500Y7042658D01*
X6413500Y7031228D01*
X6415786Y7024370D01*
X6418072Y7020052D01*
X6422643Y7015479D01*
X6427215Y7013194D01*
X6436106Y7013194D01*
X6440677Y7015479D01*
X6445250Y7020052D01*
X6447536Y7024370D01*
X6492240Y7044944D02*
G01*
X6489954Y7038086D01*
X6485381Y7033513D01*
X6478524Y7031228D01*
X6476238Y7031228D01*
X6469379Y7033513D01*
X6464808Y7038086D01*
X6462522Y7044944D01*
X6462522Y7047229D01*
X6464808Y7054087D01*
X6469379Y7058660D01*
X6476238Y7060945D01*
X6478524Y7060945D01*
X6485381Y7058660D01*
X6489954Y7054087D01*
X6492240Y7044944D01*
X6492240Y7033513D01*
X6489954Y7022337D01*
X6485381Y7015479D01*
X6478524Y7013194D01*
X6473952Y7013194D01*
X6467093Y7015479D01*
X6464808Y7020052D01*
X3183636Y5995415D02*
G01*
X3181350Y5999987D01*
X3176777Y6004560D01*
X3172206Y6006845D01*
X3163315Y6006845D01*
X3158743Y6004560D01*
X3154172Y5999987D01*
X3151886Y5995415D01*
X3149600Y5988557D01*
X3149600Y5977128D01*
X3151886Y5970270D01*
X3154172Y5965952D01*
X3158743Y5961379D01*
X3163315Y5959094D01*
X3172206Y5959094D01*
X3176777Y5961379D01*
X3181350Y5965952D01*
X3183636Y5970270D01*
X3198622Y5997702D02*
G01*
X3203193Y5999987D01*
X3210052Y6006845D01*
X3210052Y5959094D01*
X3247897Y6006845D02*
G01*
X3225038Y5974842D01*
X3259074Y5974842D01*
X3247897Y6006845D02*
G01*
X3247897Y5959094D01*
X5067554Y7200900D02*
G01*
X5115306Y7232650D01*
X5067554Y7232650D02*
G01*
X5115306Y7200900D01*
X5078984Y7249921D02*
G01*
X5076697Y7249921D01*
X5072125Y7252208D01*
X5069840Y7254494D01*
X5067554Y7259065D01*
X5067554Y7268210D01*
X5069840Y7272781D01*
X5072125Y7275068D01*
X5076697Y7277354D01*
X5081270Y7277354D01*
X5085841Y7275068D01*
X5092700Y7270495D01*
X5115306Y7247636D01*
X5115306Y7279639D01*
X2421636Y5436615D02*
G01*
X2419350Y5441187D01*
X2414777Y5445760D01*
X2410206Y5448045D01*
X2401315Y5448045D01*
X2396743Y5445760D01*
X2392172Y5441187D01*
X2389886Y5436615D01*
X2387600Y5429757D01*
X2387600Y5418328D01*
X2389886Y5411470D01*
X2392172Y5407152D01*
X2396743Y5402579D01*
X2401315Y5400294D01*
X2410206Y5400294D01*
X2414777Y5402579D01*
X2419350Y5407152D01*
X2421636Y5411470D01*
X2468625Y5448045D02*
G01*
X2445765Y5400294D01*
X2436622Y5448045D02*
G01*
X2468625Y5448045D01*
X7872984Y5406136D02*
G01*
X7868411Y5403850D01*
X7863840Y5399278D01*
X7861554Y5394705D01*
X7861554Y5385815D01*
X7863840Y5381244D01*
X7868411Y5376671D01*
X7872984Y5374386D01*
X7879841Y5372100D01*
X7891272Y5372100D01*
X7898129Y5374386D01*
X7902447Y5376671D01*
X7907020Y5381244D01*
X7909306Y5385815D01*
X7909306Y5394705D01*
X7907020Y5399278D01*
X7902447Y5403850D01*
X7898129Y5406136D01*
X7861554Y5425694D02*
G01*
X7861554Y5450839D01*
X7879841Y5437123D01*
X7879841Y5443981D01*
X7882127Y5448554D01*
X7884413Y5450839D01*
X7891272Y5453126D01*
X7895843Y5453126D01*
X7902447Y5450839D01*
X7907020Y5446268D01*
X7909306Y5439410D01*
X7909306Y5432552D01*
X7907020Y5425694D01*
X7904734Y5423407D01*
X7900161Y5421121D01*
X7861554Y5479287D02*
G01*
X7863840Y5472429D01*
X7868411Y5470397D01*
X7872984Y5470397D01*
X7877556Y5472429D01*
X7879841Y5477002D01*
X7882127Y5486145D01*
X7884413Y5493004D01*
X7888986Y5497576D01*
X7893558Y5499862D01*
X7900161Y5499862D01*
X7904734Y5497576D01*
X7907020Y5495289D01*
X7909306Y5488431D01*
X7909306Y5479287D01*
X7907020Y5472429D01*
X7904734Y5470397D01*
X7900161Y5468112D01*
X7893558Y5468112D01*
X7888986Y5470397D01*
X7884413Y5474715D01*
X7882127Y5481573D01*
X7879841Y5490718D01*
X7877556Y5495289D01*
X7872984Y5497576D01*
X7868411Y5497576D01*
X7863840Y5495289D01*
X7861554Y5488431D01*
X7861554Y5479287D01*
X7459472Y7050531D02*
G01*
X7455154Y7059676D01*
X7446009Y7068565D01*
X7436865Y7073137D01*
X7418577Y7073137D01*
X7409688Y7068565D01*
X7400543Y7059676D01*
X7395972Y7050531D01*
X7391400Y7036815D01*
X7391400Y7014210D01*
X7395972Y7000494D01*
X7400543Y6991350D01*
X7409688Y6982205D01*
X7418577Y6977634D01*
X7436865Y6977634D01*
X7446009Y6982205D01*
X7455154Y6991350D01*
X7459472Y7000494D01*
X7489697Y7073137D02*
G01*
X7489697Y6977634D01*
X7489697Y7073137D02*
G01*
X7553197Y6977634D01*
X7553197Y7073137D02*
G01*
X7553197Y6977634D01*
X7583170Y7055104D02*
G01*
X7592313Y7059676D01*
X7606029Y7073137D01*
X7606029Y6977634D01*
X4686554Y6870768D02*
G01*
X4734306Y6870768D01*
X4734306Y6870768D02*
G01*
X4734306Y6897946D01*
X4697984Y6915218D02*
G01*
X4695697Y6915218D01*
X4691125Y6917504D01*
X4688840Y6919790D01*
X4686554Y6924362D01*
X4686554Y6933506D01*
X4688840Y6938078D01*
X4691125Y6940364D01*
X4695697Y6942396D01*
X4700270Y6942396D01*
X4704841Y6940364D01*
X4711700Y6935792D01*
X4734306Y6912932D01*
X4734306Y6944682D01*
X4686554Y7035868D02*
G01*
X4734306Y7035868D01*
X4734306Y7035868D02*
G01*
X4734306Y7063046D01*
X4686554Y7082604D02*
G01*
X4686554Y7107496D01*
X4704841Y7094034D01*
X4704841Y7100892D01*
X4707127Y7105464D01*
X4709413Y7107496D01*
X4716272Y7109782D01*
X4720843Y7109782D01*
X4727447Y7107496D01*
X4732020Y7103178D01*
X4734306Y7096320D01*
X4734306Y7089462D01*
X4732020Y7082604D01*
X4729734Y7080318D01*
X4725161Y7078032D01*
X6223000Y5994145D02*
G01*
X6223000Y5946394D01*
X6223000Y5946394D02*
G01*
X6250177Y5946394D01*
X6292595Y5994145D02*
G01*
X6269736Y5994145D01*
X6267450Y5973571D01*
X6269736Y5975857D01*
X6276593Y5978144D01*
X6283452Y5978144D01*
X6290309Y5975857D01*
X6294881Y5971286D01*
X6297168Y5964428D01*
X6297168Y5959855D01*
X6294881Y5953252D01*
X6290309Y5948679D01*
X6283452Y5946394D01*
X6276593Y5946394D01*
X6269736Y5948679D01*
X6267450Y5950965D01*
X6265163Y5955537D01*
X2222500Y7238237D02*
G01*
X2222500Y7142734D01*
X2222500Y7238237D02*
G01*
X2263393Y7238237D01*
X2277109Y7233665D01*
X2281681Y7229094D01*
X2286254Y7220204D01*
X2286254Y7211060D01*
X2281681Y7201915D01*
X2277109Y7197344D01*
X2263393Y7192771D01*
X2222500Y7192771D01*
X2254250Y7192771D02*
G01*
X2286254Y7142734D01*
X2361691Y7238237D02*
G01*
X2361691Y7165594D01*
X2357120Y7151878D01*
X2352547Y7147305D01*
X2343404Y7142734D01*
X2334259Y7142734D01*
X2325115Y7147305D01*
X2320797Y7151878D01*
X2316225Y7165594D01*
X2316225Y7174737D01*
X2391663Y7220204D02*
G01*
X2400808Y7224776D01*
X2414270Y7238237D01*
X2414270Y7142734D01*
X3924274Y7454569D02*
G01*
X3924274Y7420533D01*
X3926560Y7413675D01*
X3931132Y7409103D01*
X3937990Y7406817D01*
X3942562Y7406817D01*
X3949420Y7409103D01*
X3953738Y7413675D01*
X3956024Y7420533D01*
X3956024Y7454569D01*
X3971010Y7445425D02*
G01*
X3975582Y7447711D01*
X3982440Y7454569D01*
X3982440Y7406817D01*
X4876800Y6502145D02*
G01*
X4876800Y6467855D01*
X4879086Y6461252D01*
X4883658Y6456679D01*
X4890515Y6454394D01*
X4895088Y6454394D01*
X4901691Y6456679D01*
X4906263Y6461252D01*
X4908550Y6467855D01*
X4908550Y6502145D01*
X4925822Y6490715D02*
G01*
X4925822Y6493002D01*
X4928108Y6497573D01*
X4930393Y6499860D01*
X4934965Y6502145D01*
X4944109Y6502145D01*
X4948681Y6499860D01*
X4950968Y6497573D01*
X4953254Y6493002D01*
X4953254Y6488429D01*
X4950968Y6483857D01*
X4946395Y6477000D01*
X4923536Y6454394D01*
X4955540Y6454394D01*
X6654800Y6578269D02*
G01*
X6654800Y6544233D01*
X6657086Y6537375D01*
X6661658Y6532803D01*
X6668515Y6530517D01*
X6673088Y6530517D01*
X6679691Y6532803D01*
X6684263Y6537375D01*
X6686550Y6544233D01*
X6686550Y6578269D01*
X6706108Y6578269D02*
G01*
X6731254Y6578269D01*
X6717538Y6559981D01*
X6724395Y6559981D01*
X6728968Y6557695D01*
X6731254Y6555409D01*
X6733540Y6548805D01*
X6733540Y6544233D01*
X6731254Y6537375D01*
X6726681Y6532803D01*
X6719824Y6530517D01*
X6712965Y6530517D01*
X6706108Y6532803D01*
X6703822Y6535089D01*
X6701536Y6539661D01*
X6032754Y6400800D02*
G01*
X6067043Y6400800D01*
X6073647Y6403086D01*
X6078220Y6407657D01*
X6080506Y6414515D01*
X6080506Y6419087D01*
X6078220Y6425692D01*
X6073647Y6430263D01*
X6067043Y6432550D01*
X6032754Y6432550D01*
X6032754Y6470395D02*
G01*
X6064758Y6447536D01*
X6064758Y6481826D01*
X6032754Y6470395D02*
G01*
X6080506Y6470395D01*
X7531100Y6845045D02*
G01*
X7531100Y6810755D01*
X7533386Y6804152D01*
X7537958Y6799579D01*
X7544815Y6797294D01*
X7549388Y6797294D01*
X7555991Y6799579D01*
X7560563Y6804152D01*
X7562850Y6810755D01*
X7562850Y6845045D01*
X7609840Y6838187D02*
G01*
X7605268Y6842760D01*
X7598409Y6845045D01*
X7589265Y6845045D01*
X7582408Y6842760D01*
X7577836Y6838187D01*
X7577836Y6833615D01*
X7580122Y6829044D01*
X7582408Y6826758D01*
X7586979Y6824471D01*
X7600695Y6819900D01*
X7605268Y6817613D01*
X7607554Y6815328D01*
X7609840Y6810755D01*
X7609840Y6804152D01*
X7605268Y6799579D01*
X7598409Y6797294D01*
X7589265Y6797294D01*
X7582408Y6799579D01*
X7577836Y6804152D01*
X7624825Y6845045D02*
G01*
X7624825Y6797294D01*
X7624825Y6845045D02*
G01*
X7645145Y6845045D01*
X7652004Y6842760D01*
X7654290Y6840473D01*
X7656575Y6835902D01*
X7656575Y6831329D01*
X7654290Y6826758D01*
X7652004Y6824471D01*
X7645145Y6822186D01*
X7624825Y6822186D02*
G01*
X7645145Y6822186D01*
X7652004Y6819900D01*
X7654290Y6817613D01*
X7656575Y6813042D01*
X7656575Y6806437D01*
X7654290Y6801865D01*
X7652004Y6799579D01*
X7645145Y6797294D01*
X7624825Y6797294D01*
X7671561Y6835902D02*
G01*
X7676134Y6838187D01*
X7682991Y6845045D01*
X7682991Y6797294D01*
X4635500Y6400545D02*
G01*
X4667250Y6352794D01*
X4667250Y6400545D02*
G01*
X4635500Y6352794D01*
X4682236Y6391402D02*
G01*
X4686808Y6393687D01*
X4693665Y6400545D01*
X4693665Y6352794D01*
G36*
X6322618Y7331608D02*
G01*
X6322618Y7232599D01*
X6197600Y7233615D01*
X6197600Y7322616D01*
X6175603Y7317587D01*
X6161582Y7306614D01*
X6146596Y7289596D01*
X6139586Y7271613D01*
X6133592Y7251598D01*
X6127597Y7230618D01*
X6125616Y7214616D01*
X6395618Y7213600D01*
X6389624Y7238593D01*
X6379616Y7265619D01*
X6366611Y7283602D01*
X6359601Y7298588D01*
X6332626Y7323581D01*
G37*
G36*
X3454400Y6230518D02*
G01*
X3429406Y6224524D01*
X3402380Y6214516D01*
X3384397Y6201511D01*
X3369411Y6194501D01*
X3344418Y6167526D01*
X3336391Y6157518D01*
X3435400Y6157518D01*
X3434384Y6032500D01*
X3345383Y6032500D01*
X3350412Y6010503D01*
X3361385Y5996482D01*
X3378403Y5981496D01*
X3396386Y5974486D01*
X3416401Y5968492D01*
X3437382Y5962497D01*
X3453384Y5960516D01*
G37*
X4813269Y7278039D02*
G01*
X4892278Y7278039D01*
X4892278Y7377760D02*
G01*
X4813269Y7377760D01*
X4798029Y7362520D02*
G01*
X4798029Y7293279D01*
X5016530Y7278039D02*
G01*
X4937521Y7278039D01*
X4937521Y7377760D02*
G01*
X5016530Y7377760D01*
X5031770Y7362520D02*
G01*
X5031770Y7293279D01*
X5156169Y7049439D02*
G01*
X5235178Y7049439D01*
X5235178Y7149160D02*
G01*
X5156169Y7149160D01*
X5140929Y7133920D02*
G01*
X5140929Y7064679D01*
X5359430Y7049439D02*
G01*
X5280421Y7049439D01*
X5280421Y7149160D02*
G01*
X5359430Y7149160D01*
X5374670Y7133920D02*
G01*
X5374670Y7064679D01*
D13*
X4051467Y6148435D02*
G01*
X3975267Y6148435D01*
X3798465Y6148435D02*
G01*
X3874665Y6148435D01*
X3798465Y6016315D02*
G01*
X3874665Y6016315D01*
D11*
X3798465Y6016315D02*
G01*
X3783236Y6031557D01*
X3783236Y6133200D01*
X3798465Y6148435D01*
D13*
X4051467Y6016315D02*
G01*
X3975267Y6016315D01*
D11*
X4051467Y6148435D02*
G01*
X4066710Y6133200D01*
X4066710Y6031557D01*
X4051467Y6016315D01*
X6594078Y5881039D02*
G01*
X6522275Y5881039D01*
X6522275Y5980760D01*
X6594078Y5980760D01*
X6639321Y5881039D02*
G01*
X6711124Y5881039D01*
X6711124Y5980760D01*
X6639321Y5980760D01*
X5765830Y5866460D02*
G01*
X5686821Y5866460D01*
X5686821Y5766739D02*
G01*
X5765830Y5766739D01*
X5781070Y5781979D02*
G01*
X5781070Y5851220D01*
X5562569Y5866460D02*
G01*
X5641578Y5866460D01*
X5641578Y5766739D02*
G01*
X5562569Y5766739D01*
X5547329Y5781979D02*
G01*
X5547329Y5851220D01*
X5206969Y5804839D02*
G01*
X5285978Y5804839D01*
X5285978Y5904560D02*
G01*
X5206969Y5904560D01*
X5191729Y5889320D02*
G01*
X5191729Y5820079D01*
X5410230Y5804839D02*
G01*
X5331221Y5804839D01*
X5331221Y5904560D02*
G01*
X5410230Y5904560D01*
X5425470Y5889320D02*
G01*
X5425470Y5820079D01*
X5167960Y5841969D02*
G01*
X5167960Y5920978D01*
X5068239Y5920978D02*
G01*
X5068239Y5841969D01*
X5083479Y5826729D02*
G01*
X5152720Y5826729D01*
X5167960Y6045230D02*
G01*
X5167960Y5966221D01*
X5068239Y5966221D02*
G01*
X5068239Y6045230D01*
X5083479Y6060470D02*
G01*
X5152720Y6060470D01*
X5040960Y5841969D02*
G01*
X5040960Y5920978D01*
X4941239Y5920978D02*
G01*
X4941239Y5841969D01*
X4956479Y5826729D02*
G01*
X5025720Y5826729D01*
X5040960Y6045230D02*
G01*
X5040960Y5966221D01*
X4941239Y5966221D02*
G01*
X4941239Y6045230D01*
X4956479Y6060470D02*
G01*
X5025720Y6060470D01*
X3999560Y5778469D02*
G01*
X3999560Y5857478D01*
X3899839Y5857478D02*
G01*
X3899839Y5778469D01*
X3915079Y5763229D02*
G01*
X3984320Y5763229D01*
X3999560Y5981730D02*
G01*
X3999560Y5902721D01*
X3899839Y5902721D02*
G01*
X3899839Y5981730D01*
X3915079Y5996970D02*
G01*
X3984320Y5996970D01*
X3885260Y5778469D02*
G01*
X3885260Y5857478D01*
X3785539Y5857478D02*
G01*
X3785539Y5778469D01*
X3800779Y5763229D02*
G01*
X3870020Y5763229D01*
X3885260Y5981730D02*
G01*
X3885260Y5902721D01*
X3785539Y5902721D02*
G01*
X3785539Y5981730D01*
X3800779Y5996970D02*
G01*
X3870020Y5996970D01*
X4217339Y6400830D02*
G01*
X4217339Y6321821D01*
X4317060Y6321821D02*
G01*
X4317060Y6400830D01*
X4301820Y6416070D02*
G01*
X4232579Y6416070D01*
X4217339Y6197569D02*
G01*
X4217339Y6276578D01*
X4317060Y6276578D02*
G01*
X4317060Y6197569D01*
X4301820Y6182329D02*
G01*
X4232579Y6182329D01*
X3378169Y6376339D02*
G01*
X3457178Y6376339D01*
X3457178Y6476060D02*
G01*
X3378169Y6476060D01*
X3362929Y6460820D02*
G01*
X3362929Y6391579D01*
X3581430Y6376339D02*
G01*
X3502421Y6376339D01*
X3502421Y6476060D02*
G01*
X3581430Y6476060D01*
X3596670Y6460820D02*
G01*
X3596670Y6391579D01*
X3873530Y6298260D02*
G01*
X3794521Y6298260D01*
X3794521Y6198539D02*
G01*
X3873530Y6198539D01*
X3888770Y6213779D02*
G01*
X3888770Y6283020D01*
X3670269Y6298260D02*
G01*
X3749278Y6298260D01*
X3749278Y6198539D02*
G01*
X3670269Y6198539D01*
X3655029Y6213779D02*
G01*
X3655029Y6283020D01*
X4584730Y6069660D02*
G01*
X4505721Y6069660D01*
X4505721Y5969939D02*
G01*
X4584730Y5969939D01*
X4599970Y5985179D02*
G01*
X4599970Y6054420D01*
X4381469Y6069660D02*
G01*
X4460478Y6069660D01*
X4460478Y5969939D02*
G01*
X4381469Y5969939D01*
X4366229Y5985179D02*
G01*
X4366229Y6054420D01*
X4381469Y6427139D02*
G01*
X4460478Y6427139D01*
X4460478Y6526860D02*
G01*
X4381469Y6526860D01*
X4366229Y6511620D02*
G01*
X4366229Y6442379D01*
X4584730Y6427139D02*
G01*
X4505721Y6427139D01*
X4505721Y6526860D02*
G01*
X4584730Y6526860D01*
X4599970Y6511620D02*
G01*
X4599970Y6442379D01*
X3352769Y5804839D02*
G01*
X3431778Y5804839D01*
X3431778Y5904560D02*
G01*
X3352769Y5904560D01*
X3337529Y5889320D02*
G01*
X3337529Y5820079D01*
X3556030Y5804839D02*
G01*
X3477021Y5804839D01*
X3477021Y5904560D02*
G01*
X3556030Y5904560D01*
X3571270Y5889320D02*
G01*
X3571270Y5820079D01*
X3352769Y5690539D02*
G01*
X3431778Y5690539D01*
X3431778Y5790260D02*
G01*
X3352769Y5790260D01*
X3337529Y5775020D02*
G01*
X3337529Y5705779D01*
X3556030Y5690539D02*
G01*
X3477021Y5690539D01*
X3477021Y5790260D02*
G01*
X3556030Y5790260D01*
X3571270Y5775020D02*
G01*
X3571270Y5705779D01*
X3352769Y5576239D02*
G01*
X3431778Y5576239D01*
X3431778Y5675960D02*
G01*
X3352769Y5675960D01*
X3337529Y5660720D02*
G01*
X3337529Y5591479D01*
X3556030Y5576239D02*
G01*
X3477021Y5576239D01*
X3477021Y5675960D02*
G01*
X3556030Y5675960D01*
X3571270Y5660720D02*
G01*
X3571270Y5591479D01*
X3352769Y5461939D02*
G01*
X3431778Y5461939D01*
X3431778Y5561660D02*
G01*
X3352769Y5561660D01*
X3337529Y5546420D02*
G01*
X3337529Y5477179D01*
X3556030Y5461939D02*
G01*
X3477021Y5461939D01*
X3477021Y5561660D02*
G01*
X3556030Y5561660D01*
X3571270Y5546420D02*
G01*
X3571270Y5477179D01*
X3136930Y6450660D02*
G01*
X3057921Y6450660D01*
X3057921Y6350939D02*
G01*
X3136930Y6350939D01*
X3152170Y6366179D02*
G01*
X3152170Y6435420D01*
X2933669Y6450660D02*
G01*
X3012678Y6450660D01*
X3012678Y6350939D02*
G01*
X2933669Y6350939D01*
X2918429Y6366179D02*
G01*
X2918429Y6435420D01*
X3136930Y6564960D02*
G01*
X3057921Y6564960D01*
X3057921Y6465239D02*
G01*
X3136930Y6465239D01*
X3152170Y6480479D02*
G01*
X3152170Y6549720D01*
X2933669Y6564960D02*
G01*
X3012678Y6564960D01*
X3012678Y6465239D02*
G01*
X2933669Y6465239D01*
X2918429Y6480479D02*
G01*
X2918429Y6549720D01*
X2933669Y6236639D02*
G01*
X3012678Y6236639D01*
X3012678Y6336360D02*
G01*
X2933669Y6336360D01*
X2918429Y6321120D02*
G01*
X2918429Y6251879D01*
X3136930Y6236639D02*
G01*
X3057921Y6236639D01*
X3057921Y6336360D02*
G01*
X3136930Y6336360D01*
X3152170Y6321120D02*
G01*
X3152170Y6251879D01*
X5410230Y6031560D02*
G01*
X5331221Y6031560D01*
X5331221Y5931839D02*
G01*
X5410230Y5931839D01*
X5425470Y5947079D02*
G01*
X5425470Y6016320D01*
X5206969Y6031560D02*
G01*
X5285978Y6031560D01*
X5285978Y5931839D02*
G01*
X5206969Y5931839D01*
X5191729Y5947079D02*
G01*
X5191729Y6016320D01*
X5156169Y6935139D02*
G01*
X5235178Y6935139D01*
X5235178Y7034860D02*
G01*
X5156169Y7034860D01*
X5140929Y7019620D02*
G01*
X5140929Y6950379D01*
X5359430Y6935139D02*
G01*
X5280421Y6935139D01*
X5280421Y7034860D02*
G01*
X5359430Y7034860D01*
X5374670Y7019620D02*
G01*
X5374670Y6950379D01*
X4991130Y6704660D02*
G01*
X4912121Y6704660D01*
X4912121Y6604939D02*
G01*
X4991130Y6604939D01*
X5006370Y6620179D02*
G01*
X5006370Y6689420D01*
X4787869Y6704660D02*
G01*
X4866878Y6704660D01*
X4866878Y6604939D02*
G01*
X4787869Y6604939D01*
X4772629Y6620179D02*
G01*
X4772629Y6689420D01*
X4991130Y6818960D02*
G01*
X4912121Y6818960D01*
X4912121Y6719239D02*
G01*
X4991130Y6719239D01*
X5006370Y6734479D02*
G01*
X5006370Y6803720D01*
X4787869Y6818960D02*
G01*
X4866878Y6818960D01*
X4866878Y6719239D02*
G01*
X4787869Y6719239D01*
X4772629Y6734479D02*
G01*
X4772629Y6803720D01*
X5016530Y7250760D02*
G01*
X4937521Y7250760D01*
X4937521Y7151039D02*
G01*
X5016530Y7151039D01*
X5031770Y7166279D02*
G01*
X5031770Y7235520D01*
X4813269Y7250760D02*
G01*
X4892278Y7250760D01*
X4892278Y7151039D02*
G01*
X4813269Y7151039D01*
X4798029Y7166279D02*
G01*
X4798029Y7235520D01*
X5930930Y7111060D02*
G01*
X5851921Y7111060D01*
X5851921Y7011339D02*
G01*
X5930930Y7011339D01*
X5946170Y7026579D02*
G01*
X5946170Y7095820D01*
X5727669Y7111060D02*
G01*
X5806678Y7111060D01*
X5806678Y7011339D02*
G01*
X5727669Y7011339D01*
X5712429Y7026579D02*
G01*
X5712429Y7095820D01*
X5601639Y7099330D02*
G01*
X5601639Y7020321D01*
X5701360Y7020321D02*
G01*
X5701360Y7099330D01*
X5686120Y7114570D02*
G01*
X5616879Y7114570D01*
X5601639Y6896069D02*
G01*
X5601639Y6975078D01*
X5701360Y6975078D02*
G01*
X5701360Y6896069D01*
X5686120Y6880829D02*
G01*
X5616879Y6880829D01*
X7100239Y6134130D02*
G01*
X7100239Y6055121D01*
X7199960Y6055121D02*
G01*
X7199960Y6134130D01*
X7184720Y6149370D02*
G01*
X7115479Y6149370D01*
X7100239Y5930869D02*
G01*
X7100239Y6009878D01*
X7199960Y6009878D02*
G01*
X7199960Y5930869D01*
X7184720Y5915629D02*
G01*
X7115479Y5915629D01*
X7150069Y6795439D02*
G01*
X7229078Y6795439D01*
X7229078Y6895160D02*
G01*
X7150069Y6895160D01*
X7134829Y6879920D02*
G01*
X7134829Y6810679D01*
X7353330Y6795439D02*
G01*
X7274321Y6795439D01*
X7274321Y6895160D02*
G01*
X7353330Y6895160D01*
X7368570Y6879920D02*
G01*
X7368570Y6810679D01*
X6539560Y6349969D02*
G01*
X6539560Y6428978D01*
X6439839Y6428978D02*
G01*
X6439839Y6349969D01*
X6455079Y6334729D02*
G01*
X6524320Y6334729D01*
X6539560Y6553230D02*
G01*
X6539560Y6474221D01*
X6439839Y6474221D02*
G01*
X6439839Y6553230D01*
X6455079Y6568470D02*
G01*
X6524320Y6568470D01*
X6400830Y6717360D02*
G01*
X6321821Y6717360D01*
X6321821Y6617639D02*
G01*
X6400830Y6617639D01*
X6416070Y6632879D02*
G01*
X6416070Y6702120D01*
X6197569Y6717360D02*
G01*
X6276578Y6717360D01*
X6276578Y6617639D02*
G01*
X6197569Y6617639D01*
X6182329Y6632879D02*
G01*
X6182329Y6702120D01*
X6197569Y6744639D02*
G01*
X6276578Y6744639D01*
X6276578Y6844360D02*
G01*
X6197569Y6844360D01*
X6182329Y6829120D02*
G01*
X6182329Y6759879D01*
X6400830Y6744639D02*
G01*
X6321821Y6744639D01*
X6321821Y6844360D02*
G01*
X6400830Y6844360D01*
X6416070Y6829120D02*
G01*
X6416070Y6759879D01*
X6197569Y6858939D02*
G01*
X6276578Y6858939D01*
X6276578Y6958660D02*
G01*
X6197569Y6958660D01*
X6182329Y6943420D02*
G01*
X6182329Y6874179D01*
X6400830Y6858939D02*
G01*
X6321821Y6858939D01*
X6321821Y6958660D02*
G01*
X6400830Y6958660D01*
X6416070Y6943420D02*
G01*
X6416070Y6874179D01*
X2933669Y6579539D02*
G01*
X3012678Y6579539D01*
X3012678Y6679260D02*
G01*
X2933669Y6679260D01*
X2918429Y6664020D02*
G01*
X2918429Y6594779D01*
X3136930Y6579539D02*
G01*
X3057921Y6579539D01*
X3057921Y6679260D02*
G01*
X3136930Y6679260D01*
X3152170Y6664020D02*
G01*
X3152170Y6594779D01*
X4814239Y5978921D02*
G01*
X4814239Y6050724D01*
X4913960Y6050724D01*
X4913960Y5978921D01*
X4814239Y5933678D02*
G01*
X4814239Y5861875D01*
X4913960Y5861875D01*
X4913960Y5933678D01*
X4687239Y5978921D02*
G01*
X4687239Y6050724D01*
X4786960Y6050724D01*
X4786960Y5978921D01*
X4687239Y5933678D02*
G01*
X4687239Y5861875D01*
X4786960Y5861875D01*
X4786960Y5933678D01*
X4014139Y5902721D02*
G01*
X4014139Y5974524D01*
X4113860Y5974524D01*
X4113860Y5902721D01*
X4014139Y5857478D02*
G01*
X4014139Y5785675D01*
X4113860Y5785675D01*
X4113860Y5857478D01*
X1597421Y7314260D02*
G01*
X1669224Y7314260D01*
X1669224Y7214539D01*
X1597421Y7214539D01*
X1552178Y7314260D02*
G01*
X1480375Y7314260D01*
X1480375Y7214539D01*
X1552178Y7214539D01*
X1552178Y5271439D02*
G01*
X1480375Y5271439D01*
X1480375Y5371160D01*
X1552178Y5371160D01*
X1597421Y5271439D02*
G01*
X1669224Y5271439D01*
X1669224Y5371160D01*
X1597421Y5371160D01*
X4308078Y7354239D02*
G01*
X4236275Y7354239D01*
X4236275Y7453960D01*
X4308078Y7453960D01*
X4353321Y7354239D02*
G01*
X4425124Y7354239D01*
X4425124Y7453960D01*
X4353321Y7453960D01*
X4556521Y6933260D02*
G01*
X4628324Y6933260D01*
X4628324Y6833539D01*
X4556521Y6833539D01*
X4511278Y6933260D02*
G01*
X4439475Y6933260D01*
X4439475Y6833539D01*
X4511278Y6833539D01*
X4748860Y6200378D02*
G01*
X4748860Y6128575D01*
X4649139Y6128575D01*
X4649139Y6200378D01*
X4748860Y6245621D02*
G01*
X4748860Y6317424D01*
X4649139Y6317424D01*
X4649139Y6245621D01*
X3351860Y6733778D02*
G01*
X3351860Y6661975D01*
X3252139Y6661975D01*
X3252139Y6733778D01*
X3351860Y6779021D02*
G01*
X3351860Y6850824D01*
X3252139Y6850824D01*
X3252139Y6779021D01*
X3165078Y7036739D02*
G01*
X3093275Y7036739D01*
X3093275Y7136460D01*
X3165078Y7136460D01*
X3210321Y7036739D02*
G01*
X3282124Y7036739D01*
X3282124Y7136460D01*
X3210321Y7136460D01*
X3165078Y7214539D02*
G01*
X3093275Y7214539D01*
X3093275Y7314260D01*
X3165078Y7314260D01*
X3210321Y7214539D02*
G01*
X3282124Y7214539D01*
X3282124Y7314260D01*
X3210321Y7314260D01*
X3012678Y6808139D02*
G01*
X2940875Y6808139D01*
X2940875Y6907860D01*
X3012678Y6907860D01*
X3057921Y6808139D02*
G01*
X3129724Y6808139D01*
X3129724Y6907860D01*
X3057921Y6907860D01*
X3362721Y6628460D02*
G01*
X3434524Y6628460D01*
X3434524Y6528739D01*
X3362721Y6528739D01*
X3317478Y6628460D02*
G01*
X3245675Y6628460D01*
X3245675Y6528739D01*
X3317478Y6528739D01*
X5461939Y6004321D02*
G01*
X5461939Y6076124D01*
X5561660Y6076124D01*
X5561660Y6004321D01*
X5461939Y5959078D02*
G01*
X5461939Y5887275D01*
X5561660Y5887275D01*
X5561660Y5959078D01*
X7114778Y6389039D02*
G01*
X7042975Y6389039D01*
X7042975Y6488760D01*
X7114778Y6488760D01*
X7160021Y6389039D02*
G01*
X7231824Y6389039D01*
X7231824Y6488760D01*
X7160021Y6488760D01*
X6848078Y5830239D02*
G01*
X6776275Y5830239D01*
X6776275Y5929960D01*
X6848078Y5929960D01*
X6893321Y5830239D02*
G01*
X6965124Y5830239D01*
X6965124Y5929960D01*
X6893321Y5929960D01*
X6657578Y6604939D02*
G01*
X6585775Y6604939D01*
X6585775Y6704660D01*
X6657578Y6704660D01*
X6702821Y6604939D02*
G01*
X6774624Y6604939D01*
X6774624Y6704660D01*
X6702821Y6704660D01*
X7114778Y6503339D02*
G01*
X7042975Y6503339D01*
X7042975Y6603060D01*
X7114778Y6603060D01*
X7160021Y6503339D02*
G01*
X7231824Y6503339D01*
X7231824Y6603060D01*
X7160021Y6603060D01*
X7312421Y5320360D02*
G01*
X7384224Y5320360D01*
X7384224Y5220639D01*
X7312421Y5220639D01*
X7267178Y5320360D02*
G01*
X7195375Y5320360D01*
X7195375Y5220639D01*
X7267178Y5220639D01*
X6702821Y6831660D02*
G01*
X6774624Y6831660D01*
X6774624Y6731939D01*
X6702821Y6731939D01*
X6657578Y6831660D02*
G01*
X6585775Y6831660D01*
X6585775Y6731939D01*
X6657578Y6731939D01*
X6492478Y6008039D02*
G01*
X6420675Y6008039D01*
X6420675Y6107760D01*
X6492478Y6107760D01*
X6537721Y6008039D02*
G01*
X6609524Y6008039D01*
X6609524Y6107760D01*
X6537721Y6107760D01*
X5588939Y6004321D02*
G01*
X5588939Y6076124D01*
X5688660Y6076124D01*
X5688660Y6004321D01*
X5588939Y5959078D02*
G01*
X5588939Y5887275D01*
X5688660Y5887275D01*
X5688660Y5959078D01*
X7312421Y5548960D02*
G01*
X7384224Y5548960D01*
X7384224Y5449239D01*
X7312421Y5449239D01*
X7267178Y5548960D02*
G01*
X7195375Y5548960D01*
X7195375Y5449239D01*
X7267178Y5449239D01*
X3057921Y6793560D02*
G01*
X3129724Y6793560D01*
X3129724Y6693839D01*
X3057921Y6693839D01*
X3012678Y6793560D02*
G01*
X2940875Y6793560D01*
X2940875Y6693839D01*
X3012678Y6693839D01*
X5978921Y6884339D02*
G01*
X6057930Y6884339D01*
X6073170Y6899579D01*
X6073170Y6968820D01*
X6057930Y6984060D01*
X5978921Y6984060D01*
X5933678Y6884339D02*
G01*
X5854669Y6884339D01*
X5839429Y6899579D01*
X5839429Y6968820D01*
X5854669Y6984060D01*
X5933678Y6984060D01*
X4422378Y7214539D02*
G01*
X4350575Y7214539D01*
X4350575Y7314260D01*
X4422378Y7314260D01*
X4467621Y7214539D02*
G01*
X4539424Y7214539D01*
X4539424Y7314260D01*
X4467621Y7314260D01*
D14*
X6096604Y7093597D02*
G01*
X6096604Y7378598D01*
X6426606Y7093597D02*
G01*
X6426606Y7378598D01*
X6096604Y7378598D02*
G01*
X6197981Y7378598D01*
X6324211Y7378598D02*
G01*
X6426606Y7378598D01*
X6161605Y7048596D02*
G01*
X6197981Y7048596D01*
X6324211Y7048596D02*
G01*
X6361605Y7048596D01*
X6161605Y7048596D02*
G01*
X6141605Y7048596D01*
X6096604Y7093597D01*
X6361605Y7048596D02*
G01*
X6381605Y7048596D01*
X6426606Y7093597D01*
X3574402Y5931504D02*
G01*
X3289401Y5931504D01*
X3574402Y6261506D02*
G01*
X3289401Y6261506D01*
X3289401Y5931504D02*
G01*
X3289401Y6032880D01*
X3289401Y6159111D02*
G01*
X3289401Y6261506D01*
X3619403Y5996505D02*
G01*
X3619403Y6032880D01*
X3619403Y6159111D02*
G01*
X3619403Y6196505D01*
X3619403Y5996505D02*
G01*
X3619403Y5976505D01*
X3574402Y5931504D01*
X3619403Y6196505D02*
G01*
X3619403Y6216505D01*
X3574402Y6261506D01*
D12*
X5242798Y7467498D02*
G01*
X5112799Y7467498D01*
X5112799Y7327498D01*
X5372785Y7437501D02*
G01*
X5372785Y7167498D01*
X5142788Y7167498D01*
X5142788Y7437501D01*
X5372785Y7437501D01*
D11*
X2654119Y5392460D02*
G01*
X2505621Y5392460D01*
X2505621Y5173939D02*
G01*
X2654119Y5173939D01*
X2669359Y5189179D02*
G01*
X2669359Y5377220D01*
X2171880Y5392460D02*
G01*
X2320378Y5392460D01*
X2320378Y5173939D02*
G01*
X2171880Y5173939D01*
X2156640Y5189179D02*
G01*
X2156640Y5377220D01*
X7868960Y5194480D02*
G01*
X7868960Y5342978D01*
X7650439Y5342978D02*
G01*
X7650439Y5194480D01*
X7665679Y5179240D02*
G01*
X7853720Y5179240D01*
X7868960Y5676719D02*
G01*
X7868960Y5528221D01*
X7650439Y5528221D02*
G01*
X7650439Y5676719D01*
X7665679Y5691959D02*
G01*
X7853720Y5691959D01*
D14*
X6546900Y7440759D02*
G01*
X7346899Y7440759D01*
X6746900Y6940753D02*
G01*
X6546900Y6940753D01*
X7346899Y6940753D02*
G01*
X7146899Y6940753D01*
X7346899Y6940753D02*
G01*
X7346899Y6996440D01*
X7346899Y7382667D02*
G01*
X7346899Y7440759D01*
X6546900Y7440759D02*
G01*
X6546900Y7382667D01*
X6546900Y6996440D02*
G01*
X6546900Y6940753D01*
D13*
X5029367Y6973935D02*
G01*
X4953167Y6973935D01*
X4776365Y6973935D02*
G01*
X4852565Y6973935D01*
X4776365Y6841815D02*
G01*
X4852565Y6841815D01*
D11*
X4776365Y6841815D02*
G01*
X4761136Y6857057D01*
X4761136Y6958700D01*
X4776365Y6973935D01*
D13*
X5029367Y6841815D02*
G01*
X4953167Y6841815D01*
D11*
X5029367Y6973935D02*
G01*
X5044610Y6958700D01*
X5044610Y6857057D01*
X5029367Y6841815D01*
D13*
X4775032Y6996064D02*
G01*
X4851232Y6996064D01*
X5028034Y6996064D02*
G01*
X4951834Y6996064D01*
X5028034Y7128184D02*
G01*
X4951834Y7128184D01*
D11*
X5028034Y7128184D02*
G01*
X5043263Y7112942D01*
X5043263Y7011299D01*
X5028034Y6996064D01*
D13*
X4775032Y7128184D02*
G01*
X4851232Y7128184D01*
D11*
X4775032Y6996064D02*
G01*
X4759789Y7011299D01*
X4759789Y7112942D01*
X4775032Y7128184D01*
D13*
X6146800Y6223000D02*
G01*
X6375400Y6223000D01*
X6375400Y6019800D02*
G01*
X6146800Y6019800D01*
D14*
X711200Y5486400D02*
G01*
X975034Y5384584D01*
X1292608Y5346445D01*
X714070Y7086381D02*
G01*
X977900Y7188200D01*
X1295476Y7226335D01*
X1835012Y5486493D02*
G01*
X601403Y5486493D01*
X2731401Y5486493D02*
G01*
X2127793Y5486493D01*
X1835012Y7086495D02*
G01*
X601403Y7086495D01*
X2731401Y7086495D02*
G01*
X2127793Y7086495D01*
X601403Y5486493D02*
G01*
X601403Y7086495D01*
X2731401Y5486493D02*
G01*
X2731401Y7086495D01*
D15*
X4365231Y6851970D02*
G01*
X3926994Y6413733D01*
X3456429Y6884299D01*
X3925199Y7353066D01*
X4395764Y6882500D01*
X4341881Y6828619D01*
D11*
X5382333Y6896874D02*
G01*
X5422900Y6937438D01*
X5463466Y6896874D01*
X5817374Y6461833D02*
G01*
X5857938Y6502400D01*
X5817374Y6542966D01*
X5028425Y6542966D02*
G01*
X4987861Y6502400D01*
X5028425Y6461833D01*
X5463466Y6107925D02*
G01*
X5422900Y6067361D01*
X5382333Y6107925D01*
D15*
X6775704Y6001237D02*
G01*
X6819900Y5957041D01*
X6864095Y6001237D01*
X7079762Y6216904D02*
G01*
X7123958Y6261100D01*
X7079762Y6305295D01*
X6864095Y6520962D02*
G01*
X6819900Y6565158D01*
X6775704Y6520962D01*
X6560037Y6216904D02*
G01*
X6515841Y6261100D01*
X6560037Y6305295D01*
X6401104Y6328892D02*
G01*
X6401104Y6568897D01*
X6121095Y6318910D02*
G01*
X6121095Y6558889D01*
D14*
X7683494Y6731007D02*
G01*
X7484099Y6731007D01*
X8026397Y6731007D02*
G01*
X7879100Y6731007D01*
X7683182Y5823808D02*
G01*
X7484409Y5823808D01*
X8041297Y5823808D02*
G01*
X7879412Y5823808D01*
X8041297Y6723806D02*
G01*
X8041297Y5823808D01*
D12*
X4498101Y6083401D02*
G01*
X4628100Y6083401D01*
X4628100Y6223401D01*
X4368114Y6113398D02*
G01*
X4368114Y6383401D01*
X4598111Y6383401D01*
X4598111Y6113398D01*
X4368114Y6113398D01*
D11*
G75*
G01*
X4813270Y7377760D02*
G03*
X4798030Y7362520I0J-15240D01*
G75*
G01*
X4798030Y7293280D02*
G03*
X4813270Y7278040I15240J0D01*
G75*
G01*
X5016530Y7377760D02*
G02*
X5031770Y7362520I0J-15240D01*
G75*
G01*
X5031770Y7293280D02*
G02*
X5016530Y7278040I-15240J0D01*
G75*
G01*
X5156170Y7149160D02*
G03*
X5140930Y7133920I0J-15240D01*
G75*
G01*
X5140930Y7064680D02*
G03*
X5156170Y7049440I15240J0D01*
G75*
G01*
X5359430Y7149160D02*
G02*
X5374670Y7133920I0J-15240D01*
G75*
G01*
X5374670Y7064680D02*
G02*
X5359430Y7049440I-15240J0D01*
G75*
G01*
X5765830Y5766740D02*
G03*
X5781070Y5781980I0J15240D01*
G75*
G01*
X5781070Y5851220D02*
G03*
X5765830Y5866460I-15240J0D01*
G75*
G01*
X5562570Y5766740D02*
G02*
X5547330Y5781980I0J15240D01*
G75*
G01*
X5547330Y5851220D02*
G02*
X5562570Y5866460I15240J0D01*
G75*
G01*
X5206970Y5904560D02*
G03*
X5191730Y5889320I0J-15240D01*
G75*
G01*
X5191730Y5820080D02*
G03*
X5206970Y5804840I15240J0D01*
G75*
G01*
X5410230Y5904560D02*
G02*
X5425470Y5889320I0J-15240D01*
G75*
G01*
X5425470Y5820080D02*
G02*
X5410230Y5804840I-15240J0D01*
G75*
G01*
X5068240Y5841970D02*
G03*
X5083480Y5826730I15240J0D01*
G75*
G01*
X5152720Y5826730D02*
G03*
X5167960Y5841970I0J15240D01*
G75*
G01*
X5068240Y6045230D02*
G02*
X5083480Y6060470I15240J0D01*
G75*
G01*
X5152720Y6060470D02*
G02*
X5167960Y6045230I0J-15240D01*
G75*
G01*
X4941240Y5841970D02*
G03*
X4956480Y5826730I15240J0D01*
G75*
G01*
X5025720Y5826730D02*
G03*
X5040960Y5841970I0J15240D01*
G75*
G01*
X4941240Y6045230D02*
G02*
X4956480Y6060470I15240J0D01*
G75*
G01*
X5025720Y6060470D02*
G02*
X5040960Y6045230I0J-15240D01*
G75*
G01*
X3899840Y5778470D02*
G03*
X3915080Y5763230I15240J0D01*
G75*
G01*
X3984320Y5763230D02*
G03*
X3999560Y5778470I0J15240D01*
G75*
G01*
X3899840Y5981730D02*
G02*
X3915080Y5996970I15240J0D01*
G75*
G01*
X3984320Y5996970D02*
G02*
X3999560Y5981730I0J-15240D01*
G75*
G01*
X3785540Y5778470D02*
G03*
X3800780Y5763230I15240J0D01*
G75*
G01*
X3870020Y5763230D02*
G03*
X3885260Y5778470I0J15240D01*
G75*
G01*
X3785540Y5981730D02*
G02*
X3800780Y5996970I15240J0D01*
G75*
G01*
X3870020Y5996970D02*
G02*
X3885260Y5981730I0J-15240D01*
G75*
G01*
X4317060Y6400830D02*
G03*
X4301820Y6416070I-15240J0D01*
G75*
G01*
X4232580Y6416070D02*
G03*
X4217340Y6400830I0J-15240D01*
G75*
G01*
X4317060Y6197570D02*
G02*
X4301820Y6182330I-15240J0D01*
G75*
G01*
X4232580Y6182330D02*
G02*
X4217340Y6197570I0J15240D01*
G75*
G01*
X3378170Y6476060D02*
G03*
X3362930Y6460820I0J-15240D01*
G75*
G01*
X3362930Y6391580D02*
G03*
X3378170Y6376340I15240J0D01*
G75*
G01*
X3581430Y6476060D02*
G02*
X3596670Y6460820I0J-15240D01*
G75*
G01*
X3596670Y6391580D02*
G02*
X3581430Y6376340I-15240J0D01*
G75*
G01*
X3873530Y6198540D02*
G03*
X3888770Y6213780I0J15240D01*
G75*
G01*
X3888770Y6283020D02*
G03*
X3873530Y6298260I-15240J0D01*
G75*
G01*
X3670270Y6198540D02*
G02*
X3655030Y6213780I0J15240D01*
G75*
G01*
X3655030Y6283020D02*
G02*
X3670270Y6298260I15240J0D01*
G75*
G01*
X4584730Y5969940D02*
G03*
X4599970Y5985180I0J15240D01*
G75*
G01*
X4599970Y6054420D02*
G03*
X4584730Y6069660I-15240J0D01*
G75*
G01*
X4381470Y5969940D02*
G02*
X4366230Y5985180I0J15240D01*
G75*
G01*
X4366230Y6054420D02*
G02*
X4381470Y6069660I15240J0D01*
G75*
G01*
X4381470Y6526860D02*
G03*
X4366230Y6511620I0J-15240D01*
G75*
G01*
X4366230Y6442380D02*
G03*
X4381470Y6427140I15240J0D01*
G75*
G01*
X4584730Y6526860D02*
G02*
X4599970Y6511620I0J-15240D01*
G75*
G01*
X4599970Y6442380D02*
G02*
X4584730Y6427140I-15240J0D01*
G75*
G01*
X3352770Y5904560D02*
G03*
X3337530Y5889320I0J-15240D01*
G75*
G01*
X3337530Y5820080D02*
G03*
X3352770Y5804840I15240J0D01*
G75*
G01*
X3556030Y5904560D02*
G02*
X3571270Y5889320I0J-15240D01*
G75*
G01*
X3571270Y5820080D02*
G02*
X3556030Y5804840I-15240J0D01*
G75*
G01*
X3352770Y5790260D02*
G03*
X3337530Y5775020I0J-15240D01*
G75*
G01*
X3337530Y5705780D02*
G03*
X3352770Y5690540I15240J0D01*
G75*
G01*
X3556030Y5790260D02*
G02*
X3571270Y5775020I0J-15240D01*
G75*
G01*
X3571270Y5705780D02*
G02*
X3556030Y5690540I-15240J0D01*
G75*
G01*
X3352770Y5675960D02*
G03*
X3337530Y5660720I0J-15240D01*
G75*
G01*
X3337530Y5591480D02*
G03*
X3352770Y5576240I15240J0D01*
G75*
G01*
X3556030Y5675960D02*
G02*
X3571270Y5660720I0J-15240D01*
G75*
G01*
X3571270Y5591480D02*
G02*
X3556030Y5576240I-15240J0D01*
G75*
G01*
X3352770Y5561660D02*
G03*
X3337530Y5546420I0J-15240D01*
G75*
G01*
X3337530Y5477180D02*
G03*
X3352770Y5461940I15240J0D01*
G75*
G01*
X3556030Y5561660D02*
G02*
X3571270Y5546420I0J-15240D01*
G75*
G01*
X3571270Y5477180D02*
G02*
X3556030Y5461940I-15240J0D01*
G75*
G01*
X3136930Y6350940D02*
G03*
X3152170Y6366180I0J15240D01*
G75*
G01*
X3152170Y6435420D02*
G03*
X3136930Y6450660I-15240J0D01*
G75*
G01*
X2933670Y6350940D02*
G02*
X2918430Y6366180I0J15240D01*
G75*
G01*
X2918430Y6435420D02*
G02*
X2933670Y6450660I15240J0D01*
G75*
G01*
X3136930Y6465240D02*
G03*
X3152170Y6480480I0J15240D01*
G75*
G01*
X3152170Y6549720D02*
G03*
X3136930Y6564960I-15240J0D01*
G75*
G01*
X2933670Y6465240D02*
G02*
X2918430Y6480480I0J15240D01*
G75*
G01*
X2918430Y6549720D02*
G02*
X2933670Y6564960I15240J0D01*
G75*
G01*
X2933670Y6336360D02*
G03*
X2918430Y6321120I0J-15240D01*
G75*
G01*
X2918430Y6251880D02*
G03*
X2933670Y6236640I15240J0D01*
G75*
G01*
X3136930Y6336360D02*
G02*
X3152170Y6321120I0J-15240D01*
G75*
G01*
X3152170Y6251880D02*
G02*
X3136930Y6236640I-15240J0D01*
G75*
G01*
X5410230Y5931840D02*
G03*
X5425470Y5947080I0J15240D01*
G75*
G01*
X5425470Y6016320D02*
G03*
X5410230Y6031560I-15240J0D01*
G75*
G01*
X5206970Y5931840D02*
G02*
X5191730Y5947080I0J15240D01*
G75*
G01*
X5191730Y6016320D02*
G02*
X5206970Y6031560I15240J0D01*
G75*
G01*
X5156170Y7034860D02*
G03*
X5140930Y7019620I0J-15240D01*
G75*
G01*
X5140930Y6950380D02*
G03*
X5156170Y6935140I15240J0D01*
G75*
G01*
X5359430Y7034860D02*
G02*
X5374670Y7019620I0J-15240D01*
G75*
G01*
X5374670Y6950380D02*
G02*
X5359430Y6935140I-15240J0D01*
G75*
G01*
X4991130Y6604940D02*
G03*
X5006370Y6620180I0J15240D01*
G75*
G01*
X5006370Y6689420D02*
G03*
X4991130Y6704660I-15240J0D01*
G75*
G01*
X4787870Y6604940D02*
G02*
X4772630Y6620180I0J15240D01*
G75*
G01*
X4772630Y6689420D02*
G02*
X4787870Y6704660I15240J0D01*
G75*
G01*
X4991130Y6719240D02*
G03*
X5006370Y6734480I0J15240D01*
G75*
G01*
X5006370Y6803720D02*
G03*
X4991130Y6818960I-15240J0D01*
G75*
G01*
X4787870Y6719240D02*
G02*
X4772630Y6734480I0J15240D01*
G75*
G01*
X4772630Y6803720D02*
G02*
X4787870Y6818960I15240J0D01*
G75*
G01*
X5016530Y7151040D02*
G03*
X5031770Y7166280I0J15240D01*
G75*
G01*
X5031770Y7235520D02*
G03*
X5016530Y7250760I-15240J0D01*
G75*
G01*
X4813270Y7151040D02*
G02*
X4798030Y7166280I0J15240D01*
G75*
G01*
X4798030Y7235520D02*
G02*
X4813270Y7250760I15240J0D01*
G75*
G01*
X5930930Y7011340D02*
G03*
X5946170Y7026580I0J15240D01*
G75*
G01*
X5946170Y7095820D02*
G03*
X5930930Y7111060I-15240J0D01*
G75*
G01*
X5727670Y7011340D02*
G02*
X5712430Y7026580I0J15240D01*
G75*
G01*
X5712430Y7095820D02*
G02*
X5727670Y7111060I15240J0D01*
G75*
G01*
X5701360Y7099330D02*
G03*
X5686120Y7114570I-15240J0D01*
G75*
G01*
X5616880Y7114570D02*
G03*
X5601640Y7099330I0J-15240D01*
G75*
G01*
X5701360Y6896070D02*
G02*
X5686120Y6880830I-15240J0D01*
G75*
G01*
X5616880Y6880830D02*
G02*
X5601640Y6896070I0J15240D01*
G75*
G01*
X7199960Y6134130D02*
G03*
X7184720Y6149370I-15240J0D01*
G75*
G01*
X7115480Y6149370D02*
G03*
X7100240Y6134130I0J-15240D01*
G75*
G01*
X7199960Y5930870D02*
G02*
X7184720Y5915630I-15240J0D01*
G75*
G01*
X7115480Y5915630D02*
G02*
X7100240Y5930870I0J15240D01*
G75*
G01*
X7150070Y6895160D02*
G03*
X7134830Y6879920I0J-15240D01*
G75*
G01*
X7134830Y6810680D02*
G03*
X7150070Y6795440I15240J0D01*
G75*
G01*
X7353330Y6895160D02*
G02*
X7368570Y6879920I0J-15240D01*
G75*
G01*
X7368570Y6810680D02*
G02*
X7353330Y6795440I-15240J0D01*
G75*
G01*
X6439840Y6349970D02*
G03*
X6455080Y6334730I15240J0D01*
G75*
G01*
X6524320Y6334730D02*
G03*
X6539560Y6349970I0J15240D01*
G75*
G01*
X6439840Y6553230D02*
G02*
X6455080Y6568470I15240J0D01*
G75*
G01*
X6524320Y6568470D02*
G02*
X6539560Y6553230I0J-15240D01*
G75*
G01*
X6400830Y6617640D02*
G03*
X6416070Y6632880I0J15240D01*
G75*
G01*
X6416070Y6702120D02*
G03*
X6400830Y6717360I-15240J0D01*
G75*
G01*
X6197570Y6617640D02*
G02*
X6182330Y6632880I0J15240D01*
G75*
G01*
X6182330Y6702120D02*
G02*
X6197570Y6717360I15240J0D01*
G75*
G01*
X6197570Y6844360D02*
G03*
X6182330Y6829120I0J-15240D01*
G75*
G01*
X6182330Y6759880D02*
G03*
X6197570Y6744640I15240J0D01*
G75*
G01*
X6400830Y6844360D02*
G02*
X6416070Y6829120I0J-15240D01*
G75*
G01*
X6416070Y6759880D02*
G02*
X6400830Y6744640I-15240J0D01*
G75*
G01*
X6197570Y6958660D02*
G03*
X6182330Y6943420I0J-15240D01*
G75*
G01*
X6182330Y6874180D02*
G03*
X6197570Y6858940I15240J0D01*
G75*
G01*
X6400830Y6958660D02*
G02*
X6416070Y6943420I0J-15240D01*
G75*
G01*
X6416070Y6874180D02*
G02*
X6400830Y6858940I-15240J0D01*
G75*
G01*
X2933670Y6679260D02*
G03*
X2918430Y6664020I0J-15240D01*
G75*
G01*
X2918430Y6594780D02*
G03*
X2933670Y6579540I15240J0D01*
G75*
G01*
X3136930Y6679260D02*
G02*
X3152170Y6664020I0J-15240D01*
G75*
G01*
X3152170Y6594780D02*
G02*
X3136930Y6579540I-15240J0D01*
D14*
G75*
G01*
X6197605Y7331598D02*
G03*
X6199561Y7098520I65000J-116002D01*
G75*
G01*
X6324605Y7097598D02*
G03*
X6329441Y7330925I-61997J117999D01*
G75*
G01*
X3336402Y6032505D02*
G03*
X3569480Y6034461I116002J65000D01*
G75*
G01*
X3570402Y6159505D02*
G03*
X3337075Y6164341I-117999J-61997D01*
D11*
G75*
G01*
X2654120Y5173939D02*
G03*
X2669360Y5189179I0J15240D01*
G75*
G01*
X2669360Y5377221D02*
G03*
X2654120Y5392461I-15240J0D01*
G75*
G01*
X2171880Y5173939D02*
G02*
X2156640Y5189179I0J15240D01*
G75*
G01*
X2156640Y5377221D02*
G02*
X2171880Y5392461I15240J0D01*
G75*
G01*
X7650439Y5194480D02*
G03*
X7665679Y5179240I15240J0D01*
G75*
G01*
X7853721Y5179240D02*
G03*
X7868961Y5194480I0J15240D01*
G75*
G01*
X7650439Y5676720D02*
G02*
X7665679Y5691960I15240J0D01*
G75*
G01*
X7853721Y5691960D02*
G02*
X7868961Y5676720I0J-15240D01*
D16*
G75*
G01*
X3876924Y7410193D02*
G03*
X3876744Y7410013I-14232J14052D01*
D17*
G75*
G01*
X6503436Y6220508D02*
G03*
X6503614Y6220330I-10518J-10696D01*
D18*
G75*
G01*
X6110986Y6280912D02*
G03*
X6111240Y6280912I127J-11999D01*
D14*
G75*
G01
X3926484Y7268769D02*
G03X3926484Y7268769I-17043J0D01*
D19*
G75*
G01
X5024526Y6407633D02*
G03X5024526Y6407633I-7493J0D01*
M02*
