G04 Layer: InnerLayer1*
G04 EasyEDA v6.5.42, 2024-05-05 03:13:37*
G04 7250d8c6975e4c4d8f914fcb0e692275,b9277fd2045942759ab1a28cc0c323af,10*
G04 Gerber Generator version 0.2*
G04 Scale: 100 percent, Rotated: No, Reflected: No *
G04 Dimensions in millimeters *
G04 leading zeros omitted , absolute positions ,4 integer and 5 decimal *
%FSLAX45Y45*%
%MOMM*%

%ADD10R,1.6000X1.6000*%
%ADD11C,1.6000*%
%ADD12C,1.8000*%
%ADD13C,2.5000*%
%ADD14O,1.9999959999999999X1.0999978000000001*%
%ADD15O,1.7999964X1.1999976*%
%ADD16C,0.6096*%
%ADD17C,0.4500*%
%ADD18C,0.0191*%

%LPD*%
G36*
X2156460Y5105908D02*
G01*
X2152548Y5106670D01*
X2149297Y5108905D01*
X2147062Y5112156D01*
X2146300Y5116068D01*
X2146300Y7469631D01*
X2147062Y7473543D01*
X2149297Y7476794D01*
X2152548Y7479030D01*
X2156460Y7479792D01*
X5400040Y7479792D01*
X5403951Y7479030D01*
X5407202Y7476794D01*
X5409438Y7473543D01*
X5410200Y7469631D01*
X5410200Y7163816D01*
X5411216Y7162800D01*
X6009640Y7162800D01*
X6013551Y7162038D01*
X6016802Y7159802D01*
X6019038Y7156551D01*
X6019800Y7152640D01*
X6019800Y6960616D01*
X6020816Y6959600D01*
X6069584Y6959600D01*
X6070600Y6960616D01*
X6070600Y7469631D01*
X6071362Y7473543D01*
X6073597Y7476794D01*
X6076848Y7479030D01*
X6080760Y7479792D01*
X7914131Y7479792D01*
X7918043Y7479030D01*
X7921294Y7476794D01*
X7923530Y7473543D01*
X7924292Y7469631D01*
X7924292Y5116068D01*
X7923530Y5112156D01*
X7921294Y5108905D01*
X7918043Y5106670D01*
X7914131Y5105908D01*
X6212535Y5105908D01*
X6208674Y5106670D01*
X6205372Y5108905D01*
X5962192Y5352034D01*
X5959297Y5354523D01*
X5952845Y5358079D01*
X5947460Y5359603D01*
X5943193Y5359908D01*
X3556457Y5359908D01*
X3550361Y5359400D01*
X3543350Y5359196D01*
X3542588Y5358688D01*
X3292805Y5108905D01*
X3289503Y5106670D01*
X3285591Y5105908D01*
G37*

%LPC*%
G36*
X6942429Y5463641D02*
G01*
X6951370Y5463641D01*
X6960158Y5465267D01*
X6968439Y5468518D01*
X6976059Y5473192D01*
X6982663Y5479237D01*
X6987997Y5486349D01*
X6992010Y5494324D01*
X6994448Y5502910D01*
X6995261Y5511800D01*
X6994448Y5520690D01*
X6992010Y5529275D01*
X6987997Y5537250D01*
X6982663Y5544362D01*
X6976059Y5550408D01*
X6968439Y5555081D01*
X6960158Y5558332D01*
X6951370Y5559958D01*
X6942429Y5559958D01*
X6933641Y5558332D01*
X6925360Y5555081D01*
X6917740Y5550408D01*
X6911136Y5544362D01*
X6905802Y5537250D01*
X6901789Y5529275D01*
X6899351Y5520690D01*
X6898538Y5511800D01*
X6899351Y5502910D01*
X6901789Y5494324D01*
X6905802Y5486349D01*
X6911136Y5479237D01*
X6917740Y5473192D01*
X6925360Y5468518D01*
X6933641Y5465267D01*
G37*
G36*
X7234529Y5552541D02*
G01*
X7243470Y5552541D01*
X7252258Y5554167D01*
X7260539Y5557418D01*
X7268159Y5562092D01*
X7274763Y5568137D01*
X7280097Y5575249D01*
X7280706Y5576417D01*
X7283551Y5579872D01*
X7287564Y5581802D01*
X7292035Y5581802D01*
X7296048Y5579872D01*
X7298893Y5576417D01*
X7299502Y5575249D01*
X7304836Y5568137D01*
X7311440Y5562092D01*
X7319060Y5557418D01*
X7327341Y5554167D01*
X7336129Y5552541D01*
X7345070Y5552541D01*
X7353858Y5554167D01*
X7362139Y5557418D01*
X7369759Y5562092D01*
X7376363Y5568137D01*
X7381697Y5575249D01*
X7385710Y5583224D01*
X7388148Y5591810D01*
X7388961Y5600700D01*
X7388148Y5609590D01*
X7385710Y5618175D01*
X7381697Y5626150D01*
X7376363Y5633262D01*
X7369759Y5639308D01*
X7362139Y5643981D01*
X7353858Y5647232D01*
X7345070Y5648858D01*
X7336129Y5648858D01*
X7327341Y5647232D01*
X7319060Y5643981D01*
X7311440Y5639308D01*
X7304836Y5633262D01*
X7299502Y5626150D01*
X7298893Y5624982D01*
X7296048Y5621528D01*
X7292035Y5619597D01*
X7287564Y5619597D01*
X7283551Y5621528D01*
X7280706Y5624982D01*
X7280097Y5626150D01*
X7274763Y5633262D01*
X7268159Y5639308D01*
X7260539Y5643981D01*
X7252258Y5647232D01*
X7243470Y5648858D01*
X7234529Y5648858D01*
X7225741Y5647232D01*
X7217460Y5643981D01*
X7209840Y5639308D01*
X7203236Y5633262D01*
X7197902Y5626150D01*
X7193889Y5618175D01*
X7191451Y5609590D01*
X7190638Y5600700D01*
X7191451Y5591810D01*
X7193889Y5583224D01*
X7197902Y5575249D01*
X7203236Y5568137D01*
X7209840Y5562092D01*
X7217460Y5557418D01*
X7225741Y5554167D01*
G37*
G36*
X3005429Y5603341D02*
G01*
X3014370Y5603341D01*
X3023158Y5604967D01*
X3031439Y5608218D01*
X3039059Y5612892D01*
X3045663Y5618937D01*
X3050997Y5626049D01*
X3055010Y5634024D01*
X3057448Y5642610D01*
X3058261Y5651500D01*
X3057448Y5660390D01*
X3055010Y5668975D01*
X3050997Y5676950D01*
X3045663Y5684062D01*
X3039059Y5690108D01*
X3031439Y5694781D01*
X3023158Y5698032D01*
X3014370Y5699658D01*
X3005429Y5699658D01*
X2996641Y5698032D01*
X2988360Y5694781D01*
X2980740Y5690108D01*
X2974136Y5684062D01*
X2968802Y5676950D01*
X2964789Y5668975D01*
X2962351Y5660390D01*
X2961538Y5651500D01*
X2962351Y5642610D01*
X2964789Y5634024D01*
X2968802Y5626049D01*
X2974136Y5618937D01*
X2980740Y5612892D01*
X2988360Y5608218D01*
X2996641Y5604967D01*
G37*
G36*
X2827629Y5603341D02*
G01*
X2836570Y5603341D01*
X2845358Y5604967D01*
X2853639Y5608218D01*
X2861259Y5612892D01*
X2867863Y5618937D01*
X2873197Y5626049D01*
X2877210Y5634024D01*
X2879648Y5642610D01*
X2880461Y5651500D01*
X2879648Y5660390D01*
X2877210Y5668975D01*
X2873197Y5676950D01*
X2867863Y5684062D01*
X2861259Y5690108D01*
X2853639Y5694781D01*
X2845358Y5698032D01*
X2836570Y5699658D01*
X2827629Y5699658D01*
X2818841Y5698032D01*
X2810560Y5694781D01*
X2802940Y5690108D01*
X2796336Y5684062D01*
X2791002Y5676950D01*
X2786989Y5668975D01*
X2784551Y5660390D01*
X2783738Y5651500D01*
X2784551Y5642610D01*
X2786989Y5634024D01*
X2791002Y5626049D01*
X2796336Y5618937D01*
X2802940Y5612892D01*
X2810560Y5608218D01*
X2818841Y5604967D01*
G37*
G36*
X6104229Y5616041D02*
G01*
X6113170Y5616041D01*
X6121958Y5617667D01*
X6130239Y5620918D01*
X6137859Y5625592D01*
X6144463Y5631637D01*
X6149797Y5638749D01*
X6153810Y5646724D01*
X6156248Y5655310D01*
X6157061Y5664200D01*
X6156248Y5673090D01*
X6153810Y5681675D01*
X6149797Y5689650D01*
X6144463Y5696762D01*
X6137859Y5702808D01*
X6130239Y5707481D01*
X6121958Y5710732D01*
X6113170Y5712358D01*
X6104229Y5712358D01*
X6095441Y5710732D01*
X6087160Y5707481D01*
X6079540Y5702808D01*
X6072936Y5696762D01*
X6067602Y5689650D01*
X6063589Y5681675D01*
X6061151Y5673090D01*
X6060338Y5664200D01*
X6061151Y5655310D01*
X6063589Y5646724D01*
X6067602Y5638749D01*
X6072936Y5631637D01*
X6079540Y5625592D01*
X6087160Y5620918D01*
X6095441Y5617667D01*
G37*
G36*
X6205829Y5717641D02*
G01*
X6214770Y5717641D01*
X6223558Y5719267D01*
X6231839Y5722518D01*
X6239459Y5727192D01*
X6246063Y5733237D01*
X6251397Y5740349D01*
X6255410Y5748324D01*
X6256426Y5751982D01*
X6258407Y5755690D01*
X6261709Y5758332D01*
X6265722Y5759348D01*
X6269888Y5758688D01*
X6273241Y5757367D01*
X6282029Y5755741D01*
X6290970Y5755741D01*
X6299758Y5757367D01*
X6308039Y5760618D01*
X6315659Y5765292D01*
X6322263Y5771337D01*
X6327597Y5778449D01*
X6331610Y5786424D01*
X6334048Y5795010D01*
X6334861Y5803900D01*
X6334048Y5812790D01*
X6331610Y5821375D01*
X6327597Y5829350D01*
X6322263Y5836462D01*
X6315659Y5842508D01*
X6308039Y5847181D01*
X6299758Y5850432D01*
X6290970Y5852058D01*
X6282029Y5852058D01*
X6273241Y5850432D01*
X6264960Y5847181D01*
X6257340Y5842508D01*
X6250736Y5836462D01*
X6245402Y5829350D01*
X6241389Y5821375D01*
X6240373Y5817717D01*
X6238392Y5814009D01*
X6235090Y5811367D01*
X6231077Y5810351D01*
X6226911Y5811012D01*
X6223558Y5812332D01*
X6214770Y5813958D01*
X6205829Y5813958D01*
X6197041Y5812332D01*
X6188760Y5809081D01*
X6181140Y5804408D01*
X6174536Y5798362D01*
X6169202Y5791250D01*
X6165189Y5783275D01*
X6162751Y5774690D01*
X6161938Y5765800D01*
X6162751Y5756910D01*
X6165189Y5748324D01*
X6169202Y5740349D01*
X6174536Y5733237D01*
X6181140Y5727192D01*
X6188760Y5722518D01*
X6197041Y5719267D01*
G37*
G36*
X2569108Y5736590D02*
G01*
X2582926Y5737504D01*
X2596489Y5740196D01*
X2609596Y5744667D01*
X2622042Y5750814D01*
X2633573Y5758484D01*
X2643987Y5767628D01*
X2653080Y5778042D01*
X2660802Y5789574D01*
X2666898Y5801969D01*
X2671368Y5815076D01*
X2674061Y5828690D01*
X2674975Y5842508D01*
X2674061Y5856325D01*
X2671368Y5869889D01*
X2666898Y5882995D01*
X2660802Y5895441D01*
X2653080Y5906973D01*
X2643987Y5917387D01*
X2633573Y5926480D01*
X2622042Y5934202D01*
X2609596Y5940298D01*
X2596489Y5944768D01*
X2582926Y5947460D01*
X2569108Y5948375D01*
X2555290Y5947460D01*
X2541676Y5944768D01*
X2528570Y5940298D01*
X2516174Y5934202D01*
X2504643Y5926480D01*
X2494229Y5917387D01*
X2485085Y5906973D01*
X2477414Y5895441D01*
X2471267Y5882995D01*
X2466797Y5869889D01*
X2464104Y5856325D01*
X2463190Y5842508D01*
X2464104Y5828690D01*
X2466797Y5815076D01*
X2471267Y5801969D01*
X2477414Y5789574D01*
X2485085Y5778042D01*
X2494229Y5767628D01*
X2504643Y5758484D01*
X2516174Y5750814D01*
X2528570Y5744667D01*
X2541676Y5740196D01*
X2555290Y5737504D01*
G37*
G36*
X7751673Y5755386D02*
G01*
X7810957Y5755386D01*
X7823504Y5756300D01*
X7835493Y5758891D01*
X7846974Y5763209D01*
X7857744Y5769051D01*
X7867548Y5776417D01*
X7876184Y5785053D01*
X7883550Y5794857D01*
X7889443Y5805627D01*
X7893710Y5817108D01*
X7896301Y5829096D01*
X7897164Y5841288D01*
X7896301Y5853531D01*
X7893710Y5865520D01*
X7889443Y5877001D01*
X7883550Y5887720D01*
X7876184Y5897524D01*
X7867548Y5906211D01*
X7857744Y5913577D01*
X7846974Y5919419D01*
X7835493Y5923686D01*
X7823504Y5926328D01*
X7810957Y5927191D01*
X7751673Y5927191D01*
X7739075Y5926328D01*
X7727086Y5923686D01*
X7715605Y5919419D01*
X7704886Y5913577D01*
X7695082Y5906211D01*
X7686395Y5897524D01*
X7679029Y5887720D01*
X7673187Y5877001D01*
X7668869Y5865520D01*
X7666278Y5853531D01*
X7665415Y5841288D01*
X7666278Y5829096D01*
X7668869Y5817108D01*
X7673187Y5805627D01*
X7679029Y5794857D01*
X7686395Y5785053D01*
X7695082Y5776417D01*
X7704886Y5769051D01*
X7715605Y5763209D01*
X7727086Y5758891D01*
X7739075Y5756300D01*
G37*
G36*
X4516729Y5755741D02*
G01*
X4525670Y5755741D01*
X4534458Y5757367D01*
X4542739Y5760618D01*
X4550359Y5765292D01*
X4556963Y5771337D01*
X4562297Y5778449D01*
X4566310Y5786424D01*
X4567326Y5790082D01*
X4569307Y5793790D01*
X4572609Y5796432D01*
X4576622Y5797448D01*
X4580788Y5796788D01*
X4584141Y5795467D01*
X4592929Y5793841D01*
X4601870Y5793841D01*
X4610658Y5795467D01*
X4618939Y5798718D01*
X4626559Y5803392D01*
X4633163Y5809437D01*
X4638497Y5816549D01*
X4642510Y5824524D01*
X4644948Y5833110D01*
X4645761Y5842000D01*
X4644948Y5850890D01*
X4642510Y5859475D01*
X4638497Y5867450D01*
X4633163Y5874562D01*
X4626559Y5880608D01*
X4618939Y5885281D01*
X4610658Y5888532D01*
X4601870Y5890158D01*
X4592929Y5890158D01*
X4584141Y5888532D01*
X4575860Y5885281D01*
X4568240Y5880608D01*
X4561636Y5874562D01*
X4556302Y5867450D01*
X4552289Y5859475D01*
X4551273Y5855817D01*
X4549292Y5852109D01*
X4545990Y5849467D01*
X4541977Y5848451D01*
X4537811Y5849112D01*
X4534458Y5850432D01*
X4525670Y5852058D01*
X4516729Y5852058D01*
X4507941Y5850432D01*
X4499660Y5847181D01*
X4492040Y5842508D01*
X4485436Y5836462D01*
X4480102Y5829350D01*
X4476089Y5821375D01*
X4473651Y5812790D01*
X4472838Y5803900D01*
X4473651Y5795010D01*
X4476089Y5786424D01*
X4480102Y5778449D01*
X4485436Y5771337D01*
X4492040Y5765292D01*
X4499660Y5760618D01*
X4507941Y5757367D01*
G37*
G36*
X7316673Y5760415D02*
G01*
X7405928Y5760415D01*
X7417816Y5761228D01*
X7429093Y5763717D01*
X7439914Y5767730D01*
X7450023Y5773267D01*
X7459268Y5780176D01*
X7467396Y5788355D01*
X7474356Y5797600D01*
X7479842Y5807710D01*
X7483906Y5818530D01*
X7486345Y5829808D01*
X7487158Y5841288D01*
X7486345Y5852820D01*
X7483906Y5864098D01*
X7479842Y5874918D01*
X7474356Y5885027D01*
X7467396Y5894273D01*
X7459268Y5902452D01*
X7450023Y5909360D01*
X7442200Y5913628D01*
X7438948Y5916472D01*
X7437120Y5920384D01*
X7437170Y5924702D01*
X7438948Y5928664D01*
X7442250Y5931458D01*
X7446619Y5933846D01*
X7454544Y5939993D01*
X7461351Y5947410D01*
X7466838Y5955842D01*
X7470902Y5965037D01*
X7473340Y5974791D01*
X7474203Y5984798D01*
X7473340Y5994806D01*
X7470902Y6004560D01*
X7466838Y6013754D01*
X7461351Y6022187D01*
X7454544Y6029604D01*
X7446619Y6035751D01*
X7437780Y6040526D01*
X7428280Y6043828D01*
X7418324Y6045454D01*
X7408316Y6045454D01*
X7398359Y6043828D01*
X7388859Y6040526D01*
X7380020Y6035751D01*
X7372096Y6029604D01*
X7365288Y6022187D01*
X7359802Y6013754D01*
X7355738Y6004560D01*
X7353300Y5994806D01*
X7352436Y5984798D01*
X7353300Y5974791D01*
X7355738Y5965037D01*
X7359802Y5955842D01*
X7365288Y5947410D01*
X7372807Y5939282D01*
X7374890Y5935980D01*
X7375499Y5932119D01*
X7374686Y5928309D01*
X7372451Y5925108D01*
X7369200Y5922975D01*
X7365339Y5922213D01*
X7316673Y5922213D01*
X7304786Y5921349D01*
X7293508Y5918911D01*
X7282688Y5914898D01*
X7272578Y5909360D01*
X7263333Y5902452D01*
X7255154Y5894273D01*
X7248245Y5885027D01*
X7242708Y5874918D01*
X7238695Y5864098D01*
X7236256Y5852820D01*
X7235393Y5841288D01*
X7236256Y5829808D01*
X7238695Y5818530D01*
X7242708Y5807710D01*
X7248245Y5797600D01*
X7255154Y5788355D01*
X7263333Y5780176D01*
X7272578Y5773267D01*
X7282688Y5767730D01*
X7293508Y5763717D01*
X7304786Y5761228D01*
G37*
G36*
X2315108Y5863590D02*
G01*
X2328926Y5864504D01*
X2342489Y5867196D01*
X2355596Y5871667D01*
X2368042Y5877814D01*
X2379573Y5885484D01*
X2389987Y5894628D01*
X2399080Y5905042D01*
X2406802Y5916574D01*
X2412898Y5928969D01*
X2417368Y5942076D01*
X2420061Y5955690D01*
X2420975Y5969508D01*
X2420061Y5983325D01*
X2417368Y5996889D01*
X2412898Y6009995D01*
X2406802Y6022441D01*
X2399080Y6033973D01*
X2389987Y6044387D01*
X2379573Y6053480D01*
X2368042Y6061202D01*
X2355596Y6067298D01*
X2342489Y6071768D01*
X2328926Y6074460D01*
X2315108Y6075375D01*
X2301290Y6074460D01*
X2287676Y6071768D01*
X2274570Y6067298D01*
X2262174Y6061202D01*
X2250643Y6053480D01*
X2240229Y6044387D01*
X2231085Y6033973D01*
X2223414Y6022441D01*
X2217267Y6009995D01*
X2212797Y5996889D01*
X2210104Y5983325D01*
X2209190Y5969508D01*
X2210104Y5955690D01*
X2212797Y5942076D01*
X2217267Y5928969D01*
X2223414Y5916574D01*
X2231085Y5905042D01*
X2240229Y5894628D01*
X2250643Y5885484D01*
X2262174Y5877814D01*
X2274570Y5871667D01*
X2287676Y5867196D01*
X2301290Y5864504D01*
G37*
G36*
X5799429Y5882741D02*
G01*
X5808370Y5882741D01*
X5817158Y5884367D01*
X5825439Y5887618D01*
X5833059Y5892292D01*
X5839663Y5898337D01*
X5844997Y5905449D01*
X5849010Y5913424D01*
X5851448Y5922010D01*
X5852261Y5930900D01*
X5851448Y5939790D01*
X5849010Y5948375D01*
X5844997Y5956350D01*
X5839663Y5963462D01*
X5833059Y5969508D01*
X5825439Y5974181D01*
X5817158Y5977432D01*
X5808370Y5979058D01*
X5799429Y5979058D01*
X5790641Y5977432D01*
X5782360Y5974181D01*
X5774740Y5969508D01*
X5768136Y5963462D01*
X5762802Y5956350D01*
X5758789Y5948375D01*
X5756351Y5939790D01*
X5755538Y5930900D01*
X5756351Y5922010D01*
X5758789Y5913424D01*
X5762802Y5905449D01*
X5768136Y5898337D01*
X5774740Y5892292D01*
X5782360Y5887618D01*
X5790641Y5884367D01*
G37*
G36*
X4923129Y5908141D02*
G01*
X4932070Y5908141D01*
X4940858Y5909767D01*
X4949139Y5913018D01*
X4956759Y5917692D01*
X4963363Y5923737D01*
X4968697Y5930849D01*
X4972710Y5938824D01*
X4975148Y5947410D01*
X4975961Y5956300D01*
X4975148Y5965190D01*
X4972710Y5973775D01*
X4968697Y5981750D01*
X4963363Y5988862D01*
X4956759Y5994908D01*
X4949139Y5999581D01*
X4940858Y6002832D01*
X4932070Y6004458D01*
X4923129Y6004458D01*
X4914341Y6002832D01*
X4906060Y5999581D01*
X4898440Y5994908D01*
X4891836Y5988862D01*
X4886502Y5981750D01*
X4882489Y5973775D01*
X4880051Y5965190D01*
X4879238Y5956300D01*
X4880051Y5947410D01*
X4882489Y5938824D01*
X4886502Y5930849D01*
X4891836Y5923737D01*
X4898440Y5917692D01*
X4906060Y5913018D01*
X4914341Y5909767D01*
G37*
G36*
X2569108Y5990590D02*
G01*
X2582926Y5991504D01*
X2596489Y5994196D01*
X2609596Y5998667D01*
X2622042Y6004814D01*
X2633573Y6012484D01*
X2643987Y6021628D01*
X2653080Y6032042D01*
X2660802Y6043574D01*
X2666898Y6055969D01*
X2671368Y6069076D01*
X2674061Y6082690D01*
X2674975Y6096508D01*
X2674061Y6110325D01*
X2671368Y6123889D01*
X2666898Y6136995D01*
X2660802Y6149441D01*
X2653080Y6160973D01*
X2643987Y6171387D01*
X2633573Y6180480D01*
X2622042Y6188202D01*
X2609596Y6194298D01*
X2596489Y6198768D01*
X2582926Y6201460D01*
X2569108Y6202375D01*
X2555290Y6201460D01*
X2541676Y6198768D01*
X2528570Y6194298D01*
X2516174Y6188202D01*
X2504643Y6180480D01*
X2494229Y6171387D01*
X2485085Y6160973D01*
X2477414Y6149441D01*
X2471267Y6136995D01*
X2466797Y6123889D01*
X2464104Y6110325D01*
X2463190Y6096508D01*
X2464104Y6082690D01*
X2466797Y6069076D01*
X2471267Y6055969D01*
X2477414Y6043574D01*
X2485085Y6032042D01*
X2494229Y6021628D01*
X2504643Y6012484D01*
X2516174Y6004814D01*
X2528570Y5998667D01*
X2541676Y5994196D01*
X2555290Y5991504D01*
G37*
G36*
X5532729Y6035141D02*
G01*
X5541670Y6035141D01*
X5550458Y6036767D01*
X5558739Y6040018D01*
X5566359Y6044692D01*
X5572963Y6050737D01*
X5578297Y6057849D01*
X5580278Y6061760D01*
X5582818Y6064961D01*
X5586374Y6066942D01*
X5590489Y6067298D01*
X5594400Y6066028D01*
X5597448Y6063335D01*
X5603036Y6055918D01*
X5609640Y6049924D01*
X5617260Y6045200D01*
X5625541Y6041999D01*
X5634329Y6040374D01*
X5643270Y6040374D01*
X5652058Y6041999D01*
X5660339Y6045200D01*
X5667959Y6049924D01*
X5674563Y6055918D01*
X5679897Y6063030D01*
X5683910Y6071057D01*
X5686348Y6079642D01*
X5687161Y6088481D01*
X5686348Y6097371D01*
X5683910Y6105956D01*
X5679897Y6113983D01*
X5674563Y6121095D01*
X5667959Y6127089D01*
X5660339Y6131814D01*
X5652058Y6135014D01*
X5643270Y6136640D01*
X5634329Y6136640D01*
X5625541Y6135014D01*
X5617260Y6131814D01*
X5609640Y6127089D01*
X5603036Y6121095D01*
X5597702Y6113983D01*
X5595721Y6110071D01*
X5593181Y6106820D01*
X5589625Y6104890D01*
X5585510Y6104483D01*
X5581599Y6105753D01*
X5578551Y6108496D01*
X5572963Y6115862D01*
X5566359Y6121908D01*
X5558739Y6126581D01*
X5550458Y6129832D01*
X5541670Y6131458D01*
X5532729Y6131458D01*
X5523941Y6129832D01*
X5515660Y6126581D01*
X5508040Y6121908D01*
X5501436Y6115862D01*
X5496102Y6108750D01*
X5492089Y6100775D01*
X5489651Y6092190D01*
X5488838Y6083300D01*
X5489651Y6074410D01*
X5492089Y6065824D01*
X5496102Y6057849D01*
X5501436Y6050737D01*
X5508040Y6044692D01*
X5515660Y6040018D01*
X5523941Y6036767D01*
G37*
G36*
X5266029Y6073241D02*
G01*
X5274970Y6073241D01*
X5283758Y6074867D01*
X5292039Y6078118D01*
X5299659Y6082792D01*
X5306263Y6088837D01*
X5311597Y6095949D01*
X5315610Y6103924D01*
X5318048Y6112510D01*
X5318861Y6121400D01*
X5318048Y6130290D01*
X5315610Y6138875D01*
X5311597Y6146850D01*
X5306263Y6153962D01*
X5299659Y6160008D01*
X5292039Y6164681D01*
X5283758Y6167932D01*
X5274970Y6169558D01*
X5266029Y6169558D01*
X5257241Y6167932D01*
X5248960Y6164681D01*
X5241340Y6160008D01*
X5234736Y6153962D01*
X5229402Y6146850D01*
X5225389Y6138875D01*
X5222951Y6130290D01*
X5222138Y6121400D01*
X5222951Y6112510D01*
X5225389Y6103924D01*
X5229402Y6095949D01*
X5234736Y6088837D01*
X5241340Y6082792D01*
X5248960Y6078118D01*
X5257241Y6074867D01*
G37*
G36*
X4961229Y6085941D02*
G01*
X4970170Y6085941D01*
X4978958Y6087567D01*
X4987239Y6090818D01*
X4994859Y6095492D01*
X5001463Y6101537D01*
X5006797Y6108649D01*
X5010810Y6116624D01*
X5013248Y6125210D01*
X5014061Y6134100D01*
X5013248Y6142990D01*
X5010810Y6151575D01*
X5006797Y6159550D01*
X5001463Y6166662D01*
X4994859Y6172708D01*
X4987239Y6177381D01*
X4978958Y6180632D01*
X4970170Y6182258D01*
X4961229Y6182258D01*
X4952441Y6180632D01*
X4944160Y6177381D01*
X4936540Y6172708D01*
X4929936Y6166662D01*
X4924602Y6159550D01*
X4920589Y6151575D01*
X4918151Y6142990D01*
X4917338Y6134100D01*
X4918151Y6125210D01*
X4920589Y6116624D01*
X4924602Y6108649D01*
X4929936Y6101537D01*
X4936540Y6095492D01*
X4944160Y6090818D01*
X4952441Y6087567D01*
G37*
G36*
X6624929Y6111341D02*
G01*
X6633870Y6111341D01*
X6642658Y6112967D01*
X6650939Y6116218D01*
X6658559Y6120892D01*
X6665163Y6126937D01*
X6670497Y6134049D01*
X6674510Y6142024D01*
X6676948Y6150610D01*
X6677761Y6159500D01*
X6676948Y6168390D01*
X6674510Y6176975D01*
X6670497Y6184950D01*
X6665163Y6192062D01*
X6658559Y6198108D01*
X6650939Y6202781D01*
X6642658Y6206032D01*
X6633870Y6207658D01*
X6624929Y6207658D01*
X6616141Y6206032D01*
X6607860Y6202781D01*
X6600240Y6198108D01*
X6593636Y6192062D01*
X6588302Y6184950D01*
X6584289Y6176975D01*
X6581851Y6168390D01*
X6581038Y6159500D01*
X6581851Y6150610D01*
X6584289Y6142024D01*
X6588302Y6134049D01*
X6593636Y6126937D01*
X6600240Y6120892D01*
X6607860Y6116218D01*
X6616141Y6112967D01*
G37*
G36*
X2315108Y6117590D02*
G01*
X2328926Y6118504D01*
X2342489Y6121196D01*
X2355596Y6125667D01*
X2368042Y6131814D01*
X2379573Y6139484D01*
X2389987Y6148628D01*
X2399080Y6159042D01*
X2406802Y6170574D01*
X2412898Y6182969D01*
X2417368Y6196076D01*
X2420061Y6209690D01*
X2420975Y6223508D01*
X2420061Y6237325D01*
X2417368Y6250889D01*
X2412898Y6263995D01*
X2406802Y6276441D01*
X2399080Y6287973D01*
X2389987Y6298387D01*
X2379573Y6307480D01*
X2368042Y6315202D01*
X2355596Y6321298D01*
X2342489Y6325768D01*
X2328926Y6328460D01*
X2315108Y6329375D01*
X2301290Y6328460D01*
X2287676Y6325768D01*
X2274570Y6321298D01*
X2262174Y6315202D01*
X2250643Y6307480D01*
X2240229Y6298387D01*
X2231085Y6287973D01*
X2223414Y6276441D01*
X2217267Y6263995D01*
X2212797Y6250889D01*
X2210104Y6237325D01*
X2209190Y6223508D01*
X2210104Y6209690D01*
X2212797Y6196076D01*
X2217267Y6182969D01*
X2223414Y6170574D01*
X2231085Y6159042D01*
X2240229Y6148628D01*
X2250643Y6139484D01*
X2262174Y6131814D01*
X2274570Y6125667D01*
X2287676Y6121196D01*
X2301290Y6118504D01*
G37*
G36*
X4158030Y6200851D02*
G01*
X4166920Y6200851D01*
X4175709Y6202476D01*
X4184040Y6205677D01*
X4191609Y6210401D01*
X4198213Y6216396D01*
X4203598Y6223508D01*
X4207560Y6231534D01*
X4209999Y6240119D01*
X4210862Y6248958D01*
X4209999Y6257848D01*
X4207560Y6266434D01*
X4203598Y6274460D01*
X4198213Y6281572D01*
X4191609Y6287566D01*
X4184040Y6292291D01*
X4175709Y6295491D01*
X4166920Y6297117D01*
X4158030Y6297117D01*
X4149242Y6295491D01*
X4140911Y6292291D01*
X4133342Y6287566D01*
X4126737Y6281572D01*
X4121353Y6274460D01*
X4117390Y6266434D01*
X4114952Y6257848D01*
X4114088Y6248958D01*
X4114952Y6240119D01*
X4117390Y6231534D01*
X4121353Y6223508D01*
X4126737Y6216396D01*
X4133342Y6210401D01*
X4140911Y6205677D01*
X4149242Y6202476D01*
G37*
G36*
X2569108Y6244590D02*
G01*
X2582926Y6245504D01*
X2596489Y6248196D01*
X2609596Y6252667D01*
X2622042Y6258814D01*
X2633573Y6266484D01*
X2643987Y6275628D01*
X2653080Y6286042D01*
X2660802Y6297574D01*
X2666898Y6309969D01*
X2671368Y6323076D01*
X2674061Y6336690D01*
X2674975Y6350508D01*
X2674061Y6364325D01*
X2671368Y6377889D01*
X2666898Y6390995D01*
X2660802Y6403441D01*
X2653080Y6414973D01*
X2643987Y6425387D01*
X2633573Y6434480D01*
X2622042Y6442202D01*
X2609596Y6448298D01*
X2596489Y6452768D01*
X2582926Y6455460D01*
X2569108Y6456375D01*
X2555290Y6455460D01*
X2541676Y6452768D01*
X2528570Y6448298D01*
X2516174Y6442202D01*
X2504643Y6434480D01*
X2494229Y6425387D01*
X2485085Y6414973D01*
X2477414Y6403441D01*
X2471267Y6390995D01*
X2466797Y6377889D01*
X2464104Y6364325D01*
X2463190Y6350508D01*
X2464104Y6336690D01*
X2466797Y6323076D01*
X2471267Y6309969D01*
X2477414Y6297574D01*
X2485085Y6286042D01*
X2494229Y6275628D01*
X2504643Y6266484D01*
X2516174Y6258814D01*
X2528570Y6252667D01*
X2541676Y6248196D01*
X2555290Y6245504D01*
G37*
G36*
X4021429Y6263741D02*
G01*
X4030370Y6263741D01*
X4039158Y6265367D01*
X4047439Y6268618D01*
X4055059Y6273292D01*
X4061663Y6279337D01*
X4066997Y6286449D01*
X4071010Y6294424D01*
X4073448Y6303010D01*
X4074261Y6311900D01*
X4073448Y6320790D01*
X4071010Y6329375D01*
X4066997Y6337350D01*
X4061663Y6344462D01*
X4055059Y6350508D01*
X4047439Y6355181D01*
X4039158Y6358432D01*
X4030370Y6360058D01*
X4021429Y6360058D01*
X4012641Y6358432D01*
X4004360Y6355181D01*
X3996740Y6350508D01*
X3990136Y6344462D01*
X3984802Y6337350D01*
X3980789Y6329375D01*
X3978351Y6320790D01*
X3977538Y6311900D01*
X3978351Y6303010D01*
X3980789Y6294424D01*
X3984802Y6286449D01*
X3990136Y6279337D01*
X3996740Y6273292D01*
X4004360Y6268618D01*
X4012641Y6265367D01*
G37*
G36*
X6975449Y6327241D02*
G01*
X6984390Y6327241D01*
X6993178Y6328867D01*
X7001459Y6332118D01*
X7009079Y6336792D01*
X7015683Y6342837D01*
X7021017Y6349949D01*
X7025030Y6357924D01*
X7027468Y6366510D01*
X7028281Y6375400D01*
X7027468Y6384290D01*
X7025030Y6392875D01*
X7021017Y6400850D01*
X7015683Y6407962D01*
X7009079Y6414008D01*
X7001459Y6418681D01*
X6993178Y6421932D01*
X6984390Y6423558D01*
X6975449Y6423558D01*
X6966661Y6421932D01*
X6958380Y6418681D01*
X6950760Y6414008D01*
X6944156Y6407962D01*
X6938822Y6400850D01*
X6934809Y6392875D01*
X6932371Y6384290D01*
X6931558Y6375400D01*
X6932371Y6366510D01*
X6934809Y6357924D01*
X6938822Y6349949D01*
X6944156Y6342837D01*
X6950760Y6336792D01*
X6958380Y6332118D01*
X6966661Y6328867D01*
G37*
G36*
X5012029Y6339941D02*
G01*
X5020970Y6339941D01*
X5029758Y6341567D01*
X5038039Y6344818D01*
X5045659Y6349492D01*
X5052263Y6355537D01*
X5057597Y6362649D01*
X5061610Y6370624D01*
X5064048Y6379210D01*
X5064861Y6388100D01*
X5064048Y6396990D01*
X5061610Y6405575D01*
X5057597Y6413550D01*
X5052263Y6420662D01*
X5045659Y6426708D01*
X5038039Y6431381D01*
X5029758Y6434632D01*
X5020970Y6436258D01*
X5012029Y6436258D01*
X5003241Y6434632D01*
X4994960Y6431381D01*
X4987340Y6426708D01*
X4980736Y6420662D01*
X4975402Y6413550D01*
X4971389Y6405575D01*
X4968951Y6396990D01*
X4968138Y6388100D01*
X4968951Y6379210D01*
X4971389Y6370624D01*
X4975402Y6362649D01*
X4980736Y6355537D01*
X4987340Y6349492D01*
X4994960Y6344818D01*
X5003241Y6341567D01*
G37*
G36*
X2827629Y6339941D02*
G01*
X2836570Y6339941D01*
X2845358Y6341567D01*
X2853639Y6344818D01*
X2861259Y6349492D01*
X2867863Y6355537D01*
X2873197Y6362649D01*
X2877210Y6370624D01*
X2879648Y6379210D01*
X2880461Y6388100D01*
X2879648Y6396990D01*
X2877210Y6405575D01*
X2873197Y6413550D01*
X2867863Y6420662D01*
X2861259Y6426708D01*
X2853639Y6431381D01*
X2845358Y6434632D01*
X2836570Y6436258D01*
X2827629Y6436258D01*
X2818841Y6434632D01*
X2810560Y6431381D01*
X2802940Y6426708D01*
X2796336Y6420662D01*
X2791002Y6413550D01*
X2786989Y6405575D01*
X2784551Y6396990D01*
X2783738Y6388100D01*
X2784551Y6379210D01*
X2786989Y6370624D01*
X2791002Y6362649D01*
X2796336Y6355537D01*
X2802940Y6349492D01*
X2810560Y6344818D01*
X2818841Y6341567D01*
G37*
G36*
X2315108Y6371590D02*
G01*
X2328926Y6372504D01*
X2342489Y6375196D01*
X2355596Y6379667D01*
X2368042Y6385814D01*
X2379573Y6393484D01*
X2389987Y6402628D01*
X2399080Y6413042D01*
X2406802Y6424574D01*
X2412898Y6436969D01*
X2417368Y6450076D01*
X2420061Y6463690D01*
X2420975Y6477508D01*
X2420061Y6491325D01*
X2417368Y6504889D01*
X2412898Y6517995D01*
X2406802Y6530441D01*
X2399080Y6541973D01*
X2389987Y6552387D01*
X2379573Y6561480D01*
X2368042Y6569202D01*
X2355596Y6575298D01*
X2342489Y6579768D01*
X2328926Y6582460D01*
X2315108Y6583375D01*
X2301290Y6582460D01*
X2287676Y6579768D01*
X2274570Y6575298D01*
X2262174Y6569202D01*
X2250643Y6561480D01*
X2240229Y6552387D01*
X2231085Y6541973D01*
X2223414Y6530441D01*
X2217267Y6517995D01*
X2212797Y6504889D01*
X2210104Y6491325D01*
X2209190Y6477508D01*
X2210104Y6463690D01*
X2212797Y6450076D01*
X2217267Y6436969D01*
X2223414Y6424574D01*
X2231085Y6413042D01*
X2240229Y6402628D01*
X2250643Y6393484D01*
X2262174Y6385814D01*
X2274570Y6379667D01*
X2287676Y6375196D01*
X2301290Y6372504D01*
G37*
G36*
X7120229Y6390741D02*
G01*
X7129170Y6390741D01*
X7137958Y6392367D01*
X7146239Y6395618D01*
X7153859Y6400292D01*
X7160463Y6406337D01*
X7165797Y6413449D01*
X7169810Y6421424D01*
X7172248Y6430010D01*
X7173061Y6438900D01*
X7172248Y6447790D01*
X7169810Y6456375D01*
X7165797Y6464350D01*
X7160463Y6471462D01*
X7153859Y6477508D01*
X7146239Y6482181D01*
X7137958Y6485432D01*
X7129170Y6487058D01*
X7120229Y6487058D01*
X7111441Y6485432D01*
X7103160Y6482181D01*
X7095540Y6477508D01*
X7088936Y6471462D01*
X7083602Y6464350D01*
X7079589Y6456375D01*
X7077151Y6447790D01*
X7076338Y6438900D01*
X7077151Y6430010D01*
X7079589Y6421424D01*
X7083602Y6413449D01*
X7088936Y6406337D01*
X7095540Y6400292D01*
X7103160Y6395618D01*
X7111441Y6392367D01*
G37*
G36*
X3919829Y6492341D02*
G01*
X3928770Y6492341D01*
X3937558Y6493967D01*
X3945839Y6497218D01*
X3953459Y6501892D01*
X3960063Y6507937D01*
X3965397Y6515049D01*
X3969410Y6523024D01*
X3971848Y6531609D01*
X3972661Y6540500D01*
X3971848Y6549390D01*
X3969410Y6557975D01*
X3965397Y6565950D01*
X3960063Y6573062D01*
X3953459Y6579108D01*
X3945839Y6583781D01*
X3937558Y6587032D01*
X3928770Y6588658D01*
X3919829Y6588658D01*
X3911041Y6587032D01*
X3902760Y6583781D01*
X3895140Y6579108D01*
X3888536Y6573062D01*
X3883202Y6565950D01*
X3879189Y6557975D01*
X3876751Y6549390D01*
X3875938Y6540500D01*
X3876751Y6531609D01*
X3879189Y6523024D01*
X3883202Y6515049D01*
X3888536Y6507937D01*
X3895140Y6501892D01*
X3902760Y6497218D01*
X3911041Y6493967D01*
G37*
G36*
X2569108Y6498590D02*
G01*
X2582926Y6499504D01*
X2596489Y6502196D01*
X2609596Y6506667D01*
X2622042Y6512814D01*
X2633573Y6520484D01*
X2643987Y6529628D01*
X2653080Y6540042D01*
X2660802Y6551574D01*
X2666898Y6563969D01*
X2671368Y6577075D01*
X2674061Y6590690D01*
X2674975Y6604508D01*
X2674061Y6618325D01*
X2671368Y6631889D01*
X2666898Y6644995D01*
X2660802Y6657441D01*
X2653080Y6668973D01*
X2643987Y6679387D01*
X2633573Y6688480D01*
X2622042Y6696202D01*
X2609596Y6702298D01*
X2596489Y6706768D01*
X2582926Y6709460D01*
X2569108Y6710375D01*
X2555290Y6709460D01*
X2541676Y6706768D01*
X2528570Y6702298D01*
X2516174Y6696202D01*
X2504643Y6688480D01*
X2494229Y6679387D01*
X2485085Y6668973D01*
X2477414Y6657441D01*
X2471267Y6644995D01*
X2466797Y6631889D01*
X2464104Y6618325D01*
X2463190Y6604508D01*
X2464104Y6590690D01*
X2466797Y6577075D01*
X2471267Y6563969D01*
X2477414Y6551574D01*
X2485085Y6540042D01*
X2494229Y6529628D01*
X2504643Y6520484D01*
X2516174Y6512814D01*
X2528570Y6506667D01*
X2541676Y6502196D01*
X2555290Y6499504D01*
G37*
G36*
X7408316Y6502146D02*
G01*
X7418324Y6502146D01*
X7428280Y6503771D01*
X7437780Y6507073D01*
X7446619Y6511848D01*
X7454544Y6517995D01*
X7461351Y6525412D01*
X7466838Y6533845D01*
X7470902Y6543040D01*
X7473340Y6552793D01*
X7474203Y6562801D01*
X7473340Y6572808D01*
X7470902Y6582562D01*
X7466838Y6591757D01*
X7461351Y6600190D01*
X7454544Y6607606D01*
X7446619Y6613753D01*
X7442250Y6616141D01*
X7438948Y6618935D01*
X7437120Y6622897D01*
X7437120Y6627215D01*
X7438948Y6631178D01*
X7442200Y6633972D01*
X7450023Y6638290D01*
X7459268Y6645198D01*
X7467447Y6653326D01*
X7474356Y6662572D01*
X7479893Y6672732D01*
X7483906Y6683502D01*
X7486345Y6694779D01*
X7487158Y6706311D01*
X7486345Y6717842D01*
X7483906Y6729120D01*
X7479893Y6739890D01*
X7474356Y6750050D01*
X7467447Y6759295D01*
X7459268Y6767423D01*
X7450023Y6774332D01*
X7439914Y6779869D01*
X7429093Y6783933D01*
X7417816Y6786372D01*
X7405928Y6787235D01*
X7316673Y6787235D01*
X7304786Y6786372D01*
X7293508Y6783933D01*
X7282688Y6779869D01*
X7272578Y6774332D01*
X7263333Y6767423D01*
X7255154Y6759295D01*
X7248245Y6750050D01*
X7242708Y6739890D01*
X7238695Y6729120D01*
X7236256Y6717842D01*
X7235393Y6706311D01*
X7236256Y6694779D01*
X7238695Y6683502D01*
X7242708Y6672732D01*
X7248245Y6662572D01*
X7255154Y6653326D01*
X7263333Y6645198D01*
X7272578Y6638290D01*
X7282688Y6632752D01*
X7293508Y6628688D01*
X7304786Y6626250D01*
X7316673Y6625386D01*
X7365390Y6625386D01*
X7369200Y6624675D01*
X7372451Y6622491D01*
X7374686Y6619290D01*
X7375550Y6615480D01*
X7374890Y6611670D01*
X7372858Y6608318D01*
X7365288Y6600190D01*
X7359802Y6591757D01*
X7355738Y6582562D01*
X7353300Y6572808D01*
X7352436Y6562801D01*
X7353300Y6552793D01*
X7355738Y6543040D01*
X7359802Y6533845D01*
X7365288Y6525412D01*
X7372096Y6517995D01*
X7380020Y6511848D01*
X7388859Y6507073D01*
X7398359Y6503771D01*
G37*
G36*
X6129629Y6555841D02*
G01*
X6138570Y6555841D01*
X6147358Y6557467D01*
X6155639Y6560718D01*
X6163259Y6565392D01*
X6169863Y6571437D01*
X6175197Y6578549D01*
X6179210Y6586524D01*
X6181648Y6595109D01*
X6182461Y6604000D01*
X6181648Y6612890D01*
X6179210Y6621475D01*
X6175197Y6629450D01*
X6169863Y6636562D01*
X6163259Y6642608D01*
X6155639Y6647281D01*
X6147358Y6650532D01*
X6138570Y6652158D01*
X6129629Y6652158D01*
X6120841Y6650532D01*
X6112560Y6647281D01*
X6104940Y6642608D01*
X6098336Y6636562D01*
X6093002Y6629450D01*
X6088989Y6621475D01*
X6086551Y6612890D01*
X6085738Y6604000D01*
X6086551Y6595109D01*
X6088989Y6586524D01*
X6093002Y6578549D01*
X6098336Y6571437D01*
X6104940Y6565392D01*
X6112560Y6560718D01*
X6120841Y6557467D01*
G37*
G36*
X2827629Y6619341D02*
G01*
X2836570Y6619341D01*
X2845358Y6620967D01*
X2853639Y6624218D01*
X2861259Y6628892D01*
X2867863Y6634937D01*
X2873197Y6642049D01*
X2877210Y6650024D01*
X2879648Y6658609D01*
X2880461Y6667500D01*
X2879648Y6676390D01*
X2877210Y6684975D01*
X2873197Y6692950D01*
X2867863Y6700062D01*
X2861259Y6706108D01*
X2853639Y6710781D01*
X2845358Y6714032D01*
X2836570Y6715658D01*
X2827629Y6715658D01*
X2818841Y6714032D01*
X2810560Y6710781D01*
X2802940Y6706108D01*
X2796336Y6700062D01*
X2791002Y6692950D01*
X2786989Y6684975D01*
X2784551Y6676390D01*
X2783738Y6667500D01*
X2784551Y6658609D01*
X2786989Y6650024D01*
X2791002Y6642049D01*
X2796336Y6634937D01*
X2802940Y6628892D01*
X2810560Y6624218D01*
X2818841Y6620967D01*
G37*
G36*
X7751673Y6620408D02*
G01*
X7810957Y6620408D01*
X7823504Y6621322D01*
X7835493Y6623913D01*
X7846974Y6628180D01*
X7857744Y6634073D01*
X7867548Y6641388D01*
X7876184Y6650075D01*
X7883550Y6659880D01*
X7889443Y6670649D01*
X7893710Y6682130D01*
X7896301Y6694068D01*
X7897164Y6706311D01*
X7896301Y6718553D01*
X7893710Y6730492D01*
X7889443Y6741972D01*
X7883550Y6752742D01*
X7876184Y6762546D01*
X7867548Y6771233D01*
X7857744Y6778548D01*
X7846974Y6784441D01*
X7835493Y6788708D01*
X7823504Y6791299D01*
X7810957Y6792214D01*
X7751673Y6792214D01*
X7739075Y6791299D01*
X7727086Y6788708D01*
X7715605Y6784441D01*
X7704886Y6778548D01*
X7695082Y6771233D01*
X7686395Y6762546D01*
X7679029Y6752742D01*
X7673187Y6741972D01*
X7668869Y6730492D01*
X7666278Y6718553D01*
X7665415Y6706311D01*
X7666278Y6694068D01*
X7668869Y6682130D01*
X7673187Y6670649D01*
X7679029Y6659880D01*
X7686395Y6650075D01*
X7695082Y6641388D01*
X7704886Y6634073D01*
X7715605Y6628180D01*
X7727086Y6623913D01*
X7739075Y6621322D01*
G37*
G36*
X2235657Y6625590D02*
G01*
X2394508Y6625590D01*
X2400858Y6626301D01*
X2406294Y6628231D01*
X2411222Y6631279D01*
X2415286Y6635394D01*
X2418384Y6640271D01*
X2420315Y6645757D01*
X2421026Y6652056D01*
X2421026Y6810908D01*
X2420315Y6817258D01*
X2418384Y6822694D01*
X2415286Y6827621D01*
X2411222Y6831685D01*
X2406294Y6834784D01*
X2400858Y6836714D01*
X2394508Y6837425D01*
X2235657Y6837425D01*
X2229358Y6836714D01*
X2223871Y6834784D01*
X2218994Y6831685D01*
X2214880Y6827621D01*
X2211832Y6822694D01*
X2209901Y6817258D01*
X2209190Y6810908D01*
X2209190Y6652056D01*
X2209901Y6645757D01*
X2211832Y6640271D01*
X2214880Y6635394D01*
X2218994Y6631279D01*
X2223871Y6628231D01*
X2229358Y6626301D01*
G37*
G36*
X5862929Y6632041D02*
G01*
X5871870Y6632041D01*
X5880658Y6633667D01*
X5888939Y6636918D01*
X5896559Y6641592D01*
X5903163Y6647637D01*
X5908497Y6654749D01*
X5912510Y6662724D01*
X5914948Y6671309D01*
X5915761Y6680200D01*
X5914948Y6689090D01*
X5912510Y6697675D01*
X5908497Y6705650D01*
X5903163Y6712762D01*
X5896559Y6718808D01*
X5888939Y6723481D01*
X5880658Y6726732D01*
X5871870Y6728358D01*
X5862929Y6728358D01*
X5854141Y6726732D01*
X5845860Y6723481D01*
X5838240Y6718808D01*
X5831636Y6712762D01*
X5826302Y6705650D01*
X5822289Y6697675D01*
X5819851Y6689090D01*
X5819038Y6680200D01*
X5819851Y6671309D01*
X5822289Y6662724D01*
X5826302Y6654749D01*
X5831636Y6647637D01*
X5838240Y6641592D01*
X5845860Y6636918D01*
X5854141Y6633667D01*
G37*
G36*
X4999329Y6670141D02*
G01*
X5008270Y6670141D01*
X5017058Y6671767D01*
X5025339Y6675018D01*
X5032959Y6679692D01*
X5039563Y6685737D01*
X5044897Y6692849D01*
X5048910Y6700824D01*
X5051348Y6709409D01*
X5052161Y6718300D01*
X5051348Y6727190D01*
X5048910Y6735775D01*
X5044897Y6743750D01*
X5039563Y6750862D01*
X5032959Y6756908D01*
X5025339Y6761581D01*
X5017058Y6764832D01*
X5008270Y6766458D01*
X4999329Y6766458D01*
X4990541Y6764832D01*
X4982260Y6761581D01*
X4974640Y6756908D01*
X4968036Y6750862D01*
X4962702Y6743750D01*
X4958689Y6735775D01*
X4956251Y6727190D01*
X4955438Y6718300D01*
X4956251Y6709409D01*
X4958689Y6700824D01*
X4962702Y6692849D01*
X4968036Y6685737D01*
X4974640Y6679692D01*
X4982260Y6675018D01*
X4990541Y6671767D01*
G37*
G36*
X6632448Y6670598D02*
G01*
X6641388Y6670598D01*
X6650177Y6672224D01*
X6658457Y6675424D01*
X6666077Y6680149D01*
X6672681Y6686143D01*
X6678015Y6693255D01*
X6682028Y6701281D01*
X6684467Y6709867D01*
X6685280Y6718706D01*
X6684467Y6727596D01*
X6682028Y6736181D01*
X6678015Y6744208D01*
X6672681Y6751320D01*
X6666077Y6757314D01*
X6658457Y6762038D01*
X6650177Y6765239D01*
X6641388Y6766864D01*
X6632448Y6766864D01*
X6623659Y6765239D01*
X6615379Y6762038D01*
X6607759Y6757314D01*
X6601155Y6751320D01*
X6595821Y6744208D01*
X6591808Y6736181D01*
X6589369Y6727596D01*
X6588556Y6718706D01*
X6589369Y6709867D01*
X6591808Y6701281D01*
X6595821Y6693255D01*
X6601155Y6686143D01*
X6607759Y6680149D01*
X6615379Y6675424D01*
X6623659Y6672224D01*
G37*
G36*
X2891129Y6720941D02*
G01*
X2900070Y6720941D01*
X2908858Y6722567D01*
X2917139Y6725818D01*
X2924759Y6730492D01*
X2931363Y6736537D01*
X2936697Y6743649D01*
X2940710Y6751624D01*
X2943148Y6760209D01*
X2943961Y6769100D01*
X2943148Y6777990D01*
X2940710Y6786575D01*
X2936697Y6794550D01*
X2931363Y6801662D01*
X2924759Y6807708D01*
X2917139Y6812381D01*
X2908858Y6815632D01*
X2900070Y6817258D01*
X2891129Y6817258D01*
X2882341Y6815632D01*
X2874060Y6812381D01*
X2866440Y6807708D01*
X2859836Y6801662D01*
X2854502Y6794550D01*
X2850489Y6786575D01*
X2848051Y6777990D01*
X2847238Y6769100D01*
X2848051Y6760209D01*
X2850489Y6751624D01*
X2854502Y6743649D01*
X2859836Y6736537D01*
X2866440Y6730492D01*
X2874060Y6725818D01*
X2882341Y6722567D01*
G37*
G36*
X5151729Y6733641D02*
G01*
X5160670Y6733641D01*
X5169458Y6735267D01*
X5177739Y6738518D01*
X5185359Y6743192D01*
X5191963Y6749237D01*
X5197297Y6756349D01*
X5201310Y6764324D01*
X5203748Y6772909D01*
X5204561Y6781800D01*
X5203748Y6790690D01*
X5201310Y6799275D01*
X5197297Y6807250D01*
X5191963Y6814362D01*
X5185359Y6820408D01*
X5177739Y6825081D01*
X5169458Y6828332D01*
X5160670Y6829958D01*
X5151729Y6829958D01*
X5142941Y6828332D01*
X5134660Y6825081D01*
X5127040Y6820408D01*
X5120436Y6814362D01*
X5115102Y6807250D01*
X5111089Y6799275D01*
X5108651Y6790690D01*
X5107838Y6781800D01*
X5108651Y6772909D01*
X5111089Y6764324D01*
X5115102Y6756349D01*
X5120436Y6749237D01*
X5127040Y6743192D01*
X5134660Y6738518D01*
X5142941Y6735267D01*
G37*
G36*
X3602329Y6835241D02*
G01*
X3611270Y6835241D01*
X3620058Y6836867D01*
X3628339Y6840118D01*
X3635959Y6844792D01*
X3642563Y6850837D01*
X3647897Y6857949D01*
X3651910Y6865924D01*
X3654348Y6874509D01*
X3655161Y6883400D01*
X3654348Y6892290D01*
X3651910Y6900875D01*
X3647897Y6908850D01*
X3642563Y6915962D01*
X3635959Y6922008D01*
X3628339Y6926681D01*
X3620058Y6929932D01*
X3611270Y6931558D01*
X3602329Y6931558D01*
X3593541Y6929932D01*
X3585260Y6926681D01*
X3577640Y6922008D01*
X3571036Y6915962D01*
X3565702Y6908850D01*
X3561689Y6900875D01*
X3559251Y6892290D01*
X3558438Y6883400D01*
X3559251Y6874509D01*
X3561689Y6865924D01*
X3565702Y6857949D01*
X3571036Y6850837D01*
X3577640Y6844792D01*
X3585260Y6840118D01*
X3593541Y6836867D01*
G37*
G36*
X5406796Y6877100D02*
G01*
X5415737Y6877100D01*
X5424525Y6878726D01*
X5432806Y6881977D01*
X5440426Y6886651D01*
X5447030Y6892696D01*
X5452364Y6899808D01*
X5456377Y6907784D01*
X5458815Y6916369D01*
X5459628Y6925259D01*
X5458815Y6934149D01*
X5456377Y6942734D01*
X5452364Y6950709D01*
X5447030Y6957822D01*
X5440426Y6963867D01*
X5432806Y6968540D01*
X5424525Y6971792D01*
X5415737Y6973417D01*
X5406796Y6973417D01*
X5398008Y6971792D01*
X5389727Y6968540D01*
X5382107Y6963867D01*
X5375503Y6957822D01*
X5370169Y6950709D01*
X5366156Y6942734D01*
X5363718Y6934149D01*
X5362905Y6925259D01*
X5363718Y6916369D01*
X5366156Y6907784D01*
X5370169Y6899808D01*
X5375503Y6892696D01*
X5382107Y6886651D01*
X5389727Y6881977D01*
X5398008Y6878726D01*
G37*
G36*
X7769352Y6888886D02*
G01*
X7781544Y6889343D01*
X7793532Y6891528D01*
X7805064Y6895490D01*
X7815884Y6901027D01*
X7825790Y6908139D01*
X7834579Y6916572D01*
X7842046Y6926224D01*
X7847990Y6936841D01*
X7852359Y6948271D01*
X7855000Y6960158D01*
X7855864Y6972300D01*
X7855000Y6984441D01*
X7852359Y6996328D01*
X7847990Y7007758D01*
X7842046Y7018375D01*
X7834579Y7028027D01*
X7825790Y7036460D01*
X7815884Y7043572D01*
X7805064Y7049109D01*
X7793532Y7053072D01*
X7781544Y7055256D01*
X7769352Y7055713D01*
X7757261Y7054392D01*
X7745425Y7051294D01*
X7734249Y7046518D01*
X7723835Y7040168D01*
X7714437Y7032396D01*
X7706309Y7023303D01*
X7699603Y7013143D01*
X7694422Y7002119D01*
X7690916Y6990435D01*
X7689138Y6978396D01*
X7689138Y6966203D01*
X7690916Y6954164D01*
X7694422Y6942480D01*
X7699603Y6931456D01*
X7706309Y6921296D01*
X7714437Y6912203D01*
X7723835Y6904431D01*
X7734249Y6898081D01*
X7745425Y6893306D01*
X7757261Y6890207D01*
G37*
G36*
X4483811Y7057694D02*
G01*
X4492752Y7057694D01*
X4501540Y7059320D01*
X4509820Y7062520D01*
X4517440Y7067245D01*
X4524044Y7073239D01*
X4529378Y7080351D01*
X4533392Y7088378D01*
X4535830Y7096963D01*
X4536643Y7105802D01*
X4535830Y7114692D01*
X4533392Y7123277D01*
X4529378Y7131303D01*
X4524044Y7138416D01*
X4517440Y7144410D01*
X4509820Y7149134D01*
X4501540Y7152335D01*
X4492752Y7153960D01*
X4483811Y7153960D01*
X4475022Y7152335D01*
X4466742Y7149134D01*
X4459122Y7144410D01*
X4452518Y7138416D01*
X4447184Y7131303D01*
X4443171Y7123277D01*
X4440732Y7114692D01*
X4439920Y7105802D01*
X4440732Y7096963D01*
X4443171Y7088378D01*
X4447184Y7080351D01*
X4452518Y7073239D01*
X4459122Y7067245D01*
X4466742Y7062520D01*
X4475022Y7059320D01*
G37*
G36*
X3056229Y7063841D02*
G01*
X3065170Y7063841D01*
X3073958Y7065467D01*
X3082239Y7068718D01*
X3089859Y7073392D01*
X3096463Y7079437D01*
X3101797Y7086549D01*
X3105810Y7094524D01*
X3108248Y7103109D01*
X3109061Y7112000D01*
X3108248Y7120890D01*
X3105810Y7129475D01*
X3101797Y7137450D01*
X3096463Y7144562D01*
X3089859Y7150608D01*
X3082239Y7155281D01*
X3073958Y7158532D01*
X3065170Y7160158D01*
X3056229Y7160158D01*
X3047441Y7158532D01*
X3039160Y7155281D01*
X3031540Y7150608D01*
X3024936Y7144562D01*
X3019602Y7137450D01*
X3015589Y7129475D01*
X3013151Y7120890D01*
X3012338Y7112000D01*
X3013151Y7103109D01*
X3015589Y7094524D01*
X3019602Y7086549D01*
X3024936Y7079437D01*
X3031540Y7073392D01*
X3039160Y7068718D01*
X3047441Y7065467D01*
G37*
G36*
X7747000Y7138924D02*
G01*
X7763916Y7139838D01*
X7780578Y7142683D01*
X7796834Y7147356D01*
X7812481Y7153859D01*
X7827264Y7162038D01*
X7841081Y7171842D01*
X7853680Y7183120D01*
X7864957Y7195718D01*
X7874762Y7209536D01*
X7882940Y7224318D01*
X7889443Y7239965D01*
X7894116Y7256221D01*
X7896961Y7272883D01*
X7897875Y7289800D01*
X7896961Y7306716D01*
X7894116Y7323378D01*
X7889443Y7339634D01*
X7882940Y7355281D01*
X7874762Y7370064D01*
X7864957Y7383881D01*
X7853680Y7396480D01*
X7841081Y7407757D01*
X7827264Y7417562D01*
X7812481Y7425740D01*
X7796834Y7432243D01*
X7780578Y7436916D01*
X7763916Y7439761D01*
X7747000Y7440675D01*
X7730083Y7439761D01*
X7713421Y7436916D01*
X7697165Y7432243D01*
X7681518Y7425740D01*
X7666736Y7417562D01*
X7652918Y7407757D01*
X7640320Y7396480D01*
X7629042Y7383881D01*
X7619238Y7370064D01*
X7611059Y7355281D01*
X7604556Y7339634D01*
X7599883Y7323378D01*
X7597038Y7306716D01*
X7596124Y7289800D01*
X7597038Y7272883D01*
X7599883Y7256221D01*
X7604556Y7239965D01*
X7611059Y7224318D01*
X7619238Y7209536D01*
X7629042Y7195718D01*
X7640320Y7183120D01*
X7652918Y7171842D01*
X7666736Y7162038D01*
X7681518Y7153859D01*
X7697165Y7147356D01*
X7713421Y7142683D01*
X7730083Y7139838D01*
G37*
G36*
X3056229Y7216241D02*
G01*
X3065170Y7216241D01*
X3073958Y7217867D01*
X3082239Y7221118D01*
X3089859Y7225792D01*
X3096463Y7231837D01*
X3101797Y7238949D01*
X3105810Y7246924D01*
X3108248Y7255509D01*
X3109061Y7264400D01*
X3108248Y7273290D01*
X3105810Y7281875D01*
X3101797Y7289850D01*
X3096463Y7296962D01*
X3089859Y7303008D01*
X3082239Y7307681D01*
X3073958Y7310932D01*
X3065170Y7312558D01*
X3056229Y7312558D01*
X3047441Y7310932D01*
X3039160Y7307681D01*
X3031540Y7303008D01*
X3024936Y7296962D01*
X3019602Y7289850D01*
X3015589Y7281875D01*
X3013151Y7273290D01*
X3012338Y7264400D01*
X3013151Y7255509D01*
X3015589Y7246924D01*
X3019602Y7238949D01*
X3024936Y7231837D01*
X3031540Y7225792D01*
X3039160Y7221118D01*
X3047441Y7217867D01*
G37*

%LPD*%
D10*
G01*
X2315095Y6731393D03*
D11*
G01*
X2569095Y6604393D03*
G01*
X2315095Y6477393D03*
G01*
X2569095Y6350393D03*
G01*
X2315095Y6223393D03*
G01*
X2569095Y6096393D03*
G01*
X2315095Y5969393D03*
G01*
X2569095Y5842393D03*
D12*
G01*
X1190104Y6948893D03*
G01*
X1190104Y6694893D03*
G01*
X1190104Y5877877D03*
G01*
X1190104Y5623877D03*
D13*
G01*
X1985098Y7060882D03*
G01*
X1985098Y5511888D03*
D14*
G01*
X7361300Y5841288D03*
G01*
X7361300Y6706285D03*
D15*
G01*
X7781315Y5841288D03*
G01*
X7781315Y6706285D03*
D16*
G01*
X5422900Y6573088D03*
G01*
X5493613Y6502374D03*
G01*
X5352186Y6502374D03*
G01*
X5422900Y6431661D03*
D17*
G01*
X7239000Y5600700D03*
G01*
X7340600Y5600700D03*
G01*
X5537200Y6083300D03*
G01*
X5638800Y6088506D03*
G01*
X5549900Y7061200D03*
G01*
X3619500Y7353300D03*
G01*
X3467100Y7162800D03*
G01*
X3371291Y6680200D03*
G01*
X6731000Y6870700D03*
G01*
X4250029Y6451600D03*
G01*
X4622800Y6337300D03*
G01*
X4648200Y6451600D03*
G01*
X4902200Y6565900D03*
G01*
X3317392Y5937199D03*
G01*
X3606800Y6883400D03*
G01*
X3501390Y6506210D03*
G01*
X4140200Y7442200D03*
G01*
X4406900Y7175500D03*
G01*
X5207000Y6896100D03*
G01*
X7215530Y5953785D03*
G01*
X7785100Y5422900D03*
G01*
X4162475Y6248984D03*
G01*
X3937000Y6248400D03*
G01*
X1079500Y6350000D03*
G01*
X4287443Y6050330D03*
G01*
X4025900Y6311900D03*
G01*
X3924300Y6540500D03*
G01*
X6946900Y5511800D03*
G01*
X5867400Y6680200D03*
G01*
X5156200Y6781800D03*
G01*
X5411266Y6925259D03*
G01*
X2413000Y5270500D03*
G01*
X6636918Y6718731D03*
G01*
X4965700Y6134100D03*
G01*
X3009900Y5651500D03*
G01*
X3683000Y5638800D03*
G01*
X6286500Y5803900D03*
G01*
X2832100Y5651500D03*
G01*
X5854700Y5676900D03*
G01*
X5321300Y5499100D03*
G01*
X4521200Y5803900D03*
G01*
X4597400Y5842000D03*
G01*
X6134100Y6604000D03*
G01*
X4673600Y6007100D03*
G01*
X5056733Y5998108D03*
G01*
X5270500Y6121400D03*
G01*
X4488281Y7105827D03*
G01*
X4927600Y5956300D03*
G01*
X6210300Y5765800D03*
G01*
X5016500Y6388100D03*
G01*
X6108700Y5664200D03*
G01*
X4523130Y5499100D03*
G01*
X5803900Y5930900D03*
G01*
X5003800Y6718300D03*
G01*
X6235700Y6121400D03*
G01*
X7186396Y6593789D03*
G01*
X7124700Y6438900D03*
G01*
X6629400Y6159500D03*
G01*
X6979920Y6375400D03*
G01*
X3467100Y7429500D03*
G01*
X3060700Y7264400D03*
G01*
X2895600Y6769100D03*
G01*
X2832100Y6667500D03*
G01*
X2832100Y6388100D03*
G01*
X3060700Y7112000D03*
G01*
X1778000Y7213600D03*
G01*
X1778000Y5283200D03*
M02*
