G04 Layer: TopLayer*
G04 EasyEDA v6.5.48, 2025-03-08 17:20:47*
G04 63e6e59633d6499fb326ce5c2c9b2855,b9277fd2045942759ab1a28cc0c323af,10*
G04 Gerber Generator version 0.2*
G04 Scale: 100 percent, Rotated: No, Reflected: No *
G04 Dimensions in millimeters *
G04 leading zeros omitted , absolute positions ,4 integer and 5 decimal *
%FSLAX45Y45*%
%MOMM*%

%AMMACRO1*21,1,$1,$2,0,0,$3*%
%AMMACRO2*1,1,$1,$2,$3*1,1,$1,$4,$5*20,1,$1,$2,$3,$4,$5,0*%
%ADD10C,0.2540*%
%ADD11C,0.2500*%
%ADD12C,0.1250*%
%ADD13C,0.3500*%
%ADD14MACRO1,2.16X1.635X-90.0000*%
%ADD15R,1.1000X2.8000*%
%ADD16R,2.8000X1.1000*%
%ADD17R,0.8000X0.8640*%
%ADD18MACRO1,0.54X0.5656X0.0000*%
%ADD19R,0.5400X0.5657*%
%ADD20MACRO1,0.54X0.5656X90.0000*%
%ADD21MACRO1,0.54X0.5656X-90.0000*%
%ADD22R,0.9500X0.3000*%
%ADD23MACRO1,0.54X0.7901X-90.0000*%
%ADD24R,2.0000X1.2000*%
%ADD25O,0.2800096X0.7999984*%
%ADD26MACRO1,0.54X0.7901X0.0000*%
%ADD27R,0.5400X0.7901*%
%ADD28MACRO1,0.54X0.7901X90.0000*%
%ADD29R,0.9500X1.1500*%
%ADD30R,1.2500X0.7000*%
%ADD31R,0.4900X1.1570*%
%ADD32R,0.4900X1.1750*%
%ADD33R,0.3505X1.6002*%
%ADD34R,0.7000X1.2500*%
%ADD35R,0.8000X0.9000*%
%ADD36MACRO1,1.728X1.485X90.0000*%
%ADD37MACRO1,1.728X1.485X0.0000*%
%ADD38R,1.7280X1.4850*%
%ADD39R,1.0000X6.0000*%
%ADD40R,1.8000X3.4000*%
%ADD41MACRO2,0.27X-0.4349X0.4349X0.4349X-0.4349*%
%ADD42MACRO2,0.27X-0.4349X-0.4349X0.4349X0.4349*%
%ADD43MACRO1,0.2X0.665X-45.0000*%
%ADD44MACRO1,0.665X0.2X-45.0000*%
%ADD45MACRO1,0.665X0.2X-45.0015*%
%ADD46MACRO1,0.665X0.2X-44.9985*%
%ADD47MACRO1,0.2X0.665X-45.0051*%
%ADD48MACRO1,0.2X0.665X-44.9949*%
%ADD49MACRO1,3.8X3.8X-45.0000*%
%ADD50O,2.2999954X0.9999979999999999*%
%ADD51O,1.9500088X0.9999979999999999*%
%ADD52O,0.9999979999999999X1.6999966*%
%ADD53R,1.6000X1.6000*%
%ADD54C,1.6000*%
%ADD55C,1.8000*%
%ADD56C,2.5000*%
%ADD57C,0.6096*%
%ADD58C,0.4500*%
%ADD59C,0.0131*%

%LPD*%
G36*
X6220460Y5905500D02*
G01*
X6216548Y5906262D01*
X6213297Y5908497D01*
X6211062Y5911748D01*
X6210300Y5915660D01*
X6210300Y6123940D01*
X6211062Y6127851D01*
X6213297Y6131102D01*
X6216548Y6133338D01*
X6220460Y6134100D01*
X6234684Y6134100D01*
X6236411Y6134811D01*
X6273088Y6171488D01*
X6273800Y6173216D01*
X6273800Y6178854D01*
X6274816Y6183630D01*
X6275628Y6192113D01*
X6276898Y6196126D01*
X6279743Y6199327D01*
X6283604Y6201054D01*
X6287871Y6201054D01*
X6291732Y6199327D01*
X6294577Y6196126D01*
X6295847Y6192113D01*
X6296660Y6183630D01*
X6299098Y6175248D01*
X6299911Y6171488D01*
X6305245Y6166104D01*
X6307582Y6163208D01*
X6311188Y6160211D01*
X6336588Y6134811D01*
X6338316Y6134100D01*
X6360566Y6134100D01*
X6364427Y6133338D01*
X6367729Y6131102D01*
X6372402Y6126429D01*
X6374638Y6123127D01*
X6375400Y6119266D01*
X6375400Y5915660D01*
X6374638Y5911748D01*
X6372402Y5908497D01*
X6369151Y5906262D01*
X6365240Y5905500D01*
G37*

%LPD*%
G36*
X5979160Y5905500D02*
G01*
X5975248Y5906262D01*
X5971997Y5908497D01*
X5969762Y5911748D01*
X5969000Y5915660D01*
X5969000Y6123940D01*
X5969762Y6127851D01*
X5971997Y6131102D01*
X5975248Y6133338D01*
X5979160Y6134100D01*
X6120384Y6134100D01*
X6122111Y6134811D01*
X6148273Y6160973D01*
X6151880Y6163310D01*
X6157366Y6167272D01*
X6161887Y6172352D01*
X6164275Y6176518D01*
X6165900Y6178600D01*
X6171488Y6184188D01*
X6172200Y6185916D01*
X6172200Y6248603D01*
X6172962Y6252514D01*
X6175197Y6255816D01*
X6178448Y6258001D01*
X6182360Y6258763D01*
X6187440Y6258763D01*
X6191351Y6258001D01*
X6194602Y6255816D01*
X6196838Y6252514D01*
X6197600Y6248603D01*
X6197600Y6151016D01*
X6196838Y6147104D01*
X6194602Y6143802D01*
X6147511Y6096711D01*
X6146800Y6094984D01*
X6146800Y5915660D01*
X6146038Y5911748D01*
X6143802Y5908497D01*
X6140551Y5906262D01*
X6136640Y5905500D01*
G37*

%LPD*%
D10*
X4313174Y6671310D02*
G01*
X4367784Y6616700D01*
X4610100Y6616700D01*
X4978400Y6248400D01*
X5140706Y6248400D01*
X5203190Y6310884D01*
X4384040Y6741921D02*
G01*
X4436618Y6689344D01*
X4639056Y6689344D01*
X5003800Y6324600D01*
X5105400Y6324600D01*
X5146547Y6367526D01*
X4538218Y6178295D02*
G01*
X4538218Y6151118D01*
X4483100Y6096000D01*
X4368800Y6096000D01*
X4343400Y6121400D01*
X4343400Y6428994D01*
X4207256Y6565137D01*
X4490720Y6883400D02*
G01*
X4368800Y6883400D01*
X4076700Y6591300D01*
X4076700Y6554215D01*
X4136390Y6494526D01*
X4064000Y5923381D02*
G01*
X4190949Y6050330D01*
X4287443Y6050330D01*
D11*
X1656181Y5283200D02*
G01*
X1778000Y5283200D01*
X1656181Y7213600D02*
G01*
X1778000Y7213600D01*
D12*
X3060700Y7112000D02*
G01*
X3144418Y7112000D01*
X3089808Y6477000D02*
G01*
X3302000Y6689191D01*
X3302000Y6713118D01*
X2832100Y6388100D02*
G01*
X2921000Y6477000D01*
X2980791Y6477000D01*
X3004718Y6718300D02*
G01*
X2953918Y6667500D01*
X2832100Y6667500D01*
X3004718Y6959600D02*
G01*
X2832100Y6786981D01*
X2832100Y6667500D01*
X2315209Y6477507D02*
G01*
X2622041Y6477254D01*
X2630424Y6485636D01*
X2630424Y6494018D01*
X2638806Y6502145D01*
X2672079Y6502145D01*
X2680461Y6493763D01*
X2680461Y6485381D01*
X2688843Y6477254D01*
X2722118Y6477000D01*
X2730500Y6485381D01*
X2730500Y6493763D01*
X2738881Y6502145D01*
X2772156Y6502145D01*
X2780284Y6493763D01*
X2780284Y6485381D01*
X2788665Y6477000D01*
X2857500Y6477000D01*
X2980690Y6600189D01*
X2980690Y6604000D01*
X3641445Y7201585D02*
G01*
X3565931Y7277100D01*
X3510457Y7277100D01*
X3175000Y6941642D01*
X3175000Y6781800D01*
X3111500Y6718300D01*
X3091281Y6718300D01*
X3091281Y6959600D02*
G01*
X3162300Y6959600D01*
X3505200Y7302500D01*
X3619500Y7302500D01*
X3676827Y7245172D01*
X3676827Y7236942D01*
X2980791Y6845300D02*
G01*
X2904591Y6769100D01*
X2895600Y6769100D01*
X3089909Y6845300D02*
G01*
X3091179Y6959600D01*
X3089909Y6604000D02*
G01*
X3091179Y6718300D01*
X2315095Y6223507D02*
G01*
X2425700Y6112903D01*
X2425700Y6045200D01*
X2501900Y5969000D01*
X2755900Y5969000D01*
X2980791Y6193891D01*
X2980791Y6477000D01*
X2569209Y6350507D02*
G01*
X2196591Y6350507D01*
X2159000Y6388100D01*
X2159000Y6997700D01*
X2519679Y7358379D01*
X2984500Y7358379D01*
X2984500Y7358481D02*
G01*
X3030118Y7404100D01*
X3247491Y7404100D01*
X3060700Y7264400D02*
G01*
X3144418Y7264400D01*
X2984500Y7271918D02*
G01*
X2992018Y7264400D01*
X3060700Y7264400D01*
X3356508Y7404100D02*
G01*
X3381908Y7429500D01*
X3467100Y7429500D01*
X3230879Y7112000D02*
G01*
X3231134Y7175500D01*
X3230879Y7264400D02*
G01*
X3231134Y7200900D01*
X2315209Y6731508D02*
G01*
X2209800Y6836918D01*
X2209800Y6979665D01*
X2405634Y7175500D01*
X2423668Y7175500D01*
X2436113Y7163054D01*
X2436113Y7122921D01*
X2448813Y7110476D01*
X2473706Y7110476D01*
X2486152Y7122921D01*
X2486152Y7163054D01*
X2498852Y7175500D01*
X2523743Y7175500D01*
X2536190Y7163054D01*
X2536190Y7122921D01*
X2548636Y7110476D01*
X2573781Y7110476D01*
X2586227Y7122921D01*
X2586227Y7163054D01*
X2598674Y7175500D01*
X2623820Y7175500D01*
X2636265Y7163054D01*
X2636265Y7122921D01*
X2648711Y7110476D01*
X2673858Y7110476D01*
X2686304Y7122921D01*
X2686304Y7163054D01*
X2698750Y7175500D01*
X2723641Y7175500D01*
X2736341Y7163054D01*
X2736341Y7122921D01*
X2748788Y7110476D01*
X2773679Y7110476D01*
X2786125Y7122921D01*
X2786125Y7163054D01*
X2798825Y7175500D01*
X2823718Y7175500D01*
X2836163Y7163054D01*
X2836163Y7122921D01*
X2848609Y7110476D01*
X2873756Y7110476D01*
X2886202Y7122921D01*
X2886202Y7163054D01*
X2898647Y7175500D01*
X3314700Y7175500D01*
X3543300Y7404100D01*
X3721100Y7404100D01*
X3782822Y7342886D01*
X2569209Y6604508D02*
G01*
X2222500Y6604000D01*
X2184400Y6642100D01*
X2184400Y6985000D01*
X2400300Y7200900D01*
X3302000Y7200900D01*
X3543300Y7442200D01*
X3759200Y7442200D01*
X3818127Y7383271D01*
X3818127Y7378445D01*
D10*
X3302000Y6713220D02*
G01*
X3335020Y6680200D01*
X3371283Y6680200D01*
X4030477Y6388354D02*
G01*
X4025900Y6388354D01*
X4025900Y6311900D01*
X2253741Y5283200D02*
G01*
X2569095Y5598553D01*
X2569095Y5842507D01*
X1985098Y5512003D02*
G01*
X2213902Y5283200D01*
X2253741Y5283200D01*
X1985098Y7060996D02*
G01*
X1985098Y5512003D01*
X1190104Y6695008D02*
G01*
X1371600Y6876503D01*
X1371600Y7061200D01*
X1524000Y7213600D01*
X1569618Y7213600D01*
X1190104Y5877991D02*
G01*
X1322908Y5877991D01*
X1371600Y5829300D01*
X1371600Y5481218D01*
X1569618Y5283200D01*
X4277868Y6636004D02*
G01*
X4335272Y6578600D01*
X4597400Y6578600D01*
X4965700Y6210300D01*
X5158993Y6210300D01*
X5231384Y6282689D01*
X4348479Y6706615D02*
G01*
X4400295Y6654800D01*
X4622800Y6654800D01*
X4991100Y6286500D01*
X5118100Y6286500D01*
X5170931Y6339331D01*
X5174995Y6339331D01*
X4965700Y6134100D02*
G01*
X5139436Y6134100D01*
X5259831Y6254495D01*
X6210300Y5637199D02*
G01*
X6197600Y5649899D01*
X6197600Y5765800D01*
X5529503Y6806996D02*
G01*
X5575300Y6852793D01*
X5575300Y6921500D01*
X5384800Y7112000D01*
X5384800Y7429500D01*
X5359400Y7454900D01*
X5219700Y7454900D01*
X5202809Y7438009D01*
X5202809Y7372502D01*
X4419269Y6989445D02*
G01*
X4488281Y7058456D01*
X4488281Y7105817D01*
X5202809Y7232497D02*
G01*
X5202809Y7247509D01*
X5312790Y7357490D01*
X5312790Y7372502D01*
X5609691Y5816600D02*
G01*
X5636257Y5790034D01*
X5636257Y5638800D01*
X5755792Y6580708D02*
G01*
X5804484Y6629400D01*
X5930900Y6629400D01*
X5951501Y6608798D01*
X3949700Y5934608D02*
G01*
X3960926Y5923381D01*
X4064000Y5923381D01*
X3835400Y5934608D02*
G01*
X3949700Y5934608D01*
X4064000Y5836818D02*
G01*
X4028440Y5801258D01*
X4028440Y5638800D01*
X3949700Y5825591D02*
G01*
X3957320Y5817971D01*
X3957320Y5638800D01*
X3835400Y5825591D02*
G01*
X3888740Y5772251D01*
X3888740Y5638800D01*
X3746500Y5638800D02*
G01*
X3683000Y5638800D01*
X3817620Y5638800D02*
G01*
X3746500Y5638800D01*
X4097020Y5638800D02*
G01*
X4376420Y5638800D01*
X4447540Y5638800D02*
G01*
X4518659Y5638800D01*
X5567679Y5638800D02*
G01*
X5567679Y5748020D01*
X5461000Y5854700D01*
X5363209Y5854700D01*
X5718708Y5816600D02*
G01*
X5718708Y5797445D01*
X5707385Y5786120D01*
X5707385Y5638800D01*
X4991100Y5889091D02*
G01*
X5118100Y5889091D01*
X5118100Y5998108D02*
G01*
X5134508Y5981700D01*
X5254091Y5981700D01*
X5056723Y5998108D02*
G01*
X5118100Y5998108D01*
X4991100Y5998108D02*
G01*
X5056723Y5998108D01*
X4864100Y5913018D02*
G01*
X4864100Y5854700D01*
X4927600Y5791200D01*
X5054600Y5791200D01*
X5080000Y5765800D01*
X5077459Y5763260D01*
X5077459Y5638800D01*
X4737100Y5913018D02*
G01*
X4737100Y5892800D01*
X4866640Y5763260D01*
X4866640Y5638800D01*
X5146598Y6637273D02*
G01*
X5281472Y6502400D01*
X5422900Y6502400D01*
X4427981Y6318504D02*
G01*
X4425695Y6477000D01*
X4425807Y6477000D02*
G01*
X4366031Y6477000D01*
X4242485Y6600545D01*
X4136390Y7272273D02*
G01*
X4171695Y7236968D01*
X4171695Y7236968D02*
G01*
X4207256Y7201662D01*
X5901791Y6934200D02*
G01*
X5883808Y6952183D01*
X5883808Y7061200D01*
X4944008Y6654800D02*
G01*
X4965700Y6633108D01*
X4965700Y6548386D01*
X5061732Y6452362D01*
X5557776Y6778698D02*
G01*
X5651500Y6872424D01*
X5651500Y6943191D01*
X4171772Y7236942D02*
G01*
X4287418Y7352588D01*
X4287418Y7404100D01*
X3508908Y5461000D02*
G01*
X3508908Y5575300D01*
X3508908Y5575300D01*
X3508908Y5575300D02*
G01*
X3508908Y5689600D01*
X3508908Y5689600D01*
X3508908Y5689600D02*
G01*
X3508908Y5803900D01*
X3508908Y5803900D01*
X3508908Y5803900D02*
G01*
X3591407Y5886399D01*
X3591407Y6096000D01*
X3591407Y6096000D02*
G01*
X3604107Y6083300D01*
X3854322Y6083300D01*
X3591308Y6096000D02*
G01*
X3569665Y6096000D01*
X3544265Y6121400D01*
X3544265Y6326581D01*
X3712207Y6494523D01*
X3717391Y6248400D02*
G01*
X3695700Y6270091D01*
X3695700Y6400800D01*
X3747541Y6452641D01*
X3747541Y6459146D01*
X3534308Y6426200D02*
G01*
X3573170Y6426200D01*
X3676827Y6529857D01*
X3570731Y6636004D02*
G01*
X3640327Y6705600D01*
X3683000Y6705600D01*
X3771900Y6616700D01*
X3771900Y6553200D01*
X3712209Y6494526D01*
X3500043Y6706641D02*
G01*
X3575202Y6781800D01*
X3606800Y6781800D01*
X3683000Y6705600D01*
X3606800Y6883400D02*
G01*
X3606800Y6781800D01*
X3464681Y7024829D02*
G01*
X3606111Y6883400D01*
X3606800Y6883400D01*
X3632200Y7035800D02*
G01*
X3771900Y7175500D01*
X3771900Y7213600D01*
X3712209Y7272273D01*
X3464559Y7024878D02*
G01*
X3543300Y6946900D01*
X3632200Y7035800D01*
X3632200Y7073900D01*
X3575304Y7130795D01*
X3570731Y7130795D01*
X4538218Y6178295D02*
G01*
X4699000Y6179820D01*
X6642100Y6756400D02*
G01*
X6642100Y6814715D01*
X6636915Y6819900D01*
X6636918Y6680200D02*
G01*
X6642100Y6685381D01*
X6642100Y6756400D01*
X5642632Y6693867D02*
G01*
X5882965Y6934200D01*
X5901791Y6934200D01*
X3399891Y5803900D02*
G01*
X3399891Y5689600D01*
X3399891Y5689600D01*
X3399891Y5689600D02*
G01*
X3399891Y5575300D01*
X3399891Y5575300D01*
X3399891Y5575300D02*
G01*
X3399891Y5461000D01*
X3399891Y5461000D01*
X3317392Y5937199D02*
G01*
X3317392Y6016142D01*
X3212134Y6121400D01*
X3399891Y5803900D02*
G01*
X3399891Y5854700D01*
X3317392Y5937199D01*
X3500043Y7060158D02*
G01*
X3448202Y7112000D01*
X3403600Y7112000D01*
X3341090Y7049490D01*
X3341090Y6838772D01*
X3302000Y6799681D01*
X5537200Y6083300D02*
G01*
X5537200Y6083300D01*
X5511800Y6057900D01*
X5511800Y6024981D01*
X5501208Y6169507D02*
G01*
X5537200Y6133515D01*
X5537200Y6083300D01*
X5638800Y6088506D02*
G01*
X5638800Y6088506D01*
X5638800Y6024981D01*
X5529503Y6197803D02*
G01*
X5638800Y6088506D01*
X4537709Y6019800D02*
G01*
X4538218Y6178295D01*
X4136443Y6494500D02*
G01*
X4267200Y6363741D01*
X4267200Y6353708D01*
X7239000Y5600700D02*
G01*
X7246518Y5593181D01*
X7246518Y5511800D01*
X7333081Y5511800D02*
G01*
X7340600Y5519318D01*
X7340600Y5600700D01*
X5312918Y7232395D02*
G01*
X5312409Y7099300D01*
X5411274Y6925251D02*
G01*
X5472938Y6863587D01*
X5312409Y7099300D02*
G01*
X5334000Y7099300D01*
X5537200Y6896100D01*
X5537200Y6870700D01*
X5501131Y6835139D01*
X5651500Y7052208D02*
G01*
X5660491Y7061200D01*
X5774791Y7061200D01*
X5651500Y7052208D02*
G01*
X5642508Y7061200D01*
X5549900Y7061200D01*
X3747541Y7307656D02*
G01*
X3701897Y7353300D01*
X3619500Y7353300D01*
X3535400Y7095543D02*
G01*
X3468141Y7162800D01*
X3467100Y7162800D01*
X3371283Y6680200D02*
G01*
X3403600Y6680200D01*
X3464559Y6741921D01*
X7023100Y5977991D02*
G01*
X7057491Y5943600D01*
X7213600Y5943600D01*
X4426717Y6406250D02*
G01*
X4432167Y6400800D01*
X4635500Y6400800D01*
X4699000Y6337300D01*
X4699000Y6266281D01*
X4428109Y6178397D02*
G01*
X4428109Y6193409D01*
X4483100Y6248400D01*
X4483100Y6248400D02*
G01*
X4538090Y6303390D01*
X4538090Y6318402D01*
X4287456Y6050343D02*
G01*
X4318000Y6019800D01*
X4428591Y6019800D01*
X4267200Y6244691D02*
G01*
X4267200Y6070600D01*
X4287456Y6050343D01*
X4171772Y6529857D02*
G01*
X4250029Y6451600D01*
X4254500Y6451600D01*
X4538090Y6318404D02*
G01*
X4556986Y6337300D01*
X4622800Y6337300D01*
X4537709Y6477000D02*
G01*
X4622800Y6477000D01*
X4648200Y6451600D01*
X4834991Y6654800D02*
G01*
X4834991Y6769100D01*
X4834991Y6654800D02*
G01*
X4902200Y6587591D01*
X4902200Y6565900D01*
X3425190Y6426200D02*
G01*
X3501390Y6502400D01*
X3578606Y6502400D01*
X3641343Y6565137D01*
X3535400Y6671259D02*
G01*
X3479800Y6615658D01*
X3479800Y6527800D01*
X3501390Y6506210D01*
X3501390Y6502400D01*
X4030370Y7378369D02*
G01*
X4094200Y7442200D01*
X4140200Y7442200D01*
X4401718Y7264400D02*
G01*
X4406900Y7259218D01*
X4406900Y7175500D01*
X5203291Y6985000D02*
G01*
X5203291Y7099300D01*
X5203190Y7099300D02*
G01*
X5202681Y7232395D01*
X5203291Y6985000D02*
G01*
X5207000Y6981291D01*
X5207000Y6908800D01*
X7759700Y5276342D02*
G01*
X7785100Y5301742D01*
X7785100Y5422900D01*
X4162463Y6248976D02*
G01*
X3996786Y6083300D01*
X3994302Y6083300D01*
X4267200Y6353708D02*
G01*
X4162465Y6248974D01*
X3826408Y6248400D02*
G01*
X3937000Y6248400D01*
X4419269Y6777329D02*
G01*
X4427499Y6769100D01*
X4533900Y6769100D01*
X4577181Y6812381D01*
X4577181Y6883400D01*
X4101058Y6459146D02*
G01*
X4019704Y6540500D01*
X3924300Y6540500D01*
X5727501Y6609003D02*
G01*
X5798698Y6680200D01*
X5816600Y6680200D01*
X5614365Y6722135D02*
G01*
X5465318Y6573088D01*
X5422900Y6573088D01*
X5203167Y6693867D02*
G01*
X5143500Y6753534D01*
X5143500Y6845300D01*
X2572258Y5283200D02*
G01*
X2559558Y5270500D01*
X2413000Y5270500D01*
X4658359Y5638800D02*
G01*
X4798059Y5638800D01*
X4937759Y5638800D02*
G01*
X5006340Y5638800D01*
X5778500Y5638800D02*
G01*
X5816600Y5638800D01*
X5854700Y5676900D01*
X4518657Y5638800D02*
G01*
X4521200Y5641342D01*
X4521200Y5803900D01*
X4927600Y5956300D02*
G01*
X4927600Y5952492D01*
X4991100Y5888992D01*
X5288025Y6226047D02*
G01*
X5145277Y6083300D01*
X4673600Y6083300D01*
X4622800Y6032500D01*
X4622800Y5956300D01*
X4665979Y5913120D01*
X4737100Y5913120D01*
X4587240Y5638800D02*
G01*
X4597400Y5638800D01*
X4597400Y5842000D01*
X4737100Y5999584D02*
G01*
X4729584Y6007100D01*
X4673600Y6007100D01*
X4523140Y5499100D02*
G01*
X4419600Y5499100D01*
X4376420Y5542279D01*
X4376420Y5638800D01*
X4658359Y5638800D02*
G01*
X4658359Y5534660D01*
X4622800Y5499100D01*
X4523140Y5499100D01*
X4937759Y5638800D02*
G01*
X4937759Y5534660D01*
X4902200Y5499100D01*
X4838700Y5499100D01*
X4798059Y5539739D01*
X4798059Y5638800D01*
X5148579Y5638800D02*
G01*
X5148579Y5529579D01*
X5118100Y5499100D01*
X5041900Y5499100D01*
X5006340Y5534660D01*
X5006340Y5638800D01*
X5784093Y6452362D02*
G01*
X5816600Y6419855D01*
X5816600Y6337300D01*
X5316296Y6197803D02*
G01*
X5270500Y6152006D01*
X5270500Y6121400D01*
X4488281Y7105817D02*
G01*
X4488281Y7264400D01*
X6305295Y5437123D02*
G01*
X6304279Y5270500D01*
X6217818Y5270500D02*
G01*
X6115304Y5373014D01*
X6115304Y5437200D01*
X6305295Y5437200D02*
G01*
X6305295Y5785104D01*
X6286500Y5803900D01*
X5363108Y5981700D02*
G01*
X5406390Y5938418D01*
X5511800Y5938418D01*
X5511800Y5938418D02*
G01*
X5638800Y5938418D01*
X5363108Y5981700D02*
G01*
X5363108Y6031407D01*
X5472938Y6141237D01*
X4373981Y7404100D02*
G01*
X4546600Y7404100D01*
X4597400Y7353300D01*
X4597400Y7061200D01*
X4490618Y6954418D01*
X4490618Y6883400D01*
X5118348Y6395720D02*
G01*
X5085334Y6362700D01*
X5041900Y6362700D01*
X5016500Y6388100D01*
X6070600Y5664200D02*
G01*
X6115298Y5619501D01*
X6115298Y5437200D01*
X4864100Y5999479D02*
G01*
X4884420Y5999479D01*
X4927600Y5956300D01*
X5312409Y6985000D02*
G01*
X5351525Y6985000D01*
X5411274Y6925251D01*
X5041900Y7331608D02*
G01*
X5082796Y7372504D01*
X5202809Y7372504D01*
X5041900Y7222591D02*
G01*
X5051803Y7232495D01*
X5202809Y7232495D01*
X5638800Y5938415D02*
G01*
X5796384Y5938415D01*
X5803900Y5930900D01*
X4819510Y6908800D02*
G01*
X4819510Y6851789D01*
X4838700Y6832600D01*
X4991100Y6832600D01*
X5054600Y6769100D01*
X5054600Y6616141D01*
X5090033Y6580708D01*
X4959489Y6908800D02*
G01*
X4965700Y6908800D01*
X5092700Y6781800D01*
X5092700Y6634606D01*
X5118303Y6609003D01*
X4959489Y6908800D02*
G01*
X4931308Y6936981D01*
X4931308Y7048500D01*
X4944008Y6769100D02*
G01*
X4994808Y6718300D01*
X5003800Y6718300D01*
X5003800Y6718300D02*
G01*
X5016500Y6705600D01*
X5016500Y6591300D01*
X5055361Y6552437D01*
X5061711Y6552437D01*
X5041900Y7222591D02*
G01*
X4911191Y7222591D01*
X4822291Y7133691D01*
X4822291Y7048500D01*
X6504431Y6152895D02*
G01*
X6509915Y6158379D01*
X6509915Y6299200D01*
X6723484Y6680200D02*
G01*
X6723484Y6606486D01*
X6826504Y6503466D01*
X6826504Y6272733D02*
G01*
X6877248Y6272733D01*
X6979914Y6375400D01*
X6896100Y5989215D02*
G01*
X6907324Y5977991D01*
X7023100Y5977991D01*
X6629400Y6159500D02*
G01*
X6622795Y6152895D01*
X6504431Y6152895D01*
X6629400Y6159500D02*
G01*
X6629400Y5829300D01*
X6718300Y5740400D01*
X6760540Y5740400D01*
X6896100Y6075781D02*
G01*
X7016501Y6196182D01*
X7016501Y6272733D01*
D11*
X6629400Y6544208D02*
G01*
X6636915Y6551724D01*
X6636915Y6680200D01*
D13*
X5435600Y7442200D02*
G01*
X5435600Y7188200D01*
X5511800Y7188200D01*
X5511800Y7442200D01*
X5588000Y7442200D01*
X5588000Y7188200D01*
X5664200Y7188200D01*
X5664200Y7442200D01*
X5740400Y7442200D01*
X5740400Y7188200D01*
X5816600Y7188200D01*
X5816600Y7442200D01*
X5892800Y7442200D01*
X5892800Y7188200D01*
X5969000Y7188200D01*
X5969000Y7442200D01*
X6045200Y7442200D01*
X6045200Y6934200D01*
X6010909Y6934200D01*
D10*
X7099300Y6438900D02*
G01*
X7034733Y6503466D01*
X7016501Y6503466D01*
D11*
X7162800Y6629400D02*
G01*
X7162800Y6769100D01*
X7251700Y6858000D01*
X7335415Y6858000D01*
X6135624Y6457187D02*
G01*
X6134100Y6604000D01*
X6135624Y6217412D02*
G01*
X6126988Y6217412D01*
X6083300Y6261100D01*
X6083300Y6404863D01*
X6135624Y6457187D01*
D10*
X6504431Y5962904D02*
G01*
X6422057Y5880529D01*
X6422057Y5740400D01*
D11*
X6244691Y6604000D02*
G01*
X6235700Y6595008D01*
X6235700Y6457187D01*
X6335775Y6457187D02*
G01*
X6335775Y6512915D01*
X6244691Y6604000D01*
X6353708Y6604000D02*
G01*
X6244691Y6713016D01*
X6244691Y6731000D01*
X6244691Y6731000D02*
G01*
X6353708Y6840016D01*
X6353708Y6858000D01*
X6235700Y6217412D02*
G01*
X6235700Y6337300D01*
X6185661Y6457187D02*
G01*
X6185661Y6387337D01*
X6235700Y6337300D01*
X6285738Y6457187D02*
G01*
X6285738Y6387337D01*
X6235700Y6337300D01*
X6134100Y6604000D02*
G01*
X6134100Y6747510D01*
X6244590Y6858000D01*
X6353708Y6731000D02*
G01*
X6426200Y6658508D01*
X6426200Y6299200D01*
X6344411Y6217412D01*
X6335775Y6217412D01*
X6286500Y6337300D02*
G01*
X6350000Y6337300D01*
X6388100Y6375400D01*
X6388100Y6540500D01*
X6353708Y6574891D01*
X6353708Y6604000D01*
D10*
X5496559Y5638800D02*
G01*
X5496559Y5742939D01*
X5448300Y5791200D01*
X5295900Y5791200D01*
X5253990Y5833110D01*
X5253990Y5854700D01*
X5219700Y5778500D02*
G01*
X5245100Y5753100D01*
X5397500Y5753100D01*
X5427979Y5722620D01*
X5427979Y5638800D01*
X5118100Y5889091D02*
G01*
X5118100Y5880100D01*
X5219700Y5778500D01*
X5217159Y5775960D01*
X5217159Y5638800D01*
X5148579Y5529579D02*
G01*
X5179059Y5499100D01*
X5257800Y5499100D01*
X5288279Y5529579D01*
X5288279Y5638800D01*
D11*
X7389647Y6386296D02*
G01*
X7329703Y6386296D01*
X7304709Y6411290D01*
X7259650Y6411290D01*
X7561579Y5689600D02*
G01*
X7561579Y6256020D01*
X7479284Y6336284D01*
X7389622Y6336284D01*
X7389647Y6186296D02*
G01*
X7478902Y6186296D01*
X7493000Y6172200D01*
X7259650Y6161303D02*
G01*
X7313396Y6161303D01*
X7338415Y6136284D01*
X7389647Y6136284D01*
X6979914Y6375400D02*
G01*
X7035800Y6375400D01*
X7073900Y6337300D01*
X7073900Y6172200D01*
X7023100Y6121400D01*
X7023100Y6087008D01*
X7073900Y6337300D02*
G01*
X7112000Y6337300D01*
X7190486Y6411213D01*
X7259574Y6411213D01*
X7259650Y6211290D02*
G01*
X7187209Y6211290D01*
X7175500Y6223000D01*
X7023100Y5977991D02*
G01*
X7023100Y5892800D01*
X7226300Y5689600D01*
X7475115Y5689600D01*
X6826504Y6503415D02*
G01*
X6826504Y6572504D01*
X6870700Y6616700D01*
X7019543Y6616700D01*
X7046722Y6643878D01*
X7046722Y6958329D01*
X6896100Y6375400D02*
G01*
X6921500Y6400800D01*
X6921500Y6503466D01*
X7259650Y6561302D02*
G01*
X7319797Y6561302D01*
X7344816Y6536283D01*
X7389647Y6536283D01*
X7259650Y6011290D02*
G01*
X7311009Y6011290D01*
X7336002Y5986297D01*
X7389647Y5986297D01*
X7213600Y5943600D02*
G01*
X7259650Y5989650D01*
X7259650Y6011290D01*
X7112000Y6553200D02*
G01*
X7120105Y6561305D01*
X7259650Y6561305D01*
X7759700Y5594857D02*
G01*
X7777149Y5612307D01*
X7777149Y5841796D01*
X7777149Y5841796D02*
G01*
X7777149Y6705803D01*
X6896100Y5820308D02*
G01*
X6896100Y5829300D01*
X6754368Y5971031D01*
X6754368Y6057900D01*
X6896100Y5711291D02*
G01*
X7023100Y5838291D01*
X7023100Y5892800D01*
X7150100Y6032500D02*
G01*
X7178903Y6061303D01*
X7259650Y6061303D01*
X7137400Y6096000D02*
G01*
X7152690Y6111290D01*
X7259650Y6111290D01*
X7389647Y6486296D02*
G01*
X7496403Y6486296D01*
X7518400Y6464300D01*
X7389647Y6536283D02*
G01*
X7501483Y6536283D01*
X7556500Y6591300D01*
X7556500Y6723481D01*
X7421981Y6858000D01*
X6826504Y6503415D02*
G01*
X6826504Y6470904D01*
X6743700Y6388100D01*
X6743700Y6057900D01*
X6754368Y6057900D01*
X6540500Y6375400D02*
G01*
X6596481Y6319418D01*
X6596481Y6286500D01*
X6846824Y6958329D02*
G01*
X6845300Y7340600D01*
X6515100Y6705600D02*
G01*
X6515100Y6477000D01*
X6556908Y6435191D01*
X6629400Y6435191D01*
X6723484Y6832600D02*
G01*
X6718300Y6837784D01*
X6718300Y6870700D01*
X6692900Y6896100D01*
X6565900Y6896100D01*
X6515100Y6845300D01*
X6515100Y6705600D01*
X5231434Y6722135D02*
G01*
X5194300Y6759270D01*
X5194300Y6794500D01*
X7259650Y6161303D02*
G01*
X7112000Y6161303D01*
X7101103Y6172200D01*
X7073900Y6172200D01*
X6244691Y6858000D02*
G01*
X6273800Y6887108D01*
X6273800Y7060247D01*
X6353708Y6858000D02*
G01*
X6375400Y6879691D01*
X6375400Y7239000D01*
X6273800Y7340600D01*
X6273800Y7392352D01*
X6335773Y6217412D02*
G01*
X6413500Y6139687D01*
X6413500Y6053836D01*
X6504431Y5962904D01*
D10*
X5784088Y6552437D02*
G01*
X5784088Y6509512D01*
X5892800Y6400800D01*
D11*
X5854700Y5676900D02*
G01*
X5892800Y5715000D01*
X5892800Y5727700D01*
X5892800Y6400800D02*
G01*
X5905500Y6388100D01*
X5905500Y6248400D01*
X5892800Y6502400D02*
G01*
X5951501Y6561101D01*
X5951501Y6608798D01*
X6134100Y6747510D02*
G01*
X6130290Y6743700D01*
X5905500Y6743700D01*
X5816600Y6337300D02*
G01*
X5816600Y6057900D01*
X5880100Y5994400D01*
X5892800Y5994400D01*
D14*
G01*
X6055461Y6019800D03*
G01*
X6288963Y6019800D03*
D15*
G01*
X6273800Y7060234D03*
G01*
X6273800Y7392365D03*
D16*
G01*
X3544265Y6121400D03*
G01*
X3212134Y6121400D03*
D17*
G01*
X3994353Y6083274D03*
G01*
X3854373Y6083274D03*
G01*
X4819573Y6908800D03*
G01*
X4959553Y6908800D03*
D18*
G01*
X4864100Y5913017D03*
D19*
G01*
X4864100Y5999581D03*
D18*
G01*
X4737100Y5913017D03*
D19*
G01*
X4737100Y5999581D03*
D18*
G01*
X4064000Y5836817D03*
D19*
G01*
X4064000Y5923381D03*
D20*
G01*
X6304382Y5270500D03*
G01*
X6217817Y5270500D03*
G01*
X1656182Y5283200D03*
G01*
X1569617Y5283200D03*
G01*
X1656182Y7213600D03*
G01*
X1569617Y7213600D03*
G01*
X4373982Y7404100D03*
G01*
X4287417Y7404100D03*
D21*
G01*
X4490617Y6883400D03*
G01*
X4577182Y6883400D03*
D18*
G01*
X4699000Y6266282D03*
D19*
G01*
X4699000Y6179718D03*
D18*
G01*
X3302000Y6799682D03*
D19*
G01*
X3302000Y6713118D03*
D20*
G01*
X3230982Y7112000D03*
G01*
X3144417Y7112000D03*
G01*
X3230982Y7264400D03*
G01*
X3144417Y7264400D03*
D21*
G01*
X3004717Y6959600D03*
G01*
X3091282Y6959600D03*
G01*
X3004717Y6718300D03*
G01*
X3091282Y6718300D03*
D18*
G01*
X5511800Y5938417D03*
D19*
G01*
X5511800Y6024981D03*
D20*
G01*
X4488282Y7264400D03*
G01*
X4401717Y7264400D03*
D18*
G01*
X6896100Y5989217D03*
D19*
G01*
X6896100Y6075781D03*
D20*
G01*
X6723482Y6680200D03*
G01*
X6636917Y6680200D03*
D21*
G01*
X6636917Y6832600D03*
G01*
X6723482Y6832600D03*
D20*
G01*
X7561682Y5689600D03*
G01*
X7475117Y5689600D03*
G01*
X7421982Y6858000D03*
G01*
X7335417Y6858000D03*
D21*
G01*
X6509917Y6286500D03*
G01*
X6596482Y6286500D03*
D18*
G01*
X5638800Y5938417D03*
D19*
G01*
X5638800Y6024981D03*
D21*
G01*
X7246517Y5511800D03*
G01*
X7333082Y5511800D03*
D18*
G01*
X2984500Y7358482D03*
D19*
G01*
X2984500Y7271918D03*
D22*
G01*
X7259650Y6011290D03*
G01*
X7259650Y6061278D03*
G01*
X7259650Y6111290D03*
G01*
X7259650Y6161278D03*
G01*
X7259650Y6211290D03*
G01*
X7259650Y6261277D03*
G01*
X7259650Y6311290D03*
G01*
X7259650Y6361277D03*
G01*
X7259650Y6411290D03*
G01*
X7259650Y6461277D03*
G01*
X7259650Y6511289D03*
G01*
X7259650Y6561277D03*
G01*
X7389647Y6536283D03*
G01*
X7389647Y6486296D03*
G01*
X7389647Y6436283D03*
G01*
X7389647Y6386296D03*
G01*
X7389647Y6336284D03*
G01*
X7389647Y6286296D03*
G01*
X7389647Y6236284D03*
G01*
X7389647Y6186296D03*
G01*
X7389647Y6136284D03*
G01*
X7389647Y6086297D03*
G01*
X7389647Y6036284D03*
G01*
X7389647Y5986297D03*
D23*
G01*
X6244694Y6604000D03*
G01*
X6353705Y6604000D03*
D24*
G01*
X6235700Y6337300D03*
D25*
G01*
X6135624Y6457187D03*
G01*
X6185661Y6457187D03*
G01*
X6235700Y6457187D03*
G01*
X6285738Y6457187D03*
G01*
X6335775Y6457187D03*
G01*
X6335775Y6217412D03*
G01*
X6285738Y6217412D03*
G01*
X6235700Y6217412D03*
G01*
X6185661Y6217412D03*
G01*
X6135624Y6217412D03*
D26*
G01*
X6629400Y6544205D03*
D27*
G01*
X6629400Y6435191D03*
D28*
G01*
X6010805Y6934200D03*
G01*
X5901794Y6934200D03*
D26*
G01*
X6896100Y5711294D03*
D27*
G01*
X6896100Y5820308D03*
D29*
G01*
X6760540Y5740400D03*
G01*
X6422059Y5740400D03*
D30*
G01*
X6754368Y6057900D03*
G01*
X6504431Y5962904D03*
G01*
X6504431Y6152895D03*
D31*
G01*
X7016495Y6503466D03*
G01*
X6921500Y6503466D03*
G01*
X6826504Y6503466D03*
D32*
G01*
X6826504Y6272733D03*
G01*
X7016495Y6272733D03*
D33*
G01*
X5778500Y5638800D03*
G01*
X5707379Y5638800D03*
G01*
X5636259Y5638800D03*
G01*
X5567679Y5638800D03*
G01*
X5496559Y5638800D03*
G01*
X5427979Y5638800D03*
G01*
X5356859Y5638800D03*
G01*
X5288279Y5638800D03*
G01*
X5217159Y5638800D03*
G01*
X5148579Y5638800D03*
G01*
X5077459Y5638800D03*
G01*
X5006340Y5638800D03*
G01*
X4937759Y5638800D03*
G01*
X4866640Y5638800D03*
G01*
X4798059Y5638800D03*
G01*
X4726940Y5638800D03*
G01*
X4658359Y5638800D03*
G01*
X4587240Y5638800D03*
G01*
X4518659Y5638800D03*
G01*
X4447540Y5638800D03*
G01*
X4376420Y5638800D03*
G01*
X4307840Y5638800D03*
G01*
X4236720Y5638800D03*
G01*
X4168140Y5638800D03*
G01*
X4097020Y5638800D03*
G01*
X4028440Y5638800D03*
G01*
X3957320Y5638800D03*
G01*
X3888740Y5638800D03*
G01*
X3817620Y5638800D03*
G01*
X3746500Y5638800D03*
D34*
G01*
X6115304Y5437200D03*
G01*
X6305295Y5437200D03*
G01*
X6210300Y5637199D03*
D26*
G01*
X5041900Y7222594D03*
D27*
G01*
X5041900Y7331608D03*
D23*
G01*
X5203294Y7099300D03*
G01*
X5312305Y7099300D03*
D28*
G01*
X5718705Y5816600D03*
G01*
X5609694Y5816600D03*
D23*
G01*
X5254094Y5854700D03*
G01*
X5363105Y5854700D03*
D26*
G01*
X5118100Y5889094D03*
D27*
G01*
X5118100Y5998108D03*
D26*
G01*
X4991100Y5889094D03*
D27*
G01*
X4991100Y5998108D03*
D26*
G01*
X3949700Y5825594D03*
D27*
G01*
X3949700Y5934608D03*
D26*
G01*
X3835400Y5825594D03*
D27*
G01*
X3835400Y5934608D03*
D26*
G01*
X4267200Y6353705D03*
D27*
G01*
X4267200Y6244691D03*
D23*
G01*
X3425294Y6426200D03*
G01*
X3534305Y6426200D03*
D28*
G01*
X3826405Y6248400D03*
G01*
X3717394Y6248400D03*
G01*
X4537605Y6019800D03*
G01*
X4428594Y6019800D03*
D23*
G01*
X4428594Y6477000D03*
G01*
X4537605Y6477000D03*
G01*
X3399894Y5803900D03*
G01*
X3508905Y5803900D03*
G01*
X3399894Y5689600D03*
G01*
X3508905Y5689600D03*
G01*
X3399894Y5575300D03*
G01*
X3508905Y5575300D03*
G01*
X3399894Y5461000D03*
G01*
X3508905Y5461000D03*
G01*
X2980794Y6604000D03*
G01*
X3089805Y6604000D03*
G01*
X2980794Y6845300D03*
G01*
X3089805Y6845300D03*
G01*
X2980794Y6477000D03*
G01*
X3089805Y6477000D03*
D28*
G01*
X5363105Y5981700D03*
G01*
X5254094Y5981700D03*
D23*
G01*
X5203294Y6985000D03*
G01*
X5312305Y6985000D03*
D28*
G01*
X4944005Y6654800D03*
G01*
X4834994Y6654800D03*
G01*
X4944005Y6769100D03*
G01*
X4834994Y6769100D03*
G01*
X4931305Y7048500D03*
G01*
X4822294Y7048500D03*
G01*
X5883805Y7061200D03*
G01*
X5774794Y7061200D03*
D26*
G01*
X5651500Y7052205D03*
D27*
G01*
X5651500Y6943191D03*
D26*
G01*
X7023100Y6087005D03*
D27*
G01*
X7023100Y5977991D03*
D28*
G01*
X6353705Y6731000D03*
G01*
X6244694Y6731000D03*
D23*
G01*
X6244694Y6858000D03*
G01*
X6353705Y6858000D03*
G01*
X3247494Y7404100D03*
G01*
X3356505Y7404100D03*
D35*
G01*
X5202809Y7232497D03*
G01*
X5312790Y7232497D03*
G01*
X5312790Y7372502D03*
G01*
X5202809Y7372502D03*
D36*
G01*
X2572250Y5283200D03*
G01*
X2253749Y5283200D03*
D37*
G01*
X7759700Y5276349D03*
D38*
G01*
X7759700Y5594857D03*
D39*
G01*
X7046696Y6958253D03*
G01*
X6846697Y6958253D03*
D40*
G01*
X7281900Y7189546D03*
G01*
X6611899Y7189546D03*
D41*
G01*
X3818229Y7378369D03*
G01*
X3782872Y7343013D03*
G01*
X3747541Y7307656D03*
G01*
X3712159Y7272299D03*
G01*
X3676827Y7236942D03*
G01*
X3641445Y7201585D03*
G01*
X3606114Y7166228D03*
G01*
X3570757Y7130872D03*
G01*
X3535400Y7095540D03*
G01*
X3500043Y7060158D03*
G01*
X3464687Y7024827D03*
G01*
X3429330Y6989444D03*
D42*
G01*
X3429330Y6777329D03*
G01*
X3464687Y6741972D03*
G01*
X3500043Y6706641D03*
G01*
X3535400Y6671259D03*
G01*
X3570757Y6635927D03*
G01*
X3606114Y6600545D03*
G01*
X3641445Y6565214D03*
G01*
X3676827Y6529857D03*
G01*
X3712159Y6494500D03*
G01*
X3747541Y6459143D03*
G01*
X3782872Y6423787D03*
G01*
X3818229Y6388430D03*
D41*
G01*
X4030370Y6388430D03*
G01*
X4065727Y6423787D03*
G01*
X4101058Y6459143D03*
G01*
X4136440Y6494500D03*
G01*
X4171772Y6529857D03*
G01*
X4207154Y6565214D03*
G01*
X4242485Y6600545D03*
G01*
X4277842Y6635927D03*
G01*
X4313199Y6671259D03*
G01*
X4348556Y6706641D03*
G01*
X4383912Y6741972D03*
G01*
X4419269Y6777329D03*
D42*
G01*
X4419269Y6989444D03*
G01*
X4383912Y7024827D03*
G01*
X4348556Y7060158D03*
G01*
X4313199Y7095540D03*
G01*
X4277842Y7130872D03*
G01*
X4242485Y7166228D03*
G01*
X4207154Y7201585D03*
G01*
X4171772Y7236942D03*
G01*
X4136440Y7272299D03*
G01*
X4101058Y7307656D03*
G01*
X4065727Y7343013D03*
G01*
X4030370Y7378369D03*
D43*
G01*
X5061748Y6452360D03*
G01*
X5090019Y6424091D03*
G01*
X5118307Y6395803D03*
G01*
X5146594Y6367515D03*
G01*
X5174882Y6339227D03*
G01*
X5203170Y6310939D03*
G01*
X5231441Y6282669D03*
G01*
X5259726Y6254382D03*
G01*
X5288014Y6226094D03*
G01*
X5316302Y6197807D03*
G01*
X5344590Y6169519D03*
G01*
X5372860Y6141248D03*
D44*
G01*
X5472939Y6141248D03*
D45*
G01*
X5501209Y6169519D03*
G01*
X5529497Y6197807D03*
G01*
X5557785Y6226094D03*
G01*
X5586073Y6254382D03*
D46*
G01*
X5614358Y6282669D03*
G01*
X5642629Y6310939D03*
D44*
G01*
X5670917Y6339227D03*
G01*
X5699205Y6367515D03*
G01*
X5727492Y6395803D03*
G01*
X5755780Y6424091D03*
G01*
X5784051Y6452360D03*
D43*
G01*
X5784048Y6552436D03*
G01*
X5755778Y6580706D03*
G01*
X5727490Y6608994D03*
G01*
X5699202Y6637282D03*
D47*
G01*
X5670917Y6665570D03*
D43*
G01*
X5642629Y6693857D03*
G01*
X5614358Y6722127D03*
D48*
G01*
X5586070Y6750415D03*
D43*
G01*
X5557782Y6778703D03*
G01*
X5529494Y6806991D03*
G01*
X5501206Y6835279D03*
G01*
X5472936Y6863548D03*
D44*
G01*
X5372863Y6863548D03*
G01*
X5344593Y6835279D03*
G01*
X5316305Y6806991D03*
G01*
X5288017Y6778703D03*
D46*
G01*
X5259729Y6750415D03*
G01*
X5231441Y6722127D03*
G01*
X5203170Y6693857D03*
D44*
G01*
X5174882Y6665570D03*
D45*
G01*
X5146597Y6637282D03*
G01*
X5118309Y6608994D03*
G01*
X5090021Y6580706D03*
D44*
G01*
X5061751Y6552436D03*
D49*
G01*
X5422900Y6502400D03*
D35*
G01*
X4538090Y6318402D03*
G01*
X4428109Y6318402D03*
G01*
X4428109Y6178397D03*
G01*
X4538090Y6178397D03*
G36*
X5854700Y6794500D02*
G01*
X5943600Y6794500D01*
X5943600Y6705600D01*
X5854700Y6705600D01*
G37*
G36*
X5867400Y6540500D02*
G01*
X5943600Y6540500D01*
X5943600Y6464300D01*
X5867400Y6464300D01*
G37*
G36*
X5854700Y6286500D02*
G01*
X5943600Y6286500D01*
X5943600Y6197600D01*
X5854700Y6197600D01*
G37*
G36*
X5854700Y6032500D02*
G01*
X5943600Y6032500D01*
X5943600Y5943600D01*
X5854700Y5943600D01*
G37*
G36*
X5854700Y5778500D02*
G01*
X5943600Y5778500D01*
X5943600Y5689600D01*
X5854700Y5689600D01*
G37*
D50*
G01*
X7777149Y6705803D03*
G01*
X7777149Y5841796D03*
D51*
G01*
X7315200Y6705600D03*
D52*
G01*
X7371588Y6678421D03*
D51*
G01*
X7315200Y5842000D03*
D52*
G01*
X7371588Y5865621D03*
D53*
G01*
X2315108Y6731380D03*
D54*
G01*
X2569083Y6604380D03*
G01*
X2315083Y6477380D03*
G01*
X2569083Y6350380D03*
G01*
X2315083Y6223380D03*
G01*
X2569083Y6096380D03*
G01*
X2315083Y5969380D03*
G01*
X2569083Y5842380D03*
D55*
G01*
X1190117Y6948881D03*
G01*
X1190117Y6694881D03*
G01*
X1190117Y5877864D03*
G01*
X1190117Y5623864D03*
D56*
G01*
X1985111Y7060869D03*
G01*
X1985111Y5511876D03*
D57*
G01*
X5422900Y6573088D03*
G01*
X5493613Y6502374D03*
G01*
X5352186Y6502374D03*
G01*
X5422900Y6431661D03*
D58*
G01*
X7239000Y5600700D03*
G01*
X7340600Y5600700D03*
G01*
X5537200Y6083300D03*
G01*
X5638800Y6088506D03*
G01*
X5549900Y7061200D03*
G01*
X3619500Y7353300D03*
G01*
X3467100Y7162800D03*
G01*
X3371291Y6680200D03*
G01*
X4250029Y6451600D03*
G01*
X4622800Y6337300D03*
G01*
X4648200Y6451600D03*
G01*
X4902200Y6565900D03*
G01*
X3317392Y5937199D03*
G01*
X3606800Y6883400D03*
G01*
X3501390Y6506210D03*
G01*
X4140200Y7442200D03*
G01*
X4406900Y7175500D03*
G01*
X5207000Y6908800D03*
G01*
X7213600Y5943600D03*
G01*
X7785100Y5422900D03*
G01*
X4162475Y6248984D03*
G01*
X3937000Y6248400D03*
G01*
X1079500Y6350000D03*
G01*
X4287443Y6050330D03*
G01*
X4025900Y6311900D03*
G01*
X3924300Y6540500D03*
G01*
X6946900Y5511800D03*
G01*
X5816600Y6680200D03*
G01*
X5143500Y6845300D03*
G01*
X5411266Y6925259D03*
G01*
X2413000Y5270500D03*
G01*
X6642100Y6756400D03*
G01*
X4965700Y6134100D03*
G01*
X3009900Y5651500D03*
G01*
X3683000Y5638800D03*
G01*
X6286500Y5803900D03*
G01*
X2832100Y5651500D03*
G01*
X5854700Y5676900D03*
G01*
X4521200Y5803900D03*
G01*
X4597400Y5842000D03*
G01*
X6134100Y6604000D03*
G01*
X4673600Y6007100D03*
G01*
X5056733Y5998108D03*
G01*
X5270500Y6121400D03*
G01*
X4488281Y7105827D03*
G01*
X4927600Y5956300D03*
G01*
X6197600Y5765800D03*
G01*
X5016500Y6388100D03*
G01*
X6070600Y5664200D03*
G01*
X4523130Y5499100D03*
G01*
X5803900Y5930900D03*
G01*
X5003800Y6718300D03*
G01*
X7162800Y6629400D03*
G01*
X7099300Y6438900D03*
G01*
X6629400Y6159500D03*
G01*
X6979920Y6375400D03*
G01*
X3467100Y7429500D03*
G01*
X3060700Y7264400D03*
G01*
X2895600Y6769100D03*
G01*
X2832100Y6667500D03*
G01*
X2832100Y6388100D03*
G01*
X3060700Y7112000D03*
G01*
X1778000Y7213600D03*
G01*
X1778000Y5283200D03*
G01*
X6286500Y6337300D03*
G01*
X6184900Y6337300D03*
G01*
X7493000Y6172200D03*
G01*
X7175500Y6223000D03*
G01*
X6896100Y6375400D03*
G01*
X7112000Y6553200D03*
G01*
X7137400Y6096000D03*
G01*
X7150100Y6032500D03*
G01*
X7518400Y6464300D03*
G01*
X5951499Y6608800D03*
G01*
X5892800Y6400800D03*
G01*
X5816600Y6337300D03*
G01*
X6540500Y6375400D03*
G01*
X6845300Y7340600D03*
G01*
X5194300Y6794500D03*
G01*
X6515100Y6705600D03*
M02*
