G04 Layer: TopSolderMaskLayer*
G04 EasyEDA v6.5.42, 2024-04-11 20:26:02*
G04 7b6788a330d04100b72d44fa437f6f93,b9277fd2045942759ab1a28cc0c323af,10*
G04 Gerber Generator version 0.2*
G04 Scale: 100 percent, Rotated: No, Reflected: No *
G04 Dimensions in millimeters *
G04 leading zeros omitted , absolute positions ,4 integer and 5 decimal *
%FSLAX45Y45*%
%MOMM*%

%AMMACRO1*1,1,$1,$2,$3*1,1,$1,$4,$5*1,1,$1,0-$2,0-$3*1,1,$1,0-$4,0-$5*20,1,$1,$2,$3,$4,$5,0*20,1,$1,$4,$5,0-$2,0-$3,0*20,1,$1,0-$2,0-$3,0-$4,0-$5,0*20,1,$1,0-$4,0-$5,$2,$3,0*4,1,4,$2,$3,$4,$5,0-$2,0-$3,0-$4,0-$5,$2,$3,0*%
%AMMACRO2*1,1,$1,$2,$3*1,1,$1,$4,$5*20,1,$1,$2,$3,$4,$5,0*%
%ADD10MACRO1,0.1016X0.35X0.625X0.35X-0.625*%
%ADD11MACRO1,0.1016X-0.2828X-0.27X-0.2828X0.27*%
%ADD12MACRO1,0.1016X0.2828X-0.27X0.2828X0.27*%
%ADD13MACRO1,0.1016X0.395X0.27X0.395X-0.27*%
%ADD14MACRO1,0.1016X-0.395X0.27X-0.395X-0.27*%
%ADD15MACRO1,0.1016X-0.4X0.432X0.4X0.432*%
%ADD16MACRO1,0.1016X0.1753X1X0.1753X-1*%
%ADD17MACRO1,0.1016X-0.395X-0.27X-0.395X0.27*%
%ADD18MACRO1,0.1016X0.395X-0.27X0.395X0.27*%
%ADD19MACRO1,0.1016X-0.27X0.395X0.27X0.395*%
%ADD20MACRO1,0.1016X-0.27X-0.395X0.27X-0.395*%
%ADD21R,0.6416X0.8917*%
%ADD22MACRO1,0.1016X-0.27X0.2828X0.27X0.2828*%
%ADD23MACRO1,0.1016X-0.27X-0.2828X0.27X-0.2828*%
%ADD24MACRO1,0.1016X0.2828X0.27X0.2828X-0.27*%
%ADD25MACRO1,0.1016X-0.2828X0.27X-0.2828X-0.27*%
%ADD26R,0.6416X0.6673*%
%ADD27MACRO1,0.1016X0.4X1X0.4X-1*%
%ADD28MACRO1,0.1016X-1X0.4X1X0.4*%
%ADD29MACRO1,0.1016X0.4X0.45X0.4X-0.45*%
%ADD30MACRO1,0.1016X-0.7425X-0.864X-0.7425X0.864*%
%ADD31MACRO1,0.1016X0.7425X-0.864X0.7425X0.864*%
%ADD32MACRO1,0.1016X-0.864X0.7425X0.864X0.7425*%
%ADD33MACRO1,0.1016X-0.864X-0.7425X0.864X-0.7425*%
%ADD34MACRO1,0.1016X0.5X-3X-0.5X-3*%
%ADD35MACRO1,0.1016X0.9X-1.7X-0.9X-1.7*%
%ADD36MACRO1,0.1016X0.4X-0.432X-0.4X-0.432*%
%ADD37MACRO1,0.1016X0.5X-0.86X-0.5X-0.86*%
%ADD38C,1.7016*%
%ADD39C,1.6256*%
%ADD40C,2.6016*%
%ADD41MACRO2,0.37X-0.4349X0.4349X0.4349X-0.4349*%
%ADD42MACRO2,0.37X-0.4349X-0.4349X0.4349X0.4349*%
%ADD43MACRO1,0.1016X0.1644X0.3058X0.3058X0.1644*%
%ADD44MACRO1,0.1016X-0.1644X0.3058X0.3058X-0.1644*%
%ADD45MACRO1,0.1016X0X2.687X2.687X0*%
%ADD46MACRO1,0.1016X-1.6264X0X0X1.6264*%
%ADD47MACRO2,0.3816X-0.1838X0.1838X0.1838X-0.1838*%
%ADD48MACRO2,0.3816X-0.1838X-0.1838X0.1838X0.1838*%
%ADD49MACRO1,0.1016X-1X0.6X1X0.6*%
%ADD50O,0.38160960000000005X0.9015984*%
%ADD51R,1.2000X0.6500*%
%ADD52R,1.2000X0.4000*%
%ADD53O,2.1000212X1.200023*%
%ADD54O,1.9000215999999999X1.3000228*%
%ADD55R,0.9016X1.0016*%
%ADD56R,0.0150X1.0016*%

%LPD*%
D10*
G01*
X6115303Y5437200D03*
G01*
X6305294Y5437200D03*
G01*
X6210298Y5637199D03*
D11*
G01*
X6304382Y5270500D03*
D12*
G01*
X6217817Y5270500D03*
D13*
G01*
X4860394Y7327900D03*
D14*
G01*
X4969405Y7327900D03*
D13*
G01*
X5203294Y7099300D03*
D14*
G01*
X5312305Y7099300D03*
D15*
G01*
X3994299Y6083287D03*
G01*
X3854300Y6083287D03*
D16*
G01*
X5778500Y5638800D03*
G01*
X5707380Y5638800D03*
G01*
X5636260Y5638800D03*
G01*
X5567680Y5638800D03*
G01*
X5496560Y5638800D03*
G01*
X5427980Y5638800D03*
G01*
X5356860Y5638800D03*
G01*
X5288280Y5638800D03*
G01*
X5217160Y5638800D03*
G01*
X5148580Y5638800D03*
G01*
X5077460Y5638800D03*
G01*
X5006339Y5638800D03*
G01*
X4937760Y5638800D03*
G01*
X4866639Y5638800D03*
G01*
X4798060Y5638800D03*
G01*
X4726939Y5638800D03*
G01*
X4658360Y5638800D03*
G01*
X4587239Y5638800D03*
G01*
X4518660Y5638800D03*
G01*
X4447539Y5638800D03*
G01*
X4376419Y5638800D03*
G01*
X4307839Y5638800D03*
G01*
X4236719Y5638800D03*
G01*
X4168139Y5638800D03*
G01*
X4097019Y5638800D03*
G01*
X4028439Y5638800D03*
G01*
X3957319Y5638800D03*
G01*
X3888739Y5638800D03*
G01*
X3817619Y5638800D03*
G01*
X3746500Y5638800D03*
D11*
G01*
X6659982Y5930900D03*
D12*
G01*
X6573417Y5930900D03*
D17*
G01*
X5718705Y5816600D03*
D18*
G01*
X5609694Y5816600D03*
D13*
G01*
X5254094Y5854700D03*
D14*
G01*
X5363105Y5854700D03*
D19*
G01*
X5118100Y5889094D03*
D20*
G01*
X5118100Y5998105D03*
D19*
G01*
X4991100Y5889094D03*
D20*
G01*
X4991100Y5998105D03*
D19*
G01*
X3949700Y5825594D03*
D20*
G01*
X3949700Y5934605D03*
D19*
G01*
X3835400Y5825594D03*
D20*
G01*
X3835400Y5934605D03*
D21*
G01*
X4267200Y6353708D03*
G01*
X4267200Y6244691D03*
D13*
G01*
X3425294Y6426200D03*
D14*
G01*
X3534305Y6426200D03*
D17*
G01*
X3826405Y6248400D03*
D18*
G01*
X3717394Y6248400D03*
D17*
G01*
X4537605Y6019800D03*
D18*
G01*
X4428594Y6019800D03*
D13*
G01*
X4428594Y6477000D03*
D14*
G01*
X4537605Y6477000D03*
D13*
G01*
X3399894Y5854700D03*
D14*
G01*
X3508905Y5854700D03*
D13*
G01*
X3399894Y5740400D03*
D14*
G01*
X3508905Y5740400D03*
D13*
G01*
X3399894Y5626100D03*
D14*
G01*
X3508905Y5626100D03*
D13*
G01*
X3399894Y5511800D03*
D14*
G01*
X3508905Y5511800D03*
D17*
G01*
X3089805Y6400800D03*
D18*
G01*
X2980794Y6400800D03*
D17*
G01*
X3089805Y6515100D03*
D18*
G01*
X2980794Y6515100D03*
D13*
G01*
X2980794Y6286500D03*
D14*
G01*
X3089805Y6286500D03*
D17*
G01*
X5363105Y5981700D03*
D18*
G01*
X5254094Y5981700D03*
D13*
G01*
X5203294Y6985000D03*
D14*
G01*
X5312305Y6985000D03*
D17*
G01*
X4944005Y6654800D03*
D18*
G01*
X4834994Y6654800D03*
D17*
G01*
X4944005Y6769100D03*
D18*
G01*
X4834994Y6769100D03*
D17*
G01*
X4969405Y7200900D03*
D18*
G01*
X4860394Y7200900D03*
D17*
G01*
X5883805Y7061200D03*
D18*
G01*
X5774794Y7061200D03*
D21*
G01*
X5651500Y7052208D03*
G01*
X5651500Y6943191D03*
G01*
X7150100Y6087008D03*
G01*
X7150100Y5977991D03*
D13*
G01*
X7197194Y6845300D03*
D14*
G01*
X7306205Y6845300D03*
D19*
G01*
X6489700Y6397094D03*
D20*
G01*
X6489700Y6506105D03*
D17*
G01*
X6353705Y6667500D03*
D18*
G01*
X6244694Y6667500D03*
D13*
G01*
X6244694Y6794500D03*
D14*
G01*
X6353705Y6794500D03*
D13*
G01*
X6244694Y6908800D03*
D14*
G01*
X6353705Y6908800D03*
D13*
G01*
X2980794Y6629400D03*
D14*
G01*
X3089805Y6629400D03*
D22*
G01*
X4864100Y5913017D03*
D23*
G01*
X4864100Y5999582D03*
D22*
G01*
X4737100Y5913017D03*
D23*
G01*
X4737100Y5999582D03*
D22*
G01*
X4064000Y5836817D03*
D23*
G01*
X4064000Y5923382D03*
D24*
G01*
X1531517Y7264400D03*
D25*
G01*
X1618082Y7264400D03*
D11*
G01*
X1618082Y5321300D03*
D12*
G01*
X1531517Y5321300D03*
D11*
G01*
X4373982Y7404100D03*
D12*
G01*
X4287417Y7404100D03*
D24*
G01*
X4490617Y6883400D03*
D25*
G01*
X4577182Y6883400D03*
D26*
G01*
X4699000Y6266281D03*
G01*
X4699000Y6179718D03*
G01*
X3302000Y6799681D03*
G01*
X3302000Y6713118D03*
D11*
G01*
X3230982Y7086600D03*
D12*
G01*
X3144417Y7086600D03*
D11*
G01*
X3230982Y7264400D03*
D12*
G01*
X3144417Y7264400D03*
D11*
G01*
X3078582Y6858000D03*
D12*
G01*
X2992017Y6858000D03*
D24*
G01*
X3296817Y6578600D03*
D25*
G01*
X3383382Y6578600D03*
D22*
G01*
X5511800Y5938417D03*
D23*
G01*
X5511800Y6024982D03*
D11*
G01*
X7180682Y6438900D03*
D12*
G01*
X7094117Y6438900D03*
D11*
G01*
X6913982Y5880100D03*
D12*
G01*
X6827417Y5880100D03*
D11*
G01*
X6723482Y6654800D03*
D12*
G01*
X6636917Y6654800D03*
D11*
G01*
X7180682Y6553200D03*
D12*
G01*
X7094117Y6553200D03*
D24*
G01*
X7246517Y5270500D03*
D25*
G01*
X7333082Y5270500D03*
D24*
G01*
X6636917Y6781800D03*
D25*
G01*
X6723482Y6781800D03*
D11*
G01*
X6558382Y6057900D03*
D12*
G01*
X6471817Y6057900D03*
D22*
G01*
X5638800Y5938417D03*
D23*
G01*
X5638800Y6024982D03*
D24*
G01*
X7246517Y5499100D03*
D25*
G01*
X7333082Y5499100D03*
D24*
G01*
X2992017Y6743700D03*
D25*
G01*
X3078582Y6743700D03*
D17*
G01*
X6010805Y6934200D03*
D18*
G01*
X5901794Y6934200D03*
D11*
G01*
X4488282Y7264400D03*
D12*
G01*
X4401717Y7264400D03*
D27*
G01*
X6261100Y7076600D03*
G01*
X6261100Y7350599D03*
D28*
G01*
X3591399Y6096000D03*
G01*
X3317400Y6096000D03*
D29*
G01*
X5202798Y7232498D03*
G01*
X5312798Y7232498D03*
G01*
X5312799Y7372499D03*
G01*
X5202798Y7372499D03*
D30*
G01*
X2572250Y5283200D03*
D31*
G01*
X2253749Y5283200D03*
D32*
G01*
X7759700Y5276349D03*
D33*
G01*
X7759700Y5594850D03*
D34*
G01*
X7046696Y6958253D03*
G01*
X6846697Y6958253D03*
D35*
G01*
X7281900Y7189553D03*
G01*
X6611899Y7189553D03*
D15*
G01*
X4972199Y6908787D03*
G01*
X4832200Y6908787D03*
D36*
G01*
X4832200Y7061212D03*
G01*
X4972199Y7061212D03*
D37*
G01*
X6178302Y6121400D03*
G01*
X6343896Y6121400D03*
D38*
G01*
X1168400Y5907989D03*
G01*
X1338402Y5653989D03*
G01*
X1168400Y6918985D03*
G01*
X1338402Y6664985D03*
D39*
G01*
X2311400Y6730974D03*
G01*
X2565400Y6603974D03*
G01*
X2311400Y6476974D03*
G01*
X2565400Y6349974D03*
G01*
X2311400Y6222974D03*
G01*
X2565400Y6095974D03*
G01*
X2311400Y5968974D03*
G01*
X2565400Y5841974D03*
D40*
G01*
X1981403Y7074001D03*
G01*
X1981377Y5498998D03*
D41*
G01*
X3818229Y7378369D03*
G01*
X3782872Y7343013D03*
G01*
X3747541Y7307656D03*
G01*
X3712159Y7272299D03*
G01*
X3676827Y7236942D03*
G01*
X3641445Y7201585D03*
G01*
X3606114Y7166228D03*
G01*
X3570757Y7130872D03*
G01*
X3535400Y7095540D03*
G01*
X3500043Y7060158D03*
G01*
X3464687Y7024827D03*
G01*
X3429330Y6989444D03*
D42*
G01*
X3429330Y6777329D03*
G01*
X3464687Y6741972D03*
G01*
X3500043Y6706641D03*
G01*
X3535400Y6671259D03*
G01*
X3570757Y6635927D03*
G01*
X3606114Y6600545D03*
G01*
X3641445Y6565214D03*
G01*
X3676827Y6529857D03*
G01*
X3712159Y6494500D03*
G01*
X3747541Y6459143D03*
G01*
X3782872Y6423787D03*
G01*
X3818229Y6388430D03*
D41*
G01*
X4030370Y6388430D03*
G01*
X4065727Y6423787D03*
G01*
X4101058Y6459143D03*
G01*
X4136440Y6494500D03*
G01*
X4171772Y6529857D03*
G01*
X4207154Y6565214D03*
G01*
X4242485Y6600545D03*
G01*
X4277842Y6635927D03*
G01*
X4313199Y6671259D03*
G01*
X4348556Y6706641D03*
G01*
X4383912Y6741972D03*
G01*
X4419269Y6777329D03*
D42*
G01*
X4419269Y6989444D03*
G01*
X4383912Y7024827D03*
G01*
X4348556Y7060158D03*
G01*
X4313199Y7095540D03*
G01*
X4277842Y7130872D03*
G01*
X4242485Y7166228D03*
G01*
X4207154Y7201585D03*
G01*
X4171772Y7236942D03*
G01*
X4136440Y7272299D03*
G01*
X4101058Y7307656D03*
G01*
X4065727Y7343013D03*
G01*
X4030370Y7378369D03*
D43*
G01*
X5061748Y6452360D03*
G01*
X5090019Y6424091D03*
G01*
X5118307Y6395803D03*
G01*
X5146594Y6367515D03*
G01*
X5174882Y6339227D03*
G01*
X5203169Y6310939D03*
G01*
X5231439Y6282669D03*
G01*
X5259727Y6254382D03*
G01*
X5288015Y6226094D03*
G01*
X5316303Y6197807D03*
G01*
X5344591Y6169519D03*
G01*
X5372860Y6141248D03*
D44*
G01*
X5472939Y6141248D03*
G01*
X5501208Y6169519D03*
G01*
X5529496Y6197807D03*
G01*
X5557784Y6226094D03*
G01*
X5586072Y6254382D03*
G01*
X5614360Y6282669D03*
G01*
X5642630Y6310939D03*
G01*
X5670917Y6339227D03*
G01*
X5699205Y6367515D03*
G01*
X5727492Y6395803D03*
G01*
X5755780Y6424091D03*
G01*
X5784051Y6452360D03*
D43*
G01*
X5784048Y6552436D03*
G01*
X5755779Y6580706D03*
G01*
X5727491Y6608994D03*
G01*
X5699203Y6637282D03*
G01*
X5670915Y6665570D03*
G01*
X5642627Y6693857D03*
G01*
X5614357Y6722127D03*
G01*
X5586070Y6750415D03*
G01*
X5557782Y6778703D03*
G01*
X5529494Y6806991D03*
G01*
X5501206Y6835279D03*
G01*
X5472936Y6863548D03*
D44*
G01*
X5372863Y6863548D03*
G01*
X5344593Y6835279D03*
G01*
X5316305Y6806991D03*
G01*
X5288017Y6778703D03*
G01*
X5259729Y6750415D03*
G01*
X5231442Y6722127D03*
G01*
X5203172Y6693857D03*
G01*
X5174884Y6665570D03*
G01*
X5146596Y6637282D03*
G01*
X5118308Y6608994D03*
G01*
X5090020Y6580706D03*
G01*
X5061751Y6552436D03*
D45*
G01*
X5422900Y6502400D03*
D46*
G01*
X6819900Y6261100D03*
D47*
G01*
X6611315Y6328283D03*
G01*
X6646671Y6363639D03*
G01*
X6682028Y6398971D03*
G01*
X6717385Y6434353D03*
G01*
X6752717Y6469684D03*
D48*
G01*
X6887083Y6469684D03*
G01*
X6922439Y6434327D03*
G01*
X6957796Y6398971D03*
G01*
X6993153Y6363614D03*
G01*
X7028484Y6328283D03*
D47*
G01*
X7028484Y6193916D03*
G01*
X6993153Y6158585D03*
G01*
X6957796Y6123203D03*
G01*
X6922439Y6087872D03*
G01*
X6887083Y6052515D03*
D48*
G01*
X6752717Y6052515D03*
G01*
X6717385Y6087846D03*
G01*
X6682028Y6123203D03*
G01*
X6646671Y6158560D03*
G01*
X6611315Y6193916D03*
D49*
G01*
X6261100Y6438900D03*
D50*
G01*
X6161024Y6558787D03*
G01*
X6211061Y6558787D03*
G01*
X6261100Y6558787D03*
G01*
X6311138Y6558787D03*
G01*
X6361175Y6558787D03*
G01*
X6361175Y6319012D03*
G01*
X6311138Y6319012D03*
G01*
X6261100Y6319012D03*
G01*
X6211061Y6319012D03*
G01*
X6161024Y6319012D03*
D51*
G01*
X7306284Y5953785D03*
G01*
X7306284Y6033795D03*
D52*
G01*
X7306284Y6098794D03*
G01*
X7306284Y6148806D03*
G01*
X7306284Y6198793D03*
G01*
X7306284Y6248780D03*
G01*
X7306284Y6298793D03*
G01*
X7306284Y6348780D03*
G01*
X7306284Y6398793D03*
G01*
X7306284Y6448805D03*
D51*
G01*
X7306284Y6513804D03*
G01*
X7306284Y6593789D03*
D53*
G01*
X7361300Y5841288D03*
G01*
X7361300Y6706285D03*
D54*
G01*
X7781315Y5841288D03*
G01*
X7781315Y6706285D03*
D55*
G01*
X4538090Y6318402D03*
G01*
X4428109Y6318402D03*
G01*
X4428109Y6178397D03*
G01*
X4538090Y6178397D03*
G36*
X5918200Y6807200D02*
G01*
X6007100Y6807200D01*
X6007100Y6718300D01*
X5918200Y6718300D01*
G37*
G36*
X5918200Y6553200D02*
G01*
X6007100Y6553200D01*
X6007100Y6464300D01*
X5918200Y6464300D01*
G37*
G36*
X5918200Y6299200D02*
G01*
X6007100Y6299200D01*
X6007100Y6210300D01*
X5918200Y6210300D01*
G37*
G36*
X5918200Y5791200D02*
G01*
X6007100Y5791200D01*
X6007100Y5702300D01*
X5918200Y5702300D01*
G37*
G36*
X5918200Y6045200D02*
G01*
X6007100Y6045200D01*
X6007100Y5956300D01*
X5918200Y5956300D01*
G37*
G36*
X4279900Y5930900D02*
G01*
X4368800Y5930900D01*
X4368800Y5842000D01*
X4279900Y5842000D01*
G37*
G36*
X4406900Y5930900D02*
G01*
X4495800Y5930900D01*
X4495800Y5842000D01*
X4406900Y5842000D01*
G37*
M02*
