G04 Layer: BottomLayer*
G04 EasyEDA v6.5.42, 2024-05-05 17:52:58*
G04 9b82af6324414f3ea1fbde0525bdcf27,b9277fd2045942759ab1a28cc0c323af,10*
G04 Gerber Generator version 0.2*
G04 Scale: 100 percent, Rotated: No, Reflected: No *
G04 Dimensions in millimeters *
G04 leading zeros omitted , absolute positions ,4 integer and 5 decimal *
%FSLAX45Y45*%
%MOMM*%

%AMMACRO1*21,1,$1,$2,0,0,$3*%
%ADD10C,0.2540*%
%ADD11C,0.1250*%
%ADD12C,0.2500*%
%ADD13MACRO1,0.8X0.65X0.0000*%
%ADD14MACRO1,0.8001X0.6502X0.0000*%
%ADD15MACRO1,2.8001X1X0.0000*%
%ADD16MACRO1,2.7998X1X0.0000*%
%ADD17R,1.6000X1.6000*%
%ADD18C,1.6000*%
%ADD19C,1.8000*%
%ADD20C,2.5000*%
%ADD21O,1.9999959999999999X1.0999978000000001*%
%ADD22O,1.7999964X1.1999976*%
%ADD23C,0.6096*%
%ADD24C,0.4500*%

%LPD*%
G36*
X5422900Y6201816D02*
G01*
X5418988Y6202578D01*
X5415737Y6204762D01*
X5125262Y6495237D01*
X5123078Y6498488D01*
X5122316Y6502400D01*
X5123078Y6506311D01*
X5125262Y6509562D01*
X5415737Y6800037D01*
X5418988Y6802221D01*
X5422900Y6802983D01*
X5426811Y6802221D01*
X5430062Y6800037D01*
X5720537Y6509562D01*
X5722721Y6506311D01*
X5723483Y6502400D01*
X5722721Y6498488D01*
X5720537Y6495237D01*
X5430062Y6204762D01*
X5426811Y6202578D01*
G37*

%LPD*%
D10*
X5156200Y6781800D02*
G01*
X5181600Y6781800D01*
X5384800Y6985000D01*
X5435600Y6985000D01*
X5575300Y6845300D01*
X6020815Y6845300D01*
X6109715Y6756400D01*
X6642100Y6756400D01*
X6979920Y6375400D02*
G01*
X6764020Y6159500D01*
X6629400Y6159500D01*
X6979920Y6375400D02*
G01*
X6979920Y5783579D01*
X7348981Y5414518D01*
X7504938Y5414518D01*
X5867400Y6680200D02*
G01*
X5867400Y6362700D01*
X6527800Y5702300D01*
X6527800Y5524500D01*
X6816852Y5235447D01*
X6868668Y5235447D01*
X7239000Y5600700D02*
G01*
X7124700Y5715000D01*
X7124700Y6438900D01*
X6946900Y5511800D02*
G01*
X6868591Y5590108D01*
X6868591Y5635574D01*
X7504938Y5414518D02*
G01*
X7504938Y5329681D01*
X5016500Y6388100D02*
G01*
X5207000Y6197600D01*
X5295900Y6197600D01*
X5346700Y6146800D01*
X5448300Y6146800D01*
X5486400Y6184900D01*
X5626100Y6184900D01*
X6108700Y5702300D01*
X6108700Y5664200D01*
X5270500Y6121400D02*
G01*
X5219700Y6121400D01*
X5067300Y6273800D01*
X4978400Y6273800D01*
X4488281Y6763918D01*
X4488281Y7105827D01*
X4597400Y5842000D02*
G01*
X4940300Y6184900D01*
X5003800Y6184900D01*
X5219700Y5969000D01*
X5422900Y5969000D01*
X5537200Y6083300D01*
X2832100Y5651500D02*
G01*
X2828874Y5648274D01*
X2643708Y5648274D01*
X3009900Y5651500D02*
G01*
X3013125Y5648274D01*
X3223691Y5648274D01*
X6286500Y5803900D02*
G01*
X6288608Y5801791D01*
X6288608Y5635574D01*
X4965700Y6134100D02*
G01*
X4254500Y5422900D01*
X3492754Y5422900D01*
X3318002Y5248147D01*
X3223768Y5248147D01*
X6868591Y5235575D02*
G01*
X6288608Y5235575D01*
X3223691Y5248275D02*
G01*
X2643708Y5248275D01*
X7340600Y5600700D02*
G01*
X7594600Y5600700D01*
X7658912Y5536387D01*
X7658912Y5414594D01*
X7361298Y5841286D02*
G01*
X7781317Y5841286D01*
X7781317Y6706288D02*
G01*
X7781317Y5841286D01*
X7361298Y6706288D02*
G01*
X7781317Y6706288D01*
X4521200Y5803900D02*
G01*
X4521200Y5918200D01*
X4826000Y6223000D01*
X5041900Y6223000D01*
X5232400Y6032500D01*
X5397500Y6032500D01*
X5499100Y6134100D01*
X5593206Y6134100D01*
X5638800Y6088506D01*
X1079500Y6350000D02*
G01*
X1054100Y6375400D01*
X1054100Y6813003D01*
X1190104Y6949008D01*
X1079500Y6350000D02*
G01*
X1054100Y6324600D01*
X1054100Y5759996D01*
X1190104Y5623991D01*
D11*
X2569209Y6096507D02*
G01*
X2730500Y6257797D01*
X2730500Y6680200D01*
X2819400Y6769100D01*
X2895600Y6769100D01*
X2832100Y6667500D02*
G01*
X2832100Y6388100D01*
X3606800Y6883400D02*
G01*
X3289300Y6883400D01*
X3060700Y7112000D01*
X3060700Y7112000D02*
G01*
X3060700Y7264400D01*
D12*
X1778000Y7213600D02*
G01*
X2882900Y7213600D01*
X3327400Y6769100D01*
X3695700Y6769100D01*
X3924300Y6540500D01*
X1778000Y5283200D02*
G01*
X1840992Y5346700D01*
X2082800Y5346700D01*
X2209800Y5473700D01*
X2806700Y5473700D01*
X2921000Y5588000D01*
X2921000Y5956300D01*
X3276600Y6311900D01*
X4025900Y6311900D01*
D13*
G01*
X7658907Y5414594D03*
G01*
X7504907Y5414594D03*
D14*
G01*
X7504976Y5329600D03*
G01*
X7658900Y5329600D03*
D15*
G01*
X6868591Y5635586D03*
D16*
G01*
X6288595Y5635586D03*
D15*
G01*
X6868591Y5235587D03*
D16*
G01*
X6288595Y5235587D03*
D15*
G01*
X3223691Y5648286D03*
D16*
G01*
X2643695Y5648286D03*
D15*
G01*
X3223691Y5248287D03*
D16*
G01*
X2643695Y5248287D03*
D17*
G01*
X2315108Y6731380D03*
D18*
G01*
X2569083Y6604380D03*
G01*
X2315083Y6477380D03*
G01*
X2569083Y6350380D03*
G01*
X2315083Y6223380D03*
G01*
X2569083Y6096380D03*
G01*
X2315083Y5969380D03*
G01*
X2569083Y5842380D03*
D19*
G01*
X1190117Y6948881D03*
G01*
X1190117Y6694881D03*
G01*
X1190117Y5877864D03*
G01*
X1190117Y5623864D03*
D20*
G01*
X1985111Y7060869D03*
G01*
X1985111Y5511876D03*
D21*
G01*
X7361300Y5841288D03*
G01*
X7361300Y6706285D03*
D22*
G01*
X7781315Y5841288D03*
G01*
X7781315Y6706285D03*
D23*
G01*
X5422900Y6573088D03*
G01*
X5493613Y6502374D03*
G01*
X5352186Y6502374D03*
G01*
X5422900Y6431661D03*
D24*
G01*
X7239000Y5600700D03*
G01*
X7340600Y5600700D03*
G01*
X5537200Y6083300D03*
G01*
X5638800Y6088506D03*
G01*
X5549900Y7061200D03*
G01*
X3619500Y7353300D03*
G01*
X3467100Y7162800D03*
G01*
X3371291Y6680200D03*
G01*
X6731000Y6908800D03*
G01*
X4250029Y6451600D03*
G01*
X4622800Y6337300D03*
G01*
X4648200Y6451600D03*
G01*
X4902200Y6565900D03*
G01*
X3317392Y5937199D03*
G01*
X3606800Y6883400D03*
G01*
X3501390Y6506210D03*
G01*
X4140200Y7442200D03*
G01*
X4406900Y7175500D03*
G01*
X5207000Y6896100D03*
G01*
X7215530Y5953785D03*
G01*
X7785100Y5422900D03*
G01*
X4162475Y6248984D03*
G01*
X3937000Y6248400D03*
G01*
X1079500Y6350000D03*
G01*
X4287443Y6050330D03*
G01*
X4025900Y6311900D03*
G01*
X3924300Y6540500D03*
G01*
X6946900Y5511800D03*
G01*
X5867400Y6680200D03*
G01*
X5156200Y6781800D03*
G01*
X5411266Y6925259D03*
G01*
X2413000Y5270500D03*
G01*
X6642100Y6756400D03*
G01*
X4965700Y6134100D03*
G01*
X3009900Y5651500D03*
G01*
X3683000Y5638800D03*
G01*
X6286500Y5803900D03*
G01*
X2832100Y5651500D03*
G01*
X5854700Y5676900D03*
G01*
X5321300Y5499100D03*
G01*
X4521200Y5803900D03*
G01*
X4597400Y5842000D03*
G01*
X6134100Y6604000D03*
G01*
X4673600Y6007100D03*
G01*
X5056733Y5998108D03*
G01*
X5270500Y6121400D03*
G01*
X4488281Y7105827D03*
G01*
X4927600Y5956300D03*
G01*
X6197600Y5765800D03*
G01*
X5016500Y6388100D03*
G01*
X6108700Y5664200D03*
G01*
X4523130Y5499100D03*
G01*
X5803900Y5930900D03*
G01*
X5003800Y6718300D03*
G01*
X6235700Y6121400D03*
G01*
X7186396Y6593789D03*
G01*
X7124700Y6438900D03*
G01*
X6629400Y6159500D03*
G01*
X6979920Y6375400D03*
G01*
X3467100Y7429500D03*
G01*
X3060700Y7264400D03*
G01*
X2895600Y6769100D03*
G01*
X2832100Y6667500D03*
G01*
X2832100Y6388100D03*
G01*
X3060700Y7112000D03*
G01*
X1778000Y7213600D03*
G01*
X1778000Y5283200D03*
G01*
X6426200Y6553200D03*
M02*
