G04 Layer: TopPasteMaskLayer*
G04 EasyEDA v6.5.42, 2024-05-05 03:13:37*
G04 7250d8c6975e4c4d8f914fcb0e692275,b9277fd2045942759ab1a28cc0c323af,10*
G04 Gerber Generator version 0.2*
G04 Scale: 100 percent, Rotated: No, Reflected: No *
G04 Dimensions in millimeters *
G04 leading zeros omitted , absolute positions ,4 integer and 5 decimal *
%FSLAX45Y45*%
%MOMM*%

%AMMACRO1*21,1,$1,$2,0,0,$3*%
%AMMACRO2*1,1,$1,$2,$3*1,1,$1,$4,$5*20,1,$1,$2,$3,$4,$5,0*%
%ADD10MACRO1,0.6223X1.1049X0.0000*%
%ADD11R,0.9500X1.1500*%
%ADD12R,1.2500X0.7000*%
%ADD13R,0.4900X1.1570*%
%ADD14R,0.4900X1.1750*%
%ADD15R,0.3505X1.6002*%
%ADD16R,0.7000X1.2500*%
%ADD17R,0.8000X2.0000*%
%ADD18R,2.0000X0.8000*%
%ADD19R,0.8000X0.9000*%
%ADD20R,1.0000X6.0000*%
%ADD21R,1.8000X3.4000*%
%ADD22MACRO2,0.27X-0.4349X0.4349X0.4349X-0.4349*%
%ADD23MACRO2,0.27X-0.4349X-0.4349X0.4349X0.4349*%
%ADD24C,0.0108*%

%LPD*%
G36*
X3976928Y6126022D02*
G01*
X3949547Y6096660D01*
X3949547Y6069025D01*
X3976928Y6039612D01*
X4027271Y6039612D01*
X4033672Y6046012D01*
X4033672Y6119622D01*
X4027271Y6126022D01*
G37*
G36*
X3820210Y6124905D02*
G01*
X3813810Y6118504D01*
X3813810Y6044895D01*
X3820210Y6038494D01*
X3870553Y6038494D01*
X3897934Y6067856D01*
X3897934Y6095542D01*
X3870553Y6124905D01*
G37*
G36*
X7000087Y6018987D02*
G01*
X6996074Y6015024D01*
X6996074Y5964936D01*
X7000087Y5960922D01*
X7046112Y5960922D01*
X7050125Y5964936D01*
X7050125Y6015024D01*
X7046112Y6018987D01*
G37*
G36*
X7000087Y6104077D02*
G01*
X6996074Y6100064D01*
X6996074Y6049975D01*
X7000087Y6046012D01*
X7046112Y6046012D01*
X7050125Y6049975D01*
X7050125Y6100064D01*
X7046112Y6104077D01*
G37*
G36*
X5996686Y6961225D02*
G01*
X5969812Y6942836D01*
X5969812Y6925564D01*
X5996686Y6907174D01*
X6046317Y6907174D01*
X6050330Y6911187D01*
X6050330Y6957212D01*
X6046317Y6961225D01*
G37*
G36*
X5866282Y6961225D02*
G01*
X5862269Y6957212D01*
X5862269Y6911187D01*
X5866282Y6907174D01*
X5915914Y6907174D01*
X5942787Y6925564D01*
X5942787Y6942836D01*
X5915914Y6961225D01*
G37*
G36*
X4786579Y6952488D02*
G01*
X4780178Y6946087D01*
X4780178Y6872478D01*
X4786579Y6866077D01*
X4836922Y6866077D01*
X4864354Y6895439D01*
X4864354Y6923074D01*
X4836922Y6952488D01*
G37*
G36*
X4943297Y6953605D02*
G01*
X4915916Y6924243D01*
X4915916Y6896557D01*
X4943297Y6867194D01*
X4993640Y6867194D01*
X5000040Y6873595D01*
X5000040Y6947204D01*
X4993640Y6953605D01*
G37*
G36*
X6168136Y6084925D02*
G01*
X6164122Y6080912D01*
X6164122Y6034887D01*
X6168136Y6030874D01*
X6218174Y6030874D01*
X6222187Y6034887D01*
X6222187Y6080912D01*
X6218174Y6084925D01*
G37*
G36*
X6253226Y6084925D02*
G01*
X6249212Y6080912D01*
X6249212Y6034887D01*
X6253226Y6030874D01*
X6303264Y6030874D01*
X6307277Y6034887D01*
X6307277Y6080912D01*
X6303264Y6084925D01*
G37*
G36*
X6873595Y6110478D02*
G01*
X6868617Y6105499D01*
X6868617Y6057493D01*
X6873595Y6050483D01*
X6918604Y6050483D01*
X6923582Y6057493D01*
X6923582Y6105499D01*
X6918604Y6110478D01*
G37*
G36*
X6873595Y6014516D02*
G01*
X6868617Y6007506D01*
X6868617Y5959500D01*
X6873595Y5954522D01*
X6918604Y5954522D01*
X6923582Y5959500D01*
X6923582Y6007506D01*
X6918604Y6014516D01*
G37*
G36*
X6485636Y6313525D02*
G01*
X6481622Y6309512D01*
X6481622Y6263487D01*
X6485636Y6259474D01*
X6535674Y6259474D01*
X6539687Y6263487D01*
X6539687Y6309512D01*
X6535674Y6313525D01*
G37*
G36*
X6570725Y6313525D02*
G01*
X6566712Y6309512D01*
X6566712Y6263487D01*
X6570725Y6259474D01*
X6620764Y6259474D01*
X6624777Y6263487D01*
X6624777Y6309512D01*
X6620764Y6313525D01*
G37*
G36*
X6278626Y5297525D02*
G01*
X6274612Y5293512D01*
X6274612Y5247487D01*
X6278626Y5243474D01*
X6328664Y5243474D01*
X6332677Y5247487D01*
X6332677Y5293512D01*
X6328664Y5297525D01*
G37*
G36*
X6193536Y5297525D02*
G01*
X6189522Y5293512D01*
X6189522Y5247487D01*
X6193536Y5243474D01*
X6243574Y5243474D01*
X6247587Y5247487D01*
X6247587Y5293512D01*
X6243574Y5297525D01*
G37*
G36*
X5019395Y7355078D02*
G01*
X5014417Y7350099D01*
X5014417Y7302093D01*
X5019395Y7295083D01*
X5064404Y7295083D01*
X5069382Y7302093D01*
X5069382Y7350099D01*
X5064404Y7355078D01*
G37*
G36*
X5019395Y7259116D02*
G01*
X5014417Y7252106D01*
X5014417Y7204100D01*
X5019395Y7199122D01*
X5064404Y7199122D01*
X5069382Y7204100D01*
X5069382Y7252106D01*
X5064404Y7259116D01*
G37*
G36*
X5282793Y7126782D02*
G01*
X5275783Y7121804D01*
X5275783Y7076795D01*
X5282793Y7071817D01*
X5330799Y7071817D01*
X5335778Y7076795D01*
X5335778Y7121804D01*
X5330799Y7126782D01*
G37*
G36*
X5184800Y7126782D02*
G01*
X5179822Y7121804D01*
X5179822Y7076795D01*
X5184800Y7071817D01*
X5232806Y7071817D01*
X5239816Y7076795D01*
X5239816Y7121804D01*
X5232806Y7126782D01*
G37*
G36*
X5591200Y5844082D02*
G01*
X5586222Y5839104D01*
X5586222Y5794095D01*
X5591200Y5789117D01*
X5639206Y5789117D01*
X5646216Y5794095D01*
X5646216Y5839104D01*
X5639206Y5844082D01*
G37*
G36*
X5689193Y5844082D02*
G01*
X5682183Y5839104D01*
X5682183Y5794095D01*
X5689193Y5789117D01*
X5737199Y5789117D01*
X5742178Y5794095D01*
X5742178Y5839104D01*
X5737199Y5844082D01*
G37*
G36*
X5333593Y5882182D02*
G01*
X5326583Y5877204D01*
X5326583Y5832195D01*
X5333593Y5827217D01*
X5381599Y5827217D01*
X5386578Y5832195D01*
X5386578Y5877204D01*
X5381599Y5882182D01*
G37*
G36*
X5235600Y5882182D02*
G01*
X5230622Y5877204D01*
X5230622Y5832195D01*
X5235600Y5827217D01*
X5283606Y5827217D01*
X5290616Y5832195D01*
X5290616Y5877204D01*
X5283606Y5882182D01*
G37*
G36*
X5095595Y6021578D02*
G01*
X5090617Y6016599D01*
X5090617Y5968593D01*
X5095595Y5961583D01*
X5140604Y5961583D01*
X5145582Y5968593D01*
X5145582Y6016599D01*
X5140604Y6021578D01*
G37*
G36*
X5095595Y5925616D02*
G01*
X5090617Y5918606D01*
X5090617Y5870600D01*
X5095595Y5865622D01*
X5140604Y5865622D01*
X5145582Y5870600D01*
X5145582Y5918606D01*
X5140604Y5925616D01*
G37*
G36*
X4968595Y6021578D02*
G01*
X4963617Y6016599D01*
X4963617Y5968593D01*
X4968595Y5961583D01*
X5013604Y5961583D01*
X5018582Y5968593D01*
X5018582Y6016599D01*
X5013604Y6021578D01*
G37*
G36*
X4968595Y5925616D02*
G01*
X4963617Y5918606D01*
X4963617Y5870600D01*
X4968595Y5865622D01*
X5013604Y5865622D01*
X5018582Y5870600D01*
X5018582Y5918606D01*
X5013604Y5925616D01*
G37*
G36*
X3927195Y5958078D02*
G01*
X3922217Y5953099D01*
X3922217Y5905093D01*
X3927195Y5898083D01*
X3972204Y5898083D01*
X3977182Y5905093D01*
X3977182Y5953099D01*
X3972204Y5958078D01*
G37*
G36*
X3927195Y5862116D02*
G01*
X3922217Y5855106D01*
X3922217Y5807100D01*
X3927195Y5802122D01*
X3972204Y5802122D01*
X3977182Y5807100D01*
X3977182Y5855106D01*
X3972204Y5862116D01*
G37*
G36*
X3812895Y5958078D02*
G01*
X3807917Y5953099D01*
X3807917Y5905093D01*
X3812895Y5898083D01*
X3857904Y5898083D01*
X3862882Y5905093D01*
X3862882Y5953099D01*
X3857904Y5958078D01*
G37*
G36*
X3812895Y5862116D02*
G01*
X3807917Y5855106D01*
X3807917Y5807100D01*
X3812895Y5802122D01*
X3857904Y5802122D01*
X3862882Y5807100D01*
X3862882Y5855106D01*
X3857904Y5862116D01*
G37*
G36*
X4244695Y6281216D02*
G01*
X4239717Y6274206D01*
X4239717Y6226200D01*
X4244695Y6221222D01*
X4289704Y6221222D01*
X4294682Y6226200D01*
X4294682Y6274206D01*
X4289704Y6281216D01*
G37*
G36*
X4244695Y6377178D02*
G01*
X4239717Y6372199D01*
X4239717Y6324193D01*
X4244695Y6317183D01*
X4289704Y6317183D01*
X4294682Y6324193D01*
X4294682Y6372199D01*
X4289704Y6377178D01*
G37*
G36*
X3504793Y6453682D02*
G01*
X3497783Y6448704D01*
X3497783Y6403695D01*
X3504793Y6398717D01*
X3552799Y6398717D01*
X3557778Y6403695D01*
X3557778Y6448704D01*
X3552799Y6453682D01*
G37*
G36*
X3406800Y6453682D02*
G01*
X3401822Y6448704D01*
X3401822Y6403695D01*
X3406800Y6398717D01*
X3454806Y6398717D01*
X3461816Y6403695D01*
X3461816Y6448704D01*
X3454806Y6453682D01*
G37*
G36*
X3698900Y6275882D02*
G01*
X3693922Y6270904D01*
X3693922Y6225895D01*
X3698900Y6220917D01*
X3746906Y6220917D01*
X3753916Y6225895D01*
X3753916Y6270904D01*
X3746906Y6275882D01*
G37*
G36*
X3796893Y6275882D02*
G01*
X3789883Y6270904D01*
X3789883Y6225895D01*
X3796893Y6220917D01*
X3844899Y6220917D01*
X3849878Y6225895D01*
X3849878Y6270904D01*
X3844899Y6275882D01*
G37*
G36*
X4410100Y6047282D02*
G01*
X4405122Y6042304D01*
X4405122Y5997295D01*
X4410100Y5992317D01*
X4458106Y5992317D01*
X4465116Y5997295D01*
X4465116Y6042304D01*
X4458106Y6047282D01*
G37*
G36*
X4508093Y6047282D02*
G01*
X4501083Y6042304D01*
X4501083Y5997295D01*
X4508093Y5992317D01*
X4556099Y5992317D01*
X4561078Y5997295D01*
X4561078Y6042304D01*
X4556099Y6047282D01*
G37*
G36*
X4508093Y6504482D02*
G01*
X4501083Y6499504D01*
X4501083Y6454495D01*
X4508093Y6449517D01*
X4556099Y6449517D01*
X4561078Y6454495D01*
X4561078Y6499504D01*
X4556099Y6504482D01*
G37*
G36*
X4410100Y6504482D02*
G01*
X4405122Y6499504D01*
X4405122Y6454495D01*
X4410100Y6449517D01*
X4458106Y6449517D01*
X4465116Y6454495D01*
X4465116Y6499504D01*
X4458106Y6504482D01*
G37*
G36*
X3479393Y5882182D02*
G01*
X3472383Y5877204D01*
X3472383Y5832195D01*
X3479393Y5827217D01*
X3527399Y5827217D01*
X3532378Y5832195D01*
X3532378Y5877204D01*
X3527399Y5882182D01*
G37*
G36*
X3381400Y5882182D02*
G01*
X3376422Y5877204D01*
X3376422Y5832195D01*
X3381400Y5827217D01*
X3429406Y5827217D01*
X3436416Y5832195D01*
X3436416Y5877204D01*
X3429406Y5882182D01*
G37*
G36*
X3479393Y5767882D02*
G01*
X3472383Y5762904D01*
X3472383Y5717895D01*
X3479393Y5712917D01*
X3527399Y5712917D01*
X3532378Y5717895D01*
X3532378Y5762904D01*
X3527399Y5767882D01*
G37*
G36*
X3381400Y5767882D02*
G01*
X3376422Y5762904D01*
X3376422Y5717895D01*
X3381400Y5712917D01*
X3429406Y5712917D01*
X3436416Y5717895D01*
X3436416Y5762904D01*
X3429406Y5767882D01*
G37*
G36*
X3479393Y5653582D02*
G01*
X3472383Y5648604D01*
X3472383Y5603595D01*
X3479393Y5598617D01*
X3527399Y5598617D01*
X3532378Y5603595D01*
X3532378Y5648604D01*
X3527399Y5653582D01*
G37*
G36*
X3381400Y5653582D02*
G01*
X3376422Y5648604D01*
X3376422Y5603595D01*
X3381400Y5598617D01*
X3429406Y5598617D01*
X3436416Y5603595D01*
X3436416Y5648604D01*
X3429406Y5653582D01*
G37*
G36*
X3479393Y5539282D02*
G01*
X3472383Y5534304D01*
X3472383Y5489295D01*
X3479393Y5484317D01*
X3527399Y5484317D01*
X3532378Y5489295D01*
X3532378Y5534304D01*
X3527399Y5539282D01*
G37*
G36*
X3381400Y5539282D02*
G01*
X3376422Y5534304D01*
X3376422Y5489295D01*
X3381400Y5484317D01*
X3429406Y5484317D01*
X3436416Y5489295D01*
X3436416Y5534304D01*
X3429406Y5539282D01*
G37*
G36*
X3060293Y6631482D02*
G01*
X3053283Y6626504D01*
X3053283Y6581495D01*
X3060293Y6576517D01*
X3108299Y6576517D01*
X3113278Y6581495D01*
X3113278Y6626504D01*
X3108299Y6631482D01*
G37*
G36*
X2962300Y6631482D02*
G01*
X2957322Y6626504D01*
X2957322Y6581495D01*
X2962300Y6576517D01*
X3010306Y6576517D01*
X3017316Y6581495D01*
X3017316Y6626504D01*
X3010306Y6631482D01*
G37*
G36*
X3060293Y6872782D02*
G01*
X3053283Y6867804D01*
X3053283Y6822795D01*
X3060293Y6817817D01*
X3108299Y6817817D01*
X3113278Y6822795D01*
X3113278Y6867804D01*
X3108299Y6872782D01*
G37*
G36*
X2962300Y6872782D02*
G01*
X2957322Y6867804D01*
X2957322Y6822795D01*
X2962300Y6817817D01*
X3010306Y6817817D01*
X3017316Y6822795D01*
X3017316Y6867804D01*
X3010306Y6872782D01*
G37*
G36*
X3060293Y6504482D02*
G01*
X3053283Y6499504D01*
X3053283Y6454495D01*
X3060293Y6449517D01*
X3108299Y6449517D01*
X3113278Y6454495D01*
X3113278Y6499504D01*
X3108299Y6504482D01*
G37*
G36*
X2962300Y6504482D02*
G01*
X2957322Y6499504D01*
X2957322Y6454495D01*
X2962300Y6449517D01*
X3010306Y6449517D01*
X3017316Y6454495D01*
X3017316Y6499504D01*
X3010306Y6504482D01*
G37*
G36*
X5235600Y6009182D02*
G01*
X5230622Y6004204D01*
X5230622Y5959195D01*
X5235600Y5954217D01*
X5283606Y5954217D01*
X5290616Y5959195D01*
X5290616Y6004204D01*
X5283606Y6009182D01*
G37*
G36*
X5333593Y6009182D02*
G01*
X5326583Y6004204D01*
X5326583Y5959195D01*
X5333593Y5954217D01*
X5381599Y5954217D01*
X5386578Y5959195D01*
X5386578Y6004204D01*
X5381599Y6009182D01*
G37*
G36*
X5282793Y7012482D02*
G01*
X5275783Y7007504D01*
X5275783Y6962495D01*
X5282793Y6957517D01*
X5330799Y6957517D01*
X5335778Y6962495D01*
X5335778Y7007504D01*
X5330799Y7012482D01*
G37*
G36*
X5184800Y7012482D02*
G01*
X5179822Y7007504D01*
X5179822Y6962495D01*
X5184800Y6957517D01*
X5232806Y6957517D01*
X5239816Y6962495D01*
X5239816Y7007504D01*
X5232806Y7012482D01*
G37*
G36*
X4816500Y6682282D02*
G01*
X4811522Y6677304D01*
X4811522Y6632295D01*
X4816500Y6627317D01*
X4864506Y6627317D01*
X4871516Y6632295D01*
X4871516Y6677304D01*
X4864506Y6682282D01*
G37*
G36*
X4914493Y6682282D02*
G01*
X4907483Y6677304D01*
X4907483Y6632295D01*
X4914493Y6627317D01*
X4962499Y6627317D01*
X4967478Y6632295D01*
X4967478Y6677304D01*
X4962499Y6682282D01*
G37*
G36*
X4816500Y6796582D02*
G01*
X4811522Y6791604D01*
X4811522Y6746595D01*
X4816500Y6741617D01*
X4864506Y6741617D01*
X4871516Y6746595D01*
X4871516Y6791604D01*
X4864506Y6796582D01*
G37*
G36*
X4914493Y6796582D02*
G01*
X4907483Y6791604D01*
X4907483Y6746595D01*
X4914493Y6741617D01*
X4962499Y6741617D01*
X4967478Y6746595D01*
X4967478Y6791604D01*
X4962499Y6796582D01*
G37*
G36*
X4803800Y7075982D02*
G01*
X4798822Y7071004D01*
X4798822Y7025995D01*
X4803800Y7021017D01*
X4851806Y7021017D01*
X4858816Y7025995D01*
X4858816Y7071004D01*
X4851806Y7075982D01*
G37*
G36*
X4901793Y7075982D02*
G01*
X4894783Y7071004D01*
X4894783Y7025995D01*
X4901793Y7021017D01*
X4949799Y7021017D01*
X4954778Y7025995D01*
X4954778Y7071004D01*
X4949799Y7075982D01*
G37*
G36*
X5756300Y7088682D02*
G01*
X5751322Y7083704D01*
X5751322Y7038695D01*
X5756300Y7033717D01*
X5804306Y7033717D01*
X5811316Y7038695D01*
X5811316Y7083704D01*
X5804306Y7088682D01*
G37*
G36*
X5854293Y7088682D02*
G01*
X5847283Y7083704D01*
X5847283Y7038695D01*
X5854293Y7033717D01*
X5902299Y7033717D01*
X5907278Y7038695D01*
X5907278Y7083704D01*
X5902299Y7088682D01*
G37*
G36*
X5628995Y6979716D02*
G01*
X5624017Y6972706D01*
X5624017Y6924700D01*
X5628995Y6919722D01*
X5674004Y6919722D01*
X5678982Y6924700D01*
X5678982Y6972706D01*
X5674004Y6979716D01*
G37*
G36*
X5628995Y7075678D02*
G01*
X5624017Y7070699D01*
X5624017Y7022693D01*
X5628995Y7015683D01*
X5674004Y7015683D01*
X5678982Y7022693D01*
X5678982Y7070699D01*
X5674004Y7075678D01*
G37*
G36*
X7127595Y6014516D02*
G01*
X7122617Y6007506D01*
X7122617Y5959500D01*
X7127595Y5954522D01*
X7172604Y5954522D01*
X7177582Y5959500D01*
X7177582Y6007506D01*
X7172604Y6014516D01*
G37*
G36*
X7127595Y6110478D02*
G01*
X7122617Y6105499D01*
X7122617Y6057493D01*
X7127595Y6050483D01*
X7172604Y6050483D01*
X7177582Y6057493D01*
X7177582Y6105499D01*
X7172604Y6110478D01*
G37*
G36*
X6492595Y6554978D02*
G01*
X6487617Y6549999D01*
X6487617Y6501993D01*
X6492595Y6494983D01*
X6537604Y6494983D01*
X6542582Y6501993D01*
X6542582Y6549999D01*
X6537604Y6554978D01*
G37*
G36*
X6492595Y6459016D02*
G01*
X6487617Y6452006D01*
X6487617Y6404000D01*
X6492595Y6399022D01*
X6537604Y6399022D01*
X6542582Y6404000D01*
X6542582Y6452006D01*
X6537604Y6459016D01*
G37*
G36*
X6324193Y6821982D02*
G01*
X6317183Y6817004D01*
X6317183Y6771995D01*
X6324193Y6767017D01*
X6372199Y6767017D01*
X6377178Y6771995D01*
X6377178Y6817004D01*
X6372199Y6821982D01*
G37*
G36*
X6226200Y6821982D02*
G01*
X6221222Y6817004D01*
X6221222Y6771995D01*
X6226200Y6767017D01*
X6274206Y6767017D01*
X6281216Y6771995D01*
X6281216Y6817004D01*
X6274206Y6821982D01*
G37*
G36*
X3326993Y7431582D02*
G01*
X3319983Y7426604D01*
X3319983Y7381595D01*
X3326993Y7376617D01*
X3374999Y7376617D01*
X3379978Y7381595D01*
X3379978Y7426604D01*
X3374999Y7431582D01*
G37*
G36*
X3229000Y7431582D02*
G01*
X3224022Y7426604D01*
X3224022Y7381595D01*
X3229000Y7376617D01*
X3277006Y7376617D01*
X3284016Y7381595D01*
X3284016Y7426604D01*
X3277006Y7431582D01*
G37*
G36*
X4841087Y5942787D02*
G01*
X4837074Y5938824D01*
X4837074Y5888736D01*
X4841087Y5884722D01*
X4887112Y5884722D01*
X4891125Y5888736D01*
X4891125Y5938824D01*
X4887112Y5942787D01*
G37*
G36*
X4841087Y6027877D02*
G01*
X4837074Y6023864D01*
X4837074Y5973775D01*
X4841087Y5969812D01*
X4887112Y5969812D01*
X4891125Y5973775D01*
X4891125Y6023864D01*
X4887112Y6027877D01*
G37*
G36*
X4714087Y5942787D02*
G01*
X4710074Y5938824D01*
X4710074Y5888736D01*
X4714087Y5884722D01*
X4760112Y5884722D01*
X4764125Y5888736D01*
X4764125Y5938824D01*
X4760112Y5942787D01*
G37*
G36*
X4714087Y6027877D02*
G01*
X4710074Y6023864D01*
X4710074Y5973775D01*
X4714087Y5969812D01*
X4760112Y5969812D01*
X4764125Y5973775D01*
X4764125Y6023864D01*
X4760112Y6027877D01*
G37*
G36*
X4040987Y5866587D02*
G01*
X4036974Y5862624D01*
X4036974Y5812536D01*
X4040987Y5808522D01*
X4087012Y5808522D01*
X4091025Y5812536D01*
X4091025Y5862624D01*
X4087012Y5866587D01*
G37*
G36*
X4040987Y5951677D02*
G01*
X4036974Y5947664D01*
X4036974Y5897575D01*
X4040987Y5893612D01*
X4087012Y5893612D01*
X4091025Y5897575D01*
X4091025Y5947664D01*
X4087012Y5951677D01*
G37*
G36*
X1630375Y5310225D02*
G01*
X1626412Y5306212D01*
X1626412Y5260187D01*
X1630375Y5256174D01*
X1680464Y5256174D01*
X1684477Y5260187D01*
X1684477Y5306212D01*
X1680464Y5310225D01*
G37*
G36*
X1545336Y5310225D02*
G01*
X1541322Y5306212D01*
X1541322Y5260187D01*
X1545336Y5256174D01*
X1595424Y5256174D01*
X1599387Y5260187D01*
X1599387Y5306212D01*
X1595424Y5310225D01*
G37*
G36*
X1630375Y7240625D02*
G01*
X1626412Y7236612D01*
X1626412Y7190587D01*
X1630375Y7186574D01*
X1680464Y7186574D01*
X1684477Y7190587D01*
X1684477Y7236612D01*
X1680464Y7240625D01*
G37*
G36*
X1545336Y7240625D02*
G01*
X1541322Y7236612D01*
X1541322Y7190587D01*
X1545336Y7186574D01*
X1595424Y7186574D01*
X1599387Y7190587D01*
X1599387Y7236612D01*
X1595424Y7240625D01*
G37*
G36*
X4348226Y7431125D02*
G01*
X4344212Y7427112D01*
X4344212Y7381087D01*
X4348226Y7377074D01*
X4398264Y7377074D01*
X4402277Y7381087D01*
X4402277Y7427112D01*
X4398264Y7431125D01*
G37*
G36*
X4263136Y7431125D02*
G01*
X4259122Y7427112D01*
X4259122Y7381087D01*
X4263136Y7377074D01*
X4313174Y7377074D01*
X4317187Y7381087D01*
X4317187Y7427112D01*
X4313174Y7431125D01*
G37*
G36*
X4466336Y6910425D02*
G01*
X4462322Y6906412D01*
X4462322Y6860387D01*
X4466336Y6856374D01*
X4516374Y6856374D01*
X4520387Y6860387D01*
X4520387Y6906412D01*
X4516374Y6910425D01*
G37*
G36*
X4551426Y6910425D02*
G01*
X4547412Y6906412D01*
X4547412Y6860387D01*
X4551426Y6856374D01*
X4601464Y6856374D01*
X4605477Y6860387D01*
X4605477Y6906412D01*
X4601464Y6910425D01*
G37*
G36*
X4675987Y6294577D02*
G01*
X4671974Y6290564D01*
X4671974Y6240475D01*
X4675987Y6236512D01*
X4722012Y6236512D01*
X4726025Y6240475D01*
X4726025Y6290564D01*
X4722012Y6294577D01*
G37*
G36*
X4675987Y6209487D02*
G01*
X4671974Y6205524D01*
X4671974Y6155436D01*
X4675987Y6151422D01*
X4722012Y6151422D01*
X4726025Y6155436D01*
X4726025Y6205524D01*
X4722012Y6209487D01*
G37*
G36*
X3278987Y6827977D02*
G01*
X3274974Y6823964D01*
X3274974Y6773875D01*
X3278987Y6769912D01*
X3325012Y6769912D01*
X3329025Y6773875D01*
X3329025Y6823964D01*
X3325012Y6827977D01*
G37*
G36*
X3278987Y6742887D02*
G01*
X3274974Y6738924D01*
X3274974Y6688836D01*
X3278987Y6684822D01*
X3325012Y6684822D01*
X3329025Y6688836D01*
X3329025Y6738924D01*
X3325012Y6742887D01*
G37*
G36*
X3205226Y7139025D02*
G01*
X3201212Y7135012D01*
X3201212Y7088987D01*
X3205226Y7084974D01*
X3255264Y7084974D01*
X3259277Y7088987D01*
X3259277Y7135012D01*
X3255264Y7139025D01*
G37*
G36*
X3120136Y7139025D02*
G01*
X3116122Y7135012D01*
X3116122Y7088987D01*
X3120136Y7084974D01*
X3170174Y7084974D01*
X3174187Y7088987D01*
X3174187Y7135012D01*
X3170174Y7139025D01*
G37*
G36*
X3205226Y7291425D02*
G01*
X3201212Y7287412D01*
X3201212Y7241387D01*
X3205226Y7237374D01*
X3255264Y7237374D01*
X3259277Y7241387D01*
X3259277Y7287412D01*
X3255264Y7291425D01*
G37*
G36*
X3120136Y7291425D02*
G01*
X3116122Y7287412D01*
X3116122Y7241387D01*
X3120136Y7237374D01*
X3170174Y7237374D01*
X3174187Y7241387D01*
X3174187Y7287412D01*
X3170174Y7291425D01*
G37*
G36*
X2980436Y6986625D02*
G01*
X2976422Y6982612D01*
X2976422Y6936587D01*
X2980436Y6932574D01*
X3030474Y6932574D01*
X3034487Y6936587D01*
X3034487Y6982612D01*
X3030474Y6986625D01*
G37*
G36*
X3065526Y6986625D02*
G01*
X3061512Y6982612D01*
X3061512Y6936587D01*
X3065526Y6932574D01*
X3115564Y6932574D01*
X3119577Y6936587D01*
X3119577Y6982612D01*
X3115564Y6986625D01*
G37*
G36*
X2980436Y6745325D02*
G01*
X2976422Y6741312D01*
X2976422Y6695287D01*
X2980436Y6691274D01*
X3030474Y6691274D01*
X3034487Y6695287D01*
X3034487Y6741312D01*
X3030474Y6745325D01*
G37*
G36*
X3065526Y6745325D02*
G01*
X3061512Y6741312D01*
X3061512Y6695287D01*
X3065526Y6691274D01*
X3115564Y6691274D01*
X3119577Y6695287D01*
X3119577Y6741312D01*
X3115564Y6745325D01*
G37*
G36*
X5488787Y5968187D02*
G01*
X5484774Y5964224D01*
X5484774Y5914136D01*
X5488787Y5910122D01*
X5534812Y5910122D01*
X5538825Y5914136D01*
X5538825Y5964224D01*
X5534812Y5968187D01*
G37*
G36*
X5488787Y6053277D02*
G01*
X5484774Y6049264D01*
X5484774Y5999175D01*
X5488787Y5995212D01*
X5534812Y5995212D01*
X5538825Y5999175D01*
X5538825Y6049264D01*
X5534812Y6053277D01*
G37*
G36*
X6697725Y6681825D02*
G01*
X6693712Y6677812D01*
X6693712Y6631787D01*
X6697725Y6627774D01*
X6747764Y6627774D01*
X6751777Y6631787D01*
X6751777Y6677812D01*
X6747764Y6681825D01*
G37*
G36*
X6612636Y6681825D02*
G01*
X6608622Y6677812D01*
X6608622Y6631787D01*
X6612636Y6627774D01*
X6662674Y6627774D01*
X6666687Y6631787D01*
X6666687Y6677812D01*
X6662674Y6681825D01*
G37*
G36*
X6612636Y6808825D02*
G01*
X6608622Y6804812D01*
X6608622Y6758787D01*
X6612636Y6754774D01*
X6662674Y6754774D01*
X6666687Y6758787D01*
X6666687Y6804812D01*
X6662674Y6808825D01*
G37*
G36*
X6697725Y6808825D02*
G01*
X6693712Y6804812D01*
X6693712Y6758787D01*
X6697725Y6754774D01*
X6747764Y6754774D01*
X6751777Y6758787D01*
X6751777Y6804812D01*
X6747764Y6808825D01*
G37*
G36*
X5615787Y5968187D02*
G01*
X5611774Y5964224D01*
X5611774Y5914136D01*
X5615787Y5910122D01*
X5661812Y5910122D01*
X5665825Y5914136D01*
X5665825Y5964224D01*
X5661812Y5968187D01*
G37*
G36*
X5615787Y6053277D02*
G01*
X5611774Y6049264D01*
X5611774Y5999175D01*
X5615787Y5995212D01*
X5661812Y5995212D01*
X5665825Y5999175D01*
X5665825Y6049264D01*
X5661812Y6053277D01*
G37*
G36*
X7222236Y5538825D02*
G01*
X7218222Y5534812D01*
X7218222Y5488787D01*
X7222236Y5484774D01*
X7272274Y5484774D01*
X7276287Y5488787D01*
X7276287Y5534812D01*
X7272274Y5538825D01*
G37*
G36*
X7307325Y5538825D02*
G01*
X7303312Y5534812D01*
X7303312Y5488787D01*
X7307325Y5484774D01*
X7357364Y5484774D01*
X7361377Y5488787D01*
X7361377Y5534812D01*
X7357364Y5538825D01*
G37*
G36*
X2961487Y7386777D02*
G01*
X2957474Y7382764D01*
X2957474Y7332675D01*
X2961487Y7328712D01*
X3007512Y7328712D01*
X3011525Y7332675D01*
X3011525Y7382764D01*
X3007512Y7386777D01*
G37*
G36*
X2961487Y7301687D02*
G01*
X2957474Y7297724D01*
X2957474Y7247636D01*
X2961487Y7243622D01*
X3007512Y7243622D01*
X3011525Y7247636D01*
X3011525Y7297724D01*
X3007512Y7301687D01*
G37*
G36*
X4462526Y7291425D02*
G01*
X4458512Y7287412D01*
X4458512Y7241387D01*
X4462526Y7237374D01*
X4512564Y7237374D01*
X4516577Y7241387D01*
X4516577Y7287412D01*
X4512564Y7291425D01*
G37*
G36*
X4377436Y7291425D02*
G01*
X4373422Y7287412D01*
X4373422Y7241387D01*
X4377436Y7237374D01*
X4427474Y7237374D01*
X4431487Y7241387D01*
X4431487Y7287412D01*
X4427474Y7291425D01*
G37*
G36*
X2507996Y5369610D02*
G01*
X2497988Y5359603D01*
X2497988Y5322570D01*
X2507996Y5312562D01*
X2538476Y5312562D01*
X2548483Y5302554D01*
X2548483Y5263845D01*
X2538476Y5253837D01*
X2507996Y5253837D01*
X2497988Y5243830D01*
X2497988Y5206796D01*
X2507996Y5196789D01*
X2636520Y5196789D01*
X2646476Y5206796D01*
X2646476Y5359603D01*
X2636520Y5369610D01*
G37*
G36*
X2189480Y5369610D02*
G01*
X2179523Y5359603D01*
X2179523Y5206796D01*
X2189480Y5196789D01*
X2318004Y5196789D01*
X2328011Y5206796D01*
X2328011Y5243830D01*
X2318004Y5253837D01*
X2287524Y5253837D01*
X2277516Y5263845D01*
X2277516Y5302554D01*
X2287524Y5312562D01*
X2318004Y5312562D01*
X2328011Y5322570D01*
X2328011Y5359603D01*
X2318004Y5369610D01*
G37*
G36*
X7683296Y5350611D02*
G01*
X7673289Y5340604D01*
X7673289Y5212080D01*
X7683296Y5202123D01*
X7836103Y5202123D01*
X7846110Y5212080D01*
X7846110Y5340604D01*
X7836103Y5350611D01*
X7799070Y5350611D01*
X7789062Y5340604D01*
X7789062Y5310124D01*
X7779054Y5300116D01*
X7740345Y5300116D01*
X7730337Y5310124D01*
X7730337Y5340604D01*
X7720330Y5350611D01*
G37*
G36*
X7683296Y5669076D02*
G01*
X7673289Y5659120D01*
X7673289Y5530596D01*
X7683296Y5520588D01*
X7720330Y5520588D01*
X7730337Y5530596D01*
X7730337Y5561076D01*
X7740345Y5571083D01*
X7779054Y5571083D01*
X7789062Y5561076D01*
X7789062Y5530596D01*
X7799070Y5520588D01*
X7836103Y5520588D01*
X7846110Y5530596D01*
X7846110Y5659120D01*
X7836103Y5669076D01*
G37*
G36*
X5045303Y6583019D02*
G01*
X5031181Y6568897D01*
X5078171Y6521856D01*
X5092344Y6535978D01*
G37*
G36*
X5073599Y6611264D02*
G01*
X5059426Y6597142D01*
X5106466Y6550101D01*
X5120589Y6564274D01*
G37*
G36*
X5101844Y6639559D02*
G01*
X5087721Y6625437D01*
X5134762Y6578396D01*
X5148884Y6592570D01*
G37*
G36*
X5130139Y6667855D02*
G01*
X5116017Y6653733D01*
X5163058Y6606692D01*
X5177180Y6620865D01*
G37*
G36*
X5158435Y6696151D02*
G01*
X5144312Y6682028D01*
X5191302Y6634988D01*
X5205476Y6649110D01*
G37*
G36*
X5186730Y6724446D02*
G01*
X5172608Y6710273D01*
X5219598Y6663283D01*
X5233771Y6677406D01*
G37*
G36*
X5214975Y6752691D02*
G01*
X5200853Y6738569D01*
X5247894Y6691528D01*
X5262016Y6705701D01*
G37*
G36*
X5243271Y6780987D02*
G01*
X5229148Y6766864D01*
X5276189Y6719824D01*
X5290312Y6733997D01*
G37*
G36*
X5271566Y6809282D02*
G01*
X5257444Y6795160D01*
X5304434Y6748119D01*
X5318607Y6762242D01*
G37*
G36*
X5299862Y6837578D02*
G01*
X5285740Y6823456D01*
X5332730Y6776415D01*
X5346903Y6790537D01*
G37*
G36*
X5328158Y6865874D02*
G01*
X5313984Y6851700D01*
X5361025Y6804710D01*
X5375198Y6818833D01*
G37*
G36*
X5356402Y6894118D02*
G01*
X5342280Y6879996D01*
X5389321Y6832955D01*
X5403443Y6847128D01*
G37*
G36*
X5489397Y6894118D02*
G01*
X5442356Y6847128D01*
X5456478Y6832955D01*
X5503519Y6879996D01*
G37*
G36*
X5517642Y6865874D02*
G01*
X5470601Y6818833D01*
X5484774Y6804710D01*
X5531815Y6851700D01*
G37*
G36*
X5545937Y6837578D02*
G01*
X5498896Y6790537D01*
X5513070Y6776415D01*
X5560060Y6823456D01*
G37*
G36*
X5574233Y6809282D02*
G01*
X5527192Y6762242D01*
X5541365Y6748119D01*
X5588355Y6795160D01*
G37*
G36*
X5602528Y6780987D02*
G01*
X5555488Y6733997D01*
X5569610Y6719824D01*
X5616651Y6766864D01*
G37*
G36*
X5630824Y6752691D02*
G01*
X5583783Y6705701D01*
X5597906Y6691528D01*
X5644946Y6738569D01*
G37*
G36*
X5659069Y6724446D02*
G01*
X5612028Y6677406D01*
X5626201Y6663283D01*
X5673191Y6710273D01*
G37*
G36*
X5687364Y6696151D02*
G01*
X5640324Y6649110D01*
X5654497Y6634988D01*
X5701487Y6682028D01*
G37*
G36*
X5715660Y6667855D02*
G01*
X5668619Y6620865D01*
X5682742Y6606692D01*
X5729782Y6653733D01*
G37*
G36*
X5743956Y6639559D02*
G01*
X5696915Y6592570D01*
X5711037Y6578396D01*
X5758078Y6625437D01*
G37*
G36*
X5772200Y6611264D02*
G01*
X5725210Y6564274D01*
X5739333Y6550101D01*
X5786374Y6597142D01*
G37*
G36*
X5800496Y6583019D02*
G01*
X5753455Y6535978D01*
X5767628Y6521856D01*
X5814618Y6568897D01*
G37*
G36*
X5767628Y6482943D02*
G01*
X5753455Y6468821D01*
X5800496Y6421780D01*
X5814618Y6435902D01*
G37*
G36*
X5739333Y6454698D02*
G01*
X5725210Y6440525D01*
X5772200Y6393535D01*
X5786374Y6407658D01*
G37*
G36*
X5711037Y6426403D02*
G01*
X5696915Y6412230D01*
X5743956Y6365240D01*
X5758078Y6379362D01*
G37*
G36*
X5682742Y6398107D02*
G01*
X5668619Y6383934D01*
X5715660Y6336944D01*
X5729782Y6351066D01*
G37*
G36*
X5654497Y6369812D02*
G01*
X5640324Y6355689D01*
X5687364Y6308648D01*
X5701487Y6322771D01*
G37*
G36*
X5626201Y6341516D02*
G01*
X5612028Y6327394D01*
X5659069Y6280353D01*
X5673191Y6294526D01*
G37*
G36*
X5597906Y6313271D02*
G01*
X5583783Y6299098D01*
X5630824Y6252108D01*
X5644946Y6266230D01*
G37*
G36*
X5569610Y6284976D02*
G01*
X5555488Y6270802D01*
X5602528Y6223812D01*
X5616651Y6237935D01*
G37*
G36*
X5541365Y6256680D02*
G01*
X5527192Y6242558D01*
X5574233Y6195517D01*
X5588355Y6209639D01*
G37*
G36*
X5513070Y6228384D02*
G01*
X5498896Y6214262D01*
X5545937Y6167221D01*
X5560060Y6181344D01*
G37*
G36*
X5484774Y6200089D02*
G01*
X5470601Y6185966D01*
X5517642Y6138926D01*
X5531815Y6153099D01*
G37*
G36*
X5456478Y6171844D02*
G01*
X5442356Y6157671D01*
X5489397Y6110681D01*
X5503519Y6124803D01*
G37*
G36*
X5389321Y6171844D02*
G01*
X5342280Y6124803D01*
X5356402Y6110681D01*
X5403443Y6157671D01*
G37*
G36*
X5361025Y6200089D02*
G01*
X5313984Y6153099D01*
X5328158Y6138926D01*
X5375198Y6185966D01*
G37*
G36*
X5332730Y6228384D02*
G01*
X5285740Y6181344D01*
X5299862Y6167221D01*
X5346903Y6214262D01*
G37*
G36*
X5304434Y6256680D02*
G01*
X5257444Y6209639D01*
X5271566Y6195517D01*
X5318607Y6242558D01*
G37*
G36*
X5276189Y6284976D02*
G01*
X5229148Y6237935D01*
X5243271Y6223812D01*
X5290312Y6270802D01*
G37*
G36*
X5247894Y6313271D02*
G01*
X5200853Y6266230D01*
X5214975Y6252108D01*
X5262016Y6299098D01*
G37*
G36*
X5219598Y6341516D02*
G01*
X5172608Y6294526D01*
X5186730Y6280353D01*
X5233771Y6327394D01*
G37*
G36*
X5191302Y6369812D02*
G01*
X5144312Y6322771D01*
X5158435Y6308648D01*
X5205476Y6355689D01*
G37*
G36*
X5163058Y6398107D02*
G01*
X5116017Y6351066D01*
X5130139Y6336944D01*
X5177180Y6383934D01*
G37*
G36*
X5134762Y6426403D02*
G01*
X5087721Y6379362D01*
X5101844Y6365240D01*
X5148884Y6412230D01*
G37*
G36*
X5106466Y6454698D02*
G01*
X5059426Y6407658D01*
X5073599Y6393535D01*
X5120589Y6440525D01*
G37*
G36*
X5078171Y6482943D02*
G01*
X5031181Y6435902D01*
X5045303Y6421780D01*
X5092344Y6468821D01*
G37*
G36*
X5422900Y6717334D02*
G01*
X5207965Y6502400D01*
X5422900Y6287465D01*
X5637834Y6502400D01*
G37*
G36*
X7251293Y6413804D02*
G01*
X7251293Y6383782D01*
X7361275Y6383782D01*
X7361275Y6413804D01*
G37*
G36*
X7251293Y6463842D02*
G01*
X7251293Y6433820D01*
X7361275Y6433820D01*
X7361275Y6463842D01*
G37*
G36*
X7251293Y5983782D02*
G01*
X7251293Y5923788D01*
X7361275Y5923788D01*
X7361275Y5983782D01*
G37*
G36*
X7251293Y6363817D02*
G01*
X7251293Y6333794D01*
X7361275Y6333794D01*
X7361275Y6363817D01*
G37*
G36*
X7251293Y6543802D02*
G01*
X7251293Y6483807D01*
X7361275Y6483807D01*
X7361275Y6543802D01*
G37*
G36*
X7251293Y6623812D02*
G01*
X7251293Y6563817D01*
X7361275Y6563817D01*
X7361275Y6623812D01*
G37*
G36*
X7251293Y6313830D02*
G01*
X7251293Y6283807D01*
X7361275Y6283807D01*
X7361275Y6313830D01*
G37*
G36*
X7251293Y6263792D02*
G01*
X7251293Y6233769D01*
X7361275Y6233769D01*
X7361275Y6263792D01*
G37*
G36*
X7251293Y6063792D02*
G01*
X7251293Y6003798D01*
X7361275Y6003798D01*
X7361275Y6063792D01*
G37*
G36*
X7251293Y6213805D02*
G01*
X7251293Y6183782D01*
X7361275Y6183782D01*
X7361275Y6213805D01*
G37*
G36*
X7251293Y6163818D02*
G01*
X7251293Y6133795D01*
X7361275Y6133795D01*
X7361275Y6163818D01*
G37*
G36*
X7251293Y6113830D02*
G01*
X7251293Y6083808D01*
X7361275Y6083808D01*
X7361275Y6113830D01*
G37*
G36*
X7321296Y6766306D02*
G01*
X7315301Y6766001D01*
X7309408Y6765086D01*
X7303617Y6763613D01*
X7297978Y6761581D01*
X7292594Y6758990D01*
X7287463Y6755892D01*
X7282738Y6752285D01*
X7278319Y6748170D01*
X7274356Y6743700D01*
X7270902Y6738874D01*
X7267905Y6733692D01*
X7265416Y6728206D01*
X7263536Y6722567D01*
X7262215Y6716725D01*
X7261453Y6710781D01*
X7261301Y6704787D01*
X7261758Y6698843D01*
X7262774Y6692950D01*
X7264400Y6687210D01*
X7266584Y6681622D01*
X7269327Y6676288D01*
X7272578Y6671259D01*
X7276287Y6666585D01*
X7280452Y6662318D01*
X7285075Y6658457D01*
X7290003Y6655104D01*
X7295235Y6652259D01*
X7300772Y6649923D01*
X7306462Y6648145D01*
X7312355Y6646976D01*
X7318298Y6646367D01*
X7401306Y6646316D01*
X7407249Y6646621D01*
X7413193Y6647484D01*
X7418984Y6648958D01*
X7424572Y6650990D01*
X7430008Y6653580D01*
X7435088Y6656730D01*
X7439863Y6660337D01*
X7444231Y6664401D01*
X7448194Y6668871D01*
X7451699Y6673748D01*
X7454696Y6678930D01*
X7457135Y6684365D01*
X7459065Y6690055D01*
X7460386Y6695897D01*
X7461097Y6701840D01*
X7461250Y6707784D01*
X7460843Y6713778D01*
X7459776Y6719671D01*
X7458151Y6725412D01*
X7455966Y6730949D01*
X7453274Y6736283D01*
X7450023Y6741312D01*
X7446264Y6745986D01*
X7442098Y6750303D01*
X7437526Y6754114D01*
X7432598Y6757517D01*
X7427315Y6760362D01*
X7421829Y6762699D01*
X7416088Y6764426D01*
X7410246Y6765645D01*
X7404252Y6766204D01*
G37*
G36*
X7321296Y5901283D02*
G01*
X7315301Y5900978D01*
X7309408Y5900115D01*
X7303617Y5898642D01*
X7297978Y5896610D01*
X7292594Y5894019D01*
X7287463Y5890869D01*
X7282738Y5887262D01*
X7278319Y5883198D01*
X7274356Y5878728D01*
X7270902Y5873851D01*
X7267905Y5868670D01*
X7265416Y5863234D01*
X7263536Y5857544D01*
X7262215Y5851702D01*
X7261453Y5845759D01*
X7261301Y5839815D01*
X7261758Y5833821D01*
X7262774Y5827928D01*
X7264400Y5822188D01*
X7266584Y5816650D01*
X7269327Y5811316D01*
X7272578Y5806287D01*
X7276287Y5801614D01*
X7280452Y5797296D01*
X7285075Y5793486D01*
X7290003Y5790082D01*
X7295235Y5787237D01*
X7300772Y5784900D01*
X7306462Y5783173D01*
X7312355Y5781954D01*
X7318298Y5781395D01*
X7401306Y5781294D01*
X7407249Y5781598D01*
X7413193Y5782513D01*
X7418984Y5783986D01*
X7424572Y5786018D01*
X7430008Y5788609D01*
X7435088Y5791708D01*
X7439863Y5795314D01*
X7444231Y5799429D01*
X7448194Y5803900D01*
X7451699Y5808726D01*
X7454696Y5813907D01*
X7457135Y5819394D01*
X7459065Y5825032D01*
X7460386Y5830874D01*
X7461097Y5836818D01*
X7461250Y5842812D01*
X7460843Y5848756D01*
X7459776Y5854649D01*
X7458151Y5860389D01*
X7455966Y5865977D01*
X7453274Y5871311D01*
X7450023Y5876340D01*
X7446264Y5881014D01*
X7442098Y5885281D01*
X7437526Y5889142D01*
X7432598Y5892495D01*
X7427315Y5895340D01*
X7421829Y5897676D01*
X7416088Y5899454D01*
X7410246Y5900623D01*
X7404252Y5901232D01*
G37*
G36*
X7766303Y5901283D02*
G01*
X7760309Y5900978D01*
X7754416Y5900115D01*
X7748625Y5898642D01*
X7742986Y5896610D01*
X7737602Y5894019D01*
X7732522Y5890869D01*
X7727746Y5887262D01*
X7723378Y5883198D01*
X7719415Y5878728D01*
X7715910Y5873851D01*
X7712913Y5868670D01*
X7710474Y5863234D01*
X7708544Y5857544D01*
X7707223Y5851702D01*
X7706461Y5845759D01*
X7706309Y5839815D01*
X7706766Y5833821D01*
X7707833Y5827928D01*
X7709408Y5822188D01*
X7711592Y5816650D01*
X7714335Y5811316D01*
X7717586Y5806287D01*
X7721295Y5801614D01*
X7725511Y5797296D01*
X7730083Y5793486D01*
X7735011Y5790082D01*
X7740294Y5787237D01*
X7745780Y5784900D01*
X7751521Y5783173D01*
X7757363Y5781954D01*
X7763306Y5781395D01*
X7796326Y5781294D01*
X7802270Y5781598D01*
X7808214Y5782513D01*
X7814005Y5783986D01*
X7819593Y5786018D01*
X7824978Y5788609D01*
X7830108Y5791708D01*
X7834884Y5795314D01*
X7839252Y5799429D01*
X7843215Y5803900D01*
X7846720Y5808726D01*
X7849717Y5813907D01*
X7852156Y5819394D01*
X7854086Y5825032D01*
X7855407Y5830874D01*
X7856118Y5836818D01*
X7856270Y5842812D01*
X7855813Y5848756D01*
X7854797Y5854649D01*
X7853172Y5860389D01*
X7850987Y5865977D01*
X7848244Y5871311D01*
X7845044Y5876340D01*
X7841284Y5881014D01*
X7837119Y5885281D01*
X7832547Y5889142D01*
X7827568Y5892495D01*
X7822336Y5895340D01*
X7816799Y5897676D01*
X7811109Y5899454D01*
X7805267Y5900623D01*
X7799273Y5901232D01*
G37*
G36*
X7766303Y6766306D02*
G01*
X7760309Y6766001D01*
X7754416Y6765086D01*
X7748625Y6763613D01*
X7742986Y6761581D01*
X7737602Y6758990D01*
X7732522Y6755892D01*
X7727746Y6752285D01*
X7723378Y6748170D01*
X7719415Y6743700D01*
X7715910Y6738874D01*
X7712913Y6733692D01*
X7710474Y6728206D01*
X7708544Y6722567D01*
X7707223Y6716725D01*
X7706461Y6710781D01*
X7706309Y6704787D01*
X7706766Y6698843D01*
X7707833Y6692950D01*
X7709408Y6687210D01*
X7711592Y6681622D01*
X7714335Y6676288D01*
X7717586Y6671259D01*
X7721295Y6666585D01*
X7725511Y6662318D01*
X7730083Y6658457D01*
X7735011Y6655104D01*
X7740294Y6652259D01*
X7745780Y6649923D01*
X7751521Y6648145D01*
X7757363Y6646976D01*
X7763306Y6646367D01*
X7796326Y6646316D01*
X7802270Y6646621D01*
X7808214Y6647484D01*
X7814005Y6648958D01*
X7819593Y6650990D01*
X7824978Y6653580D01*
X7830108Y6656730D01*
X7834884Y6660337D01*
X7839252Y6664401D01*
X7843215Y6668871D01*
X7846720Y6673748D01*
X7849717Y6678930D01*
X7852156Y6684365D01*
X7854086Y6690055D01*
X7855407Y6695897D01*
X7856118Y6701840D01*
X7856270Y6707784D01*
X7855813Y6713778D01*
X7854797Y6719671D01*
X7853172Y6725412D01*
X7850987Y6730949D01*
X7848244Y6736283D01*
X7845044Y6741312D01*
X7841284Y6745986D01*
X7837119Y6750303D01*
X7832547Y6754114D01*
X7827568Y6757517D01*
X7822336Y6760362D01*
X7816799Y6762699D01*
X7811109Y6764426D01*
X7805267Y6765645D01*
X7799273Y6766204D01*
G37*
D10*
G01*
X6330670Y6467297D03*
G01*
X6140729Y6467297D03*
G01*
X6140729Y6207302D03*
G01*
X6235649Y6207302D03*
G01*
X6330670Y6207302D03*
D11*
G01*
X6760540Y5740400D03*
G01*
X6422059Y5740400D03*
D12*
G01*
X6754368Y6057900D03*
G01*
X6504431Y5962904D03*
G01*
X6504431Y6152895D03*
D13*
G01*
X7067295Y6503466D03*
G01*
X6972300Y6503466D03*
G01*
X6877304Y6503466D03*
D14*
G01*
X6877304Y6272733D03*
G01*
X7067295Y6272733D03*
D15*
G01*
X5778500Y5638800D03*
G01*
X5707379Y5638800D03*
G01*
X5636259Y5638800D03*
G01*
X5567679Y5638800D03*
G01*
X5496559Y5638800D03*
G01*
X5427979Y5638800D03*
G01*
X5356859Y5638800D03*
G01*
X5288279Y5638800D03*
G01*
X5217159Y5638800D03*
G01*
X5148579Y5638800D03*
G01*
X5077459Y5638800D03*
G01*
X5006340Y5638800D03*
G01*
X4937759Y5638800D03*
G01*
X4866640Y5638800D03*
G01*
X4798059Y5638800D03*
G01*
X4726940Y5638800D03*
G01*
X4658359Y5638800D03*
G01*
X4587240Y5638800D03*
G01*
X4518659Y5638800D03*
G01*
X4447540Y5638800D03*
G01*
X4376420Y5638800D03*
G01*
X4307840Y5638800D03*
G01*
X4236720Y5638800D03*
G01*
X4168140Y5638800D03*
G01*
X4097020Y5638800D03*
G01*
X4028440Y5638800D03*
G01*
X3957320Y5638800D03*
G01*
X3888740Y5638800D03*
G01*
X3817620Y5638800D03*
G01*
X3746500Y5638800D03*
D16*
G01*
X6115304Y5437200D03*
G01*
X6305295Y5437200D03*
G01*
X6210300Y5637199D03*
D17*
G01*
X6261100Y7076592D03*
G01*
X6261100Y7350607D03*
D18*
G01*
X3591407Y6096000D03*
G01*
X3317392Y6096000D03*
D19*
G01*
X5202809Y7232497D03*
G01*
X5312790Y7232497D03*
G01*
X5312790Y7372502D03*
G01*
X5202809Y7372502D03*
D20*
G01*
X7046696Y6958253D03*
G01*
X6846697Y6958253D03*
D21*
G01*
X7281900Y7189546D03*
G01*
X6611899Y7189546D03*
D22*
G01*
X3818229Y7378369D03*
G01*
X3782872Y7343013D03*
G01*
X3747541Y7307656D03*
G01*
X3712159Y7272299D03*
G01*
X3676827Y7236942D03*
G01*
X3641445Y7201585D03*
G01*
X3606114Y7166228D03*
G01*
X3570757Y7130872D03*
G01*
X3535400Y7095540D03*
G01*
X3500043Y7060158D03*
G01*
X3464687Y7024827D03*
G01*
X3429330Y6989444D03*
D23*
G01*
X3429330Y6777329D03*
G01*
X3464687Y6741972D03*
G01*
X3500043Y6706641D03*
G01*
X3535400Y6671259D03*
G01*
X3570757Y6635927D03*
G01*
X3606114Y6600545D03*
G01*
X3641445Y6565214D03*
G01*
X3676827Y6529857D03*
G01*
X3712159Y6494500D03*
G01*
X3747541Y6459143D03*
G01*
X3782872Y6423787D03*
G01*
X3818229Y6388430D03*
D22*
G01*
X4030370Y6388430D03*
G01*
X4065727Y6423787D03*
G01*
X4101058Y6459143D03*
G01*
X4136440Y6494500D03*
G01*
X4171772Y6529857D03*
G01*
X4207154Y6565214D03*
G01*
X4242485Y6600545D03*
G01*
X4277842Y6635927D03*
G01*
X4313199Y6671259D03*
G01*
X4348556Y6706641D03*
G01*
X4383912Y6741972D03*
G01*
X4419269Y6777329D03*
D23*
G01*
X4419269Y6989444D03*
G01*
X4383912Y7024827D03*
G01*
X4348556Y7060158D03*
G01*
X4313199Y7095540D03*
G01*
X4277842Y7130872D03*
G01*
X4242485Y7166228D03*
G01*
X4207154Y7201585D03*
G01*
X4171772Y7236942D03*
G01*
X4136440Y7272299D03*
G01*
X4101058Y7307656D03*
G01*
X4065727Y7343013D03*
G01*
X4030370Y7378369D03*
D19*
G01*
X4538090Y6318402D03*
G01*
X4428109Y6318402D03*
G01*
X4428109Y6178397D03*
G01*
X4538090Y6178397D03*
M02*
