M48
INCH,LZ
;FILE_FORMAT=2:4
;TYPE=PLATED
;Layer: PTH_Through_Via
;EasyEDA v6.5.50, 2025-05-10 16:21:22
;3dcb6b1ac4734954bc49148360d8dee8,b9277fd2045942759ab1a28cc0c323af,10
;Gerber Generator version 0.2
;Holesize 1 = 0.0080 inch
T01C0.0080
;Holesize 2 = 0.0120 inch
T02C0.0120
%
G05
G90
T01
X028900Y022050
X021800Y023950
X022200Y023970
X021850Y027800
X014250Y028950
X013650Y028200
X013273Y026300
X016732Y025400
X018200Y024950
X018300Y025400
X019300Y025850
X013061Y023375
X014200Y027100
X013785Y025615
X016300Y029300
X017350Y028250
X020500Y027200
X028500Y023400
X030650Y021350
X016388Y024602
X015500Y024600
X004250Y025000
X016880Y023820
X015850Y024850
X015450Y025750
X022900Y026300
X020250Y026950
X021304Y027265
X009500Y020750
X019550Y024150
X011850Y022250
X014500Y022200
X024750Y022850
X011150Y022250
X023050Y022350
X017800Y022850
X018100Y023000
X024150Y026000
X018400Y023650
X019908Y023615
X020750Y024100
X017670Y027976
X019400Y023450
X024400Y022700
X019750Y025150
X023900Y022300
X017800Y021700
X022850Y023350
X019700Y026450
X028200Y026100
X013650Y029250
X012050Y028600
X011400Y026650
X011150Y026250
X011150Y025150
X012050Y028000
X007050Y028500
X007000Y020800
X024750Y024950
X024350Y024950
X029500Y024300
X028250Y024500
X028000Y025800
X028100Y024000
X028150Y023750
X029600Y025450
X023431Y026019
X023200Y025250
X022900Y024950
X027000Y028900
X029950Y024800
X022700Y024750
X021200Y023950
X026150Y026650
X026250Y022200
X026100Y022850
X028500Y022050
X026150Y022550
T02
X021350Y025878
X021628Y025600
X021072Y025600
X021350Y025322
M30
