M48
INCH,LZ
;FILE_FORMAT=2:4
;TYPE=PLATED
;Layer: PTH_Through
;EasyEDA v6.5.48, 2025-03-23 22:21:01
;4241eb4d17d2401181ec35b2a8e82844,b9277fd2045942759ab1a28cc0c323af,10
;Gerber Generator version 0.2
;Holesize 1 = 0.0080 inch
T01C0.0080
;Holesize 2 = 0.0120 inch
T02C0.0120
;Holesize 3 = 0.0200 inch
T03C0.0200
;Holesize 4 = 0.0240 inch
T04C0.0240
;Holesize 5 = 0.0390 inch
T05C0.0390
;Holesize 6 = 0.0430 inch
T06C0.0430
;Holesize 7 = 0.0710 inch
T07C0.0710
%
G05
G90
T01
X028500Y022050
X028900Y022050
X021800Y023950
X022200Y023970
X021850Y027800
X014250Y028950
X013650Y028200
X013273Y026300
X016732Y025400
X018200Y024950
X018300Y025400
X019300Y025850
X013061Y023375
X014200Y027100
X013785Y025615
X016300Y029300
X017350Y028250
X020500Y027200
X028500Y023400
X030650Y021350
X016388Y024602
X015500Y024600
X004250Y025000
X016880Y023820
X015850Y024850
X015450Y025750
X022900Y026300
X020250Y026950
X021304Y027265
X009500Y020750
X019550Y024150
X011850Y022250
X014500Y022200
X024750Y022850
X011150Y022250
X023050Y022350
X017800Y022850
X018100Y023000
X024150Y026000
X018400Y023650
X019908Y023615
X020750Y024100
X017670Y027976
X019400Y023450
X024400Y022700
X019750Y025150
X023900Y022300
X017808Y021650
X022850Y023350
X019700Y026450
X028200Y026100
X013650Y029250
X012050Y028600
X011400Y026650
X011150Y026250
X011150Y025150
X012050Y028000
X007050Y028500
X007000Y020800
X024750Y024950
X024350Y024950
X029500Y024300
X028250Y024500
X028000Y025800
X028100Y024000
X028150Y023750
X029600Y025450
X023431Y026019
X023200Y025200
X022900Y024950
X026950Y028900
X029950Y024800
X022700Y024750
X021200Y023950
X026150Y026650
X026900Y025300
X026950Y024000
X025700Y024100
X025300Y024800
X026550Y021750
X026300Y021950
X027850Y024250
X027300Y024050
X027691Y021630
X026800Y021150
T02
X021350Y025878
X021628Y025600
X021072Y025600
X021350Y025322
T03
X028997Y026400G85X028603Y026400
X029022Y026431G85X029022Y026155
X028997Y023000G85X028603Y023000
X029022Y023231G85X029022Y022955
T04
X030875Y026401G85X030363Y026401
X030875Y022999G85X030363Y022999
T05
X009115Y026502
X010115Y026001
X009115Y025501
X010115Y025001
X009115Y024501
X010115Y024001
X009115Y023501
X010115Y023001
T06
X004685Y027358
X004685Y026358
X004685Y023141
X004685Y022141
T07
X007815Y027799
X007815Y021700
M30
