M48
METRIC,LZ,000.000
;FILE_FORMAT=3:3
;TYPE=PLATED
;Layer: PTH_Through_Via
;EasyEDA v6.5.48, 2025-03-08 17:20:47
;63e6e59633d6499fb326ce5c2c9b2855,b9277fd2045942759ab1a28cc0c323af,10
;Gerber Generator version 0.2
;Holesize 1 = 0.200 mm
T01C0.200
;Holesize 2 = 0.305 mm
T02C0.305
%
G05
G90
T01
X072390Y056007
X073406Y056007
X055372Y060833
X056388Y060885
X055499Y070612
X036195Y073533
X034671Y071628
X033713Y066802
X042500Y064516
X046228Y063373
X046482Y064516
X049022Y065659
X033174Y059372
X036068Y068834
X035014Y065062
X041402Y074422
X044069Y071755
X052070Y069088
X072136Y059436
X077851Y054229
X041625Y062490
X039370Y062484
X010795Y063500
X042874Y060503
X040259Y063119
X039243Y065405
X069469Y055118
X058166Y066802
X051435Y068453
X054113Y069253
X024130Y052705
X066421Y067564
X049657Y061341
X030099Y056515
X036830Y056388
X062865Y058039
X028321Y056515
X058547Y056769
X045212Y058039
X045974Y058420
X061341Y066040
X046736Y060071
X050567Y059981
X052705Y061214
X044883Y071058
X049276Y059563
X061976Y057658
X050165Y063881
X060706Y056642
X045231Y054991
X058039Y059309
X050038Y067183
X071628Y066294
X070993Y064389
X066294Y061595
X069799Y063754
X034671Y074295
X030607Y072644
X028956Y067691
X028321Y066675
X028321Y063881
X030607Y071120
X017780Y072136
X017780Y052832
X062865Y063373
X061849Y063373
X074930Y061722
X071755Y062230
X068961Y063754
X071120Y065532
X071374Y060960
X071501Y060325
X075184Y064643
X059515Y066088
X058928Y064008
X058166Y063373
X065405Y063754
X068453Y073406
X051943Y067945
X065151Y067056
T02
X054229Y065731
X054936Y065024
X053522Y065024
X054229Y064317
M30
