G04 Layer: InnerLayer1*
G04 EasyEDA v6.5.50, 2025-05-10 16:21:22*
G04 3dcb6b1ac4734954bc49148360d8dee8,b9277fd2045942759ab1a28cc0c323af,10*
G04 Gerber Generator version 0.2*
G04 Scale: 100 percent, Rotated: No, Reflected: No *
G04 Dimensions in inches *
G04 leading zeros omitted , absolute positions ,3 integer and 6 decimal *
%FSLAX36Y36*%
%MOIN*%

%ADD10C,0.0098*%
%ADD11R,0.0630X0.0630*%
%ADD12C,0.0630*%
%ADD13C,0.0709*%
%ADD14C,0.0984*%
%ADD15O,0.09055099999999999X0.039369999999999995*%
%ADD16O,0.076772X0.039369999999999995*%
%ADD17O,0.039369999999999995X0.066929*%
%ADD18C,0.0240*%
%ADD19C,0.0177*%
%ADD20C,0.0117*%

%LPD*%
G36*
X849000Y2010200D02*
G01*
X847460Y2010500D01*
X846180Y2011380D01*
X845300Y2012660D01*
X845000Y2014199D01*
X845000Y2940800D01*
X845300Y2942340D01*
X846180Y2943620D01*
X847460Y2944500D01*
X849000Y2944800D01*
X2126000Y2944800D01*
X2127540Y2944500D01*
X2128820Y2943620D01*
X2129700Y2942340D01*
X2130000Y2940800D01*
X2130000Y2820400D01*
X2130400Y2820000D01*
X2366000Y2820000D01*
X2367540Y2819700D01*
X2368820Y2818820D01*
X2369700Y2817540D01*
X2370000Y2816000D01*
X2370000Y2740400D01*
X2370400Y2740000D01*
X2389600Y2740000D01*
X2390000Y2740400D01*
X2390000Y2940800D01*
X2390300Y2942340D01*
X2391180Y2943620D01*
X2392460Y2944500D01*
X2394000Y2944800D01*
X3115800Y2944800D01*
X3117340Y2944500D01*
X3118620Y2943620D01*
X3119500Y2942340D01*
X3119800Y2940800D01*
X3119800Y2658480D01*
X3119440Y2656840D01*
X3118440Y2655480D01*
X3116980Y2654660D01*
X3115299Y2654520D01*
X3113720Y2655080D01*
X3112500Y2656240D01*
X3110820Y2658700D01*
X3107780Y2661980D01*
X3104280Y2664760D01*
X3100419Y2667000D01*
X3096259Y2668620D01*
X3091920Y2669620D01*
X3087300Y2669960D01*
X3036420Y2669960D01*
X3031820Y2669620D01*
X3027480Y2668620D01*
X3023320Y2667000D01*
X3019440Y2664760D01*
X3015960Y2661980D01*
X3012919Y2658700D01*
X3010400Y2655020D01*
X3008460Y2650980D01*
X3007160Y2646720D01*
X3006480Y2642300D01*
X3006480Y2637840D01*
X3007160Y2633420D01*
X3008460Y2629160D01*
X3010400Y2625140D01*
X3012919Y2621440D01*
X3015960Y2618180D01*
X3019440Y2615400D01*
X3023320Y2613159D01*
X3027480Y2611520D01*
X3031820Y2610539D01*
X3036420Y2610179D01*
X3087300Y2610179D01*
X3091920Y2610539D01*
X3096259Y2611520D01*
X3100419Y2613159D01*
X3104280Y2615400D01*
X3107780Y2618180D01*
X3110820Y2621440D01*
X3112500Y2623920D01*
X3113720Y2625080D01*
X3115299Y2625640D01*
X3116980Y2625480D01*
X3118440Y2624660D01*
X3119440Y2623300D01*
X3119800Y2621660D01*
X3119800Y2318340D01*
X3119440Y2316680D01*
X3118440Y2315340D01*
X3116980Y2314500D01*
X3115299Y2314360D01*
X3113720Y2314920D01*
X3112500Y2316080D01*
X3110820Y2318540D01*
X3107780Y2321820D01*
X3104280Y2324600D01*
X3100419Y2326840D01*
X3096259Y2328460D01*
X3091920Y2329460D01*
X3087300Y2329800D01*
X3036420Y2329800D01*
X3031820Y2329460D01*
X3027480Y2328460D01*
X3023320Y2326840D01*
X3019440Y2324600D01*
X3016620Y2322340D01*
X3015299Y2321640D01*
X3013820Y2321480D01*
X3012380Y2321860D01*
X3011180Y2322740D01*
X3010400Y2324000D01*
X3010120Y2325460D01*
X3010120Y2467220D01*
X3010320Y2468500D01*
X3011180Y2469980D01*
X3012760Y2473120D01*
X3013720Y2476500D01*
X3014040Y2480000D01*
X3013720Y2483500D01*
X3012760Y2486880D01*
X3011180Y2490020D01*
X3009080Y2492820D01*
X3006480Y2495200D01*
X3003480Y2497040D01*
X3000220Y2498320D01*
X2996760Y2498960D01*
X2993240Y2498960D01*
X2989860Y2498320D01*
X2988120Y2498380D01*
X2986560Y2499180D01*
X2985500Y2500560D01*
X2985120Y2502260D01*
X2985120Y2534800D01*
X2984820Y2537940D01*
X2983960Y2540780D01*
X2982559Y2543400D01*
X2980560Y2545840D01*
X2979160Y2547400D01*
X2978759Y2548340D01*
X2977760Y2551880D01*
X2976180Y2555020D01*
X2974080Y2557820D01*
X2971480Y2560200D01*
X2968480Y2562040D01*
X2965220Y2563320D01*
X2961760Y2563960D01*
X2958240Y2563960D01*
X2954780Y2563320D01*
X2951520Y2562040D01*
X2948519Y2560200D01*
X2945920Y2557820D01*
X2943820Y2555020D01*
X2942240Y2551880D01*
X2941280Y2548500D01*
X2940960Y2545000D01*
X2941280Y2541500D01*
X2942240Y2538120D01*
X2943820Y2534980D01*
X2945920Y2532180D01*
X2948519Y2529800D01*
X2951520Y2527960D01*
X2952320Y2527640D01*
X2953660Y2526780D01*
X2954560Y2525480D01*
X2954880Y2523920D01*
X2954880Y2452960D01*
X2954580Y2451420D01*
X2953700Y2450140D01*
X2952400Y2449260D01*
X2950880Y2448960D01*
X2948240Y2448960D01*
X2944780Y2448320D01*
X2941520Y2447040D01*
X2938519Y2445200D01*
X2935920Y2442820D01*
X2933820Y2440020D01*
X2932240Y2436880D01*
X2931280Y2433500D01*
X2930960Y2430000D01*
X2931280Y2426500D01*
X2932240Y2423120D01*
X2933820Y2419980D01*
X2935920Y2417180D01*
X2938519Y2414800D01*
X2941520Y2412960D01*
X2944780Y2411680D01*
X2948240Y2411040D01*
X2950880Y2411040D01*
X2952400Y2410740D01*
X2953700Y2409860D01*
X2954580Y2408580D01*
X2954880Y2407040D01*
X2954880Y2354920D01*
X2954520Y2353240D01*
X2953480Y2351880D01*
X2951980Y2351060D01*
X2950260Y2350960D01*
X2948660Y2351580D01*
X2945340Y2353780D01*
X2942040Y2355180D01*
X2938540Y2355980D01*
X2934960Y2356140D01*
X2931400Y2355660D01*
X2927980Y2354560D01*
X2924820Y2352860D01*
X2922020Y2350620D01*
X2921560Y2350080D01*
X2920160Y2349060D01*
X2918480Y2348720D01*
X2916800Y2349100D01*
X2913120Y2350880D01*
X2908840Y2352200D01*
X2904440Y2352860D01*
X2899960Y2352860D01*
X2895560Y2352200D01*
X2891280Y2350880D01*
X2887260Y2348940D01*
X2883580Y2346440D01*
X2880299Y2343400D01*
X2877520Y2339900D01*
X2875280Y2336040D01*
X2873860Y2332420D01*
X2873000Y2331080D01*
X2871700Y2330200D01*
X2870140Y2329880D01*
X2861440Y2329880D01*
X2856840Y2329540D01*
X2852500Y2328540D01*
X2848340Y2326920D01*
X2844460Y2324680D01*
X2840980Y2321900D01*
X2837940Y2318620D01*
X2835419Y2314940D01*
X2833480Y2310920D01*
X2832180Y2306640D01*
X2831500Y2302220D01*
X2831500Y2297760D01*
X2832180Y2293340D01*
X2833480Y2289080D01*
X2835419Y2285060D01*
X2837940Y2281380D01*
X2840980Y2278100D01*
X2844460Y2275320D01*
X2850260Y2272000D01*
X2851160Y2270700D01*
X2851480Y2269160D01*
X2851180Y2267620D01*
X2850320Y2266300D01*
X2849020Y2265440D01*
X2847480Y2265120D01*
X2842919Y2265120D01*
X2841380Y2265420D01*
X2840100Y2266300D01*
X2773340Y2333060D01*
X2772460Y2334340D01*
X2772160Y2335880D01*
X2772460Y2337400D01*
X2773340Y2338700D01*
X2774640Y2339580D01*
X2776160Y2339880D01*
X2824800Y2339880D01*
X2827940Y2340180D01*
X2830779Y2341040D01*
X2833399Y2342440D01*
X2835840Y2344440D01*
X2850560Y2359160D01*
X2852559Y2361600D01*
X2853960Y2364220D01*
X2854820Y2367060D01*
X2855120Y2370200D01*
X2855120Y2384800D01*
X2854820Y2387940D01*
X2853960Y2390780D01*
X2852559Y2393400D01*
X2850560Y2395840D01*
X2835840Y2410560D01*
X2833399Y2412560D01*
X2830779Y2413960D01*
X2827940Y2414820D01*
X2824800Y2415120D01*
X2822740Y2415120D01*
X2821640Y2415280D01*
X2820620Y2415720D01*
X2818480Y2417040D01*
X2815220Y2418320D01*
X2811760Y2418960D01*
X2808240Y2418960D01*
X2804780Y2418320D01*
X2801520Y2417040D01*
X2798519Y2415200D01*
X2795920Y2412820D01*
X2793820Y2410020D01*
X2792240Y2406880D01*
X2791280Y2403500D01*
X2790960Y2400000D01*
X2791280Y2396500D01*
X2791640Y2395220D01*
X2791780Y2393760D01*
X2791380Y2392340D01*
X2790500Y2391160D01*
X2789240Y2390400D01*
X2787799Y2390120D01*
X2512920Y2390120D01*
X2511380Y2390420D01*
X2510100Y2391300D01*
X2359400Y2542000D01*
X2358520Y2543280D01*
X2358220Y2544820D01*
X2358220Y2589100D01*
X2358420Y2590380D01*
X2359300Y2591860D01*
X2360860Y2595020D01*
X2361820Y2598399D01*
X2362160Y2601880D01*
X2361820Y2605380D01*
X2360860Y2608759D01*
X2359300Y2611920D01*
X2357180Y2614720D01*
X2354580Y2617080D01*
X2351600Y2618940D01*
X2348320Y2620200D01*
X2344860Y2620840D01*
X2341360Y2620840D01*
X2337900Y2620200D01*
X2334620Y2618940D01*
X2331640Y2617080D01*
X2329040Y2614720D01*
X2326920Y2611920D01*
X2325360Y2608759D01*
X2324400Y2605380D01*
X2324060Y2601880D01*
X2324400Y2598399D01*
X2325360Y2595020D01*
X2326920Y2591860D01*
X2327780Y2590400D01*
X2327980Y2589120D01*
X2327980Y2547620D01*
X2327600Y2545920D01*
X2326540Y2544540D01*
X2324980Y2543740D01*
X2323240Y2543680D01*
X2321760Y2543960D01*
X2318240Y2543960D01*
X2314780Y2543320D01*
X2311520Y2542040D01*
X2308520Y2540200D01*
X2305920Y2537820D01*
X2303820Y2535020D01*
X2302240Y2531880D01*
X2301280Y2528500D01*
X2300960Y2525000D01*
X2301280Y2521500D01*
X2302700Y2516500D01*
X2302480Y2514920D01*
X2301660Y2513560D01*
X2300380Y2512620D01*
X2298840Y2512260D01*
X2297260Y2512520D01*
X2295220Y2513320D01*
X2291760Y2513960D01*
X2288240Y2513960D01*
X2284780Y2513320D01*
X2281520Y2512040D01*
X2278520Y2510200D01*
X2275920Y2507820D01*
X2273820Y2505020D01*
X2272240Y2501880D01*
X2271280Y2498500D01*
X2271180Y2497460D01*
X2270660Y2495840D01*
X2269520Y2494560D01*
X2267940Y2493900D01*
X2264780Y2493320D01*
X2261520Y2492040D01*
X2258520Y2490200D01*
X2255920Y2487820D01*
X2253820Y2485020D01*
X2252240Y2481880D01*
X2251280Y2478500D01*
X2250960Y2475000D01*
X2251280Y2471500D01*
X2252240Y2468120D01*
X2253820Y2464980D01*
X2255920Y2462180D01*
X2258520Y2459800D01*
X2261520Y2457960D01*
X2264780Y2456680D01*
X2266200Y2456420D01*
X2267340Y2456020D01*
X2268300Y2455320D01*
X2419160Y2304440D01*
X2421600Y2302440D01*
X2424220Y2301040D01*
X2427060Y2300180D01*
X2430200Y2299880D01*
X2454760Y2299880D01*
X2456360Y2299560D01*
X2457680Y2298620D01*
X2458520Y2297260D01*
X2458760Y2295660D01*
X2458340Y2294100D01*
X2457240Y2291880D01*
X2456220Y2288260D01*
X2455560Y2286940D01*
X2454480Y2285940D01*
X2453100Y2285420D01*
X2451640Y2285420D01*
X2450260Y2285940D01*
X2448480Y2287040D01*
X2445220Y2288320D01*
X2441760Y2288960D01*
X2438240Y2288960D01*
X2434780Y2288320D01*
X2431520Y2287040D01*
X2428520Y2285200D01*
X2425920Y2282820D01*
X2423820Y2280020D01*
X2422240Y2276880D01*
X2421280Y2273500D01*
X2420960Y2270000D01*
X2421280Y2266500D01*
X2422240Y2263120D01*
X2423820Y2259980D01*
X2425920Y2257180D01*
X2428520Y2254800D01*
X2431520Y2252960D01*
X2434780Y2251680D01*
X2438240Y2251040D01*
X2441760Y2251040D01*
X2445220Y2251680D01*
X2448480Y2252960D01*
X2451480Y2254800D01*
X2454080Y2257180D01*
X2456180Y2259980D01*
X2457760Y2263120D01*
X2458780Y2266740D01*
X2459440Y2268060D01*
X2460520Y2269060D01*
X2461900Y2269580D01*
X2463360Y2269580D01*
X2464740Y2269060D01*
X2466520Y2267960D01*
X2469780Y2266680D01*
X2473240Y2266040D01*
X2476760Y2266040D01*
X2480220Y2266680D01*
X2483480Y2267960D01*
X2486480Y2269800D01*
X2489080Y2272180D01*
X2491180Y2274980D01*
X2492760Y2278120D01*
X2493720Y2281500D01*
X2494040Y2285000D01*
X2493720Y2288500D01*
X2492760Y2291880D01*
X2491660Y2294100D01*
X2491240Y2295660D01*
X2491480Y2297260D01*
X2492320Y2298620D01*
X2493640Y2299560D01*
X2495240Y2299880D01*
X2589760Y2299880D01*
X2591360Y2299560D01*
X2592679Y2298620D01*
X2593519Y2297260D01*
X2593759Y2295660D01*
X2593340Y2294100D01*
X2592240Y2291880D01*
X2591280Y2288500D01*
X2590960Y2285000D01*
X2591280Y2281500D01*
X2592240Y2278120D01*
X2593820Y2274980D01*
X2595920Y2272180D01*
X2598140Y2270160D01*
X2599120Y2268760D01*
X2599440Y2267060D01*
X2599020Y2265400D01*
X2597240Y2261880D01*
X2596280Y2258500D01*
X2595960Y2255000D01*
X2596280Y2251500D01*
X2597240Y2248120D01*
X2598820Y2244980D01*
X2600920Y2242180D01*
X2603519Y2239800D01*
X2606520Y2237960D01*
X2607980Y2237380D01*
X2609240Y2236620D01*
X2610120Y2235440D01*
X2610520Y2234020D01*
X2610380Y2232560D01*
X2609740Y2231240D01*
X2608820Y2230020D01*
X2607240Y2226880D01*
X2606280Y2223500D01*
X2605960Y2220000D01*
X2606280Y2216500D01*
X2607240Y2213120D01*
X2608820Y2209980D01*
X2610920Y2207180D01*
X2613519Y2204800D01*
X2616520Y2202960D01*
X2619780Y2201680D01*
X2623240Y2201040D01*
X2626760Y2201040D01*
X2630220Y2201680D01*
X2633480Y2202960D01*
X2636480Y2204800D01*
X2639080Y2207180D01*
X2641180Y2209980D01*
X2642760Y2213120D01*
X2643720Y2216500D01*
X2644040Y2220000D01*
X2643720Y2223500D01*
X2642760Y2226880D01*
X2641180Y2230020D01*
X2639080Y2232820D01*
X2636480Y2235200D01*
X2633480Y2237040D01*
X2632020Y2237620D01*
X2630760Y2238380D01*
X2629880Y2239560D01*
X2629480Y2240980D01*
X2629620Y2242440D01*
X2630260Y2243760D01*
X2631180Y2244980D01*
X2632760Y2248120D01*
X2633720Y2251500D01*
X2634040Y2255000D01*
X2633720Y2258500D01*
X2632760Y2261880D01*
X2631180Y2265020D01*
X2629080Y2267820D01*
X2626860Y2269840D01*
X2625880Y2271240D01*
X2625560Y2272940D01*
X2625980Y2274600D01*
X2627760Y2278120D01*
X2628720Y2281500D01*
X2629040Y2285000D01*
X2628720Y2288500D01*
X2627760Y2291880D01*
X2626660Y2294100D01*
X2626240Y2295660D01*
X2626480Y2297260D01*
X2627320Y2298620D01*
X2628639Y2299560D01*
X2630240Y2299880D01*
X2732080Y2299880D01*
X2733620Y2299580D01*
X2734900Y2298700D01*
X2814160Y2219440D01*
X2816600Y2217440D01*
X2819220Y2216040D01*
X2822060Y2215180D01*
X2825200Y2214880D01*
X2827799Y2214880D01*
X2829240Y2214600D01*
X2830500Y2213840D01*
X2831380Y2212660D01*
X2831780Y2211240D01*
X2831640Y2209780D01*
X2831280Y2208500D01*
X2830960Y2205000D01*
X2831280Y2201500D01*
X2832240Y2198120D01*
X2833820Y2194980D01*
X2835920Y2192180D01*
X2838519Y2189800D01*
X2841520Y2187960D01*
X2844780Y2186680D01*
X2848240Y2186040D01*
X2851760Y2186040D01*
X2855220Y2186680D01*
X2858480Y2187960D01*
X2861480Y2189800D01*
X2864080Y2192180D01*
X2866180Y2194980D01*
X2866420Y2195440D01*
X2867540Y2196800D01*
X2869120Y2197560D01*
X2870880Y2197560D01*
X2872460Y2196800D01*
X2873580Y2195440D01*
X2873820Y2194980D01*
X2875920Y2192180D01*
X2878519Y2189800D01*
X2881520Y2187960D01*
X2884780Y2186680D01*
X2888240Y2186040D01*
X2891760Y2186040D01*
X2895220Y2186680D01*
X2898480Y2187960D01*
X2901480Y2189800D01*
X2904080Y2192180D01*
X2906180Y2194980D01*
X2907760Y2198120D01*
X2908720Y2201500D01*
X2909040Y2205000D01*
X2908720Y2208500D01*
X2908360Y2209780D01*
X2908220Y2211240D01*
X2908620Y2212660D01*
X2909500Y2213840D01*
X2910760Y2214600D01*
X2912200Y2214880D01*
X2969800Y2214880D01*
X2972940Y2215180D01*
X2975779Y2216040D01*
X2978399Y2217440D01*
X2980840Y2219440D01*
X3005560Y2244160D01*
X3007559Y2246600D01*
X3008960Y2249220D01*
X3009820Y2252060D01*
X3010120Y2255200D01*
X3010120Y2274360D01*
X3010400Y2275820D01*
X3011180Y2277080D01*
X3012380Y2277960D01*
X3013820Y2278360D01*
X3015299Y2278180D01*
X3016620Y2277500D01*
X3019440Y2275240D01*
X3023320Y2273000D01*
X3027480Y2271380D01*
X3031820Y2270380D01*
X3036420Y2270040D01*
X3087300Y2270040D01*
X3091920Y2270380D01*
X3096259Y2271380D01*
X3100419Y2273000D01*
X3104280Y2275240D01*
X3107780Y2278020D01*
X3110820Y2281300D01*
X3112500Y2283760D01*
X3113720Y2284920D01*
X3115299Y2285480D01*
X3116980Y2285320D01*
X3118440Y2284500D01*
X3119440Y2283140D01*
X3119800Y2281500D01*
X3119800Y2014199D01*
X3119500Y2012660D01*
X3118620Y2011380D01*
X3117340Y2010500D01*
X3115800Y2010200D01*
X2445880Y2010200D01*
X2444360Y2010500D01*
X2443060Y2011380D01*
X2347320Y2107100D01*
X2346180Y2108080D01*
X2343640Y2109480D01*
X2341520Y2110080D01*
X2339840Y2110200D01*
X1400180Y2110200D01*
X1397780Y2110000D01*
X1395020Y2109920D01*
X1394720Y2109720D01*
X1296380Y2011380D01*
X1295080Y2010500D01*
X1293540Y2010200D01*
G37*

%LPC*%
G36*
X1113240Y2206040D02*
G01*
X1116760Y2206040D01*
X1120220Y2206680D01*
X1123480Y2207960D01*
X1126480Y2209800D01*
X1129080Y2212180D01*
X1131180Y2214980D01*
X1132760Y2218120D01*
X1133720Y2221500D01*
X1134040Y2225000D01*
X1133720Y2228500D01*
X1132760Y2231880D01*
X1131180Y2235020D01*
X1129080Y2237820D01*
X1126480Y2240200D01*
X1123480Y2242040D01*
X1120220Y2243320D01*
X1116760Y2243960D01*
X1113240Y2243960D01*
X1109780Y2243320D01*
X1106520Y2242040D01*
X1103520Y2240200D01*
X1100920Y2237820D01*
X1098820Y2235020D01*
X1097240Y2231880D01*
X1096280Y2228500D01*
X1095960Y2225000D01*
X1096280Y2221500D01*
X1097240Y2218120D01*
X1098820Y2214980D01*
X1100920Y2212180D01*
X1103520Y2209800D01*
X1106520Y2207960D01*
X1109780Y2206680D01*
G37*
G36*
X1183240Y2206040D02*
G01*
X1186760Y2206040D01*
X1190220Y2206680D01*
X1193480Y2207960D01*
X1196480Y2209800D01*
X1199080Y2212180D01*
X1201180Y2214980D01*
X1202760Y2218120D01*
X1203720Y2221500D01*
X1204040Y2225000D01*
X1203720Y2228500D01*
X1202760Y2231880D01*
X1201180Y2235020D01*
X1199080Y2237820D01*
X1196480Y2240200D01*
X1193480Y2242040D01*
X1190220Y2243320D01*
X1186760Y2243960D01*
X1183240Y2243960D01*
X1179780Y2243320D01*
X1176520Y2242040D01*
X1173520Y2240200D01*
X1170920Y2237820D01*
X1168820Y2235020D01*
X1167240Y2231880D01*
X1166280Y2228500D01*
X1165960Y2225000D01*
X1166280Y2221500D01*
X1167240Y2218120D01*
X1168820Y2214980D01*
X1170920Y2212180D01*
X1173520Y2209800D01*
X1176520Y2207960D01*
X1179780Y2206680D01*
G37*
G36*
X2388240Y2211040D02*
G01*
X2391760Y2211040D01*
X2395220Y2211680D01*
X2398480Y2212960D01*
X2401480Y2214800D01*
X2404080Y2217180D01*
X2406180Y2219980D01*
X2407760Y2223120D01*
X2408720Y2226500D01*
X2409040Y2230000D01*
X2408720Y2233500D01*
X2407760Y2236880D01*
X2406180Y2240020D01*
X2404080Y2242820D01*
X2401480Y2245200D01*
X2398480Y2247040D01*
X2395220Y2248320D01*
X2391760Y2248960D01*
X2388240Y2248960D01*
X2384780Y2248320D01*
X2381520Y2247040D01*
X2378520Y2245200D01*
X2375920Y2242820D01*
X2373820Y2240020D01*
X2372240Y2236880D01*
X2371280Y2233500D01*
X2370960Y2230000D01*
X2371280Y2226500D01*
X2372240Y2223120D01*
X2373820Y2219980D01*
X2375920Y2217180D01*
X2378520Y2214800D01*
X2381520Y2212960D01*
X2384780Y2211680D01*
G37*
G36*
X1011460Y2258460D02*
G01*
X1016900Y2258820D01*
X1022240Y2259880D01*
X1027400Y2261640D01*
X1032300Y2264040D01*
X1036840Y2267080D01*
X1040939Y2270680D01*
X1044520Y2274780D01*
X1047560Y2279300D01*
X1049960Y2284200D01*
X1051720Y2289360D01*
X1052780Y2294700D01*
X1053140Y2300140D01*
X1052780Y2305600D01*
X1051720Y2310940D01*
X1049960Y2316100D01*
X1047560Y2321000D01*
X1044520Y2325520D01*
X1040939Y2329620D01*
X1036840Y2333220D01*
X1032300Y2336260D01*
X1027400Y2338660D01*
X1022240Y2340420D01*
X1016900Y2341480D01*
X1011460Y2341840D01*
X1006020Y2341480D01*
X1000660Y2340420D01*
X995500Y2338660D01*
X990620Y2336260D01*
X986080Y2333220D01*
X981979Y2329620D01*
X978379Y2325520D01*
X975360Y2321000D01*
X972940Y2316100D01*
X971180Y2310940D01*
X970120Y2305600D01*
X969760Y2300140D01*
X970120Y2294700D01*
X971180Y2289360D01*
X972940Y2284200D01*
X975360Y2279300D01*
X978379Y2274780D01*
X981979Y2270680D01*
X986080Y2267080D01*
X990620Y2264040D01*
X995500Y2261640D01*
X1000660Y2259880D01*
X1006020Y2258820D01*
G37*
G36*
X1778240Y2266040D02*
G01*
X1781759Y2266040D01*
X1785220Y2266680D01*
X1788480Y2267960D01*
X1791480Y2269800D01*
X1794079Y2272180D01*
X1796180Y2274980D01*
X1797760Y2278120D01*
X1798160Y2279560D01*
X1798940Y2281020D01*
X1800240Y2282060D01*
X1801819Y2282460D01*
X1803460Y2282200D01*
X1804780Y2281680D01*
X1808240Y2281040D01*
X1811759Y2281040D01*
X1815220Y2281680D01*
X1818480Y2282960D01*
X1821480Y2284800D01*
X1824079Y2287180D01*
X1826180Y2289980D01*
X1827760Y2293120D01*
X1828720Y2296500D01*
X1829040Y2300000D01*
X1828720Y2303500D01*
X1827760Y2306880D01*
X1826180Y2310020D01*
X1824079Y2312820D01*
X1821480Y2315200D01*
X1818480Y2317040D01*
X1815220Y2318320D01*
X1811759Y2318960D01*
X1808240Y2318960D01*
X1804780Y2318320D01*
X1801519Y2317040D01*
X1798520Y2315200D01*
X1795920Y2312820D01*
X1793820Y2310020D01*
X1792240Y2306880D01*
X1791840Y2305440D01*
X1791060Y2303980D01*
X1789760Y2302940D01*
X1788180Y2302540D01*
X1786540Y2302800D01*
X1785220Y2303320D01*
X1781759Y2303960D01*
X1778240Y2303960D01*
X1774780Y2303320D01*
X1771519Y2302040D01*
X1768520Y2300200D01*
X1765920Y2297820D01*
X1763820Y2295020D01*
X1762240Y2291880D01*
X1761279Y2288500D01*
X1760960Y2285000D01*
X1761279Y2281500D01*
X1762240Y2278120D01*
X1763820Y2274980D01*
X1765920Y2272180D01*
X1768520Y2269800D01*
X1771519Y2267960D01*
X1774780Y2266680D01*
G37*
G36*
X911460Y2308460D02*
G01*
X916900Y2308820D01*
X922240Y2309880D01*
X927400Y2311640D01*
X932300Y2314040D01*
X936840Y2317080D01*
X940939Y2320680D01*
X944520Y2324780D01*
X947560Y2329300D01*
X949960Y2334200D01*
X951720Y2339360D01*
X952780Y2344700D01*
X953139Y2350140D01*
X952780Y2355600D01*
X951720Y2360940D01*
X949960Y2366100D01*
X947560Y2371000D01*
X944520Y2375520D01*
X940939Y2379620D01*
X936840Y2383220D01*
X932300Y2386260D01*
X927400Y2388660D01*
X922240Y2390420D01*
X916900Y2391480D01*
X911460Y2391840D01*
X906020Y2391480D01*
X900660Y2390420D01*
X895500Y2388660D01*
X890620Y2386260D01*
X886080Y2383220D01*
X881979Y2379620D01*
X878379Y2375520D01*
X875360Y2371000D01*
X872940Y2366100D01*
X871180Y2360940D01*
X870120Y2355600D01*
X869760Y2350140D01*
X870120Y2344700D01*
X871180Y2339360D01*
X872940Y2334200D01*
X875360Y2329300D01*
X878379Y2324780D01*
X881979Y2320680D01*
X886080Y2317080D01*
X890620Y2314040D01*
X895500Y2311640D01*
X900660Y2309880D01*
X906020Y2308820D01*
G37*
G36*
X2283240Y2316040D02*
G01*
X2286760Y2316040D01*
X2290220Y2316680D01*
X2293480Y2317960D01*
X2296480Y2319800D01*
X2299080Y2322180D01*
X2301180Y2324980D01*
X2302760Y2328120D01*
X2303720Y2331500D01*
X2304040Y2335000D01*
X2303720Y2338500D01*
X2302760Y2341880D01*
X2301180Y2345020D01*
X2299080Y2347820D01*
X2296480Y2350200D01*
X2293480Y2352040D01*
X2290220Y2353320D01*
X2286760Y2353960D01*
X2283240Y2353960D01*
X2279780Y2353320D01*
X2276520Y2352040D01*
X2273520Y2350200D01*
X2270920Y2347820D01*
X2268820Y2345020D01*
X2267240Y2341880D01*
X2266280Y2338500D01*
X2265960Y2335000D01*
X2266280Y2331500D01*
X2267240Y2328120D01*
X2268820Y2324980D01*
X2270920Y2322180D01*
X2273520Y2319800D01*
X2276520Y2317960D01*
X2279780Y2316680D01*
G37*
G36*
X1938240Y2326040D02*
G01*
X1941759Y2326040D01*
X1945220Y2326680D01*
X1948480Y2327960D01*
X1951480Y2329800D01*
X1954079Y2332180D01*
X1956180Y2334980D01*
X1957760Y2338120D01*
X1958720Y2341500D01*
X1959040Y2345000D01*
X1958720Y2348500D01*
X1957760Y2351880D01*
X1956180Y2355020D01*
X1954079Y2357820D01*
X1951480Y2360200D01*
X1948480Y2362040D01*
X1945220Y2363320D01*
X1941759Y2363960D01*
X1938240Y2363960D01*
X1934780Y2363320D01*
X1931519Y2362040D01*
X1928520Y2360200D01*
X1925920Y2357820D01*
X1923820Y2355020D01*
X1922240Y2351880D01*
X1921279Y2348500D01*
X1920960Y2345000D01*
X1921279Y2341500D01*
X1922240Y2338120D01*
X1923820Y2334980D01*
X1925920Y2332180D01*
X1928520Y2329800D01*
X1931519Y2327960D01*
X1934780Y2326680D01*
G37*
G36*
X1011460Y2358460D02*
G01*
X1016900Y2358820D01*
X1022240Y2359880D01*
X1027400Y2361640D01*
X1032300Y2364040D01*
X1036840Y2367080D01*
X1040939Y2370680D01*
X1044520Y2374780D01*
X1047560Y2379300D01*
X1049960Y2384200D01*
X1051720Y2389360D01*
X1052780Y2394700D01*
X1053140Y2400140D01*
X1052780Y2405600D01*
X1051720Y2410940D01*
X1049960Y2416100D01*
X1047560Y2421000D01*
X1044520Y2425520D01*
X1040939Y2429620D01*
X1036840Y2433220D01*
X1032300Y2436260D01*
X1027400Y2438660D01*
X1022240Y2440420D01*
X1016900Y2441480D01*
X1011460Y2441840D01*
X1006020Y2441480D01*
X1000660Y2440420D01*
X995500Y2438660D01*
X990620Y2436260D01*
X986080Y2433220D01*
X981979Y2429620D01*
X978379Y2425520D01*
X975360Y2421000D01*
X972940Y2416100D01*
X971180Y2410940D01*
X970120Y2405600D01*
X969760Y2400140D01*
X970120Y2394700D01*
X971180Y2389360D01*
X972940Y2384200D01*
X975360Y2379300D01*
X978379Y2374780D01*
X981979Y2370680D01*
X986080Y2367080D01*
X990620Y2364040D01*
X995500Y2361640D01*
X1000660Y2359880D01*
X1006020Y2358820D01*
G37*
G36*
X2118240Y2376040D02*
G01*
X2121760Y2376040D01*
X2125220Y2376680D01*
X2128480Y2377960D01*
X2131480Y2379800D01*
X2134080Y2382180D01*
X2136180Y2384980D01*
X2137760Y2388120D01*
X2138720Y2391500D01*
X2139040Y2395000D01*
X2138720Y2398500D01*
X2137760Y2401880D01*
X2136180Y2405020D01*
X2134080Y2407820D01*
X2131480Y2410200D01*
X2128480Y2412040D01*
X2125220Y2413320D01*
X2121760Y2413960D01*
X2118240Y2413960D01*
X2114780Y2413320D01*
X2111520Y2412040D01*
X2108520Y2410200D01*
X2105920Y2407820D01*
X2103820Y2405020D01*
X2102240Y2401880D01*
X2101280Y2398500D01*
X2100960Y2395000D01*
X2101280Y2391500D01*
X2102240Y2388120D01*
X2103820Y2384980D01*
X2105920Y2382180D01*
X2108520Y2379800D01*
X2111520Y2377960D01*
X2114780Y2376680D01*
G37*
G36*
X2178240Y2376040D02*
G01*
X2181760Y2376040D01*
X2185220Y2376680D01*
X2188480Y2377960D01*
X2191480Y2379800D01*
X2194080Y2382180D01*
X2196180Y2384980D01*
X2196960Y2386520D01*
X2197960Y2387780D01*
X2199360Y2388560D01*
X2200980Y2388700D01*
X2202520Y2388200D01*
X2203720Y2387140D01*
X2205920Y2384220D01*
X2208520Y2381860D01*
X2211520Y2380000D01*
X2214780Y2378740D01*
X2218240Y2378100D01*
X2221760Y2378100D01*
X2225220Y2378740D01*
X2228480Y2380000D01*
X2231480Y2381860D01*
X2234080Y2384220D01*
X2236180Y2387020D01*
X2237760Y2390180D01*
X2238720Y2393560D01*
X2239040Y2397040D01*
X2238720Y2400540D01*
X2237760Y2403920D01*
X2236180Y2407080D01*
X2234080Y2409880D01*
X2231480Y2412240D01*
X2228480Y2414100D01*
X2225220Y2415360D01*
X2221760Y2416000D01*
X2218240Y2416000D01*
X2214780Y2415360D01*
X2211520Y2414100D01*
X2208520Y2412240D01*
X2205920Y2409880D01*
X2203820Y2407080D01*
X2203040Y2405540D01*
X2202040Y2404260D01*
X2200640Y2403500D01*
X2199020Y2403340D01*
X2197480Y2403840D01*
X2196280Y2404920D01*
X2194080Y2407820D01*
X2191480Y2410200D01*
X2188480Y2412040D01*
X2185220Y2413320D01*
X2181760Y2413960D01*
X2178240Y2413960D01*
X2174780Y2413320D01*
X2171520Y2412040D01*
X2168520Y2410200D01*
X2165920Y2407820D01*
X2163820Y2405020D01*
X2162240Y2401880D01*
X2161280Y2398500D01*
X2160960Y2395000D01*
X2161280Y2391500D01*
X2162240Y2388120D01*
X2163820Y2384980D01*
X2165920Y2382180D01*
X2168520Y2379800D01*
X2171520Y2377960D01*
X2174780Y2376680D01*
G37*
G36*
X2073240Y2391040D02*
G01*
X2076759Y2391040D01*
X2080220Y2391680D01*
X2083480Y2392960D01*
X2086480Y2394800D01*
X2089079Y2397180D01*
X2091180Y2399980D01*
X2092760Y2403120D01*
X2093720Y2406500D01*
X2094040Y2410000D01*
X2093720Y2413500D01*
X2092760Y2416880D01*
X2091180Y2420020D01*
X2089079Y2422820D01*
X2086480Y2425200D01*
X2083480Y2427040D01*
X2080220Y2428320D01*
X2076759Y2428960D01*
X2073240Y2428960D01*
X2069780Y2428320D01*
X2066519Y2427040D01*
X2063520Y2425200D01*
X2060920Y2422820D01*
X2058820Y2420020D01*
X2057240Y2416880D01*
X2056279Y2413500D01*
X2055960Y2410000D01*
X2056279Y2406500D01*
X2057240Y2403120D01*
X2058820Y2399980D01*
X2060920Y2397180D01*
X2063520Y2394800D01*
X2066519Y2392960D01*
X2069780Y2391680D01*
G37*
G36*
X1953240Y2396040D02*
G01*
X1956759Y2396040D01*
X1960220Y2396680D01*
X1963480Y2397960D01*
X1966480Y2399800D01*
X1969079Y2402180D01*
X1971180Y2404980D01*
X1972760Y2408120D01*
X1973720Y2411500D01*
X1974040Y2415000D01*
X1973720Y2418500D01*
X1972760Y2421880D01*
X1971180Y2425020D01*
X1969079Y2427820D01*
X1966480Y2430200D01*
X1963480Y2432040D01*
X1960220Y2433320D01*
X1956759Y2433960D01*
X1953240Y2433960D01*
X1949780Y2433320D01*
X1946519Y2432040D01*
X1943520Y2430200D01*
X1940920Y2427820D01*
X1938820Y2425020D01*
X1937240Y2421880D01*
X1936279Y2418500D01*
X1935960Y2415000D01*
X1936279Y2411500D01*
X1937240Y2408120D01*
X1938820Y2404980D01*
X1940920Y2402180D01*
X1943520Y2399800D01*
X1946519Y2397960D01*
X1949780Y2396680D01*
G37*
G36*
X911460Y2408460D02*
G01*
X916900Y2408820D01*
X922240Y2409880D01*
X927400Y2411640D01*
X932300Y2414040D01*
X936840Y2417080D01*
X940939Y2420680D01*
X944520Y2424780D01*
X947560Y2429300D01*
X949960Y2434200D01*
X951720Y2439360D01*
X952780Y2444700D01*
X953139Y2450140D01*
X952780Y2455600D01*
X951720Y2460940D01*
X949960Y2466100D01*
X947560Y2471000D01*
X944520Y2475520D01*
X940939Y2479620D01*
X936840Y2483220D01*
X932300Y2486260D01*
X927400Y2488660D01*
X922240Y2490420D01*
X916900Y2491480D01*
X911460Y2491840D01*
X906020Y2491480D01*
X900660Y2490420D01*
X895500Y2488660D01*
X890620Y2486260D01*
X886080Y2483220D01*
X881979Y2479620D01*
X878379Y2475520D01*
X875360Y2471000D01*
X872940Y2466100D01*
X871180Y2460940D01*
X870120Y2455600D01*
X869760Y2450140D01*
X870120Y2444700D01*
X871180Y2439360D01*
X872940Y2434200D01*
X875360Y2429300D01*
X878379Y2424780D01*
X881979Y2420680D01*
X886080Y2417080D01*
X890620Y2414040D01*
X895500Y2411640D01*
X900660Y2409880D01*
X906020Y2408820D01*
G37*
G36*
X2823240Y2431040D02*
G01*
X2826760Y2431040D01*
X2830220Y2431680D01*
X2833480Y2432960D01*
X2836480Y2434800D01*
X2839080Y2437180D01*
X2841180Y2439980D01*
X2842760Y2443120D01*
X2843720Y2446500D01*
X2844040Y2450000D01*
X2843720Y2453500D01*
X2842760Y2456880D01*
X2841180Y2460020D01*
X2839080Y2462820D01*
X2836480Y2465200D01*
X2833480Y2467040D01*
X2830220Y2468320D01*
X2826760Y2468960D01*
X2823240Y2468960D01*
X2819780Y2468320D01*
X2816520Y2467040D01*
X2813519Y2465200D01*
X2810920Y2462820D01*
X2808820Y2460020D01*
X2807240Y2456880D01*
X2806280Y2453500D01*
X2805960Y2450000D01*
X2806280Y2446500D01*
X2807240Y2443120D01*
X2808820Y2439980D01*
X2810920Y2437180D01*
X2813519Y2434800D01*
X2816520Y2432960D01*
X2819780Y2431680D01*
G37*
G36*
X1637020Y2441280D02*
G01*
X1640520Y2441280D01*
X1643980Y2441920D01*
X1647260Y2443180D01*
X1650240Y2445040D01*
X1652840Y2447400D01*
X1654960Y2450200D01*
X1656519Y2453360D01*
X1657480Y2456740D01*
X1657820Y2460220D01*
X1657480Y2463720D01*
X1656519Y2467100D01*
X1654960Y2470260D01*
X1652840Y2473060D01*
X1650240Y2475420D01*
X1647260Y2477280D01*
X1643980Y2478540D01*
X1640520Y2479180D01*
X1637020Y2479180D01*
X1633560Y2478540D01*
X1630280Y2477280D01*
X1627300Y2475420D01*
X1624700Y2473060D01*
X1622580Y2470260D01*
X1621020Y2467100D01*
X1620060Y2463720D01*
X1619720Y2460220D01*
X1620060Y2456740D01*
X1621020Y2453360D01*
X1622580Y2450200D01*
X1624700Y2447400D01*
X1627300Y2445040D01*
X1630280Y2443180D01*
X1633560Y2441920D01*
G37*
G36*
X1011460Y2458460D02*
G01*
X1016900Y2458820D01*
X1022240Y2459880D01*
X1027400Y2461640D01*
X1032300Y2464040D01*
X1036840Y2467080D01*
X1040939Y2470680D01*
X1044520Y2474780D01*
X1047560Y2479300D01*
X1049960Y2484200D01*
X1051720Y2489360D01*
X1052780Y2494700D01*
X1053140Y2500140D01*
X1052780Y2505600D01*
X1051720Y2510940D01*
X1049960Y2516100D01*
X1047560Y2521000D01*
X1044520Y2525520D01*
X1040939Y2529620D01*
X1036840Y2533220D01*
X1032300Y2536260D01*
X1027400Y2538660D01*
X1022240Y2540420D01*
X1016900Y2541480D01*
X1011460Y2541840D01*
X1006020Y2541480D01*
X1000660Y2540420D01*
X995500Y2538660D01*
X990620Y2536260D01*
X986080Y2533220D01*
X981979Y2529620D01*
X978379Y2525520D01*
X975360Y2521000D01*
X972940Y2516100D01*
X971180Y2510940D01*
X970120Y2505600D01*
X969760Y2500140D01*
X970120Y2494700D01*
X971180Y2489360D01*
X972940Y2484200D01*
X975360Y2479300D01*
X978379Y2474780D01*
X981979Y2470680D01*
X986080Y2467080D01*
X990620Y2464040D01*
X995500Y2461640D01*
X1000660Y2459880D01*
X1006020Y2458820D01*
G37*
G36*
X1583240Y2466040D02*
G01*
X1586759Y2466040D01*
X1590220Y2466680D01*
X1593480Y2467960D01*
X1596480Y2469800D01*
X1599079Y2472180D01*
X1601180Y2474980D01*
X1602760Y2478120D01*
X1603720Y2481500D01*
X1604040Y2485000D01*
X1603720Y2488500D01*
X1602760Y2491880D01*
X1601180Y2495020D01*
X1599079Y2497820D01*
X1596480Y2500200D01*
X1593480Y2502040D01*
X1590220Y2503320D01*
X1586759Y2503960D01*
X1583240Y2503960D01*
X1579780Y2503320D01*
X1576519Y2502040D01*
X1573520Y2500200D01*
X1570920Y2497820D01*
X1568820Y2495020D01*
X1567240Y2491880D01*
X1566279Y2488500D01*
X1565960Y2485000D01*
X1566279Y2481500D01*
X1567240Y2478120D01*
X1568820Y2474980D01*
X1570920Y2472180D01*
X1573520Y2469800D01*
X1576519Y2467960D01*
X1579780Y2466680D01*
G37*
G36*
X1113240Y2496040D02*
G01*
X1116760Y2496040D01*
X1120220Y2496680D01*
X1123480Y2497960D01*
X1126480Y2499800D01*
X1129080Y2502180D01*
X1131180Y2504980D01*
X1132760Y2508120D01*
X1133720Y2511500D01*
X1134040Y2515000D01*
X1133720Y2518500D01*
X1132760Y2521880D01*
X1131180Y2525020D01*
X1129080Y2527820D01*
X1126480Y2530200D01*
X1123480Y2532040D01*
X1120220Y2533320D01*
X1116760Y2533960D01*
X1113240Y2533960D01*
X1109780Y2533320D01*
X1106520Y2532040D01*
X1103520Y2530200D01*
X1100920Y2527820D01*
X1098820Y2525020D01*
X1097240Y2521880D01*
X1096280Y2518500D01*
X1095960Y2515000D01*
X1096280Y2511500D01*
X1097240Y2508120D01*
X1098820Y2504980D01*
X1100920Y2502180D01*
X1103520Y2499800D01*
X1106520Y2497960D01*
X1109780Y2496680D01*
G37*
G36*
X1973240Y2496040D02*
G01*
X1976759Y2496040D01*
X1980220Y2496680D01*
X1983480Y2497960D01*
X1986480Y2499800D01*
X1989079Y2502180D01*
X1991180Y2504980D01*
X1992760Y2508120D01*
X1993720Y2511500D01*
X1994040Y2515000D01*
X1993720Y2518500D01*
X1992760Y2521880D01*
X1991180Y2525020D01*
X1989079Y2527820D01*
X1986480Y2530200D01*
X1983480Y2532040D01*
X1980220Y2533320D01*
X1976759Y2533960D01*
X1973240Y2533960D01*
X1969780Y2533320D01*
X1966519Y2532040D01*
X1963520Y2530200D01*
X1960920Y2527820D01*
X1958820Y2525020D01*
X1957240Y2521880D01*
X1956279Y2518500D01*
X1955960Y2515000D01*
X1956279Y2511500D01*
X1957240Y2508120D01*
X1958820Y2504980D01*
X1960920Y2502180D01*
X1963520Y2499800D01*
X1966519Y2497960D01*
X1969780Y2496680D01*
G37*
G36*
X911460Y2508460D02*
G01*
X916900Y2508820D01*
X922240Y2509880D01*
X927400Y2511640D01*
X932300Y2514040D01*
X936840Y2517080D01*
X940939Y2520680D01*
X944520Y2524780D01*
X947560Y2529300D01*
X949960Y2534200D01*
X951720Y2539360D01*
X952780Y2544700D01*
X953139Y2550140D01*
X952780Y2555600D01*
X951720Y2560940D01*
X949960Y2566100D01*
X947560Y2571000D01*
X944520Y2575520D01*
X940939Y2579620D01*
X936840Y2583220D01*
X932300Y2586259D01*
X927400Y2588660D01*
X922240Y2590419D01*
X916900Y2591480D01*
X911460Y2591840D01*
X906020Y2591480D01*
X900660Y2590419D01*
X895500Y2588660D01*
X890620Y2586259D01*
X886080Y2583220D01*
X881979Y2579620D01*
X878379Y2575520D01*
X875360Y2571000D01*
X872940Y2566100D01*
X871180Y2560940D01*
X870120Y2555600D01*
X869760Y2550140D01*
X870120Y2544700D01*
X871180Y2539360D01*
X872940Y2534200D01*
X875360Y2529300D01*
X878379Y2524780D01*
X881979Y2520680D01*
X886080Y2517080D01*
X890620Y2514040D01*
X895500Y2511640D01*
X900660Y2509880D01*
X906020Y2508820D01*
G37*
G36*
X1543240Y2556040D02*
G01*
X1546759Y2556040D01*
X1550220Y2556680D01*
X1553480Y2557960D01*
X1556480Y2559800D01*
X1559079Y2562180D01*
X1561180Y2564980D01*
X1562760Y2568120D01*
X1563720Y2571500D01*
X1564040Y2575000D01*
X1563720Y2578500D01*
X1562760Y2581880D01*
X1561180Y2585020D01*
X1559079Y2587820D01*
X1556480Y2590200D01*
X1553480Y2592040D01*
X1550220Y2593320D01*
X1546759Y2593960D01*
X1543240Y2593960D01*
X1539780Y2593320D01*
X1536519Y2592040D01*
X1533520Y2590200D01*
X1530920Y2587820D01*
X1528820Y2585020D01*
X1527240Y2581880D01*
X1526279Y2578500D01*
X1525960Y2575000D01*
X1526279Y2571500D01*
X1527240Y2568120D01*
X1528820Y2564980D01*
X1530920Y2562180D01*
X1533520Y2559800D01*
X1536519Y2557960D01*
X1539780Y2556680D01*
G37*
G36*
X1011460Y2558460D02*
G01*
X1016900Y2558820D01*
X1022240Y2559880D01*
X1027400Y2561640D01*
X1032300Y2564040D01*
X1036840Y2567080D01*
X1040939Y2570680D01*
X1044520Y2574780D01*
X1047560Y2579300D01*
X1049960Y2584200D01*
X1051720Y2589360D01*
X1052780Y2594700D01*
X1053140Y2600140D01*
X1052780Y2605600D01*
X1051720Y2610940D01*
X1049960Y2616100D01*
X1047560Y2621000D01*
X1044520Y2625520D01*
X1040939Y2629620D01*
X1036840Y2633220D01*
X1032300Y2636259D01*
X1027400Y2638660D01*
X1022240Y2640419D01*
X1016900Y2641480D01*
X1011460Y2641840D01*
X1006020Y2641480D01*
X1000660Y2640419D01*
X995500Y2638660D01*
X990620Y2636259D01*
X986080Y2633220D01*
X981979Y2629620D01*
X978379Y2625520D01*
X975360Y2621000D01*
X972940Y2616100D01*
X971180Y2610940D01*
X970120Y2605600D01*
X969760Y2600140D01*
X970120Y2594700D01*
X971180Y2589360D01*
X972940Y2584200D01*
X975360Y2579300D01*
X978379Y2574780D01*
X981979Y2570680D01*
X986080Y2567080D01*
X990620Y2564040D01*
X995500Y2561640D01*
X1000660Y2559880D01*
X1006020Y2558820D01*
G37*
G36*
X2413240Y2581040D02*
G01*
X2416760Y2581040D01*
X2420220Y2581680D01*
X2423480Y2582960D01*
X2426480Y2584800D01*
X2429080Y2587180D01*
X2431180Y2589980D01*
X2432760Y2593120D01*
X2433720Y2596500D01*
X2434040Y2600000D01*
X2433720Y2603500D01*
X2432760Y2606880D01*
X2431180Y2610020D01*
X2429080Y2612820D01*
X2426480Y2615200D01*
X2423480Y2617040D01*
X2420220Y2618320D01*
X2416760Y2618960D01*
X2413240Y2618960D01*
X2409780Y2618320D01*
X2406520Y2617040D01*
X2403520Y2615200D01*
X2400920Y2612820D01*
X2398820Y2610020D01*
X2397240Y2606880D01*
X2396280Y2603500D01*
X2395960Y2600000D01*
X2396280Y2596500D01*
X2397240Y2593120D01*
X2398820Y2589980D01*
X2400920Y2587180D01*
X2403520Y2584800D01*
X2406520Y2582960D01*
X2409780Y2581680D01*
G37*
G36*
X2934960Y2583840D02*
G01*
X2938540Y2584000D01*
X2942040Y2584800D01*
X2945360Y2586220D01*
X2948340Y2588200D01*
X2950940Y2590680D01*
X2953060Y2593580D01*
X2954600Y2596820D01*
X2955560Y2600280D01*
X2955880Y2603840D01*
X2955560Y2607420D01*
X2954600Y2610880D01*
X2953060Y2614120D01*
X2950940Y2617020D01*
X2948340Y2619500D01*
X2945360Y2621480D01*
X2942040Y2622900D01*
X2938540Y2623700D01*
X2935899Y2623820D01*
X2934420Y2624160D01*
X2933200Y2625040D01*
X2932380Y2626320D01*
X2932080Y2627820D01*
X2932080Y2642940D01*
X2931740Y2647540D01*
X2930740Y2651880D01*
X2929120Y2656040D01*
X2926880Y2659920D01*
X2924100Y2663399D01*
X2920820Y2666440D01*
X2917140Y2668960D01*
X2913120Y2670899D01*
X2908840Y2672200D01*
X2904440Y2672880D01*
X2899960Y2672880D01*
X2895560Y2672200D01*
X2891280Y2670899D01*
X2889160Y2669980D01*
X2888260Y2669880D01*
X2861440Y2669880D01*
X2856840Y2669540D01*
X2852500Y2668540D01*
X2848340Y2666920D01*
X2844460Y2664680D01*
X2840980Y2661900D01*
X2837940Y2658620D01*
X2835419Y2654940D01*
X2833480Y2650899D01*
X2832180Y2646640D01*
X2831500Y2642220D01*
X2831500Y2637760D01*
X2832180Y2633340D01*
X2832440Y2632460D01*
X2832580Y2630680D01*
X2831940Y2629040D01*
X2830640Y2627820D01*
X2828940Y2627300D01*
X2827180Y2627559D01*
X2825220Y2628320D01*
X2821760Y2628960D01*
X2818240Y2628960D01*
X2814780Y2628320D01*
X2811520Y2627040D01*
X2808519Y2625200D01*
X2805920Y2622820D01*
X2803820Y2620020D01*
X2802240Y2616880D01*
X2801280Y2613500D01*
X2800960Y2610000D01*
X2801280Y2606500D01*
X2802240Y2603120D01*
X2803820Y2599980D01*
X2805920Y2597180D01*
X2808519Y2594800D01*
X2811520Y2592960D01*
X2814780Y2591680D01*
X2818240Y2591040D01*
X2821760Y2591040D01*
X2825220Y2591680D01*
X2828480Y2592960D01*
X2831480Y2594800D01*
X2834080Y2597180D01*
X2836180Y2599980D01*
X2837760Y2603120D01*
X2838720Y2606500D01*
X2839040Y2610000D01*
X2838920Y2611220D01*
X2839140Y2612940D01*
X2840080Y2614420D01*
X2841540Y2615340D01*
X2843260Y2615580D01*
X2844920Y2615059D01*
X2848340Y2613080D01*
X2852500Y2611440D01*
X2856840Y2610460D01*
X2861440Y2610100D01*
X2869680Y2610100D01*
X2871000Y2609880D01*
X2872180Y2609240D01*
X2873080Y2608240D01*
X2875280Y2602559D01*
X2877520Y2598700D01*
X2880299Y2595200D01*
X2883580Y2592160D01*
X2887260Y2589660D01*
X2891280Y2587720D01*
X2895560Y2586400D01*
X2899960Y2585740D01*
X2904440Y2585740D01*
X2908840Y2586400D01*
X2913120Y2587720D01*
X2917140Y2589660D01*
X2918700Y2590299D01*
X2920380Y2590220D01*
X2921880Y2589480D01*
X2924820Y2587140D01*
X2927980Y2585440D01*
X2931400Y2584320D01*
G37*
G36*
X1113240Y2606040D02*
G01*
X1116760Y2606040D01*
X1120220Y2606680D01*
X1123480Y2607960D01*
X1126480Y2609800D01*
X1129080Y2612180D01*
X1131180Y2614980D01*
X1132760Y2618120D01*
X1133720Y2621500D01*
X1134040Y2625000D01*
X1133720Y2628500D01*
X1132760Y2631880D01*
X1131180Y2635020D01*
X1129080Y2637820D01*
X1126480Y2640200D01*
X1123480Y2642040D01*
X1120220Y2643320D01*
X1116760Y2643960D01*
X1113240Y2643960D01*
X1109780Y2643320D01*
X1106520Y2642040D01*
X1103520Y2640200D01*
X1100920Y2637820D01*
X1098820Y2635020D01*
X1097240Y2631880D01*
X1096280Y2628500D01*
X1095960Y2625000D01*
X1096280Y2621500D01*
X1097240Y2618120D01*
X1098820Y2614980D01*
X1100920Y2612180D01*
X1103520Y2609800D01*
X1106520Y2607960D01*
X1109780Y2606680D01*
G37*
G36*
X880180Y2608460D02*
G01*
X942720Y2608460D01*
X945220Y2608740D01*
X947360Y2609480D01*
X949300Y2610700D01*
X950900Y2612320D01*
X952120Y2614240D01*
X952880Y2616400D01*
X953160Y2618880D01*
X953160Y2681420D01*
X952880Y2683920D01*
X952120Y2686060D01*
X950900Y2688000D01*
X949300Y2689600D01*
X947360Y2690820D01*
X945220Y2691560D01*
X942720Y2691840D01*
X880180Y2691840D01*
X877700Y2691560D01*
X875540Y2690820D01*
X873620Y2689600D01*
X872000Y2688000D01*
X870800Y2686060D01*
X870040Y2683920D01*
X869760Y2681420D01*
X869760Y2618880D01*
X870040Y2616400D01*
X870800Y2614240D01*
X872000Y2612320D01*
X873620Y2610700D01*
X875540Y2609480D01*
X877700Y2608740D01*
G37*
G36*
X2288240Y2611040D02*
G01*
X2291760Y2611040D01*
X2295220Y2611680D01*
X2298480Y2612960D01*
X2301480Y2614800D01*
X2304080Y2617180D01*
X2306180Y2619980D01*
X2307760Y2623120D01*
X2308720Y2626500D01*
X2309040Y2630000D01*
X2308720Y2633500D01*
X2307760Y2636880D01*
X2306180Y2640020D01*
X2304080Y2642820D01*
X2301480Y2645200D01*
X2298480Y2647040D01*
X2295220Y2648320D01*
X2291760Y2648960D01*
X2288240Y2648960D01*
X2284780Y2648320D01*
X2281520Y2647040D01*
X2278520Y2645200D01*
X2275920Y2642820D01*
X2273820Y2640020D01*
X2272240Y2636880D01*
X2271280Y2633500D01*
X2270960Y2630000D01*
X2271280Y2626500D01*
X2272240Y2623120D01*
X2273820Y2619980D01*
X2275920Y2617180D01*
X2278520Y2614800D01*
X2281520Y2612960D01*
X2284780Y2611680D01*
G37*
G36*
X1968240Y2626040D02*
G01*
X1971759Y2626040D01*
X1975220Y2626680D01*
X1978480Y2627960D01*
X1981480Y2629800D01*
X1984079Y2632180D01*
X1986180Y2634980D01*
X1987760Y2638120D01*
X1988720Y2641500D01*
X1989040Y2645000D01*
X1988720Y2648500D01*
X1987760Y2651880D01*
X1986180Y2655020D01*
X1984079Y2657820D01*
X1981480Y2660200D01*
X1978480Y2662040D01*
X1975220Y2663320D01*
X1971759Y2663960D01*
X1968240Y2663960D01*
X1964780Y2663320D01*
X1961519Y2662040D01*
X1958520Y2660200D01*
X1955920Y2657820D01*
X1953820Y2655020D01*
X1952240Y2651880D01*
X1951279Y2648500D01*
X1950960Y2645000D01*
X1951279Y2641500D01*
X1952240Y2638120D01*
X1953820Y2634980D01*
X1955920Y2632180D01*
X1958520Y2629800D01*
X1961519Y2627960D01*
X1964780Y2626680D01*
G37*
G36*
X1138240Y2646040D02*
G01*
X1141760Y2646040D01*
X1145220Y2646680D01*
X1148480Y2647960D01*
X1151480Y2649800D01*
X1154080Y2652180D01*
X1156180Y2654980D01*
X1157760Y2658120D01*
X1158720Y2661500D01*
X1159040Y2665000D01*
X1158720Y2668500D01*
X1157760Y2671880D01*
X1156180Y2675020D01*
X1154080Y2677820D01*
X1151480Y2680200D01*
X1148480Y2682040D01*
X1145220Y2683320D01*
X1141760Y2683960D01*
X1138240Y2683960D01*
X1134780Y2683320D01*
X1131520Y2682040D01*
X1128520Y2680200D01*
X1125920Y2677820D01*
X1123820Y2675020D01*
X1122240Y2671880D01*
X1121280Y2668500D01*
X1120960Y2665000D01*
X1121280Y2661500D01*
X1122240Y2658120D01*
X1123820Y2654980D01*
X1125920Y2652180D01*
X1128520Y2649800D01*
X1131520Y2647960D01*
X1134780Y2646680D01*
G37*
G36*
X2613240Y2646040D02*
G01*
X2616760Y2646040D01*
X2620220Y2646680D01*
X2623480Y2647960D01*
X2626480Y2649800D01*
X2629080Y2652180D01*
X2631180Y2654980D01*
X2632760Y2658120D01*
X2633720Y2661500D01*
X2634040Y2665000D01*
X2633720Y2668500D01*
X2632760Y2671880D01*
X2631180Y2675020D01*
X2629080Y2677820D01*
X2626480Y2680200D01*
X2623480Y2682040D01*
X2620220Y2683320D01*
X2616760Y2683960D01*
X2613240Y2683960D01*
X2609780Y2683320D01*
X2606520Y2682040D01*
X2603519Y2680200D01*
X2600920Y2677820D01*
X2598820Y2675020D01*
X2597240Y2671880D01*
X2596280Y2668500D01*
X2595960Y2665000D01*
X2596280Y2661500D01*
X2597240Y2658120D01*
X2598820Y2654980D01*
X2600920Y2652180D01*
X2603519Y2649800D01*
X2606520Y2647960D01*
X2609780Y2646680D01*
G37*
G36*
X2023240Y2676040D02*
G01*
X2026759Y2676040D01*
X2030220Y2676680D01*
X2033480Y2677960D01*
X2036480Y2679800D01*
X2039079Y2682180D01*
X2041180Y2684980D01*
X2042760Y2688120D01*
X2043720Y2691500D01*
X2044040Y2695000D01*
X2043720Y2698500D01*
X2042760Y2701880D01*
X2041180Y2705020D01*
X2039079Y2707820D01*
X2036480Y2710200D01*
X2033480Y2712040D01*
X2030220Y2713320D01*
X2026759Y2713960D01*
X2023240Y2713960D01*
X2019780Y2713320D01*
X2016519Y2712040D01*
X2013520Y2710200D01*
X2010920Y2707820D01*
X2008820Y2705020D01*
X2007240Y2701880D01*
X2006279Y2698500D01*
X2005960Y2695000D01*
X2006279Y2691500D01*
X2007240Y2688120D01*
X2008820Y2684980D01*
X2010920Y2682180D01*
X2013520Y2679800D01*
X2016519Y2677960D01*
X2019780Y2676680D01*
G37*
G36*
X1418240Y2691040D02*
G01*
X1421759Y2691040D01*
X1425220Y2691680D01*
X1428480Y2692960D01*
X1431480Y2694800D01*
X1434079Y2697180D01*
X1436180Y2699980D01*
X1437760Y2703120D01*
X1438720Y2706500D01*
X1439040Y2710000D01*
X1438720Y2713500D01*
X1437760Y2716880D01*
X1436180Y2720020D01*
X1434079Y2722820D01*
X1431480Y2725200D01*
X1428480Y2727040D01*
X1425220Y2728320D01*
X1421759Y2728960D01*
X1418240Y2728960D01*
X1414780Y2728320D01*
X1411519Y2727040D01*
X1408520Y2725200D01*
X1405920Y2722820D01*
X1403820Y2720020D01*
X1402240Y2716880D01*
X1401279Y2713500D01*
X1400960Y2710000D01*
X1401279Y2706500D01*
X1402240Y2703120D01*
X1403820Y2699980D01*
X1405920Y2697180D01*
X1408520Y2694800D01*
X1411519Y2692960D01*
X1414780Y2691680D01*
G37*
G36*
X2128660Y2707520D02*
G01*
X2132180Y2707520D01*
X2135640Y2708159D01*
X2138900Y2709440D01*
X2141900Y2711280D01*
X2144500Y2713660D01*
X2146600Y2716460D01*
X2148180Y2719600D01*
X2149140Y2722980D01*
X2149460Y2726480D01*
X2149140Y2729980D01*
X2148180Y2733360D01*
X2146600Y2736500D01*
X2144500Y2739300D01*
X2141900Y2741680D01*
X2138900Y2743519D01*
X2135640Y2744800D01*
X2132180Y2745440D01*
X2128660Y2745440D01*
X2125200Y2744800D01*
X2121940Y2743519D01*
X2118940Y2741680D01*
X2116340Y2739300D01*
X2114240Y2736500D01*
X2112660Y2733360D01*
X2111700Y2729980D01*
X2111380Y2726480D01*
X2111700Y2722980D01*
X2112660Y2719600D01*
X2114240Y2716460D01*
X2116340Y2713660D01*
X2118940Y2711280D01*
X2121940Y2709440D01*
X2125200Y2708159D01*
G37*
G36*
X3058800Y2712160D02*
G01*
X3063600Y2712340D01*
X3068320Y2713200D01*
X3072860Y2714760D01*
X3077120Y2716940D01*
X3081019Y2719740D01*
X3084480Y2723060D01*
X3087420Y2726860D01*
X3089760Y2731040D01*
X3091480Y2735539D01*
X3092520Y2740220D01*
X3092860Y2745000D01*
X3092520Y2749780D01*
X3091480Y2754460D01*
X3089760Y2758960D01*
X3087420Y2763140D01*
X3084480Y2766940D01*
X3081019Y2770260D01*
X3077120Y2773060D01*
X3072860Y2775240D01*
X3068320Y2776800D01*
X3063600Y2777660D01*
X3058800Y2777840D01*
X3054040Y2777320D01*
X3049380Y2776100D01*
X3044980Y2774220D01*
X3040880Y2771720D01*
X3037180Y2768660D01*
X3033980Y2765080D01*
X3031340Y2761080D01*
X3029300Y2756740D01*
X3027919Y2752140D01*
X3027220Y2747400D01*
X3027220Y2742600D01*
X3027919Y2737860D01*
X3029300Y2733260D01*
X3031340Y2728920D01*
X3033980Y2724920D01*
X3037180Y2721340D01*
X3040880Y2718279D01*
X3044980Y2715779D01*
X3049380Y2713900D01*
X3054040Y2712679D01*
G37*
G36*
X1765280Y2778620D02*
G01*
X1768800Y2778620D01*
X1772260Y2779260D01*
X1775520Y2780520D01*
X1778520Y2782380D01*
X1781120Y2784740D01*
X1783220Y2787540D01*
X1784800Y2790700D01*
X1785760Y2794080D01*
X1786080Y2797559D01*
X1785760Y2801060D01*
X1784800Y2804440D01*
X1783220Y2807600D01*
X1781120Y2810400D01*
X1778520Y2812760D01*
X1775520Y2814620D01*
X1772260Y2815880D01*
X1768800Y2816520D01*
X1765280Y2816520D01*
X1761819Y2815880D01*
X1758560Y2814620D01*
X1755560Y2812760D01*
X1752960Y2810400D01*
X1750860Y2807600D01*
X1749280Y2804440D01*
X1748320Y2801060D01*
X1748000Y2797559D01*
X1748320Y2794080D01*
X1749280Y2790700D01*
X1750860Y2787540D01*
X1752960Y2784740D01*
X1755560Y2782380D01*
X1758560Y2780520D01*
X1761819Y2779260D01*
G37*
G36*
X1203240Y2781040D02*
G01*
X1206760Y2781040D01*
X1210220Y2781680D01*
X1213480Y2782960D01*
X1216480Y2784800D01*
X1219080Y2787180D01*
X1221180Y2789980D01*
X1222760Y2793120D01*
X1223720Y2796500D01*
X1224040Y2800000D01*
X1223720Y2803500D01*
X1222760Y2806880D01*
X1221180Y2810020D01*
X1219080Y2812820D01*
X1216480Y2815200D01*
X1213480Y2817040D01*
X1210220Y2818320D01*
X1206760Y2818960D01*
X1203240Y2818960D01*
X1199780Y2818320D01*
X1196520Y2817040D01*
X1193520Y2815200D01*
X1190920Y2812820D01*
X1188820Y2810020D01*
X1187240Y2806880D01*
X1186280Y2803500D01*
X1185960Y2800000D01*
X1186280Y2796500D01*
X1187240Y2793120D01*
X1188820Y2789980D01*
X1190920Y2787180D01*
X1193520Y2784800D01*
X1196520Y2782960D01*
X1199780Y2781680D01*
G37*
G36*
X3050000Y2810600D02*
G01*
X3056660Y2810960D01*
X3063220Y2812080D01*
X3069620Y2813920D01*
X3075779Y2816480D01*
X3081600Y2819700D01*
X3087040Y2823560D01*
X3092000Y2828000D01*
X3096440Y2832960D01*
X3100299Y2838399D01*
X3103519Y2844220D01*
X3106080Y2850380D01*
X3107919Y2856780D01*
X3109040Y2863340D01*
X3109400Y2870000D01*
X3109040Y2876660D01*
X3107919Y2883220D01*
X3106080Y2889620D01*
X3103519Y2895779D01*
X3100299Y2901600D01*
X3096440Y2907040D01*
X3092000Y2912000D01*
X3087040Y2916440D01*
X3081600Y2920299D01*
X3075779Y2923519D01*
X3069620Y2926080D01*
X3063220Y2927919D01*
X3056660Y2929040D01*
X3050000Y2929400D01*
X3043340Y2929040D01*
X3036780Y2927919D01*
X3030380Y2926080D01*
X3024220Y2923519D01*
X3018399Y2920299D01*
X3012960Y2916440D01*
X3008000Y2912000D01*
X3003560Y2907040D01*
X2999700Y2901600D01*
X2996480Y2895779D01*
X2993920Y2889620D01*
X2992080Y2883220D01*
X2990960Y2876660D01*
X2990600Y2870000D01*
X2990960Y2863340D01*
X2992080Y2856780D01*
X2993920Y2850380D01*
X2996480Y2844220D01*
X2999700Y2838399D01*
X3003560Y2832960D01*
X3008000Y2828000D01*
X3012960Y2823560D01*
X3018399Y2819700D01*
X3024220Y2816480D01*
X3030380Y2813920D01*
X3036780Y2812080D01*
X3043340Y2810960D01*
G37*
G36*
X1203240Y2841040D02*
G01*
X1206760Y2841040D01*
X1210220Y2841680D01*
X1213480Y2842960D01*
X1216480Y2844800D01*
X1219080Y2847180D01*
X1221180Y2849980D01*
X1222760Y2853120D01*
X1223720Y2856500D01*
X1224040Y2860000D01*
X1223720Y2863500D01*
X1222760Y2866880D01*
X1221180Y2870020D01*
X1219080Y2872820D01*
X1216480Y2875200D01*
X1213480Y2877040D01*
X1210220Y2878320D01*
X1206760Y2878960D01*
X1203240Y2878960D01*
X1199780Y2878320D01*
X1196520Y2877040D01*
X1193520Y2875200D01*
X1190920Y2872820D01*
X1188820Y2870020D01*
X1187240Y2866880D01*
X1186280Y2863500D01*
X1185960Y2860000D01*
X1186280Y2856500D01*
X1187240Y2853120D01*
X1188820Y2849980D01*
X1190920Y2847180D01*
X1193520Y2844800D01*
X1196520Y2842960D01*
X1199780Y2841680D01*
G37*

%LPD*%
D10*
X2810000Y2400000D02*
G01*
X2825000Y2400000D01*
X2840000Y2385000D01*
X2840000Y2370000D01*
X2825000Y2355000D01*
X2490000Y2355000D01*
X2320000Y2525000D01*
X2960000Y2545000D02*
G01*
X2970000Y2535000D01*
X2970000Y2260000D01*
X2960000Y2250000D01*
X2835000Y2250000D01*
X2750000Y2335000D01*
X2450000Y2335000D01*
X2290000Y2495000D01*
X2995000Y2480000D02*
G01*
X2995000Y2255000D01*
X2970000Y2230000D01*
X2825000Y2230000D01*
X2740000Y2315000D01*
X2430000Y2315000D01*
X2270000Y2475000D01*
X2815000Y2375000D02*
G01*
X2505000Y2375000D01*
X2343100Y2536900D01*
X2343100Y2601900D01*
D11*
G01*
X911459Y2650149D03*
D12*
G01*
X1011450Y2600149D03*
G01*
X911450Y2550149D03*
G01*
X1011450Y2500149D03*
G01*
X911450Y2450149D03*
G01*
X1011450Y2400149D03*
G01*
X911450Y2350149D03*
G01*
X1011450Y2300149D03*
D13*
G01*
X468550Y2735779D03*
G01*
X468550Y2635779D03*
G01*
X468550Y2314119D03*
G01*
X468550Y2214119D03*
D14*
G01*
X781540Y2779870D03*
G01*
X781540Y2170030D03*
D15*
G01*
X3061869Y2640079D03*
G01*
X3061869Y2299920D03*
D16*
G01*
X2880000Y2640000D03*
D17*
G01*
X2902200Y2629299D03*
D16*
G01*
X2880000Y2300000D03*
D17*
G01*
X2902200Y2309299D03*
D18*
G01*
X2135000Y2587829D03*
G01*
X2162839Y2559989D03*
G01*
X2107160Y2559989D03*
G01*
X2135000Y2532150D03*
D19*
G01*
X2890000Y2205000D03*
G01*
X2180000Y2395000D03*
G01*
X2220000Y2397049D03*
G01*
X2185000Y2780000D03*
G01*
X1425000Y2895000D03*
G01*
X1365000Y2820000D03*
G01*
X1327280Y2630000D03*
G01*
X1673239Y2540000D03*
G01*
X1820000Y2495000D03*
G01*
X1830000Y2540000D03*
G01*
X1930000Y2585000D03*
G01*
X1306059Y2337480D03*
G01*
X1420000Y2710000D03*
G01*
X1378500Y2561500D03*
G01*
X1630000Y2930000D03*
G01*
X1735000Y2825000D03*
G01*
X2050000Y2720000D03*
G01*
X2850000Y2340000D03*
G01*
X3065000Y2135000D03*
G01*
X1638770Y2460230D03*
G01*
X1550000Y2460000D03*
G01*
X425000Y2500000D03*
G01*
X1687969Y2382020D03*
G01*
X1585000Y2485000D03*
G01*
X1545000Y2575000D03*
G01*
X2290000Y2630000D03*
G01*
X2025000Y2695000D03*
G01*
X2130420Y2726480D03*
G01*
X950000Y2075000D03*
G01*
X1955000Y2415000D03*
G01*
X1185000Y2225000D03*
G01*
X1450000Y2220000D03*
G01*
X2475000Y2285000D03*
G01*
X1115000Y2225000D03*
G01*
X2305000Y2235000D03*
G01*
X1780000Y2285000D03*
G01*
X1810000Y2300000D03*
G01*
X2415000Y2600000D03*
G01*
X1840000Y2365000D03*
G01*
X1990839Y2361460D03*
G01*
X2075000Y2410000D03*
G01*
X1767039Y2797570D03*
G01*
X1940000Y2345000D03*
G01*
X2440000Y2270000D03*
G01*
X1975000Y2515000D03*
G01*
X2390000Y2230000D03*
G01*
X1780000Y2170000D03*
G01*
X2285000Y2335000D03*
G01*
X1970000Y2645000D03*
G01*
X2820000Y2610000D03*
G01*
X1365000Y2925000D03*
G01*
X1205000Y2860000D03*
G01*
X1140000Y2665000D03*
G01*
X1115000Y2625000D03*
G01*
X1115000Y2515000D03*
G01*
X1205000Y2800000D03*
G01*
X705000Y2850000D03*
G01*
X700000Y2080000D03*
G01*
X2475000Y2495000D03*
G01*
X2435000Y2495000D03*
G01*
X2950000Y2430000D03*
G01*
X2825000Y2450000D03*
G01*
X2800000Y2580000D03*
G01*
X2810000Y2400000D03*
G01*
X2815000Y2375000D03*
G01*
X2960000Y2545000D03*
G01*
X2343109Y2601889D03*
G01*
X2320000Y2525000D03*
G01*
X2290000Y2495000D03*
G01*
X2700000Y2890000D03*
G01*
X2995000Y2480000D03*
G01*
X2270000Y2475000D03*
G01*
X2120000Y2395000D03*
G01*
X2615000Y2665000D03*
G01*
X2625000Y2220000D03*
G01*
X2610000Y2285000D03*
G01*
X2850000Y2205000D03*
G01*
X2615000Y2255000D03*
M02*
