G04 Layer: TopSilkscreenLayer*
G04 EasyEDA v6.5.50, 2025-05-10 16:21:22*
G04 3dcb6b1ac4734954bc49148360d8dee8,b9277fd2045942759ab1a28cc0c323af,10*
G04 Gerber Generator version 0.2*
G04 Scale: 100 percent, Rotated: No, Reflected: No *
G04 Dimensions in inches *
G04 leading zeros omitted , absolute positions ,3 integer and 6 decimal *
%FSLAX36Y36*%
%MOIN*%

%ADD10C,0.0080*%
%ADD11C,0.0060*%
%ADD12C,0.0060*%
%ADD13C,0.0100*%
%ADD14C,0.0079*%
%ADD15C,0.0060*%
%ADD16C,0.0118*%
%ADD17C,0.0098*%
%ADD18C,0.0157*%
%ADD19C,0.0059*%
%ADD20C,0.0104*%

%LPD*%
D10*
X2952700Y2869800D02*
G01*
X2952700Y2804400D01*
X2920000Y2837100D02*
G01*
X2985500Y2837100D01*
X1478400Y2149800D02*
G01*
X1478400Y2128299D01*
X1477100Y2124299D01*
X1475699Y2123000D01*
X1473100Y2121599D01*
X1470399Y2121599D01*
X1467700Y2123000D01*
X1466300Y2124299D01*
X1465000Y2128299D01*
X1465000Y2130999D01*
X1487299Y2149800D02*
G01*
X1487299Y2121599D01*
X1487299Y2121599D02*
G01*
X1503400Y2121599D01*
X1532399Y2143099D02*
G01*
X1531000Y2145799D01*
X1528299Y2148499D01*
X1525699Y2149800D01*
X1520299Y2149800D01*
X1517600Y2148499D01*
X1514899Y2145799D01*
X1513599Y2143099D01*
X1512200Y2139099D01*
X1512200Y2132300D01*
X1513599Y2128299D01*
X1514899Y2125599D01*
X1517600Y2123000D01*
X1520299Y2121599D01*
X1525699Y2121599D01*
X1528299Y2123000D01*
X1531000Y2125599D01*
X1532399Y2128299D01*
X1554700Y2149800D02*
G01*
X1554700Y2128299D01*
X1553299Y2124299D01*
X1551999Y2123000D01*
X1549300Y2121599D01*
X1546599Y2121599D01*
X1543900Y2123000D01*
X1542600Y2124299D01*
X1541199Y2128299D01*
X1541199Y2130999D01*
X1563500Y2149800D02*
G01*
X1563500Y2121599D01*
X1563500Y2121599D02*
G01*
X1579600Y2121599D01*
X1608599Y2143099D02*
G01*
X1607299Y2145799D01*
X1604600Y2148499D01*
X1601899Y2149800D01*
X1596499Y2149800D01*
X1593800Y2148499D01*
X1591199Y2145799D01*
X1589799Y2143099D01*
X1588500Y2139099D01*
X1588500Y2132300D01*
X1589799Y2128299D01*
X1591199Y2125599D01*
X1593800Y2123000D01*
X1596499Y2121599D01*
X1601899Y2121599D01*
X1604600Y2123000D01*
X1607299Y2125599D01*
X1608599Y2128299D01*
X1630900Y2149800D02*
G01*
X1630900Y2128299D01*
X1629499Y2124299D01*
X1628199Y2123000D01*
X1625500Y2121599D01*
X1622799Y2121599D01*
X1620200Y2123000D01*
X1618800Y2124299D01*
X1617500Y2128299D01*
X1617500Y2130999D01*
X1639700Y2149800D02*
G01*
X1639700Y2121599D01*
X1639700Y2121599D02*
G01*
X1655900Y2121599D01*
X1684799Y2143099D02*
G01*
X1683500Y2145799D01*
X1680799Y2148499D01*
X1678100Y2149800D01*
X1672799Y2149800D01*
X1670100Y2148499D01*
X1667399Y2145799D01*
X1666099Y2143099D01*
X1664700Y2139099D01*
X1664700Y2132300D01*
X1666099Y2128299D01*
X1667399Y2125599D01*
X1670100Y2123000D01*
X1672799Y2121599D01*
X1678100Y2121599D01*
X1680799Y2123000D01*
X1683500Y2125599D01*
X1684799Y2128299D01*
X1707100Y2149800D02*
G01*
X1707100Y2128299D01*
X1705799Y2124299D01*
X1704399Y2123000D01*
X1701800Y2121599D01*
X1699099Y2121599D01*
X1696400Y2123000D01*
X1695000Y2124299D01*
X1693699Y2128299D01*
X1693699Y2130999D01*
X1716000Y2149800D02*
G01*
X1716000Y2121599D01*
X1716000Y2121599D02*
G01*
X1732100Y2121599D01*
X1761099Y2143099D02*
G01*
X1759700Y2145799D01*
X1757100Y2148499D01*
X1754399Y2149800D01*
X1748999Y2149800D01*
X1746300Y2148499D01*
X1743599Y2145799D01*
X1742299Y2143099D01*
X1740900Y2139099D01*
X1740900Y2132300D01*
X1742299Y2128299D01*
X1743599Y2125599D01*
X1746300Y2123000D01*
X1748999Y2121599D01*
X1754399Y2121599D01*
X1757100Y2123000D01*
X1759700Y2125599D01*
X1761099Y2128299D01*
X1110299Y2050000D02*
G01*
X1147899Y2050000D01*
X1147899Y2050000D02*
G01*
X1147899Y2071500D01*
X1110299Y2083299D02*
G01*
X1147899Y2083299D01*
X1147899Y2083299D02*
G01*
X1147899Y2104800D01*
X1110299Y2116599D02*
G01*
X1147899Y2116599D01*
X1110299Y2116599D02*
G01*
X1110299Y2129099D01*
X1112100Y2134499D01*
X1115600Y2138000D01*
X1119200Y2139800D01*
X1124600Y2141599D01*
X1133500Y2141599D01*
X1138900Y2139800D01*
X1142500Y2138000D01*
X1146099Y2134499D01*
X1147899Y2129099D01*
X1147899Y2116599D01*
X1110299Y2153400D02*
G01*
X1147899Y2153400D01*
X1110299Y2153400D02*
G01*
X1110299Y2169499D01*
X1112100Y2174899D01*
X1113900Y2176700D01*
X1117399Y2178499D01*
X1122799Y2178499D01*
X1126400Y2176700D01*
X1128199Y2174899D01*
X1130000Y2169499D01*
X1130000Y2153400D01*
X1115600Y2215399D02*
G01*
X1112100Y2211799D01*
X1110299Y2206399D01*
X1110299Y2199200D01*
X1112100Y2193899D01*
X1115600Y2190300D01*
X1119200Y2190300D01*
X1122799Y2192100D01*
X1124600Y2193899D01*
X1126400Y2197500D01*
X1130000Y2208200D01*
X1131700Y2211799D01*
X1133500Y2213600D01*
X1137100Y2215399D01*
X1142500Y2215399D01*
X1146099Y2211799D01*
X1147899Y2206399D01*
X1147899Y2199200D01*
X1146099Y2193899D01*
X1142500Y2190300D01*
X1110299Y2232500D02*
G01*
X1140699Y2232500D01*
X1146099Y2234299D01*
X1147899Y2237899D01*
X1147899Y2241500D01*
X1122799Y2227199D02*
G01*
X1122799Y2239699D01*
X1110299Y2253299D02*
G01*
X1112100Y2255100D01*
X1110299Y2256900D01*
X1108500Y2255100D01*
X1110299Y2253299D01*
X1122799Y2255100D02*
G01*
X1147899Y2255100D01*
X1128199Y2290200D02*
G01*
X1124600Y2286599D01*
X1122799Y2283000D01*
X1122799Y2277600D01*
X1124600Y2274099D01*
X1128199Y2270500D01*
X1133500Y2268699D01*
X1137100Y2268699D01*
X1142500Y2270500D01*
X1146099Y2274099D01*
X1147899Y2277600D01*
X1147899Y2283000D01*
X1146099Y2286599D01*
X1142500Y2290200D01*
X1110299Y2301999D02*
G01*
X1147899Y2301999D01*
X1122799Y2319899D02*
G01*
X1140699Y2301999D01*
X1133500Y2309099D02*
G01*
X1147899Y2321700D01*
X1187799Y2050000D02*
G01*
X1212899Y2060700D01*
X1187799Y2071500D02*
G01*
X1212899Y2060700D01*
X1175299Y2086900D02*
G01*
X1175299Y2106500D01*
X1189600Y2095799D01*
X1189600Y2101199D01*
X1191400Y2104800D01*
X1193199Y2106500D01*
X1198500Y2108299D01*
X1202100Y2108299D01*
X1207500Y2106500D01*
X1211099Y2103000D01*
X1212899Y2097600D01*
X1212899Y2092199D01*
X1211099Y2086900D01*
X1209300Y2085100D01*
X1205699Y2083299D01*
X1175299Y2147700D02*
G01*
X1212899Y2147700D01*
X1175299Y2147700D02*
G01*
X1175299Y2163800D01*
X1177100Y2169200D01*
X1178900Y2170999D01*
X1182399Y2172800D01*
X1186000Y2172800D01*
X1189600Y2170999D01*
X1191400Y2169200D01*
X1193199Y2163800D01*
X1193199Y2147700D01*
X1193199Y2160200D02*
G01*
X1212899Y2172800D01*
X1198500Y2184600D02*
G01*
X1198500Y2205999D01*
X1195000Y2205999D01*
X1191400Y2204299D01*
X1189600Y2202500D01*
X1187799Y2198899D01*
X1187799Y2193499D01*
X1189600Y2189899D01*
X1193199Y2186399D01*
X1198500Y2184600D01*
X1202100Y2184600D01*
X1207500Y2186399D01*
X1211099Y2189899D01*
X1212899Y2193499D01*
X1212899Y2198899D01*
X1211099Y2202500D01*
X1207500Y2205999D01*
X1187799Y2217899D02*
G01*
X1212899Y2228600D01*
X1187799Y2239299D02*
G01*
X1212899Y2228600D01*
X1175299Y2287700D02*
G01*
X1177100Y2282300D01*
X1180600Y2280500D01*
X1184200Y2280500D01*
X1187799Y2282300D01*
X1189600Y2285900D01*
X1191400Y2293000D01*
X1193199Y2298400D01*
X1196700Y2301999D01*
X1200299Y2303800D01*
X1205699Y2303800D01*
X1209300Y2301999D01*
X1211099Y2300200D01*
X1212899Y2294800D01*
X1212899Y2287700D01*
X1211099Y2282300D01*
X1209300Y2280500D01*
X1205699Y2278699D01*
X1200299Y2278699D01*
X1196700Y2280500D01*
X1193199Y2284099D01*
X1191400Y2289400D01*
X1189600Y2296599D01*
X1187799Y2300200D01*
X1184200Y2301999D01*
X1180600Y2301999D01*
X1177100Y2300200D01*
X1175299Y2294800D01*
X1175299Y2287700D01*
D11*
X2770000Y2494899D02*
G01*
X2770000Y2476100D01*
X2770000Y2494899D02*
G01*
X2778100Y2494899D01*
X2780699Y2494000D01*
X2781599Y2493099D01*
X2782500Y2491300D01*
X2782500Y2489499D01*
X2781599Y2487700D01*
X2780699Y2486799D01*
X2778100Y2485900D01*
X2770000Y2485900D01*
X2776300Y2485900D02*
G01*
X2782500Y2476100D01*
X2799200Y2494899D02*
G01*
X2790200Y2494899D01*
X2789300Y2486799D01*
X2790200Y2487700D01*
X2792899Y2488600D01*
X2795600Y2488600D01*
X2798299Y2487700D01*
X2800100Y2485900D01*
X2801000Y2483200D01*
X2801000Y2481399D01*
X2800100Y2478800D01*
X2798299Y2476999D01*
X2795600Y2476100D01*
X2792899Y2476100D01*
X2790200Y2476999D01*
X2789300Y2477899D01*
X2788400Y2479699D01*
X2835000Y2134899D02*
G01*
X2835000Y2116100D01*
X2835000Y2134899D02*
G01*
X2843100Y2134899D01*
X2845699Y2134000D01*
X2846599Y2133099D01*
X2847500Y2131300D01*
X2847500Y2129499D01*
X2846599Y2127700D01*
X2845699Y2126799D01*
X2843100Y2125900D01*
X2835000Y2125900D01*
X2841300Y2125900D02*
G01*
X2847500Y2116100D01*
X2854300Y2130399D02*
G01*
X2854300Y2131300D01*
X2855200Y2133099D01*
X2856099Y2134000D01*
X2857899Y2134899D01*
X2861499Y2134899D01*
X2863299Y2134000D01*
X2864200Y2133099D01*
X2865100Y2131300D01*
X2865100Y2129499D01*
X2864200Y2127700D01*
X2862399Y2125000D01*
X2853400Y2116100D01*
X2866000Y2116100D01*
X2873699Y2134899D02*
G01*
X2883500Y2134899D01*
X2878100Y2127700D01*
X2880799Y2127700D01*
X2882600Y2126799D01*
X2883500Y2125900D01*
X2884399Y2123200D01*
X2884399Y2121399D01*
X2883500Y2118800D01*
X2881700Y2116999D01*
X2878999Y2116100D01*
X2876300Y2116100D01*
X2873699Y2116999D01*
X2872799Y2117899D01*
X2871899Y2119699D01*
X845000Y2829899D02*
G01*
X845000Y2811100D01*
X845000Y2829899D02*
G01*
X853100Y2829899D01*
X855699Y2829000D01*
X856599Y2828099D01*
X857500Y2826300D01*
X857500Y2824499D01*
X856599Y2822700D01*
X855699Y2821799D01*
X853100Y2820900D01*
X845000Y2820900D01*
X851300Y2820900D02*
G01*
X857500Y2811100D01*
X872399Y2829899D02*
G01*
X872399Y2815500D01*
X871499Y2812899D01*
X870600Y2811999D01*
X868800Y2811100D01*
X866999Y2811100D01*
X865200Y2811999D01*
X864300Y2812899D01*
X863400Y2815500D01*
X863400Y2817300D01*
X878299Y2826300D02*
G01*
X880100Y2827199D01*
X882799Y2829899D01*
X882799Y2811100D01*
X2658400Y2545399D02*
G01*
X2657500Y2547199D01*
X2655699Y2549000D01*
X2653900Y2549899D01*
X2650399Y2549899D01*
X2648599Y2549000D01*
X2646800Y2547199D01*
X2645900Y2545399D01*
X2645000Y2542700D01*
X2645000Y2538200D01*
X2645900Y2535500D01*
X2646800Y2533800D01*
X2648599Y2531999D01*
X2650399Y2531100D01*
X2653900Y2531100D01*
X2655699Y2531999D01*
X2657500Y2533800D01*
X2658400Y2535500D01*
X2666099Y2549899D02*
G01*
X2676000Y2549899D01*
X2670600Y2542700D01*
X2673299Y2542700D01*
X2675100Y2541799D01*
X2676000Y2540900D01*
X2676899Y2538200D01*
X2676899Y2536399D01*
X2676000Y2533800D01*
X2674200Y2531999D01*
X2671499Y2531100D01*
X2668800Y2531100D01*
X2666099Y2531999D01*
X2665200Y2532899D01*
X2664300Y2534699D01*
X2684499Y2549899D02*
G01*
X2694399Y2549899D01*
X2688999Y2542700D01*
X2691700Y2542700D01*
X2693500Y2541799D01*
X2694399Y2540900D01*
X2695299Y2538200D01*
X2695299Y2536399D01*
X2694399Y2533800D01*
X2692600Y2531999D01*
X2689899Y2531100D01*
X2687200Y2531100D01*
X2684499Y2531999D01*
X2683699Y2532899D01*
X2682799Y2534699D01*
X2770000Y2584899D02*
G01*
X2770000Y2566100D01*
X2770000Y2584899D02*
G01*
X2778100Y2584899D01*
X2780699Y2584000D01*
X2781599Y2583099D01*
X2782500Y2581300D01*
X2782500Y2579499D01*
X2781599Y2577700D01*
X2780699Y2576799D01*
X2778100Y2575900D01*
X2770000Y2575900D01*
X2776300Y2575900D02*
G01*
X2782500Y2566100D01*
X2788400Y2581300D02*
G01*
X2790200Y2582199D01*
X2792899Y2584899D01*
X2792899Y2566100D01*
X2803299Y2584899D02*
G01*
X2800600Y2584000D01*
X2799700Y2582199D01*
X2799700Y2580399D01*
X2800600Y2578600D01*
X2802399Y2577700D01*
X2806000Y2576799D01*
X2808699Y2575900D01*
X2810399Y2574099D01*
X2811300Y2572300D01*
X2811300Y2569699D01*
X2810399Y2567899D01*
X2809499Y2566999D01*
X2806899Y2566100D01*
X2803299Y2566100D01*
X2800600Y2566999D01*
X2799700Y2567899D01*
X2798800Y2569699D01*
X2798800Y2572300D01*
X2799700Y2574099D01*
X2801499Y2575900D01*
X2804200Y2576799D01*
X2807799Y2577700D01*
X2809499Y2578600D01*
X2810399Y2580399D01*
X2810399Y2582199D01*
X2809499Y2584000D01*
X2806899Y2584899D01*
X2803299Y2584899D01*
X2540024Y2354875D02*
G01*
X2540024Y2341475D01*
X2540924Y2338775D01*
X2542725Y2336975D01*
X2545325Y2336075D01*
X2547124Y2336075D01*
X2549825Y2336975D01*
X2551625Y2338775D01*
X2552524Y2341475D01*
X2552524Y2354875D01*
X2560225Y2354875D02*
G01*
X2570024Y2354875D01*
X2564724Y2347674D01*
X2567425Y2347674D01*
X2569125Y2346774D01*
X2570024Y2345875D01*
X2570924Y2343274D01*
X2570924Y2341475D01*
X2570024Y2338775D01*
X2568225Y2336975D01*
X2565625Y2336075D01*
X2562924Y2336075D01*
X2560225Y2336975D01*
X2559324Y2337874D01*
X2558424Y2339675D01*
X2389994Y2304899D02*
G01*
X2389994Y2286100D01*
X2389994Y2286100D02*
G01*
X2400694Y2286100D01*
X2408395Y2304899D02*
G01*
X2418294Y2304899D01*
X2412894Y2297700D01*
X2415595Y2297700D01*
X2417394Y2296799D01*
X2418294Y2295900D01*
X2419194Y2293200D01*
X2419194Y2291399D01*
X2418294Y2288800D01*
X2416495Y2286999D01*
X2413795Y2286100D01*
X2411094Y2286100D01*
X2408395Y2286999D01*
X2407494Y2287899D01*
X2406594Y2289699D01*
X2423400Y2740374D02*
G01*
X2422500Y2742175D01*
X2420699Y2743975D01*
X2418900Y2744875D01*
X2415399Y2744875D01*
X2413599Y2743975D01*
X2411800Y2742175D01*
X2410900Y2740374D01*
X2410000Y2737674D01*
X2410000Y2733274D01*
X2410900Y2730574D01*
X2411800Y2728775D01*
X2413599Y2726975D01*
X2415399Y2726075D01*
X2418900Y2726075D01*
X2420699Y2726975D01*
X2422500Y2728775D01*
X2423400Y2730574D01*
X2441000Y2738575D02*
G01*
X2440100Y2735875D01*
X2438299Y2734175D01*
X2435600Y2733274D01*
X2434700Y2733274D01*
X2431999Y2734175D01*
X2430200Y2735875D01*
X2429300Y2738575D01*
X2429300Y2739475D01*
X2430200Y2742175D01*
X2431999Y2743975D01*
X2434700Y2744875D01*
X2435600Y2744875D01*
X2438299Y2743975D01*
X2440100Y2742175D01*
X2441000Y2738575D01*
X2441000Y2734175D01*
X2440100Y2729675D01*
X2438299Y2726975D01*
X2435600Y2726075D01*
X2433800Y2726075D01*
X2431099Y2726975D01*
X2430200Y2728775D01*
X1268424Y2525399D02*
G01*
X1267524Y2527199D01*
X1265725Y2529000D01*
X1263924Y2529899D01*
X1260325Y2529899D01*
X1258625Y2529000D01*
X1256824Y2527199D01*
X1255924Y2525399D01*
X1255024Y2522700D01*
X1255024Y2518200D01*
X1255924Y2515500D01*
X1256824Y2513800D01*
X1258625Y2511999D01*
X1260325Y2511100D01*
X1263924Y2511100D01*
X1265725Y2511999D01*
X1267524Y2513800D01*
X1268424Y2515500D01*
X1274324Y2526300D02*
G01*
X1276125Y2527199D01*
X1278824Y2529899D01*
X1278824Y2511100D01*
X1293625Y2529899D02*
G01*
X1284724Y2517300D01*
X1298125Y2517300D01*
X1293625Y2529899D02*
G01*
X1293625Y2511100D01*
D12*
X1615000Y2404899D02*
G01*
X1615000Y2386100D01*
X1615000Y2404899D02*
G01*
X1626599Y2404899D01*
X1615000Y2395900D02*
G01*
X1622200Y2395900D01*
X1632500Y2404899D02*
G01*
X1632500Y2386100D01*
X1632500Y2404899D02*
G01*
X1640600Y2404899D01*
X1643299Y2404000D01*
X1644200Y2403099D01*
X1645100Y2401300D01*
X1645100Y2399499D01*
X1644200Y2397700D01*
X1643299Y2396799D01*
X1640600Y2395900D01*
X1632500Y2395900D02*
G01*
X1640600Y2395900D01*
X1643299Y2395000D01*
X1644200Y2394099D01*
X1645100Y2392300D01*
X1645100Y2389699D01*
X1644200Y2387899D01*
X1643299Y2386999D01*
X1640600Y2386100D01*
X1632500Y2386100D01*
X1651000Y2401300D02*
G01*
X1652799Y2402199D01*
X1655399Y2404899D01*
X1655399Y2386100D01*
D11*
X1840000Y2729899D02*
G01*
X1840000Y2711100D01*
X1840000Y2711100D02*
G01*
X1850699Y2711100D01*
X1856599Y2726300D02*
G01*
X1858400Y2727199D01*
X1861099Y2729899D01*
X1861099Y2711100D01*
X1905100Y2275000D02*
G01*
X1923900Y2275000D01*
X1905100Y2275000D02*
G01*
X1905100Y2283099D01*
X1906000Y2285700D01*
X1906899Y2286599D01*
X1908699Y2287500D01*
X1910500Y2287500D01*
X1912299Y2286599D01*
X1913199Y2285700D01*
X1914099Y2283099D01*
X1914099Y2275000D01*
X1914099Y2281300D02*
G01*
X1923900Y2287500D01*
X1908699Y2293400D02*
G01*
X1907799Y2295200D01*
X1905100Y2297899D01*
X1923900Y2297899D01*
X1855100Y2270000D02*
G01*
X1873900Y2270000D01*
X1855100Y2270000D02*
G01*
X1855100Y2278099D01*
X1856000Y2280700D01*
X1856899Y2281599D01*
X1858699Y2282500D01*
X1860500Y2282500D01*
X1862299Y2281599D01*
X1863199Y2280700D01*
X1864099Y2278099D01*
X1864099Y2270000D01*
X1864099Y2276300D02*
G01*
X1873900Y2282500D01*
X1859600Y2289299D02*
G01*
X1858699Y2289299D01*
X1856899Y2290200D01*
X1856000Y2291100D01*
X1855100Y2292899D01*
X1855100Y2296500D01*
X1856000Y2298299D01*
X1856899Y2299200D01*
X1858699Y2300100D01*
X1860500Y2300100D01*
X1862299Y2299200D01*
X1865000Y2297399D01*
X1873900Y2288400D01*
X1873900Y2300999D01*
X1630100Y2300000D02*
G01*
X1648900Y2300000D01*
X1630100Y2300000D02*
G01*
X1630100Y2308099D01*
X1631000Y2310700D01*
X1631899Y2311599D01*
X1633699Y2312500D01*
X1635500Y2312500D01*
X1637299Y2311599D01*
X1638199Y2310700D01*
X1639099Y2308099D01*
X1639099Y2300000D01*
X1639099Y2306300D02*
G01*
X1648900Y2312500D01*
X1630100Y2320200D02*
G01*
X1630100Y2330100D01*
X1637299Y2324699D01*
X1637299Y2327399D01*
X1638199Y2329200D01*
X1639099Y2330100D01*
X1641800Y2330999D01*
X1643599Y2330999D01*
X1646199Y2330100D01*
X1648000Y2328299D01*
X1648900Y2325599D01*
X1648900Y2322899D01*
X1648000Y2320200D01*
X1647100Y2319299D01*
X1645299Y2318400D01*
X2470000Y2044899D02*
G01*
X2470000Y2026100D01*
X2470000Y2044899D02*
G01*
X2478100Y2044899D01*
X2480699Y2044000D01*
X2481599Y2043099D01*
X2482500Y2041300D01*
X2482500Y2039499D01*
X2481599Y2037699D01*
X2480699Y2036799D01*
X2478100Y2035900D01*
X2470000Y2035900D01*
X2476300Y2035900D02*
G01*
X2482500Y2026100D01*
X2497399Y2044899D02*
G01*
X2488400Y2032300D01*
X2501899Y2032300D01*
X2497399Y2044899D02*
G01*
X2497399Y2026100D01*
X625000Y2129899D02*
G01*
X625000Y2111100D01*
X625000Y2129899D02*
G01*
X633099Y2129899D01*
X635700Y2129000D01*
X636599Y2128099D01*
X637500Y2126300D01*
X637500Y2124499D01*
X636599Y2122700D01*
X635700Y2121799D01*
X633099Y2120900D01*
X625000Y2120900D01*
X631300Y2120900D02*
G01*
X637500Y2111100D01*
X654200Y2127199D02*
G01*
X653299Y2129000D01*
X650599Y2129899D01*
X648800Y2129899D01*
X646100Y2129000D01*
X644299Y2126300D01*
X643400Y2121799D01*
X643400Y2117300D01*
X644299Y2113800D01*
X646100Y2111999D01*
X648800Y2111100D01*
X649699Y2111100D01*
X652399Y2111999D01*
X654200Y2113800D01*
X655100Y2116399D01*
X655100Y2117300D01*
X654200Y2120000D01*
X652399Y2121799D01*
X649699Y2122700D01*
X648800Y2122700D01*
X646100Y2121799D01*
X644299Y2120000D01*
X643400Y2117300D01*
X625000Y2889899D02*
G01*
X625000Y2871100D01*
X625000Y2889899D02*
G01*
X633099Y2889899D01*
X635700Y2889000D01*
X636599Y2888099D01*
X637500Y2886300D01*
X637500Y2884499D01*
X636599Y2882700D01*
X635700Y2881799D01*
X633099Y2880900D01*
X625000Y2880900D01*
X631300Y2880900D02*
G01*
X637500Y2871100D01*
X655999Y2889899D02*
G01*
X646999Y2871100D01*
X643400Y2889899D02*
G01*
X655999Y2889899D01*
X1755000Y2924899D02*
G01*
X1755000Y2906100D01*
X1755000Y2924899D02*
G01*
X1763100Y2924899D01*
X1765699Y2924000D01*
X1766599Y2923099D01*
X1767500Y2921300D01*
X1767500Y2919499D01*
X1766599Y2917700D01*
X1765699Y2916799D01*
X1763100Y2915900D01*
X1755000Y2915900D01*
X1761300Y2915900D02*
G01*
X1767500Y2906100D01*
X1777899Y2924899D02*
G01*
X1775200Y2924000D01*
X1774300Y2922199D01*
X1774300Y2920399D01*
X1775200Y2918600D01*
X1776999Y2917700D01*
X1780600Y2916799D01*
X1783299Y2915900D01*
X1785100Y2914099D01*
X1786000Y2912300D01*
X1786000Y2909699D01*
X1785100Y2907899D01*
X1784200Y2906999D01*
X1781499Y2906100D01*
X1777899Y2906100D01*
X1775200Y2906999D01*
X1774300Y2907899D01*
X1773400Y2909699D01*
X1773400Y2912300D01*
X1774300Y2914099D01*
X1776099Y2915900D01*
X1778800Y2916799D01*
X1782399Y2917700D01*
X1784200Y2918600D01*
X1785100Y2920399D01*
X1785100Y2922199D01*
X1784200Y2924000D01*
X1781499Y2924899D01*
X1777899Y2924899D01*
X1780000Y2759899D02*
G01*
X1780000Y2741100D01*
X1780000Y2759899D02*
G01*
X1788100Y2759899D01*
X1790699Y2759000D01*
X1791599Y2758099D01*
X1792500Y2756300D01*
X1792500Y2754499D01*
X1791599Y2752700D01*
X1790699Y2751799D01*
X1788100Y2750900D01*
X1780000Y2750900D01*
X1786300Y2750900D02*
G01*
X1792500Y2741100D01*
X1810100Y2753600D02*
G01*
X1809200Y2750900D01*
X1807399Y2749099D01*
X1804700Y2748200D01*
X1803800Y2748200D01*
X1801099Y2749099D01*
X1799300Y2750900D01*
X1798400Y2753600D01*
X1798400Y2754499D01*
X1799300Y2757199D01*
X1801099Y2759000D01*
X1803800Y2759899D01*
X1804700Y2759899D01*
X1807399Y2759000D01*
X1809200Y2757199D01*
X1810100Y2753600D01*
X1810100Y2749099D01*
X1809200Y2744699D01*
X1807399Y2741999D01*
X1804700Y2741100D01*
X1802899Y2741100D01*
X1800200Y2741999D01*
X1799300Y2743800D01*
X1880100Y2430000D02*
G01*
X1898900Y2430000D01*
X1880100Y2430000D02*
G01*
X1880100Y2438099D01*
X1881000Y2440700D01*
X1881899Y2441599D01*
X1883699Y2442500D01*
X1885500Y2442500D01*
X1887299Y2441599D01*
X1888199Y2440700D01*
X1889099Y2438099D01*
X1889099Y2430000D01*
X1889099Y2436300D02*
G01*
X1898900Y2442500D01*
X1883699Y2448400D02*
G01*
X1882799Y2450200D01*
X1880100Y2452899D01*
X1898900Y2452899D01*
X1880100Y2464200D02*
G01*
X1881000Y2461500D01*
X1883699Y2459699D01*
X1888199Y2458800D01*
X1890900Y2458800D01*
X1895299Y2459699D01*
X1898000Y2461500D01*
X1898900Y2464200D01*
X1898900Y2465999D01*
X1898000Y2468699D01*
X1895299Y2470399D01*
X1890900Y2471300D01*
X1888199Y2471300D01*
X1883699Y2470399D01*
X1881000Y2468699D01*
X1880100Y2465999D01*
X1880100Y2464200D01*
X1290100Y2575000D02*
G01*
X1308900Y2575000D01*
X1290100Y2575000D02*
G01*
X1290100Y2583099D01*
X1291000Y2585700D01*
X1291899Y2586599D01*
X1293699Y2587500D01*
X1295500Y2587500D01*
X1297299Y2586599D01*
X1298199Y2585700D01*
X1299099Y2583099D01*
X1299099Y2575000D01*
X1299099Y2581300D02*
G01*
X1308900Y2587500D01*
X1293699Y2593400D02*
G01*
X1292799Y2595200D01*
X1290100Y2597899D01*
X1308900Y2597899D01*
X1293699Y2603800D02*
G01*
X1292799Y2605599D01*
X1290100Y2608299D01*
X1308900Y2608299D01*
X1300000Y2809899D02*
G01*
X1300000Y2791100D01*
X1300000Y2809899D02*
G01*
X1308100Y2809899D01*
X1310699Y2809000D01*
X1311599Y2808099D01*
X1312500Y2806300D01*
X1312500Y2804499D01*
X1311599Y2802700D01*
X1310699Y2801799D01*
X1308100Y2800900D01*
X1300000Y2800900D01*
X1306300Y2800900D02*
G01*
X1312500Y2791100D01*
X1318400Y2806300D02*
G01*
X1320200Y2807199D01*
X1322899Y2809899D01*
X1322899Y2791100D01*
X1329700Y2805399D02*
G01*
X1329700Y2806300D01*
X1330600Y2808099D01*
X1331499Y2809000D01*
X1333299Y2809899D01*
X1336899Y2809899D01*
X1338699Y2809000D01*
X1339499Y2808099D01*
X1340399Y2806300D01*
X1340399Y2804499D01*
X1339499Y2802700D01*
X1337799Y2800000D01*
X1328800Y2791100D01*
X1341300Y2791100D01*
X1300000Y2869899D02*
G01*
X1300000Y2851100D01*
X1300000Y2869899D02*
G01*
X1308100Y2869899D01*
X1310699Y2869000D01*
X1311599Y2868099D01*
X1312500Y2866300D01*
X1312500Y2864499D01*
X1311599Y2862700D01*
X1310699Y2861799D01*
X1308100Y2860900D01*
X1300000Y2860900D01*
X1306300Y2860900D02*
G01*
X1312500Y2851100D01*
X1318400Y2866300D02*
G01*
X1320200Y2867199D01*
X1322899Y2869899D01*
X1322899Y2851100D01*
X1330600Y2869899D02*
G01*
X1340399Y2869899D01*
X1335100Y2862700D01*
X1337799Y2862700D01*
X1339499Y2861799D01*
X1340399Y2860900D01*
X1341300Y2858200D01*
X1341300Y2856399D01*
X1340399Y2853800D01*
X1338699Y2851999D01*
X1336000Y2851100D01*
X1333299Y2851100D01*
X1330600Y2851999D01*
X1329700Y2852899D01*
X1328800Y2854699D01*
X1110000Y2749899D02*
G01*
X1110000Y2731100D01*
X1110000Y2749899D02*
G01*
X1118100Y2749899D01*
X1120699Y2749000D01*
X1121599Y2748099D01*
X1122500Y2746300D01*
X1122500Y2744499D01*
X1121599Y2742700D01*
X1120699Y2741799D01*
X1118100Y2740900D01*
X1110000Y2740900D01*
X1116300Y2740900D02*
G01*
X1122500Y2731100D01*
X1128400Y2746300D02*
G01*
X1130200Y2747199D01*
X1132899Y2749899D01*
X1132899Y2731100D01*
X1147799Y2749899D02*
G01*
X1138800Y2737300D01*
X1152200Y2737300D01*
X1147799Y2749899D02*
G01*
X1147799Y2731100D01*
X1110000Y2654899D02*
G01*
X1110000Y2636100D01*
X1110000Y2654899D02*
G01*
X1118100Y2654899D01*
X1120699Y2654000D01*
X1121599Y2653099D01*
X1122500Y2651300D01*
X1122500Y2649499D01*
X1121599Y2647700D01*
X1120699Y2646799D01*
X1118100Y2645900D01*
X1110000Y2645900D01*
X1116300Y2645900D02*
G01*
X1122500Y2636100D01*
X1128400Y2651300D02*
G01*
X1130200Y2652199D01*
X1132899Y2654899D01*
X1132899Y2636100D01*
X1149499Y2654899D02*
G01*
X1140600Y2654899D01*
X1139700Y2646799D01*
X1140600Y2647700D01*
X1143299Y2648600D01*
X1146000Y2648600D01*
X1148699Y2647700D01*
X1150399Y2645900D01*
X1151300Y2643200D01*
X1151300Y2641399D01*
X1150399Y2638800D01*
X1148699Y2636999D01*
X1146000Y2636100D01*
X1143299Y2636100D01*
X1140600Y2636999D01*
X1139700Y2637899D01*
X1138800Y2639699D01*
X2155100Y2270000D02*
G01*
X2173900Y2270000D01*
X2155100Y2270000D02*
G01*
X2155100Y2278099D01*
X2156000Y2280700D01*
X2156899Y2281599D01*
X2158699Y2282500D01*
X2160500Y2282500D01*
X2162299Y2281599D01*
X2163199Y2280700D01*
X2164099Y2278099D01*
X2164099Y2270000D01*
X2164099Y2276300D02*
G01*
X2173900Y2282500D01*
X2158699Y2288400D02*
G01*
X2157799Y2290200D01*
X2155100Y2292899D01*
X2173900Y2292899D01*
X2157799Y2309499D02*
G01*
X2156000Y2308699D01*
X2155100Y2305999D01*
X2155100Y2304200D01*
X2156000Y2301500D01*
X2158699Y2299699D01*
X2163199Y2298800D01*
X2167700Y2298800D01*
X2171199Y2299699D01*
X2173000Y2301500D01*
X2173900Y2304200D01*
X2173900Y2305100D01*
X2173000Y2307800D01*
X2171199Y2309499D01*
X2168599Y2310399D01*
X2167700Y2310399D01*
X2165000Y2309499D01*
X2163199Y2307800D01*
X2162299Y2305100D01*
X2162299Y2304200D01*
X2163199Y2301500D01*
X2165000Y2299699D01*
X2167700Y2298800D01*
X1750000Y2829899D02*
G01*
X1750000Y2811100D01*
X1750000Y2829899D02*
G01*
X1758100Y2829899D01*
X1760699Y2829000D01*
X1761599Y2828099D01*
X1762500Y2826300D01*
X1762500Y2824499D01*
X1761599Y2822700D01*
X1760699Y2821799D01*
X1758100Y2820900D01*
X1750000Y2820900D01*
X1756300Y2820900D02*
G01*
X1762500Y2811100D01*
X1768400Y2826300D02*
G01*
X1770200Y2827199D01*
X1772899Y2829899D01*
X1772899Y2811100D01*
X1791300Y2829899D02*
G01*
X1782399Y2811100D01*
X1778800Y2829899D02*
G01*
X1791300Y2829899D01*
X2540000Y2649899D02*
G01*
X2540000Y2631100D01*
X2540000Y2649899D02*
G01*
X2548100Y2649899D01*
X2550699Y2649000D01*
X2551599Y2648099D01*
X2552500Y2646300D01*
X2552500Y2644499D01*
X2551599Y2642700D01*
X2550699Y2641799D01*
X2548100Y2640900D01*
X2540000Y2640900D01*
X2546300Y2640900D02*
G01*
X2552500Y2631100D01*
X2558400Y2646300D02*
G01*
X2560200Y2647199D01*
X2562899Y2649899D01*
X2562899Y2631100D01*
X2580399Y2643600D02*
G01*
X2579499Y2640900D01*
X2577799Y2639099D01*
X2575100Y2638200D01*
X2574200Y2638200D01*
X2571499Y2639099D01*
X2569700Y2640900D01*
X2568800Y2643600D01*
X2568800Y2644499D01*
X2569700Y2647199D01*
X2571499Y2649000D01*
X2574200Y2649899D01*
X2575100Y2649899D01*
X2577799Y2649000D01*
X2579499Y2647199D01*
X2580399Y2643600D01*
X2580399Y2639099D01*
X2579499Y2634699D01*
X2577799Y2631999D01*
X2575100Y2631100D01*
X2573299Y2631100D01*
X2570600Y2631999D01*
X2569700Y2633800D01*
X2535000Y2694899D02*
G01*
X2535000Y2676100D01*
X2535000Y2694899D02*
G01*
X2543100Y2694899D01*
X2545699Y2694000D01*
X2546599Y2693099D01*
X2547500Y2691300D01*
X2547500Y2689499D01*
X2546599Y2687700D01*
X2545699Y2686799D01*
X2543100Y2685900D01*
X2535000Y2685900D01*
X2541300Y2685900D02*
G01*
X2547500Y2676100D01*
X2554300Y2690399D02*
G01*
X2554300Y2691300D01*
X2555200Y2693099D01*
X2556099Y2694000D01*
X2557899Y2694899D01*
X2561499Y2694899D01*
X2563299Y2694000D01*
X2564200Y2693099D01*
X2565100Y2691300D01*
X2565100Y2689499D01*
X2564200Y2687700D01*
X2562399Y2685000D01*
X2553400Y2676100D01*
X2566000Y2676100D01*
X2577200Y2694899D02*
G01*
X2574499Y2694000D01*
X2572799Y2691300D01*
X2571899Y2686799D01*
X2571899Y2684099D01*
X2572799Y2679699D01*
X2574499Y2676999D01*
X2577200Y2676100D01*
X2578999Y2676100D01*
X2581700Y2676999D01*
X2583500Y2679699D01*
X2584399Y2684099D01*
X2584399Y2686799D01*
X2583500Y2691300D01*
X2581700Y2694000D01*
X2578999Y2694899D01*
X2577200Y2694899D01*
X2870000Y2249899D02*
G01*
X2870000Y2231100D01*
X2870000Y2249899D02*
G01*
X2878100Y2249899D01*
X2880699Y2249000D01*
X2881599Y2248099D01*
X2882500Y2246300D01*
X2882500Y2244499D01*
X2881599Y2242700D01*
X2880699Y2241799D01*
X2878100Y2240900D01*
X2870000Y2240900D01*
X2876300Y2240900D02*
G01*
X2882500Y2231100D01*
X2889300Y2245399D02*
G01*
X2889300Y2246300D01*
X2890200Y2248099D01*
X2891099Y2249000D01*
X2892899Y2249899D01*
X2896499Y2249899D01*
X2898299Y2249000D01*
X2899200Y2248099D01*
X2900100Y2246300D01*
X2900100Y2244499D01*
X2899200Y2242700D01*
X2897399Y2240000D01*
X2888400Y2231100D01*
X2901000Y2231100D01*
X2906899Y2246300D02*
G01*
X2908699Y2247199D01*
X2911300Y2249899D01*
X2911300Y2231100D01*
X2810000Y2709899D02*
G01*
X2810000Y2691100D01*
X2810000Y2709899D02*
G01*
X2818100Y2709899D01*
X2820699Y2709000D01*
X2821599Y2708099D01*
X2822500Y2706300D01*
X2822500Y2704499D01*
X2821599Y2702700D01*
X2820699Y2701799D01*
X2818100Y2700900D01*
X2810000Y2700900D01*
X2816300Y2700900D02*
G01*
X2822500Y2691100D01*
X2829300Y2705399D02*
G01*
X2829300Y2706300D01*
X2830200Y2708099D01*
X2831099Y2709000D01*
X2832899Y2709899D01*
X2836499Y2709899D01*
X2838299Y2709000D01*
X2839200Y2708099D01*
X2840100Y2706300D01*
X2840100Y2704499D01*
X2839200Y2702700D01*
X2837399Y2700000D01*
X2828400Y2691100D01*
X2841000Y2691100D01*
X2847799Y2705399D02*
G01*
X2847799Y2706300D01*
X2848699Y2708099D01*
X2849499Y2709000D01*
X2851300Y2709899D01*
X2854899Y2709899D01*
X2856700Y2709000D01*
X2857600Y2708099D01*
X2858500Y2706300D01*
X2858500Y2704499D01*
X2857600Y2702700D01*
X2855799Y2700000D01*
X2846899Y2691100D01*
X2859399Y2691100D01*
X2250100Y2330000D02*
G01*
X2268900Y2330000D01*
X2250100Y2330000D02*
G01*
X2250100Y2338099D01*
X2251000Y2340700D01*
X2251899Y2341599D01*
X2253699Y2342500D01*
X2255500Y2342500D01*
X2257299Y2341599D01*
X2258199Y2340700D01*
X2259099Y2338099D01*
X2259099Y2330000D01*
X2259099Y2336300D02*
G01*
X2268900Y2342500D01*
X2254600Y2349299D02*
G01*
X2253699Y2349299D01*
X2251899Y2350200D01*
X2251000Y2351100D01*
X2250100Y2352899D01*
X2250100Y2356500D01*
X2251000Y2358299D01*
X2251899Y2359200D01*
X2253699Y2360100D01*
X2255500Y2360100D01*
X2257299Y2359200D01*
X2260000Y2357399D01*
X2268900Y2348400D01*
X2268900Y2360999D01*
X2250100Y2371300D02*
G01*
X2251000Y2368699D01*
X2252799Y2367800D01*
X2254600Y2367800D01*
X2256400Y2368699D01*
X2257299Y2370399D01*
X2258199Y2374000D01*
X2259099Y2376700D01*
X2260900Y2378499D01*
X2262700Y2379400D01*
X2265299Y2379400D01*
X2267100Y2378499D01*
X2268000Y2377600D01*
X2268900Y2374899D01*
X2268900Y2371300D01*
X2268000Y2368699D01*
X2267100Y2367800D01*
X2265299Y2366900D01*
X2262700Y2366900D01*
X2260900Y2367800D01*
X2259099Y2369499D01*
X2258199Y2372199D01*
X2257299Y2375799D01*
X2256400Y2377600D01*
X2254600Y2378499D01*
X2252799Y2378499D01*
X2251000Y2377600D01*
X2250100Y2374899D01*
X2250100Y2371300D01*
X1165100Y2790000D02*
G01*
X1183900Y2790000D01*
X1165100Y2790000D02*
G01*
X1165100Y2798099D01*
X1166000Y2800700D01*
X1166899Y2801599D01*
X1168699Y2802500D01*
X1170500Y2802500D01*
X1172299Y2801599D01*
X1173199Y2800700D01*
X1174099Y2798099D01*
X1174099Y2790000D01*
X1174099Y2796300D02*
G01*
X1183900Y2802500D01*
X1165100Y2810200D02*
G01*
X1165100Y2820100D01*
X1172299Y2814699D01*
X1172299Y2817399D01*
X1173199Y2819200D01*
X1174099Y2820100D01*
X1176800Y2820999D01*
X1178599Y2820999D01*
X1181199Y2820100D01*
X1183000Y2818299D01*
X1183900Y2815599D01*
X1183900Y2812899D01*
X1183000Y2810200D01*
X1182100Y2809299D01*
X1180299Y2808400D01*
X1168699Y2826900D02*
G01*
X1167799Y2828699D01*
X1165100Y2831300D01*
X1183900Y2831300D01*
X3030000Y2699899D02*
G01*
X3030000Y2686399D01*
X3030900Y2683800D01*
X3032700Y2681999D01*
X3035399Y2681100D01*
X3037200Y2681100D01*
X3039799Y2681999D01*
X3041599Y2683800D01*
X3042500Y2686399D01*
X3042500Y2699899D01*
X3061000Y2697199D02*
G01*
X3059200Y2699000D01*
X3056499Y2699899D01*
X3052899Y2699899D01*
X3050200Y2699000D01*
X3048400Y2697199D01*
X3048400Y2695399D01*
X3049300Y2693600D01*
X3050200Y2692700D01*
X3051999Y2691799D01*
X3057399Y2690000D01*
X3059200Y2689099D01*
X3060100Y2688200D01*
X3061000Y2686399D01*
X3061000Y2683800D01*
X3059200Y2681999D01*
X3056499Y2681100D01*
X3052899Y2681100D01*
X3050200Y2681999D01*
X3048400Y2683800D01*
X3066899Y2699899D02*
G01*
X3066899Y2681100D01*
X3066899Y2699899D02*
G01*
X3074899Y2699899D01*
X3077600Y2699000D01*
X3078500Y2698099D01*
X3079399Y2696300D01*
X3079399Y2694499D01*
X3078500Y2692700D01*
X3077600Y2691799D01*
X3074899Y2690900D01*
X3066899Y2690900D02*
G01*
X3074899Y2690900D01*
X3077600Y2690000D01*
X3078500Y2689099D01*
X3079399Y2687300D01*
X3079399Y2684699D01*
X3078500Y2682899D01*
X3077600Y2681999D01*
X3074899Y2681100D01*
X3066899Y2681100D01*
X3085299Y2696300D02*
G01*
X3087100Y2697199D01*
X3089799Y2699899D01*
X3089799Y2681100D01*
X2388400Y2595399D02*
G01*
X2387500Y2597199D01*
X2385699Y2599000D01*
X2383900Y2599899D01*
X2380399Y2599899D01*
X2378599Y2599000D01*
X2376800Y2597199D01*
X2375900Y2595399D01*
X2375000Y2592700D01*
X2375000Y2588200D01*
X2375900Y2585500D01*
X2376800Y2583800D01*
X2378599Y2581999D01*
X2380399Y2581100D01*
X2383900Y2581100D01*
X2385699Y2581999D01*
X2387500Y2583800D01*
X2388400Y2585500D01*
X2396099Y2599899D02*
G01*
X2406000Y2599899D01*
X2400600Y2592700D01*
X2403299Y2592700D01*
X2405100Y2591799D01*
X2406000Y2590900D01*
X2406899Y2588200D01*
X2406899Y2586399D01*
X2406000Y2583800D01*
X2404200Y2581999D01*
X2401499Y2581100D01*
X2398800Y2581100D01*
X2396099Y2581999D01*
X2395200Y2582899D01*
X2394300Y2584699D01*
X2425299Y2599899D02*
G01*
X2416300Y2581100D01*
X2412799Y2599899D02*
G01*
X2425299Y2599899D01*
X2355000Y2539899D02*
G01*
X2355000Y2526399D01*
X2355900Y2523800D01*
X2357700Y2521999D01*
X2360399Y2521100D01*
X2362200Y2521100D01*
X2364799Y2521999D01*
X2366599Y2523800D01*
X2367500Y2526399D01*
X2367500Y2539899D01*
X2384200Y2539899D02*
G01*
X2375200Y2539899D01*
X2374300Y2531799D01*
X2375200Y2532700D01*
X2377899Y2533600D01*
X2380600Y2533600D01*
X2383299Y2532700D01*
X2385100Y2530900D01*
X2386000Y2528200D01*
X2386000Y2526399D01*
X2385100Y2523800D01*
X2383299Y2521999D01*
X2380600Y2521100D01*
X2377899Y2521100D01*
X2375200Y2521999D01*
X2374300Y2522899D01*
X2373400Y2524699D01*
X2658400Y2595399D02*
G01*
X2657500Y2597199D01*
X2655699Y2599000D01*
X2653900Y2599899D01*
X2650399Y2599899D01*
X2648599Y2599000D01*
X2646800Y2597199D01*
X2645900Y2595399D01*
X2645000Y2592700D01*
X2645000Y2588200D01*
X2645900Y2585500D01*
X2646800Y2583800D01*
X2648599Y2581999D01*
X2650399Y2581100D01*
X2653900Y2581100D01*
X2655699Y2581999D01*
X2657500Y2583800D01*
X2658400Y2585500D01*
X2666099Y2599899D02*
G01*
X2676000Y2599899D01*
X2670600Y2592700D01*
X2673299Y2592700D01*
X2675100Y2591799D01*
X2676000Y2590900D01*
X2676899Y2588200D01*
X2676899Y2586399D01*
X2676000Y2583800D01*
X2674200Y2581999D01*
X2671499Y2581100D01*
X2668800Y2581100D01*
X2666099Y2581999D01*
X2665200Y2582899D01*
X2664300Y2584699D01*
X2693500Y2599899D02*
G01*
X2684499Y2599899D01*
X2683699Y2591799D01*
X2684499Y2592700D01*
X2687200Y2593600D01*
X2689899Y2593600D01*
X2692600Y2592700D01*
X2694399Y2590900D01*
X2695299Y2588200D01*
X2695299Y2586399D01*
X2694399Y2583800D01*
X2692600Y2581999D01*
X2689899Y2581100D01*
X2687200Y2581100D01*
X2684499Y2581999D01*
X2683699Y2582899D01*
X2682799Y2584699D01*
X2260000Y2739899D02*
G01*
X2260000Y2721100D01*
X2260000Y2721100D02*
G01*
X2270699Y2721100D01*
X2277500Y2735399D02*
G01*
X2277500Y2736300D01*
X2278400Y2738099D01*
X2279300Y2739000D01*
X2281099Y2739899D01*
X2284700Y2739899D01*
X2286499Y2739000D01*
X2287399Y2738099D01*
X2288299Y2736300D01*
X2288299Y2734499D01*
X2287399Y2732700D01*
X2285600Y2730000D01*
X2276599Y2721100D01*
X2289200Y2721100D01*
X2303900Y2204899D02*
G01*
X2303900Y2190500D01*
X2303100Y2187899D01*
X2302200Y2186999D01*
X2300399Y2186100D01*
X2298599Y2186100D01*
X2296800Y2186999D01*
X2295900Y2187899D01*
X2295000Y2190500D01*
X2295000Y2192300D01*
X2309899Y2201300D02*
G01*
X2311599Y2202199D01*
X2314300Y2204899D01*
X2314300Y2186100D01*
X2290000Y2262700D02*
G01*
X2288199Y2261799D01*
X2285500Y2259099D01*
X2285500Y2278200D01*
X2040000Y2262700D02*
G01*
X2038199Y2261799D01*
X2035500Y2259099D01*
X2035500Y2278200D01*
X2023999Y2259099D02*
G01*
X2026700Y2260000D01*
X2028500Y2262700D01*
X2029499Y2267300D01*
X2029499Y2270000D01*
X2028500Y2274499D01*
X2026700Y2277300D01*
X2023999Y2278200D01*
X2022200Y2278200D01*
X2019499Y2277300D01*
X2017600Y2274499D01*
X2016700Y2270000D01*
X2016700Y2267300D01*
X2017600Y2262700D01*
X2019499Y2260000D01*
X2022200Y2259099D01*
X2023999Y2259099D01*
X1764099Y2263600D02*
G01*
X1764099Y2262700D01*
X1763199Y2260900D01*
X1762299Y2260000D01*
X1760500Y2259099D01*
X1756800Y2259099D01*
X1755000Y2260000D01*
X1754099Y2260900D01*
X1753199Y2262700D01*
X1753199Y2264499D01*
X1754099Y2266399D01*
X1755900Y2269099D01*
X1765000Y2278200D01*
X1752299Y2278200D01*
X1740799Y2259099D02*
G01*
X1743500Y2260000D01*
X1745399Y2262700D01*
X1746300Y2267300D01*
X1746300Y2270000D01*
X1745399Y2274499D01*
X1743500Y2277300D01*
X1740799Y2278200D01*
X1738999Y2278200D01*
X1736300Y2277300D01*
X1734499Y2274499D01*
X1733500Y2270000D01*
X1733500Y2267300D01*
X1734499Y2262700D01*
X1736300Y2260000D01*
X1738999Y2259099D01*
X1740799Y2259099D01*
X1478199Y2259099D02*
G01*
X1468199Y2259099D01*
X1473599Y2266399D01*
X1470900Y2266399D01*
X1469099Y2267300D01*
X1468199Y2268200D01*
X1467299Y2270900D01*
X1467299Y2272700D01*
X1468199Y2275500D01*
X1470000Y2277300D01*
X1472700Y2278200D01*
X1475500Y2278200D01*
X1478199Y2277300D01*
X1479099Y2276399D01*
X1480000Y2274499D01*
X1455799Y2259099D02*
G01*
X1458500Y2260000D01*
X1460399Y2262700D01*
X1461300Y2267300D01*
X1461300Y2270000D01*
X1460399Y2274499D01*
X1458500Y2277300D01*
X1455799Y2278200D01*
X1453999Y2278200D01*
X1451300Y2277300D01*
X1449499Y2274499D01*
X1448500Y2270000D01*
X1448500Y2267300D01*
X1449499Y2262700D01*
X1451300Y2260000D01*
X1453999Y2259099D01*
X1455799Y2259099D01*
X2355399Y2189899D02*
G01*
X2353599Y2189000D01*
X2351800Y2187199D01*
X2350900Y2185399D01*
X2350000Y2182700D01*
X2350000Y2178200D01*
X2350900Y2175500D01*
X2351800Y2173800D01*
X2353599Y2171999D01*
X2355399Y2171100D01*
X2358900Y2171100D01*
X2360699Y2171999D01*
X2362500Y2173800D01*
X2363400Y2175500D01*
X2364300Y2178200D01*
X2364300Y2182700D01*
X2363400Y2185399D01*
X2362500Y2187199D01*
X2360699Y2189000D01*
X2358900Y2189899D01*
X2355399Y2189899D01*
X2358100Y2174699D02*
G01*
X2363400Y2169299D01*
X2370200Y2186300D02*
G01*
X2371999Y2187199D01*
X2374700Y2189899D01*
X2374700Y2171100D01*
X1984600Y2768400D02*
G01*
X1982799Y2767500D01*
X1981000Y2765700D01*
X1980100Y2763899D01*
X1980100Y2760399D01*
X1981000Y2758600D01*
X1982799Y2756799D01*
X1984600Y2755900D01*
X1987299Y2755000D01*
X1991800Y2755000D01*
X1994499Y2755900D01*
X1996199Y2756799D01*
X1998000Y2758600D01*
X1998900Y2760399D01*
X1998900Y2763899D01*
X1998000Y2765700D01*
X1996199Y2767500D01*
X1994499Y2768400D01*
X1980100Y2776100D02*
G01*
X1980100Y2785999D01*
X1987299Y2780599D01*
X1987299Y2783299D01*
X1988199Y2785100D01*
X1989099Y2785999D01*
X1991800Y2786900D01*
X1993599Y2786900D01*
X1996199Y2785999D01*
X1998000Y2784200D01*
X1998900Y2781500D01*
X1998900Y2778800D01*
X1998000Y2776100D01*
X1997100Y2775200D01*
X1995299Y2774299D01*
X1980100Y2798099D02*
G01*
X1981000Y2795399D01*
X1983699Y2793699D01*
X1988199Y2792800D01*
X1990900Y2792800D01*
X1995299Y2793699D01*
X1998000Y2795399D01*
X1998900Y2798099D01*
X1998900Y2799899D01*
X1998000Y2802600D01*
X1995299Y2804400D01*
X1990900Y2805300D01*
X1988199Y2805300D01*
X1983699Y2804400D01*
X1981000Y2802600D01*
X1980100Y2799899D01*
X1980100Y2798099D01*
X2138400Y2800399D02*
G01*
X2137500Y2802199D01*
X2135699Y2804000D01*
X2133900Y2804899D01*
X2130399Y2804899D01*
X2128599Y2804000D01*
X2126800Y2802199D01*
X2125900Y2800399D01*
X2125000Y2797700D01*
X2125000Y2793200D01*
X2125900Y2790500D01*
X2126800Y2788800D01*
X2128599Y2786999D01*
X2130399Y2786100D01*
X2133900Y2786100D01*
X2135699Y2786999D01*
X2137500Y2788800D01*
X2138400Y2790500D01*
X2146099Y2804899D02*
G01*
X2156000Y2804899D01*
X2150600Y2797700D01*
X2153299Y2797700D01*
X2155100Y2796799D01*
X2156000Y2795900D01*
X2156899Y2793200D01*
X2156899Y2791399D01*
X2156000Y2788800D01*
X2154200Y2786999D01*
X2151499Y2786100D01*
X2148800Y2786100D01*
X2146099Y2786999D01*
X2145200Y2787899D01*
X2144300Y2789699D01*
X2162799Y2801300D02*
G01*
X2164499Y2802199D01*
X2167200Y2804899D01*
X2167200Y2786100D01*
X2298400Y2315399D02*
G01*
X2297500Y2317199D01*
X2295699Y2319000D01*
X2293900Y2319899D01*
X2290399Y2319899D01*
X2288599Y2319000D01*
X2286800Y2317199D01*
X2285900Y2315399D01*
X2285000Y2312700D01*
X2285000Y2308200D01*
X2285900Y2305500D01*
X2286800Y2303800D01*
X2288599Y2301999D01*
X2290399Y2301100D01*
X2293900Y2301100D01*
X2295699Y2301999D01*
X2297500Y2303800D01*
X2298400Y2305500D01*
X2304300Y2316300D02*
G01*
X2306099Y2317199D01*
X2308800Y2319899D01*
X2308800Y2301100D01*
X2113400Y2275399D02*
G01*
X2112500Y2277199D01*
X2110699Y2279000D01*
X2108900Y2279899D01*
X2105399Y2279899D01*
X2103599Y2279000D01*
X2101800Y2277199D01*
X2100900Y2275399D01*
X2100000Y2272700D01*
X2100000Y2268200D01*
X2100900Y2265500D01*
X2101800Y2263800D01*
X2103599Y2261999D01*
X2105399Y2261100D01*
X2108900Y2261100D01*
X2110699Y2261999D01*
X2112500Y2263800D01*
X2113400Y2265500D01*
X2120200Y2275399D02*
G01*
X2120200Y2276300D01*
X2121099Y2278099D01*
X2121999Y2279000D01*
X2123800Y2279899D01*
X2127399Y2279899D01*
X2129200Y2279000D01*
X2130100Y2278099D01*
X2131000Y2276300D01*
X2131000Y2274499D01*
X2130100Y2272700D01*
X2128299Y2270000D01*
X2119300Y2261100D01*
X2131899Y2261100D01*
X2009600Y2408400D02*
G01*
X2007799Y2407500D01*
X2006000Y2405700D01*
X2005100Y2403899D01*
X2005100Y2400399D01*
X2006000Y2398600D01*
X2007799Y2396799D01*
X2009600Y2395900D01*
X2012299Y2395000D01*
X2016800Y2395000D01*
X2019499Y2395900D01*
X2021199Y2396799D01*
X2023000Y2398600D01*
X2023900Y2400399D01*
X2023900Y2403899D01*
X2023000Y2405700D01*
X2021199Y2407500D01*
X2019499Y2408400D01*
X2005100Y2416100D02*
G01*
X2005100Y2425999D01*
X2012299Y2420599D01*
X2012299Y2423299D01*
X2013199Y2425100D01*
X2014099Y2425999D01*
X2016800Y2426900D01*
X2018599Y2426900D01*
X2021199Y2425999D01*
X2023000Y2424200D01*
X2023900Y2421500D01*
X2023900Y2418800D01*
X2023000Y2416100D01*
X2022100Y2415200D01*
X2020299Y2414299D01*
X1974600Y2408400D02*
G01*
X1972799Y2407500D01*
X1971000Y2405700D01*
X1970100Y2403899D01*
X1970100Y2400399D01*
X1971000Y2398600D01*
X1972799Y2396799D01*
X1974600Y2395900D01*
X1977299Y2395000D01*
X1981800Y2395000D01*
X1984499Y2395900D01*
X1986199Y2396799D01*
X1988000Y2398600D01*
X1988900Y2400399D01*
X1988900Y2403899D01*
X1988000Y2405700D01*
X1986199Y2407500D01*
X1984499Y2408400D01*
X1970100Y2423299D02*
G01*
X1982700Y2414299D01*
X1982700Y2427700D01*
X1970100Y2423299D02*
G01*
X1988900Y2423299D01*
X1469600Y2333400D02*
G01*
X1467799Y2332500D01*
X1466000Y2330700D01*
X1465100Y2328899D01*
X1465100Y2325399D01*
X1466000Y2323600D01*
X1467799Y2321799D01*
X1469600Y2320900D01*
X1472299Y2320000D01*
X1476800Y2320000D01*
X1479499Y2320900D01*
X1481199Y2321799D01*
X1483000Y2323600D01*
X1483900Y2325399D01*
X1483900Y2328899D01*
X1483000Y2330700D01*
X1481199Y2332500D01*
X1479499Y2333400D01*
X1465100Y2350100D02*
G01*
X1465100Y2341100D01*
X1473199Y2340200D01*
X1472299Y2341100D01*
X1471400Y2343800D01*
X1471400Y2346500D01*
X1472299Y2349200D01*
X1474099Y2350999D01*
X1476800Y2351900D01*
X1478599Y2351900D01*
X1481199Y2350999D01*
X1483000Y2349200D01*
X1483900Y2346500D01*
X1483900Y2343800D01*
X1483000Y2341100D01*
X1482100Y2340200D01*
X1480299Y2339299D01*
X1439600Y2333400D02*
G01*
X1437799Y2332500D01*
X1436000Y2330700D01*
X1435100Y2328899D01*
X1435100Y2325399D01*
X1436000Y2323600D01*
X1437799Y2321799D01*
X1439600Y2320900D01*
X1442299Y2320000D01*
X1446800Y2320000D01*
X1449499Y2320900D01*
X1451199Y2321799D01*
X1453000Y2323600D01*
X1453900Y2325399D01*
X1453900Y2328899D01*
X1453000Y2330700D01*
X1451199Y2332500D01*
X1449499Y2333400D01*
X1437799Y2350100D02*
G01*
X1436000Y2349200D01*
X1435100Y2346500D01*
X1435100Y2344699D01*
X1436000Y2341999D01*
X1438699Y2340200D01*
X1443199Y2339299D01*
X1447700Y2339299D01*
X1451199Y2340200D01*
X1453000Y2341999D01*
X1453900Y2344699D01*
X1453900Y2345599D01*
X1453000Y2348299D01*
X1451199Y2350100D01*
X1448599Y2350999D01*
X1447700Y2350999D01*
X1445000Y2350100D01*
X1443199Y2348299D01*
X1442299Y2345599D01*
X1442299Y2344699D01*
X1443199Y2341999D01*
X1445000Y2340200D01*
X1447700Y2339299D01*
X1678400Y2420399D02*
G01*
X1677500Y2422199D01*
X1675699Y2424000D01*
X1673900Y2424899D01*
X1670399Y2424899D01*
X1668599Y2424000D01*
X1666800Y2422199D01*
X1665900Y2420399D01*
X1665000Y2417700D01*
X1665000Y2413200D01*
X1665900Y2410500D01*
X1666800Y2408800D01*
X1668599Y2406999D01*
X1670399Y2406100D01*
X1673900Y2406100D01*
X1675699Y2406999D01*
X1677500Y2408800D01*
X1678400Y2410500D01*
X1688800Y2424899D02*
G01*
X1686099Y2424000D01*
X1685200Y2422199D01*
X1685200Y2420399D01*
X1686099Y2418600D01*
X1687899Y2417700D01*
X1691499Y2416799D01*
X1694200Y2415900D01*
X1696000Y2414099D01*
X1696899Y2412300D01*
X1696899Y2409699D01*
X1696000Y2407899D01*
X1695100Y2406999D01*
X1692399Y2406100D01*
X1688800Y2406100D01*
X1686099Y2406999D01*
X1685200Y2407899D01*
X1684300Y2409699D01*
X1684300Y2412300D01*
X1685200Y2414099D01*
X1686999Y2415900D01*
X1689700Y2416799D01*
X1693299Y2417700D01*
X1695100Y2418600D01*
X1696000Y2420399D01*
X1696000Y2422199D01*
X1695100Y2424000D01*
X1692399Y2424899D01*
X1688800Y2424899D01*
X1413400Y2500399D02*
G01*
X1412500Y2502199D01*
X1410699Y2504000D01*
X1408900Y2504899D01*
X1405399Y2504899D01*
X1403599Y2504000D01*
X1401800Y2502199D01*
X1400900Y2500399D01*
X1400000Y2497700D01*
X1400000Y2493200D01*
X1400900Y2490500D01*
X1401800Y2488800D01*
X1403599Y2486999D01*
X1405399Y2486100D01*
X1408900Y2486100D01*
X1410699Y2486999D01*
X1412500Y2488800D01*
X1413400Y2490500D01*
X1419300Y2501300D02*
G01*
X1421099Y2502199D01*
X1423800Y2504899D01*
X1423800Y2486100D01*
X1435100Y2504899D02*
G01*
X1432399Y2504000D01*
X1430600Y2501300D01*
X1429700Y2496799D01*
X1429700Y2494099D01*
X1430600Y2489699D01*
X1432399Y2486999D01*
X1435100Y2486100D01*
X1436899Y2486100D01*
X1439499Y2486999D01*
X1441300Y2489699D01*
X1442200Y2494099D01*
X1442200Y2496799D01*
X1441300Y2501300D01*
X1439499Y2504000D01*
X1436899Y2504899D01*
X1435100Y2504899D01*
X1533400Y2500399D02*
G01*
X1532500Y2502199D01*
X1530699Y2504000D01*
X1528900Y2504899D01*
X1525399Y2504899D01*
X1523599Y2504000D01*
X1521800Y2502199D01*
X1520900Y2500399D01*
X1520000Y2497700D01*
X1520000Y2493200D01*
X1520900Y2490500D01*
X1521800Y2488800D01*
X1523599Y2486999D01*
X1525399Y2486100D01*
X1528900Y2486100D01*
X1530699Y2486999D01*
X1532500Y2488800D01*
X1533400Y2490500D01*
X1539300Y2501300D02*
G01*
X1541099Y2502199D01*
X1543800Y2504899D01*
X1543800Y2486100D01*
X1549700Y2501300D02*
G01*
X1551499Y2502199D01*
X1554200Y2504899D01*
X1554200Y2486100D01*
X1788400Y2335399D02*
G01*
X1787500Y2337199D01*
X1785699Y2339000D01*
X1783900Y2339899D01*
X1780399Y2339899D01*
X1778599Y2339000D01*
X1776800Y2337199D01*
X1775900Y2335399D01*
X1775000Y2332700D01*
X1775000Y2328200D01*
X1775900Y2325500D01*
X1776800Y2323800D01*
X1778599Y2321999D01*
X1780399Y2321100D01*
X1783900Y2321100D01*
X1785699Y2321999D01*
X1787500Y2323800D01*
X1788400Y2325500D01*
X1794300Y2336300D02*
G01*
X1796099Y2337199D01*
X1798800Y2339899D01*
X1798800Y2321100D01*
X1805600Y2335399D02*
G01*
X1805600Y2336300D01*
X1806499Y2338099D01*
X1807399Y2339000D01*
X1809200Y2339899D01*
X1812799Y2339899D01*
X1814499Y2339000D01*
X1815399Y2338099D01*
X1816300Y2336300D01*
X1816300Y2334499D01*
X1815399Y2332700D01*
X1813699Y2330000D01*
X1804700Y2321100D01*
X1817200Y2321100D01*
X1758400Y2595399D02*
G01*
X1757500Y2597199D01*
X1755699Y2599000D01*
X1753900Y2599899D01*
X1750399Y2599899D01*
X1748599Y2599000D01*
X1746800Y2597199D01*
X1745900Y2595399D01*
X1745000Y2592700D01*
X1745000Y2588200D01*
X1745900Y2585500D01*
X1746800Y2583800D01*
X1748599Y2581999D01*
X1750399Y2581100D01*
X1753900Y2581100D01*
X1755699Y2581999D01*
X1757500Y2583800D01*
X1758400Y2585500D01*
X1764300Y2596300D02*
G01*
X1766099Y2597199D01*
X1768800Y2599899D01*
X1768800Y2581100D01*
X1776499Y2599899D02*
G01*
X1786300Y2599899D01*
X1781000Y2592700D01*
X1783699Y2592700D01*
X1785399Y2591799D01*
X1786300Y2590900D01*
X1787200Y2588200D01*
X1787200Y2586399D01*
X1786300Y2583800D01*
X1784499Y2581999D01*
X1781899Y2581100D01*
X1779200Y2581100D01*
X1776499Y2581999D01*
X1775600Y2582899D01*
X1774700Y2584699D01*
X1278400Y2290399D02*
G01*
X1277500Y2292199D01*
X1275699Y2294000D01*
X1273900Y2294899D01*
X1270399Y2294899D01*
X1268599Y2294000D01*
X1266800Y2292199D01*
X1265900Y2290399D01*
X1265000Y2287700D01*
X1265000Y2283200D01*
X1265900Y2280500D01*
X1266800Y2278800D01*
X1268599Y2276999D01*
X1270399Y2276100D01*
X1273900Y2276100D01*
X1275699Y2276999D01*
X1277500Y2278800D01*
X1278400Y2280500D01*
X1284300Y2291300D02*
G01*
X1286099Y2292199D01*
X1288800Y2294899D01*
X1288800Y2276100D01*
X1305399Y2294899D02*
G01*
X1296499Y2294899D01*
X1295600Y2286799D01*
X1296499Y2287700D01*
X1299200Y2288600D01*
X1301899Y2288600D01*
X1304499Y2287700D01*
X1306300Y2285900D01*
X1307200Y2283200D01*
X1307200Y2281399D01*
X1306300Y2278800D01*
X1304499Y2276999D01*
X1301899Y2276100D01*
X1299200Y2276100D01*
X1296499Y2276999D01*
X1295600Y2277899D01*
X1294700Y2279699D01*
X1278400Y2240399D02*
G01*
X1277500Y2242199D01*
X1275699Y2244000D01*
X1273900Y2244899D01*
X1270399Y2244899D01*
X1268599Y2244000D01*
X1266800Y2242199D01*
X1265900Y2240399D01*
X1265000Y2237700D01*
X1265000Y2233200D01*
X1265900Y2230500D01*
X1266800Y2228800D01*
X1268599Y2226999D01*
X1270399Y2226100D01*
X1273900Y2226100D01*
X1275699Y2226999D01*
X1277500Y2228800D01*
X1278400Y2230500D01*
X1284300Y2241300D02*
G01*
X1286099Y2242199D01*
X1288800Y2244899D01*
X1288800Y2226100D01*
X1305399Y2242199D02*
G01*
X1304499Y2244000D01*
X1301899Y2244899D01*
X1300100Y2244899D01*
X1297399Y2244000D01*
X1295600Y2241300D01*
X1294700Y2236799D01*
X1294700Y2232300D01*
X1295600Y2228800D01*
X1297399Y2226999D01*
X1300100Y2226100D01*
X1301000Y2226100D01*
X1303699Y2226999D01*
X1305399Y2228800D01*
X1306300Y2231399D01*
X1306300Y2232300D01*
X1305399Y2235000D01*
X1303699Y2236799D01*
X1301000Y2237700D01*
X1300100Y2237700D01*
X1297399Y2236799D01*
X1295600Y2235000D01*
X1294700Y2232300D01*
X1278400Y2195399D02*
G01*
X1277500Y2197199D01*
X1275699Y2199000D01*
X1273900Y2199899D01*
X1270399Y2199899D01*
X1268599Y2199000D01*
X1266800Y2197199D01*
X1265900Y2195399D01*
X1265000Y2192700D01*
X1265000Y2188200D01*
X1265900Y2185500D01*
X1266800Y2183800D01*
X1268599Y2181999D01*
X1270399Y2181100D01*
X1273900Y2181100D01*
X1275699Y2181999D01*
X1277500Y2183800D01*
X1278400Y2185500D01*
X1284300Y2196300D02*
G01*
X1286099Y2197199D01*
X1288800Y2199899D01*
X1288800Y2181100D01*
X1307200Y2199899D02*
G01*
X1298299Y2181100D01*
X1294700Y2199899D02*
G01*
X1307200Y2199899D01*
X1278400Y2155399D02*
G01*
X1277500Y2157199D01*
X1275699Y2159000D01*
X1273900Y2159899D01*
X1270399Y2159899D01*
X1268599Y2159000D01*
X1266800Y2157199D01*
X1265900Y2155399D01*
X1265000Y2152700D01*
X1265000Y2148200D01*
X1265900Y2145500D01*
X1266800Y2143800D01*
X1268599Y2141999D01*
X1270399Y2141100D01*
X1273900Y2141100D01*
X1275699Y2141999D01*
X1277500Y2143800D01*
X1278400Y2145500D01*
X1284300Y2156300D02*
G01*
X1286099Y2157199D01*
X1288800Y2159899D01*
X1288800Y2141100D01*
X1299200Y2159899D02*
G01*
X1296499Y2159000D01*
X1295600Y2157199D01*
X1295600Y2155399D01*
X1296499Y2153600D01*
X1298299Y2152700D01*
X1301899Y2151799D01*
X1304499Y2150900D01*
X1306300Y2149099D01*
X1307200Y2147300D01*
X1307200Y2144699D01*
X1306300Y2142899D01*
X1305399Y2141999D01*
X1302799Y2141100D01*
X1299200Y2141100D01*
X1296499Y2141999D01*
X1295600Y2142899D01*
X1294700Y2144699D01*
X1294700Y2147300D01*
X1295600Y2149099D01*
X1297399Y2150900D01*
X1300100Y2151799D01*
X1303699Y2152700D01*
X1305399Y2153600D01*
X1306300Y2155399D01*
X1306300Y2157199D01*
X1305399Y2159000D01*
X1302799Y2159899D01*
X1299200Y2159899D01*
X1103400Y2605399D02*
G01*
X1102500Y2607199D01*
X1100699Y2609000D01*
X1098900Y2609899D01*
X1095399Y2609899D01*
X1093599Y2609000D01*
X1091800Y2607199D01*
X1090900Y2605399D01*
X1090000Y2602700D01*
X1090000Y2598200D01*
X1090900Y2595500D01*
X1091800Y2593800D01*
X1093599Y2591999D01*
X1095399Y2591100D01*
X1098900Y2591100D01*
X1100699Y2591999D01*
X1102500Y2593800D01*
X1103400Y2595500D01*
X1110200Y2605399D02*
G01*
X1110200Y2606300D01*
X1111099Y2608099D01*
X1111999Y2609000D01*
X1113800Y2609899D01*
X1117399Y2609899D01*
X1119200Y2609000D01*
X1120100Y2608099D01*
X1121000Y2606300D01*
X1121000Y2604499D01*
X1120100Y2602700D01*
X1118299Y2600000D01*
X1109300Y2591100D01*
X1121899Y2591100D01*
X1133100Y2609899D02*
G01*
X1130399Y2609000D01*
X1128699Y2606300D01*
X1127799Y2601799D01*
X1127799Y2599099D01*
X1128699Y2594699D01*
X1130399Y2591999D01*
X1133100Y2591100D01*
X1134899Y2591100D01*
X1137600Y2591999D01*
X1139399Y2594699D01*
X1140299Y2599099D01*
X1140299Y2601799D01*
X1139399Y2606300D01*
X1137600Y2609000D01*
X1134899Y2609899D01*
X1133100Y2609899D01*
X1108400Y2700399D02*
G01*
X1107500Y2702199D01*
X1105699Y2704000D01*
X1103900Y2704899D01*
X1100399Y2704899D01*
X1098599Y2704000D01*
X1096800Y2702199D01*
X1095900Y2700399D01*
X1095000Y2697700D01*
X1095000Y2693200D01*
X1095900Y2690500D01*
X1096800Y2688800D01*
X1098599Y2686999D01*
X1100399Y2686100D01*
X1103900Y2686100D01*
X1105699Y2686999D01*
X1107500Y2688800D01*
X1108400Y2690500D01*
X1115200Y2700399D02*
G01*
X1115200Y2701300D01*
X1116099Y2703099D01*
X1116999Y2704000D01*
X1118800Y2704899D01*
X1122399Y2704899D01*
X1124200Y2704000D01*
X1125100Y2703099D01*
X1126000Y2701300D01*
X1126000Y2699499D01*
X1125100Y2697700D01*
X1123299Y2695000D01*
X1114300Y2686100D01*
X1126899Y2686100D01*
X1132799Y2701300D02*
G01*
X1134499Y2702199D01*
X1137200Y2704899D01*
X1137200Y2686100D01*
X1103400Y2555399D02*
G01*
X1102500Y2557199D01*
X1100699Y2559000D01*
X1098900Y2559899D01*
X1095399Y2559899D01*
X1093599Y2559000D01*
X1091800Y2557199D01*
X1090900Y2555399D01*
X1090000Y2552700D01*
X1090000Y2548200D01*
X1090900Y2545500D01*
X1091800Y2543800D01*
X1093599Y2541999D01*
X1095399Y2541100D01*
X1098900Y2541100D01*
X1100699Y2541999D01*
X1102500Y2543800D01*
X1103400Y2545500D01*
X1110200Y2555399D02*
G01*
X1110200Y2556300D01*
X1111099Y2558099D01*
X1111999Y2559000D01*
X1113800Y2559899D01*
X1117399Y2559899D01*
X1119200Y2559000D01*
X1120100Y2558099D01*
X1121000Y2556300D01*
X1121000Y2554499D01*
X1120100Y2552700D01*
X1118299Y2550000D01*
X1109300Y2541100D01*
X1121899Y2541100D01*
X1128699Y2555399D02*
G01*
X1128699Y2556300D01*
X1129499Y2558099D01*
X1130399Y2559000D01*
X1132200Y2559899D01*
X1135799Y2559899D01*
X1137600Y2559000D01*
X1138500Y2558099D01*
X1139399Y2556300D01*
X1139399Y2554499D01*
X1138500Y2552700D01*
X1136700Y2550000D01*
X1127799Y2541100D01*
X1140299Y2541100D01*
X2058400Y2400399D02*
G01*
X2057500Y2402199D01*
X2055699Y2404000D01*
X2053900Y2404899D01*
X2050399Y2404899D01*
X2048599Y2404000D01*
X2046800Y2402199D01*
X2045900Y2400399D01*
X2045000Y2397700D01*
X2045000Y2393200D01*
X2045900Y2390500D01*
X2046800Y2388800D01*
X2048599Y2386999D01*
X2050399Y2386100D01*
X2053900Y2386100D01*
X2055699Y2386999D01*
X2057500Y2388800D01*
X2058400Y2390500D01*
X2065200Y2400399D02*
G01*
X2065200Y2401300D01*
X2066099Y2403099D01*
X2066999Y2404000D01*
X2068800Y2404899D01*
X2072399Y2404899D01*
X2074200Y2404000D01*
X2075100Y2403099D01*
X2076000Y2401300D01*
X2076000Y2399499D01*
X2075100Y2397700D01*
X2073299Y2395000D01*
X2064300Y2386100D01*
X2076899Y2386100D01*
X2084499Y2404899D02*
G01*
X2094399Y2404899D01*
X2088999Y2397700D01*
X2091700Y2397700D01*
X2093500Y2396799D01*
X2094399Y2395900D01*
X2095299Y2393200D01*
X2095299Y2391399D01*
X2094399Y2388800D01*
X2092600Y2386999D01*
X2089899Y2386100D01*
X2087200Y2386100D01*
X2084499Y2386999D01*
X2083699Y2387899D01*
X2082799Y2389699D01*
X2138400Y2755399D02*
G01*
X2137500Y2757199D01*
X2135699Y2759000D01*
X2133900Y2759899D01*
X2130399Y2759899D01*
X2128599Y2759000D01*
X2126800Y2757199D01*
X2125900Y2755399D01*
X2125000Y2752700D01*
X2125000Y2748200D01*
X2125900Y2745500D01*
X2126800Y2743800D01*
X2128599Y2741999D01*
X2130399Y2741100D01*
X2133900Y2741100D01*
X2135699Y2741999D01*
X2137500Y2743800D01*
X2138400Y2745500D01*
X2145200Y2755399D02*
G01*
X2145200Y2756300D01*
X2146099Y2758099D01*
X2146999Y2759000D01*
X2148800Y2759899D01*
X2152399Y2759899D01*
X2154200Y2759000D01*
X2155100Y2758099D01*
X2156000Y2756300D01*
X2156000Y2754499D01*
X2155100Y2752700D01*
X2153299Y2750000D01*
X2144300Y2741100D01*
X2156899Y2741100D01*
X2171700Y2759899D02*
G01*
X2162799Y2747300D01*
X2176199Y2747300D01*
X2171700Y2759899D02*
G01*
X2171700Y2741100D01*
X1833400Y2625399D02*
G01*
X1832500Y2627199D01*
X1830699Y2629000D01*
X1828900Y2629899D01*
X1825399Y2629899D01*
X1823599Y2629000D01*
X1821800Y2627199D01*
X1820900Y2625399D01*
X1820000Y2622700D01*
X1820000Y2618200D01*
X1820900Y2615500D01*
X1821800Y2613800D01*
X1823599Y2611999D01*
X1825399Y2611100D01*
X1828900Y2611100D01*
X1830699Y2611999D01*
X1832500Y2613800D01*
X1833400Y2615500D01*
X1840200Y2625399D02*
G01*
X1840200Y2626300D01*
X1841099Y2628099D01*
X1841999Y2629000D01*
X1843800Y2629899D01*
X1847399Y2629899D01*
X1849200Y2629000D01*
X1850100Y2628099D01*
X1851000Y2626300D01*
X1851000Y2624499D01*
X1850100Y2622700D01*
X1848299Y2620000D01*
X1839300Y2611100D01*
X1851899Y2611100D01*
X1868500Y2629899D02*
G01*
X1859499Y2629899D01*
X1858699Y2621799D01*
X1859499Y2622700D01*
X1862200Y2623600D01*
X1864899Y2623600D01*
X1867600Y2622700D01*
X1869399Y2620900D01*
X1870299Y2618200D01*
X1870299Y2616399D01*
X1869399Y2613800D01*
X1867600Y2611999D01*
X1864899Y2611100D01*
X1862200Y2611100D01*
X1859499Y2611999D01*
X1858699Y2612899D01*
X1857799Y2614699D01*
X1833400Y2670399D02*
G01*
X1832500Y2672199D01*
X1830699Y2674000D01*
X1828900Y2674899D01*
X1825399Y2674899D01*
X1823599Y2674000D01*
X1821800Y2672199D01*
X1820900Y2670399D01*
X1820000Y2667700D01*
X1820000Y2663200D01*
X1820900Y2660500D01*
X1821800Y2658800D01*
X1823599Y2656999D01*
X1825399Y2656100D01*
X1828900Y2656100D01*
X1830699Y2656999D01*
X1832500Y2658800D01*
X1833400Y2660500D01*
X1840200Y2670399D02*
G01*
X1840200Y2671300D01*
X1841099Y2673099D01*
X1841999Y2674000D01*
X1843800Y2674899D01*
X1847399Y2674899D01*
X1849200Y2674000D01*
X1850100Y2673099D01*
X1851000Y2671300D01*
X1851000Y2669499D01*
X1850100Y2667700D01*
X1848299Y2665000D01*
X1839300Y2656100D01*
X1851899Y2656100D01*
X1868500Y2672199D02*
G01*
X1867600Y2674000D01*
X1864899Y2674899D01*
X1863100Y2674899D01*
X1860399Y2674000D01*
X1858699Y2671300D01*
X1857799Y2666799D01*
X1857799Y2662300D01*
X1858699Y2658800D01*
X1860399Y2656999D01*
X1863100Y2656100D01*
X1863999Y2656100D01*
X1866700Y2656999D01*
X1868500Y2658800D01*
X1869399Y2661399D01*
X1869399Y2662300D01*
X1868500Y2665000D01*
X1866700Y2666799D01*
X1863999Y2667700D01*
X1863100Y2667700D01*
X1860399Y2666799D01*
X1858699Y2665000D01*
X1857799Y2662300D01*
X1828400Y2775399D02*
G01*
X1827500Y2777199D01*
X1825699Y2779000D01*
X1823900Y2779899D01*
X1820399Y2779899D01*
X1818599Y2779000D01*
X1816800Y2777199D01*
X1815900Y2775399D01*
X1815000Y2772700D01*
X1815000Y2768200D01*
X1815900Y2765500D01*
X1816800Y2763800D01*
X1818599Y2761999D01*
X1820399Y2761100D01*
X1823900Y2761100D01*
X1825699Y2761999D01*
X1827500Y2763800D01*
X1828400Y2765500D01*
X1835200Y2775399D02*
G01*
X1835200Y2776300D01*
X1836099Y2778099D01*
X1836999Y2779000D01*
X1838800Y2779899D01*
X1842399Y2779899D01*
X1844200Y2779000D01*
X1845100Y2778099D01*
X1846000Y2776300D01*
X1846000Y2774499D01*
X1845100Y2772700D01*
X1843299Y2770000D01*
X1834300Y2761100D01*
X1846899Y2761100D01*
X1865299Y2779899D02*
G01*
X1856300Y2761100D01*
X1852799Y2779899D02*
G01*
X1865299Y2779899D01*
X2363400Y2775399D02*
G01*
X2362500Y2777199D01*
X2360699Y2779000D01*
X2358900Y2779899D01*
X2355399Y2779899D01*
X2353599Y2779000D01*
X2351800Y2777199D01*
X2350900Y2775399D01*
X2350000Y2772700D01*
X2350000Y2768200D01*
X2350900Y2765500D01*
X2351800Y2763800D01*
X2353599Y2761999D01*
X2355399Y2761100D01*
X2358900Y2761100D01*
X2360699Y2761999D01*
X2362500Y2763800D01*
X2363400Y2765500D01*
X2370200Y2775399D02*
G01*
X2370200Y2776300D01*
X2371099Y2778099D01*
X2371999Y2779000D01*
X2373800Y2779899D01*
X2377399Y2779899D01*
X2379200Y2779000D01*
X2380100Y2778099D01*
X2381000Y2776300D01*
X2381000Y2774499D01*
X2380100Y2772700D01*
X2378299Y2770000D01*
X2369300Y2761100D01*
X2381899Y2761100D01*
X2392200Y2779899D02*
G01*
X2389499Y2779000D01*
X2388699Y2777199D01*
X2388699Y2775399D01*
X2389499Y2773600D01*
X2391300Y2772700D01*
X2394899Y2771799D01*
X2397600Y2770900D01*
X2399399Y2769099D01*
X2400299Y2767300D01*
X2400299Y2764699D01*
X2399399Y2762899D01*
X2398500Y2761999D01*
X2395799Y2761100D01*
X2392200Y2761100D01*
X2389499Y2761999D01*
X2388699Y2762899D01*
X2387799Y2764699D01*
X2387799Y2767300D01*
X2388699Y2769099D01*
X2390399Y2770900D01*
X2393100Y2771799D01*
X2396700Y2772700D01*
X2398500Y2773600D01*
X2399399Y2775399D01*
X2399399Y2777199D01*
X2398500Y2779000D01*
X2395799Y2779899D01*
X2392200Y2779899D01*
X2223400Y2695399D02*
G01*
X2222500Y2697199D01*
X2220699Y2699000D01*
X2218900Y2699899D01*
X2215399Y2699899D01*
X2213599Y2699000D01*
X2211800Y2697199D01*
X2210900Y2695399D01*
X2210000Y2692700D01*
X2210000Y2688200D01*
X2210900Y2685500D01*
X2211800Y2683800D01*
X2213599Y2681999D01*
X2215399Y2681100D01*
X2218900Y2681100D01*
X2220699Y2681999D01*
X2222500Y2683800D01*
X2223400Y2685500D01*
X2230200Y2695399D02*
G01*
X2230200Y2696300D01*
X2231099Y2698099D01*
X2231999Y2699000D01*
X2233800Y2699899D01*
X2237399Y2699899D01*
X2239200Y2699000D01*
X2240100Y2698099D01*
X2241000Y2696300D01*
X2241000Y2694499D01*
X2240100Y2692700D01*
X2238299Y2690000D01*
X2229300Y2681100D01*
X2241899Y2681100D01*
X2259399Y2693600D02*
G01*
X2258500Y2690900D01*
X2256700Y2689099D01*
X2253999Y2688200D01*
X2253100Y2688200D01*
X2250399Y2689099D01*
X2248699Y2690900D01*
X2247799Y2693600D01*
X2247799Y2694499D01*
X2248699Y2697199D01*
X2250399Y2699000D01*
X2253100Y2699899D01*
X2253999Y2699899D01*
X2256700Y2699000D01*
X2258500Y2697199D01*
X2259399Y2693600D01*
X2259399Y2689099D01*
X2258500Y2684699D01*
X2256700Y2681999D01*
X2253999Y2681100D01*
X2252200Y2681100D01*
X2249499Y2681999D01*
X2248699Y2683800D01*
X2704600Y2313400D02*
G01*
X2702799Y2312500D01*
X2701000Y2310700D01*
X2700100Y2308899D01*
X2700100Y2305399D01*
X2701000Y2303600D01*
X2702799Y2301799D01*
X2704600Y2300900D01*
X2707299Y2300000D01*
X2711800Y2300000D01*
X2714499Y2300900D01*
X2716199Y2301799D01*
X2718000Y2303600D01*
X2718900Y2305399D01*
X2718900Y2308899D01*
X2718000Y2310700D01*
X2716199Y2312500D01*
X2714499Y2313400D01*
X2700100Y2321100D02*
G01*
X2700100Y2330999D01*
X2707299Y2325599D01*
X2707299Y2328299D01*
X2708199Y2330100D01*
X2709099Y2330999D01*
X2711800Y2331900D01*
X2713599Y2331900D01*
X2716199Y2330999D01*
X2718000Y2329200D01*
X2718900Y2326500D01*
X2718900Y2323800D01*
X2718000Y2321100D01*
X2717100Y2320200D01*
X2715299Y2319299D01*
X2704600Y2338699D02*
G01*
X2703699Y2338699D01*
X2701899Y2339499D01*
X2701000Y2340399D01*
X2700100Y2342199D01*
X2700100Y2345799D01*
X2701000Y2347600D01*
X2701899Y2348499D01*
X2703699Y2349400D01*
X2705500Y2349400D01*
X2707299Y2348499D01*
X2710000Y2346700D01*
X2718900Y2337800D01*
X2718900Y2350300D01*
X2388400Y2650399D02*
G01*
X2387500Y2652199D01*
X2385699Y2654000D01*
X2383900Y2654899D01*
X2380399Y2654899D01*
X2378599Y2654000D01*
X2376800Y2652199D01*
X2375900Y2650399D01*
X2375000Y2647700D01*
X2375000Y2643200D01*
X2375900Y2640500D01*
X2376800Y2638800D01*
X2378599Y2636999D01*
X2380399Y2636100D01*
X2383900Y2636100D01*
X2385699Y2636999D01*
X2387500Y2638800D01*
X2388400Y2640500D01*
X2396099Y2654899D02*
G01*
X2406000Y2654899D01*
X2400600Y2647700D01*
X2403299Y2647700D01*
X2405100Y2646799D01*
X2406000Y2645900D01*
X2406899Y2643200D01*
X2406899Y2641399D01*
X2406000Y2638800D01*
X2404200Y2636999D01*
X2401499Y2636100D01*
X2398800Y2636100D01*
X2396099Y2636999D01*
X2395200Y2637899D01*
X2394300Y2639699D01*
X2421700Y2654899D02*
G01*
X2412799Y2642300D01*
X2426199Y2642300D01*
X2421700Y2654899D02*
G01*
X2421700Y2636100D01*
X2388400Y2695399D02*
G01*
X2387500Y2697199D01*
X2385699Y2699000D01*
X2383900Y2699899D01*
X2380399Y2699899D01*
X2378599Y2699000D01*
X2376800Y2697199D01*
X2375900Y2695399D01*
X2375000Y2692700D01*
X2375000Y2688200D01*
X2375900Y2685500D01*
X2376800Y2683800D01*
X2378599Y2681999D01*
X2380399Y2681100D01*
X2383900Y2681100D01*
X2385699Y2681999D01*
X2387500Y2683800D01*
X2388400Y2685500D01*
X2396099Y2699899D02*
G01*
X2406000Y2699899D01*
X2400600Y2692700D01*
X2403299Y2692700D01*
X2405100Y2691799D01*
X2406000Y2690900D01*
X2406899Y2688200D01*
X2406899Y2686399D01*
X2406000Y2683800D01*
X2404200Y2681999D01*
X2401499Y2681100D01*
X2398800Y2681100D01*
X2396099Y2681999D01*
X2395200Y2682899D01*
X2394300Y2684699D01*
X2423500Y2697199D02*
G01*
X2422600Y2699000D01*
X2419899Y2699899D01*
X2418100Y2699899D01*
X2415399Y2699000D01*
X2413699Y2696300D01*
X2412799Y2691799D01*
X2412799Y2687300D01*
X2413699Y2683800D01*
X2415399Y2681999D01*
X2418100Y2681100D01*
X2418999Y2681100D01*
X2421700Y2681999D01*
X2423500Y2683800D01*
X2424399Y2686399D01*
X2424399Y2687300D01*
X2423500Y2690000D01*
X2421700Y2691799D01*
X2418999Y2692700D01*
X2418100Y2692700D01*
X2415399Y2691799D01*
X2413699Y2690000D01*
X2412799Y2687300D01*
X1218400Y2920399D02*
G01*
X1217500Y2922199D01*
X1215699Y2924000D01*
X1213900Y2924899D01*
X1210399Y2924899D01*
X1208599Y2924000D01*
X1206800Y2922199D01*
X1205900Y2920399D01*
X1205000Y2917700D01*
X1205000Y2913200D01*
X1205900Y2910500D01*
X1206800Y2908800D01*
X1208599Y2906999D01*
X1210399Y2906100D01*
X1213900Y2906100D01*
X1215699Y2906999D01*
X1217500Y2908800D01*
X1218400Y2910500D01*
X1224300Y2921300D02*
G01*
X1226099Y2922199D01*
X1228800Y2924899D01*
X1228800Y2906100D01*
X1246300Y2918600D02*
G01*
X1245399Y2915900D01*
X1243699Y2914099D01*
X1241000Y2913200D01*
X1240100Y2913200D01*
X1237399Y2914099D01*
X1235600Y2915900D01*
X1234700Y2918600D01*
X1234700Y2919499D01*
X1235600Y2922199D01*
X1237399Y2924000D01*
X1240100Y2924899D01*
X1241000Y2924899D01*
X1243699Y2924000D01*
X1245399Y2922199D01*
X1246300Y2918600D01*
X1246300Y2914099D01*
X1245399Y2909699D01*
X1243699Y2906999D01*
X1241000Y2906100D01*
X1239200Y2906100D01*
X1236499Y2906999D01*
X1235600Y2908800D01*
X1970000Y2939899D02*
G01*
X1982500Y2921100D01*
X1982500Y2939899D02*
G01*
X1970000Y2921100D01*
X1989300Y2935399D02*
G01*
X1989300Y2936300D01*
X1990200Y2938099D01*
X1991099Y2939000D01*
X1992899Y2939899D01*
X1996499Y2939899D01*
X1998299Y2939000D01*
X1999200Y2938099D01*
X2000100Y2936300D01*
X2000100Y2934499D01*
X1999200Y2932700D01*
X1997399Y2930000D01*
X1988400Y2921100D01*
X2001000Y2921100D01*
X953400Y2140399D02*
G01*
X952500Y2142199D01*
X950699Y2144000D01*
X948900Y2144899D01*
X945399Y2144899D01*
X943599Y2144000D01*
X941800Y2142199D01*
X940900Y2140399D01*
X940000Y2137700D01*
X940000Y2133200D01*
X940900Y2130500D01*
X941800Y2128800D01*
X943599Y2126999D01*
X945399Y2126100D01*
X948900Y2126100D01*
X950699Y2126999D01*
X952500Y2128800D01*
X953400Y2130500D01*
X971899Y2144899D02*
G01*
X962899Y2126100D01*
X959300Y2144899D02*
G01*
X971899Y2144899D01*
X2984600Y2063400D02*
G01*
X2982799Y2062500D01*
X2981000Y2060700D01*
X2980100Y2058899D01*
X2980100Y2055399D01*
X2981000Y2053600D01*
X2982799Y2051799D01*
X2984600Y2050900D01*
X2987299Y2050000D01*
X2991800Y2050000D01*
X2994499Y2050900D01*
X2996199Y2051799D01*
X2998000Y2053600D01*
X2998900Y2055399D01*
X2998900Y2058899D01*
X2998000Y2060700D01*
X2996199Y2062500D01*
X2994499Y2063400D01*
X2980100Y2071100D02*
G01*
X2980100Y2080999D01*
X2987299Y2075599D01*
X2987299Y2078299D01*
X2988199Y2080100D01*
X2989099Y2080999D01*
X2991800Y2081900D01*
X2993599Y2081900D01*
X2996199Y2080999D01*
X2998000Y2079200D01*
X2998900Y2076500D01*
X2998900Y2073800D01*
X2998000Y2071100D01*
X2997100Y2070199D01*
X2995299Y2069299D01*
X2980100Y2092199D02*
G01*
X2981000Y2089499D01*
X2982799Y2088699D01*
X2984600Y2088699D01*
X2986400Y2089499D01*
X2987299Y2091300D01*
X2988199Y2094899D01*
X2989099Y2097600D01*
X2990900Y2099400D01*
X2992700Y2100300D01*
X2995299Y2100300D01*
X2997100Y2099400D01*
X2998000Y2098499D01*
X2998900Y2095799D01*
X2998900Y2092199D01*
X2998000Y2089499D01*
X2997100Y2088699D01*
X2995299Y2087800D01*
X2992700Y2087800D01*
X2990900Y2088699D01*
X2989099Y2090399D01*
X2988199Y2093099D01*
X2987299Y2096700D01*
X2986400Y2098499D01*
X2984600Y2099400D01*
X2982799Y2099400D01*
X2981000Y2098499D01*
X2980100Y2095799D01*
X2980100Y2092199D01*
X2948400Y2775399D02*
G01*
X2947500Y2777199D01*
X2945699Y2779000D01*
X2943900Y2779899D01*
X2940399Y2779899D01*
X2938599Y2779000D01*
X2936800Y2777199D01*
X2935900Y2775399D01*
X2935000Y2772700D01*
X2935000Y2768200D01*
X2935900Y2765500D01*
X2936800Y2763800D01*
X2938599Y2761999D01*
X2940399Y2761100D01*
X2943900Y2761100D01*
X2945699Y2761999D01*
X2947500Y2763800D01*
X2948400Y2765500D01*
X2954300Y2779899D02*
G01*
X2954300Y2761100D01*
X2954300Y2779899D02*
G01*
X2966899Y2761100D01*
X2966899Y2779899D02*
G01*
X2966899Y2761100D01*
X2972799Y2776300D02*
G01*
X2974499Y2777199D01*
X2977200Y2779899D01*
X2977200Y2761100D01*
X1544989Y2934870D02*
G01*
X1544989Y2921469D01*
X1545889Y2918769D01*
X1547690Y2916970D01*
X1550389Y2916069D01*
X1552190Y2916069D01*
X1554889Y2916970D01*
X1556589Y2918769D01*
X1557489Y2921469D01*
X1557489Y2934870D01*
X1563389Y2931269D02*
G01*
X1565190Y2932170D01*
X1567889Y2934870D01*
X1567889Y2916069D01*
X1920000Y2559899D02*
G01*
X1920000Y2546399D01*
X1920900Y2543800D01*
X1922700Y2541999D01*
X1925399Y2541100D01*
X1927200Y2541100D01*
X1929799Y2541999D01*
X1931599Y2543800D01*
X1932500Y2546399D01*
X1932500Y2559899D01*
X1939300Y2555399D02*
G01*
X1939300Y2556300D01*
X1940200Y2558099D01*
X1941099Y2559000D01*
X1942899Y2559899D01*
X1946499Y2559899D01*
X1948299Y2559000D01*
X1949200Y2558099D01*
X1950100Y2556300D01*
X1950100Y2554499D01*
X1949200Y2552700D01*
X1947399Y2550000D01*
X1938400Y2541100D01*
X1951000Y2541100D01*
X1825000Y2519899D02*
G01*
X1837500Y2501100D01*
X1837500Y2519899D02*
G01*
X1825000Y2501100D01*
X1843400Y2516300D02*
G01*
X1845200Y2517199D01*
X1847899Y2519899D01*
X1847899Y2501100D01*
G36*
X2506400Y2924940D02*
G01*
X2506400Y2904620D01*
X2511480Y2904620D01*
X2511480Y2924940D01*
G37*
G36*
X2506400Y2786120D02*
G01*
X2506400Y2765800D01*
X2511480Y2765800D01*
X2511480Y2786120D01*
G37*
G36*
X2492000Y2778500D02*
G01*
X2492000Y2773420D01*
X2525860Y2773420D01*
X2525860Y2778500D01*
G37*
G36*
X1250060Y2451480D02*
G01*
X1250060Y2446400D01*
X1270380Y2446400D01*
X1270380Y2451480D01*
G37*
G36*
X1388880Y2451480D02*
G01*
X1388880Y2446400D01*
X1409199Y2446400D01*
X1409199Y2451480D01*
G37*
G36*
X1396500Y2465860D02*
G01*
X1396500Y2432000D01*
X1401579Y2432000D01*
X1401579Y2465860D01*
G37*
X2720370Y2468906D02*
G01*
X2720370Y2497175D01*
X2759629Y2497175D01*
X2759629Y2468906D01*
X2720370Y2451093D02*
G01*
X2720370Y2422824D01*
X2759629Y2422824D01*
X2759629Y2451093D01*
X2878905Y2184630D02*
G01*
X2907174Y2184630D01*
X2907174Y2145369D01*
X2878905Y2145369D01*
X2861094Y2184630D02*
G01*
X2832825Y2184630D01*
X2832825Y2145369D01*
X2861094Y2145369D01*
D13*
X715787Y2791884D02*
G01*
X231534Y2791884D01*
X715787Y2158026D02*
G01*
X231534Y2158026D01*
X1081927Y2791884D02*
G01*
X845708Y2791884D01*
X1081916Y2158011D02*
G01*
X845694Y2158011D01*
X1081927Y2791884D02*
G01*
X1081927Y2158026D01*
X231534Y2791884D02*
G01*
X231534Y2158026D01*
D11*
X2630011Y2559630D02*
G01*
X2598905Y2559630D01*
X2598905Y2520369D02*
G01*
X2630011Y2520369D01*
X2636012Y2526370D02*
G01*
X2636012Y2553629D01*
X2549988Y2559630D02*
G01*
X2581094Y2559630D01*
X2581094Y2520369D02*
G01*
X2549988Y2520369D01*
X2543987Y2526370D02*
G01*
X2543987Y2553629D01*
X2761094Y2515369D02*
G01*
X2732825Y2515369D01*
X2732825Y2554630D01*
X2761094Y2554630D01*
X2778905Y2515369D02*
G01*
X2807174Y2515369D01*
X2807174Y2554630D01*
X2778905Y2554630D01*
D14*
X2567097Y2384798D02*
G01*
X2567097Y2367087D01*
X2584808Y2367087D01*
X2702917Y2384798D02*
G01*
X2702917Y2367087D01*
X2685208Y2367087D01*
X2685208Y2502908D02*
G01*
X2702917Y2502908D01*
X2702917Y2485198D01*
X2567097Y2485198D02*
G01*
X2567097Y2502908D01*
X2584808Y2502908D01*
D11*
X2405000Y2319000D02*
G01*
X2405000Y2319000D01*
X2350000Y2319000D01*
X2340500Y2328499D01*
X2340500Y2409499D01*
X2351000Y2420000D01*
X2405000Y2420000D01*
X2455005Y2420000D02*
G01*
X2455005Y2420000D01*
X2510005Y2420000D01*
X2519504Y2410500D01*
X2519504Y2329499D01*
X2509004Y2319000D01*
X2455005Y2319000D01*
X2493915Y2933020D02*
G01*
X2557646Y2933020D01*
X2557646Y2794589D01*
X2520788Y2757730D01*
X2493915Y2757730D01*
X2446085Y2933020D02*
G01*
X2382356Y2933020D01*
X2382356Y2794589D01*
X2419215Y2757730D01*
X2446085Y2757730D01*
X1241979Y2433915D02*
G01*
X1241979Y2497645D01*
X1380411Y2497645D01*
X1417268Y2460787D01*
X1417268Y2433915D01*
X1241979Y2386086D02*
G01*
X1241979Y2322356D01*
X1380411Y2322356D01*
X1417268Y2359216D01*
X1417268Y2386086D01*
X1595024Y2420644D02*
G01*
X1601091Y2414645D01*
X1601091Y2374629D01*
X1595024Y2369409D01*
X1495024Y2369409D02*
G01*
X1488955Y2375354D01*
X1488955Y2415372D01*
X1495024Y2420590D01*
D15*
X1595104Y2369409D02*
G01*
X1565104Y2369409D01*
X1494943Y2420590D02*
G01*
X1524943Y2420590D01*
X1595104Y2420590D02*
G01*
X1565104Y2420590D01*
X1494943Y2369409D02*
G01*
X1524943Y2369409D01*
D11*
X1875024Y2694355D02*
G01*
X1868958Y2700354D01*
X1868958Y2740371D01*
X1875024Y2745590D01*
X1975024Y2745590D02*
G01*
X1981094Y2739645D01*
X1981094Y2699627D01*
X1975024Y2694409D01*
D15*
X1874946Y2745590D02*
G01*
X1904946Y2745590D01*
X1975105Y2694409D02*
G01*
X1945105Y2694409D01*
X1874946Y2694409D02*
G01*
X1904946Y2694409D01*
X1975105Y2745590D02*
G01*
X1945105Y2745590D01*
D11*
X1895370Y2353906D02*
G01*
X1895370Y2382175D01*
X1934629Y2382175D01*
X1934629Y2353906D01*
X1895370Y2336093D02*
G01*
X1895370Y2307824D01*
X1934629Y2307824D01*
X1934629Y2336093D01*
X1845370Y2353906D02*
G01*
X1845370Y2382175D01*
X1884629Y2382175D01*
X1884629Y2353906D01*
X1845370Y2336093D02*
G01*
X1845370Y2307824D01*
X1884629Y2307824D01*
X1884629Y2336093D01*
X1580370Y2323906D02*
G01*
X1580370Y2352175D01*
X1619629Y2352175D01*
X1619629Y2323906D01*
X1580370Y2306093D02*
G01*
X1580370Y2277824D01*
X1619629Y2277824D01*
X1619629Y2306093D01*
X2456094Y2055369D02*
G01*
X2427825Y2055369D01*
X2427825Y2094630D01*
X2456094Y2094630D01*
X2473905Y2055369D02*
G01*
X2502174Y2055369D01*
X2502174Y2094630D01*
X2473905Y2094630D01*
X626093Y2060369D02*
G01*
X597824Y2060369D01*
X597824Y2099630D01*
X626093Y2099630D01*
X643906Y2060369D02*
G01*
X672175Y2060369D01*
X672175Y2099630D01*
X643906Y2099630D01*
X626093Y2820369D02*
G01*
X597824Y2820369D01*
X597824Y2859630D01*
X626093Y2859630D01*
X643906Y2820369D02*
G01*
X672175Y2820369D01*
X672175Y2859630D01*
X643906Y2859630D01*
X1696094Y2895369D02*
G01*
X1667825Y2895369D01*
X1667825Y2934630D01*
X1696094Y2934630D01*
X1713905Y2895369D02*
G01*
X1742174Y2895369D01*
X1742174Y2934630D01*
X1713905Y2934630D01*
X1793905Y2729630D02*
G01*
X1822174Y2729630D01*
X1822174Y2690369D01*
X1793905Y2690369D01*
X1776094Y2729630D02*
G01*
X1747825Y2729630D01*
X1747825Y2690369D01*
X1776094Y2690369D01*
X1869629Y2441093D02*
G01*
X1869629Y2412824D01*
X1830370Y2412824D01*
X1830370Y2441093D01*
X1869629Y2458906D02*
G01*
X1869629Y2487175D01*
X1830370Y2487175D01*
X1830370Y2458906D01*
X1319629Y2651093D02*
G01*
X1319629Y2622824D01*
X1280370Y2622824D01*
X1280370Y2651093D01*
X1319629Y2668906D02*
G01*
X1319629Y2697175D01*
X1280370Y2697175D01*
X1280370Y2668906D01*
X1246094Y2780369D02*
G01*
X1217825Y2780369D01*
X1217825Y2819630D01*
X1246094Y2819630D01*
X1263905Y2780369D02*
G01*
X1292174Y2780369D01*
X1292174Y2819630D01*
X1263905Y2819630D01*
X1246094Y2840369D02*
G01*
X1217825Y2840369D01*
X1217825Y2879630D01*
X1246094Y2879630D01*
X1263905Y2840369D02*
G01*
X1292174Y2840369D01*
X1292174Y2879630D01*
X1263905Y2879630D01*
X1208905Y2759630D02*
G01*
X1237174Y2759630D01*
X1237174Y2720369D01*
X1208905Y2720369D01*
X1191094Y2759630D02*
G01*
X1162825Y2759630D01*
X1162825Y2720369D01*
X1191094Y2720369D01*
X1208905Y2664630D02*
G01*
X1237174Y2664630D01*
X1237174Y2625369D01*
X1208905Y2625369D01*
X1191094Y2664630D02*
G01*
X1162825Y2664630D01*
X1162825Y2625369D01*
X1191094Y2625369D01*
X2150370Y2363906D02*
G01*
X2150370Y2392175D01*
X2189629Y2392175D01*
X2189629Y2363906D01*
X2150370Y2346093D02*
G01*
X2150370Y2317824D01*
X2189629Y2317824D01*
X2189629Y2346093D01*
X1741094Y2840369D02*
G01*
X1712825Y2840369D01*
X1712825Y2879630D01*
X1741094Y2879630D01*
X1758905Y2840369D02*
G01*
X1787174Y2840369D01*
X1787174Y2879630D01*
X1758905Y2879630D01*
X2621094Y2620369D02*
G01*
X2592825Y2620369D01*
X2592825Y2659630D01*
X2621094Y2659630D01*
X2638905Y2620369D02*
G01*
X2667174Y2620369D01*
X2667174Y2659630D01*
X2638905Y2659630D01*
X2638905Y2709630D02*
G01*
X2667174Y2709630D01*
X2667174Y2670369D01*
X2638905Y2670369D01*
X2621094Y2709630D02*
G01*
X2592825Y2709630D01*
X2592825Y2670369D01*
X2621094Y2670369D01*
X2951094Y2220369D02*
G01*
X2922825Y2220369D01*
X2922825Y2259630D01*
X2951094Y2259630D01*
X2968905Y2220369D02*
G01*
X2997174Y2220369D01*
X2997174Y2259630D01*
X2968905Y2259630D01*
X2896094Y2680369D02*
G01*
X2867825Y2680369D01*
X2867825Y2719630D01*
X2896094Y2719630D01*
X2913905Y2680369D02*
G01*
X2942174Y2680369D01*
X2942174Y2719630D01*
X2913905Y2719630D01*
X2200370Y2363906D02*
G01*
X2200370Y2392175D01*
X2239629Y2392175D01*
X2239629Y2363906D01*
X2200370Y2346093D02*
G01*
X2200370Y2317824D01*
X2239629Y2317824D01*
X2239629Y2346093D01*
X1194629Y2871093D02*
G01*
X1194629Y2842824D01*
X1155370Y2842824D01*
X1155370Y2871093D01*
X1194629Y2888906D02*
G01*
X1194629Y2917175D01*
X1155370Y2917175D01*
X1155370Y2888906D01*
D13*
X2860000Y2598191D02*
G01*
X2860000Y2598868D01*
X2860000Y2341136D02*
G01*
X2860000Y2351644D01*
X3007494Y2640032D02*
G01*
X2933959Y2640003D01*
X3007494Y2299964D02*
G01*
X2933950Y2299996D01*
X3168166Y2640075D02*
G01*
X3116243Y2640075D01*
X3168166Y2299917D02*
G01*
X3116243Y2299917D01*
X3168166Y2640075D02*
G01*
X3168166Y2299917D01*
D11*
X2439988Y2580369D02*
G01*
X2471094Y2580369D01*
X2471094Y2619630D02*
G01*
X2439988Y2619630D01*
X2433987Y2613629D02*
G01*
X2433987Y2586370D01*
X2520011Y2580369D02*
G01*
X2488905Y2580369D01*
X2488905Y2619630D02*
G01*
X2520011Y2619630D01*
X2526012Y2613629D02*
G01*
X2526012Y2586370D01*
D14*
X2510119Y2451689D02*
G01*
X2510119Y2546179D01*
X2399880Y2447759D02*
G01*
X2399880Y2542240D01*
D11*
X2630011Y2609630D02*
G01*
X2598905Y2609630D01*
X2598905Y2570369D02*
G01*
X2630011Y2570369D01*
X2636012Y2576370D02*
G01*
X2636012Y2603629D01*
X2549988Y2609630D02*
G01*
X2581094Y2609630D01*
X2581094Y2570369D02*
G01*
X2549988Y2570369D01*
X2543987Y2576370D02*
G01*
X2543987Y2603629D01*
X2353905Y2710369D02*
G01*
X2385011Y2710369D01*
X2391012Y2716370D01*
X2391012Y2743629D01*
X2385011Y2749630D01*
X2353905Y2749630D01*
X2336094Y2710369D02*
G01*
X2304988Y2710369D01*
X2298987Y2716370D01*
X2298987Y2743629D01*
X2304988Y2749630D01*
X2336094Y2749630D01*
X2505087Y2151408D02*
G01*
X2505087Y2208591D01*
X2464471Y2208591D01*
X2384912Y2151408D02*
G01*
X2384912Y2208591D01*
X2425528Y2208591D01*
X2462929Y2151408D02*
G01*
X2427070Y2151408D01*
X2004629Y2824987D02*
G01*
X2004629Y2856093D01*
X1965370Y2856093D02*
G01*
X1965370Y2824987D01*
X1971369Y2818987D02*
G01*
X1998630Y2818987D01*
X2004629Y2905012D02*
G01*
X2004629Y2873906D01*
X1965370Y2873906D02*
G01*
X1965370Y2905012D01*
X1971369Y2911012D02*
G01*
X1998630Y2911012D01*
X2029988Y2775369D02*
G01*
X2061094Y2775369D01*
X2061094Y2814630D02*
G01*
X2029988Y2814630D01*
X2023987Y2808629D02*
G01*
X2023987Y2781370D01*
X2110011Y2775369D02*
G01*
X2078905Y2775369D01*
X2078905Y2814630D02*
G01*
X2110011Y2814630D01*
X2116012Y2808629D02*
G01*
X2116012Y2781370D01*
X2270011Y2309630D02*
G01*
X2238905Y2309630D01*
X2238905Y2270369D02*
G01*
X2270011Y2270369D01*
X2276012Y2276370D02*
G01*
X2276012Y2303629D01*
X2189988Y2309630D02*
G01*
X2221094Y2309630D01*
X2221094Y2270369D02*
G01*
X2189988Y2270369D01*
X2183987Y2276370D02*
G01*
X2183987Y2303629D01*
X2049988Y2285369D02*
G01*
X2081094Y2285369D01*
X2081094Y2324630D02*
G01*
X2049988Y2324630D01*
X2043987Y2318629D02*
G01*
X2043987Y2291370D01*
X2130011Y2285369D02*
G01*
X2098905Y2285369D01*
X2098905Y2324630D02*
G01*
X2130011Y2324630D01*
X2136012Y2318629D02*
G01*
X2136012Y2291370D01*
X2034629Y2299987D02*
G01*
X2034629Y2331093D01*
X1995370Y2331093D02*
G01*
X1995370Y2299987D01*
X2001369Y2293987D02*
G01*
X2028630Y2293987D01*
X2034629Y2380012D02*
G01*
X2034629Y2348906D01*
X1995370Y2348906D02*
G01*
X1995370Y2380012D01*
X2001369Y2386012D02*
G01*
X2028630Y2386012D01*
X1984629Y2299987D02*
G01*
X1984629Y2331093D01*
X1945370Y2331093D02*
G01*
X1945370Y2299987D01*
X1951369Y2293987D02*
G01*
X1978630Y2293987D01*
X1984629Y2380012D02*
G01*
X1984629Y2348906D01*
X1945370Y2348906D02*
G01*
X1945370Y2380012D01*
X1951369Y2386012D02*
G01*
X1978630Y2386012D01*
X1574629Y2274987D02*
G01*
X1574629Y2306093D01*
X1535370Y2306093D02*
G01*
X1535370Y2274987D01*
X1541369Y2268987D02*
G01*
X1568630Y2268987D01*
X1574629Y2355012D02*
G01*
X1574629Y2323906D01*
X1535370Y2323906D02*
G01*
X1535370Y2355012D01*
X1541369Y2361012D02*
G01*
X1568630Y2361012D01*
X1529629Y2274987D02*
G01*
X1529629Y2306093D01*
X1490370Y2306093D02*
G01*
X1490370Y2274987D01*
X1496369Y2268987D02*
G01*
X1523630Y2268987D01*
X1529629Y2355012D02*
G01*
X1529629Y2323906D01*
X1490370Y2323906D02*
G01*
X1490370Y2355012D01*
X1496369Y2361012D02*
G01*
X1523630Y2361012D01*
X1660370Y2520012D02*
G01*
X1660370Y2488906D01*
X1699629Y2488906D02*
G01*
X1699629Y2520012D01*
X1693630Y2526012D02*
G01*
X1666369Y2526012D01*
X1660370Y2439987D02*
G01*
X1660370Y2471093D01*
X1699629Y2471093D02*
G01*
X1699629Y2439987D01*
X1693630Y2433987D02*
G01*
X1666369Y2433987D01*
X1329988Y2510369D02*
G01*
X1361094Y2510369D01*
X1361094Y2549630D02*
G01*
X1329988Y2549630D01*
X1323987Y2543629D02*
G01*
X1323987Y2516370D01*
X1410011Y2510369D02*
G01*
X1378905Y2510369D01*
X1378905Y2549630D02*
G01*
X1410011Y2549630D01*
X1416012Y2543629D02*
G01*
X1416012Y2516370D01*
X1525011Y2479630D02*
G01*
X1493905Y2479630D01*
X1493905Y2440369D02*
G01*
X1525011Y2440369D01*
X1531012Y2446370D02*
G01*
X1531012Y2473629D01*
X1444988Y2479630D02*
G01*
X1476094Y2479630D01*
X1476094Y2440369D02*
G01*
X1444988Y2440369D01*
X1438987Y2446370D02*
G01*
X1438987Y2473629D01*
X1805011Y2389630D02*
G01*
X1773905Y2389630D01*
X1773905Y2350369D02*
G01*
X1805011Y2350369D01*
X1811012Y2356370D02*
G01*
X1811012Y2383629D01*
X1724988Y2389630D02*
G01*
X1756094Y2389630D01*
X1756094Y2350369D02*
G01*
X1724988Y2350369D01*
X1718987Y2356370D02*
G01*
X1718987Y2383629D01*
X1724988Y2530369D02*
G01*
X1756094Y2530369D01*
X1756094Y2569630D02*
G01*
X1724988Y2569630D01*
X1718987Y2563629D02*
G01*
X1718987Y2536370D01*
X1805011Y2530369D02*
G01*
X1773905Y2530369D01*
X1773905Y2569630D02*
G01*
X1805011Y2569630D01*
X1811012Y2563629D02*
G01*
X1811012Y2536370D01*
X1319988Y2265369D02*
G01*
X1351094Y2265369D01*
X1351094Y2304630D02*
G01*
X1319988Y2304630D01*
X1313987Y2298629D02*
G01*
X1313987Y2271370D01*
X1400011Y2265369D02*
G01*
X1368905Y2265369D01*
X1368905Y2304630D02*
G01*
X1400011Y2304630D01*
X1406012Y2298629D02*
G01*
X1406012Y2271370D01*
X1319988Y2220369D02*
G01*
X1351094Y2220369D01*
X1351094Y2259630D02*
G01*
X1319988Y2259630D01*
X1313987Y2253629D02*
G01*
X1313987Y2226370D01*
X1400011Y2220369D02*
G01*
X1368905Y2220369D01*
X1368905Y2259630D02*
G01*
X1400011Y2259630D01*
X1406012Y2253629D02*
G01*
X1406012Y2226370D01*
X1319988Y2175369D02*
G01*
X1351094Y2175369D01*
X1351094Y2214630D02*
G01*
X1319988Y2214630D01*
X1313987Y2208629D02*
G01*
X1313987Y2181370D01*
X1400011Y2175369D02*
G01*
X1368905Y2175369D01*
X1368905Y2214630D02*
G01*
X1400011Y2214630D01*
X1406012Y2208629D02*
G01*
X1406012Y2181370D01*
X1319988Y2130369D02*
G01*
X1351094Y2130369D01*
X1351094Y2169630D02*
G01*
X1319988Y2169630D01*
X1313987Y2163629D02*
G01*
X1313987Y2136370D01*
X1400011Y2130369D02*
G01*
X1368905Y2130369D01*
X1368905Y2169630D02*
G01*
X1400011Y2169630D01*
X1406012Y2163629D02*
G01*
X1406012Y2136370D01*
X1154988Y2580369D02*
G01*
X1186094Y2580369D01*
X1186094Y2619630D02*
G01*
X1154988Y2619630D01*
X1148987Y2613629D02*
G01*
X1148987Y2586370D01*
X1235011Y2580369D02*
G01*
X1203905Y2580369D01*
X1203905Y2619630D02*
G01*
X1235011Y2619630D01*
X1241012Y2613629D02*
G01*
X1241012Y2586370D01*
X1154988Y2675369D02*
G01*
X1186094Y2675369D01*
X1186094Y2714630D02*
G01*
X1154988Y2714630D01*
X1148987Y2708629D02*
G01*
X1148987Y2681370D01*
X1235011Y2675369D02*
G01*
X1203905Y2675369D01*
X1203905Y2714630D02*
G01*
X1235011Y2714630D01*
X1241012Y2708629D02*
G01*
X1241012Y2681370D01*
X1154988Y2530369D02*
G01*
X1186094Y2530369D01*
X1186094Y2569630D02*
G01*
X1154988Y2569630D01*
X1148987Y2563629D02*
G01*
X1148987Y2536370D01*
X1235011Y2530369D02*
G01*
X1203905Y2530369D01*
X1203905Y2569630D02*
G01*
X1235011Y2569630D01*
X1241012Y2563629D02*
G01*
X1241012Y2536370D01*
X2130011Y2374630D02*
G01*
X2098905Y2374630D01*
X2098905Y2335369D02*
G01*
X2130011Y2335369D01*
X2136012Y2341370D02*
G01*
X2136012Y2368629D01*
X2049988Y2374630D02*
G01*
X2081094Y2374630D01*
X2081094Y2335369D02*
G01*
X2049988Y2335369D01*
X2043987Y2341370D02*
G01*
X2043987Y2368629D01*
X2029988Y2730369D02*
G01*
X2061094Y2730369D01*
X2061094Y2769630D02*
G01*
X2029988Y2769630D01*
X2023987Y2763629D02*
G01*
X2023987Y2736370D01*
X2110011Y2730369D02*
G01*
X2078905Y2730369D01*
X2078905Y2769630D02*
G01*
X2110011Y2769630D01*
X2116012Y2763629D02*
G01*
X2116012Y2736370D01*
X1965011Y2639630D02*
G01*
X1933905Y2639630D01*
X1933905Y2600369D02*
G01*
X1965011Y2600369D01*
X1971012Y2606370D02*
G01*
X1971012Y2633629D01*
X1884988Y2639630D02*
G01*
X1916094Y2639630D01*
X1916094Y2600369D02*
G01*
X1884988Y2600369D01*
X1878987Y2606370D02*
G01*
X1878987Y2633629D01*
X1965011Y2684630D02*
G01*
X1933905Y2684630D01*
X1933905Y2645369D02*
G01*
X1965011Y2645369D01*
X1971012Y2651370D02*
G01*
X1971012Y2678629D01*
X1884988Y2684630D02*
G01*
X1916094Y2684630D01*
X1916094Y2645369D02*
G01*
X1884988Y2645369D01*
X1878987Y2651370D02*
G01*
X1878987Y2678629D01*
X1960011Y2794630D02*
G01*
X1928905Y2794630D01*
X1928905Y2755369D02*
G01*
X1960011Y2755369D01*
X1966012Y2761370D02*
G01*
X1966012Y2788629D01*
X1879988Y2794630D02*
G01*
X1911094Y2794630D01*
X1911094Y2755369D02*
G01*
X1879988Y2755369D01*
X1873987Y2761370D02*
G01*
X1873987Y2788629D01*
X2335011Y2799630D02*
G01*
X2303905Y2799630D01*
X2303905Y2760369D02*
G01*
X2335011Y2760369D01*
X2341012Y2766370D02*
G01*
X2341012Y2793629D01*
X2254988Y2799630D02*
G01*
X2286094Y2799630D01*
X2286094Y2760369D02*
G01*
X2254988Y2760369D01*
X2248987Y2766370D02*
G01*
X2248987Y2793629D01*
X2205370Y2795012D02*
G01*
X2205370Y2763906D01*
X2244629Y2763906D02*
G01*
X2244629Y2795012D01*
X2238630Y2801012D02*
G01*
X2211369Y2801012D01*
X2205370Y2714987D02*
G01*
X2205370Y2746093D01*
X2244629Y2746093D02*
G01*
X2244629Y2714987D01*
X2238630Y2708987D02*
G01*
X2211369Y2708987D01*
X2730370Y2385012D02*
G01*
X2730370Y2353906D01*
X2769629Y2353906D02*
G01*
X2769629Y2385012D01*
X2763630Y2391012D02*
G01*
X2736369Y2391012D01*
X2730370Y2304987D02*
G01*
X2730370Y2336093D01*
X2769629Y2336093D02*
G01*
X2769629Y2304987D01*
X2763630Y2298987D02*
G01*
X2736369Y2298987D01*
X2520011Y2669630D02*
G01*
X2488905Y2669630D01*
X2488905Y2630369D02*
G01*
X2520011Y2630369D01*
X2526012Y2636370D02*
G01*
X2526012Y2663629D01*
X2439988Y2669630D02*
G01*
X2471094Y2669630D01*
X2471094Y2630369D02*
G01*
X2439988Y2630369D01*
X2433987Y2636370D02*
G01*
X2433987Y2663629D01*
X2439988Y2680369D02*
G01*
X2471094Y2680369D01*
X2471094Y2719630D02*
G01*
X2439988Y2719630D01*
X2433987Y2713629D02*
G01*
X2433987Y2686370D01*
X2520011Y2680369D02*
G01*
X2488905Y2680369D01*
X2488905Y2719630D02*
G01*
X2520011Y2719630D01*
X2526012Y2713629D02*
G01*
X2526012Y2686370D01*
X1259988Y2895369D02*
G01*
X1291094Y2895369D01*
X1291094Y2934630D02*
G01*
X1259988Y2934630D01*
X1253987Y2928629D02*
G01*
X1253987Y2901370D01*
X1340011Y2895369D02*
G01*
X1308905Y2895369D01*
X1308905Y2934630D02*
G01*
X1340011Y2934630D01*
X1346012Y2928629D02*
G01*
X1346012Y2901370D01*
D12*
X2064093Y2939960D02*
G01*
X2012912Y2939960D01*
X2012912Y2884841D01*
X2115270Y2928150D02*
G01*
X2115270Y2821849D01*
X2024719Y2821849D01*
X2024719Y2928150D01*
X2115270Y2928150D01*
D11*
X1044929Y2123015D02*
G01*
X986464Y2123015D01*
X986464Y2036984D02*
G01*
X1044929Y2036984D01*
X1050928Y2042984D02*
G01*
X1050928Y2117015D01*
X855070Y2123015D02*
G01*
X913535Y2123015D01*
X913535Y2036984D02*
G01*
X855070Y2036984D01*
X849071Y2042984D02*
G01*
X849071Y2117015D01*
X3098015Y2045070D02*
G01*
X3098015Y2103535D01*
X3011984Y2103535D02*
G01*
X3011984Y2045070D01*
X3017983Y2039070D02*
G01*
X3092016Y2039070D01*
X3098015Y2234929D02*
G01*
X3098015Y2176464D01*
X3011984Y2176464D02*
G01*
X3011984Y2234929D01*
X3017983Y2240929D02*
G01*
X3092016Y2240929D01*
D13*
X2582520Y2929432D02*
G01*
X2897479Y2929432D01*
X2661260Y2732579D02*
G01*
X2582520Y2732579D01*
X2897479Y2732579D02*
G01*
X2818739Y2732579D01*
X2897479Y2732579D02*
G01*
X2897479Y2754504D01*
X2897479Y2906561D02*
G01*
X2897479Y2929432D01*
X2582520Y2929432D02*
G01*
X2582520Y2906561D01*
X2582520Y2754504D02*
G01*
X2582520Y2732579D01*
D14*
X1718594Y2697626D02*
G01*
X1546060Y2525091D01*
X1360798Y2710354D01*
X1545353Y2894908D01*
X1730616Y2709645D01*
X1709402Y2688433D01*
D11*
X2119029Y2715304D02*
G01*
X2135000Y2731275D01*
X2150970Y2715304D01*
X2290304Y2544029D02*
G01*
X2306274Y2560000D01*
X2290304Y2575970D01*
X1979695Y2575970D02*
G01*
X1963725Y2560000D01*
X1979695Y2544029D01*
X2150970Y2404695D02*
G01*
X2135000Y2388724D01*
X2119029Y2404695D01*
D12*
X1770906Y2395039D02*
G01*
X1822087Y2395039D01*
X1822087Y2450158D01*
X1719729Y2406849D02*
G01*
X1719729Y2513150D01*
X1810280Y2513150D01*
X1810280Y2406849D01*
X1719729Y2406849D01*
D11*
G75*
G01*
X2630012Y2520370D02*
G03*
X2636012Y2526370I0J6000D01*
G75*
G01*
X2636012Y2553630D02*
G03*
X2630012Y2559630I-6000J0D01*
G75*
G01*
X2549988Y2520370D02*
G02*
X2543988Y2526370I0J6000D01*
G75*
G01*
X2543988Y2553630D02*
G02*
X2549988Y2559630I6000J0D01*
D16*
G75*
G01*
X2695008Y2516698D02*
G03*
X2694908Y2516698I-50J5906D01*
D11*
G75*
G01*
X2439988Y2619630D02*
G03*
X2433988Y2613630I0J-6000D01*
G75*
G01*
X2433988Y2586370D02*
G03*
X2439988Y2580370I6000J0D01*
G75*
G01*
X2520012Y2619630D02*
G02*
X2526012Y2613630I0J-6000D01*
G75*
G01*
X2526012Y2586370D02*
G02*
X2520012Y2580370I-6000J0D01*
D17*
G75*
G01*
X2395900Y2432800D02*
G03*
X2396000Y2432800I50J-4724D01*
D11*
G75*
G01*
X2630012Y2570370D02*
G03*
X2636012Y2576370I0J6000D01*
G75*
G01*
X2636012Y2603630D02*
G03*
X2630012Y2609630I-6000J0D01*
G75*
G01*
X2549988Y2570370D02*
G02*
X2543988Y2576370I0J6000D01*
G75*
G01*
X2543988Y2603630D02*
G02*
X2549988Y2609630I6000J0D01*
G75*
G01*
X1965370Y2824988D02*
G03*
X1971370Y2818988I6000J0D01*
G75*
G01*
X1998630Y2818988D02*
G03*
X2004630Y2824988I0J6000D01*
G75*
G01*
X1965370Y2905012D02*
G02*
X1971370Y2911012I6000J0D01*
G75*
G01*
X1998630Y2911012D02*
G02*
X2004630Y2905012I0J-6000D01*
G75*
G01*
X2029988Y2814630D02*
G03*
X2023988Y2808630I0J-6000D01*
G75*
G01*
X2023988Y2781370D02*
G03*
X2029988Y2775370I6000J0D01*
G75*
G01*
X2110012Y2814630D02*
G02*
X2116012Y2808630I0J-6000D01*
G75*
G01*
X2116012Y2781370D02*
G02*
X2110012Y2775370I-6000J0D01*
G75*
G01*
X2270012Y2270370D02*
G03*
X2276012Y2276370I0J6000D01*
G75*
G01*
X2276012Y2303630D02*
G03*
X2270012Y2309630I-6000J0D01*
G75*
G01*
X2189988Y2270370D02*
G02*
X2183988Y2276370I0J6000D01*
G75*
G01*
X2183988Y2303630D02*
G02*
X2189988Y2309630I6000J0D01*
G75*
G01*
X2049988Y2324630D02*
G03*
X2043988Y2318630I0J-6000D01*
G75*
G01*
X2043988Y2291370D02*
G03*
X2049988Y2285370I6000J0D01*
G75*
G01*
X2130012Y2324630D02*
G02*
X2136012Y2318630I0J-6000D01*
G75*
G01*
X2136012Y2291370D02*
G02*
X2130012Y2285370I-6000J0D01*
G75*
G01*
X1995370Y2299988D02*
G03*
X2001370Y2293988I6000J0D01*
G75*
G01*
X2028630Y2293988D02*
G03*
X2034630Y2299988I0J6000D01*
G75*
G01*
X1995370Y2380012D02*
G02*
X2001370Y2386012I6000J0D01*
G75*
G01*
X2028630Y2386012D02*
G02*
X2034630Y2380012I0J-6000D01*
G75*
G01*
X1945370Y2299988D02*
G03*
X1951370Y2293988I6000J0D01*
G75*
G01*
X1978630Y2293988D02*
G03*
X1984630Y2299988I0J6000D01*
G75*
G01*
X1945370Y2380012D02*
G02*
X1951370Y2386012I6000J0D01*
G75*
G01*
X1978630Y2386012D02*
G02*
X1984630Y2380012I0J-6000D01*
G75*
G01*
X1535370Y2274988D02*
G03*
X1541370Y2268988I6000J0D01*
G75*
G01*
X1568630Y2268988D02*
G03*
X1574630Y2274988I0J6000D01*
G75*
G01*
X1535370Y2355012D02*
G02*
X1541370Y2361012I6000J0D01*
G75*
G01*
X1568630Y2361012D02*
G02*
X1574630Y2355012I0J-6000D01*
G75*
G01*
X1490370Y2274988D02*
G03*
X1496370Y2268988I6000J0D01*
G75*
G01*
X1523630Y2268988D02*
G03*
X1529630Y2274988I0J6000D01*
G75*
G01*
X1490370Y2355012D02*
G02*
X1496370Y2361012I6000J0D01*
G75*
G01*
X1523630Y2361012D02*
G02*
X1529630Y2355012I0J-6000D01*
G75*
G01*
X1699630Y2520012D02*
G03*
X1693630Y2526012I-6000J0D01*
G75*
G01*
X1666370Y2526012D02*
G03*
X1660370Y2520012I0J-6000D01*
G75*
G01*
X1699630Y2439988D02*
G02*
X1693630Y2433988I-6000J0D01*
G75*
G01*
X1666370Y2433988D02*
G02*
X1660370Y2439988I0J6000D01*
G75*
G01*
X1329988Y2549630D02*
G03*
X1323988Y2543630I0J-6000D01*
G75*
G01*
X1323988Y2516370D02*
G03*
X1329988Y2510370I6000J0D01*
G75*
G01*
X1410012Y2549630D02*
G02*
X1416012Y2543630I0J-6000D01*
G75*
G01*
X1416012Y2516370D02*
G02*
X1410012Y2510370I-6000J0D01*
G75*
G01*
X1525012Y2440370D02*
G03*
X1531012Y2446370I0J6000D01*
G75*
G01*
X1531012Y2473630D02*
G03*
X1525012Y2479630I-6000J0D01*
G75*
G01*
X1444988Y2440370D02*
G02*
X1438988Y2446370I0J6000D01*
G75*
G01*
X1438988Y2473630D02*
G02*
X1444988Y2479630I6000J0D01*
G75*
G01*
X1805012Y2350370D02*
G03*
X1811012Y2356370I0J6000D01*
G75*
G01*
X1811012Y2383630D02*
G03*
X1805012Y2389630I-6000J0D01*
G75*
G01*
X1724988Y2350370D02*
G02*
X1718988Y2356370I0J6000D01*
G75*
G01*
X1718988Y2383630D02*
G02*
X1724988Y2389630I6000J0D01*
G75*
G01*
X1724988Y2569630D02*
G03*
X1718988Y2563630I0J-6000D01*
G75*
G01*
X1718988Y2536370D02*
G03*
X1724988Y2530370I6000J0D01*
G75*
G01*
X1805012Y2569630D02*
G02*
X1811012Y2563630I0J-6000D01*
G75*
G01*
X1811012Y2536370D02*
G02*
X1805012Y2530370I-6000J0D01*
G75*
G01*
X1319988Y2304630D02*
G03*
X1313988Y2298630I0J-6000D01*
G75*
G01*
X1313988Y2271370D02*
G03*
X1319988Y2265370I6000J0D01*
G75*
G01*
X1400012Y2304630D02*
G02*
X1406012Y2298630I0J-6000D01*
G75*
G01*
X1406012Y2271370D02*
G02*
X1400012Y2265370I-6000J0D01*
G75*
G01*
X1319988Y2259630D02*
G03*
X1313988Y2253630I0J-6000D01*
G75*
G01*
X1313988Y2226370D02*
G03*
X1319988Y2220370I6000J0D01*
G75*
G01*
X1400012Y2259630D02*
G02*
X1406012Y2253630I0J-6000D01*
G75*
G01*
X1406012Y2226370D02*
G02*
X1400012Y2220370I-6000J0D01*
G75*
G01*
X1319988Y2214630D02*
G03*
X1313988Y2208630I0J-6000D01*
G75*
G01*
X1313988Y2181370D02*
G03*
X1319988Y2175370I6000J0D01*
G75*
G01*
X1400012Y2214630D02*
G02*
X1406012Y2208630I0J-6000D01*
G75*
G01*
X1406012Y2181370D02*
G02*
X1400012Y2175370I-6000J0D01*
G75*
G01*
X1319988Y2169630D02*
G03*
X1313988Y2163630I0J-6000D01*
G75*
G01*
X1313988Y2136370D02*
G03*
X1319988Y2130370I6000J0D01*
G75*
G01*
X1400012Y2169630D02*
G02*
X1406012Y2163630I0J-6000D01*
G75*
G01*
X1406012Y2136370D02*
G02*
X1400012Y2130370I-6000J0D01*
G75*
G01*
X1154988Y2619630D02*
G03*
X1148988Y2613630I0J-6000D01*
G75*
G01*
X1148988Y2586370D02*
G03*
X1154988Y2580370I6000J0D01*
G75*
G01*
X1235012Y2619630D02*
G02*
X1241012Y2613630I0J-6000D01*
G75*
G01*
X1241012Y2586370D02*
G02*
X1235012Y2580370I-6000J0D01*
G75*
G01*
X1154988Y2714630D02*
G03*
X1148988Y2708630I0J-6000D01*
G75*
G01*
X1148988Y2681370D02*
G03*
X1154988Y2675370I6000J0D01*
G75*
G01*
X1235012Y2714630D02*
G02*
X1241012Y2708630I0J-6000D01*
G75*
G01*
X1241012Y2681370D02*
G02*
X1235012Y2675370I-6000J0D01*
G75*
G01*
X1154988Y2569630D02*
G03*
X1148988Y2563630I0J-6000D01*
G75*
G01*
X1148988Y2536370D02*
G03*
X1154988Y2530370I6000J0D01*
G75*
G01*
X1235012Y2569630D02*
G02*
X1241012Y2563630I0J-6000D01*
G75*
G01*
X1241012Y2536370D02*
G02*
X1235012Y2530370I-6000J0D01*
G75*
G01*
X2130012Y2335370D02*
G03*
X2136012Y2341370I0J6000D01*
G75*
G01*
X2136012Y2368630D02*
G03*
X2130012Y2374630I-6000J0D01*
G75*
G01*
X2049988Y2335370D02*
G02*
X2043988Y2341370I0J6000D01*
G75*
G01*
X2043988Y2368630D02*
G02*
X2049988Y2374630I6000J0D01*
G75*
G01*
X2029988Y2769630D02*
G03*
X2023988Y2763630I0J-6000D01*
G75*
G01*
X2023988Y2736370D02*
G03*
X2029988Y2730370I6000J0D01*
G75*
G01*
X2110012Y2769630D02*
G02*
X2116012Y2763630I0J-6000D01*
G75*
G01*
X2116012Y2736370D02*
G02*
X2110012Y2730370I-6000J0D01*
G75*
G01*
X1965012Y2600370D02*
G03*
X1971012Y2606370I0J6000D01*
G75*
G01*
X1971012Y2633630D02*
G03*
X1965012Y2639630I-6000J0D01*
G75*
G01*
X1884988Y2600370D02*
G02*
X1878988Y2606370I0J6000D01*
G75*
G01*
X1878988Y2633630D02*
G02*
X1884988Y2639630I6000J0D01*
G75*
G01*
X1965012Y2645370D02*
G03*
X1971012Y2651370I0J6000D01*
G75*
G01*
X1971012Y2678630D02*
G03*
X1965012Y2684630I-6000J0D01*
G75*
G01*
X1884988Y2645370D02*
G02*
X1878988Y2651370I0J6000D01*
G75*
G01*
X1878988Y2678630D02*
G02*
X1884988Y2684630I6000J0D01*
G75*
G01*
X1960012Y2755370D02*
G03*
X1966012Y2761370I0J6000D01*
G75*
G01*
X1966012Y2788630D02*
G03*
X1960012Y2794630I-6000J0D01*
G75*
G01*
X1879988Y2755370D02*
G02*
X1873988Y2761370I0J6000D01*
G75*
G01*
X1873988Y2788630D02*
G02*
X1879988Y2794630I6000J0D01*
G75*
G01*
X2335012Y2760370D02*
G03*
X2341012Y2766370I0J6000D01*
G75*
G01*
X2341012Y2793630D02*
G03*
X2335012Y2799630I-6000J0D01*
G75*
G01*
X2254988Y2760370D02*
G02*
X2248988Y2766370I0J6000D01*
G75*
G01*
X2248988Y2793630D02*
G02*
X2254988Y2799630I6000J0D01*
G75*
G01*
X2244630Y2795012D02*
G03*
X2238630Y2801012I-6000J0D01*
G75*
G01*
X2211370Y2801012D02*
G03*
X2205370Y2795012I0J-6000D01*
G75*
G01*
X2244630Y2714988D02*
G02*
X2238630Y2708988I-6000J0D01*
G75*
G01*
X2211370Y2708988D02*
G02*
X2205370Y2714988I0J6000D01*
G75*
G01*
X2769630Y2385012D02*
G03*
X2763630Y2391012I-6000J0D01*
G75*
G01*
X2736370Y2391012D02*
G03*
X2730370Y2385012I0J-6000D01*
G75*
G01*
X2769630Y2304988D02*
G02*
X2763630Y2298988I-6000J0D01*
G75*
G01*
X2736370Y2298988D02*
G02*
X2730370Y2304988I0J6000D01*
G75*
G01*
X2520012Y2630370D02*
G03*
X2526012Y2636370I0J6000D01*
G75*
G01*
X2526012Y2663630D02*
G03*
X2520012Y2669630I-6000J0D01*
G75*
G01*
X2439988Y2630370D02*
G02*
X2433988Y2636370I0J6000D01*
G75*
G01*
X2433988Y2663630D02*
G02*
X2439988Y2669630I6000J0D01*
G75*
G01*
X2439988Y2719630D02*
G03*
X2433988Y2713630I0J-6000D01*
G75*
G01*
X2433988Y2686370D02*
G03*
X2439988Y2680370I6000J0D01*
G75*
G01*
X2520012Y2719630D02*
G02*
X2526012Y2713630I0J-6000D01*
G75*
G01*
X2526012Y2686370D02*
G02*
X2520012Y2680370I-6000J0D01*
G75*
G01*
X1259988Y2934630D02*
G03*
X1253988Y2928630I0J-6000D01*
G75*
G01*
X1253988Y2901370D02*
G03*
X1259988Y2895370I6000J0D01*
G75*
G01*
X1340012Y2934630D02*
G02*
X1346012Y2928630I0J-6000D01*
G75*
G01*
X1346012Y2901370D02*
G02*
X1340012Y2895370I-6000J0D01*
G75*
G01*
X1044929Y2036984D02*
G03*
X1050929Y2042984I0J6000D01*
G75*
G01*
X1050929Y2117016D02*
G03*
X1044929Y2123016I-6000J0D01*
G75*
G01*
X855071Y2036984D02*
G02*
X849071Y2042984I0J6000D01*
G75*
G01*
X849071Y2117016D02*
G02*
X855071Y2123016I6000J0D01*
G75*
G01*
X3011984Y2045071D02*
G03*
X3017984Y2039071I6000J0D01*
G75*
G01*
X3092016Y2039071D02*
G03*
X3098016Y2045071I0J6000D01*
G75*
G01*
X3011984Y2234929D02*
G02*
X3017984Y2240929I6000J0D01*
G75*
G01*
X3092016Y2240929D02*
G02*
X3098016Y2234929I0J-6000D01*
D18*
G75*
G01*
X1526348Y2917399D02*
G03*
X1526277Y2917328I-5603J5532D01*
D13*
G75*
G01
X1545860Y2861720D02*
G03X1545860Y2861720I-6710J0D01*
D19*
G75*
G01
X1978160Y2522690D02*
G03X1978160Y2522690I-2950J0D01*
M02*
