G04 Layer: InnerLayer2*
G04 EasyEDA v6.5.48, 2025-03-08 17:20:47*
G04 63e6e59633d6499fb326ce5c2c9b2855,b9277fd2045942759ab1a28cc0c323af,10*
G04 Gerber Generator version 0.2*
G04 Scale: 100 percent, Rotated: No, Reflected: No *
G04 Dimensions in millimeters *
G04 leading zeros omitted , absolute positions ,4 integer and 5 decimal *
%FSLAX45Y45*%
%MOMM*%

%ADD10C,0.2540*%
%ADD11O,2.2999954X0.9999979999999999*%
%ADD12O,1.9500088X0.9999979999999999*%
%ADD13O,0.9999979999999999X1.6999966*%
%ADD14R,1.6000X1.6000*%
%ADD15C,1.6000*%
%ADD16C,1.8000*%
%ADD17C,2.5000*%
%ADD18C,0.6096*%
%ADD19C,0.4500*%
%ADD20C,0.0133*%

%LPD*%
G36*
X2156460Y5105908D02*
G01*
X2152548Y5106670D01*
X2149297Y5108905D01*
X2147062Y5112156D01*
X2146300Y5116068D01*
X2146300Y6301232D01*
X2147062Y6305143D01*
X2149297Y6308394D01*
X2152548Y6310630D01*
X2156460Y6311392D01*
X2229307Y6311392D01*
X2233117Y6310680D01*
X2236368Y6308547D01*
X2238552Y6305448D01*
X2239467Y6301689D01*
X2238908Y6297879D01*
X2236978Y6294526D01*
X2231085Y6287820D01*
X2223414Y6276340D01*
X2217267Y6263894D01*
X2212797Y6250787D01*
X2210104Y6237224D01*
X2209190Y6223355D01*
X2210104Y6209538D01*
X2212797Y6195974D01*
X2217267Y6182868D01*
X2223414Y6170422D01*
X2231085Y6158941D01*
X2240229Y6148527D01*
X2250643Y6139383D01*
X2262174Y6131661D01*
X2274570Y6125565D01*
X2287676Y6121095D01*
X2301290Y6118402D01*
X2315108Y6117488D01*
X2328926Y6118402D01*
X2342489Y6121095D01*
X2355596Y6125565D01*
X2368042Y6131661D01*
X2379573Y6139383D01*
X2389987Y6148527D01*
X2399080Y6158941D01*
X2406802Y6170422D01*
X2412898Y6182868D01*
X2417368Y6195974D01*
X2420061Y6209538D01*
X2420975Y6223355D01*
X2421483Y6228232D01*
X2423566Y6231737D01*
X2426868Y6234125D01*
X2430830Y6235039D01*
X2434844Y6234277D01*
X2438247Y6232042D01*
X2474264Y6196076D01*
X2480462Y6190945D01*
X2487168Y6187389D01*
X2488844Y6186881D01*
X2492349Y6184950D01*
X2494889Y6181801D01*
X2496007Y6177940D01*
X2495499Y6173927D01*
X2493518Y6170422D01*
X2485085Y6160820D01*
X2477414Y6149340D01*
X2471267Y6136894D01*
X2466797Y6123787D01*
X2464104Y6110224D01*
X2463190Y6096355D01*
X2464104Y6082538D01*
X2466797Y6068974D01*
X2471267Y6055868D01*
X2477414Y6043422D01*
X2485085Y6031941D01*
X2494229Y6021527D01*
X2504643Y6012383D01*
X2516174Y6004661D01*
X2528570Y5998565D01*
X2541676Y5994095D01*
X2555290Y5991402D01*
X2569108Y5990488D01*
X2582926Y5991402D01*
X2596489Y5994095D01*
X2609596Y5998565D01*
X2622042Y6004661D01*
X2633573Y6012383D01*
X2643987Y6021527D01*
X2653080Y6031941D01*
X2660802Y6043422D01*
X2666898Y6055868D01*
X2671368Y6068974D01*
X2674061Y6082538D01*
X2674975Y6096355D01*
X2674061Y6110224D01*
X2671368Y6123787D01*
X2666898Y6136894D01*
X2663393Y6144006D01*
X2662377Y6147917D01*
X2662986Y6151930D01*
X2665069Y6155436D01*
X2668371Y6157772D01*
X2672334Y6158636D01*
X2676347Y6157925D01*
X2679700Y6155690D01*
X2690164Y6145276D01*
X2696362Y6140145D01*
X2703068Y6136589D01*
X2710281Y6134404D01*
X2718308Y6133592D01*
X4088892Y6133592D01*
X4096918Y6134404D01*
X4104132Y6136589D01*
X4110837Y6140145D01*
X4117035Y6145276D01*
X4171848Y6200038D01*
X4175353Y6202324D01*
X4184040Y6205677D01*
X4188968Y6208725D01*
X4191558Y6209893D01*
X4194301Y6210249D01*
X4615281Y6209792D01*
X4619193Y6209030D01*
X4622444Y6206845D01*
X4877460Y5951829D01*
X4879035Y5949797D01*
X4880051Y5947410D01*
X4882489Y5938824D01*
X4886502Y5930849D01*
X4891836Y5923737D01*
X4898440Y5917692D01*
X4906060Y5913018D01*
X4914341Y5909767D01*
X4917592Y5909157D01*
X4920488Y5908192D01*
X4922926Y5906363D01*
X5065064Y5764276D01*
X5071262Y5759145D01*
X5077968Y5755589D01*
X5085181Y5753404D01*
X5093208Y5752592D01*
X6144107Y5752592D01*
X6147765Y5751880D01*
X6150914Y5749950D01*
X6153200Y5746953D01*
X6156502Y5740349D01*
X6161836Y5733237D01*
X6168440Y5727192D01*
X6176060Y5722518D01*
X6184341Y5719267D01*
X6193129Y5717641D01*
X6202070Y5717641D01*
X6210858Y5719267D01*
X6219139Y5722518D01*
X6226759Y5727192D01*
X6233363Y5733237D01*
X6238697Y5740349D01*
X6242710Y5748324D01*
X6245148Y5756910D01*
X6245961Y5765800D01*
X6245148Y5774690D01*
X6242710Y5783275D01*
X6238697Y5791250D01*
X6233363Y5798362D01*
X6226759Y5804408D01*
X6219139Y5809081D01*
X6210858Y5812332D01*
X6207607Y5812942D01*
X6204712Y5813907D01*
X6202273Y5815736D01*
X6199835Y5818124D01*
X6193637Y5823254D01*
X6186932Y5826810D01*
X6179718Y5828995D01*
X6171692Y5829808D01*
X5112918Y5829808D01*
X5109006Y5830570D01*
X5105704Y5832805D01*
X4977739Y5960770D01*
X4976164Y5962802D01*
X4975148Y5965190D01*
X4972710Y5973775D01*
X4968697Y5981750D01*
X4963363Y5988862D01*
X4956759Y5994908D01*
X4949139Y5999581D01*
X4940858Y6002832D01*
X4937607Y6003442D01*
X4934712Y6004407D01*
X4932273Y6006236D01*
X4663135Y6275324D01*
X4656937Y6280454D01*
X4653838Y6282131D01*
X4650841Y6284518D01*
X4648962Y6287922D01*
X4648504Y6291732D01*
X4649470Y6295491D01*
X4651806Y6298590D01*
X4658563Y6304737D01*
X4663897Y6311849D01*
X4667910Y6319824D01*
X4670348Y6328410D01*
X4671161Y6337300D01*
X4670348Y6346190D01*
X4667910Y6354775D01*
X4663897Y6362750D01*
X4658563Y6369862D01*
X4651959Y6375908D01*
X4644339Y6380581D01*
X4636058Y6383832D01*
X4627270Y6385458D01*
X4618329Y6385458D01*
X4609541Y6383832D01*
X4601260Y6380581D01*
X4593640Y6375908D01*
X4587036Y6369862D01*
X4581702Y6362750D01*
X4577689Y6354775D01*
X4575251Y6346190D01*
X4574438Y6337300D01*
X4575251Y6328410D01*
X4577689Y6319824D01*
X4581702Y6311849D01*
X4589424Y6301435D01*
X4590338Y6297523D01*
X4589678Y6293561D01*
X4587494Y6290157D01*
X4584141Y6287871D01*
X4580178Y6287058D01*
X4194657Y6287465D01*
X4191863Y6287871D01*
X4189323Y6288989D01*
X4184040Y6292291D01*
X4175709Y6295491D01*
X4166920Y6297117D01*
X4158030Y6297117D01*
X4149242Y6295491D01*
X4140911Y6292291D01*
X4133342Y6287566D01*
X4126737Y6281572D01*
X4121353Y6274460D01*
X4117390Y6266434D01*
X4114952Y6257848D01*
X4114698Y6255410D01*
X4113784Y6252057D01*
X4111751Y6249162D01*
X4076395Y6213805D01*
X4073093Y6211570D01*
X4069181Y6210808D01*
X3988511Y6210808D01*
X3984447Y6211620D01*
X3981094Y6214008D01*
X3978960Y6217462D01*
X3978351Y6221526D01*
X3979418Y6225489D01*
X3982110Y6230924D01*
X3984548Y6239510D01*
X3985361Y6248400D01*
X3984548Y6257290D01*
X3983583Y6260693D01*
X3983278Y6264706D01*
X3984548Y6268567D01*
X3987241Y6271564D01*
X3990848Y6273342D01*
X3994912Y6273495D01*
X3998671Y6272123D01*
X4004360Y6268618D01*
X4012641Y6265367D01*
X4021429Y6263741D01*
X4030370Y6263741D01*
X4039158Y6265367D01*
X4047439Y6268618D01*
X4055059Y6273292D01*
X4061663Y6279337D01*
X4066997Y6286449D01*
X4071010Y6294424D01*
X4073448Y6303010D01*
X4074261Y6311900D01*
X4073448Y6320790D01*
X4071010Y6329375D01*
X4066997Y6337350D01*
X4061663Y6344462D01*
X4055059Y6350508D01*
X4047439Y6355181D01*
X4039158Y6358432D01*
X4030370Y6360058D01*
X4021429Y6360058D01*
X4012641Y6358432D01*
X4004360Y6355181D01*
X3996740Y6350508D01*
X3990136Y6344462D01*
X3984802Y6337350D01*
X3980789Y6329375D01*
X3978351Y6320790D01*
X3977538Y6311900D01*
X3978351Y6303010D01*
X3979316Y6299606D01*
X3979621Y6295593D01*
X3978351Y6291732D01*
X3975658Y6288735D01*
X3972051Y6286957D01*
X3967987Y6286804D01*
X3964228Y6288176D01*
X3958539Y6291681D01*
X3950258Y6294932D01*
X3941470Y6296558D01*
X3932529Y6296558D01*
X3923741Y6294932D01*
X3915460Y6291681D01*
X3907840Y6287008D01*
X3901236Y6280962D01*
X3895902Y6273850D01*
X3891889Y6265875D01*
X3889451Y6257290D01*
X3888638Y6248400D01*
X3889451Y6239510D01*
X3891889Y6230924D01*
X3894582Y6225489D01*
X3895648Y6221526D01*
X3895039Y6217462D01*
X3892905Y6214008D01*
X3889552Y6211620D01*
X3885488Y6210808D01*
X2738018Y6210808D01*
X2734106Y6211570D01*
X2730804Y6213805D01*
X2694635Y6249924D01*
X2688437Y6255054D01*
X2681732Y6258610D01*
X2674518Y6260795D01*
X2666492Y6261608D01*
X2654198Y6261608D01*
X2650439Y6262319D01*
X2647188Y6264452D01*
X2644952Y6267551D01*
X2644038Y6271310D01*
X2644597Y6275120D01*
X2646578Y6278473D01*
X2653080Y6285941D01*
X2660802Y6297422D01*
X2666898Y6309868D01*
X2671368Y6322974D01*
X2674061Y6336538D01*
X2674975Y6350355D01*
X2674061Y6364224D01*
X2671368Y6377787D01*
X2666898Y6390894D01*
X2660802Y6403340D01*
X2653080Y6414820D01*
X2643987Y6425234D01*
X2633573Y6434378D01*
X2622042Y6442100D01*
X2609596Y6448196D01*
X2596489Y6452666D01*
X2582926Y6455359D01*
X2569108Y6456273D01*
X2555290Y6455359D01*
X2541676Y6452666D01*
X2528570Y6448196D01*
X2516174Y6442100D01*
X2504643Y6434378D01*
X2494229Y6425234D01*
X2485085Y6414820D01*
X2477414Y6403340D01*
X2471267Y6390894D01*
X2466797Y6377787D01*
X2464104Y6364224D01*
X2463190Y6350355D01*
X2463850Y6340856D01*
X2463292Y6336792D01*
X2461209Y6333286D01*
X2457907Y6330899D01*
X2453894Y6330035D01*
X2449931Y6330746D01*
X2446528Y6332982D01*
X2402535Y6376924D01*
X2396337Y6382054D01*
X2390851Y6385001D01*
X2387803Y6387439D01*
X2385923Y6390894D01*
X2385517Y6394754D01*
X2386533Y6398514D01*
X2399080Y6412941D01*
X2406802Y6424422D01*
X2412898Y6436868D01*
X2417368Y6449974D01*
X2420061Y6463538D01*
X2420975Y6477355D01*
X2420061Y6491224D01*
X2417368Y6504787D01*
X2412898Y6517894D01*
X2406802Y6530340D01*
X2399080Y6541820D01*
X2389987Y6552234D01*
X2379573Y6561378D01*
X2368042Y6569100D01*
X2355596Y6575196D01*
X2342489Y6579666D01*
X2328926Y6582359D01*
X2315108Y6583273D01*
X2301290Y6582359D01*
X2287676Y6579666D01*
X2274570Y6575196D01*
X2262174Y6569100D01*
X2250643Y6561378D01*
X2240229Y6552234D01*
X2231085Y6541820D01*
X2223414Y6530340D01*
X2217267Y6517894D01*
X2212797Y6504787D01*
X2210104Y6491224D01*
X2209190Y6477355D01*
X2210104Y6463538D01*
X2212797Y6449974D01*
X2217267Y6436868D01*
X2223414Y6424422D01*
X2231085Y6412941D01*
X2237638Y6405473D01*
X2239568Y6402120D01*
X2240127Y6398310D01*
X2239264Y6394551D01*
X2237028Y6391452D01*
X2233777Y6389319D01*
X2229967Y6388608D01*
X2156460Y6388608D01*
X2152548Y6389370D01*
X2149297Y6391605D01*
X2147062Y6394856D01*
X2146300Y6398768D01*
X2146300Y7469631D01*
X2147062Y7473543D01*
X2149297Y7476794D01*
X2152548Y7479030D01*
X2156460Y7479792D01*
X3424580Y7479792D01*
X3428542Y7478979D01*
X3431844Y7476693D01*
X3434029Y7473289D01*
X3434689Y7469327D01*
X3433775Y7465364D01*
X3426002Y7454950D01*
X3421989Y7446975D01*
X3419551Y7438390D01*
X3418738Y7429500D01*
X3419551Y7420609D01*
X3421989Y7412024D01*
X3426002Y7404049D01*
X3431336Y7396937D01*
X3437940Y7390892D01*
X3445560Y7386218D01*
X3453841Y7382967D01*
X3462629Y7381341D01*
X3471570Y7381341D01*
X3480358Y7382967D01*
X3488639Y7386218D01*
X3496259Y7390892D01*
X3502863Y7396937D01*
X3508197Y7404049D01*
X3512210Y7412024D01*
X3514648Y7420609D01*
X3515461Y7429500D01*
X3514648Y7438390D01*
X3512210Y7446975D01*
X3508197Y7454950D01*
X3500424Y7465364D01*
X3499510Y7469327D01*
X3500170Y7473289D01*
X3502355Y7476693D01*
X3505657Y7478979D01*
X3509619Y7479792D01*
X4088688Y7479792D01*
X4092752Y7478979D01*
X4096105Y7476591D01*
X4098239Y7473137D01*
X4098848Y7469073D01*
X4097782Y7465110D01*
X4095089Y7459675D01*
X4092651Y7451090D01*
X4091838Y7442200D01*
X4092651Y7433309D01*
X4095089Y7424724D01*
X4099102Y7416749D01*
X4104436Y7409637D01*
X4111040Y7403592D01*
X4118660Y7398918D01*
X4126941Y7395667D01*
X4135729Y7394041D01*
X4144670Y7394041D01*
X4153458Y7395667D01*
X4161739Y7398918D01*
X4169359Y7403592D01*
X4175963Y7409637D01*
X4181297Y7416749D01*
X4185310Y7424724D01*
X4187748Y7433309D01*
X4188561Y7442200D01*
X4187748Y7451090D01*
X4185310Y7459675D01*
X4182618Y7465110D01*
X4181551Y7469073D01*
X4182160Y7473137D01*
X4184294Y7476591D01*
X4187647Y7478979D01*
X4191711Y7479792D01*
X5400040Y7479792D01*
X5403951Y7479030D01*
X5407202Y7476794D01*
X5409438Y7473543D01*
X5410200Y7469631D01*
X5410200Y7163816D01*
X5411216Y7162800D01*
X6009640Y7162800D01*
X6013551Y7162038D01*
X6016802Y7159802D01*
X6019038Y7156551D01*
X6019800Y7152640D01*
X6019800Y6960616D01*
X6020816Y6959600D01*
X6069584Y6959600D01*
X6070600Y6960616D01*
X6070600Y7469631D01*
X6071362Y7473543D01*
X6073597Y7476794D01*
X6076848Y7479030D01*
X6080760Y7479792D01*
X7914131Y7479792D01*
X7918043Y7479030D01*
X7921294Y7476794D01*
X7923530Y7473543D01*
X7924292Y7469631D01*
X7924292Y6752539D01*
X7923377Y6748373D01*
X7920837Y6744919D01*
X7917129Y6742836D01*
X7912862Y6742480D01*
X7908848Y6743903D01*
X7905750Y6746849D01*
X7901482Y6753098D01*
X7893761Y6761429D01*
X7884871Y6768490D01*
X7875066Y6774180D01*
X7864500Y6778294D01*
X7853476Y6780834D01*
X7841742Y6781698D01*
X7712506Y6781698D01*
X7700822Y6780834D01*
X7689799Y6778294D01*
X7679232Y6774180D01*
X7669377Y6768490D01*
X7660538Y6761429D01*
X7652816Y6753098D01*
X7646416Y6743750D01*
X7641488Y6733489D01*
X7638186Y6722668D01*
X7636459Y6711442D01*
X7636459Y6700113D01*
X7638186Y6688886D01*
X7641488Y6678066D01*
X7646416Y6667855D01*
X7652816Y6658457D01*
X7660538Y6650177D01*
X7669377Y6643116D01*
X7679232Y6637426D01*
X7689799Y6633260D01*
X7700822Y6630771D01*
X7712506Y6629857D01*
X7841742Y6629857D01*
X7853476Y6630771D01*
X7864500Y6633260D01*
X7875066Y6637426D01*
X7884871Y6643116D01*
X7893761Y6650177D01*
X7901482Y6658457D01*
X7905750Y6664756D01*
X7908848Y6667703D01*
X7912862Y6669125D01*
X7917129Y6668719D01*
X7920837Y6666636D01*
X7923377Y6663181D01*
X7924292Y6659016D01*
X7924292Y5888583D01*
X7923377Y5884367D01*
X7920837Y5880963D01*
X7917129Y5878830D01*
X7912862Y5878474D01*
X7908848Y5879896D01*
X7905750Y5882843D01*
X7901482Y5889091D01*
X7893761Y5897422D01*
X7884871Y5904484D01*
X7875066Y5910173D01*
X7864500Y5914288D01*
X7853476Y5916828D01*
X7841742Y5917692D01*
X7712506Y5917692D01*
X7700822Y5916828D01*
X7689799Y5914288D01*
X7679232Y5910173D01*
X7669377Y5904484D01*
X7660538Y5897422D01*
X7652816Y5889091D01*
X7646416Y5879744D01*
X7641488Y5869533D01*
X7638186Y5858662D01*
X7636459Y5847435D01*
X7636459Y5836107D01*
X7638186Y5824880D01*
X7641488Y5814060D01*
X7646416Y5803849D01*
X7652816Y5794502D01*
X7660538Y5786170D01*
X7669377Y5779109D01*
X7679232Y5773420D01*
X7689799Y5769305D01*
X7700822Y5766765D01*
X7712506Y5765901D01*
X7841742Y5765901D01*
X7853476Y5766765D01*
X7864500Y5769305D01*
X7875066Y5773420D01*
X7884871Y5779109D01*
X7893761Y5786170D01*
X7901482Y5794502D01*
X7905750Y5800750D01*
X7908848Y5803696D01*
X7912862Y5805119D01*
X7917129Y5804712D01*
X7920837Y5802630D01*
X7923377Y5799175D01*
X7924292Y5795010D01*
X7924292Y5116068D01*
X7923530Y5112156D01*
X7921294Y5108905D01*
X7918043Y5106670D01*
X7914131Y5105908D01*
X6212535Y5105908D01*
X6208674Y5106670D01*
X6205372Y5108905D01*
X5962192Y5352034D01*
X5959297Y5354523D01*
X5952845Y5358079D01*
X5947460Y5359603D01*
X5943193Y5359908D01*
X3556406Y5359908D01*
X3552596Y5359603D01*
X3545535Y5357571D01*
X3540658Y5354828D01*
X3537407Y5352034D01*
X3294227Y5108905D01*
X3290925Y5106670D01*
X3287064Y5105908D01*
G37*

%LPC*%
G36*
X2408529Y5222341D02*
G01*
X2417470Y5222341D01*
X2426258Y5223967D01*
X2434539Y5227218D01*
X2442159Y5231892D01*
X2448763Y5237937D01*
X2454097Y5245049D01*
X2458110Y5253024D01*
X2460548Y5261610D01*
X2461361Y5270500D01*
X2460548Y5279390D01*
X2458110Y5287975D01*
X2454097Y5295950D01*
X2448763Y5303062D01*
X2442159Y5309108D01*
X2434539Y5313781D01*
X2426258Y5317032D01*
X2417470Y5318658D01*
X2408529Y5318658D01*
X2399741Y5317032D01*
X2391460Y5313781D01*
X2383840Y5309108D01*
X2377236Y5303062D01*
X2371902Y5295950D01*
X2367889Y5287975D01*
X2365451Y5279390D01*
X2364638Y5270500D01*
X2365451Y5261610D01*
X2367889Y5253024D01*
X2371902Y5245049D01*
X2377236Y5237937D01*
X2383840Y5231892D01*
X2391460Y5227218D01*
X2399741Y5223967D01*
G37*
G36*
X7780629Y5374741D02*
G01*
X7789570Y5374741D01*
X7798358Y5376367D01*
X7806639Y5379618D01*
X7814259Y5384292D01*
X7820863Y5390337D01*
X7826197Y5397449D01*
X7830210Y5405424D01*
X7832648Y5414010D01*
X7833461Y5422900D01*
X7832648Y5431790D01*
X7830210Y5440375D01*
X7826197Y5448350D01*
X7820863Y5455462D01*
X7814259Y5461508D01*
X7806639Y5466181D01*
X7798358Y5469432D01*
X7789570Y5471058D01*
X7780629Y5471058D01*
X7771841Y5469432D01*
X7763560Y5466181D01*
X7755940Y5461508D01*
X7749336Y5455462D01*
X7744002Y5448350D01*
X7739989Y5440375D01*
X7737551Y5431790D01*
X7736738Y5422900D01*
X7737551Y5414010D01*
X7739989Y5405424D01*
X7744002Y5397449D01*
X7749336Y5390337D01*
X7755940Y5384292D01*
X7763560Y5379618D01*
X7771841Y5376367D01*
G37*
G36*
X4518660Y5450941D02*
G01*
X4527600Y5450941D01*
X4536389Y5452567D01*
X4544669Y5455818D01*
X4552289Y5460492D01*
X4558893Y5466537D01*
X4564227Y5473649D01*
X4568240Y5481624D01*
X4570679Y5490210D01*
X4571492Y5499100D01*
X4570679Y5507990D01*
X4568240Y5516575D01*
X4564227Y5524550D01*
X4558893Y5531662D01*
X4552289Y5537708D01*
X4544669Y5542381D01*
X4536389Y5545632D01*
X4527600Y5547258D01*
X4518660Y5547258D01*
X4509871Y5545632D01*
X4501591Y5542381D01*
X4493971Y5537708D01*
X4487367Y5531662D01*
X4482033Y5524550D01*
X4478020Y5516575D01*
X4475581Y5507990D01*
X4474768Y5499100D01*
X4475581Y5490210D01*
X4478020Y5481624D01*
X4482033Y5473649D01*
X4487367Y5466537D01*
X4493971Y5460492D01*
X4501591Y5455818D01*
X4509871Y5452567D01*
G37*
G36*
X7234529Y5552541D02*
G01*
X7243470Y5552541D01*
X7252258Y5554167D01*
X7260539Y5557418D01*
X7268159Y5562092D01*
X7274763Y5568137D01*
X7280097Y5575249D01*
X7280706Y5576417D01*
X7283551Y5579872D01*
X7287564Y5581802D01*
X7292035Y5581802D01*
X7296048Y5579872D01*
X7298893Y5576417D01*
X7299502Y5575249D01*
X7304836Y5568137D01*
X7311440Y5562092D01*
X7319060Y5557418D01*
X7327341Y5554167D01*
X7336129Y5552541D01*
X7345070Y5552541D01*
X7353858Y5554167D01*
X7362139Y5557418D01*
X7369759Y5562092D01*
X7376363Y5568137D01*
X7381697Y5575249D01*
X7385710Y5583224D01*
X7388148Y5591810D01*
X7388961Y5600700D01*
X7388148Y5609590D01*
X7385710Y5618175D01*
X7381697Y5626150D01*
X7376363Y5633262D01*
X7369759Y5639308D01*
X7362139Y5643981D01*
X7353858Y5647232D01*
X7345070Y5648858D01*
X7336129Y5648858D01*
X7327341Y5647232D01*
X7319060Y5643981D01*
X7311440Y5639308D01*
X7304836Y5633262D01*
X7299502Y5626150D01*
X7298893Y5624982D01*
X7296048Y5621528D01*
X7292035Y5619597D01*
X7287564Y5619597D01*
X7283551Y5621528D01*
X7280706Y5624982D01*
X7280097Y5626150D01*
X7274763Y5633262D01*
X7268159Y5639308D01*
X7260539Y5643981D01*
X7252258Y5647232D01*
X7243470Y5648858D01*
X7234529Y5648858D01*
X7225741Y5647232D01*
X7217460Y5643981D01*
X7209840Y5639308D01*
X7203236Y5633262D01*
X7197902Y5626150D01*
X7193889Y5618175D01*
X7191451Y5609590D01*
X7190638Y5600700D01*
X7191451Y5591810D01*
X7193889Y5583224D01*
X7197902Y5575249D01*
X7203236Y5568137D01*
X7209840Y5562092D01*
X7217460Y5557418D01*
X7225741Y5554167D01*
G37*
G36*
X3678529Y5590641D02*
G01*
X3687470Y5590641D01*
X3696258Y5592267D01*
X3704539Y5595518D01*
X3712159Y5600192D01*
X3718763Y5606237D01*
X3724097Y5613349D01*
X3728110Y5621324D01*
X3730548Y5629910D01*
X3731361Y5638800D01*
X3730548Y5647690D01*
X3728110Y5656275D01*
X3724097Y5664250D01*
X3718763Y5671362D01*
X3712159Y5677408D01*
X3704539Y5682081D01*
X3696258Y5685332D01*
X3687470Y5686958D01*
X3678529Y5686958D01*
X3669741Y5685332D01*
X3661460Y5682081D01*
X3653840Y5677408D01*
X3647236Y5671362D01*
X3641902Y5664250D01*
X3637889Y5656275D01*
X3635451Y5647690D01*
X3634638Y5638800D01*
X3635451Y5629910D01*
X3637889Y5621324D01*
X3641902Y5613349D01*
X3647236Y5606237D01*
X3653840Y5600192D01*
X3661460Y5595518D01*
X3669741Y5592267D01*
G37*
G36*
X6066129Y5616041D02*
G01*
X6075070Y5616041D01*
X6083858Y5617667D01*
X6092139Y5620918D01*
X6099759Y5625592D01*
X6106363Y5631637D01*
X6111697Y5638749D01*
X6115710Y5646724D01*
X6118148Y5655310D01*
X6118961Y5664200D01*
X6118148Y5673090D01*
X6115710Y5681675D01*
X6111697Y5689650D01*
X6106363Y5696762D01*
X6099759Y5702808D01*
X6092139Y5707481D01*
X6083858Y5710732D01*
X6075070Y5712358D01*
X6066129Y5712358D01*
X6057341Y5710732D01*
X6049060Y5707481D01*
X6041440Y5702808D01*
X6034836Y5696762D01*
X6029502Y5689650D01*
X6025489Y5681675D01*
X6023051Y5673090D01*
X6022238Y5664200D01*
X6023051Y5655310D01*
X6025489Y5646724D01*
X6029502Y5638749D01*
X6034836Y5631637D01*
X6041440Y5625592D01*
X6049060Y5620918D01*
X6057341Y5617667D01*
G37*
G36*
X5850229Y5628741D02*
G01*
X5859170Y5628741D01*
X5867958Y5630367D01*
X5876239Y5633618D01*
X5883859Y5638292D01*
X5890463Y5644337D01*
X5895797Y5651449D01*
X5899810Y5659424D01*
X5902248Y5668010D01*
X5903061Y5676900D01*
X5902248Y5685790D01*
X5899810Y5694375D01*
X5895797Y5702350D01*
X5890463Y5709462D01*
X5883859Y5715508D01*
X5876239Y5720181D01*
X5867958Y5723432D01*
X5859170Y5725058D01*
X5850229Y5725058D01*
X5841441Y5723432D01*
X5833160Y5720181D01*
X5825540Y5715508D01*
X5818936Y5709462D01*
X5813602Y5702350D01*
X5809589Y5694375D01*
X5807151Y5685790D01*
X5806338Y5676900D01*
X5807151Y5668010D01*
X5809589Y5659424D01*
X5813602Y5651449D01*
X5818936Y5644337D01*
X5825540Y5638292D01*
X5833160Y5633618D01*
X5841441Y5630367D01*
G37*
G36*
X2569108Y5736488D02*
G01*
X2582926Y5737402D01*
X2596489Y5740095D01*
X2609596Y5744565D01*
X2622042Y5750661D01*
X2633573Y5758383D01*
X2643987Y5767527D01*
X2653080Y5777941D01*
X2660802Y5789422D01*
X2666898Y5801868D01*
X2671368Y5814974D01*
X2674061Y5828538D01*
X2674975Y5842355D01*
X2674061Y5856224D01*
X2671368Y5869787D01*
X2666898Y5882894D01*
X2660802Y5895340D01*
X2653080Y5906820D01*
X2643987Y5917234D01*
X2633573Y5926378D01*
X2622042Y5934100D01*
X2609596Y5940196D01*
X2596489Y5944666D01*
X2582926Y5947359D01*
X2569108Y5948273D01*
X2555290Y5947359D01*
X2541676Y5944666D01*
X2528570Y5940196D01*
X2516174Y5934100D01*
X2504643Y5926378D01*
X2494229Y5917234D01*
X2485085Y5906820D01*
X2477414Y5895340D01*
X2471267Y5882894D01*
X2466797Y5869787D01*
X2464104Y5856224D01*
X2463190Y5842355D01*
X2464104Y5828538D01*
X2466797Y5814974D01*
X2471267Y5801868D01*
X2477414Y5789422D01*
X2485085Y5777941D01*
X2494229Y5767527D01*
X2504643Y5758383D01*
X2516174Y5750661D01*
X2528570Y5744565D01*
X2541676Y5740095D01*
X2555290Y5737402D01*
G37*
G36*
X7365898Y5754928D02*
G01*
X7377277Y5754928D01*
X7388453Y5756656D01*
X7399324Y5760008D01*
X7409535Y5764885D01*
X7418882Y5771286D01*
X7427214Y5779008D01*
X7434275Y5787898D01*
X7439964Y5797702D01*
X7444079Y5808268D01*
X7446619Y5819292D01*
X7447483Y5830976D01*
X7447483Y5872937D01*
X7448245Y5876696D01*
X7450328Y5879947D01*
X7453426Y5882182D01*
X7457186Y5883097D01*
X7463891Y5883402D01*
X7472781Y5885434D01*
X7481214Y5888990D01*
X7488783Y5894019D01*
X7495387Y5900318D01*
X7500772Y5907684D01*
X7504684Y5915914D01*
X7507122Y5924702D01*
X7507935Y5933795D01*
X7507122Y5942888D01*
X7504684Y5951677D01*
X7500772Y5959906D01*
X7495387Y5967272D01*
X7488783Y5973572D01*
X7481214Y5978601D01*
X7472781Y5982157D01*
X7463891Y5984189D01*
X7454798Y5984595D01*
X7445756Y5983376D01*
X7437069Y5980582D01*
X7429042Y5976264D01*
X7421930Y5970574D01*
X7420762Y5969203D01*
X7417206Y5966612D01*
X7412939Y5965748D01*
X7408672Y5966714D01*
X7399324Y5971235D01*
X7388453Y5974588D01*
X7377277Y5976264D01*
X7365898Y5976264D01*
X7354722Y5974588D01*
X7343851Y5971235D01*
X7333640Y5966307D01*
X7324293Y5959957D01*
X7315962Y5952236D01*
X7308900Y5943346D01*
X7303211Y5933541D01*
X7299604Y5924346D01*
X7297420Y5920943D01*
X7294118Y5918708D01*
X7290155Y5917895D01*
X7269835Y5917895D01*
X7266127Y5918606D01*
X7262977Y5920536D01*
X7260691Y5923534D01*
X7259675Y5927140D01*
X7260031Y5930849D01*
X7261148Y5934710D01*
X7261961Y5943600D01*
X7261148Y5952490D01*
X7258710Y5961075D01*
X7254697Y5969050D01*
X7249363Y5976162D01*
X7242759Y5982208D01*
X7235139Y5986881D01*
X7226858Y5990132D01*
X7218070Y5991758D01*
X7209129Y5991758D01*
X7200595Y5990183D01*
X7196581Y5990234D01*
X7192873Y5991860D01*
X7190130Y5994806D01*
X7188708Y5998616D01*
X7188911Y6002629D01*
X7195210Y6015024D01*
X7197648Y6023610D01*
X7198461Y6032500D01*
X7197648Y6041390D01*
X7195210Y6049975D01*
X7191197Y6057950D01*
X7185863Y6065062D01*
X7184593Y6066231D01*
X7182103Y6069736D01*
X7181291Y6074054D01*
X7184948Y6087110D01*
X7185761Y6096000D01*
X7184948Y6104890D01*
X7182510Y6113475D01*
X7178497Y6121450D01*
X7173163Y6128562D01*
X7166559Y6134608D01*
X7158939Y6139281D01*
X7150658Y6142532D01*
X7141870Y6144158D01*
X7132929Y6144158D01*
X7124141Y6142532D01*
X7115860Y6139281D01*
X7108240Y6134608D01*
X7101636Y6128562D01*
X7096302Y6121450D01*
X7092289Y6113475D01*
X7089851Y6104890D01*
X7089038Y6096000D01*
X7089851Y6087110D01*
X7092289Y6078524D01*
X7096302Y6070549D01*
X7101636Y6063437D01*
X7102906Y6062268D01*
X7105396Y6058763D01*
X7106208Y6054445D01*
X7102551Y6041390D01*
X7101738Y6032500D01*
X7102551Y6023610D01*
X7104989Y6015024D01*
X7109002Y6007049D01*
X7114336Y5999937D01*
X7120940Y5993892D01*
X7128560Y5989218D01*
X7136841Y5985967D01*
X7145629Y5984341D01*
X7154570Y5984341D01*
X7163104Y5985916D01*
X7167118Y5985865D01*
X7170826Y5984240D01*
X7173569Y5981293D01*
X7174992Y5977483D01*
X7174788Y5973470D01*
X7168489Y5961075D01*
X7166051Y5952490D01*
X7165238Y5943600D01*
X7166051Y5934710D01*
X7168489Y5926124D01*
X7172502Y5918149D01*
X7177836Y5911037D01*
X7184440Y5904992D01*
X7192060Y5900318D01*
X7198969Y5897626D01*
X7202068Y5895746D01*
X7204303Y5892850D01*
X7205370Y5889396D01*
X7205167Y5885738D01*
X7203694Y5882436D01*
X7201966Y5879947D01*
X7197039Y5869736D01*
X7193737Y5858865D01*
X7192009Y5847638D01*
X7192009Y5836310D01*
X7193737Y5825083D01*
X7197039Y5814263D01*
X7201966Y5804052D01*
X7208367Y5794705D01*
X7216089Y5786374D01*
X7224928Y5779312D01*
X7234783Y5773623D01*
X7245350Y5769508D01*
X7256373Y5766968D01*
X7268057Y5766104D01*
X7328865Y5766104D01*
X7333284Y5765088D01*
X7343851Y5760008D01*
X7354722Y5756656D01*
G37*
G36*
X4516729Y5755741D02*
G01*
X4525670Y5755741D01*
X4534458Y5757367D01*
X4542739Y5760618D01*
X4550359Y5765292D01*
X4556963Y5771337D01*
X4562297Y5778449D01*
X4566310Y5786424D01*
X4567326Y5790082D01*
X4569307Y5793790D01*
X4572609Y5796432D01*
X4576622Y5797448D01*
X4580788Y5796788D01*
X4584141Y5795467D01*
X4592929Y5793841D01*
X4601870Y5793841D01*
X4610658Y5795467D01*
X4618939Y5798718D01*
X4626559Y5803392D01*
X4633163Y5809437D01*
X4638497Y5816549D01*
X4642510Y5824524D01*
X4644948Y5833110D01*
X4645761Y5842000D01*
X4644948Y5850890D01*
X4642510Y5859475D01*
X4638497Y5867450D01*
X4633163Y5874562D01*
X4626559Y5880608D01*
X4618939Y5885281D01*
X4610658Y5888532D01*
X4601870Y5890158D01*
X4592929Y5890158D01*
X4584141Y5888532D01*
X4575860Y5885281D01*
X4568240Y5880608D01*
X4561636Y5874562D01*
X4556302Y5867450D01*
X4552289Y5859475D01*
X4551273Y5855817D01*
X4549292Y5852109D01*
X4545990Y5849467D01*
X4541977Y5848451D01*
X4537811Y5849112D01*
X4534458Y5850432D01*
X4525670Y5852058D01*
X4516729Y5852058D01*
X4507941Y5850432D01*
X4499660Y5847181D01*
X4492040Y5842508D01*
X4485436Y5836462D01*
X4480102Y5829350D01*
X4476089Y5821375D01*
X4473651Y5812790D01*
X4472838Y5803900D01*
X4473651Y5795010D01*
X4476089Y5786424D01*
X4480102Y5778449D01*
X4485436Y5771337D01*
X4492040Y5765292D01*
X4499660Y5760618D01*
X4507941Y5757367D01*
G37*
G36*
X2315108Y5863488D02*
G01*
X2328926Y5864402D01*
X2342489Y5867095D01*
X2355596Y5871565D01*
X2368042Y5877661D01*
X2379573Y5885383D01*
X2389987Y5894527D01*
X2399080Y5904941D01*
X2406802Y5916422D01*
X2412898Y5928868D01*
X2417368Y5941974D01*
X2420061Y5955538D01*
X2420975Y5969355D01*
X2420061Y5983224D01*
X2417368Y5996787D01*
X2412898Y6009894D01*
X2406802Y6022340D01*
X2399080Y6033820D01*
X2389987Y6044234D01*
X2379573Y6053378D01*
X2368042Y6061100D01*
X2355596Y6067196D01*
X2342489Y6071666D01*
X2328926Y6074359D01*
X2315108Y6075273D01*
X2301290Y6074359D01*
X2287676Y6071666D01*
X2274570Y6067196D01*
X2262174Y6061100D01*
X2250643Y6053378D01*
X2240229Y6044234D01*
X2231085Y6033820D01*
X2223414Y6022340D01*
X2217267Y6009894D01*
X2212797Y5996787D01*
X2210104Y5983224D01*
X2209190Y5969355D01*
X2210104Y5955538D01*
X2212797Y5941974D01*
X2217267Y5928868D01*
X2223414Y5916422D01*
X2231085Y5904941D01*
X2240229Y5894527D01*
X2250643Y5885383D01*
X2262174Y5877661D01*
X2274570Y5871565D01*
X2287676Y5867095D01*
X2301290Y5864402D01*
G37*
G36*
X3312922Y5889040D02*
G01*
X3321862Y5889040D01*
X3330651Y5890666D01*
X3338931Y5893917D01*
X3346551Y5898591D01*
X3353155Y5904636D01*
X3358489Y5911748D01*
X3362502Y5919724D01*
X3364941Y5928309D01*
X3365754Y5937199D01*
X3364941Y5946089D01*
X3362502Y5954674D01*
X3358489Y5962650D01*
X3353155Y5969762D01*
X3346551Y5975807D01*
X3338931Y5980480D01*
X3330651Y5983732D01*
X3321862Y5985357D01*
X3312922Y5985357D01*
X3304133Y5983732D01*
X3295853Y5980480D01*
X3288233Y5975807D01*
X3281629Y5969762D01*
X3276295Y5962650D01*
X3272282Y5954674D01*
X3269843Y5946089D01*
X3269030Y5937199D01*
X3269843Y5928309D01*
X3272282Y5919724D01*
X3276295Y5911748D01*
X3281629Y5904636D01*
X3288233Y5898591D01*
X3295853Y5893917D01*
X3304133Y5890666D01*
G37*
G36*
X5052263Y5949950D02*
G01*
X5061204Y5949950D01*
X5069992Y5951575D01*
X5078272Y5954826D01*
X5085892Y5959500D01*
X5092496Y5965545D01*
X5097830Y5972657D01*
X5101844Y5980633D01*
X5104282Y5989218D01*
X5105095Y5998108D01*
X5104282Y6006998D01*
X5101844Y6015583D01*
X5097830Y6023559D01*
X5092496Y6030671D01*
X5085892Y6036716D01*
X5078272Y6041390D01*
X5069992Y6044641D01*
X5061204Y6046266D01*
X5052263Y6046266D01*
X5043474Y6044641D01*
X5035194Y6041390D01*
X5027574Y6036716D01*
X5020970Y6030671D01*
X5015636Y6023559D01*
X5011623Y6015583D01*
X5009184Y6006998D01*
X5008372Y5998108D01*
X5009184Y5989218D01*
X5011623Y5980633D01*
X5015636Y5972657D01*
X5020970Y5965545D01*
X5027574Y5959500D01*
X5035194Y5954826D01*
X5043474Y5951575D01*
G37*
G36*
X4669129Y5958941D02*
G01*
X4678070Y5958941D01*
X4686858Y5960567D01*
X4695139Y5963818D01*
X4702759Y5968492D01*
X4709363Y5974537D01*
X4714697Y5981649D01*
X4718710Y5989624D01*
X4721148Y5998210D01*
X4721961Y6007100D01*
X4721148Y6015990D01*
X4718710Y6024575D01*
X4714697Y6032550D01*
X4709363Y6039662D01*
X4702759Y6045708D01*
X4695139Y6050381D01*
X4686858Y6053632D01*
X4678070Y6055258D01*
X4669129Y6055258D01*
X4660341Y6053632D01*
X4652060Y6050381D01*
X4644440Y6045708D01*
X4637836Y6039662D01*
X4632502Y6032550D01*
X4628489Y6024575D01*
X4626051Y6015990D01*
X4625238Y6007100D01*
X4626051Y5998210D01*
X4628489Y5989624D01*
X4632502Y5981649D01*
X4637836Y5974537D01*
X4644440Y5968492D01*
X4652060Y5963818D01*
X4660341Y5960567D01*
G37*
G36*
X4282998Y6002172D02*
G01*
X4291888Y6002172D01*
X4300677Y6003798D01*
X4309008Y6007049D01*
X4316577Y6011722D01*
X4323181Y6017768D01*
X4328566Y6024880D01*
X4332528Y6032855D01*
X4334967Y6041440D01*
X4335830Y6050330D01*
X4334967Y6059220D01*
X4332528Y6067806D01*
X4328566Y6075781D01*
X4323181Y6082893D01*
X4316577Y6088938D01*
X4309008Y6093612D01*
X4300677Y6096863D01*
X4291888Y6098489D01*
X4282998Y6098489D01*
X4274210Y6096863D01*
X4265879Y6093612D01*
X4258310Y6088938D01*
X4251706Y6082893D01*
X4246321Y6075781D01*
X4242358Y6067806D01*
X4239920Y6059220D01*
X4239056Y6050330D01*
X4239920Y6041440D01*
X4242358Y6032855D01*
X4246321Y6024880D01*
X4251706Y6017768D01*
X4258310Y6011722D01*
X4265879Y6007049D01*
X4274210Y6003798D01*
G37*
G36*
X5532729Y6035141D02*
G01*
X5541670Y6035141D01*
X5550458Y6036767D01*
X5558739Y6040018D01*
X5566359Y6044692D01*
X5572963Y6050737D01*
X5578297Y6057849D01*
X5580278Y6061760D01*
X5582818Y6064961D01*
X5586374Y6066942D01*
X5590489Y6067298D01*
X5594400Y6066028D01*
X5597448Y6063335D01*
X5603036Y6055918D01*
X5609640Y6049924D01*
X5617260Y6045200D01*
X5625541Y6041999D01*
X5634329Y6040374D01*
X5643270Y6040374D01*
X5652058Y6041999D01*
X5660339Y6045200D01*
X5667959Y6049924D01*
X5674563Y6055918D01*
X5679897Y6063030D01*
X5683910Y6071057D01*
X5686348Y6079642D01*
X5687161Y6088481D01*
X5686348Y6097371D01*
X5683910Y6105956D01*
X5679897Y6113983D01*
X5674563Y6121095D01*
X5667959Y6127089D01*
X5660339Y6131814D01*
X5652058Y6135014D01*
X5643270Y6136640D01*
X5634329Y6136640D01*
X5625541Y6135014D01*
X5617260Y6131814D01*
X5609640Y6127089D01*
X5603036Y6121095D01*
X5597702Y6113983D01*
X5595721Y6110071D01*
X5593181Y6106820D01*
X5589625Y6104890D01*
X5585510Y6104483D01*
X5581599Y6105753D01*
X5578551Y6108496D01*
X5572963Y6115862D01*
X5566359Y6121908D01*
X5558739Y6126581D01*
X5550458Y6129832D01*
X5541670Y6131458D01*
X5532729Y6131458D01*
X5523941Y6129832D01*
X5515660Y6126581D01*
X5508040Y6121908D01*
X5501436Y6115862D01*
X5496102Y6108750D01*
X5492089Y6100775D01*
X5489651Y6092190D01*
X5488838Y6083300D01*
X5489651Y6074410D01*
X5492089Y6065824D01*
X5496102Y6057849D01*
X5501436Y6050737D01*
X5508040Y6044692D01*
X5515660Y6040018D01*
X5523941Y6036767D01*
G37*
G36*
X5266029Y6073241D02*
G01*
X5274970Y6073241D01*
X5283758Y6074867D01*
X5292039Y6078118D01*
X5299659Y6082792D01*
X5306263Y6088837D01*
X5311597Y6095949D01*
X5315610Y6103924D01*
X5318048Y6112510D01*
X5318861Y6121400D01*
X5318048Y6130290D01*
X5315610Y6138875D01*
X5311597Y6146850D01*
X5306263Y6153962D01*
X5299659Y6160008D01*
X5292039Y6164681D01*
X5283758Y6167932D01*
X5274970Y6169558D01*
X5266029Y6169558D01*
X5257241Y6167932D01*
X5248960Y6164681D01*
X5241340Y6160008D01*
X5234736Y6153962D01*
X5229402Y6146850D01*
X5225389Y6138875D01*
X5222951Y6130290D01*
X5222138Y6121400D01*
X5222951Y6112510D01*
X5225389Y6103924D01*
X5229402Y6095949D01*
X5234736Y6088837D01*
X5241340Y6082792D01*
X5248960Y6078118D01*
X5257241Y6074867D01*
G37*
G36*
X4961229Y6085941D02*
G01*
X4970170Y6085941D01*
X4978958Y6087567D01*
X4987239Y6090818D01*
X4994859Y6095492D01*
X5001463Y6101537D01*
X5006797Y6108649D01*
X5010810Y6116624D01*
X5013248Y6125210D01*
X5014061Y6134100D01*
X5013248Y6142990D01*
X5010810Y6151575D01*
X5006797Y6159550D01*
X5001463Y6166662D01*
X4994859Y6172708D01*
X4987239Y6177381D01*
X4978958Y6180632D01*
X4970170Y6182258D01*
X4961229Y6182258D01*
X4952441Y6180632D01*
X4944160Y6177381D01*
X4936540Y6172708D01*
X4929936Y6166662D01*
X4924602Y6159550D01*
X4920589Y6151575D01*
X4918151Y6142990D01*
X4917338Y6134100D01*
X4918151Y6125210D01*
X4920589Y6116624D01*
X4924602Y6108649D01*
X4929936Y6101537D01*
X4936540Y6095492D01*
X4944160Y6090818D01*
X4952441Y6087567D01*
G37*
G36*
X6624929Y6111341D02*
G01*
X6633870Y6111341D01*
X6642658Y6112967D01*
X6650939Y6116218D01*
X6658559Y6120892D01*
X6665163Y6126937D01*
X6670497Y6134049D01*
X6674510Y6142024D01*
X6676948Y6150610D01*
X6677761Y6159500D01*
X6676948Y6168390D01*
X6674510Y6176975D01*
X6670497Y6184950D01*
X6665163Y6192062D01*
X6658559Y6198108D01*
X6650939Y6202781D01*
X6642658Y6206032D01*
X6633870Y6207658D01*
X6624929Y6207658D01*
X6616141Y6206032D01*
X6607860Y6202781D01*
X6600240Y6198108D01*
X6593636Y6192062D01*
X6588302Y6184950D01*
X6584289Y6176975D01*
X6581851Y6168390D01*
X6581038Y6159500D01*
X6581851Y6150610D01*
X6584289Y6142024D01*
X6588302Y6134049D01*
X6593636Y6126937D01*
X6600240Y6120892D01*
X6607860Y6116218D01*
X6616141Y6112967D01*
G37*
G36*
X7171029Y6174841D02*
G01*
X7179970Y6174841D01*
X7188758Y6176467D01*
X7197039Y6179718D01*
X7204659Y6184392D01*
X7211263Y6190437D01*
X7216597Y6197549D01*
X7220610Y6205524D01*
X7223048Y6214110D01*
X7223861Y6223000D01*
X7223048Y6231890D01*
X7220610Y6240475D01*
X7216597Y6248450D01*
X7211263Y6255562D01*
X7204659Y6261608D01*
X7197039Y6266281D01*
X7188758Y6269532D01*
X7179970Y6271158D01*
X7171029Y6271158D01*
X7162241Y6269532D01*
X7153960Y6266281D01*
X7146340Y6261608D01*
X7139736Y6255562D01*
X7134402Y6248450D01*
X7130389Y6240475D01*
X7127951Y6231890D01*
X7127138Y6223000D01*
X7127951Y6214110D01*
X7130389Y6205524D01*
X7134402Y6197549D01*
X7139736Y6190437D01*
X7146340Y6184392D01*
X7153960Y6179718D01*
X7162241Y6176467D01*
G37*
G36*
X6180429Y6289141D02*
G01*
X6189370Y6289141D01*
X6198158Y6290767D01*
X6206439Y6294018D01*
X6214059Y6298692D01*
X6220663Y6304737D01*
X6225997Y6311849D01*
X6226606Y6313017D01*
X6229451Y6316472D01*
X6233464Y6318402D01*
X6237935Y6318402D01*
X6241948Y6316472D01*
X6244793Y6313017D01*
X6245402Y6311849D01*
X6250736Y6304737D01*
X6257340Y6298692D01*
X6264960Y6294018D01*
X6273241Y6290767D01*
X6282029Y6289141D01*
X6290970Y6289141D01*
X6299758Y6290767D01*
X6308039Y6294018D01*
X6315659Y6298692D01*
X6322263Y6304737D01*
X6327597Y6311849D01*
X6331610Y6319824D01*
X6334048Y6328410D01*
X6334861Y6337300D01*
X6334048Y6346190D01*
X6331610Y6354775D01*
X6327597Y6362750D01*
X6322263Y6369862D01*
X6315659Y6375908D01*
X6308039Y6380581D01*
X6299758Y6383832D01*
X6290970Y6385458D01*
X6282029Y6385458D01*
X6273241Y6383832D01*
X6264960Y6380581D01*
X6257340Y6375908D01*
X6250736Y6369862D01*
X6245402Y6362750D01*
X6244793Y6361582D01*
X6241948Y6358128D01*
X6237935Y6356197D01*
X6233464Y6356197D01*
X6229451Y6358128D01*
X6226606Y6361582D01*
X6225997Y6362750D01*
X6220663Y6369862D01*
X6214059Y6375908D01*
X6206439Y6380581D01*
X6198158Y6383832D01*
X6189370Y6385458D01*
X6180429Y6385458D01*
X6171641Y6383832D01*
X6163360Y6380581D01*
X6155740Y6375908D01*
X6149136Y6369862D01*
X6143802Y6362750D01*
X6139789Y6354775D01*
X6137351Y6346190D01*
X6136538Y6337300D01*
X6137351Y6328410D01*
X6139789Y6319824D01*
X6143802Y6311849D01*
X6149136Y6304737D01*
X6155740Y6298692D01*
X6163360Y6294018D01*
X6171641Y6290767D01*
G37*
G36*
X5812129Y6289141D02*
G01*
X5821070Y6289141D01*
X5829858Y6290767D01*
X5838139Y6294018D01*
X5845759Y6298692D01*
X5852363Y6304737D01*
X5857697Y6311849D01*
X5861710Y6319824D01*
X5864148Y6328410D01*
X5864961Y6337300D01*
X5864301Y6344462D01*
X5864758Y6348526D01*
X5866790Y6352082D01*
X5870041Y6354572D01*
X5874054Y6355537D01*
X5878068Y6354876D01*
X5879541Y6354267D01*
X5888329Y6352641D01*
X5897270Y6352641D01*
X5906058Y6354267D01*
X5914339Y6357518D01*
X5921959Y6362192D01*
X5928563Y6368237D01*
X5933897Y6375349D01*
X5937910Y6383324D01*
X5940348Y6391910D01*
X5941161Y6400800D01*
X5940348Y6409690D01*
X5937910Y6418275D01*
X5933897Y6426250D01*
X5928563Y6433362D01*
X5921959Y6439408D01*
X5914339Y6444081D01*
X5906058Y6447332D01*
X5897270Y6448958D01*
X5888329Y6448958D01*
X5879541Y6447332D01*
X5871260Y6444081D01*
X5863640Y6439408D01*
X5857036Y6433362D01*
X5851702Y6426250D01*
X5847689Y6418275D01*
X5845251Y6409690D01*
X5844438Y6400800D01*
X5845098Y6393637D01*
X5844641Y6389573D01*
X5842609Y6386017D01*
X5839358Y6383528D01*
X5835345Y6382562D01*
X5831332Y6383223D01*
X5829858Y6383832D01*
X5821070Y6385458D01*
X5812129Y6385458D01*
X5803341Y6383832D01*
X5795060Y6380581D01*
X5787440Y6375908D01*
X5780836Y6369862D01*
X5775502Y6362750D01*
X5771489Y6354775D01*
X5769051Y6346190D01*
X5768238Y6337300D01*
X5769051Y6328410D01*
X5771489Y6319824D01*
X5775502Y6311849D01*
X5780836Y6304737D01*
X5787440Y6298692D01*
X5795060Y6294018D01*
X5803341Y6290767D01*
G37*
G36*
X6536029Y6327241D02*
G01*
X6544970Y6327241D01*
X6553758Y6328867D01*
X6562039Y6332118D01*
X6569659Y6336792D01*
X6576263Y6342837D01*
X6581597Y6349949D01*
X6585610Y6357924D01*
X6588048Y6366510D01*
X6588861Y6375400D01*
X6588048Y6384290D01*
X6585610Y6392875D01*
X6581597Y6400850D01*
X6576263Y6407962D01*
X6569659Y6414008D01*
X6562039Y6418681D01*
X6553758Y6421932D01*
X6544970Y6423558D01*
X6536029Y6423558D01*
X6527241Y6421932D01*
X6518960Y6418681D01*
X6511340Y6414008D01*
X6504736Y6407962D01*
X6499402Y6400850D01*
X6495389Y6392875D01*
X6492951Y6384290D01*
X6492138Y6375400D01*
X6492951Y6366510D01*
X6495389Y6357924D01*
X6499402Y6349949D01*
X6504736Y6342837D01*
X6511340Y6336792D01*
X6518960Y6332118D01*
X6527241Y6328867D01*
G37*
G36*
X6891629Y6327241D02*
G01*
X6900570Y6327241D01*
X6909358Y6328867D01*
X6917639Y6332118D01*
X6925259Y6336792D01*
X6931152Y6342176D01*
X6934352Y6344158D01*
X6938009Y6344869D01*
X6941667Y6344158D01*
X6944868Y6342176D01*
X6950760Y6336792D01*
X6958380Y6332118D01*
X6966661Y6328867D01*
X6975449Y6327241D01*
X6984390Y6327241D01*
X6993178Y6328867D01*
X7001459Y6332118D01*
X7009079Y6336792D01*
X7015683Y6342837D01*
X7021017Y6349949D01*
X7025030Y6357924D01*
X7027468Y6366510D01*
X7028281Y6375400D01*
X7027468Y6384290D01*
X7025030Y6392875D01*
X7021017Y6400850D01*
X7015683Y6407962D01*
X7009079Y6414008D01*
X7001459Y6418681D01*
X6993178Y6421932D01*
X6984390Y6423558D01*
X6975449Y6423558D01*
X6966661Y6421932D01*
X6958380Y6418681D01*
X6950760Y6414008D01*
X6944868Y6408623D01*
X6941667Y6406642D01*
X6938009Y6405930D01*
X6934352Y6406642D01*
X6931152Y6408623D01*
X6925259Y6414008D01*
X6917639Y6418681D01*
X6909358Y6421932D01*
X6900570Y6423558D01*
X6891629Y6423558D01*
X6882841Y6421932D01*
X6874560Y6418681D01*
X6866940Y6414008D01*
X6860336Y6407962D01*
X6855002Y6400850D01*
X6850989Y6392875D01*
X6848551Y6384290D01*
X6847738Y6375400D01*
X6848551Y6366510D01*
X6850989Y6357924D01*
X6855002Y6349949D01*
X6860336Y6342837D01*
X6866940Y6336792D01*
X6874560Y6332118D01*
X6882841Y6328867D01*
G37*
G36*
X5012029Y6339941D02*
G01*
X5020970Y6339941D01*
X5029758Y6341567D01*
X5038039Y6344818D01*
X5045659Y6349492D01*
X5052263Y6355537D01*
X5057597Y6362649D01*
X5061610Y6370624D01*
X5064048Y6379210D01*
X5064861Y6388100D01*
X5064048Y6396990D01*
X5061610Y6405575D01*
X5057597Y6413550D01*
X5052263Y6420662D01*
X5045659Y6426708D01*
X5038039Y6431381D01*
X5029758Y6434632D01*
X5020970Y6436258D01*
X5012029Y6436258D01*
X5003241Y6434632D01*
X4994960Y6431381D01*
X4987340Y6426708D01*
X4980736Y6420662D01*
X4975402Y6413550D01*
X4971389Y6405575D01*
X4968951Y6396990D01*
X4968138Y6388100D01*
X4968951Y6379210D01*
X4971389Y6370624D01*
X4975402Y6362649D01*
X4980736Y6355537D01*
X4987340Y6349492D01*
X4994960Y6344818D01*
X5003241Y6341567D01*
G37*
G36*
X2827629Y6339941D02*
G01*
X2836570Y6339941D01*
X2845358Y6341567D01*
X2853639Y6344818D01*
X2861259Y6349492D01*
X2867863Y6355537D01*
X2873197Y6362649D01*
X2877210Y6370624D01*
X2879648Y6379210D01*
X2880461Y6388100D01*
X2879648Y6396990D01*
X2877210Y6405575D01*
X2873197Y6413550D01*
X2867863Y6420662D01*
X2861259Y6426708D01*
X2853639Y6431381D01*
X2845358Y6434632D01*
X2836570Y6436258D01*
X2827629Y6436258D01*
X2818841Y6434632D01*
X2810560Y6431381D01*
X2802940Y6426708D01*
X2796336Y6420662D01*
X2791002Y6413550D01*
X2786989Y6405575D01*
X2784551Y6396990D01*
X2783738Y6388100D01*
X2784551Y6379210D01*
X2786989Y6370624D01*
X2791002Y6362649D01*
X2796336Y6355537D01*
X2802940Y6349492D01*
X2810560Y6344818D01*
X2818841Y6341567D01*
G37*
G36*
X5422900Y6375298D02*
G01*
X5432704Y6376162D01*
X5442153Y6378702D01*
X5451094Y6382867D01*
X5459120Y6388506D01*
X5466080Y6395415D01*
X5471718Y6403492D01*
X5475833Y6412382D01*
X5478373Y6421882D01*
X5479237Y6431635D01*
X5478932Y6435344D01*
X5479491Y6439712D01*
X5481878Y6443421D01*
X5485587Y6445758D01*
X5489956Y6446367D01*
X5493613Y6446012D01*
X5503418Y6446875D01*
X5512866Y6449415D01*
X5521807Y6453581D01*
X5529834Y6459220D01*
X5536793Y6466128D01*
X5542432Y6474206D01*
X5546547Y6483096D01*
X5549087Y6492595D01*
X5549950Y6502349D01*
X5549087Y6512153D01*
X5546547Y6521653D01*
X5542432Y6530543D01*
X5536793Y6538620D01*
X5529834Y6545529D01*
X5521807Y6551168D01*
X5512866Y6555333D01*
X5503418Y6557873D01*
X5493613Y6558737D01*
X5489956Y6558381D01*
X5485587Y6558991D01*
X5481878Y6561328D01*
X5479491Y6565036D01*
X5478932Y6569405D01*
X5479237Y6573062D01*
X5478373Y6582867D01*
X5475833Y6592366D01*
X5471718Y6601256D01*
X5466080Y6609334D01*
X5459120Y6616242D01*
X5451094Y6621881D01*
X5442153Y6626047D01*
X5432704Y6628587D01*
X5422900Y6629450D01*
X5413095Y6628587D01*
X5403646Y6626047D01*
X5394706Y6621881D01*
X5386679Y6616242D01*
X5379720Y6609334D01*
X5374081Y6601256D01*
X5369966Y6592366D01*
X5367426Y6582867D01*
X5366562Y6573062D01*
X5366867Y6569405D01*
X5366308Y6565036D01*
X5363921Y6561328D01*
X5360212Y6558991D01*
X5355844Y6558381D01*
X5352186Y6558737D01*
X5342382Y6557873D01*
X5332933Y6555333D01*
X5323992Y6551168D01*
X5315966Y6545529D01*
X5309006Y6538620D01*
X5303367Y6530543D01*
X5299252Y6521653D01*
X5296712Y6512153D01*
X5295849Y6502349D01*
X5296712Y6492595D01*
X5299252Y6483096D01*
X5303367Y6474206D01*
X5309006Y6466128D01*
X5315966Y6459220D01*
X5323992Y6453581D01*
X5332933Y6449415D01*
X5342382Y6446875D01*
X5352186Y6446012D01*
X5355844Y6446367D01*
X5360212Y6445758D01*
X5363921Y6443421D01*
X5366308Y6439712D01*
X5366867Y6435344D01*
X5366562Y6431635D01*
X5367426Y6421882D01*
X5369966Y6412382D01*
X5374081Y6403492D01*
X5379720Y6395415D01*
X5386679Y6388506D01*
X5394706Y6382867D01*
X5403646Y6378702D01*
X5413095Y6376162D01*
G37*
G36*
X7094829Y6390741D02*
G01*
X7103770Y6390741D01*
X7112558Y6392367D01*
X7120839Y6395618D01*
X7128459Y6400292D01*
X7135063Y6406337D01*
X7140397Y6413449D01*
X7144410Y6421424D01*
X7146848Y6430010D01*
X7147661Y6438900D01*
X7146848Y6447790D01*
X7144410Y6456375D01*
X7140397Y6464350D01*
X7135063Y6471462D01*
X7128459Y6477508D01*
X7120839Y6482181D01*
X7112558Y6485432D01*
X7109206Y6487566D01*
X7106920Y6490817D01*
X7106056Y6494729D01*
X7106818Y6498691D01*
X7109002Y6502044D01*
X7112304Y6504279D01*
X7125258Y6506667D01*
X7133539Y6509918D01*
X7141159Y6514592D01*
X7147763Y6520637D01*
X7153097Y6527749D01*
X7157110Y6535724D01*
X7159548Y6544309D01*
X7160361Y6553200D01*
X7159548Y6562090D01*
X7157770Y6568287D01*
X7157415Y6571945D01*
X7158380Y6575501D01*
X7160564Y6578447D01*
X7163663Y6580479D01*
X7176058Y6582867D01*
X7184339Y6586118D01*
X7191959Y6590792D01*
X7198563Y6596837D01*
X7203897Y6603949D01*
X7207910Y6611924D01*
X7210348Y6620509D01*
X7211161Y6629400D01*
X7210856Y6632498D01*
X7211415Y6636867D01*
X7213803Y6640626D01*
X7217511Y6642963D01*
X7221880Y6643573D01*
X7226096Y6642252D01*
X7234783Y6637223D01*
X7245350Y6633057D01*
X7256373Y6630568D01*
X7268057Y6629653D01*
X7288987Y6629653D01*
X7292340Y6629095D01*
X7295337Y6627469D01*
X7297623Y6624929D01*
X7303211Y6610502D01*
X7308900Y6600698D01*
X7315962Y6591808D01*
X7324293Y6584086D01*
X7333640Y6577736D01*
X7343851Y6572808D01*
X7354722Y6569456D01*
X7365898Y6567779D01*
X7377277Y6567779D01*
X7388453Y6569456D01*
X7399324Y6572808D01*
X7409535Y6577736D01*
X7413498Y6579362D01*
X7417765Y6579158D01*
X7421575Y6577279D01*
X7429042Y6571335D01*
X7437069Y6567017D01*
X7445756Y6564172D01*
X7454798Y6562953D01*
X7463891Y6563359D01*
X7472781Y6565392D01*
X7481214Y6568998D01*
X7488783Y6574028D01*
X7495387Y6580327D01*
X7500772Y6587693D01*
X7504684Y6595922D01*
X7507122Y6604711D01*
X7507935Y6613753D01*
X7507122Y6622846D01*
X7504684Y6631635D01*
X7500772Y6639864D01*
X7495387Y6647230D01*
X7488783Y6653530D01*
X7481214Y6658559D01*
X7472781Y6662166D01*
X7463891Y6664198D01*
X7457186Y6664502D01*
X7453426Y6665366D01*
X7450328Y6667601D01*
X7448245Y6670852D01*
X7447483Y6674662D01*
X7447483Y6713067D01*
X7446619Y6724751D01*
X7444079Y6735775D01*
X7439964Y6746341D01*
X7434275Y6756196D01*
X7427214Y6765036D01*
X7418882Y6772757D01*
X7409535Y6779158D01*
X7399324Y6784086D01*
X7388453Y6787388D01*
X7377277Y6789115D01*
X7365898Y6789115D01*
X7354722Y6787388D01*
X7343851Y6784086D01*
X7338466Y6781749D01*
X7336180Y6781495D01*
X7268057Y6781495D01*
X7256373Y6780631D01*
X7245350Y6778091D01*
X7234783Y6773976D01*
X7224928Y6768287D01*
X7216089Y6761225D01*
X7208367Y6752894D01*
X7201966Y6743547D01*
X7197039Y6733286D01*
X7193737Y6722465D01*
X7192009Y6711238D01*
X7192009Y6699910D01*
X7193737Y6688683D01*
X7194397Y6686448D01*
X7194753Y6681927D01*
X7193127Y6677761D01*
X7189825Y6674662D01*
X7185507Y6673342D01*
X7181037Y6674002D01*
X7176058Y6675932D01*
X7167270Y6677558D01*
X7158329Y6677558D01*
X7149541Y6675932D01*
X7141260Y6672681D01*
X7133640Y6668008D01*
X7127036Y6661962D01*
X7121702Y6654850D01*
X7117689Y6646875D01*
X7115251Y6638290D01*
X7114438Y6629400D01*
X7115251Y6620509D01*
X7117029Y6614312D01*
X7117384Y6610654D01*
X7116419Y6607098D01*
X7114235Y6604152D01*
X7111136Y6602120D01*
X7098741Y6599732D01*
X7090460Y6596481D01*
X7082840Y6591808D01*
X7076236Y6585762D01*
X7070902Y6578650D01*
X7066889Y6570675D01*
X7064451Y6562090D01*
X7063638Y6553200D01*
X7064451Y6544309D01*
X7066889Y6535724D01*
X7070902Y6527749D01*
X7076236Y6520637D01*
X7082840Y6514592D01*
X7090460Y6509918D01*
X7098741Y6506667D01*
X7102094Y6504533D01*
X7104380Y6501282D01*
X7105243Y6497370D01*
X7104481Y6493408D01*
X7102297Y6490055D01*
X7098995Y6487820D01*
X7086041Y6485432D01*
X7077760Y6482181D01*
X7070140Y6477508D01*
X7063536Y6471462D01*
X7058202Y6464350D01*
X7054189Y6456375D01*
X7051751Y6447790D01*
X7050938Y6438900D01*
X7051751Y6430010D01*
X7054189Y6421424D01*
X7058202Y6413449D01*
X7063536Y6406337D01*
X7070140Y6400292D01*
X7077760Y6395618D01*
X7086041Y6392367D01*
G37*
G36*
X4643729Y6403441D02*
G01*
X4652670Y6403441D01*
X4661458Y6405067D01*
X4669739Y6408318D01*
X4677359Y6412992D01*
X4683963Y6419037D01*
X4689297Y6426149D01*
X4693310Y6434124D01*
X4695748Y6442710D01*
X4696561Y6451600D01*
X4695748Y6460490D01*
X4693310Y6469075D01*
X4689297Y6477050D01*
X4683963Y6484162D01*
X4677359Y6490208D01*
X4669739Y6494881D01*
X4661458Y6498132D01*
X4652670Y6499758D01*
X4643729Y6499758D01*
X4634941Y6498132D01*
X4626660Y6494881D01*
X4619040Y6490208D01*
X4612436Y6484162D01*
X4607102Y6477050D01*
X4603089Y6469075D01*
X4600651Y6460490D01*
X4599838Y6451600D01*
X4600651Y6442710D01*
X4603089Y6434124D01*
X4607102Y6426149D01*
X4612436Y6419037D01*
X4619040Y6412992D01*
X4626660Y6408318D01*
X4634941Y6405067D01*
G37*
G36*
X4245559Y6403441D02*
G01*
X4254500Y6403441D01*
X4263288Y6405067D01*
X4271568Y6408318D01*
X4279188Y6412992D01*
X4285792Y6419037D01*
X4291126Y6426149D01*
X4295140Y6434124D01*
X4297578Y6442710D01*
X4298391Y6451600D01*
X4297578Y6460490D01*
X4295140Y6469075D01*
X4291126Y6477050D01*
X4285792Y6484162D01*
X4279188Y6490208D01*
X4271568Y6494881D01*
X4263288Y6498132D01*
X4254500Y6499758D01*
X4245559Y6499758D01*
X4236770Y6498132D01*
X4228490Y6494881D01*
X4220870Y6490208D01*
X4214266Y6484162D01*
X4208932Y6477050D01*
X4204919Y6469075D01*
X4202480Y6460490D01*
X4201668Y6451600D01*
X4202480Y6442710D01*
X4204919Y6434124D01*
X4208932Y6426149D01*
X4214266Y6419037D01*
X4220870Y6412992D01*
X4228490Y6408318D01*
X4236770Y6405067D01*
G37*
G36*
X7513929Y6416141D02*
G01*
X7522870Y6416141D01*
X7531658Y6417767D01*
X7539939Y6421018D01*
X7547559Y6425692D01*
X7554163Y6431737D01*
X7559497Y6438849D01*
X7563510Y6446824D01*
X7565948Y6455410D01*
X7566761Y6464300D01*
X7565948Y6473190D01*
X7563510Y6481775D01*
X7559497Y6489750D01*
X7554163Y6496862D01*
X7547559Y6502907D01*
X7539939Y6507581D01*
X7531658Y6510832D01*
X7522870Y6512458D01*
X7513929Y6512458D01*
X7505141Y6510832D01*
X7496860Y6507581D01*
X7489240Y6502907D01*
X7482636Y6496862D01*
X7477302Y6489750D01*
X7473289Y6481775D01*
X7470851Y6473190D01*
X7470038Y6464300D01*
X7470851Y6455410D01*
X7473289Y6446824D01*
X7477302Y6438849D01*
X7482636Y6431737D01*
X7489240Y6425692D01*
X7496860Y6421018D01*
X7505141Y6417767D01*
G37*
G36*
X3496919Y6458051D02*
G01*
X3505860Y6458051D01*
X3514648Y6459677D01*
X3522929Y6462928D01*
X3530549Y6467602D01*
X3537153Y6473647D01*
X3542487Y6480759D01*
X3546500Y6488734D01*
X3548938Y6497320D01*
X3549751Y6506209D01*
X3548938Y6515100D01*
X3546500Y6523685D01*
X3542487Y6531660D01*
X3537153Y6538772D01*
X3530549Y6544818D01*
X3522929Y6549491D01*
X3514648Y6552742D01*
X3505860Y6554368D01*
X3496919Y6554368D01*
X3488131Y6552742D01*
X3479850Y6549491D01*
X3472230Y6544818D01*
X3465626Y6538772D01*
X3460292Y6531660D01*
X3456279Y6523685D01*
X3453841Y6515100D01*
X3453028Y6506209D01*
X3453841Y6497320D01*
X3456279Y6488734D01*
X3460292Y6480759D01*
X3465626Y6473647D01*
X3472230Y6467602D01*
X3479850Y6462928D01*
X3488131Y6459677D01*
G37*
G36*
X3919829Y6492341D02*
G01*
X3928770Y6492341D01*
X3937558Y6493967D01*
X3945839Y6497218D01*
X3953459Y6501892D01*
X3960063Y6507937D01*
X3965397Y6515049D01*
X3969410Y6523024D01*
X3971848Y6531609D01*
X3972661Y6540500D01*
X3971848Y6549390D01*
X3969410Y6557975D01*
X3965397Y6565950D01*
X3960063Y6573062D01*
X3953459Y6579108D01*
X3945839Y6583781D01*
X3937558Y6587032D01*
X3928770Y6588658D01*
X3919829Y6588658D01*
X3911041Y6587032D01*
X3902760Y6583781D01*
X3895140Y6579108D01*
X3888536Y6573062D01*
X3883202Y6565950D01*
X3879189Y6557975D01*
X3876751Y6549390D01*
X3875938Y6540500D01*
X3876751Y6531609D01*
X3879189Y6523024D01*
X3883202Y6515049D01*
X3888536Y6507937D01*
X3895140Y6501892D01*
X3902760Y6497218D01*
X3911041Y6493967D01*
G37*
G36*
X2569108Y6498488D02*
G01*
X2582926Y6499402D01*
X2596489Y6502095D01*
X2609596Y6506565D01*
X2622042Y6512661D01*
X2633573Y6520383D01*
X2643987Y6529527D01*
X2653080Y6539941D01*
X2660802Y6551422D01*
X2666898Y6563868D01*
X2671368Y6576974D01*
X2674061Y6590538D01*
X2674975Y6604355D01*
X2674061Y6618224D01*
X2671368Y6631787D01*
X2666898Y6644894D01*
X2660802Y6657340D01*
X2653080Y6668820D01*
X2643987Y6679234D01*
X2633573Y6688378D01*
X2622042Y6696100D01*
X2609596Y6702196D01*
X2596489Y6706666D01*
X2582926Y6709359D01*
X2569108Y6710273D01*
X2555290Y6709359D01*
X2541676Y6706666D01*
X2528570Y6702196D01*
X2516174Y6696100D01*
X2504643Y6688378D01*
X2494229Y6679234D01*
X2485085Y6668820D01*
X2477414Y6657340D01*
X2471267Y6644894D01*
X2466797Y6631787D01*
X2464104Y6618224D01*
X2463190Y6604355D01*
X2464104Y6590538D01*
X2466797Y6576974D01*
X2471267Y6563868D01*
X2477414Y6551422D01*
X2485085Y6539941D01*
X2494229Y6529527D01*
X2504643Y6520383D01*
X2516174Y6512661D01*
X2528570Y6506565D01*
X2541676Y6502095D01*
X2555290Y6499402D01*
G37*
G36*
X4897729Y6517741D02*
G01*
X4906670Y6517741D01*
X4915458Y6519367D01*
X4923739Y6522618D01*
X4931359Y6527292D01*
X4937963Y6533337D01*
X4943297Y6540449D01*
X4947310Y6548424D01*
X4949748Y6557009D01*
X4950561Y6565900D01*
X4949748Y6574790D01*
X4947310Y6583375D01*
X4943297Y6591350D01*
X4937963Y6598462D01*
X4931359Y6604508D01*
X4923739Y6609181D01*
X4915458Y6612432D01*
X4906670Y6614058D01*
X4897729Y6614058D01*
X4888941Y6612432D01*
X4880660Y6609181D01*
X4873040Y6604508D01*
X4866436Y6598462D01*
X4861102Y6591350D01*
X4857089Y6583375D01*
X4854651Y6574790D01*
X4853838Y6565900D01*
X4854651Y6557009D01*
X4857089Y6548424D01*
X4861102Y6540449D01*
X4866436Y6533337D01*
X4873040Y6527292D01*
X4880660Y6522618D01*
X4888941Y6519367D01*
G37*
G36*
X5947054Y6560616D02*
G01*
X5955944Y6560616D01*
X5964732Y6562293D01*
X5973064Y6565493D01*
X5980633Y6570218D01*
X5987237Y6576212D01*
X5992622Y6583324D01*
X5996584Y6591350D01*
X5999022Y6599936D01*
X5999886Y6608775D01*
X5999022Y6617665D01*
X5996584Y6626250D01*
X5992622Y6634276D01*
X5987237Y6641388D01*
X5980633Y6647383D01*
X5973064Y6652107D01*
X5964732Y6655308D01*
X5955944Y6656933D01*
X5947054Y6656933D01*
X5938266Y6655308D01*
X5929934Y6652107D01*
X5922365Y6647383D01*
X5915761Y6641388D01*
X5910376Y6634276D01*
X5906414Y6626250D01*
X5903976Y6617665D01*
X5903163Y6608775D01*
X5903976Y6599936D01*
X5906414Y6591350D01*
X5910376Y6583324D01*
X5915761Y6576212D01*
X5922365Y6570218D01*
X5929934Y6565493D01*
X5938266Y6562293D01*
G37*
G36*
X2827629Y6619341D02*
G01*
X2836570Y6619341D01*
X2845358Y6620967D01*
X2853639Y6624218D01*
X2861259Y6628892D01*
X2867863Y6634937D01*
X2873197Y6642049D01*
X2877210Y6650024D01*
X2879648Y6658609D01*
X2880461Y6667500D01*
X2879648Y6676390D01*
X2877210Y6684975D01*
X2873197Y6692950D01*
X2867863Y6700062D01*
X2861259Y6706108D01*
X2853639Y6710781D01*
X2845358Y6714032D01*
X2836570Y6715658D01*
X2827629Y6715658D01*
X2818841Y6714032D01*
X2810560Y6710781D01*
X2802940Y6706108D01*
X2796336Y6700062D01*
X2791002Y6692950D01*
X2786989Y6684975D01*
X2784551Y6676390D01*
X2783738Y6667500D01*
X2784551Y6658609D01*
X2786989Y6650024D01*
X2791002Y6642049D01*
X2796336Y6634937D01*
X2802940Y6628892D01*
X2810560Y6624218D01*
X2818841Y6620967D01*
G37*
G36*
X2235657Y6625488D02*
G01*
X2394508Y6625488D01*
X2400858Y6626199D01*
X2406294Y6628079D01*
X2411222Y6631178D01*
X2415286Y6635292D01*
X2418384Y6640169D01*
X2420315Y6645656D01*
X2421026Y6651955D01*
X2421026Y6810806D01*
X2420315Y6817156D01*
X2418384Y6822592D01*
X2415286Y6827520D01*
X2411222Y6831584D01*
X2406294Y6834682D01*
X2400858Y6836562D01*
X2394508Y6837273D01*
X2235657Y6837273D01*
X2229358Y6836562D01*
X2223871Y6834682D01*
X2218994Y6831584D01*
X2214880Y6827520D01*
X2211832Y6822592D01*
X2209901Y6817156D01*
X2209190Y6810806D01*
X2209190Y6651955D01*
X2209901Y6645656D01*
X2211832Y6640169D01*
X2214880Y6635292D01*
X2218994Y6631178D01*
X2223871Y6628079D01*
X2229358Y6626199D01*
G37*
G36*
X3366820Y6632041D02*
G01*
X3375761Y6632041D01*
X3384550Y6633667D01*
X3392830Y6636918D01*
X3400450Y6641592D01*
X3407054Y6647637D01*
X3412388Y6654749D01*
X3416401Y6662724D01*
X3418840Y6671309D01*
X3419652Y6680200D01*
X3418840Y6689090D01*
X3416401Y6697675D01*
X3412388Y6705650D01*
X3407054Y6712762D01*
X3400450Y6718808D01*
X3392830Y6723481D01*
X3384550Y6726732D01*
X3375761Y6728358D01*
X3366820Y6728358D01*
X3358032Y6726732D01*
X3349751Y6723481D01*
X3342132Y6718808D01*
X3335528Y6712762D01*
X3330194Y6705650D01*
X3326180Y6697675D01*
X3323742Y6689090D01*
X3322929Y6680200D01*
X3323742Y6671309D01*
X3326180Y6662724D01*
X3330194Y6654749D01*
X3335528Y6647637D01*
X3342132Y6641592D01*
X3349751Y6636918D01*
X3358032Y6633667D01*
G37*
G36*
X5812129Y6632041D02*
G01*
X5821070Y6632041D01*
X5829858Y6633667D01*
X5838139Y6636918D01*
X5845759Y6641592D01*
X5852363Y6647637D01*
X5857697Y6654749D01*
X5861710Y6662724D01*
X5864148Y6671309D01*
X5864961Y6680200D01*
X5864148Y6689090D01*
X5861710Y6697675D01*
X5857697Y6705650D01*
X5852363Y6712762D01*
X5845759Y6718808D01*
X5838139Y6723481D01*
X5829858Y6726732D01*
X5821070Y6728358D01*
X5812129Y6728358D01*
X5803341Y6726732D01*
X5795060Y6723481D01*
X5787440Y6718808D01*
X5780836Y6712762D01*
X5775502Y6705650D01*
X5771489Y6697675D01*
X5769051Y6689090D01*
X5768238Y6680200D01*
X5769051Y6671309D01*
X5771489Y6662724D01*
X5775502Y6654749D01*
X5780836Y6647637D01*
X5787440Y6641592D01*
X5795060Y6636918D01*
X5803341Y6633667D01*
G37*
G36*
X6510629Y6657441D02*
G01*
X6519570Y6657441D01*
X6528358Y6659067D01*
X6536639Y6662318D01*
X6544259Y6666992D01*
X6550863Y6673037D01*
X6556197Y6680149D01*
X6560210Y6688124D01*
X6562648Y6696709D01*
X6563461Y6705600D01*
X6562648Y6714490D01*
X6560210Y6723075D01*
X6556197Y6731050D01*
X6550863Y6738162D01*
X6544259Y6744208D01*
X6536639Y6748881D01*
X6528358Y6752132D01*
X6519570Y6753758D01*
X6510629Y6753758D01*
X6501841Y6752132D01*
X6493560Y6748881D01*
X6485940Y6744208D01*
X6479336Y6738162D01*
X6474002Y6731050D01*
X6469989Y6723075D01*
X6467551Y6714490D01*
X6466738Y6705600D01*
X6467551Y6696709D01*
X6469989Y6688124D01*
X6474002Y6680149D01*
X6479336Y6673037D01*
X6485940Y6666992D01*
X6493560Y6662318D01*
X6501841Y6659067D01*
G37*
G36*
X6637629Y6708241D02*
G01*
X6646570Y6708241D01*
X6655358Y6709867D01*
X6663639Y6713118D01*
X6671259Y6717792D01*
X6677863Y6723837D01*
X6683197Y6730949D01*
X6687210Y6738924D01*
X6689648Y6747509D01*
X6690461Y6756400D01*
X6689648Y6765290D01*
X6687210Y6773875D01*
X6683197Y6781850D01*
X6677863Y6788962D01*
X6671259Y6795008D01*
X6663639Y6799681D01*
X6655358Y6802932D01*
X6646570Y6804558D01*
X6637629Y6804558D01*
X6628841Y6802932D01*
X6620560Y6799681D01*
X6612940Y6795008D01*
X6606336Y6788962D01*
X6601002Y6781850D01*
X6596989Y6773875D01*
X6594551Y6765290D01*
X6593738Y6756400D01*
X6594551Y6747509D01*
X6596989Y6738924D01*
X6601002Y6730949D01*
X6606336Y6723837D01*
X6612940Y6717792D01*
X6620560Y6713118D01*
X6628841Y6709867D01*
G37*
G36*
X2891129Y6720941D02*
G01*
X2900070Y6720941D01*
X2908858Y6722567D01*
X2917139Y6725818D01*
X2924759Y6730492D01*
X2931363Y6736537D01*
X2936697Y6743649D01*
X2940710Y6751624D01*
X2943148Y6760209D01*
X2943961Y6769100D01*
X2943148Y6777990D01*
X2940710Y6786575D01*
X2936697Y6794550D01*
X2931363Y6801662D01*
X2924759Y6807708D01*
X2917139Y6812381D01*
X2908858Y6815632D01*
X2900070Y6817258D01*
X2891129Y6817258D01*
X2882341Y6815632D01*
X2874060Y6812381D01*
X2866440Y6807708D01*
X2859836Y6801662D01*
X2854502Y6794550D01*
X2850489Y6786575D01*
X2848051Y6777990D01*
X2847238Y6769100D01*
X2848051Y6760209D01*
X2850489Y6751624D01*
X2854502Y6743649D01*
X2859836Y6736537D01*
X2866440Y6730492D01*
X2874060Y6725818D01*
X2882341Y6722567D01*
G37*
G36*
X5189829Y6746341D02*
G01*
X5198770Y6746341D01*
X5207558Y6747967D01*
X5215839Y6751218D01*
X5223459Y6755892D01*
X5230063Y6761937D01*
X5235397Y6769049D01*
X5239410Y6777024D01*
X5241848Y6785609D01*
X5242661Y6794500D01*
X5241848Y6803390D01*
X5239410Y6811975D01*
X5235397Y6819950D01*
X5230063Y6827062D01*
X5223459Y6833108D01*
X5215839Y6837781D01*
X5207558Y6841032D01*
X5204206Y6843166D01*
X5201920Y6846417D01*
X5201056Y6850329D01*
X5201818Y6854291D01*
X5204002Y6857644D01*
X5207304Y6859879D01*
X5220258Y6862267D01*
X5228539Y6865518D01*
X5236159Y6870192D01*
X5242763Y6876237D01*
X5248097Y6883349D01*
X5252110Y6891324D01*
X5254548Y6899909D01*
X5255361Y6908800D01*
X5254548Y6917690D01*
X5252110Y6926275D01*
X5248097Y6934250D01*
X5242763Y6941362D01*
X5236159Y6947408D01*
X5228539Y6952081D01*
X5220258Y6955332D01*
X5211470Y6956958D01*
X5202529Y6956958D01*
X5193741Y6955332D01*
X5185460Y6952081D01*
X5177840Y6947408D01*
X5171236Y6941362D01*
X5165902Y6934250D01*
X5161889Y6926275D01*
X5159451Y6917690D01*
X5158638Y6908800D01*
X5159044Y6904532D01*
X5158536Y6900367D01*
X5156403Y6896760D01*
X5152999Y6894322D01*
X5148884Y6893458D01*
X5139029Y6893458D01*
X5130241Y6891832D01*
X5121960Y6888581D01*
X5114340Y6883908D01*
X5107736Y6877862D01*
X5102402Y6870750D01*
X5098389Y6862775D01*
X5095951Y6854190D01*
X5095138Y6845300D01*
X5095951Y6836409D01*
X5098389Y6827824D01*
X5102402Y6819849D01*
X5107736Y6812737D01*
X5114340Y6806692D01*
X5121960Y6802018D01*
X5130241Y6798767D01*
X5138267Y6797294D01*
X5142280Y6795566D01*
X5145176Y6792366D01*
X5146497Y6788251D01*
X5146751Y6785609D01*
X5149189Y6777024D01*
X5153202Y6769049D01*
X5158536Y6761937D01*
X5165140Y6755892D01*
X5172760Y6751218D01*
X5181041Y6747967D01*
G37*
G36*
X3602329Y6835241D02*
G01*
X3611270Y6835241D01*
X3620058Y6836867D01*
X3628339Y6840118D01*
X3635959Y6844792D01*
X3642563Y6850837D01*
X3647897Y6857949D01*
X3651910Y6865924D01*
X3654348Y6874509D01*
X3655161Y6883400D01*
X3654348Y6892290D01*
X3651910Y6900875D01*
X3647897Y6908850D01*
X3642563Y6915962D01*
X3635959Y6922008D01*
X3628339Y6926681D01*
X3620058Y6929932D01*
X3611270Y6931558D01*
X3602329Y6931558D01*
X3593541Y6929932D01*
X3585260Y6926681D01*
X3577640Y6922008D01*
X3571036Y6915962D01*
X3565702Y6908850D01*
X3561689Y6900875D01*
X3559251Y6892290D01*
X3558438Y6883400D01*
X3559251Y6874509D01*
X3561689Y6865924D01*
X3565702Y6857949D01*
X3571036Y6850837D01*
X3577640Y6844792D01*
X3585260Y6840118D01*
X3593541Y6836867D01*
G37*
G36*
X7769352Y6888886D02*
G01*
X7781544Y6889343D01*
X7793532Y6891528D01*
X7805064Y6895490D01*
X7815884Y6901027D01*
X7825790Y6908139D01*
X7834579Y6916572D01*
X7842046Y6926224D01*
X7847990Y6936841D01*
X7852359Y6948271D01*
X7855000Y6960158D01*
X7855864Y6972300D01*
X7855000Y6984441D01*
X7852359Y6996328D01*
X7847990Y7007758D01*
X7842046Y7018375D01*
X7834579Y7028027D01*
X7825790Y7036460D01*
X7815884Y7043572D01*
X7805064Y7049109D01*
X7793532Y7053072D01*
X7781544Y7055256D01*
X7769352Y7055713D01*
X7757261Y7054392D01*
X7745425Y7051294D01*
X7734249Y7046518D01*
X7723835Y7040168D01*
X7714437Y7032396D01*
X7706309Y7023303D01*
X7699603Y7013143D01*
X7694422Y7002119D01*
X7690916Y6990435D01*
X7689138Y6978396D01*
X7689138Y6966203D01*
X7690916Y6954164D01*
X7694422Y6942480D01*
X7699603Y6931456D01*
X7706309Y6921296D01*
X7714437Y6912203D01*
X7723835Y6904431D01*
X7734249Y6898081D01*
X7745425Y6893306D01*
X7757261Y6890207D01*
G37*
G36*
X5545429Y7013041D02*
G01*
X5554370Y7013041D01*
X5563158Y7014667D01*
X5571439Y7017918D01*
X5579059Y7022592D01*
X5585663Y7028637D01*
X5590997Y7035749D01*
X5595010Y7043724D01*
X5597448Y7052309D01*
X5598261Y7061200D01*
X5597448Y7070090D01*
X5595010Y7078675D01*
X5590997Y7086650D01*
X5585663Y7093762D01*
X5579059Y7099808D01*
X5571439Y7104481D01*
X5563158Y7107732D01*
X5554370Y7109358D01*
X5545429Y7109358D01*
X5536641Y7107732D01*
X5528360Y7104481D01*
X5520740Y7099808D01*
X5514136Y7093762D01*
X5508802Y7086650D01*
X5504789Y7078675D01*
X5502351Y7070090D01*
X5501538Y7061200D01*
X5502351Y7052309D01*
X5504789Y7043724D01*
X5508802Y7035749D01*
X5514136Y7028637D01*
X5520740Y7022592D01*
X5528360Y7017918D01*
X5536641Y7014667D01*
G37*
G36*
X4483811Y7057694D02*
G01*
X4492752Y7057694D01*
X4501540Y7059320D01*
X4509820Y7062520D01*
X4517440Y7067245D01*
X4524044Y7073239D01*
X4529378Y7080351D01*
X4533392Y7088378D01*
X4535830Y7096963D01*
X4536643Y7105802D01*
X4535830Y7114692D01*
X4533392Y7123277D01*
X4529378Y7131303D01*
X4524044Y7138416D01*
X4517440Y7144410D01*
X4509820Y7149134D01*
X4501540Y7152335D01*
X4492752Y7153960D01*
X4483811Y7153960D01*
X4475022Y7152335D01*
X4466336Y7148982D01*
X4461916Y7148322D01*
X4457649Y7149642D01*
X4454347Y7152640D01*
X4452670Y7156754D01*
X4452924Y7161225D01*
X4454448Y7166609D01*
X4455261Y7175500D01*
X4454448Y7184390D01*
X4452010Y7192975D01*
X4447997Y7200950D01*
X4442663Y7208062D01*
X4436059Y7214108D01*
X4428439Y7218781D01*
X4420158Y7222032D01*
X4411370Y7223658D01*
X4402429Y7223658D01*
X4393641Y7222032D01*
X4385360Y7218781D01*
X4377740Y7214108D01*
X4371136Y7208062D01*
X4365802Y7200950D01*
X4361789Y7192975D01*
X4359351Y7184390D01*
X4358538Y7175500D01*
X4359351Y7166609D01*
X4361789Y7158024D01*
X4365802Y7150049D01*
X4371136Y7142937D01*
X4377740Y7136892D01*
X4385360Y7132218D01*
X4393641Y7128967D01*
X4402429Y7127341D01*
X4411370Y7127341D01*
X4420158Y7128967D01*
X4428845Y7132370D01*
X4433265Y7133031D01*
X4437532Y7131710D01*
X4440834Y7128713D01*
X4442510Y7124547D01*
X4442256Y7120077D01*
X4440732Y7114692D01*
X4439920Y7105802D01*
X4440732Y7096963D01*
X4443171Y7088378D01*
X4447184Y7080351D01*
X4452518Y7073239D01*
X4459122Y7067245D01*
X4466742Y7062520D01*
X4475022Y7059320D01*
G37*
G36*
X3056229Y7063841D02*
G01*
X3065170Y7063841D01*
X3073958Y7065467D01*
X3082239Y7068718D01*
X3089859Y7073392D01*
X3096463Y7079437D01*
X3101797Y7086549D01*
X3105810Y7094524D01*
X3108248Y7103109D01*
X3109061Y7112000D01*
X3108248Y7120890D01*
X3105810Y7129475D01*
X3101797Y7137450D01*
X3096463Y7144562D01*
X3089859Y7150608D01*
X3082239Y7155281D01*
X3073958Y7158532D01*
X3065170Y7160158D01*
X3056229Y7160158D01*
X3047441Y7158532D01*
X3039160Y7155281D01*
X3031540Y7150608D01*
X3024936Y7144562D01*
X3019602Y7137450D01*
X3015589Y7129475D01*
X3013151Y7120890D01*
X3012338Y7112000D01*
X3013151Y7103109D01*
X3015589Y7094524D01*
X3019602Y7086549D01*
X3024936Y7079437D01*
X3031540Y7073392D01*
X3039160Y7068718D01*
X3047441Y7065467D01*
G37*
G36*
X3462629Y7114641D02*
G01*
X3471570Y7114641D01*
X3480358Y7116267D01*
X3488639Y7119518D01*
X3496259Y7124192D01*
X3502863Y7130237D01*
X3508197Y7137349D01*
X3512210Y7145324D01*
X3514648Y7153909D01*
X3515461Y7162800D01*
X3514648Y7171690D01*
X3512210Y7180275D01*
X3508197Y7188250D01*
X3502863Y7195362D01*
X3496259Y7201408D01*
X3488639Y7206081D01*
X3480358Y7209332D01*
X3471570Y7210958D01*
X3462629Y7210958D01*
X3453841Y7209332D01*
X3445560Y7206081D01*
X3437940Y7201408D01*
X3431336Y7195362D01*
X3426002Y7188250D01*
X3421989Y7180275D01*
X3419551Y7171690D01*
X3418738Y7162800D01*
X3419551Y7153909D01*
X3421989Y7145324D01*
X3426002Y7137349D01*
X3431336Y7130237D01*
X3437940Y7124192D01*
X3445560Y7119518D01*
X3453841Y7116267D01*
G37*
G36*
X7747000Y7138924D02*
G01*
X7763916Y7139838D01*
X7780578Y7142683D01*
X7796834Y7147356D01*
X7812481Y7153859D01*
X7827264Y7162038D01*
X7841081Y7171842D01*
X7853680Y7183120D01*
X7864957Y7195718D01*
X7874762Y7209536D01*
X7882940Y7224318D01*
X7889443Y7239965D01*
X7894116Y7256221D01*
X7896961Y7272883D01*
X7897875Y7289800D01*
X7896961Y7306716D01*
X7894116Y7323378D01*
X7889443Y7339634D01*
X7882940Y7355281D01*
X7874762Y7370064D01*
X7864957Y7383881D01*
X7853680Y7396480D01*
X7841081Y7407757D01*
X7827264Y7417562D01*
X7812481Y7425740D01*
X7796834Y7432243D01*
X7780578Y7436916D01*
X7763916Y7439761D01*
X7747000Y7440675D01*
X7730083Y7439761D01*
X7713421Y7436916D01*
X7697165Y7432243D01*
X7681518Y7425740D01*
X7666736Y7417562D01*
X7652918Y7407757D01*
X7640320Y7396480D01*
X7629042Y7383881D01*
X7619238Y7370064D01*
X7611059Y7355281D01*
X7604556Y7339634D01*
X7599883Y7323378D01*
X7597038Y7306716D01*
X7596124Y7289800D01*
X7597038Y7272883D01*
X7599883Y7256221D01*
X7604556Y7239965D01*
X7611059Y7224318D01*
X7619238Y7209536D01*
X7629042Y7195718D01*
X7640320Y7183120D01*
X7652918Y7171842D01*
X7666736Y7162038D01*
X7681518Y7153859D01*
X7697165Y7147356D01*
X7713421Y7142683D01*
X7730083Y7139838D01*
G37*
G36*
X3056229Y7216241D02*
G01*
X3065170Y7216241D01*
X3073958Y7217867D01*
X3082239Y7221118D01*
X3089859Y7225792D01*
X3096463Y7231837D01*
X3101797Y7238949D01*
X3105810Y7246924D01*
X3108248Y7255509D01*
X3109061Y7264400D01*
X3108248Y7273290D01*
X3105810Y7281875D01*
X3101797Y7289850D01*
X3096463Y7296962D01*
X3089859Y7303008D01*
X3082239Y7307681D01*
X3073958Y7310932D01*
X3065170Y7312558D01*
X3056229Y7312558D01*
X3047441Y7310932D01*
X3039160Y7307681D01*
X3031540Y7303008D01*
X3024936Y7296962D01*
X3019602Y7289850D01*
X3015589Y7281875D01*
X3013151Y7273290D01*
X3012338Y7264400D01*
X3013151Y7255509D01*
X3015589Y7246924D01*
X3019602Y7238949D01*
X3024936Y7231837D01*
X3031540Y7225792D01*
X3039160Y7221118D01*
X3047441Y7217867D01*
G37*
G36*
X6840829Y7292441D02*
G01*
X6849770Y7292441D01*
X6858558Y7294067D01*
X6866839Y7297318D01*
X6874459Y7301992D01*
X6881063Y7308037D01*
X6886397Y7315149D01*
X6890410Y7323124D01*
X6892848Y7331709D01*
X6893661Y7340600D01*
X6892848Y7349490D01*
X6890410Y7358075D01*
X6886397Y7366050D01*
X6881063Y7373162D01*
X6874459Y7379208D01*
X6866839Y7383881D01*
X6858558Y7387132D01*
X6849770Y7388758D01*
X6840829Y7388758D01*
X6832041Y7387132D01*
X6823760Y7383881D01*
X6816140Y7379208D01*
X6809536Y7373162D01*
X6804202Y7366050D01*
X6800189Y7358075D01*
X6797751Y7349490D01*
X6796938Y7340600D01*
X6797751Y7331709D01*
X6800189Y7323124D01*
X6804202Y7315149D01*
X6809536Y7308037D01*
X6816140Y7301992D01*
X6823760Y7297318D01*
X6832041Y7294067D01*
G37*
G36*
X3615029Y7305141D02*
G01*
X3623970Y7305141D01*
X3632758Y7306767D01*
X3641039Y7310018D01*
X3648659Y7314692D01*
X3655263Y7320737D01*
X3660597Y7327849D01*
X3664610Y7335824D01*
X3667048Y7344409D01*
X3667861Y7353300D01*
X3667048Y7362190D01*
X3664610Y7370775D01*
X3660597Y7378750D01*
X3655263Y7385862D01*
X3648659Y7391908D01*
X3641039Y7396581D01*
X3632758Y7399832D01*
X3623970Y7401458D01*
X3615029Y7401458D01*
X3606241Y7399832D01*
X3597960Y7396581D01*
X3590340Y7391908D01*
X3583736Y7385862D01*
X3578402Y7378750D01*
X3574389Y7370775D01*
X3571951Y7362190D01*
X3571138Y7353300D01*
X3571951Y7344409D01*
X3574389Y7335824D01*
X3578402Y7327849D01*
X3583736Y7320737D01*
X3590340Y7314692D01*
X3597960Y7310018D01*
X3606241Y7306767D01*
G37*

%LPD*%
D10*
X4162475Y6248981D02*
G01*
X4162475Y6245275D01*
X4089400Y6172200D01*
X2717800Y6172200D01*
X2667000Y6223000D01*
X2501900Y6223000D01*
X2374900Y6350000D01*
X1079500Y6350000D01*
X4927600Y5956300D02*
G01*
X5092700Y5791200D01*
X6172200Y5791200D01*
X6197600Y5765800D01*
X4927600Y5956300D02*
G01*
X4635500Y6248400D01*
X4162552Y6248907D01*
D11*
G01*
X7777149Y6705803D03*
G01*
X7777149Y5841796D03*
D12*
G01*
X7315200Y6705600D03*
D13*
G01*
X7371588Y6678421D03*
D12*
G01*
X7315200Y5842000D03*
D13*
G01*
X7371588Y5865621D03*
D14*
G01*
X2315108Y6731380D03*
D15*
G01*
X2569083Y6604380D03*
G01*
X2315083Y6477380D03*
G01*
X2569083Y6350380D03*
G01*
X2315083Y6223380D03*
G01*
X2569083Y6096380D03*
G01*
X2315083Y5969380D03*
G01*
X2569083Y5842380D03*
D16*
G01*
X1190117Y6948881D03*
G01*
X1190117Y6694881D03*
G01*
X1190117Y5877864D03*
G01*
X1190117Y5623864D03*
D17*
G01*
X1985111Y7060869D03*
G01*
X1985111Y5511876D03*
D18*
G01*
X5422900Y6573088D03*
G01*
X5493613Y6502374D03*
G01*
X5352186Y6502374D03*
G01*
X5422900Y6431661D03*
D19*
G01*
X7239000Y5600700D03*
G01*
X7340600Y5600700D03*
G01*
X5537200Y6083300D03*
G01*
X5638800Y6088506D03*
G01*
X5549900Y7061200D03*
G01*
X3619500Y7353300D03*
G01*
X3467100Y7162800D03*
G01*
X3371291Y6680200D03*
G01*
X4250029Y6451600D03*
G01*
X4622800Y6337300D03*
G01*
X4648200Y6451600D03*
G01*
X4902200Y6565900D03*
G01*
X3317392Y5937199D03*
G01*
X3606800Y6883400D03*
G01*
X3501390Y6506210D03*
G01*
X4140200Y7442200D03*
G01*
X4406900Y7175500D03*
G01*
X5207000Y6908800D03*
G01*
X7213600Y5943600D03*
G01*
X7785100Y5422900D03*
G01*
X4162475Y6248984D03*
G01*
X3937000Y6248400D03*
G01*
X1079500Y6350000D03*
G01*
X4287443Y6050330D03*
G01*
X4025900Y6311900D03*
G01*
X3924300Y6540500D03*
G01*
X6946900Y5511800D03*
G01*
X5816600Y6680200D03*
G01*
X5143500Y6845300D03*
G01*
X5411266Y6925259D03*
G01*
X2413000Y5270500D03*
G01*
X6642100Y6756400D03*
G01*
X4965700Y6134100D03*
G01*
X3009900Y5651500D03*
G01*
X3683000Y5638800D03*
G01*
X6286500Y5803900D03*
G01*
X2832100Y5651500D03*
G01*
X5854700Y5676900D03*
G01*
X4521200Y5803900D03*
G01*
X4597400Y5842000D03*
G01*
X6134100Y6604000D03*
G01*
X4673600Y6007100D03*
G01*
X5056733Y5998108D03*
G01*
X5270500Y6121400D03*
G01*
X4488281Y7105827D03*
G01*
X4927600Y5956300D03*
G01*
X6197600Y5765800D03*
G01*
X5016500Y6388100D03*
G01*
X6070600Y5664200D03*
G01*
X4523130Y5499100D03*
G01*
X5803900Y5930900D03*
G01*
X5003800Y6718300D03*
G01*
X7162800Y6629400D03*
G01*
X7099300Y6438900D03*
G01*
X6629400Y6159500D03*
G01*
X6979920Y6375400D03*
G01*
X3467100Y7429500D03*
G01*
X3060700Y7264400D03*
G01*
X2895600Y6769100D03*
G01*
X2832100Y6667500D03*
G01*
X2832100Y6388100D03*
G01*
X3060700Y7112000D03*
G01*
X1778000Y7213600D03*
G01*
X1778000Y5283200D03*
G01*
X6286500Y6337300D03*
G01*
X6184900Y6337300D03*
G01*
X7493000Y6172200D03*
G01*
X7175500Y6223000D03*
G01*
X6896100Y6375400D03*
G01*
X7112000Y6553200D03*
G01*
X7137400Y6096000D03*
G01*
X7150100Y6032500D03*
G01*
X7518400Y6464300D03*
G01*
X5951499Y6608800D03*
G01*
X5892800Y6400800D03*
G01*
X5816600Y6337300D03*
G01*
X6540500Y6375400D03*
G01*
X6845300Y7340600D03*
G01*
X5194300Y6794500D03*
G01*
X6515100Y6705600D03*
M02*
