G04 Layer: TopLayer*
G04 EasyEDA v6.5.48, 2025-03-23 22:21:01*
G04 4241eb4d17d2401181ec35b2a8e82844,b9277fd2045942759ab1a28cc0c323af,10*
G04 Gerber Generator version 0.2*
G04 Scale: 100 percent, Rotated: No, Reflected: No *
G04 Dimensions in inches *
G04 leading zeros omitted , absolute positions ,3 integer and 6 decimal *
%FSLAX36Y36*%
%MOIN*%

%AMMACRO1*21,1,$1,$2,0,0,$3*%
%AMMACRO2*1,1,$1,$2,$3*1,1,$1,$4,$5*20,1,$1,$2,$3,$4,$5,0*%
%ADD10C,0.0098*%
%ADD11C,0.0100*%
%ADD12C,0.0138*%
%ADD13C,0.0049*%
%ADD14R,0.0394X0.0295*%
%ADD15R,0.0369X0.0197*%
%ADD16R,0.0236X0.0157*%
%ADD17MACRO1,0.0213X0.0223X90.0000*%
%ADD18MACRO1,0.0213X0.0223X0.0000*%
%ADD19R,0.0213X0.0223*%
%ADD20MACRO1,0.085X0.0644X-90.0000*%
%ADD21R,0.0433X0.1102*%
%ADD22R,0.1102X0.0433*%
%ADD23R,0.0315X0.0340*%
%ADD24MACRO1,0.0213X0.0223X-90.0000*%
%ADD25R,0.0374X0.0118*%
%ADD26MACRO1,0.0213X0.0311X-90.0000*%
%ADD27R,0.0787X0.0472*%
%ADD28O,0.011024X0.031495999999999996*%
%ADD29MACRO1,0.0213X0.0311X90.0000*%
%ADD30MACRO1,0.0213X0.0311X0.0000*%
%ADD31R,0.0213X0.0311*%
%ADD32R,0.0374X0.0453*%
%ADD33R,0.0276X0.0492*%
%ADD34R,0.0193X0.0456*%
%ADD35R,0.0193X0.0463*%
%ADD36R,0.0138X0.0630*%
%ADD37R,0.0315X0.0354*%
%ADD38MACRO1,0.068X0.0585X90.0000*%
%ADD39MACRO1,0.068X0.0585X0.0000*%
%ADD40R,0.0680X0.0585*%
%ADD41R,0.0394X0.2362*%
%ADD42R,0.0709X0.1339*%
%ADD43MACRO2,0.0106X-0.0171X0.0171X0.0171X-0.0171*%
%ADD44MACRO2,0.0106X-0.0171X-0.0171X0.0171X0.0171*%
%ADD45MACRO1,0.0079X0.0262X-45.0000*%
%ADD46MACRO1,0.0262X0.0079X-45.0000*%
%ADD47MACRO1,0.0262X0.0079X-45.0015*%
%ADD48MACRO1,0.0262X0.0079X-44.9985*%
%ADD49MACRO1,0.0079X0.0262X-45.0051*%
%ADD50MACRO1,0.0079X0.0262X-44.9949*%
%ADD51MACRO1,0.1496X0.1496X-45.0000*%
%ADD52O,0.09055099999999999X0.039369999999999995*%
%ADD53O,0.076772X0.039369999999999995*%
%ADD54O,0.039369999999999995X0.066929*%
%ADD55R,0.0630X0.0630*%
%ADD56C,0.0630*%
%ADD57C,0.0709*%
%ADD58C,0.0984*%
%ADD59C,0.0240*%
%ADD60C,0.0177*%
%ADD61C,0.0133*%

%LPD*%
G36*
X2449000Y2325000D02*
G01*
X2447460Y2325300D01*
X2446180Y2326180D01*
X2445300Y2327460D01*
X2445000Y2329000D01*
X2445000Y2411000D01*
X2445300Y2412540D01*
X2446180Y2413820D01*
X2447460Y2414700D01*
X2449000Y2415000D01*
X2454600Y2415000D01*
X2455280Y2415280D01*
X2469720Y2429720D01*
X2470000Y2430400D01*
X2470000Y2432620D01*
X2470400Y2434500D01*
X2470720Y2437840D01*
X2471220Y2439420D01*
X2472340Y2440680D01*
X2473860Y2441360D01*
X2475540Y2441360D01*
X2477060Y2440680D01*
X2478180Y2439420D01*
X2478680Y2437840D01*
X2479000Y2434500D01*
X2479960Y2431200D01*
X2480280Y2429720D01*
X2482380Y2427600D01*
X2483300Y2426460D01*
X2484720Y2425280D01*
X2494720Y2415280D01*
X2495400Y2415000D01*
X2504160Y2415000D01*
X2505680Y2414700D01*
X2506980Y2413820D01*
X2508820Y2411980D01*
X2509700Y2410680D01*
X2510000Y2409160D01*
X2510000Y2329000D01*
X2509700Y2327460D01*
X2508820Y2326180D01*
X2507540Y2325300D01*
X2506000Y2325000D01*
G37*

%LPD*%
G36*
X2354000Y2325000D02*
G01*
X2352460Y2325300D01*
X2351180Y2326180D01*
X2350300Y2327460D01*
X2350000Y2329000D01*
X2350000Y2411000D01*
X2350300Y2412540D01*
X2351180Y2413820D01*
X2352460Y2414700D01*
X2354000Y2415000D01*
X2409600Y2415000D01*
X2410280Y2415280D01*
X2420580Y2425580D01*
X2422000Y2426500D01*
X2424160Y2428060D01*
X2425940Y2430060D01*
X2426880Y2431700D01*
X2427520Y2432520D01*
X2429720Y2434720D01*
X2430000Y2435400D01*
X2430000Y2460080D01*
X2430300Y2461620D01*
X2431180Y2462920D01*
X2432460Y2463780D01*
X2434000Y2464080D01*
X2436000Y2464080D01*
X2437540Y2463780D01*
X2438820Y2462920D01*
X2439700Y2461620D01*
X2440000Y2460080D01*
X2440000Y2421660D01*
X2439700Y2420120D01*
X2438820Y2418820D01*
X2420280Y2400280D01*
X2420000Y2399600D01*
X2420000Y2329000D01*
X2419700Y2327460D01*
X2418820Y2326180D01*
X2417540Y2325300D01*
X2416000Y2325000D01*
G37*

%LPD*%
D10*
X2645000Y2546999D02*
G01*
X2663000Y2546999D01*
X2680000Y2530000D01*
X2690000Y2530000D01*
X2608000Y2465000D02*
G01*
X2608000Y2475900D01*
X2645000Y2513000D01*
X2642040Y2465000D02*
G01*
X2720000Y2465000D01*
X2730000Y2475000D01*
X2730000Y2600000D01*
X2779290Y2649290D01*
X2779290Y2739470D01*
X2630000Y2195000D02*
G01*
X2552039Y2195000D01*
X2570000Y2410000D02*
G01*
X2602959Y2410000D01*
X2607959Y2405000D01*
X2570000Y2410000D02*
G01*
X2553840Y2393840D01*
X2553840Y2345000D01*
X2745000Y2201500D02*
G01*
X2745000Y2280000D01*
X2697600Y2327399D01*
X2697600Y2350399D01*
D11*
X1940000Y2345000D02*
G01*
X1965000Y2320000D01*
X1965000Y2318499D01*
X1915000Y2361999D02*
G01*
X1923000Y2361999D01*
X1940000Y2345000D01*
X2445000Y2219369D02*
G01*
X2440000Y2224369D01*
X2440000Y2270000D01*
D12*
X2140000Y2930000D02*
G01*
X2140000Y2830000D01*
X2170000Y2830000D01*
X2170000Y2930000D01*
X2200000Y2930000D01*
X2200000Y2830000D01*
X2230000Y2830000D01*
X2230000Y2930000D01*
X2260000Y2930000D01*
X2260000Y2830000D01*
X2290000Y2830000D01*
X2290000Y2930000D01*
X2320000Y2930000D01*
X2320000Y2830000D01*
X2350000Y2830000D01*
X2350000Y2930000D01*
X2380000Y2930000D01*
X2380000Y2730000D01*
X2366499Y2730000D01*
D10*
X2243779Y2506900D02*
G01*
X2270000Y2480680D01*
X2270000Y2475000D01*
X2909312Y2533969D02*
G01*
X2941030Y2533969D01*
X2995000Y2480000D01*
D11*
X1698100Y2626500D02*
G01*
X1719600Y2605000D01*
X1815000Y2605000D01*
X1960000Y2460000D01*
X2023900Y2460000D01*
X2048500Y2484600D01*
X1726000Y2654299D02*
G01*
X1746700Y2633600D01*
X1826400Y2633600D01*
X1970000Y2490000D01*
X2010000Y2490000D01*
X2026199Y2506900D01*
X1786700Y2432399D02*
G01*
X1786700Y2421700D01*
X1765000Y2400000D01*
X1720000Y2400000D01*
X1710000Y2410000D01*
X1710000Y2531100D01*
X1656400Y2584699D01*
X1768000Y2710000D02*
G01*
X1720000Y2710000D01*
X1605000Y2595000D01*
X1605000Y2580399D01*
X1628500Y2556900D01*
X1600000Y2332040D02*
G01*
X1649979Y2382020D01*
X1687969Y2382020D01*
D10*
X652040Y2080000D02*
G01*
X700000Y2080000D01*
X652040Y2840000D02*
G01*
X662040Y2850000D01*
X705000Y2850000D01*
D13*
X1205000Y2800000D02*
G01*
X1237960Y2800000D01*
X1216459Y2550000D02*
G01*
X1300000Y2633539D01*
X1300000Y2642959D01*
X1115000Y2515000D02*
G01*
X1150000Y2550000D01*
X1173540Y2550000D01*
X1182960Y2645000D02*
G01*
X1162960Y2625000D01*
X1115000Y2625000D01*
X1182960Y2740000D02*
G01*
X1115000Y2672040D01*
X1115000Y2625000D01*
X911499Y2550200D02*
G01*
X1032299Y2550100D01*
X1035600Y2553400D01*
X1035600Y2556700D01*
X1038900Y2559899D01*
X1051999Y2559899D01*
X1055299Y2556599D01*
X1055299Y2553299D01*
X1058599Y2550100D01*
X1071700Y2550000D01*
X1075000Y2553299D01*
X1075000Y2556599D01*
X1078299Y2559899D01*
X1091400Y2559899D01*
X1094600Y2556599D01*
X1094600Y2553299D01*
X1097899Y2550000D01*
X1125000Y2550000D01*
X1173500Y2598499D01*
X1173500Y2600000D01*
X1433639Y2835270D02*
G01*
X1403909Y2865000D01*
X1382070Y2865000D01*
X1250000Y2732930D01*
X1250000Y2670000D01*
X1225000Y2645000D01*
X1217039Y2645000D01*
X1217039Y2740000D02*
G01*
X1245000Y2740000D01*
X1380000Y2875000D01*
X1425000Y2875000D01*
X1447569Y2852429D01*
X1447569Y2849189D01*
X1173540Y2695000D02*
G01*
X1143540Y2665000D01*
X1140000Y2665000D01*
X1216499Y2695000D02*
G01*
X1216999Y2740000D01*
X1216499Y2600000D02*
G01*
X1216999Y2645000D01*
X911454Y2450200D02*
G01*
X955000Y2406655D01*
X955000Y2380000D01*
X985000Y2350000D01*
X1085000Y2350000D01*
X1173540Y2438539D01*
X1173540Y2550000D01*
X1011499Y2500200D02*
G01*
X864799Y2500200D01*
X850000Y2515000D01*
X850000Y2755000D01*
X991999Y2896999D01*
X1175000Y2896999D01*
X1175000Y2897040D02*
G01*
X1192960Y2915000D01*
X1278540Y2915000D01*
X1205000Y2860000D02*
G01*
X1237960Y2860000D01*
X1175000Y2862959D02*
G01*
X1177960Y2860000D01*
X1205000Y2860000D01*
X1321459Y2915000D02*
G01*
X1331459Y2925000D01*
X1365000Y2925000D01*
X1271999Y2800000D02*
G01*
X1272100Y2825000D01*
X1271999Y2860000D02*
G01*
X1272100Y2835000D01*
X911499Y2650200D02*
G01*
X870000Y2691700D01*
X870000Y2747899D01*
X947100Y2825000D01*
X954200Y2825000D01*
X959099Y2820100D01*
X959099Y2804299D01*
X964099Y2799400D01*
X973900Y2799400D01*
X978800Y2804299D01*
X978800Y2820100D01*
X983800Y2825000D01*
X993599Y2825000D01*
X998500Y2820100D01*
X998500Y2804299D01*
X1003400Y2799400D01*
X1013299Y2799400D01*
X1018199Y2804299D01*
X1018199Y2820100D01*
X1023100Y2825000D01*
X1033000Y2825000D01*
X1037899Y2820100D01*
X1037899Y2804299D01*
X1042799Y2799400D01*
X1052700Y2799400D01*
X1057600Y2804299D01*
X1057600Y2820100D01*
X1062500Y2825000D01*
X1072299Y2825000D01*
X1077299Y2820100D01*
X1077299Y2804299D01*
X1082200Y2799400D01*
X1091999Y2799400D01*
X1096899Y2804299D01*
X1096899Y2820100D01*
X1101899Y2825000D01*
X1111700Y2825000D01*
X1116599Y2820100D01*
X1116599Y2804299D01*
X1121499Y2799400D01*
X1131400Y2799400D01*
X1136300Y2804299D01*
X1136300Y2820100D01*
X1141199Y2825000D01*
X1305000Y2825000D01*
X1395000Y2915000D01*
X1465000Y2915000D01*
X1489300Y2890900D01*
X1011499Y2600200D02*
G01*
X875000Y2600000D01*
X860000Y2615000D01*
X860000Y2750000D01*
X945000Y2835000D01*
X1300000Y2835000D01*
X1395000Y2930000D01*
X1480000Y2930000D01*
X1503199Y2906799D01*
X1503199Y2904899D01*
D11*
X1300000Y2643000D02*
G01*
X1313000Y2630000D01*
X1327277Y2630000D01*
X1586801Y2515100D02*
G01*
X1585000Y2515100D01*
X1585000Y2485000D01*
X887299Y2080000D02*
G01*
X1011454Y2204155D01*
X1011454Y2300200D01*
X781535Y2170079D02*
G01*
X871615Y2080000D01*
X887299Y2080000D01*
X781535Y2779920D02*
G01*
X781535Y2170079D01*
X468544Y2635830D02*
G01*
X540000Y2707285D01*
X540000Y2780000D01*
X600000Y2840000D01*
X617959Y2840000D01*
X468544Y2314169D02*
G01*
X520830Y2314169D01*
X540000Y2295000D01*
X540000Y2157959D01*
X617959Y2080000D01*
X1684200Y2612600D02*
G01*
X1706800Y2590000D01*
X1810000Y2590000D01*
X1955000Y2445000D01*
X2031099Y2445000D01*
X2059600Y2473499D01*
X1711999Y2640399D02*
G01*
X1732399Y2620000D01*
X1820000Y2620000D01*
X1965000Y2475000D01*
X2015000Y2475000D01*
X2035799Y2495799D01*
X2037399Y2495799D01*
X1955000Y2415000D02*
G01*
X2023400Y2415000D01*
X2070799Y2462399D01*
X2176970Y2679920D02*
G01*
X2195000Y2697950D01*
X2195000Y2725000D01*
X2120000Y2800000D01*
X2120000Y2925000D01*
X2110000Y2935000D01*
X2055000Y2935000D01*
X2048350Y2928350D01*
X2048350Y2902559D01*
X1739870Y2751750D02*
G01*
X1767039Y2778919D01*
X1767039Y2797566D01*
X2048350Y2847440D02*
G01*
X2048350Y2853350D01*
X2091649Y2896649D01*
X2091649Y2902559D01*
X2208540Y2290000D02*
G01*
X2218999Y2279540D01*
X2218999Y2220000D01*
X2266059Y2590830D02*
G01*
X2285230Y2610000D01*
X2335000Y2610000D01*
X2343110Y2601889D01*
X1555000Y2336460D02*
G01*
X1559420Y2332040D01*
X1600000Y2332040D01*
X1510000Y2336460D02*
G01*
X1555000Y2336460D01*
X1600000Y2297959D02*
G01*
X1586000Y2283960D01*
X1586000Y2220000D01*
X1555000Y2293539D02*
G01*
X1558000Y2290540D01*
X1558000Y2220000D01*
X1510000Y2293539D02*
G01*
X1531000Y2272539D01*
X1531000Y2220000D01*
X1475000Y2220000D02*
G01*
X1450000Y2220000D01*
X1503000Y2220000D02*
G01*
X1475000Y2220000D01*
X1613000Y2220000D02*
G01*
X1723000Y2220000D01*
X1751000Y2220000D02*
G01*
X1778999Y2220000D01*
X2191999Y2220000D02*
G01*
X2191999Y2263000D01*
X2150000Y2305000D01*
X2111499Y2305000D01*
X2251459Y2290000D02*
G01*
X2251459Y2282458D01*
X2247002Y2278000D01*
X2247002Y2220000D01*
X1965000Y2318539D02*
G01*
X2015000Y2318539D01*
X2015000Y2361460D02*
G01*
X2021459Y2355000D01*
X2068540Y2355000D01*
X1990835Y2361460D02*
G01*
X2015000Y2361460D01*
X1965000Y2361460D02*
G01*
X1990835Y2361460D01*
X1915000Y2327959D02*
G01*
X1915000Y2305000D01*
X1940000Y2280000D01*
X1990000Y2280000D01*
X2000000Y2270000D01*
X1998999Y2269000D01*
X1998999Y2220000D01*
X1865000Y2327959D02*
G01*
X1865000Y2320000D01*
X1916000Y2269000D01*
X1916000Y2220000D01*
X2026220Y2613099D02*
G01*
X2079319Y2560000D01*
X2135000Y2560000D01*
X1743299Y2487600D02*
G01*
X1742399Y2550000D01*
X1742443Y2550000D02*
G01*
X1718909Y2550000D01*
X1670270Y2598640D01*
X1628500Y2863099D02*
G01*
X1642399Y2849200D01*
X1642399Y2849200D02*
G01*
X1656400Y2835300D01*
X2323540Y2730000D02*
G01*
X2316459Y2737080D01*
X2316459Y2780000D01*
X1946459Y2620000D02*
G01*
X1955000Y2611460D01*
X1955000Y2578105D01*
X1992808Y2540300D01*
X2188100Y2668778D02*
G01*
X2225000Y2705679D01*
X2225000Y2733539D01*
X1642430Y2849189D02*
G01*
X1687960Y2894720D01*
X1687960Y2915000D01*
X1381459Y2150000D02*
G01*
X1381459Y2195000D01*
X1381459Y2195000D01*
X1381459Y2195000D02*
G01*
X1381459Y2240000D01*
X1381459Y2240000D01*
X1381459Y2240000D02*
G01*
X1381459Y2285000D01*
X1381459Y2285000D01*
X1381459Y2285000D02*
G01*
X1413940Y2317480D01*
X1413940Y2400000D01*
X1413940Y2400000D02*
G01*
X1418940Y2395000D01*
X1517449Y2395000D01*
X1413900Y2400000D02*
G01*
X1405379Y2400000D01*
X1395379Y2410000D01*
X1395379Y2490779D01*
X1461499Y2556898D01*
X1463540Y2460000D02*
G01*
X1455000Y2468539D01*
X1455000Y2520000D01*
X1475410Y2540410D01*
X1475410Y2542970D01*
X1391459Y2530000D02*
G01*
X1406760Y2530000D01*
X1447569Y2570810D01*
X1405799Y2612600D02*
G01*
X1433199Y2640000D01*
X1450000Y2640000D01*
X1485000Y2605000D01*
X1485000Y2580000D01*
X1461499Y2556900D01*
X1377969Y2640410D02*
G01*
X1407560Y2670000D01*
X1420000Y2670000D01*
X1450000Y2640000D01*
X1420000Y2710000D02*
G01*
X1420000Y2670000D01*
X1364048Y2765680D02*
G01*
X1419728Y2710000D01*
X1420000Y2710000D01*
X1430000Y2770000D02*
G01*
X1485000Y2825000D01*
X1485000Y2840000D01*
X1461499Y2863099D01*
X1363999Y2765700D02*
G01*
X1395000Y2735000D01*
X1430000Y2770000D01*
X1430000Y2785000D01*
X1407600Y2807399D01*
X1405799Y2807399D01*
X1786700Y2432399D02*
G01*
X1850000Y2433000D01*
X2221508Y2635381D02*
G01*
X2316127Y2730000D01*
X2323540Y2730000D01*
X1338540Y2285000D02*
G01*
X1338540Y2240000D01*
X1338540Y2240000D01*
X1338540Y2240000D02*
G01*
X1338540Y2195000D01*
X1338540Y2195000D01*
X1338540Y2195000D02*
G01*
X1338540Y2150000D01*
X1338540Y2150000D01*
X1306059Y2337480D02*
G01*
X1306059Y2368560D01*
X1264620Y2410000D01*
X1338540Y2285000D02*
G01*
X1338540Y2305000D01*
X1306059Y2337480D01*
X1377969Y2779589D02*
G01*
X1357560Y2800000D01*
X1340000Y2800000D01*
X1315389Y2775390D01*
X1315389Y2692429D01*
X1300000Y2677040D01*
X2180000Y2395000D02*
G01*
X2180000Y2395000D01*
X2170000Y2385000D01*
X2170000Y2372040D01*
X2165829Y2428939D02*
G01*
X2180000Y2414769D01*
X2180000Y2395000D01*
X2220000Y2397049D02*
G01*
X2220000Y2397049D01*
X2220000Y2372040D01*
X2176970Y2440079D02*
G01*
X2220000Y2397049D01*
X1786499Y2370000D02*
G01*
X1786700Y2432399D01*
X1628521Y2556889D02*
G01*
X1680000Y2505410D01*
X1680000Y2501460D01*
X2850000Y2205000D02*
G01*
X2852960Y2202040D01*
X2852960Y2170000D01*
X2887039Y2170000D02*
G01*
X2890000Y2172959D01*
X2890000Y2205000D01*
X2091700Y2847399D02*
G01*
X2091499Y2795000D01*
X2130423Y2726477D02*
G01*
X2154700Y2702199D01*
X2091499Y2795000D02*
G01*
X2100000Y2795000D01*
X2180000Y2715000D01*
X2180000Y2705000D01*
X2165799Y2690999D01*
X2225000Y2776460D02*
G01*
X2228540Y2780000D01*
X2273540Y2780000D01*
X2225000Y2776460D02*
G01*
X2221459Y2780000D01*
X2185000Y2780000D01*
X1475410Y2877029D02*
G01*
X1457439Y2895000D01*
X1425000Y2895000D01*
X1391890Y2793521D02*
G01*
X1365410Y2820000D01*
X1365000Y2820000D01*
X1327277Y2630000D02*
G01*
X1340000Y2630000D01*
X1363999Y2654299D01*
X1742802Y2522145D02*
G01*
X1744948Y2520000D01*
X1825000Y2520000D01*
X1850000Y2495000D01*
X1850000Y2467040D01*
X1743350Y2432440D02*
G01*
X1743350Y2438350D01*
X1765000Y2460000D01*
X1765000Y2460000D02*
G01*
X1786649Y2481649D01*
X1786649Y2487559D01*
X1687974Y2382024D02*
G01*
X1700000Y2370000D01*
X1743540Y2370000D01*
X1680000Y2458539D02*
G01*
X1680000Y2390000D01*
X1687974Y2382024D01*
X1642430Y2570810D02*
G01*
X1673239Y2540000D01*
X1675000Y2540000D01*
X1786649Y2487561D02*
G01*
X1794089Y2495000D01*
X1820000Y2495000D01*
X1786499Y2550000D02*
G01*
X1820000Y2550000D01*
X1830000Y2540000D01*
X1903540Y2620000D02*
G01*
X1903540Y2665000D01*
X1903540Y2620000D02*
G01*
X1930000Y2593539D01*
X1930000Y2585000D01*
X1348500Y2530000D02*
G01*
X1378500Y2560000D01*
X1408900Y2560000D01*
X1433599Y2584699D01*
X1391890Y2626480D02*
G01*
X1370000Y2604589D01*
X1370000Y2570000D01*
X1378500Y2561500D01*
X1378500Y2560000D01*
X1586760Y2904870D02*
G01*
X1611890Y2930000D01*
X1630000Y2930000D01*
X1732960Y2860000D02*
G01*
X1735000Y2857959D01*
X1735000Y2825000D01*
X2048540Y2750000D02*
G01*
X2048540Y2795000D01*
X2048500Y2795000D02*
G01*
X2048299Y2847399D01*
X2048540Y2750000D02*
G01*
X2050000Y2748539D01*
X2050000Y2720000D01*
X3055000Y2077300D02*
G01*
X3065000Y2087300D01*
X3065000Y2135000D01*
X1638765Y2460227D02*
G01*
X1573537Y2395000D01*
X1572560Y2395000D01*
X1680000Y2501460D02*
G01*
X1638765Y2460225D01*
X1506459Y2460000D02*
G01*
X1550000Y2460000D01*
X1739870Y2668240D02*
G01*
X1743109Y2665000D01*
X1785000Y2665000D01*
X1802039Y2682040D01*
X1802039Y2710000D01*
X1614589Y2542970D02*
G01*
X1582560Y2575000D01*
X1545000Y2575000D01*
X2254921Y2601970D02*
G01*
X2282951Y2630000D01*
X2290000Y2630000D01*
X2210379Y2646509D02*
G01*
X2151700Y2587829D01*
X2135000Y2587829D01*
X2048491Y2635381D02*
G01*
X2025000Y2658872D01*
X2025000Y2695000D01*
X1012700Y2080000D02*
G01*
X1007700Y2075000D01*
X950000Y2075000D01*
X1833999Y2220000D02*
G01*
X1888999Y2220000D01*
X1943999Y2220000D02*
G01*
X1971000Y2220000D01*
X2275000Y2220000D02*
G01*
X2290000Y2220000D01*
X2305000Y2235000D01*
X1778999Y2220000D02*
G01*
X1780000Y2221001D01*
X1780000Y2285000D01*
X2081899Y2451199D02*
G01*
X2025699Y2395000D01*
X1840000Y2395000D01*
X1820000Y2375000D01*
X1820000Y2345000D01*
X1836999Y2328000D01*
X1865000Y2328000D01*
X1806000Y2220000D02*
G01*
X1810000Y2220000D01*
X1810000Y2300000D01*
X1865000Y2362040D02*
G01*
X1862040Y2365000D01*
X1840000Y2365000D01*
X1780763Y2165000D02*
G01*
X1740000Y2165000D01*
X1723000Y2181999D01*
X1723000Y2220000D01*
X1833999Y2220000D02*
G01*
X1833999Y2179000D01*
X1820000Y2165000D01*
X1780763Y2165000D01*
X1943999Y2220000D02*
G01*
X1943999Y2179000D01*
X1930000Y2165000D01*
X1905000Y2165000D01*
X1888999Y2180999D01*
X1888999Y2220000D01*
X2026999Y2220000D02*
G01*
X2026999Y2176999D01*
X2015000Y2165000D01*
X1985000Y2165000D01*
X1971000Y2179000D01*
X1971000Y2220000D01*
X2277201Y2540300D02*
G01*
X2290000Y2527501D01*
X2290000Y2495000D01*
X2093029Y2440079D02*
G01*
X2075000Y2422049D01*
X2075000Y2410000D01*
X1767039Y2797566D02*
G01*
X1767039Y2860000D01*
X2482399Y2140599D02*
G01*
X2481999Y2075000D01*
X2447960Y2075000D02*
G01*
X2407600Y2115360D01*
X2407600Y2140630D01*
X2170000Y2337959D02*
G01*
X2220000Y2337959D01*
X1722039Y2915000D02*
G01*
X1790000Y2915000D01*
X1810000Y2895000D01*
X1810000Y2780000D01*
X1767960Y2737959D01*
X1767960Y2710000D01*
X2015097Y2518000D02*
G01*
X2002100Y2505000D01*
X1985000Y2505000D01*
X1975000Y2515000D01*
X2390000Y2230000D02*
G01*
X2407597Y2212402D01*
X2407597Y2140630D01*
X2091499Y2750000D02*
G01*
X2106899Y2750000D01*
X2130423Y2726477D01*
X1985000Y2886460D02*
G01*
X2001100Y2902561D01*
X2048350Y2902561D01*
X1985000Y2843539D02*
G01*
X1988899Y2847438D01*
X2048350Y2847438D01*
X2220000Y2337959D02*
G01*
X2282040Y2337959D01*
X2285000Y2335000D01*
X1897444Y2720000D02*
G01*
X1897444Y2697555D01*
X1905000Y2690000D01*
X1965000Y2690000D01*
X1990000Y2665000D01*
X1990000Y2604780D01*
X2003950Y2590830D01*
X1952555Y2720000D02*
G01*
X1955000Y2720000D01*
X2005000Y2670000D01*
X2005000Y2612049D01*
X2015079Y2601970D01*
X1952555Y2720000D02*
G01*
X1941459Y2731095D01*
X1941459Y2775000D01*
X1946459Y2665000D02*
G01*
X1966459Y2645000D01*
X1970000Y2645000D01*
X1970000Y2645000D02*
G01*
X1975000Y2640000D01*
X1975000Y2595000D01*
X1990299Y2579699D01*
X1992799Y2579699D01*
X1985000Y2843539D02*
G01*
X1933540Y2843539D01*
X1898540Y2808539D01*
X1898540Y2775000D01*
D10*
X2820000Y2610000D02*
G01*
X2820000Y2665000D01*
X2855000Y2700000D01*
X2887959Y2700000D01*
X2415600Y2542199D02*
G01*
X2415000Y2600000D01*
X2415600Y2447800D02*
G01*
X2412200Y2447800D01*
X2395000Y2465000D01*
X2395000Y2521599D01*
X2415600Y2542199D01*
X2458540Y2600000D02*
G01*
X2455000Y2596460D01*
X2455000Y2542199D01*
X2494399Y2542199D02*
G01*
X2494399Y2564140D01*
X2458540Y2600000D01*
X2501459Y2600000D02*
G01*
X2458540Y2642919D01*
X2458540Y2650000D01*
X2458540Y2650000D02*
G01*
X2501459Y2692919D01*
X2501459Y2700000D01*
X2455000Y2447800D02*
G01*
X2455000Y2495000D01*
X2435299Y2542199D02*
G01*
X2435299Y2514699D01*
X2455000Y2495000D01*
X2474700Y2542199D02*
G01*
X2474700Y2514699D01*
X2455000Y2495000D01*
X2415000Y2600000D02*
G01*
X2415000Y2656500D01*
X2458500Y2700000D01*
X2475000Y2495000D02*
G01*
X2500000Y2495000D01*
X2515000Y2510000D01*
X2515000Y2575000D01*
X2501459Y2588539D01*
X2501459Y2600000D01*
D11*
X2163999Y2220000D02*
G01*
X2163999Y2260999D01*
X2145000Y2280000D01*
X2085000Y2280000D01*
X2068500Y2296500D01*
X2068500Y2305000D01*
X2055000Y2275000D02*
G01*
X2065000Y2265000D01*
X2125000Y2265000D01*
X2136999Y2253000D01*
X2136999Y2220000D01*
X2015000Y2318539D02*
G01*
X2015000Y2315000D01*
X2055000Y2275000D01*
X2053999Y2274000D01*
X2053999Y2220000D01*
X2026999Y2176999D02*
G01*
X2038999Y2165000D01*
X2070000Y2165000D01*
X2081999Y2176999D01*
X2081999Y2220000D01*
D10*
X2909309Y2514290D02*
G01*
X2885709Y2514290D01*
X2875870Y2524130D01*
X2858130Y2524130D01*
X2909309Y2435549D02*
G01*
X2944449Y2435549D01*
X2950000Y2430000D01*
X2858130Y2425709D02*
G01*
X2879290Y2425709D01*
X2889139Y2415859D01*
X2909309Y2415859D01*
X2858130Y2445390D02*
G01*
X2829610Y2445390D01*
X2825000Y2450000D01*
X2858130Y2583189D02*
G01*
X2881809Y2583189D01*
X2891660Y2573339D01*
X2909309Y2573339D01*
X2858130Y2366649D02*
G01*
X2878350Y2366649D01*
X2888190Y2356810D01*
X2909309Y2356810D01*
X2850000Y2340000D02*
G01*
X2858130Y2348130D01*
X2858130Y2366649D01*
X2800000Y2580000D02*
G01*
X2803190Y2583191D01*
X2858130Y2583191D01*
X3055000Y2202700D02*
G01*
X3061869Y2209569D01*
X3061869Y2299920D01*
X3061869Y2299920D02*
G01*
X3061869Y2640079D01*
X2815000Y2375000D02*
G01*
X2826340Y2386340D01*
X2858130Y2386340D01*
X2810000Y2400000D02*
G01*
X2816019Y2406019D01*
X2858130Y2406019D01*
X2909309Y2553660D02*
G01*
X2951340Y2553660D01*
X2960000Y2545000D01*
X2909309Y2573339D02*
G01*
X2953339Y2573339D01*
X2975000Y2595000D01*
X2975000Y2647040D01*
X2922039Y2700000D01*
X2700550Y2739470D02*
G01*
X2700550Y2884450D01*
X2695000Y2890000D01*
X2458540Y2700000D02*
G01*
X2470000Y2711460D01*
X2470000Y2779625D01*
X2501459Y2700000D02*
G01*
X2510000Y2708539D01*
X2510000Y2850000D01*
X2470000Y2890000D01*
X2470000Y2910374D01*
D11*
X2277200Y2579699D02*
G01*
X2277200Y2562800D01*
X2320000Y2520000D01*
D10*
X2111459Y2355000D02*
G01*
X2111459Y2386460D01*
X2120000Y2395000D01*
X2120000Y2395000D02*
G01*
X2131890Y2395000D01*
X2154700Y2417809D01*
X2612960Y2690000D02*
G01*
X2612960Y2667040D01*
X2615000Y2665000D01*
X2615000Y2665000D02*
G01*
X2612960Y2662959D01*
X2612960Y2640000D01*
X2647002Y2690000D02*
G01*
X2696472Y2739470D01*
X2700550Y2739470D01*
X2611459Y2595000D02*
G01*
X2612960Y2596500D01*
X2612960Y2640000D01*
X2568540Y2595000D02*
G01*
X2568540Y2698539D01*
X2590000Y2720000D01*
X2673559Y2720000D01*
X2530000Y2480000D02*
G01*
X2530000Y2480000D01*
X2497799Y2447800D01*
X2494399Y2447800D01*
X2501499Y2650000D02*
G01*
X2530000Y2621500D01*
X2530000Y2480000D01*
X2760799Y2590599D02*
G01*
X2730000Y2590999D01*
X2647039Y2640000D02*
G01*
X2645000Y2637959D01*
X2645000Y2547040D01*
X2645000Y2512959D02*
G01*
X2667370Y2490590D01*
X2694650Y2490590D01*
X2607960Y2465000D02*
G01*
X2610000Y2462959D01*
X2610000Y2450000D01*
X2642039Y2417959D01*
X2642039Y2405000D01*
X2646165Y2345000D02*
G01*
X2670000Y2368834D01*
X2670000Y2410000D01*
X2694650Y2434650D01*
X2694650Y2439409D01*
X2765349Y2465000D02*
G01*
X2805000Y2504650D01*
X2805000Y2507959D01*
X2760825Y2539409D02*
G01*
X2792274Y2507959D01*
X2805000Y2507959D01*
X2805000Y2542040D02*
G01*
X2760825Y2586215D01*
X2760825Y2590590D01*
X2689200Y2565000D02*
G01*
X2690000Y2530000D01*
X2695000Y2400000D02*
G01*
X2697597Y2397402D01*
X2697597Y2350419D01*
X2600000Y2234200D02*
G01*
X2697600Y2331799D01*
X2697600Y2350419D01*
X2538370Y2065000D02*
G01*
X2562600Y2089229D01*
X2562600Y2135799D01*
X2671629Y2065000D02*
G01*
X2637399Y2099229D01*
X2637399Y2135799D01*
X2553834Y2345000D02*
G01*
X2517960Y2309124D01*
X2517960Y2275000D01*
X2695000Y2201460D02*
G01*
X2697600Y2204059D01*
X2697600Y2259580D01*
X2695000Y2158539D02*
G01*
X2745000Y2158539D01*
X2769120Y2162959D02*
G01*
X2795000Y2162959D01*
X2745000Y2158539D02*
G01*
X2749420Y2162959D01*
X2769120Y2162959D01*
X2795000Y2197040D02*
G01*
X2772399Y2219639D01*
X2772399Y2259580D01*
X2570000Y2410000D02*
G01*
X2568540Y2411460D01*
X2568540Y2595000D01*
X2655000Y2175000D02*
G01*
X2637399Y2157399D01*
X2637399Y2135799D01*
X2562600Y2135799D02*
G01*
X2552039Y2146359D01*
X2552039Y2275000D01*
X2630000Y2195000D02*
G01*
X2632997Y2195000D01*
X2697597Y2259600D01*
X2785000Y2425000D02*
G01*
X2785700Y2425700D01*
X2858130Y2425700D01*
X2772399Y2350419D02*
G01*
X2810000Y2312820D01*
X2810000Y2260000D01*
X2850000Y2220000D01*
X2850000Y2205000D01*
X2858100Y2524099D02*
G01*
X2834099Y2524099D01*
X2825000Y2515000D01*
X2825000Y2480000D01*
X2785000Y2440000D01*
X2785000Y2425000D01*
X2730000Y2405000D02*
G01*
X2735000Y2400000D01*
X2735000Y2350419D01*
X2976999Y2240000D02*
G01*
X2995000Y2255000D01*
X2995000Y2444200D01*
X2944600Y2494600D01*
X2909300Y2494600D01*
D11*
X2482399Y2140630D02*
G01*
X2482399Y2277600D01*
X2475000Y2285000D01*
D10*
X2850000Y2340000D02*
G01*
X2825000Y2315000D01*
X2825000Y2265000D01*
X2850000Y2240000D01*
X2942959Y2240000D01*
D14*
G01*
X2646160Y2345000D03*
G01*
X2553840Y2345000D03*
D15*
G01*
X2765349Y2465000D03*
G01*
X2694650Y2439409D03*
G01*
X2694650Y2490590D03*
D16*
G01*
X2760829Y2539409D03*
G01*
X2760829Y2590590D03*
G01*
X2689179Y2565000D03*
D17*
G01*
X2642040Y2465000D03*
G01*
X2607959Y2465000D03*
G01*
X2642040Y2405000D03*
G01*
X2607959Y2405000D03*
D18*
G01*
X2805000Y2542040D03*
D19*
G01*
X2805000Y2507959D03*
D18*
G01*
X2645000Y2547040D03*
D19*
G01*
X2645000Y2512959D03*
D20*
G01*
X2384040Y2370000D03*
G01*
X2475969Y2370000D03*
D21*
G01*
X2470000Y2779620D03*
G01*
X2470000Y2910380D03*
D22*
G01*
X1395379Y2410000D03*
G01*
X1264620Y2410000D03*
D23*
G01*
X1572579Y2394989D03*
G01*
X1517470Y2394989D03*
G01*
X1897470Y2720000D03*
G01*
X1952579Y2720000D03*
D18*
G01*
X1915000Y2327959D03*
D19*
G01*
X1915000Y2362040D03*
D18*
G01*
X1865000Y2327959D03*
D19*
G01*
X1865000Y2362040D03*
D18*
G01*
X1600000Y2297959D03*
D19*
G01*
X1600000Y2332040D03*
D17*
G01*
X2482040Y2075000D03*
G01*
X2447959Y2075000D03*
G01*
X652040Y2080000D03*
G01*
X617959Y2080000D03*
G01*
X652040Y2840000D03*
G01*
X617959Y2840000D03*
G01*
X1722040Y2915000D03*
G01*
X1687959Y2915000D03*
D24*
G01*
X1767959Y2710000D03*
G01*
X1802040Y2710000D03*
D18*
G01*
X1850000Y2467040D03*
D19*
G01*
X1850000Y2432959D03*
D18*
G01*
X1300000Y2677040D03*
D19*
G01*
X1300000Y2642959D03*
D17*
G01*
X1272040Y2800000D03*
G01*
X1237959Y2800000D03*
G01*
X1272040Y2860000D03*
G01*
X1237959Y2860000D03*
D24*
G01*
X1182959Y2740000D03*
G01*
X1217040Y2740000D03*
G01*
X1182959Y2645000D03*
G01*
X1217040Y2645000D03*
D18*
G01*
X2170000Y2337959D03*
D19*
G01*
X2170000Y2372040D03*
D17*
G01*
X1767040Y2860000D03*
G01*
X1732959Y2860000D03*
D18*
G01*
X2795000Y2162959D03*
D19*
G01*
X2795000Y2197040D03*
D17*
G01*
X2647040Y2640000D03*
G01*
X2612959Y2640000D03*
D24*
G01*
X2612959Y2690000D03*
G01*
X2647040Y2690000D03*
D17*
G01*
X2977040Y2240000D03*
G01*
X2942959Y2240000D03*
G01*
X2922040Y2700000D03*
G01*
X2887959Y2700000D03*
G01*
X2552040Y2275000D03*
G01*
X2517959Y2275000D03*
D18*
G01*
X2220000Y2337959D03*
D19*
G01*
X2220000Y2372040D03*
D24*
G01*
X2852959Y2170000D03*
G01*
X2887040Y2170000D03*
D18*
G01*
X1175000Y2897040D03*
D19*
G01*
X1175000Y2862959D03*
D25*
G01*
X2858130Y2366649D03*
G01*
X2858130Y2386329D03*
G01*
X2858130Y2406019D03*
G01*
X2858130Y2425700D03*
G01*
X2858130Y2445390D03*
G01*
X2858130Y2465070D03*
G01*
X2858130Y2484760D03*
G01*
X2858130Y2504439D03*
G01*
X2858130Y2524130D03*
G01*
X2858130Y2543809D03*
G01*
X2858130Y2563499D03*
G01*
X2858130Y2583180D03*
G01*
X2909309Y2573339D03*
G01*
X2909309Y2553660D03*
G01*
X2909309Y2533969D03*
G01*
X2909309Y2514290D03*
G01*
X2909309Y2494600D03*
G01*
X2909309Y2474920D03*
G01*
X2909309Y2455230D03*
G01*
X2909309Y2435549D03*
G01*
X2909309Y2415859D03*
G01*
X2909309Y2396179D03*
G01*
X2909309Y2376489D03*
G01*
X2909309Y2356810D03*
D26*
G01*
X2458540Y2600000D03*
G01*
X2501459Y2600000D03*
D27*
G01*
X2455000Y2495000D03*
D28*
G01*
X2415600Y2542199D03*
G01*
X2435299Y2542199D03*
G01*
X2455000Y2542199D03*
G01*
X2474700Y2542199D03*
G01*
X2494399Y2542199D03*
G01*
X2494399Y2447800D03*
G01*
X2474700Y2447800D03*
G01*
X2455000Y2447800D03*
G01*
X2435299Y2447800D03*
G01*
X2415600Y2447800D03*
D29*
G01*
X2611459Y2595000D03*
G01*
X2568540Y2595000D03*
G01*
X2366459Y2730000D03*
G01*
X2323540Y2730000D03*
D30*
G01*
X2745000Y2158541D03*
D31*
G01*
X2745000Y2201460D03*
D32*
G01*
X2538370Y2065000D03*
G01*
X2671629Y2065000D03*
D33*
G01*
X2600000Y2234200D03*
G01*
X2637399Y2135799D03*
G01*
X2562600Y2135799D03*
D34*
G01*
X2772399Y2350419D03*
G01*
X2735000Y2350419D03*
G01*
X2697600Y2350419D03*
D35*
G01*
X2697600Y2259580D03*
G01*
X2772399Y2259580D03*
D36*
G01*
X2275000Y2220000D03*
G01*
X2246999Y2220000D03*
G01*
X2218999Y2220000D03*
G01*
X2191999Y2220000D03*
G01*
X2163999Y2220000D03*
G01*
X2136999Y2220000D03*
G01*
X2108999Y2220000D03*
G01*
X2081999Y2220000D03*
G01*
X2053999Y2220000D03*
G01*
X2026999Y2220000D03*
G01*
X1998999Y2220000D03*
G01*
X1971000Y2220000D03*
G01*
X1943999Y2220000D03*
G01*
X1916000Y2220000D03*
G01*
X1888999Y2220000D03*
G01*
X1861000Y2220000D03*
G01*
X1833999Y2220000D03*
G01*
X1806000Y2220000D03*
G01*
X1778999Y2220000D03*
G01*
X1751000Y2220000D03*
G01*
X1723000Y2220000D03*
G01*
X1696000Y2220000D03*
G01*
X1668000Y2220000D03*
G01*
X1641000Y2220000D03*
G01*
X1613000Y2220000D03*
G01*
X1586000Y2220000D03*
G01*
X1558000Y2220000D03*
G01*
X1531000Y2220000D03*
G01*
X1503000Y2220000D03*
G01*
X1475000Y2220000D03*
D33*
G01*
X2407600Y2140630D03*
G01*
X2482399Y2140630D03*
G01*
X2445000Y2219369D03*
D30*
G01*
X1985000Y2843541D03*
D31*
G01*
X1985000Y2886460D03*
D26*
G01*
X2048540Y2795000D03*
G01*
X2091459Y2795000D03*
D29*
G01*
X2251459Y2290000D03*
G01*
X2208540Y2290000D03*
D26*
G01*
X2068540Y2305000D03*
G01*
X2111459Y2305000D03*
D30*
G01*
X2015000Y2318541D03*
D31*
G01*
X2015000Y2361460D03*
D30*
G01*
X1965000Y2318541D03*
D31*
G01*
X1965000Y2361460D03*
D30*
G01*
X1555000Y2293541D03*
D31*
G01*
X1555000Y2336460D03*
D30*
G01*
X1510000Y2293541D03*
D31*
G01*
X1510000Y2336460D03*
D30*
G01*
X1680000Y2501459D03*
D31*
G01*
X1680000Y2458539D03*
D26*
G01*
X1348540Y2530000D03*
G01*
X1391459Y2530000D03*
D29*
G01*
X1506459Y2460000D03*
G01*
X1463540Y2460000D03*
G01*
X1786459Y2370000D03*
G01*
X1743540Y2370000D03*
D26*
G01*
X1743540Y2550000D03*
G01*
X1786459Y2550000D03*
G01*
X1338540Y2285000D03*
G01*
X1381459Y2285000D03*
G01*
X1338540Y2240000D03*
G01*
X1381459Y2240000D03*
G01*
X1338540Y2195000D03*
G01*
X1381459Y2195000D03*
G01*
X1338540Y2150000D03*
G01*
X1381459Y2150000D03*
G01*
X1173540Y2600000D03*
G01*
X1216459Y2600000D03*
G01*
X1173540Y2695000D03*
G01*
X1216459Y2695000D03*
G01*
X1173540Y2550000D03*
G01*
X1216459Y2550000D03*
D29*
G01*
X2111459Y2355000D03*
G01*
X2068540Y2355000D03*
D26*
G01*
X2048540Y2750000D03*
G01*
X2091459Y2750000D03*
D29*
G01*
X1946459Y2620000D03*
G01*
X1903540Y2620000D03*
G01*
X1946459Y2665000D03*
G01*
X1903540Y2665000D03*
G01*
X1941459Y2775000D03*
G01*
X1898540Y2775000D03*
G01*
X2316459Y2780000D03*
G01*
X2273540Y2780000D03*
D30*
G01*
X2225000Y2776459D03*
D31*
G01*
X2225000Y2733539D03*
D30*
G01*
X2695000Y2201459D03*
D31*
G01*
X2695000Y2158539D03*
D29*
G01*
X2501459Y2650000D03*
G01*
X2458540Y2650000D03*
D26*
G01*
X2458540Y2700000D03*
G01*
X2501459Y2700000D03*
G01*
X1278540Y2915000D03*
G01*
X1321459Y2915000D03*
D37*
G01*
X2048350Y2847440D03*
G01*
X2091649Y2847440D03*
G01*
X2091649Y2902559D03*
G01*
X2048350Y2902559D03*
D38*
G01*
X1012696Y2080000D03*
G01*
X887303Y2080000D03*
D39*
G01*
X3055000Y2077302D03*
D40*
G01*
X3055000Y2202700D03*
D41*
G01*
X2779290Y2739470D03*
G01*
X2700550Y2739470D03*
D42*
G01*
X2871890Y2830529D03*
G01*
X2608109Y2830529D03*
D43*
G01*
X1503240Y2904869D03*
G01*
X1489320Y2890950D03*
G01*
X1475410Y2877029D03*
G01*
X1461480Y2863109D03*
G01*
X1447570Y2849190D03*
G01*
X1433640Y2835269D03*
G01*
X1419729Y2821350D03*
G01*
X1405810Y2807430D03*
G01*
X1391889Y2793520D03*
G01*
X1377970Y2779590D03*
G01*
X1364050Y2765680D03*
G01*
X1350129Y2751749D03*
D44*
G01*
X1350129Y2668239D03*
G01*
X1364050Y2654320D03*
G01*
X1377970Y2640409D03*
G01*
X1391889Y2626479D03*
G01*
X1405810Y2612569D03*
G01*
X1419729Y2598640D03*
G01*
X1433640Y2584730D03*
G01*
X1447570Y2570809D03*
G01*
X1461480Y2556890D03*
G01*
X1475410Y2542970D03*
G01*
X1489320Y2529049D03*
G01*
X1503240Y2515130D03*
D43*
G01*
X1586759Y2515130D03*
G01*
X1600679Y2529049D03*
G01*
X1614589Y2542970D03*
G01*
X1628519Y2556890D03*
G01*
X1642429Y2570809D03*
G01*
X1656359Y2584730D03*
G01*
X1670270Y2598640D03*
G01*
X1684189Y2612569D03*
G01*
X1698110Y2626479D03*
G01*
X1712029Y2640409D03*
G01*
X1725949Y2654320D03*
G01*
X1739870Y2668239D03*
D44*
G01*
X1739870Y2751749D03*
G01*
X1725949Y2765680D03*
G01*
X1712029Y2779590D03*
G01*
X1698110Y2793520D03*
G01*
X1684189Y2807430D03*
G01*
X1670270Y2821350D03*
G01*
X1656359Y2835269D03*
G01*
X1642429Y2849190D03*
G01*
X1628519Y2863109D03*
G01*
X1614589Y2877029D03*
G01*
X1600679Y2890950D03*
G01*
X1586759Y2904869D03*
D45*
G01*
X1992814Y2540299D03*
G01*
X2003944Y2529170D03*
G01*
X2015081Y2518033D03*
G01*
X2026218Y2506895D03*
G01*
X2037355Y2495759D03*
G01*
X2048492Y2484622D03*
G01*
X2059622Y2473491D03*
G01*
X2070758Y2462355D03*
G01*
X2081895Y2451218D03*
G01*
X2093032Y2440081D03*
G01*
X2104169Y2428944D03*
G01*
X2115299Y2417814D03*
D46*
G01*
X2154700Y2417814D03*
D47*
G01*
X2165830Y2428944D03*
G01*
X2176967Y2440081D03*
G01*
X2188104Y2451218D03*
G01*
X2199241Y2462355D03*
D48*
G01*
X2210377Y2473491D03*
G01*
X2221507Y2484622D03*
D46*
G01*
X2232644Y2495759D03*
G01*
X2243781Y2506895D03*
G01*
X2254918Y2518033D03*
G01*
X2266055Y2529170D03*
G01*
X2277185Y2540299D03*
D45*
G01*
X2277184Y2579699D03*
G01*
X2266054Y2590829D03*
G01*
X2254917Y2601966D03*
G01*
X2243780Y2613103D03*
D49*
G01*
X2232644Y2624240D03*
D45*
G01*
X2221507Y2635377D03*
G01*
X2210377Y2646506D03*
D50*
G01*
X2199240Y2657644D03*
D45*
G01*
X2188103Y2668781D03*
G01*
X2176966Y2679918D03*
G01*
X2165829Y2691054D03*
G01*
X2154699Y2702184D03*
D46*
G01*
X2115300Y2702184D03*
G01*
X2104170Y2691054D03*
G01*
X2093033Y2679918D03*
G01*
X2081896Y2668781D03*
D48*
G01*
X2070759Y2657644D03*
G01*
X2059622Y2646506D03*
G01*
X2048492Y2635377D03*
D46*
G01*
X2037355Y2624240D03*
D47*
G01*
X2026219Y2613103D03*
G01*
X2015082Y2601966D03*
G01*
X2003945Y2590829D03*
D46*
G01*
X1992815Y2579699D03*
D51*
G01*
X2135000Y2560000D03*
D37*
G01*
X1786649Y2487559D03*
G01*
X1743350Y2487559D03*
G01*
X1743350Y2432440D03*
G01*
X1786649Y2432440D03*
D52*
G01*
X3061869Y2640079D03*
G01*
X3061869Y2299920D03*
D53*
G01*
X2880000Y2640000D03*
D54*
G01*
X2902200Y2629299D03*
D53*
G01*
X2880000Y2300000D03*
D54*
G01*
X2902200Y2309299D03*
D55*
G01*
X911459Y2650149D03*
D56*
G01*
X1011450Y2600149D03*
G01*
X911450Y2550149D03*
G01*
X1011450Y2500149D03*
G01*
X911450Y2450149D03*
G01*
X1011450Y2400149D03*
G01*
X911450Y2350149D03*
G01*
X1011450Y2300149D03*
D57*
G01*
X468550Y2735779D03*
G01*
X468550Y2635779D03*
G01*
X468550Y2314119D03*
G01*
X468550Y2214119D03*
D58*
G01*
X781540Y2779870D03*
G01*
X781540Y2170030D03*
D59*
G01*
X2135000Y2587829D03*
G01*
X2162839Y2559989D03*
G01*
X2107160Y2559989D03*
G01*
X2135000Y2532150D03*
D60*
G01*
X2850000Y2205000D03*
G01*
X2890000Y2205000D03*
G01*
X2180000Y2395000D03*
G01*
X2220000Y2397049D03*
G01*
X2185000Y2780000D03*
G01*
X1425000Y2895000D03*
G01*
X1365000Y2820000D03*
G01*
X1327280Y2630000D03*
G01*
X1673239Y2540000D03*
G01*
X1820000Y2495000D03*
G01*
X1830000Y2540000D03*
G01*
X1930000Y2585000D03*
G01*
X1306059Y2337480D03*
G01*
X1420000Y2710000D03*
G01*
X1378500Y2561500D03*
G01*
X1630000Y2930000D03*
G01*
X1735000Y2825000D03*
G01*
X2050000Y2720000D03*
G01*
X2850000Y2340000D03*
G01*
X3065000Y2135000D03*
G01*
X1638770Y2460230D03*
G01*
X1550000Y2460000D03*
G01*
X425000Y2500000D03*
G01*
X1687969Y2382020D03*
G01*
X1585000Y2485000D03*
G01*
X1545000Y2575000D03*
G01*
X2290000Y2630000D03*
G01*
X2025000Y2695000D03*
G01*
X2130420Y2726480D03*
G01*
X950000Y2075000D03*
G01*
X1955000Y2415000D03*
G01*
X1185000Y2225000D03*
G01*
X1450000Y2220000D03*
G01*
X2475000Y2285000D03*
G01*
X1115000Y2225000D03*
G01*
X2305000Y2235000D03*
G01*
X1780000Y2285000D03*
G01*
X1810000Y2300000D03*
G01*
X2415000Y2600000D03*
G01*
X1840000Y2365000D03*
G01*
X1990839Y2361460D03*
G01*
X2075000Y2410000D03*
G01*
X1767039Y2797570D03*
G01*
X1940000Y2345000D03*
G01*
X2440000Y2270000D03*
G01*
X1975000Y2515000D03*
G01*
X2390000Y2230000D03*
G01*
X1780760Y2165000D03*
G01*
X2285000Y2335000D03*
G01*
X1970000Y2645000D03*
G01*
X2820000Y2610000D03*
G01*
X1365000Y2925000D03*
G01*
X1205000Y2860000D03*
G01*
X1140000Y2665000D03*
G01*
X1115000Y2625000D03*
G01*
X1115000Y2515000D03*
G01*
X1205000Y2800000D03*
G01*
X705000Y2850000D03*
G01*
X700000Y2080000D03*
G01*
X2475000Y2495000D03*
G01*
X2435000Y2495000D03*
G01*
X2950000Y2430000D03*
G01*
X2825000Y2450000D03*
G01*
X2800000Y2580000D03*
G01*
X2810000Y2400000D03*
G01*
X2815000Y2375000D03*
G01*
X2960000Y2545000D03*
G01*
X2343109Y2601889D03*
G01*
X2320000Y2520000D03*
G01*
X2290000Y2495000D03*
G01*
X2695000Y2890000D03*
G01*
X2995000Y2480000D03*
G01*
X2270000Y2475000D03*
G01*
X2120000Y2395000D03*
G01*
X2615000Y2665000D03*
G01*
X2690000Y2530000D03*
G01*
X2695000Y2400000D03*
G01*
X2570000Y2410000D03*
G01*
X2530000Y2480000D03*
G01*
X2655000Y2175000D03*
G01*
X2630000Y2195000D03*
G01*
X2785000Y2425000D03*
G01*
X2730000Y2405000D03*
G01*
X2769120Y2162959D03*
G01*
X2680000Y2115000D03*
M02*
