M48
METRIC,LZ,000.000
;FILE_FORMAT=3:3
;TYPE=PLATED
;Layer: PTH_Through
;EasyEDA v6.5.48, 2025-03-23 21:54:44
;e818f5d5cf304f8aac4085ec7bc2d957,b9277fd2045942759ab1a28cc0c323af,10
;Gerber Generator version 0.2
;Holesize 1 = 0.200 mm
T01C0.200
;Holesize 2 = 0.501 mm
T02C0.501
;Holesize 3 = 0.600 mm
T03C0.600
;Holesize 4 = 1.101 mm
T04C1.101
%
G05
G90
T01
X033528Y057150
X033909Y057785
X028194Y053594
X030353Y062992
X011303Y059055
X033655Y060325
X011303Y058293
X011303Y061087
X033655Y061087
X030099Y058293
X008382Y051562
X011303Y057531
X015113Y062357
X034273Y054720
T02
X012835Y055372G85X013835Y055372
X012771Y055294G85X012771Y055994
X012835Y064008G85X013835Y064008
X012771Y063422G85X012771Y064122
X032250Y064008G85X031250Y064008
X032314Y064086G85X032314Y063386
X032250Y055372G85X031250Y055372
X032314Y055958G85X032314Y055258
T03
X008066Y055370G85X009366Y055370
X008066Y064010G85X009366Y064010
X037019Y064010G85X035719Y064010
X037019Y055370G85X035719Y055370
T04
X021970Y054201
X021972Y056703
X021972Y059203
X021972Y061703
X021972Y064203
X021972Y066703
M30
