G04 Layer: TopSolderMaskLayer*
G04 EasyEDA v6.5.48, 2025-03-09 16:09:46*
G04 6742e224e03a4d3da3a366412f0f9112,b9277fd2045942759ab1a28cc0c323af,10*
G04 Gerber Generator version 0.2*
G04 Scale: 100 percent, Rotated: No, Reflected: No *
G04 Dimensions in millimeters *
G04 leading zeros omitted , absolute positions ,4 integer and 5 decimal *
%FSLAX45Y45*%
%MOMM*%

%AMMACRO1*4,1,8,-0.571,-0.6759,-0.6007,-0.6459,-0.6007,0.6462,-0.571,0.6759,0.5707,0.6759,0.6007,0.6462,0.6007,-0.6459,0.5707,-0.6759,-0.571,-0.6759,0*%
%AMMACRO2*4,1,8,-0.5874,-0.7394,-0.6171,-0.7094,-0.6171,0.7097,-0.5874,0.7394,0.5871,0.7394,0.6171,0.7097,0.6171,-0.7094,0.5871,-0.7394,-0.5874,-0.7394,0*%
%AMMACRO3*4,1,8,-0.921,-0.9508,-0.9507,-0.9209,-0.9507,0.9211,-0.921,0.9508,0.9208,0.9508,0.9507,0.9211,0.9507,-0.9209,0.9208,-0.9508,-0.921,-0.9508,0*%
%AMMACRO4*4,1,8,-0.4958,-0.2002,-0.525,-0.1707,-0.525,0.1709,-0.4958,0.2002,0.4956,0.2002,0.525,0.1709,0.525,-0.1707,0.4956,-0.2002,-0.4958,-0.2002,0*%
%AMMACRO5*4,1,8,-0.4958,-0.2,-0.525,-0.1706,-0.525,0.1708,-0.4958,0.2,0.4956,0.2,0.525,0.1708,0.525,-0.1706,0.4956,-0.2,-0.4958,-0.2,0*%
%ADD10MACRO1*%
%ADD11MACRO2*%
%ADD12MACRO3*%
%ADD13C,1.9016*%
%ADD14MACRO4*%
%ADD15MACRO5*%
%ADD16O,2.4000206X1.1000232*%
%ADD17O,2.0516088X1.1015979999999999*%
%ADD18O,1.1015979999999999X1.8015966*%

%LPD*%
D10*
G01*
X1206500Y5156200D03*
G01*
X1003300Y5156200D03*
D11*
G01*
X1487487Y5156200D03*
G01*
X1687512Y5156200D03*
D12*
G01*
X2197023Y5420093D03*
D13*
G01*
X2197176Y5670295D03*
G01*
X2197176Y5920282D03*
G01*
X2197176Y6170295D03*
G01*
X2197176Y6420281D03*
G01*
X2197176Y6670294D03*
D14*
G01*
X1389049Y6231509D03*
D15*
G01*
X1389049Y6181509D03*
D14*
G01*
X1389049Y6131509D03*
D15*
G01*
X1389049Y6081509D03*
D14*
G01*
X1389049Y6031509D03*
D15*
G01*
X1389049Y5981509D03*
D14*
G01*
X1389049Y5931509D03*
D15*
G01*
X1389049Y5881509D03*
D14*
G01*
X1389049Y5831509D03*
D15*
G01*
X1389049Y5781509D03*
D14*
G01*
X1389049Y5731510D03*
D15*
G01*
X1389049Y5681510D03*
G01*
X1259052Y5706503D03*
G01*
X1259052Y5756516D03*
G01*
X1259052Y5806503D03*
G01*
X1259052Y5856516D03*
G01*
X1259052Y5906503D03*
G01*
X1259052Y5956515D03*
G01*
X1259052Y6006503D03*
G01*
X1259052Y6056515D03*
G01*
X1259052Y6106502D03*
G01*
X1259052Y6156515D03*
G01*
X1259052Y6206502D03*
G01*
X1259052Y6256515D03*
D16*
G01*
X871550Y5536996D03*
G01*
X871550Y6401003D03*
D17*
G01*
X1333500Y5537200D03*
D18*
G01*
X1277112Y5564378D03*
D17*
G01*
X1333500Y6400800D03*
D18*
G01*
X1277112Y6377178D03*
D14*
G01*
X3119450Y5706490D03*
D15*
G01*
X3119450Y5756490D03*
D14*
G01*
X3119450Y5806490D03*
D15*
G01*
X3119450Y5856490D03*
D14*
G01*
X3119450Y5906490D03*
D15*
G01*
X3119450Y5956490D03*
D14*
G01*
X3119450Y6006490D03*
D15*
G01*
X3119450Y6056490D03*
D14*
G01*
X3119450Y6106490D03*
D15*
G01*
X3119450Y6156490D03*
D14*
G01*
X3119450Y6206489D03*
D15*
G01*
X3119450Y6256489D03*
G01*
X3249447Y6231496D03*
G01*
X3249447Y6181483D03*
G01*
X3249447Y6131496D03*
G01*
X3249447Y6081483D03*
G01*
X3249447Y6031496D03*
G01*
X3249447Y5981484D03*
G01*
X3249447Y5931496D03*
G01*
X3249447Y5881484D03*
G01*
X3249447Y5831497D03*
G01*
X3249447Y5781484D03*
G01*
X3249447Y5731497D03*
G01*
X3249447Y5681484D03*
D16*
G01*
X3636949Y6401003D03*
G01*
X3636949Y5536996D03*
D17*
G01*
X3175000Y6400800D03*
D18*
G01*
X3231388Y6373621D03*
D17*
G01*
X3175000Y5537200D03*
D18*
G01*
X3231388Y5560821D03*
M02*
