G04 Layer: TopPasteMaskLayer*
G04 EasyEDA v6.5.48, 2025-03-23 21:54:44*
G04 e818f5d5cf304f8aac4085ec7bc2d957,b9277fd2045942759ab1a28cc0c323af,10*
G04 Gerber Generator version 0.2*
G04 Scale: 100 percent, Rotated: No, Reflected: No *
G04 Dimensions in millimeters *
G04 leading zeros omitted , absolute positions ,4 integer and 5 decimal *
%FSLAX45Y45*%
%MOMM*%

%AMMACRO1*21,1,$1,$2,0,0,$3*%
%ADD10MACRO1,1.0998X1.2502X0.0000*%

%LPD*%
G36*
X1637487Y5225186D02*
G01*
X1632508Y5220208D01*
X1633016Y5178196D01*
X1677009Y5178196D01*
X1677009Y5133187D01*
X1632000Y5133187D01*
X1632508Y5092192D01*
X1637487Y5087213D01*
X1752498Y5087213D01*
X1757527Y5092192D01*
X1757527Y5220208D01*
X1752498Y5225186D01*
G37*
G36*
X1422501Y5225186D02*
G01*
X1417523Y5220208D01*
X1417523Y5092192D01*
X1422501Y5087213D01*
X1537512Y5087213D01*
X1542491Y5092192D01*
X1541983Y5133187D01*
X1497990Y5133187D01*
X1497990Y5178196D01*
X1542491Y5178196D01*
X1542491Y5220208D01*
X1537512Y5225186D01*
G37*
G36*
X1341577Y6246520D02*
G01*
X1341577Y6216497D01*
X1436573Y6216497D01*
X1436573Y6246520D01*
G37*
G36*
X1341577Y6196533D02*
G01*
X1341577Y6166510D01*
X1436573Y6166510D01*
X1436573Y6196533D01*
G37*
G36*
X1341577Y6146495D02*
G01*
X1341577Y6116523D01*
X1436573Y6116523D01*
X1436573Y6146495D01*
G37*
G36*
X1341577Y6096508D02*
G01*
X1341577Y6066485D01*
X1436573Y6066485D01*
X1436573Y6096508D01*
G37*
G36*
X1341577Y6046520D02*
G01*
X1341577Y6016498D01*
X1436573Y6016498D01*
X1436573Y6046520D01*
G37*
G36*
X1341577Y5996533D02*
G01*
X1341577Y5966510D01*
X1436573Y5966510D01*
X1436573Y5996533D01*
G37*
G36*
X1341577Y5946495D02*
G01*
X1341577Y5916523D01*
X1436573Y5916523D01*
X1436573Y5946495D01*
G37*
G36*
X1341577Y5896508D02*
G01*
X1341577Y5866485D01*
X1436573Y5866485D01*
X1436573Y5896508D01*
G37*
G36*
X1341577Y5846521D02*
G01*
X1341577Y5816498D01*
X1436573Y5816498D01*
X1436573Y5846521D01*
G37*
G36*
X1341577Y5796534D02*
G01*
X1341577Y5766511D01*
X1436573Y5766511D01*
X1436573Y5796534D01*
G37*
G36*
X1341577Y5746496D02*
G01*
X1341577Y5716524D01*
X1436573Y5716524D01*
X1436573Y5746496D01*
G37*
G36*
X1341577Y5696508D02*
G01*
X1341577Y5666486D01*
X1436573Y5666486D01*
X1436573Y5696508D01*
G37*
G36*
X1211580Y5721502D02*
G01*
X1211580Y5691530D01*
X1306576Y5691530D01*
X1306576Y5721502D01*
G37*
G36*
X1211580Y5771489D02*
G01*
X1211580Y5741517D01*
X1306576Y5741517D01*
X1306576Y5771489D01*
G37*
G36*
X1211580Y5821527D02*
G01*
X1211580Y5791504D01*
X1306576Y5791504D01*
X1306576Y5821527D01*
G37*
G36*
X1211580Y5871514D02*
G01*
X1211580Y5841492D01*
X1306576Y5841492D01*
X1306576Y5871514D01*
G37*
G36*
X1211580Y5921502D02*
G01*
X1211580Y5891530D01*
X1306576Y5891530D01*
X1306576Y5921502D01*
G37*
G36*
X1211580Y5971489D02*
G01*
X1211580Y5941517D01*
X1306576Y5941517D01*
X1306576Y5971489D01*
G37*
G36*
X1211580Y6021527D02*
G01*
X1211580Y5991504D01*
X1306576Y5991504D01*
X1306576Y6021527D01*
G37*
G36*
X1211580Y6071514D02*
G01*
X1211580Y6041491D01*
X1306576Y6041491D01*
X1306576Y6071514D01*
G37*
G36*
X1211580Y6121501D02*
G01*
X1211580Y6091529D01*
X1306576Y6091529D01*
X1306576Y6121501D01*
G37*
G36*
X1211580Y6171488D02*
G01*
X1211580Y6141516D01*
X1306576Y6141516D01*
X1306576Y6171488D01*
G37*
G36*
X1211580Y6221526D02*
G01*
X1211580Y6191504D01*
X1306576Y6191504D01*
X1306576Y6221526D01*
G37*
G36*
X1211580Y6271514D02*
G01*
X1211580Y6241491D01*
X1306576Y6241491D01*
X1306576Y6271514D01*
G37*
G36*
X806551Y6450990D02*
G01*
X801573Y6450736D01*
X796645Y6450025D01*
X791819Y6448806D01*
X787146Y6447078D01*
X782624Y6444894D01*
X778357Y6442303D01*
X774395Y6439306D01*
X770737Y6435902D01*
X767435Y6432194D01*
X764540Y6428130D01*
X762050Y6423812D01*
X760018Y6419291D01*
X758393Y6414566D01*
X757326Y6409690D01*
X756666Y6404762D01*
X756564Y6399733D01*
X756920Y6394805D01*
X757783Y6389878D01*
X759155Y6385102D01*
X760984Y6380429D01*
X763270Y6376009D01*
X765962Y6371793D01*
X769061Y6367932D01*
X772515Y6364376D01*
X776376Y6361125D01*
X780491Y6358331D01*
X784860Y6355943D01*
X789432Y6354013D01*
X794207Y6352540D01*
X799084Y6351574D01*
X804062Y6351066D01*
X936548Y6351016D01*
X941527Y6351270D01*
X946454Y6351981D01*
X951280Y6353200D01*
X955954Y6354927D01*
X960475Y6357112D01*
X964692Y6359702D01*
X968705Y6362700D01*
X972362Y6366103D01*
X975664Y6369812D01*
X978560Y6373876D01*
X981049Y6378194D01*
X983081Y6382715D01*
X984656Y6387439D01*
X985774Y6392316D01*
X986434Y6397244D01*
X986536Y6402273D01*
X986180Y6407200D01*
X985316Y6412128D01*
X983945Y6416903D01*
X982116Y6421577D01*
X979830Y6425996D01*
X977137Y6430213D01*
X974039Y6434074D01*
X970534Y6437680D01*
X966724Y6440881D01*
X962609Y6443675D01*
X958240Y6446062D01*
X953668Y6447993D01*
X948893Y6449466D01*
X944016Y6450431D01*
X939037Y6450939D01*
G37*
G36*
X806551Y5586984D02*
G01*
X801573Y5586730D01*
X796645Y5586018D01*
X791819Y5584799D01*
X787146Y5583072D01*
X782624Y5580888D01*
X778357Y5578297D01*
X774395Y5575300D01*
X770737Y5571896D01*
X767435Y5568188D01*
X764540Y5564124D01*
X762050Y5559806D01*
X760018Y5555284D01*
X758393Y5550560D01*
X757326Y5545683D01*
X756666Y5540756D01*
X756564Y5535726D01*
X756920Y5530799D01*
X757783Y5525871D01*
X759155Y5521096D01*
X760984Y5516422D01*
X763270Y5512003D01*
X765962Y5507786D01*
X769061Y5503926D01*
X772515Y5500319D01*
X776376Y5497118D01*
X780491Y5494324D01*
X784860Y5491937D01*
X789432Y5490006D01*
X794207Y5488533D01*
X799084Y5487568D01*
X804062Y5487060D01*
X936548Y5487009D01*
X941527Y5487263D01*
X946454Y5487974D01*
X951280Y5489194D01*
X955954Y5490921D01*
X960475Y5493105D01*
X964692Y5495696D01*
X968705Y5498693D01*
X972362Y5502097D01*
X975664Y5505805D01*
X978560Y5509869D01*
X981049Y5514187D01*
X983081Y5518708D01*
X984656Y5523433D01*
X985774Y5528310D01*
X986434Y5533237D01*
X986536Y5538266D01*
X986180Y5543194D01*
X985316Y5548122D01*
X983945Y5552897D01*
X982116Y5557570D01*
X979830Y5561990D01*
X977137Y5566206D01*
X974039Y5570067D01*
X970534Y5573623D01*
X966724Y5576874D01*
X962609Y5579668D01*
X958240Y5582056D01*
X953668Y5583986D01*
X948893Y5585460D01*
X944016Y5586425D01*
X939037Y5586933D01*
G37*
G36*
X1275842Y5649366D02*
G01*
X1270914Y5649010D01*
X1265986Y5648147D01*
X1261211Y5646775D01*
X1256538Y5644946D01*
X1252118Y5642660D01*
X1247902Y5639968D01*
X1244041Y5636869D01*
X1240434Y5633364D01*
X1237234Y5629554D01*
X1234440Y5625439D01*
X1232052Y5621070D01*
X1230122Y5616498D01*
X1228648Y5611723D01*
X1227683Y5606846D01*
X1227175Y5601868D01*
X1227124Y5529376D01*
X1227378Y5524398D01*
X1228090Y5519470D01*
X1229309Y5514644D01*
X1231036Y5509971D01*
X1233220Y5505450D01*
X1235811Y5501233D01*
X1238808Y5497220D01*
X1242212Y5493562D01*
X1245920Y5490260D01*
X1249984Y5487365D01*
X1254302Y5484876D01*
X1258824Y5482844D01*
X1263548Y5481269D01*
X1268425Y5480151D01*
X1273352Y5479491D01*
X1278382Y5479389D01*
X1283309Y5479745D01*
X1288237Y5480608D01*
X1293012Y5481980D01*
X1297686Y5483809D01*
X1303934Y5487212D01*
X1383487Y5487263D01*
X1388465Y5487771D01*
X1393342Y5488736D01*
X1398117Y5490210D01*
X1402689Y5492140D01*
X1407058Y5494528D01*
X1411173Y5497322D01*
X1414983Y5500522D01*
X1418488Y5504129D01*
X1421587Y5507990D01*
X1424279Y5512206D01*
X1426565Y5516626D01*
X1428394Y5521299D01*
X1429766Y5526074D01*
X1430629Y5531002D01*
X1430985Y5535930D01*
X1430883Y5540959D01*
X1430223Y5545886D01*
X1429105Y5550763D01*
X1427530Y5555488D01*
X1425498Y5560009D01*
X1423009Y5564327D01*
X1420114Y5568391D01*
X1416812Y5572099D01*
X1413154Y5575503D01*
X1409141Y5578500D01*
X1404924Y5581091D01*
X1400403Y5583275D01*
X1395730Y5584952D01*
X1390904Y5586222D01*
X1385976Y5586933D01*
X1380998Y5587187D01*
X1327099Y5587187D01*
X1327048Y5601868D01*
X1326540Y5606846D01*
X1325575Y5611723D01*
X1324102Y5616498D01*
X1322171Y5621070D01*
X1319784Y5625439D01*
X1316990Y5629554D01*
X1313738Y5633364D01*
X1310182Y5636869D01*
X1306322Y5639968D01*
X1302105Y5642660D01*
X1297686Y5644946D01*
X1293012Y5646775D01*
X1288237Y5648147D01*
X1283309Y5649010D01*
G37*
G36*
X1275842Y6462166D02*
G01*
X1270914Y6461810D01*
X1265986Y6460947D01*
X1261211Y6459575D01*
X1256538Y6457746D01*
X1252118Y6455460D01*
X1247902Y6452768D01*
X1244041Y6449669D01*
X1240434Y6446164D01*
X1237234Y6442354D01*
X1234440Y6438239D01*
X1232052Y6433870D01*
X1230122Y6429298D01*
X1228648Y6424523D01*
X1227683Y6419646D01*
X1227175Y6414668D01*
X1227124Y6342176D01*
X1227378Y6337198D01*
X1228090Y6332270D01*
X1229309Y6327444D01*
X1231036Y6322771D01*
X1233220Y6318250D01*
X1235811Y6314033D01*
X1238808Y6310020D01*
X1242212Y6306362D01*
X1245920Y6303060D01*
X1249984Y6300165D01*
X1254302Y6297676D01*
X1258824Y6295644D01*
X1263548Y6294069D01*
X1268425Y6292951D01*
X1273352Y6292291D01*
X1278382Y6292189D01*
X1283309Y6292545D01*
X1288237Y6293408D01*
X1293012Y6294780D01*
X1297686Y6296609D01*
X1302105Y6298895D01*
X1306322Y6301587D01*
X1310182Y6304686D01*
X1313738Y6308191D01*
X1316990Y6312001D01*
X1319784Y6316116D01*
X1322171Y6320485D01*
X1324102Y6325057D01*
X1325575Y6329832D01*
X1326540Y6334709D01*
X1327048Y6339687D01*
X1327099Y6350812D01*
X1383487Y6350863D01*
X1388465Y6351371D01*
X1393342Y6352336D01*
X1398117Y6353810D01*
X1402689Y6355740D01*
X1407058Y6358128D01*
X1411173Y6360922D01*
X1414983Y6364122D01*
X1418488Y6367729D01*
X1421587Y6371590D01*
X1424279Y6375806D01*
X1426565Y6380226D01*
X1428394Y6384899D01*
X1429766Y6389674D01*
X1430629Y6394602D01*
X1430985Y6399530D01*
X1430883Y6404559D01*
X1430223Y6409486D01*
X1429105Y6414363D01*
X1427530Y6419088D01*
X1425498Y6423609D01*
X1423009Y6427927D01*
X1420114Y6431991D01*
X1416812Y6435699D01*
X1413154Y6439103D01*
X1409141Y6442100D01*
X1404924Y6444691D01*
X1400403Y6446875D01*
X1395730Y6448552D01*
X1390904Y6449822D01*
X1385976Y6450533D01*
X1380998Y6450787D01*
X1308862Y6450787D01*
X1306322Y6452768D01*
X1302105Y6455460D01*
X1297686Y6457746D01*
X1293012Y6459575D01*
X1288237Y6460947D01*
X1283309Y6461810D01*
G37*
G36*
X3071926Y5721502D02*
G01*
X3071926Y5691479D01*
X3166922Y5691479D01*
X3166922Y5721502D01*
G37*
G36*
X3071926Y5771489D02*
G01*
X3071926Y5741466D01*
X3166922Y5741466D01*
X3166922Y5771489D01*
G37*
G36*
X3071926Y5821476D02*
G01*
X3071926Y5791504D01*
X3166922Y5791504D01*
X3166922Y5821476D01*
G37*
G36*
X3071926Y5871514D02*
G01*
X3071926Y5841492D01*
X3166922Y5841492D01*
X3166922Y5871514D01*
G37*
G36*
X3071926Y5921502D02*
G01*
X3071926Y5891479D01*
X3166922Y5891479D01*
X3166922Y5921502D01*
G37*
G36*
X3071926Y5971489D02*
G01*
X3071926Y5941466D01*
X3166922Y5941466D01*
X3166922Y5971489D01*
G37*
G36*
X3071926Y6021476D02*
G01*
X3071926Y5991504D01*
X3166922Y5991504D01*
X3166922Y6021476D01*
G37*
G36*
X3071926Y6071514D02*
G01*
X3071926Y6041491D01*
X3166922Y6041491D01*
X3166922Y6071514D01*
G37*
G36*
X3071926Y6121501D02*
G01*
X3071926Y6091478D01*
X3166922Y6091478D01*
X3166922Y6121501D01*
G37*
G36*
X3071926Y6171488D02*
G01*
X3071926Y6141466D01*
X3166922Y6141466D01*
X3166922Y6171488D01*
G37*
G36*
X3071926Y6221476D02*
G01*
X3071926Y6191504D01*
X3166922Y6191504D01*
X3166922Y6221476D01*
G37*
G36*
X3071926Y6271514D02*
G01*
X3071926Y6241491D01*
X3166922Y6241491D01*
X3166922Y6271514D01*
G37*
G36*
X3201924Y6246469D02*
G01*
X3201924Y6216497D01*
X3296920Y6216497D01*
X3296920Y6246469D01*
G37*
G36*
X3201924Y6196482D02*
G01*
X3201924Y6166510D01*
X3296920Y6166510D01*
X3296920Y6196482D01*
G37*
G36*
X3201924Y6146495D02*
G01*
X3201924Y6116472D01*
X3296920Y6116472D01*
X3296920Y6146495D01*
G37*
G36*
X3201924Y6096508D02*
G01*
X3201924Y6066485D01*
X3296920Y6066485D01*
X3296920Y6096508D01*
G37*
G36*
X3201924Y6046470D02*
G01*
X3201924Y6016498D01*
X3296920Y6016498D01*
X3296920Y6046470D01*
G37*
G36*
X3201924Y5996482D02*
G01*
X3201924Y5966510D01*
X3296920Y5966510D01*
X3296920Y5996482D01*
G37*
G36*
X3201924Y5946495D02*
G01*
X3201924Y5916472D01*
X3296920Y5916472D01*
X3296920Y5946495D01*
G37*
G36*
X3201924Y5896508D02*
G01*
X3201924Y5866485D01*
X3296920Y5866485D01*
X3296920Y5896508D01*
G37*
G36*
X3201924Y5846470D02*
G01*
X3201924Y5816498D01*
X3296920Y5816498D01*
X3296920Y5846470D01*
G37*
G36*
X3201924Y5796483D02*
G01*
X3201924Y5766511D01*
X3296920Y5766511D01*
X3296920Y5796483D01*
G37*
G36*
X3201924Y5746496D02*
G01*
X3201924Y5716473D01*
X3296920Y5716473D01*
X3296920Y5746496D01*
G37*
G36*
X3201924Y5696508D02*
G01*
X3201924Y5666486D01*
X3296920Y5666486D01*
X3296920Y5696508D01*
G37*
G36*
X3571951Y5586984D02*
G01*
X3566972Y5586730D01*
X3562045Y5586018D01*
X3557219Y5584799D01*
X3552545Y5583072D01*
X3548024Y5580888D01*
X3543808Y5578297D01*
X3539794Y5575300D01*
X3536137Y5571896D01*
X3532835Y5568188D01*
X3529939Y5564124D01*
X3527450Y5559806D01*
X3525418Y5555284D01*
X3523843Y5550560D01*
X3522726Y5545683D01*
X3522065Y5540756D01*
X3521964Y5535726D01*
X3522319Y5530799D01*
X3523183Y5525871D01*
X3524554Y5521096D01*
X3526383Y5516422D01*
X3528669Y5512003D01*
X3531362Y5507786D01*
X3534460Y5503926D01*
X3537965Y5500319D01*
X3541776Y5497118D01*
X3545890Y5494324D01*
X3550259Y5491937D01*
X3554831Y5490006D01*
X3559606Y5488533D01*
X3564483Y5487568D01*
X3569462Y5487060D01*
X3701948Y5487009D01*
X3706926Y5487263D01*
X3711854Y5487974D01*
X3716680Y5489194D01*
X3721354Y5490921D01*
X3725875Y5493105D01*
X3730091Y5495696D01*
X3734104Y5498693D01*
X3737762Y5502097D01*
X3741064Y5505805D01*
X3743960Y5509869D01*
X3746449Y5514187D01*
X3748481Y5518708D01*
X3750056Y5523433D01*
X3751173Y5528310D01*
X3751834Y5533237D01*
X3751935Y5538266D01*
X3751579Y5543194D01*
X3750716Y5548122D01*
X3749344Y5552897D01*
X3747515Y5557570D01*
X3745229Y5561990D01*
X3742537Y5566206D01*
X3739438Y5570067D01*
X3735984Y5573623D01*
X3732123Y5576874D01*
X3728008Y5579668D01*
X3723640Y5582056D01*
X3719068Y5583986D01*
X3714292Y5585460D01*
X3709415Y5586425D01*
X3704437Y5586933D01*
G37*
G36*
X3571951Y6450990D02*
G01*
X3566972Y6450736D01*
X3562045Y6450025D01*
X3557219Y6448806D01*
X3552545Y6447078D01*
X3548024Y6444894D01*
X3543808Y6442303D01*
X3539794Y6439306D01*
X3536137Y6435902D01*
X3532835Y6432194D01*
X3529939Y6428130D01*
X3527450Y6423812D01*
X3525418Y6419291D01*
X3523843Y6414566D01*
X3522726Y6409690D01*
X3522065Y6404762D01*
X3521964Y6399733D01*
X3522319Y6394805D01*
X3523183Y6389878D01*
X3524554Y6385102D01*
X3526383Y6380429D01*
X3528669Y6376009D01*
X3531362Y6371793D01*
X3534460Y6367932D01*
X3537965Y6364376D01*
X3541776Y6361125D01*
X3545890Y6358331D01*
X3550259Y6355943D01*
X3554831Y6354013D01*
X3559606Y6352540D01*
X3564483Y6351574D01*
X3569462Y6351066D01*
X3701948Y6351016D01*
X3706926Y6351270D01*
X3711854Y6351981D01*
X3716680Y6353200D01*
X3721354Y6354927D01*
X3725875Y6357112D01*
X3730091Y6359702D01*
X3734104Y6362700D01*
X3737762Y6366103D01*
X3741064Y6369812D01*
X3743960Y6373876D01*
X3746449Y6378194D01*
X3748481Y6382715D01*
X3750056Y6387439D01*
X3751173Y6392316D01*
X3751834Y6397244D01*
X3751935Y6402273D01*
X3751579Y6407200D01*
X3750716Y6412128D01*
X3749344Y6416903D01*
X3747515Y6421577D01*
X3745229Y6425996D01*
X3742537Y6430213D01*
X3739438Y6434074D01*
X3735984Y6437680D01*
X3732123Y6440881D01*
X3728008Y6443675D01*
X3723640Y6446062D01*
X3719068Y6447993D01*
X3714292Y6449466D01*
X3709415Y6450431D01*
X3704437Y6450939D01*
G37*
G36*
X3230118Y6458610D02*
G01*
X3225190Y6458254D01*
X3220262Y6457391D01*
X3215487Y6456019D01*
X3210814Y6454190D01*
X3204565Y6450787D01*
X3125012Y6450736D01*
X3120034Y6450228D01*
X3115157Y6449263D01*
X3110382Y6447790D01*
X3105810Y6445859D01*
X3101441Y6443472D01*
X3097326Y6440678D01*
X3093516Y6437477D01*
X3090011Y6433870D01*
X3086912Y6430010D01*
X3084220Y6425793D01*
X3081934Y6421374D01*
X3080105Y6416700D01*
X3078734Y6411925D01*
X3077870Y6406997D01*
X3077514Y6402070D01*
X3077616Y6397040D01*
X3078276Y6392113D01*
X3079343Y6387236D01*
X3080969Y6382512D01*
X3083001Y6377990D01*
X3085490Y6373672D01*
X3088386Y6369608D01*
X3091688Y6365900D01*
X3095345Y6362496D01*
X3099308Y6359499D01*
X3103575Y6356908D01*
X3108096Y6354724D01*
X3112770Y6353048D01*
X3117596Y6351778D01*
X3122523Y6351066D01*
X3127502Y6350812D01*
X3181400Y6350812D01*
X3181451Y6336131D01*
X3181959Y6331153D01*
X3182924Y6326276D01*
X3184398Y6321501D01*
X3186328Y6316929D01*
X3188716Y6312560D01*
X3191510Y6308445D01*
X3194761Y6304635D01*
X3198317Y6301130D01*
X3202178Y6298031D01*
X3206394Y6295339D01*
X3210814Y6293053D01*
X3215487Y6291224D01*
X3220262Y6289852D01*
X3225190Y6288989D01*
X3230118Y6288633D01*
X3235147Y6288786D01*
X3240074Y6289395D01*
X3244951Y6290513D01*
X3249676Y6292088D01*
X3254197Y6294120D01*
X3258515Y6296609D01*
X3262579Y6299555D01*
X3266287Y6302806D01*
X3269691Y6306464D01*
X3272688Y6310477D01*
X3275279Y6314694D01*
X3277463Y6319215D01*
X3279140Y6323888D01*
X3280410Y6328714D01*
X3281121Y6333642D01*
X3281375Y6338620D01*
X3281324Y6411112D01*
X3280816Y6416090D01*
X3279851Y6420967D01*
X3278378Y6425742D01*
X3276447Y6430314D01*
X3274060Y6434683D01*
X3271265Y6438798D01*
X3268014Y6442608D01*
X3264458Y6446113D01*
X3260598Y6449212D01*
X3256381Y6451904D01*
X3251962Y6454190D01*
X3247288Y6456019D01*
X3242513Y6457391D01*
X3237585Y6458254D01*
G37*
G36*
X3230118Y5645810D02*
G01*
X3225190Y5645454D01*
X3220262Y5644591D01*
X3215487Y5643219D01*
X3210814Y5641390D01*
X3206394Y5639104D01*
X3202178Y5636412D01*
X3198317Y5633313D01*
X3194761Y5629808D01*
X3191510Y5625998D01*
X3188716Y5621883D01*
X3186328Y5617514D01*
X3184398Y5612942D01*
X3182924Y5608167D01*
X3181959Y5603290D01*
X3181451Y5598312D01*
X3181400Y5587187D01*
X3125012Y5587136D01*
X3120034Y5586628D01*
X3115157Y5585663D01*
X3110382Y5584190D01*
X3105810Y5582259D01*
X3101441Y5579872D01*
X3097326Y5577078D01*
X3093516Y5573877D01*
X3090011Y5570270D01*
X3086912Y5566410D01*
X3084220Y5562193D01*
X3081934Y5557774D01*
X3080105Y5553100D01*
X3078734Y5548325D01*
X3077870Y5543397D01*
X3077514Y5538470D01*
X3077616Y5533440D01*
X3078276Y5528513D01*
X3079343Y5523636D01*
X3080969Y5518912D01*
X3083001Y5514390D01*
X3085490Y5510072D01*
X3088386Y5506008D01*
X3091688Y5502300D01*
X3095345Y5498896D01*
X3099308Y5495899D01*
X3103575Y5493308D01*
X3108096Y5491124D01*
X3112770Y5489448D01*
X3117596Y5488178D01*
X3122523Y5487466D01*
X3127502Y5487212D01*
X3199638Y5487212D01*
X3202178Y5485231D01*
X3206394Y5482539D01*
X3210814Y5480253D01*
X3215487Y5478424D01*
X3220262Y5477052D01*
X3225190Y5476189D01*
X3230118Y5475833D01*
X3235147Y5475986D01*
X3240074Y5476595D01*
X3244951Y5477713D01*
X3249676Y5479288D01*
X3254197Y5481320D01*
X3258515Y5483809D01*
X3262579Y5486755D01*
X3266287Y5490006D01*
X3269691Y5493664D01*
X3272688Y5497677D01*
X3275279Y5501894D01*
X3277463Y5506415D01*
X3279140Y5511088D01*
X3280410Y5515914D01*
X3281121Y5520842D01*
X3281375Y5525820D01*
X3281324Y5598312D01*
X3280816Y5603290D01*
X3279851Y5608167D01*
X3278378Y5612942D01*
X3276447Y5617514D01*
X3274060Y5621883D01*
X3271265Y5625998D01*
X3268014Y5629808D01*
X3264458Y5633313D01*
X3260598Y5636412D01*
X3256381Y5639104D01*
X3251962Y5641390D01*
X3247288Y5643219D01*
X3242513Y5644591D01*
X3237585Y5645454D01*
G37*
D10*
G01*
X1206500Y5156200D03*
G01*
X1003300Y5156200D03*
M02*
