G04 Layer: BottomLayer*
G04 EasyEDA v6.5.48, 2025-03-23 21:54:44*
G04 e818f5d5cf304f8aac4085ec7bc2d957,b9277fd2045942759ab1a28cc0c323af,10*
G04 Gerber Generator version 0.2*
G04 Scale: 100 percent, Rotated: No, Reflected: No *
G04 Dimensions in millimeters *
G04 leading zeros omitted , absolute positions ,4 integer and 5 decimal *
%FSLAX45Y45*%
%MOMM*%

%ADD10C,0.2540*%
%ADD11R,1.8000X1.8000*%
%ADD12C,1.8000*%
%ADD13O,2.2999954X0.9999979999999999*%
%ADD14O,1.9500088X0.9999979999999999*%
%ADD15O,0.9999979999999999X1.6999966*%
%ADD16C,0.4500*%
%ADD17C,0.0142*%

%LPD*%
G36*
X2313178Y5708904D02*
G01*
X2309266Y5709716D01*
X2305913Y5711952D01*
X2303729Y5715304D01*
X2302052Y5719673D01*
X2295042Y5732424D01*
X2286457Y5744159D01*
X2276500Y5754776D01*
X2265273Y5764072D01*
X2253030Y5771845D01*
X2239822Y5778042D01*
X2226005Y5782564D01*
X2211476Y5785307D01*
X2207818Y5786831D01*
X2204974Y5789625D01*
X2203450Y5793333D01*
X2203450Y5797296D01*
X2204974Y5800953D01*
X2207818Y5803798D01*
X2211476Y5805271D01*
X2226005Y5808065D01*
X2239822Y5812536D01*
X2253030Y5818733D01*
X2265273Y5826556D01*
X2276500Y5835802D01*
X2286457Y5846419D01*
X2295042Y5858205D01*
X2302052Y5870956D01*
X2303729Y5875274D01*
X2305913Y5878626D01*
X2309266Y5880912D01*
X2313178Y5881674D01*
X2969666Y5881674D01*
X2973628Y5880862D01*
X2976930Y5878576D01*
X2979115Y5875172D01*
X2979826Y5871210D01*
X2978912Y5867298D01*
X2976524Y5863996D01*
X2974136Y5861862D01*
X2968802Y5854750D01*
X2964789Y5846775D01*
X2962351Y5838190D01*
X2961538Y5829300D01*
X2962351Y5820410D01*
X2964789Y5811824D01*
X2968802Y5803849D01*
X2974136Y5796737D01*
X2980740Y5790692D01*
X2988360Y5786018D01*
X2996641Y5782767D01*
X3005429Y5781141D01*
X3014370Y5781141D01*
X3023158Y5782767D01*
X3031439Y5786018D01*
X3039059Y5790692D01*
X3045663Y5796737D01*
X3050997Y5803849D01*
X3055010Y5811824D01*
X3057448Y5820410D01*
X3058261Y5829300D01*
X3057448Y5838190D01*
X3055010Y5846775D01*
X3050997Y5854750D01*
X3045663Y5861862D01*
X3043275Y5863996D01*
X3040888Y5867298D01*
X3039973Y5871210D01*
X3040684Y5875172D01*
X3042869Y5878576D01*
X3046171Y5880862D01*
X3050133Y5881674D01*
X3228898Y5881674D01*
X3232810Y5880912D01*
X3236112Y5878728D01*
X3338423Y5776366D01*
X3340658Y5773013D01*
X3341420Y5769102D01*
X3340557Y5765190D01*
X3338271Y5761888D01*
X3334918Y5759704D01*
X3331260Y5758281D01*
X3326129Y5755132D01*
X3323590Y5754014D01*
X3320796Y5753608D01*
X3315208Y5753608D01*
X3307181Y5752795D01*
X3299968Y5750610D01*
X3293262Y5747054D01*
X3287064Y5741924D01*
X3256991Y5711901D01*
X3253689Y5709666D01*
X3249777Y5708904D01*
G37*

%LPD*%
G36*
X737362Y5575909D02*
G01*
X733094Y5576316D01*
X729386Y5578398D01*
X726846Y5581853D01*
X725932Y5586018D01*
X725932Y6351981D01*
X726846Y6356197D01*
X729386Y6359601D01*
X733094Y6361734D01*
X737362Y6362090D01*
X741375Y6360668D01*
X744474Y6357721D01*
X747217Y6353708D01*
X754938Y6345377D01*
X763828Y6338316D01*
X773633Y6332626D01*
X784199Y6328511D01*
X795274Y6325971D01*
X806958Y6325108D01*
X822807Y6325108D01*
X826668Y6324346D01*
X829970Y6322110D01*
X832154Y6318808D01*
X832967Y6314948D01*
X832967Y5623052D01*
X832154Y5619191D01*
X829970Y5615889D01*
X826668Y5613704D01*
X822807Y5612892D01*
X806958Y5612892D01*
X795274Y5612028D01*
X784199Y5609539D01*
X773633Y5605373D01*
X763828Y5599684D01*
X754938Y5592622D01*
X747217Y5584342D01*
X744474Y5580278D01*
X741375Y5577332D01*
G37*

%LPD*%
G36*
X3772662Y5573674D02*
G01*
X3768648Y5575096D01*
X3765550Y5578043D01*
X3761282Y5584291D01*
X3753561Y5592622D01*
X3744671Y5599684D01*
X3734866Y5605373D01*
X3724300Y5609488D01*
X3713276Y5612028D01*
X3701542Y5612892D01*
X3685743Y5612892D01*
X3681831Y5613654D01*
X3678529Y5615889D01*
X3676345Y5619191D01*
X3675583Y5623052D01*
X3675583Y6314897D01*
X3676345Y6318808D01*
X3678529Y6322110D01*
X3681831Y6324295D01*
X3685743Y6325057D01*
X3701542Y6325057D01*
X3713276Y6325971D01*
X3724300Y6328460D01*
X3734866Y6332626D01*
X3744671Y6338316D01*
X3753561Y6345377D01*
X3761282Y6353657D01*
X3765550Y6359956D01*
X3768648Y6362903D01*
X3772662Y6364325D01*
X3776929Y6363919D01*
X3780637Y6361836D01*
X3783177Y6358382D01*
X3784092Y6354216D01*
X3784092Y5583783D01*
X3783177Y5579567D01*
X3780637Y5576163D01*
X3776929Y5574030D01*
G37*

%LPD*%
G36*
X3295751Y5458714D02*
G01*
X3292043Y5459425D01*
X3288842Y5461406D01*
X3286607Y5464454D01*
X3285591Y5468112D01*
X3286048Y5471871D01*
X3287776Y5475173D01*
X3294075Y5483098D01*
X3300069Y5493461D01*
X3302355Y5496153D01*
X3305403Y5497931D01*
X3308858Y5498541D01*
X3371342Y5498490D01*
X3375050Y5497779D01*
X3378200Y5495848D01*
X3380435Y5492851D01*
X3381451Y5489244D01*
X3381146Y5485536D01*
X3379825Y5480913D01*
X3378809Y5478576D01*
X3377234Y5476544D01*
X3362401Y5461660D01*
X3359099Y5459476D01*
X3355187Y5458714D01*
G37*

%LPD*%
G36*
X2323084Y5458714D02*
G01*
X2319223Y5459476D01*
X2315921Y5461660D01*
X2313686Y5464962D01*
X2312924Y5468874D01*
X2312924Y5509514D01*
X2312212Y5515864D01*
X2310333Y5521299D01*
X2307234Y5526227D01*
X2303119Y5530291D01*
X2298242Y5533390D01*
X2292756Y5535269D01*
X2286457Y5535980D01*
X2217826Y5535980D01*
X2213660Y5536895D01*
X2210257Y5539384D01*
X2208123Y5543092D01*
X2207717Y5547360D01*
X2209088Y5551373D01*
X2211984Y5554472D01*
X2215946Y5556148D01*
X2226005Y5558078D01*
X2239822Y5562549D01*
X2253030Y5568746D01*
X2265273Y5576570D01*
X2276500Y5585815D01*
X2286457Y5596432D01*
X2295042Y5608218D01*
X2302052Y5620969D01*
X2303729Y5625287D01*
X2305913Y5628640D01*
X2309266Y5630875D01*
X2313178Y5631688D01*
X3111296Y5631688D01*
X3115411Y5630824D01*
X3118815Y5628335D01*
X3120948Y5624728D01*
X3121406Y5620562D01*
X3120136Y5616549D01*
X3117342Y5613400D01*
X3113532Y5611622D01*
X3105150Y5609691D01*
X3094583Y5605576D01*
X3084728Y5599887D01*
X3075889Y5592826D01*
X3068167Y5584494D01*
X3061766Y5575147D01*
X3056839Y5564936D01*
X3053537Y5554065D01*
X3051810Y5542838D01*
X3051810Y5531510D01*
X3053537Y5520283D01*
X3056839Y5509463D01*
X3061766Y5499252D01*
X3068167Y5489905D01*
X3075889Y5481574D01*
X3081832Y5476798D01*
X3084525Y5473598D01*
X3085642Y5469636D01*
X3085134Y5465521D01*
X3082950Y5461965D01*
X3079597Y5459526D01*
X3075533Y5458714D01*
G37*

%LPD*%
G36*
X736092Y4826508D02*
G01*
X732180Y4827270D01*
X728929Y4829505D01*
X726694Y4832756D01*
X725932Y4836668D01*
X725932Y5488025D01*
X726846Y5492191D01*
X729386Y5495645D01*
X733094Y5497728D01*
X737362Y5498084D01*
X741375Y5496661D01*
X744474Y5493715D01*
X747217Y5489702D01*
X754938Y5481370D01*
X763828Y5474309D01*
X773633Y5468620D01*
X784199Y5464505D01*
X795274Y5461965D01*
X806958Y5461101D01*
X936193Y5461101D01*
X947877Y5461965D01*
X958900Y5464505D01*
X969467Y5468620D01*
X979322Y5474309D01*
X988161Y5481370D01*
X995883Y5489702D01*
X998778Y5493969D01*
X1001064Y5496306D01*
X1003960Y5497880D01*
X1007160Y5498388D01*
X1201775Y5498388D01*
X1205230Y5497779D01*
X1208278Y5496001D01*
X1210564Y5493308D01*
X1214424Y5486603D01*
X1221486Y5477764D01*
X1229817Y5470042D01*
X1239164Y5463641D01*
X1249375Y5458714D01*
X1260246Y5455412D01*
X1271422Y5453684D01*
X1282801Y5453684D01*
X1293977Y5455412D01*
X1304848Y5458714D01*
X1310233Y5461050D01*
X1312519Y5461304D01*
X1380642Y5461304D01*
X1392326Y5462168D01*
X1403350Y5464708D01*
X1413916Y5468823D01*
X1423771Y5474512D01*
X1432610Y5481574D01*
X1440332Y5489905D01*
X1446733Y5499252D01*
X1451660Y5509514D01*
X1454962Y5520334D01*
X1456690Y5531561D01*
X1456690Y5542889D01*
X1454962Y5554116D01*
X1451660Y5564936D01*
X1446733Y5575147D01*
X1440332Y5584545D01*
X1432610Y5592826D01*
X1423771Y5599887D01*
X1413916Y5605576D01*
X1403350Y5609742D01*
X1392326Y5612231D01*
X1380642Y5613095D01*
X1359712Y5613095D01*
X1356360Y5613704D01*
X1353362Y5615330D01*
X1351076Y5617870D01*
X1345488Y5632297D01*
X1339799Y5642102D01*
X1332738Y5650992D01*
X1324406Y5658713D01*
X1315059Y5665063D01*
X1304848Y5669991D01*
X1293977Y5673344D01*
X1282801Y5675020D01*
X1271422Y5675020D01*
X1260246Y5673344D01*
X1249375Y5669991D01*
X1235862Y5663539D01*
X1232458Y5663234D01*
X1229106Y5664098D01*
X1226261Y5665978D01*
X1223314Y5668772D01*
X1215745Y5673801D01*
X1207312Y5677408D01*
X1198422Y5679440D01*
X1189329Y5679846D01*
X1180287Y5678627D01*
X1171600Y5675782D01*
X1163574Y5671464D01*
X1156462Y5665774D01*
X1150467Y5658916D01*
X1145794Y5651093D01*
X1142593Y5642559D01*
X1140968Y5633567D01*
X1140968Y5624474D01*
X1142593Y5615482D01*
X1145794Y5606948D01*
X1150467Y5599125D01*
X1156309Y5592470D01*
X1158240Y5589117D01*
X1158798Y5585307D01*
X1157884Y5581548D01*
X1155649Y5578398D01*
X1152398Y5576316D01*
X1148638Y5575604D01*
X1007211Y5575604D01*
X1003960Y5576112D01*
X1001064Y5577687D01*
X998778Y5580024D01*
X995883Y5584342D01*
X988161Y5592622D01*
X979322Y5599684D01*
X969467Y5605373D01*
X958900Y5609539D01*
X947877Y5612028D01*
X936193Y5612892D01*
X920343Y5612892D01*
X916432Y5613704D01*
X913130Y5615889D01*
X910945Y5619191D01*
X910183Y5623052D01*
X910183Y6314948D01*
X910945Y6318808D01*
X913130Y6322110D01*
X916432Y6324346D01*
X920343Y6325108D01*
X936193Y6325108D01*
X947877Y6325971D01*
X958900Y6328511D01*
X969467Y6332626D01*
X977392Y6337198D01*
X979830Y6338214D01*
X982471Y6338570D01*
X1133957Y6338570D01*
X1137767Y6337808D01*
X1141018Y6335674D01*
X1143254Y6332474D01*
X1144066Y6328664D01*
X1143457Y6324854D01*
X1142593Y6322517D01*
X1140968Y6313576D01*
X1140968Y6304432D01*
X1142593Y6295491D01*
X1145794Y6286957D01*
X1150467Y6279083D01*
X1156462Y6272225D01*
X1163574Y6266535D01*
X1171600Y6262217D01*
X1180287Y6259423D01*
X1189329Y6258204D01*
X1198422Y6258610D01*
X1207312Y6260642D01*
X1215745Y6264198D01*
X1223314Y6269228D01*
X1228598Y6274257D01*
X1232052Y6276441D01*
X1236065Y6277051D01*
X1240028Y6276086D01*
X1249375Y6271564D01*
X1260246Y6268212D01*
X1271422Y6266535D01*
X1282801Y6266535D01*
X1293977Y6268212D01*
X1304848Y6271564D01*
X1315059Y6276441D01*
X1324406Y6282842D01*
X1332738Y6290564D01*
X1339799Y6299454D01*
X1345488Y6309258D01*
X1349095Y6318453D01*
X1351280Y6321856D01*
X1354582Y6324092D01*
X1358544Y6324904D01*
X1380642Y6324904D01*
X1392326Y6325768D01*
X1403350Y6328308D01*
X1413916Y6332423D01*
X1423771Y6338112D01*
X1432610Y6345174D01*
X1440332Y6353505D01*
X1446733Y6362852D01*
X1451660Y6373063D01*
X1454962Y6383934D01*
X1456690Y6395161D01*
X1456690Y6406489D01*
X1454962Y6417716D01*
X1451660Y6428536D01*
X1446733Y6438747D01*
X1440332Y6448094D01*
X1432610Y6456426D01*
X1423771Y6463487D01*
X1413916Y6469176D01*
X1403350Y6473291D01*
X1392326Y6475831D01*
X1380642Y6476695D01*
X1319834Y6476695D01*
X1315415Y6477711D01*
X1304848Y6482791D01*
X1293977Y6486144D01*
X1282801Y6487871D01*
X1271422Y6487871D01*
X1260246Y6486144D01*
X1249375Y6482791D01*
X1239164Y6477914D01*
X1229817Y6471513D01*
X1221486Y6463792D01*
X1214424Y6454902D01*
X1208735Y6445097D01*
X1204620Y6434531D01*
X1202131Y6423660D01*
X1200810Y6420561D01*
X1198575Y6418021D01*
X1195578Y6416344D01*
X1192225Y6415786D01*
X1018692Y6415786D01*
X1014526Y6416700D01*
X1011072Y6419240D01*
X1008989Y6422948D01*
X1007211Y6428740D01*
X1002284Y6438950D01*
X995883Y6448298D01*
X988161Y6456629D01*
X979322Y6463690D01*
X969467Y6469380D01*
X958900Y6473494D01*
X947877Y6476034D01*
X936193Y6476898D01*
X806958Y6476898D01*
X795274Y6476034D01*
X784199Y6473494D01*
X773633Y6469380D01*
X763828Y6463690D01*
X754938Y6456629D01*
X747217Y6448298D01*
X744474Y6444284D01*
X741375Y6441338D01*
X737362Y6439916D01*
X733094Y6440322D01*
X729386Y6442405D01*
X726846Y6445859D01*
X725932Y6450025D01*
X725932Y7163816D01*
X726694Y7167727D01*
X728929Y7170978D01*
X732180Y7173214D01*
X736092Y7173975D01*
X3773932Y7173975D01*
X3777843Y7173214D01*
X3781094Y7170978D01*
X3783329Y7167727D01*
X3784092Y7163816D01*
X3784092Y6447739D01*
X3783177Y6443573D01*
X3780637Y6440119D01*
X3776929Y6438036D01*
X3772662Y6437680D01*
X3768648Y6439103D01*
X3765550Y6442049D01*
X3761282Y6448298D01*
X3753561Y6456629D01*
X3744671Y6463690D01*
X3734866Y6469380D01*
X3724300Y6473494D01*
X3713276Y6476034D01*
X3701542Y6476898D01*
X3572306Y6476898D01*
X3560622Y6476034D01*
X3549599Y6473494D01*
X3539032Y6469380D01*
X3529177Y6463690D01*
X3520338Y6456629D01*
X3512616Y6448298D01*
X3506215Y6438950D01*
X3501288Y6428689D01*
X3498443Y6419392D01*
X3496360Y6415684D01*
X3492906Y6413144D01*
X3488740Y6412230D01*
X3316274Y6412230D01*
X3312922Y6412788D01*
X3309924Y6414465D01*
X3307689Y6417005D01*
X3306368Y6420104D01*
X3303879Y6430975D01*
X3299764Y6441541D01*
X3294075Y6451396D01*
X3287014Y6460236D01*
X3278682Y6467957D01*
X3269335Y6474358D01*
X3259124Y6479286D01*
X3248253Y6482588D01*
X3237077Y6484315D01*
X3225698Y6484315D01*
X3214522Y6482588D01*
X3203651Y6479286D01*
X3198266Y6476949D01*
X3195980Y6476695D01*
X3127857Y6476695D01*
X3116173Y6475831D01*
X3105150Y6473291D01*
X3094583Y6469176D01*
X3084728Y6463487D01*
X3075889Y6456426D01*
X3068167Y6448094D01*
X3061766Y6438747D01*
X3056839Y6428486D01*
X3053537Y6417665D01*
X3051810Y6406438D01*
X3051810Y6395110D01*
X3053537Y6383883D01*
X3056839Y6373063D01*
X3061766Y6362852D01*
X3068167Y6353454D01*
X3075889Y6345174D01*
X3084728Y6338112D01*
X3094583Y6332423D01*
X3105150Y6328257D01*
X3116173Y6325768D01*
X3127857Y6324854D01*
X3148787Y6324854D01*
X3152140Y6324295D01*
X3155137Y6322669D01*
X3157423Y6320129D01*
X3163011Y6305702D01*
X3168700Y6295898D01*
X3175762Y6287008D01*
X3184093Y6279286D01*
X3193440Y6272936D01*
X3203651Y6268008D01*
X3214522Y6264656D01*
X3225698Y6262979D01*
X3237077Y6262979D01*
X3248253Y6264656D01*
X3259124Y6268008D01*
X3269335Y6272936D01*
X3273298Y6274562D01*
X3277565Y6274358D01*
X3281375Y6272479D01*
X3288842Y6266535D01*
X3296869Y6262217D01*
X3305556Y6259372D01*
X3314598Y6258153D01*
X3323691Y6258560D01*
X3332581Y6260592D01*
X3341014Y6264198D01*
X3348583Y6269228D01*
X3355187Y6275527D01*
X3360572Y6282893D01*
X3364484Y6291122D01*
X3366922Y6299911D01*
X3367735Y6308953D01*
X3366922Y6318046D01*
X3365804Y6322161D01*
X3365500Y6325870D01*
X3366515Y6329426D01*
X3368801Y6332372D01*
X3371951Y6334353D01*
X3375609Y6335014D01*
X3532174Y6335014D01*
X3534765Y6334658D01*
X3539032Y6332626D01*
X3549599Y6328460D01*
X3560622Y6325971D01*
X3572306Y6325057D01*
X3588207Y6325057D01*
X3592068Y6324295D01*
X3595370Y6322110D01*
X3597554Y6318808D01*
X3598367Y6314897D01*
X3598367Y5623052D01*
X3597554Y5619191D01*
X3595370Y5615889D01*
X3592068Y5613654D01*
X3588207Y5612892D01*
X3572306Y5612892D01*
X3560622Y5612028D01*
X3549599Y5609488D01*
X3539032Y5605373D01*
X3529177Y5599684D01*
X3520338Y5592622D01*
X3512616Y5584291D01*
X3509721Y5580075D01*
X3507486Y5577687D01*
X3504590Y5576163D01*
X3501339Y5575604D01*
X3359759Y5575706D01*
X3355848Y5576519D01*
X3352546Y5578754D01*
X3350361Y5582107D01*
X3349650Y5586018D01*
X3350463Y5589930D01*
X3352749Y5593232D01*
X3355187Y5595518D01*
X3360572Y5602884D01*
X3364484Y5611114D01*
X3366922Y5619902D01*
X3367735Y5628995D01*
X3366922Y5638088D01*
X3364484Y5646877D01*
X3360724Y5654700D01*
X3359759Y5658713D01*
X3360470Y5662828D01*
X3362756Y5666282D01*
X3366211Y5668568D01*
X3374339Y5671718D01*
X3381959Y5676392D01*
X3388563Y5682437D01*
X3393897Y5689549D01*
X3397910Y5697524D01*
X3400348Y5706110D01*
X3401161Y5715000D01*
X3400450Y5722620D01*
X3401009Y5726938D01*
X3403295Y5730646D01*
X3406901Y5733034D01*
X3412439Y5735218D01*
X3420059Y5739892D01*
X3426663Y5745937D01*
X3431997Y5753049D01*
X3436010Y5761024D01*
X3438448Y5769610D01*
X3439261Y5778500D01*
X3438448Y5787390D01*
X3436010Y5795975D01*
X3431997Y5803950D01*
X3426663Y5811062D01*
X3420059Y5817108D01*
X3412439Y5821781D01*
X3404158Y5825032D01*
X3400907Y5825642D01*
X3398012Y5826607D01*
X3395573Y5828436D01*
X3276752Y5947257D01*
X3270503Y5952337D01*
X3263849Y5955944D01*
X3256635Y5958128D01*
X3248609Y5958890D01*
X2313178Y5958890D01*
X2309266Y5959703D01*
X2305913Y5961938D01*
X2303729Y5965342D01*
X2302052Y5969660D01*
X2295042Y5982411D01*
X2289149Y5990437D01*
X2287422Y5994552D01*
X2287524Y5998972D01*
X2289556Y6002883D01*
X2293061Y6005626D01*
X2297379Y6006592D01*
X3319678Y6006592D01*
X3322726Y6006134D01*
X3325520Y6004712D01*
X3327755Y6002578D01*
X3329736Y5999937D01*
X3336340Y5993892D01*
X3343960Y5989218D01*
X3352241Y5985967D01*
X3361029Y5984341D01*
X3369970Y5984341D01*
X3378758Y5985967D01*
X3387039Y5989218D01*
X3394659Y5993892D01*
X3401263Y5999937D01*
X3406597Y6007049D01*
X3410610Y6015024D01*
X3413048Y6023610D01*
X3413861Y6032500D01*
X3413048Y6041390D01*
X3410610Y6049975D01*
X3406597Y6057950D01*
X3401720Y6064453D01*
X3399891Y6068415D01*
X3399891Y6072784D01*
X3401720Y6076746D01*
X3406597Y6083249D01*
X3410610Y6091224D01*
X3413048Y6099810D01*
X3413861Y6108700D01*
X3413048Y6117590D01*
X3410610Y6126175D01*
X3406597Y6134150D01*
X3401263Y6141262D01*
X3394659Y6147308D01*
X3387039Y6151981D01*
X3378758Y6155232D01*
X3369970Y6156858D01*
X3361029Y6156858D01*
X3352241Y6155232D01*
X3343960Y6151981D01*
X3336340Y6147308D01*
X3329736Y6141262D01*
X3324402Y6134150D01*
X3320389Y6126175D01*
X3317951Y6117590D01*
X3317138Y6108700D01*
X3317951Y6099810D01*
X3318814Y6096762D01*
X3319170Y6093053D01*
X3318154Y6089446D01*
X3315919Y6086449D01*
X3312718Y6084519D01*
X3309061Y6083808D01*
X2297226Y6083808D01*
X2292908Y6084773D01*
X2289403Y6087516D01*
X2287371Y6091428D01*
X2287270Y6095847D01*
X2288997Y6099962D01*
X2295042Y6108192D01*
X2302052Y6120942D01*
X2307386Y6134506D01*
X2310993Y6148578D01*
X2312822Y6163056D01*
X2312822Y6177584D01*
X2310993Y6192012D01*
X2307386Y6206134D01*
X2302052Y6219647D01*
X2295042Y6232398D01*
X2286457Y6244183D01*
X2276500Y6254800D01*
X2265273Y6264046D01*
X2253030Y6271869D01*
X2239822Y6278067D01*
X2226005Y6282537D01*
X2211476Y6285331D01*
X2207818Y6286804D01*
X2204974Y6289649D01*
X2203450Y6293307D01*
X2203450Y6297269D01*
X2204974Y6300978D01*
X2207818Y6303772D01*
X2211476Y6305296D01*
X2226005Y6308039D01*
X2239822Y6312560D01*
X2253030Y6318758D01*
X2265273Y6326530D01*
X2276500Y6335826D01*
X2286457Y6346444D01*
X2295042Y6358178D01*
X2302052Y6370929D01*
X2307386Y6384493D01*
X2310993Y6398564D01*
X2312822Y6413042D01*
X2312822Y6427571D01*
X2310993Y6441998D01*
X2307386Y6456121D01*
X2302052Y6469634D01*
X2295042Y6482384D01*
X2286457Y6494170D01*
X2276500Y6504787D01*
X2265273Y6514033D01*
X2253030Y6521856D01*
X2239822Y6528054D01*
X2226005Y6532524D01*
X2211679Y6535267D01*
X2197150Y6536181D01*
X2182672Y6535267D01*
X2168347Y6532524D01*
X2154529Y6528054D01*
X2141321Y6521856D01*
X2129078Y6514033D01*
X2117852Y6504787D01*
X2107895Y6494170D01*
X2099310Y6482384D01*
X2092299Y6469634D01*
X2086965Y6456121D01*
X2083358Y6441998D01*
X2081530Y6427571D01*
X2081530Y6413042D01*
X2083358Y6398564D01*
X2086965Y6384493D01*
X2092299Y6370929D01*
X2099310Y6358178D01*
X2107895Y6346444D01*
X2117852Y6335826D01*
X2129078Y6326530D01*
X2141321Y6318758D01*
X2154529Y6312560D01*
X2168347Y6308039D01*
X2182876Y6305296D01*
X2186533Y6303772D01*
X2189378Y6300978D01*
X2190902Y6297269D01*
X2190902Y6293307D01*
X2189378Y6289649D01*
X2186533Y6286804D01*
X2182876Y6285331D01*
X2168347Y6282537D01*
X2154529Y6278067D01*
X2141321Y6271869D01*
X2129078Y6264046D01*
X2117852Y6254800D01*
X2107895Y6244183D01*
X2099310Y6232398D01*
X2092299Y6219647D01*
X2086965Y6206134D01*
X2083358Y6192012D01*
X2081530Y6177584D01*
X2081530Y6163056D01*
X2083358Y6148578D01*
X2086965Y6134506D01*
X2092299Y6120942D01*
X2099310Y6108192D01*
X2105355Y6099962D01*
X2107082Y6095847D01*
X2106980Y6091428D01*
X2104948Y6087516D01*
X2101443Y6084773D01*
X2097125Y6083808D01*
X1270508Y6083808D01*
X1262481Y6082995D01*
X1255268Y6080810D01*
X1248562Y6077254D01*
X1242364Y6072124D01*
X1125626Y5955436D01*
X1123188Y5953607D01*
X1120292Y5952642D01*
X1117041Y5952032D01*
X1108760Y5948781D01*
X1101140Y5944108D01*
X1094536Y5938062D01*
X1089202Y5930950D01*
X1085189Y5922975D01*
X1082751Y5914390D01*
X1081938Y5905500D01*
X1082751Y5896610D01*
X1085189Y5888024D01*
X1089202Y5880049D01*
X1094079Y5873546D01*
X1095908Y5869584D01*
X1095908Y5865215D01*
X1094079Y5861253D01*
X1089202Y5854750D01*
X1085189Y5846775D01*
X1082751Y5838190D01*
X1081938Y5829300D01*
X1082751Y5820410D01*
X1085189Y5811824D01*
X1089202Y5803849D01*
X1094536Y5796737D01*
X1101140Y5790692D01*
X1108760Y5786018D01*
X1117041Y5782767D01*
X1125829Y5781141D01*
X1134770Y5781141D01*
X1143558Y5782767D01*
X1151839Y5786018D01*
X1159459Y5790692D01*
X1166063Y5796737D01*
X1171397Y5803849D01*
X1175410Y5811824D01*
X1177848Y5820410D01*
X1178661Y5829300D01*
X1177848Y5838190D01*
X1175410Y5846775D01*
X1171397Y5854750D01*
X1166520Y5861253D01*
X1164691Y5865215D01*
X1164691Y5869584D01*
X1166520Y5873546D01*
X1171397Y5880049D01*
X1175410Y5888024D01*
X1177848Y5896610D01*
X1178864Y5898997D01*
X1180439Y5901029D01*
X1283004Y6003594D01*
X1286306Y6005830D01*
X1290218Y6006592D01*
X2096973Y6006592D01*
X2101291Y6005626D01*
X2104796Y6002883D01*
X2106828Y5998972D01*
X2106930Y5994552D01*
X2105202Y5990437D01*
X2099310Y5982411D01*
X2092299Y5969660D01*
X2086965Y5956096D01*
X2083358Y5942025D01*
X2081530Y5927547D01*
X2081530Y5913018D01*
X2083358Y5898591D01*
X2086965Y5884468D01*
X2092299Y5870956D01*
X2099310Y5858205D01*
X2107895Y5846419D01*
X2117852Y5835802D01*
X2129078Y5826556D01*
X2141321Y5818733D01*
X2154529Y5812536D01*
X2168347Y5808065D01*
X2182876Y5805271D01*
X2186533Y5803798D01*
X2189378Y5800953D01*
X2190902Y5797296D01*
X2190902Y5793333D01*
X2189378Y5789625D01*
X2186533Y5786831D01*
X2182876Y5785307D01*
X2168347Y5782564D01*
X2154529Y5778042D01*
X2141321Y5771845D01*
X2129078Y5764072D01*
X2117852Y5754776D01*
X2107895Y5744159D01*
X2099310Y5732424D01*
X2092299Y5719673D01*
X2086965Y5706110D01*
X2083358Y5692038D01*
X2081530Y5677560D01*
X2081530Y5663031D01*
X2083358Y5648604D01*
X2086965Y5634482D01*
X2092299Y5620969D01*
X2099310Y5608218D01*
X2107895Y5596432D01*
X2117852Y5585815D01*
X2129078Y5576570D01*
X2141321Y5568746D01*
X2154529Y5562549D01*
X2168347Y5558078D01*
X2178405Y5556148D01*
X2182368Y5554472D01*
X2185263Y5551373D01*
X2186635Y5547360D01*
X2186228Y5543092D01*
X2184095Y5539384D01*
X2180691Y5536895D01*
X2176526Y5535980D01*
X2107590Y5535980D01*
X2101291Y5535269D01*
X2095804Y5533390D01*
X2090928Y5530291D01*
X2086813Y5526227D01*
X2083714Y5521299D01*
X2081834Y5515864D01*
X2081123Y5509514D01*
X2081123Y5330647D01*
X2081834Y5324348D01*
X2083714Y5318861D01*
X2086813Y5313984D01*
X2090928Y5309870D01*
X2095804Y5306822D01*
X2101291Y5304891D01*
X2107590Y5304180D01*
X2286457Y5304180D01*
X2292756Y5304891D01*
X2298242Y5306822D01*
X2303119Y5309870D01*
X2307234Y5313984D01*
X2310333Y5318861D01*
X2312212Y5324348D01*
X2312924Y5330647D01*
X2312924Y5371338D01*
X2313686Y5375198D01*
X2315921Y5378500D01*
X2319223Y5380736D01*
X2323084Y5381498D01*
X3374898Y5381498D01*
X3382924Y5382260D01*
X3390137Y5384444D01*
X3396792Y5388051D01*
X3403041Y5393131D01*
X3432048Y5422138D01*
X3434486Y5423916D01*
X3437331Y5424932D01*
X3440582Y5425541D01*
X3448913Y5428742D01*
X3456482Y5433466D01*
X3463086Y5439460D01*
X3468471Y5446572D01*
X3472434Y5454599D01*
X3474872Y5463184D01*
X3475736Y5472074D01*
X3474872Y5480964D01*
X3473602Y5485485D01*
X3473246Y5489194D01*
X3474262Y5492800D01*
X3476548Y5495798D01*
X3479698Y5497728D01*
X3483356Y5498439D01*
X3501288Y5498388D01*
X3504539Y5497880D01*
X3507435Y5496356D01*
X3509670Y5493969D01*
X3512616Y5489702D01*
X3520338Y5481370D01*
X3529177Y5474309D01*
X3539032Y5468620D01*
X3549599Y5464505D01*
X3560622Y5461965D01*
X3572306Y5461101D01*
X3701542Y5461101D01*
X3713276Y5461965D01*
X3724300Y5464505D01*
X3734866Y5468620D01*
X3744671Y5474309D01*
X3753561Y5481370D01*
X3761282Y5489702D01*
X3765550Y5495950D01*
X3768648Y5498896D01*
X3772662Y5500319D01*
X3776929Y5499912D01*
X3780637Y5497830D01*
X3783177Y5494375D01*
X3784092Y5490210D01*
X3784092Y4836668D01*
X3783329Y4832756D01*
X3781094Y4829505D01*
X3777843Y4827270D01*
X3773932Y4826508D01*
G37*

%LPC*%
G36*
X1125829Y6060541D02*
G01*
X1134770Y6060541D01*
X1143558Y6062167D01*
X1151839Y6065418D01*
X1159459Y6070092D01*
X1166063Y6076137D01*
X1171397Y6083249D01*
X1175410Y6091224D01*
X1177848Y6099810D01*
X1178661Y6108700D01*
X1177848Y6117590D01*
X1175410Y6126175D01*
X1171397Y6134150D01*
X1166063Y6141262D01*
X1159459Y6147308D01*
X1151839Y6151981D01*
X1143558Y6155232D01*
X1134770Y6156858D01*
X1125829Y6156858D01*
X1117041Y6155232D01*
X1108760Y6151981D01*
X1101140Y6147308D01*
X1094536Y6141262D01*
X1089202Y6134150D01*
X1085189Y6126175D01*
X1082751Y6117590D01*
X1081938Y6108700D01*
X1082751Y6099810D01*
X1085189Y6091224D01*
X1089202Y6083249D01*
X1094536Y6076137D01*
X1101140Y6070092D01*
X1108760Y6065418D01*
X1117041Y6062167D01*
G37*

%LPD*%
D10*
X3427354Y5472054D02*
G01*
X3375393Y5420093D01*
X2197023Y5420093D01*
X1130300Y5905500D02*
G01*
X1270000Y6045200D01*
X3365500Y6045200D01*
X3365500Y6032500D01*
X871550Y6401003D02*
G01*
X895375Y6377178D01*
X1277112Y6377178D01*
X871550Y5536996D02*
G01*
X871550Y6401003D01*
X1277112Y5564378D02*
G01*
X1249730Y5536996D01*
X871550Y5536996D01*
X3636949Y6401003D02*
G01*
X3609568Y6373621D01*
X3231388Y6373621D01*
X3636949Y5536996D02*
G01*
X3636949Y6401003D01*
X3175000Y5537200D02*
G01*
X3637025Y5536945D01*
X3390900Y5778500D02*
G01*
X3249104Y5920295D01*
X2197173Y5920295D01*
X3352800Y5715000D02*
G01*
X3314700Y5715000D01*
X3269995Y5670295D01*
X2197100Y5670295D01*
D11*
G01*
X2197023Y5420080D03*
D12*
G01*
X2197176Y5670295D03*
G01*
X2197176Y5920282D03*
G01*
X2197176Y6170295D03*
G01*
X2197176Y6420281D03*
G01*
X2197176Y6670294D03*
D13*
G01*
X871550Y5536996D03*
G01*
X871550Y6401003D03*
D14*
G01*
X1333500Y5537200D03*
D15*
G01*
X1277112Y5564378D03*
D14*
G01*
X1333500Y6400800D03*
D15*
G01*
X1277112Y6377178D03*
D13*
G01*
X3636949Y6401003D03*
G01*
X3636949Y5536996D03*
D14*
G01*
X3175000Y6400800D03*
D15*
G01*
X3231388Y6373621D03*
D14*
G01*
X3175000Y5537200D03*
D15*
G01*
X3231388Y5560821D03*
D16*
G01*
X3352800Y5715000D03*
G01*
X3390900Y5778500D03*
G01*
X2819400Y5359400D03*
G01*
X3035300Y6299200D03*
G01*
X1130300Y5905500D03*
G01*
X3365500Y6032500D03*
G01*
X1130300Y5829300D03*
G01*
X1130300Y6108700D03*
G01*
X3365500Y6108700D03*
G01*
X3009900Y5829300D03*
G01*
X838200Y5156200D03*
G01*
X1130300Y5753100D03*
G01*
X1511300Y6235700D03*
G01*
X3427349Y5472048D03*
M02*
